<svg viewBox="0 0 408.21 50.56" xmlns="http://www.w3.org/2000/svg"><g fill="none" stroke="#ff688b" stroke-miterlimit="10"><path d="m.5 4.82h8.88v44.4h-8.88z"/><path d="m25.58 15.62h7.2l.6 4.44h.24c2.94-2.88 6.36-5.28 10.92-5.28 7.26 0 10.38 5 10.38 13.5v20.94h-8.82v-19.86c0-5.16-1.44-7-4.74-7-2.76 0-4.5 1.32-7 3.78v23.1h-8.78z"/><path d="m88 8.18a11 11 0 0 0 -3.54-.72c-2.64 0-4.08 1.56-4.08 5.28v2.88h6.3v7h-6.3v26.6h-8.84v-26.64h-4.54v-6.58l4.5-.36v-2.72c.04-7.02 3.28-12.42 11.74-12.42a17.62 17.62 0 0 1 6.36 1.2z"/><path d="m96.26 32.48c0-11.22 7.74-17.7 16.14-17.7s16.14 6.48 16.14 17.7-7.74 17.58-16.14 17.58-16.14-6.48-16.14-17.58zm23.28 0c0-6.36-2.58-10.5-7.14-10.5s-7.14 4.14-7.14 10.5 2.58 10.38 7.14 10.38 7.14-4.08 7.14-10.38z"/><path d="m141.92 15.62h7.2l.6 5.94h.28c2.46-4.38 6.06-6.78 9.54-6.78a9.51 9.51 0 0 1 4 .72l-1.56 7.62a10.59 10.59 0 0 0 -3.48-.54c-2.64 0-5.82 1.74-7.74 6.6v20h-8.76z"/><path d="m174.08 15.62h7.2l.6 4.5h.24c2.82-2.94 5.94-5.34 10.32-5.34 4.8 0 7.62 2.16 9.24 5.88 3.06-3.24 6.3-5.88 10.68-5.88 7.14 0 10.44 5 10.44 13.5v20.94h-8.8v-19.86c0-5.16-1.5-7-4.68-7q-2.88 0-6.48 3.78v23.1h-8.84v-19.88c0-5.16-1.5-7-4.68-7q-2.88 0-6.48 3.78v23.1h-8.76z"/><path d="m236.24 40.1c0-7.2 5.82-11 19.32-12.42-.12-3.3-1.56-5.82-5.7-5.82-3.12 0-6.12 1.38-9.24 3.18l-3.18-5.82a26.84 26.84 0 0 1 14-4.44c8.52 0 12.9 5.1 12.9 14.82v19.62h-7.2l-.66-3.6h-.18c-2.94 2.52-6.3 4.44-10.14 4.44a9.54 9.54 0 0 1 -9.92-9.96zm19.32-.24v-6.78c-8.16 1.08-10.92 3.3-10.92 6.3 0 2.64 1.86 3.78 4.44 3.78s4.38-1.16 6.48-3.3z"/><path d="m280.64 37.46v-14.88h-4.74v-6.58l5.16-.42 1-9h7.38v9h8.28v7h-8.28v14.88c0 3.84 1.56 5.64 4.56 5.64a9.82 9.82 0 0 0 3.3-.72l1.44 6.42a21.71 21.71 0 0 1 -7.08 1.26c-7.96 0-11.02-5.06-11.02-12.6z"/><path d="m309.74 5.42c0-2.88 2.22-4.8 5.28-4.8s5.22 1.92 5.22 4.8-2.22 4.8-5.22 4.8-5.28-2.04-5.28-4.8zm.84 10.2h8.76v33.6h-8.76z"/><path d="m332.72 32.48c0-11.22 7.74-17.7 16.13-17.7s16.15 6.48 16.15 17.7-7.74 17.58-16.14 17.58-16.14-6.48-16.14-17.58zm23.27 0c0-6.36-2.58-10.5-7.14-10.5s-7.14 4.14-7.14 10.5 2.58 10.38 7.14 10.38 7.15-4.08 7.15-10.38z"/><path d="m378.38 15.62h7.19l.6 4.44h.24c2.94-2.88 6.36-5.28 10.92-5.28 7.26 0 10.38 5 10.38 13.5v20.94h-8.82v-19.86c0-5.16-1.44-7-4.74-7-2.76 0-4.5 1.32-7 3.78v23.1h-8.75z"/></g></svg>