<svg height="18.26" viewBox="0 0 169.75 18.26" width="169.75" xmlns="http://www.w3.org/2000/svg"><g fill="#fff"><path d="m0 18.02 3.56-17.82h3.48l3.56 17.82h-3.01l-.7-4.11h-3.1l-.73 4.11zm4.11-6.18h2.42l-1.21-7.48z"/><path d="m18.99 18.02v-17.82h4.38a9.476 9.476 0 0 1 2.15.22 4.3 4.3 0 0 1 1.65.74 3.3 3.3 0 0 1 1.07 1.4 5.721 5.721 0 0 1 .37 2.22 5.087 5.087 0 0 1 -.3 1.85 2.835 2.835 0 0 1 -.87 1.22 3.271 3.271 0 0 1 -1.43.61 3.669 3.669 0 0 1 1.75.74 3.3 3.3 0 0 1 1.03 1.46 6.124 6.124 0 0 1 .34 2.18 7.315 7.315 0 0 1 -.32 2.25 4.111 4.111 0 0 1 -.95 1.63 4.032 4.032 0 0 1 -1.56.98 6.553 6.553 0 0 1 -2.19.33h-5.12zm3.25-10.54h1.1a3.219 3.219 0 0 0 1.5-.29 1.544 1.544 0 0 0 .74-.88 4.55 4.55 0 0 0 .21-1.5 2.8 2.8 0 0 0 -.32-1.46 1.587 1.587 0 0 0 -.96-.7 6.125 6.125 0 0 0 -1.63-.19h-.64zm0 8.25h1.23a2.37 2.37 0 0 0 2-.71 3.708 3.708 0 0 0 .53-2.22 5.031 5.031 0 0 0 -.25-1.75 1.856 1.856 0 0 0 -.84-1 3.156 3.156 0 0 0 -1.55-.33h-1.12z"/><path d="m42.68 18.26a5.589 5.589 0 0 1 -3.01-.7 3.917 3.917 0 0 1 -1.61-2.02 9.134 9.134 0 0 1 -.48-3.12v-6.68a8.876 8.876 0 0 1 .48-3.09 3.791 3.791 0 0 1 1.61-1.97 5.784 5.784 0 0 1 3.01-.68 5.866 5.866 0 0 1 3.05.68 3.847 3.847 0 0 1 1.61 1.97 8.626 8.626 0 0 1 .5 3.09v6.69a8.7 8.7 0 0 1 -.5 3.09 4.008 4.008 0 0 1 -1.61 2.02 5.572 5.572 0 0 1 -3.05.72zm0-2.4a1.772 1.772 0 0 0 1.2-.35 1.758 1.758 0 0 0 .52-.97 6.282 6.282 0 0 0 .13-1.34v-8.21a6.029 6.029 0 0 0 -.13-1.34 1.642 1.642 0 0 0 -.52-.93 2.235 2.235 0 0 0 -2.37 0 1.723 1.723 0 0 0 -.53.93 6.091 6.091 0 0 0 -.13 1.34v8.21a7.029 7.029 0 0 0 .12 1.34 1.673 1.673 0 0 0 .52.97 1.779 1.779 0 0 0 1.19.35z"/><path d="m61.71 18.26a5.5 5.5 0 0 1 -3.08-.73 3.744 3.744 0 0 1 -1.52-2.07 10.82 10.82 0 0 1 -.42-3.21v-12.05h3.17v12.43a11.053 11.053 0 0 0 .11 1.57 2.21 2.21 0 0 0 .52 1.19 1.564 1.564 0 0 0 1.22.45 1.539 1.539 0 0 0 1.24-.45 2.452 2.452 0 0 0 .51-1.19 9.808 9.808 0 0 0 .12-1.57v-12.43h3.15v12.06a10.773 10.773 0 0 1 -.42 3.21 3.763 3.763 0 0 1 -1.51 2.07 5.6 5.6 0 0 1 -3.09.72z"/><path d="m77.66 18.02v-15.42h-2.84v-2.4h8.89v2.4h-2.79v15.42z"/><path d="m103.93 18.02v-17.82h3.23v7.46h3.63v-7.46h3.26v17.82h-3.26v-8.05h-3.63v8.05z"/><path d="m122.47 18.02 3.56-17.82h3.48l3.56 17.82h-3.01l-.7-4.11h-3.1l-.73 4.11zm4.12-6.18h2.42l-1.21-7.48z"/><path d="m141.46 18.02v-17.82h2.27l4.33 10.16v-10.16h2.68v17.82h-2.16l-4.36-10.65v10.65z"/><path d="m159.15 18.02 3.56-17.82h3.48l3.56 17.82h-3.01l-.7-4.11h-3.1l-.73 4.11zm4.11-6.18h2.42l-1.21-7.48z"/></g></svg>