<svg height="17.823" viewBox="0 0 80.388 17.823" width="80.388" xmlns="http://www.w3.org/2000/svg"><g fill="#fff" transform="translate(-423.989 -396.928)"><path d="m427.553 396.928h3.477l3.564 17.823h-3.014l-.7-4.115h-3.1l-.726 4.115h-3.058zm2.971 11.64-1.211-7.481-1.209 7.481z"/><path d="m442.975 396.928h5.237c3.19 0 4.555 1.849 4.555 5.061 0 3.5-1.893 4.841-4.775 4.841h-1.783v7.921h-3.234zm4.489 7.614c1.782 0 2.244-.683 2.244-2.575 0-1.914-.242-2.75-2.244-2.75h-1.255v5.325z"/><path d="m461.169 396.928h5.237c3.19 0 4.554 1.849 4.554 5.061 0 3.5-1.892 4.841-4.774 4.841h-1.786v7.921h-3.234zm4.489 7.614c1.782 0 2.244-.683 2.244-2.575 0-1.914-.242-2.75-2.244-2.75h-1.258v5.325z"/><path d="m479.362 396.928h3.238v15.6h4.334v2.222h-7.569z"/><path d="m497.71 407.952-3.61-11.024h3.036l2.2 7.063 2.068-7.063h2.97l-3.564 11.024v6.8h-3.1z"/></g></svg>