<svg height="18.26" viewBox="0 0 198.592 18.26" width="198.592" xmlns="http://www.w3.org/2000/svg"><g fill="#fff" transform="translate(-430.891 -393.733)"><path d="m430.891 411.751v-17.82h4.378a9.578 9.578 0 0 1 2.145.22 4.353 4.353 0 0 1 1.65.737 3.329 3.329 0 0 1 1.067 1.4 5.718 5.718 0 0 1 .374 2.222 5.137 5.137 0 0 1 -.3 1.848 2.794 2.794 0 0 1 -.869 1.221 3.164 3.164 0 0 1 -1.43.605 3.683 3.683 0 0 1 1.749.737 3.38 3.38 0 0 1 1.034 1.463 6.178 6.178 0 0 1 .341 2.178 7.294 7.294 0 0 1 -.319 2.255 4.148 4.148 0 0 1 -.946 1.628 3.967 3.967 0 0 1 -1.562.979 6.58 6.58 0 0 1 -2.189.33zm3.256-10.538h1.1a3.185 3.185 0 0 0 1.5-.286 1.548 1.548 0 0 0 .737-.88 4.575 4.575 0 0 0 .209-1.5 2.8 2.8 0 0 0 -.319-1.463 1.613 1.613 0 0 0 -.957-.7 5.941 5.941 0 0 0 -1.628-.187h-.638zm0 8.25h1.232a2.355 2.355 0 0 0 2-.715 3.734 3.734 0 0 0 .528-2.211 5.057 5.057 0 0 0 -.253-1.749 1.866 1.866 0 0 0 -.836-1 3.144 3.144 0 0 0 -1.551-.33h-1.122z"/><path d="m449.745 411.751v-17.82h4.268a9.419 9.419 0 0 1 3.047.429 3.506 3.506 0 0 1 1.892 1.463 5.273 5.273 0 0 1 .649 2.816 8.637 8.637 0 0 1 -.2 1.936 3.687 3.687 0 0 1 -.671 1.463 3.034 3.034 0 0 1 -1.309.935l2.486 8.778h-3.256l-2.156-8.162h-1.495v8.162zm3.255-10.208h1.012a3.45 3.45 0 0 0 1.507-.275 1.609 1.609 0 0 0 .8-.88 4.227 4.227 0 0 0 .242-1.551 3.378 3.378 0 0 0 -.495-2.013 2.213 2.213 0 0 0 -1.881-.671h-1.185z"/><path d="m467.785 411.751 3.564-17.82h3.476l3.564 17.82h-3.015l-.7-4.114h-3.1l-.726 4.114zm4.114-6.182h2.42l-1.21-7.48z"/><path d="m486.77 411.751v-17.82h2.266l4.334 10.169v-10.169h2.684v17.82h-2.154l-4.358-10.651v10.648z"/><path d="m505.36 411.751v-17.82h4.2a7.918 7.918 0 0 1 3.4.594 3.466 3.466 0 0 1 1.738 1.826 8.139 8.139 0 0 1 .517 3.124v6.512a8.712 8.712 0 0 1 -.517 3.223 3.6 3.6 0 0 1 -1.716 1.914 7.169 7.169 0 0 1 -3.289.627zm3.256-2.266h.99a2.554 2.554 0 0 0 1.606-.4 1.75 1.75 0 0 0 .594-1.155 13.3 13.3 0 0 0 .11-1.859v-6.82a7.9 7.9 0 0 0 -.154-1.738 1.49 1.49 0 0 0 -.638-.968 3.017 3.017 0 0 0 -1.562-.308h-.946z"/><path d="m536.16 411.751v-17.82h5.24a5.067 5.067 0 0 1 2.607.594 3.53 3.53 0 0 1 1.474 1.727 7.106 7.106 0 0 1 .473 2.739 5.748 5.748 0 0 1 -.594 2.8 3.546 3.546 0 0 1 -1.661 1.551 6.051 6.051 0 0 1 -2.519.484h-1.76v7.92zm3.256-10.208h1.232a3.063 3.063 0 0 0 1.375-.253 1.353 1.353 0 0 0 .682-.814 4.93 4.93 0 0 0 .187-1.507 7.074 7.074 0 0 0 -.143-1.573 1.356 1.356 0 0 0 -.616-.891 2.963 2.963 0 0 0 -1.485-.286h-1.232z"/><path d="m559.194 411.993a5.626 5.626 0 0 1 -3.014-.7 3.887 3.887 0 0 1 -1.606-2.024 9.069 9.069 0 0 1 -.484-3.124v-6.666a8.792 8.792 0 0 1 .484-3.091 3.789 3.789 0 0 1 1.606-1.969 7.074 7.074 0 0 1 6.061 0 3.866 3.866 0 0 1 1.606 1.969 8.621 8.621 0 0 1 .495 3.091v6.688a8.732 8.732 0 0 1 -.495 3.091 4.023 4.023 0 0 1 -1.606 2.024 5.6 5.6 0 0 1 -3.047.711zm0-2.4a1.74 1.74 0 0 0 1.2-.352 1.779 1.779 0 0 0 .517-.968 6.4 6.4 0 0 0 .131-1.342v-8.206a6.21 6.21 0 0 0 -.131-1.342 1.706 1.706 0 0 0 -.517-.935 1.777 1.777 0 0 0 -1.2-.341 1.741 1.741 0 0 0 -1.166.341 1.678 1.678 0 0 0 -.529.935 6.272 6.272 0 0 0 -.131 1.342v8.206a6.938 6.938 0 0 0 .121 1.342 1.683 1.683 0 0 0 .517.968 1.742 1.742 0 0 0 1.188.359z"/><path d="m573.339 411.751v-17.82h3.256v15.576h4.312v2.244z"/><path d="m589.289 411.751v-17.82h3.211v17.82z"/><path d="m606.647 411.993a5.321 5.321 0 0 1 -3.069-.77 4.007 4.007 0 0 1 -1.551-2.1 9.753 9.753 0 0 1 -.44-3.069v-6.354a10.179 10.179 0 0 1 .44-3.168 3.794 3.794 0 0 1 1.551-2.068 5.568 5.568 0 0 1 3.069-.726 5.63 5.63 0 0 1 2.893.627 3.455 3.455 0 0 1 1.485 1.793 7.651 7.651 0 0 1 .44 2.706v1.5h-3.124v-1.54a11.115 11.115 0 0 0 -.077-1.364 1.7 1.7 0 0 0 -.418-.979 1.571 1.571 0 0 0 -1.177-.363 1.667 1.667 0 0 0 -1.221.385 1.854 1.854 0 0 0 -.495 1.034 8.747 8.747 0 0 0 -.11 1.463v7.744a6.836 6.836 0 0 0 .154 1.6 1.649 1.649 0 0 0 .561.946 1.752 1.752 0 0 0 1.111.319 1.481 1.481 0 0 0 1.155-.385 1.9 1.9 0 0 0 .429-1.023 10.641 10.641 0 0 0 .088-1.43v-1.606h3.124v1.43a8.665 8.665 0 0 1 -.418 2.8 3.651 3.651 0 0 1 -1.463 1.914 5.288 5.288 0 0 1 -2.937.684z"/><path d="m622.817 411.751v-6.8l-3.608-11.022h3.036l2.2 7.062 2.068-7.062h2.97l-3.564 11.022v6.8z"/></g></svg>