<svg height="18.26" viewBox="0 0 97.965 18.26" width="97.965" xmlns="http://www.w3.org/2000/svg"><g fill="#fff" transform="translate(-424.627 -396.733)"><path d="m429.687 414.993a5.321 5.321 0 0 1 -3.069-.77 4.007 4.007 0 0 1 -1.551-2.1 9.754 9.754 0 0 1 -.44-3.069v-6.354a10.18 10.18 0 0 1 .44-3.168 3.794 3.794 0 0 1 1.551-2.068 5.568 5.568 0 0 1 3.069-.726 5.63 5.63 0 0 1 2.893.627 3.455 3.455 0 0 1 1.485 1.793 7.655 7.655 0 0 1 .44 2.706v1.5h-3.124v-1.54a11.115 11.115 0 0 0 -.077-1.364 1.7 1.7 0 0 0 -.418-.979 1.571 1.571 0 0 0 -1.177-.363 1.667 1.667 0 0 0 -1.221.385 1.854 1.854 0 0 0 -.495 1.034 8.744 8.744 0 0 0 -.11 1.463v7.744a6.837 6.837 0 0 0 .154 1.6 1.646 1.646 0 0 0 .561.946 1.752 1.752 0 0 0 1.111.319 1.481 1.481 0 0 0 1.155-.385 1.9 1.9 0 0 0 .429-1.023 10.636 10.636 0 0 0 .088-1.43v-1.606h3.124v1.43a8.666 8.666 0 0 1 -.418 2.8 3.651 3.651 0 0 1 -1.463 1.914 5.289 5.289 0 0 1 -2.937.684z"/><path d="m442.469 414.751 3.564-17.82h3.476l3.564 17.82h-3.014l-.7-4.114h-3.1l-.726 4.114zm4.114-6.182h2.417l-1.21-7.48z"/><path d="m461.455 414.751v-17.82h4.268a9.419 9.419 0 0 1 3.047.429 3.506 3.506 0 0 1 1.892 1.463 5.273 5.273 0 0 1 .649 2.816 8.637 8.637 0 0 1 -.2 1.936 3.687 3.687 0 0 1 -.671 1.463 3.034 3.034 0 0 1 -1.309.935l2.486 8.778h-3.256l-2.156-8.162h-1.5v8.162zm3.256-10.208h1.012a3.451 3.451 0 0 0 1.507-.275 1.609 1.609 0 0 0 .8-.88 4.227 4.227 0 0 0 .242-1.551 3.378 3.378 0 0 0 -.495-2.013 2.213 2.213 0 0 0 -1.881-.671h-1.188z"/><path d="m480.4 414.751v-17.82h7.48v2.288h-4.224v5.126h3.322v2.266h-3.322v5.9h4.268v2.244z"/><path d="m496.412 414.751v-17.82h7.48v2.288h-4.224v5.126h3.322v2.266h-3.322v5.9h4.268v2.244z"/><path d="m512.428 414.751v-17.82h4.272a9.421 9.421 0 0 1 3.048.429 3.5 3.5 0 0 1 1.891 1.463 5.264 5.264 0 0 1 .65 2.816 8.632 8.632 0 0 1 -.2 1.936 3.672 3.672 0 0 1 -.671 1.463 3.022 3.022 0 0 1 -1.309.935l2.486 8.778h-3.256l-2.155-8.162h-1.5v8.162zm3.257-10.208h1.015a3.452 3.452 0 0 0 1.508-.275 1.6 1.6 0 0 0 .8-.88 4.227 4.227 0 0 0 .242-1.551 3.378 3.378 0 0 0 -.495-2.013 2.212 2.212 0 0 0 -1.88-.671h-1.188z"/></g></svg>