<svg height="18.26" viewBox="0 0 123.375 18.26" width="123.375" xmlns="http://www.w3.org/2000/svg"><g fill="#fff" transform="translate(-344.627 -393.733)"><path d="m349.687 411.993a5.321 5.321 0 0 1 -3.069-.77 4.007 4.007 0 0 1 -1.551-2.1 9.754 9.754 0 0 1 -.44-3.069v-6.354a10.18 10.18 0 0 1 .44-3.168 3.794 3.794 0 0 1 1.551-2.068 5.568 5.568 0 0 1 3.069-.726 5.63 5.63 0 0 1 2.893.627 3.455 3.455 0 0 1 1.485 1.793 7.655 7.655 0 0 1 .44 2.706v1.5h-3.124v-1.54a11.115 11.115 0 0 0 -.077-1.364 1.7 1.7 0 0 0 -.418-.979 1.571 1.571 0 0 0 -1.177-.363 1.667 1.667 0 0 0 -1.221.385 1.854 1.854 0 0 0 -.495 1.034 8.744 8.744 0 0 0 -.11 1.463v7.744a6.837 6.837 0 0 0 .154 1.6 1.646 1.646 0 0 0 .561.946 1.752 1.752 0 0 0 1.111.319 1.481 1.481 0 0 0 1.155-.385 1.9 1.9 0 0 0 .429-1.023 10.636 10.636 0 0 0 .088-1.43v-1.606h3.124v1.43a8.666 8.666 0 0 1 -.418 2.8 3.651 3.651 0 0 1 -1.463 1.914 5.289 5.289 0 0 1 -2.937.684z"/><path d="m368.211 411.993a5.626 5.626 0 0 1 -3.014-.7 3.886 3.886 0 0 1 -1.606-2.024 9.069 9.069 0 0 1 -.484-3.124v-6.666a8.792 8.792 0 0 1 .484-3.091 3.789 3.789 0 0 1 1.606-1.969 7.074 7.074 0 0 1 6.061 0 3.866 3.866 0 0 1 1.606 1.969 8.622 8.622 0 0 1 .495 3.091v6.688a8.733 8.733 0 0 1 -.495 3.091 4.024 4.024 0 0 1 -1.606 2.024 5.6 5.6 0 0 1 -3.047.711zm0-2.4a1.74 1.74 0 0 0 1.2-.352 1.78 1.78 0 0 0 .517-.968 6.4 6.4 0 0 0 .132-1.342v-8.206a6.207 6.207 0 0 0 -.132-1.342 1.706 1.706 0 0 0 -.517-.935 1.777 1.777 0 0 0 -1.2-.341 1.743 1.743 0 0 0 -1.166.341 1.671 1.671 0 0 0 -.528.935 6.207 6.207 0 0 0 -.132 1.342v8.206a6.936 6.936 0 0 0 .121 1.342 1.683 1.683 0 0 0 .517.968 1.745 1.745 0 0 0 1.188.359z"/><path d="m382.312 411.751.309-17.82h3.366l2.53 12.342 2.64-12.342h3.256l.33 17.82h-2.42l-.264-12.386-2.53 12.386h-1.958l-2.571-12.43-.242 12.43z"/><path d="m403.982 411.751v-17.82h5.236a5.062 5.062 0 0 1 2.607.594 3.53 3.53 0 0 1 1.474 1.727 7.106 7.106 0 0 1 .473 2.739 5.748 5.748 0 0 1 -.594 2.8 3.546 3.546 0 0 1 -1.661 1.551 6.047 6.047 0 0 1 -2.519.484h-1.76v7.92zm3.256-10.208h1.232a3.06 3.06 0 0 0 1.375-.253 1.353 1.353 0 0 0 .682-.814 4.929 4.929 0 0 0 .187-1.507 7.075 7.075 0 0 0 -.143-1.573 1.352 1.352 0 0 0 -.616-.891 2.972 2.972 0 0 0 -1.485-.286h-1.232z"/><path d="m421.274 411.751 3.564-17.82h3.476l3.564 17.82h-3.014l-.7-4.114h-3.1l-.726 4.114zm4.114-6.182h2.42l-1.21-7.48z"/><path d="m440.26 411.751v-17.82h2.266l4.334 10.169v-10.169h2.684v17.82h-2.156l-4.356-10.651v10.648z"/><path d="m461.336 411.751v-6.8l-3.608-11.022h3.036l2.2 7.062 2.068-7.062h2.968l-3.564 11.022v6.8z"/></g></svg>