<svg height="18.263" viewBox="0 0 315.895 18.263" width="315.895" xmlns="http://www.w3.org/2000/svg"><g fill="#fff" transform="translate(-380.605 -394.73)"><path d="m380.605 407.052v-6.359c0-3.652 1.166-5.963 5.082-5.963 3.653 0 4.819 2.025 4.819 5.127v1.5h-3.124v-1.541c0-1.5-.022-2.706-1.672-2.706-1.672 0-1.827 1.276-1.827 2.9v7.723c0 1.936.4 2.861 1.827 2.861 1.606 0 1.672-1.255 1.672-2.839v-1.605h3.124v1.43c0 3.147-1.056 5.413-4.819 5.413-3.916 0-5.082-2.464-5.082-5.941z"/><path d="m399.085 407.162v-6.689c0-3.608 1.32-5.743 5.149-5.743 3.806 0 5.126 2.135 5.126 5.743v6.689c0 3.587-1.32 5.831-5.126 5.831-3.851 0-5.149-2.222-5.149-5.831zm6.975.77v-8.207c0-1.5-.242-2.618-1.826-2.618s-1.849 1.122-1.849 2.618v8.207c0 1.474.242 2.663 1.849 2.663 1.584.005 1.826-1.189 1.826-2.663z"/><path d="m418.357 394.928h2.266l4.335 10.166v-10.166h2.684v17.823h-2.156l-4.357-10.651v10.649h-2.772z"/><path d="m436.506 407.558 2.795-.55c.088 2.113.594 3.477 2.024 3.477 1.034 0 1.474-.7 1.474-1.672 0-1.541-.792-2.4-1.958-3.411l-2.244-1.958a5.261 5.261 0 0 1 -2.069-4.313c0-2.817 1.761-4.4 4.6-4.4 3.344 0 4.29 2.245 4.466 4.841l-2.794.484c-.066-1.672-.308-2.926-1.738-2.926a1.5 1.5 0 0 0 -1.5 1.672 3.232 3.232 0 0 0 1.453 2.684l2.222 1.959a6.609 6.609 0 0 1 2.662 5.17 4.216 4.216 0 0 1 -4.466 4.379c-3.255-.001-4.795-1.894-4.927-5.436z"/><path d="m454.282 406.986v-12.058h3.168v12.432c0 1.7.2 3.213 1.849 3.213 1.672 0 1.87-1.518 1.87-3.213v-12.432h3.146v12.058c0 3.741-1.034 6.007-5.016 6.007-4.005 0-5.017-2.266-5.017-6.007z"/><path d="m473.466 394.928h3.234v15.6h4.335v2.222h-7.569z"/><path d="m491.11 397.327h-2.839v-2.4h8.868v2.4h-2.773v15.424h-3.256z"/><path d="m505.453 394.928h3.213v17.823h-3.213z"/><path d="m518.015 394.928h2.266l4.335 10.166v-10.166h2.684v17.823h-2.156l-4.357-10.651v10.649h-2.772z"/><path d="m536.318 406.876v-5.985c0-3.828 1.166-6.161 5.083-6.161 3.653 0 4.929 1.893 4.929 5.193v.924h-3.1v-1.012c0-1.716-.177-2.728-1.783-2.728-1.716 0-1.848 1.386-1.848 3.014v7.459c0 1.849.352 3.015 1.936 3.015 1.562 0 1.958-1.233 1.958-3.169v-1.672h-1.914v-2.046h4.841v9.043h-2.112l-.221-1.738a3 3 0 0 1 -3.014 1.98c-3.522 0-4.755-2.354-4.755-6.117z"/><path d="m567.448 394.928h4.4c3.124 0 5.214 1.056 5.214 4.577 0 2.179-.9 3.389-2.574 3.653 2.091.4 3.081 1.892 3.081 4.4 0 3.411-1.673 5.193-4.973 5.193h-5.149zm4.357 7.283c1.936 0 2.442-.857 2.442-2.662 0-1.892-.924-2.354-2.9-2.354h-.66v5.016zm.132 8.252c1.98 0 2.53-.924 2.53-2.927 0-2.112-.7-3.08-2.64-3.08h-1.144v6.007z"/><path d="m586.17 406.986v-12.058h3.168v12.432c0 1.7.2 3.213 1.849 3.213 1.672 0 1.87-1.518 1.87-3.213v-12.432h3.143v12.058c0 3.741-1.035 6.007-5.017 6.007-4.001 0-5.013-2.266-5.013-6.007z"/><path d="m604.914 407.558 2.794-.55c.088 2.113.594 3.477 2.024 3.477 1.034 0 1.474-.7 1.474-1.672 0-1.541-.792-2.4-1.958-3.411l-2.248-1.958a5.263 5.263 0 0 1 -2.068-4.313c0-2.817 1.76-4.4 4.6-4.4 3.344 0 4.291 2.245 4.466 4.841l-2.794.484c-.066-1.672-.308-2.926-1.738-2.926a1.494 1.494 0 0 0 -1.5 1.672 3.231 3.231 0 0 0 1.452 2.684l2.222 1.959a6.607 6.607 0 0 1 2.663 5.17 4.217 4.217 0 0 1 -4.467 4.379c-3.251-.001-4.791-1.894-4.922-5.436z"/><path d="m622.909 394.928h3.213v17.823h-3.213z"/><path d="m635.471 394.928h2.266l4.335 10.166v-10.166h2.684v17.823h-2.156l-4.356-10.651v10.649h-2.773z"/><path d="m654.061 394.928h7.481v2.289h-4.247v5.126h3.345v2.267h-3.345v5.919h4.291v2.222h-7.525z"/><path d="m669.637 407.558 2.795-.55c.088 2.113.593 3.477 2.023 3.477 1.035 0 1.475-.7 1.475-1.672 0-1.541-.792-2.4-1.958-3.411l-2.244-1.958a5.261 5.261 0 0 1 -2.069-4.313c0-2.817 1.761-4.4 4.6-4.4 3.344 0 4.291 2.245 4.467 4.841l-2.795.484c-.067-1.672-.308-2.926-1.739-2.926a1.5 1.5 0 0 0 -1.5 1.672 3.231 3.231 0 0 0 1.452 2.684l2.223 1.959a6.609 6.609 0 0 1 2.662 5.17 4.215 4.215 0 0 1 -4.466 4.379c-3.254-.001-4.793-1.894-4.926-5.436z"/><path d="m687.1 407.558 2.794-.55c.088 2.113.594 3.477 2.025 3.477 1.034 0 1.473-.7 1.473-1.672 0-1.541-.791-2.4-1.957-3.411l-2.245-1.958a5.262 5.262 0 0 1 -2.067-4.313c0-2.817 1.76-4.4 4.6-4.4 3.344 0 4.291 2.245 4.466 4.841l-2.795.484c-.065-1.672-.306-2.926-1.737-2.926a1.5 1.5 0 0 0 -1.5 1.672 3.232 3.232 0 0 0 1.453 2.684l2.223 1.959a6.612 6.612 0 0 1 2.662 5.17 4.217 4.217 0 0 1 -4.467 4.379c-3.252-.001-4.792-1.894-4.928-5.436z"/></g></svg>