<svg height="18.263" viewBox="0 0 116.754 18.263" width="116.754" xmlns="http://www.w3.org/2000/svg"><g fill="#fff" transform="translate(-404.605 -393.73)"><path d="m404.605 406.052v-6.359c0-3.652 1.166-5.963 5.082-5.963 3.653 0 4.819 2.025 4.819 5.127v1.5h-3.124v-1.541c0-1.5-.022-2.706-1.672-2.706-1.672 0-1.827 1.276-1.827 2.9v7.723c0 1.936.4 2.861 1.827 2.861 1.606 0 1.672-1.255 1.672-2.839v-1.605h3.124v1.43c0 3.147-1.056 5.413-4.819 5.413-3.916 0-5.082-2.464-5.082-5.941z"/><path d="m423.085 406.162v-6.689c0-3.608 1.32-5.743 5.149-5.743 3.806 0 5.126 2.135 5.126 5.743v6.689c0 3.587-1.32 5.831-5.126 5.831-3.851 0-5.149-2.222-5.149-5.831zm6.975.77v-8.207c0-1.5-.242-2.618-1.826-2.618s-1.849 1.122-1.849 2.618v8.207c0 1.474.242 2.663 1.849 2.663 1.584.005 1.826-1.189 1.826-2.663z"/><path d="m442.357 393.928h2.266l4.335 10.166v-10.166h2.684v17.823h-2.156l-4.357-10.651v10.649h-2.772z"/><path d="m462.729 396.327h-2.839v-2.4h8.867v2.4h-2.772v15.424h-3.256z"/><path d="m479.646 393.928h3.477l3.564 17.823h-3.014l-.7-4.115h-3.1l-.726 4.115h-3.058zm2.971 11.64-1.211-7.481-1.21 7.481z"/><path d="m494.782 406.052v-6.359c0-3.652 1.166-5.963 5.082-5.963 3.653 0 4.819 2.025 4.819 5.127v1.5h-3.124v-1.541c0-1.5-.022-2.706-1.672-2.706-1.673 0-1.827 1.276-1.827 2.9v7.723c0 1.936.4 2.861 1.827 2.861 1.606 0 1.672-1.255 1.672-2.839v-1.605h3.124v1.43c0 3.147-1.056 5.413-4.819 5.413-3.916 0-5.082-2.464-5.082-5.941z"/><path d="m515.33 396.327h-2.838v-2.4h8.867v2.4h-2.773v15.424h-3.256z"/></g></svg>