<svg height="18.26" viewBox="0 0 343.373 18.26" width="343.373" xmlns="http://www.w3.org/2000/svg"><g fill="#fff" transform="translate(-360.627 -393.733)"><path d="m365.687 411.993a5.321 5.321 0 0 1 -3.069-.77 4.007 4.007 0 0 1 -1.551-2.1 9.754 9.754 0 0 1 -.44-3.069v-6.354a10.18 10.18 0 0 1 .44-3.168 3.794 3.794 0 0 1 1.551-2.068 5.568 5.568 0 0 1 3.069-.726 5.63 5.63 0 0 1 2.893.627 3.455 3.455 0 0 1 1.485 1.793 7.651 7.651 0 0 1 .44 2.706v1.5h-3.124v-1.54a11.115 11.115 0 0 0 -.077-1.364 1.7 1.7 0 0 0 -.418-.979 1.571 1.571 0 0 0 -1.177-.363 1.667 1.667 0 0 0 -1.221.385 1.854 1.854 0 0 0 -.495 1.034 8.744 8.744 0 0 0 -.11 1.463v7.744a6.837 6.837 0 0 0 .154 1.6 1.649 1.649 0 0 0 .561.946 1.752 1.752 0 0 0 1.111.319 1.481 1.481 0 0 0 1.155-.385 1.9 1.9 0 0 0 .429-1.023 10.636 10.636 0 0 0 .088-1.43v-1.606h3.124v1.43a8.666 8.666 0 0 1 -.418 2.8 3.651 3.651 0 0 1 -1.463 1.914 5.289 5.289 0 0 1 -2.937.684z"/><path d="m384.211 411.993a5.626 5.626 0 0 1 -3.014-.7 3.886 3.886 0 0 1 -1.606-2.024 9.069 9.069 0 0 1 -.484-3.124v-6.666a8.792 8.792 0 0 1 .484-3.091 3.789 3.789 0 0 1 1.606-1.969 7.074 7.074 0 0 1 6.061 0 3.866 3.866 0 0 1 1.606 1.969 8.622 8.622 0 0 1 .495 3.091v6.688a8.733 8.733 0 0 1 -.495 3.091 4.024 4.024 0 0 1 -1.606 2.024 5.6 5.6 0 0 1 -3.047.711zm0-2.4a1.74 1.74 0 0 0 1.2-.352 1.78 1.78 0 0 0 .517-.968 6.4 6.4 0 0 0 .132-1.342v-8.206a6.207 6.207 0 0 0 -.132-1.342 1.706 1.706 0 0 0 -.517-.935 1.777 1.777 0 0 0 -1.2-.341 1.743 1.743 0 0 0 -1.166.341 1.671 1.671 0 0 0 -.528.935 6.207 6.207 0 0 0 -.132 1.342v8.206a6.936 6.936 0 0 0 .121 1.342 1.683 1.683 0 0 0 .517.968 1.745 1.745 0 0 0 1.188.359z"/><path d="m398.356 411.751v-17.82h4.268a9.421 9.421 0 0 1 3.048.429 3.5 3.5 0 0 1 1.891 1.463 5.264 5.264 0 0 1 .65 2.816 8.7 8.7 0 0 1 -.2 1.936 3.687 3.687 0 0 1 -.671 1.463 3.034 3.034 0 0 1 -1.309.935l2.485 8.778h-3.255l-2.156-8.162h-1.5v8.162zm3.257-10.208h1.011a3.452 3.452 0 0 0 1.508-.275 1.609 1.609 0 0 0 .8-.88 4.227 4.227 0 0 0 .242-1.551 3.378 3.378 0 0 0 -.495-2.013 2.213 2.213 0 0 0 -1.881-.671h-1.188z"/><path d="m417.3 411.751v-17.82h5.236a5.064 5.064 0 0 1 2.607.594 3.529 3.529 0 0 1 1.474 1.727 7.106 7.106 0 0 1 .473 2.739 5.748 5.748 0 0 1 -.594 2.8 3.546 3.546 0 0 1 -1.661 1.551 6.047 6.047 0 0 1 -2.519.484h-1.76v7.92zm3.256-10.208h1.232a3.061 3.061 0 0 0 1.375-.253 1.353 1.353 0 0 0 .682-.814 4.928 4.928 0 0 0 .187-1.507 7.072 7.072 0 0 0 -.143-1.573 1.356 1.356 0 0 0 -.616-.891 2.961 2.961 0 0 0 -1.485-.286h-1.232z"/><path d="m440.332 411.993a5.626 5.626 0 0 1 -3.014-.7 3.886 3.886 0 0 1 -1.606-2.024 9.069 9.069 0 0 1 -.484-3.124v-6.666a8.792 8.792 0 0 1 .484-3.091 3.789 3.789 0 0 1 1.606-1.969 7.074 7.074 0 0 1 6.061 0 3.866 3.866 0 0 1 1.606 1.969 8.621 8.621 0 0 1 .5 3.091v6.688a8.732 8.732 0 0 1 -.5 3.091 4.024 4.024 0 0 1 -1.606 2.024 5.6 5.6 0 0 1 -3.047.711zm0-2.4a1.74 1.74 0 0 0 1.2-.352 1.78 1.78 0 0 0 .517-.968 6.4 6.4 0 0 0 .132-1.342v-8.206a6.209 6.209 0 0 0 -.132-1.342 1.706 1.706 0 0 0 -.517-.935 1.777 1.777 0 0 0 -1.2-.341 1.743 1.743 0 0 0 -1.166.341 1.671 1.671 0 0 0 -.528.935 6.207 6.207 0 0 0 -.132 1.342v8.206a6.936 6.936 0 0 0 .121 1.342 1.683 1.683 0 0 0 .517.968 1.745 1.745 0 0 0 1.188.359z"/><path d="m454.477 411.751v-17.82h4.269a9.419 9.419 0 0 1 3.047.429 3.506 3.506 0 0 1 1.892 1.463 5.273 5.273 0 0 1 .649 2.816 8.635 8.635 0 0 1 -.2 1.936 3.686 3.686 0 0 1 -.671 1.463 3.034 3.034 0 0 1 -1.309.935l2.486 8.778h-3.256l-2.156-8.162h-1.5v8.162zm3.257-10.208h1.012a3.45 3.45 0 0 0 1.507-.275 1.609 1.609 0 0 0 .8-.88 4.227 4.227 0 0 0 .242-1.551 3.378 3.378 0 0 0 -.495-2.013 2.213 2.213 0 0 0 -1.881-.671h-1.188z"/><path d="m472.518 411.751 3.563-17.82h3.477l3.564 17.82h-3.015l-.7-4.114h-3.1l-.726 4.114zm4.114-6.182h2.42l-1.21-7.48z"/><path d="m493.286 411.751v-15.422h-2.838v-2.4h8.887v2.4h-2.794v15.422z"/><path d="m507.563 411.751v-17.82h7.48v2.288h-4.224v5.126h3.322v2.266h-3.322v5.9h4.268v2.244z"/><path d="m535.525 411.751v-17.82h5.236a5.064 5.064 0 0 1 2.607.594 3.53 3.53 0 0 1 1.474 1.727 7.106 7.106 0 0 1 .473 2.739 5.748 5.748 0 0 1 -.594 2.8 3.546 3.546 0 0 1 -1.661 1.551 6.047 6.047 0 0 1 -2.519.484h-1.76v7.92zm3.256-10.208h1.232a3.061 3.061 0 0 0 1.375-.253 1.353 1.353 0 0 0 .682-.814 4.93 4.93 0 0 0 .187-1.507 7.074 7.074 0 0 0 -.143-1.573 1.352 1.352 0 0 0 -.616-.891 2.961 2.961 0 0 0 -1.485-.286h-1.232z"/><path d="m553.763 411.751v-17.82h3.237v7.458h3.63v-7.458h3.256v17.82h-3.256v-8.051h-3.63v8.052z"/><path d="m573.3 411.751v-17.82h3.212v17.82z"/><path d="m585.86 411.751v-17.82h3.257v15.576h4.312v2.244z"/><path d="m606.562 411.993a5.628 5.628 0 0 1 -3.014-.7 3.891 3.891 0 0 1 -1.606-2.024 9.093 9.093 0 0 1 -.484-3.124v-6.666a8.814 8.814 0 0 1 .484-3.091 3.794 3.794 0 0 1 1.606-1.969 7.074 7.074 0 0 1 6.061 0 3.861 3.861 0 0 1 1.606 1.969 8.623 8.623 0 0 1 .495 3.091v6.688a8.734 8.734 0 0 1 -.495 3.091 4.019 4.019 0 0 1 -1.606 2.024 5.6 5.6 0 0 1 -3.047.711zm0-2.4a1.738 1.738 0 0 0 1.2-.352 1.773 1.773 0 0 0 .517-.968 6.4 6.4 0 0 0 .132-1.342v-8.206a6.207 6.207 0 0 0 -.132-1.342 1.7 1.7 0 0 0 -.517-.935 1.775 1.775 0 0 0 -1.2-.341 1.745 1.745 0 0 0 -1.166.341 1.671 1.671 0 0 0 -.528.935 6.211 6.211 0 0 0 -.132 1.342v8.206a6.939 6.939 0 0 0 .121 1.342 1.688 1.688 0 0 0 .517.968 1.745 1.745 0 0 0 1.188.359z"/><path d="m625.2 411.993a5.264 5.264 0 0 1 -2.684-.627 3.943 3.943 0 0 1 -1.628-1.837 7.9 7.9 0 0 1 -.616-2.97l2.794-.55a8.63 8.63 0 0 0 .253 1.826 2.649 2.649 0 0 0 .638 1.221 1.532 1.532 0 0 0 1.133.429 1.27 1.27 0 0 0 1.122-.473 2.047 2.047 0 0 0 .33-1.2 3.244 3.244 0 0 0 -.528-1.914 8.26 8.26 0 0 0 -1.408-1.5l-2.244-1.98a6.747 6.747 0 0 1 -1.507-1.815 5 5 0 0 1 -.561-2.475 4.226 4.226 0 0 1 1.232-3.256 4.755 4.755 0 0 1 3.366-1.144 4.992 4.992 0 0 1 2.09.385 3.319 3.319 0 0 1 1.331 1.067 4.813 4.813 0 0 1 .737 1.551 9.181 9.181 0 0 1 .308 1.837l-2.772.484a9.461 9.461 0 0 0 -.187-1.5 2.076 2.076 0 0 0 -.506-1.034 1.423 1.423 0 0 0 -1.067-.374 1.348 1.348 0 0 0 -1.111.473 1.808 1.808 0 0 0 -.385 1.177 2.708 2.708 0 0 0 .374 1.485 5.788 5.788 0 0 0 1.078 1.2l2.218 1.966a9.234 9.234 0 0 1 1.881 2.167 5.53 5.53 0 0 1 .781 3 4.515 4.515 0 0 1 -.561 2.266 4.022 4.022 0 0 1 -1.562 1.551 4.712 4.712 0 0 1 -2.339.564z"/><path d="m643.016 411.993a5.626 5.626 0 0 1 -3.014-.7 3.887 3.887 0 0 1 -1.606-2.024 9.069 9.069 0 0 1 -.484-3.124v-6.666a8.792 8.792 0 0 1 .484-3.091 3.789 3.789 0 0 1 1.604-1.973 7.072 7.072 0 0 1 6.06 0 3.863 3.863 0 0 1 1.607 1.969 8.621 8.621 0 0 1 .495 3.091v6.688a8.732 8.732 0 0 1 -.495 3.091 4.02 4.02 0 0 1 -1.607 2.024 5.592 5.592 0 0 1 -3.044.715zm0-2.4a1.739 1.739 0 0 0 1.2-.352 1.78 1.78 0 0 0 .517-.968 6.4 6.4 0 0 0 .131-1.342v-8.206a6.211 6.211 0 0 0 -.131-1.342 1.706 1.706 0 0 0 -.517-.935 1.775 1.775 0 0 0 -1.2-.341 1.741 1.741 0 0 0 -1.166.341 1.671 1.671 0 0 0 -.528.935 6.2 6.2 0 0 0 -.133 1.342v8.206a7.016 7.016 0 0 0 .121 1.342 1.7 1.7 0 0 0 .518.968 1.745 1.745 0 0 0 1.188.359z"/><path d="m657.162 411.751v-17.82h5.238a5.062 5.062 0 0 1 2.607.594 3.523 3.523 0 0 1 1.473 1.727 7.088 7.088 0 0 1 .473 2.739 5.737 5.737 0 0 1 -.594 2.8 3.539 3.539 0 0 1 -1.66 1.551 6.051 6.051 0 0 1 -2.519.484h-1.76v7.92zm3.256-10.208h1.232a3.063 3.063 0 0 0 1.375-.253 1.353 1.353 0 0 0 .682-.814 4.928 4.928 0 0 0 .187-1.507 7.071 7.071 0 0 0 -.143-1.573 1.355 1.355 0 0 0 -.616-.891 2.964 2.964 0 0 0 -1.485-.286h-1.232z"/><path d="m675.4 411.751v-17.82h3.234v7.458h3.631v-7.458h3.255v17.82h-3.255v-8.051h-3.631v8.052z"/><path d="m697.334 411.751v-6.8l-3.608-11.022h3.036l2.2 7.062 2.068-7.062h2.97l-3.565 11.022v6.8z"/></g></svg>