<svg height="18.263" viewBox="0 0 131.538 18.263" width="131.538" xmlns="http://www.w3.org/2000/svg"><g fill="#fff" transform="translate(-344.891 -397.73)"><path d="m344.891 397.928h7.481v2.289h-4.247v5.126h3.345v2.267h-3.345v5.919h4.291v2.222h-7.525z"/><path d="m361.171 397.928h3.367l2.53 12.344 2.619-12.344h3.278l.33 17.823h-2.42l-.265-12.388-2.53 12.388h-1.958l-2.575-12.432-.241 12.432h-2.443z"/><path d="m382.533 397.928h5.237c3.19 0 4.555 1.849 4.555 5.061 0 3.5-1.893 4.841-4.775 4.841h-1.782v7.921h-3.235zm4.489 7.614c1.782 0 2.244-.683 2.244-2.575 0-1.914-.242-2.75-2.244-2.75h-1.254v5.325z"/><path d="m400.727 397.928h3.234v15.6h4.339v2.222h-7.568z"/><path d="m416.3 410.162v-6.689c0-3.608 1.321-5.743 5.149-5.743 3.806 0 5.127 2.135 5.127 5.743v6.689c0 3.587-1.321 5.831-5.127 5.831-3.849 0-5.149-2.222-5.149-5.831zm6.975.77v-8.207c0-1.5-.242-2.618-1.826-2.618s-1.848 1.122-1.848 2.618v8.207c0 1.474.242 2.663 1.848 2.663 1.586.005 1.828-1.189 1.828-2.663z"/><path d="m438.061 408.952-3.609-11.024h3.036l2.2 7.063 2.069-7.063h2.971l-3.565 11.024v6.8h-3.1z"/><path d="m452.888 397.928h7.481v2.289h-4.246v5.126h3.344v2.267h-3.344v5.919h4.29v2.222h-7.525z"/><path d="m468.9 397.928h7.481v2.289h-4.246v5.126h3.344v2.267h-3.344v5.919h4.29v2.222h-7.525z"/></g></svg>