<svg height="18.26" viewBox="0 0 360.356 18.26" width="360.356" xmlns="http://www.w3.org/2000/svg"><g fill="#fff" transform="translate(-344.891 -397.733)"><path d="m344.891 415.751v-17.82h7.48v2.288h-4.224v5.126h3.322v2.266h-3.322v5.9h4.268v2.244z"/><path d="m359.785 415.751 3.586-9.46-3.476-8.36h3.036l2.31 5.522 2.024-5.522h2.816l-3.432 8.976 3.7 8.844h-3.036l-2.53-5.984-2.2 5.984z"/><path d="m378.485 415.751v-17.82h7.48v2.288h-4.224v5.126h3.322v2.266h-3.322v5.9h4.268v2.244z"/><path d="m399.3 415.993a5.327 5.327 0 0 1 -3.07-.77 4.011 4.011 0 0 1 -1.55-2.1 9.753 9.753 0 0 1 -.44-3.069v-6.354a10.179 10.179 0 0 1 .44-3.168 3.8 3.8 0 0 1 1.55-2.068 6.916 6.916 0 0 1 5.962-.1 3.453 3.453 0 0 1 1.486 1.793 7.651 7.651 0 0 1 .44 2.706v1.5h-3.124v-1.54a11.122 11.122 0 0 0 -.077-1.364 1.7 1.7 0 0 0 -.418-.979 1.571 1.571 0 0 0 -1.177-.363 1.667 1.667 0 0 0 -1.221.385 1.862 1.862 0 0 0 -.5 1.034 8.859 8.859 0 0 0 -.109 1.463v7.744a6.9 6.9 0 0 0 .153 1.6 1.66 1.66 0 0 0 .561.946 1.757 1.757 0 0 0 1.112.319 1.481 1.481 0 0 0 1.155-.385 1.9 1.9 0 0 0 .429-1.023 10.641 10.641 0 0 0 .088-1.43v-1.606h3.124v1.43a8.665 8.665 0 0 1 -.418 2.8 3.651 3.651 0 0 1 -1.463 1.914 5.289 5.289 0 0 1 -2.933.685z"/><path d="m417.865 415.993a5.558 5.558 0 0 1 -3.08-.726 3.7 3.7 0 0 1 -1.518-2.068 10.857 10.857 0 0 1 -.418-3.212v-12.056h3.168v12.43a10.715 10.715 0 0 0 .109 1.573 2.21 2.21 0 0 0 .518 1.188 1.908 1.908 0 0 0 2.464 0 2.388 2.388 0 0 0 .506-1.188 9.79 9.79 0 0 0 .121-1.573v-12.43h3.146v12.056a10.891 10.891 0 0 1 -.418 3.212 3.73 3.73 0 0 1 -1.507 2.068 5.555 5.555 0 0 1 -3.091.726z"/><path d="m433.814 415.751v-15.422h-2.837v-2.4h8.887v2.4h-2.794v15.422z"/><path d="m448.181 415.751v-17.82h3.212v17.82z"/><path d="m463.47 415.751-3.586-17.82h2.883l2.354 12.606 2.2-12.606h2.949l-3.586 17.82z"/><path d="m478.693 415.751v-17.82h7.48v2.288h-4.223v5.126h3.321v2.266h-3.321v5.9h4.268v2.244z"/><path d="m506.744 415.751v-17.82h3.212v17.82z"/><path d="m519.3 415.751v-17.82h2.266l4.334 10.164v-10.164h2.684v17.82h-2.155l-4.352-10.651v10.648z"/><path d="m539.677 415.751v-15.422h-2.838v-2.4h8.888v2.4h-2.794v15.422z"/><path d="m553.955 415.751v-17.82h4.268a9.419 9.419 0 0 1 3.047.429 3.506 3.506 0 0 1 1.892 1.463 5.273 5.273 0 0 1 .649 2.816 8.635 8.635 0 0 1 -.2 1.936 3.686 3.686 0 0 1 -.671 1.463 3.034 3.034 0 0 1 -1.309.935l2.486 8.778h-3.256l-2.156-8.162h-1.5v8.162zm3.256-10.208h1.012a3.45 3.45 0 0 0 1.507-.275 1.609 1.609 0 0 0 .8-.88 4.229 4.229 0 0 0 .242-1.551 3.379 3.379 0 0 0 -.495-2.013 2.213 2.213 0 0 0 -1.881-.671h-1.188z"/><path d="m577.737 415.993a5.626 5.626 0 0 1 -3.014-.7 3.886 3.886 0 0 1 -1.606-2.024 9.069 9.069 0 0 1 -.484-3.124v-6.666a8.792 8.792 0 0 1 .484-3.091 3.789 3.789 0 0 1 1.606-1.969 7.074 7.074 0 0 1 6.061 0 3.866 3.866 0 0 1 1.606 1.969 8.623 8.623 0 0 1 .495 3.091v6.688a8.734 8.734 0 0 1 -.495 3.091 4.024 4.024 0 0 1 -1.606 2.024 5.6 5.6 0 0 1 -3.047.711zm0-2.4a1.736 1.736 0 0 0 1.2-.352 1.774 1.774 0 0 0 .518-.968 6.473 6.473 0 0 0 .131-1.342v-8.206a6.277 6.277 0 0 0 -.131-1.342 1.7 1.7 0 0 0 -.518-.935 1.772 1.772 0 0 0 -1.2-.341 1.741 1.741 0 0 0 -1.166.341 1.678 1.678 0 0 0 -.529.935 6.277 6.277 0 0 0 -.131 1.342v8.206a6.939 6.939 0 0 0 .121 1.342 1.683 1.683 0 0 0 .517.968 1.742 1.742 0 0 0 1.188.359z"/><path d="m591.882 415.751v-17.82h4.2a7.914 7.914 0 0 1 3.4.594 3.468 3.468 0 0 1 1.739 1.826 8.141 8.141 0 0 1 .517 3.124v6.512a8.714 8.714 0 0 1 -.517 3.223 3.6 3.6 0 0 1 -1.717 1.914 7.167 7.167 0 0 1 -3.289.627zm3.257-2.266h.989a2.552 2.552 0 0 0 1.606-.4 1.751 1.751 0 0 0 .595-1.155 13.314 13.314 0 0 0 .109-1.859v-6.82a7.968 7.968 0 0 0 -.153-1.738 1.488 1.488 0 0 0 -.639-.968 3.012 3.012 0 0 0 -1.562-.308h-.945z"/><path d="m615.621 415.993a5.564 5.564 0 0 1 -3.081-.726 3.714 3.714 0 0 1 -1.518-2.068 10.892 10.892 0 0 1 -.418-3.212v-12.056h3.168v12.43a10.71 10.71 0 0 0 .11 1.573 2.217 2.217 0 0 0 .517 1.188 1.91 1.91 0 0 0 2.465 0 2.388 2.388 0 0 0 .506-1.188 9.787 9.787 0 0 0 .121-1.573v-12.43h3.146v12.056a10.89 10.89 0 0 1 -.418 3.212 3.731 3.731 0 0 1 -1.508 2.068 5.55 5.55 0 0 1 -3.09.726z"/><path d="m634.584 415.993a5.325 5.325 0 0 1 -3.069-.77 4.007 4.007 0 0 1 -1.551-2.1 9.783 9.783 0 0 1 -.44-3.069v-6.354a10.21 10.21 0 0 1 .44-3.168 3.794 3.794 0 0 1 1.551-2.068 5.573 5.573 0 0 1 3.069-.726 5.63 5.63 0 0 1 2.893.627 3.446 3.446 0 0 1 1.485 1.793 7.65 7.65 0 0 1 .44 2.706v1.5h-3.124v-1.54a11.115 11.115 0 0 0 -.077-1.364 1.688 1.688 0 0 0 -.418-.979 1.568 1.568 0 0 0 -1.177-.363 1.67 1.67 0 0 0 -1.221.385 1.854 1.854 0 0 0 -.495 1.034 8.852 8.852 0 0 0 -.11 1.463v7.744a6.836 6.836 0 0 0 .154 1.6 1.66 1.66 0 0 0 .561.946 1.756 1.756 0 0 0 1.111.319 1.478 1.478 0 0 0 1.155-.385 1.9 1.9 0 0 0 .429-1.023 10.641 10.641 0 0 0 .088-1.43v-1.606h3.122v1.43a8.638 8.638 0 0 1 -.418 2.8 3.641 3.641 0 0 1 -1.463 1.914 5.284 5.284 0 0 1 -2.935.684z"/><path d="m650.05 415.751v-15.422h-2.838v-2.4h8.888v2.4h-2.794v15.422z"/><path d="m664.416 415.751v-17.82h3.211v17.82z"/><path d="m681.817 415.993a5.627 5.627 0 0 1 -3.013-.7 3.893 3.893 0 0 1 -1.607-2.024 9.094 9.094 0 0 1 -.483-3.124v-6.666a8.815 8.815 0 0 1 .483-3.091 3.8 3.8 0 0 1 1.607-1.969 7.072 7.072 0 0 1 6.06 0 3.863 3.863 0 0 1 1.607 1.969 8.621 8.621 0 0 1 .495 3.091v6.688a8.732 8.732 0 0 1 -.495 3.091 4.02 4.02 0 0 1 -1.607 2.024 5.6 5.6 0 0 1 -3.047.711zm0-2.4a1.741 1.741 0 0 0 1.2-.352 1.786 1.786 0 0 0 .517-.968 6.4 6.4 0 0 0 .132-1.342v-8.206a6.207 6.207 0 0 0 -.132-1.342 1.712 1.712 0 0 0 -.517-.935 1.778 1.778 0 0 0 -1.2-.341 1.746 1.746 0 0 0 -1.166.341 1.675 1.675 0 0 0 -.527.935 6.207 6.207 0 0 0 -.132 1.342v8.206a7.019 7.019 0 0 0 .12 1.342 1.69 1.69 0 0 0 .518.968 1.744 1.744 0 0 0 1.187.359z"/><path d="m695.963 415.751v-17.82h2.266l4.334 10.164v-10.164h2.684v17.82h-2.156l-4.356-10.651v10.648z"/></g></svg>