<svg height="21.585" viewBox="0 0 43.759 21.585" width="43.759" xmlns="http://www.w3.org/2000/svg"><g fill="#fff" transform="translate(-380.891 -394.73)"><path d="m380.891 394.928h7.327v2.245h-4.093v5.192h3.345v2.267h-3.345v8.119h-3.234z"/><path d="m399.239 394.928h3.477l3.564 17.823h-3.014l-.7-4.115h-3.1l-.726 4.115h-3.058zm2.971 11.64-1.21-7.481-1.21 7.481z"/><path d="m419.9 412.971a2.013 2.013 0 0 1 -.374.022c-3.851 0-5.149-2.222-5.149-5.831v-6.689c0-3.608 1.32-5.743 5.149-5.743 3.806 0 5.126 2.135 5.126 5.743v6.689c0 2.552-.682 4.445-2.464 5.281a8.647 8.647 0 0 0 1.782 1.716l-.615 2.156a10.735 10.735 0 0 1 -3.455-3.344zm1.474-5.039v-8.207c0-1.5-.264-2.618-1.848-2.618-1.607 0-1.849 1.122-1.849 2.618v8.207c0 1.474.242 2.663 1.849 2.663 1.582.005 1.846-1.189 1.846-2.663z"/></g></svg>