<svg height="18.065" viewBox="0 0 113.938 18.065" width="113.938" xmlns="http://www.w3.org/2000/svg"><g fill="#fff" transform="translate(-380.891 -394.928)"><path d="m380.891 394.928h7.327v2.245h-4.093v5.192h3.345v2.267h-3.345v8.119h-3.234z"/><path d="m396.445 406.986v-12.058h3.168v12.432c0 1.7.2 3.213 1.849 3.213 1.672 0 1.87-1.518 1.87-3.213v-12.432h3.147v12.058c0 3.741-1.035 6.007-5.017 6.007-4.005 0-5.017-2.266-5.017-6.007z"/><path d="m415.629 394.928h2.266l4.335 10.166v-10.166h2.684v17.823h-2.156l-4.358-10.651v10.649h-2.772z"/><path d="m434.218 394.928h7.482v2.289h-4.246v5.126h3.346v2.267h-3.344v5.919h4.29v2.222h-7.525z"/><path d="m450.234 394.928h4.291c3.564 0 5.589 1.145 5.589 4.731 0 2.134-.529 3.631-2.2 4.313l2.486 8.779h-3.257l-2.134-8.163h-1.54v8.163h-3.235zm4.269 7.635c1.87 0 2.552-.813 2.552-2.728 0-1.8-.506-2.684-2.376-2.684h-1.21v5.412z"/><path d="m471.838 394.928h3.477l3.564 17.823h-3.014l-.7-4.115h-3.1l-.726 4.115h-3.059zm2.971 11.64-1.21-7.481-1.21 7.481z"/><path d="m487.26 394.928h3.235v15.6h4.334v2.222h-7.569z"/></g></svg>