<svg height="18.263" viewBox="0 0 156.2 18.263" width="156.2" xmlns="http://www.w3.org/2000/svg"><g fill="#fff" transform="translate(-382.605 -398.005)"><path d="m382.605 410.151v-5.985c0-3.829 1.166-6.161 5.082-6.161 3.653 0 4.929 1.892 4.929 5.193v.924h-3.1v-1.012c0-1.716-.176-2.728-1.782-2.728-1.716 0-1.849 1.386-1.849 3.014v7.459c0 1.849.352 3.015 1.937 3.015 1.562 0 1.958-1.233 1.958-3.169v-1.672h-1.914v-2.047h4.834v9.044h-2.113l-.22-1.738a3 3 0 0 1 -3.015 1.98c-3.515 0-4.747-2.354-4.747-6.117z"/><path d="m404.275 409.227-3.608-11.027h3.033l2.2 7.063 2.069-7.063h2.97l-3.564 11.024v6.8h-3.1z"/><path d="m419.367 398.2h3.366l2.531 12.344 2.618-12.344h3.279l.33 17.823h-2.421l-.264-12.388-2.53 12.388h-1.958l-2.575-12.432-.242 12.432h-2.442z"/><path d="m452.654 407.115a2.266 2.266 0 1 1 -2.266-2.266 2.263 2.263 0 0 1 2.266 2.266z"/><path d="m475.488 410.327v-6.359c0-3.653 1.166-5.963 5.083-5.963 3.653 0 4.819 2.025 4.819 5.127v1.5h-3.125v-1.54c0-1.5-.022-2.706-1.672-2.706-1.672 0-1.826 1.276-1.826 2.9v7.723c0 1.936.4 2.861 1.826 2.861 1.606 0 1.672-1.255 1.672-2.839v-1.606h3.125v1.43c0 3.146-1.057 5.413-4.819 5.413-3.917 0-5.083-2.468-5.083-5.941z"/><path d="m496.917 398.2h3.476l3.565 17.823h-3.015l-.7-4.115h-3.1l-.726 4.115h-3.059zm2.97 11.64-1.21-7.481-1.21 7.481z"/><path d="m512.338 398.2h4.29c3.565 0 5.589 1.145 5.589 4.731 0 2.134-.528 3.63-2.2 4.313l2.486 8.779h-3.256l-2.135-8.163h-1.54v8.163h-3.234zm4.268 7.635c1.871 0 2.553-.814 2.553-2.728 0-1.8-.506-2.684-2.377-2.684h-1.21v5.412z"/><path d="m531.28 398.2h7.481v2.289h-4.247v5.126h3.344v2.267h-3.344v5.918h4.286v2.222h-7.52z"/></g></svg>