<svg height="18.26" viewBox="0 0 112.705 18.26" width="112.705" xmlns="http://www.w3.org/2000/svg"><g fill="#fff" transform="translate(-380.935 -393.733)"><path d="m380.935 411.751v-17.82h3.234v7.458h3.63v-7.458h3.256v17.82h-3.255v-8.051h-3.63v8.052z"/><path d="m400.471 411.751v-17.82h3.212v17.82z"/><path d="m417.521 411.993a5.265 5.265 0 0 1 -2.684-.627 3.943 3.943 0 0 1 -1.628-1.837 7.88 7.88 0 0 1 -.616-2.97l2.794-.55a8.563 8.563 0 0 0 .253 1.826 2.639 2.639 0 0 0 .638 1.221 1.531 1.531 0 0 0 1.133.429 1.27 1.27 0 0 0 1.122-.473 2.047 2.047 0 0 0 .33-1.2 3.244 3.244 0 0 0 -.528-1.914 8.259 8.259 0 0 0 -1.408-1.5l-2.244-1.98a6.747 6.747 0 0 1 -1.507-1.815 5 5 0 0 1 -.561-2.475 4.222 4.222 0 0 1 1.232-3.256 4.755 4.755 0 0 1 3.366-1.144 4.992 4.992 0 0 1 2.09.385 3.326 3.326 0 0 1 1.331 1.067 4.833 4.833 0 0 1 .737 1.551 9.175 9.175 0 0 1 .308 1.837l-2.772.484a9.576 9.576 0 0 0 -.187-1.5 2.084 2.084 0 0 0 -.506-1.034 1.423 1.423 0 0 0 -1.067-.374 1.347 1.347 0 0 0 -1.111.473 1.8 1.8 0 0 0 -.385 1.177 2.7 2.7 0 0 0 .374 1.485 5.76 5.76 0 0 0 1.078 1.2l2.222 1.958a9.233 9.233 0 0 1 1.881 2.167 5.53 5.53 0 0 1 .781 3 4.515 4.515 0 0 1 -.561 2.266 4.022 4.022 0 0 1 -1.562 1.551 4.718 4.718 0 0 1 -2.343.572z"/><path d="m432.282 411.751v-15.422h-2.838v-2.4h8.888v2.4h-2.794v15.422z"/><path d="m451.4 411.993a5.628 5.628 0 0 1 -3.014-.7 3.886 3.886 0 0 1 -1.606-2.024 9.069 9.069 0 0 1 -.484-3.124v-6.666a8.792 8.792 0 0 1 .484-3.091 3.789 3.789 0 0 1 1.606-1.969 7.074 7.074 0 0 1 6.061 0 3.866 3.866 0 0 1 1.606 1.969 8.622 8.622 0 0 1 .495 3.091v6.688a8.733 8.733 0 0 1 -.495 3.091 4.024 4.024 0 0 1 -1.606 2.024 5.6 5.6 0 0 1 -3.047.711zm0-2.4a1.738 1.738 0 0 0 1.2-.352 1.779 1.779 0 0 0 .517-.968 6.4 6.4 0 0 0 .132-1.342v-8.206a6.207 6.207 0 0 0 -.132-1.342 1.706 1.706 0 0 0 -.517-.935 1.775 1.775 0 0 0 -1.2-.341 1.745 1.745 0 0 0 -1.166.341 1.671 1.671 0 0 0 -.528.935 6.209 6.209 0 0 0 -.132 1.342v8.206a6.938 6.938 0 0 0 .121 1.342 1.689 1.689 0 0 0 .517.968 1.745 1.745 0 0 0 1.188.359z"/><path d="m465.546 411.751v-17.82h4.268a9.414 9.414 0 0 1 3.047.429 3.506 3.506 0 0 1 1.892 1.463 5.273 5.273 0 0 1 .649 2.816 8.637 8.637 0 0 1 -.2 1.936 3.687 3.687 0 0 1 -.671 1.463 3.028 3.028 0 0 1 -1.309.935l2.486 8.778h-3.256l-2.156-8.162h-1.5v8.162zm3.256-10.208h1.012a3.451 3.451 0 0 0 1.507-.275 1.609 1.609 0 0 0 .8-.88 4.227 4.227 0 0 0 .242-1.551 3.378 3.378 0 0 0 -.495-2.013 2.213 2.213 0 0 0 -1.881-.671h-1.187z"/><path d="m486.974 411.751v-6.8l-3.608-11.022h3.034l2.2 7.062 2.068-7.062h2.97l-3.564 11.022v6.8z"/></g></svg>