<svg height="18.263" viewBox="0 0 291.234 18.263" width="291.234" xmlns="http://www.w3.org/2000/svg"><g fill="#fff" transform="translate(-350.979 -394.73)"><path d="m350.979 394.928h3.212v17.823h-3.212z"/><path d="m363.541 394.928h4.2c4.334 0 5.654 1.739 5.654 5.545v6.491c0 3.917-1.342 5.787-5.523 5.787h-4.334zm4.247 15.557c2.222 0 2.31-1.189 2.31-3.411v-6.821c0-2.134-.22-3.014-2.354-3.014h-.969v13.246z"/><path d="m382.395 394.928h7.481v2.289h-4.247v5.126h3.345v2.267h-3.345v5.919h4.291v2.222h-7.525z"/><path d="m398.411 394.928h2.266l4.335 10.166v-10.166h2.688v17.823h-2.16l-4.357-10.651v10.649h-2.772z"/><path d="m418.783 397.327h-2.839v-2.4h8.868v2.4h-2.773v15.424h-3.256z"/><path d="m433.126 394.928h3.212v17.823h-3.212z"/><path d="m447.47 397.327h-2.838v-2.4h8.868v2.4h-2.772v15.424h-3.258z"/><path d="m464.212 405.952-3.612-11.024h3.036l2.2 7.063 2.068-7.063h2.971l-3.565 11.024v6.8h-3.1z"/><path d="m490.7 406.876v-5.985c0-3.828 1.166-6.161 5.082-6.161 3.653 0 4.929 1.893 4.929 5.193v.924h-3.1v-1.012c0-1.716-.176-2.728-1.782-2.728-1.717 0-1.849 1.386-1.849 3.014v7.459c0 1.849.352 3.015 1.937 3.015 1.562 0 1.958-1.233 1.958-3.169v-1.672h-1.914v-2.046h4.84v9.043h-2.112l-.22-1.738a3 3 0 0 1 -3.015 1.98c-3.523 0-4.754-2.354-4.754-6.117z"/><path d="m509.75 406.986v-12.058h3.169v12.432c0 1.7.2 3.213 1.849 3.213 1.671 0 1.87-1.518 1.87-3.213v-12.432h3.146v12.058c0 3.741-1.034 6.007-5.016 6.007-4.005 0-5.018-2.266-5.018-6.007z"/><path d="m531.6 394.928h3.476l3.565 17.823h-3.014l-.705-4.115h-3.1l-.726 4.115h-3.059zm2.97 11.64-1.21-7.481-1.21 7.481z"/><path d="m547.019 394.928h4.29c3.565 0 5.589 1.145 5.589 4.731 0 2.134-.528 3.631-2.2 4.313l2.486 8.779h-3.257l-2.134-8.163h-1.54v8.163h-3.234zm4.268 7.635c1.87 0 2.552-.813 2.552-2.728 0-1.8-.506-2.684-2.376-2.684h-1.21v5.412z"/><path d="m568.622 394.928h3.478l3.564 17.823h-3.014l-.7-4.115h-3.1l-.726 4.115h-3.058zm2.971 11.64-1.211-7.481-1.21 7.481z"/><path d="m584.044 394.928h2.266l4.335 10.166v-10.166h2.684v17.823h-2.156l-4.357-10.651v10.649h-2.772z"/><path d="m604.416 397.327h-2.838v-2.4h8.867v2.4h-2.773v15.424h-3.256z"/><path d="m618.671 394.928h7.481v2.289h-4.246v5.126h3.344v2.267h-3.344v5.919h4.29v2.222h-7.525z"/><path d="m634.687 394.928h7.481v2.289h-4.246v5.126h3.345v2.267h-3.345v5.919h4.291v2.222h-7.526z"/></g></svg>