<svg height="18.26" viewBox="0 0 121.505 18.26" width="121.505" xmlns="http://www.w3.org/2000/svg"><g fill="#fff" transform="translate(-396.847 -397.733)"><path d="m396.847 415.751.308-17.82h3.366l2.53 12.342 2.64-12.342h3.256l.33 17.82h-2.42l-.264-12.386-2.53 12.386h-1.958l-2.574-12.43-.242 12.43z"/><path d="m417.615 415.751 3.564-17.82h3.476l3.564 17.82h-3.019l-.7-4.114h-3.1l-.726 4.114zm4.114-6.182h2.42l-1.21-7.48z"/><path d="m436.6 415.751v-17.82h2.266l4.334 10.169v-10.169h2.684v17.82h-2.156l-4.355-10.651v10.648z"/><path d="m454.288 415.751 3.564-17.82h3.476l3.564 17.82h-3.014l-.7-4.114h-3.1l-.726 4.114zm4.114-6.182h2.42l-1.21-7.48z"/><path d="m477.74 415.993a4.671 4.671 0 0 1 -2.794-.748 4.1 4.1 0 0 1 -1.485-2.123 10.435 10.435 0 0 1 -.451-3.245v-5.984a10.975 10.975 0 0 1 .44-3.3 3.847 3.847 0 0 1 1.55-2.123 5.5 5.5 0 0 1 3.069-.737 5.849 5.849 0 0 1 2.9.616 3.529 3.529 0 0 1 1.551 1.771 7.411 7.411 0 0 1 .473 2.8v.924h-3.1v-1.012a7.816 7.816 0 0 0 -.121-1.474 1.618 1.618 0 0 0 -.484-.935 1.762 1.762 0 0 0 -1.177-.319 1.617 1.617 0 0 0 -1.243.418 2 2 0 0 0 -.484 1.1 10.453 10.453 0 0 0 -.1 1.5v7.458a7.346 7.346 0 0 0 .154 1.606 1.878 1.878 0 0 0 .572 1.045 1.754 1.754 0 0 0 1.188.363 1.694 1.694 0 0 0 1.21-.4 2.152 2.152 0 0 0 .583-1.1 7.4 7.4 0 0 0 .165-1.672v-1.672h-1.914v-2.046h4.84v9.042h-2.082l-.242-1.76a3.4 3.4 0 0 1 -1.067 1.441 3.075 3.075 0 0 1 -1.951.566z"/><path d="m492.172 415.751v-17.82h7.48v2.288h-4.224v5.126h3.322v2.266h-3.322v5.9h4.272v2.244z"/><path d="m508.188 415.751v-17.82h4.268a9.414 9.414 0 0 1 3.047.429 3.506 3.506 0 0 1 1.892 1.463 5.264 5.264 0 0 1 .649 2.816 8.635 8.635 0 0 1 -.2 1.936 3.687 3.687 0 0 1 -.671 1.463 3.028 3.028 0 0 1 -1.309.935l2.486 8.778h-3.25l-2.156-8.162h-1.5v8.162zm3.256-10.208h1.012a3.451 3.451 0 0 0 1.507-.275 1.609 1.609 0 0 0 .8-.88 4.227 4.227 0 0 0 .242-1.551 3.378 3.378 0 0 0 -.495-2.013 2.213 2.213 0 0 0 -1.881-.671h-1.188z"/></g></svg>