<svg height="18.263" viewBox="0 0 196.591 18.263" width="196.591" xmlns="http://www.w3.org/2000/svg"><g fill="#fff" transform="translate(-444.847 -397.73)"><path d="m445.155 397.928h3.366l2.531 12.344 2.618-12.344h3.279l.33 17.823h-2.421l-.264-12.388-2.53 12.388h-1.958l-2.575-12.432-.241 12.432h-2.443z"/><path d="m466.517 397.928h7.483v2.289h-4.247v5.126h3.347v2.267h-3.345v5.919h4.291v2.222h-7.525z"/><path d="m482.533 397.928h4.2c4.334 0 5.655 1.739 5.655 5.545v6.491c0 3.917-1.343 5.787-5.523 5.787h-4.335zm4.247 15.557c2.222 0 2.31-1.189 2.31-3.411v-6.821c0-2.134-.22-3.014-2.354-3.014h-.968v13.246z"/><path d="m501.475 397.928h3.212v17.823h-3.212z"/><path d="m513.75 410.052v-6.359c0-3.652 1.167-5.963 5.083-5.963 3.653 0 4.819 2.025 4.819 5.127v1.5h-3.125v-1.541c0-1.5-.022-2.706-1.672-2.706-1.672 0-1.826 1.276-1.826 2.9v7.723c0 1.936.4 2.861 1.826 2.861 1.606 0 1.672-1.255 1.672-2.839v-1.605h3.125v1.43c0 3.147-1.056 5.413-4.819 5.413-3.916 0-5.083-2.464-5.083-5.941z"/><path d="m535.179 397.928h3.476l3.565 17.823h-3.014l-.705-4.115h-3.1l-.726 4.115h-3.059zm2.97 11.64-1.21-7.481-1.21 7.481z"/><path d="m550.6 397.928h3.234v15.6h4.334v2.222h-7.568z"/><path d="m578.122 410.052v-6.359c0-3.652 1.166-5.963 5.082-5.963 3.653 0 4.819 2.025 4.819 5.127v1.5h-3.123v-1.541c0-1.5-.022-2.706-1.671-2.706-1.673 0-1.827 1.276-1.827 2.9v7.723c0 1.936.4 2.861 1.827 2.861 1.606 0 1.671-1.255 1.671-2.839v-1.605h3.125v1.43c0 3.147-1.056 5.413-4.819 5.413-3.918 0-5.084-2.464-5.084-5.941z"/><path d="m599.55 397.928h3.476l3.565 17.823h-3.014l-.7-4.115h-3.1l-.726 4.115h-3.059zm2.971 11.64-1.211-7.481-1.21 7.481z"/><path d="m614.972 397.928h4.29c3.565 0 5.589 1.145 5.589 4.731 0 2.134-.528 3.631-2.2 4.313l2.486 8.779h-3.257l-2.134-8.163h-1.54v8.163h-3.234zm4.268 7.635c1.87 0 2.552-.813 2.552-2.728 0-1.8-.505-2.684-2.376-2.684h-1.21v5.412z"/><path d="m633.914 397.928h7.486v2.289h-4.247v5.126h3.344v2.267h-3.344v5.919h4.29v2.222h-7.524z"/></g></svg>