<svg height="18.263" viewBox="0 0 78.782 18.263" width="78.782" xmlns="http://www.w3.org/2000/svg"><g fill="#fff" transform="translate(-434.847 -397.73)"><path d="m435.155 397.928h3.366l2.531 12.344 2.618-12.344h3.279l.33 17.823h-2.421l-.264-12.388-2.53 12.388h-1.958l-2.575-12.432-.241 12.432h-2.443z"/><path d="m456.231 410.162v-6.689c0-3.608 1.32-5.743 5.149-5.743 3.806 0 5.126 2.135 5.126 5.743v6.689c0 3.587-1.32 5.831-5.126 5.831-3.851 0-5.149-2.222-5.149-5.831zm6.975.77v-8.207c0-1.5-.242-2.618-1.826-2.618s-1.849 1.122-1.849 2.618v8.207c0 1.474.242 2.663 1.849 2.663 1.584.005 1.826-1.189 1.826-2.663z"/><path d="m474.667 397.928h2.86l2.354 12.608 2.223-12.608h2.926l-3.586 17.823h-3.191z"/><path d="m493.542 397.928h3.213v17.823h-3.213z"/><path d="m506.1 397.928h7.481v2.289h-4.246v5.126h3.345v2.267h-3.345v5.919h4.29v2.222h-7.525z"/></g></svg>