<svg height="18.26" viewBox="0 0 200.352 18.26" width="200.352" xmlns="http://www.w3.org/2000/svg"><g fill="#fff" transform="translate(-356.891 -397.733)"><path d="m356.891 415.751v-17.82h2.266l4.334 10.164v-10.164h2.684v17.82h-2.156l-4.356-10.651v10.648z"/><path d="m375.48 415.751v-17.82h7.48v2.288h-4.223v5.126h3.322v2.266h-3.322v5.9h4.268v2.244z"/><path d="m393.367 415.751-2.53-17.82h2.728l1.474 11.55 1.848-11.506h2.222l1.891 11.506 1.452-11.55h2.684l-2.486 17.82h-2.64l-1.98-11.946-1.958 11.946z"/><path d="m425.706 415.751v-17.82h7.479v2.288h-4.223v5.126h3.322v2.266h-3.322v5.9h4.268v2.244z"/><path d="m441.678 415.751.308-17.82h3.366l2.53 12.342 2.64-12.342h3.256l.33 17.82h-2.42l-.264-12.386-2.53 12.386h-1.958l-2.574-12.43-.242 12.43z"/><path d="m463.348 415.751v-17.82h5.236a5.067 5.067 0 0 1 2.607.594 3.53 3.53 0 0 1 1.474 1.727 7.106 7.106 0 0 1 .473 2.739 5.748 5.748 0 0 1 -.594 2.8 3.546 3.546 0 0 1 -1.661 1.551 6.05 6.05 0 0 1 -2.519.484h-1.764v7.92zm3.256-10.208h1.232a3.063 3.063 0 0 0 1.375-.253 1.353 1.353 0 0 0 .682-.814 4.929 4.929 0 0 0 .187-1.507 7.073 7.073 0 0 0 -.143-1.573 1.356 1.356 0 0 0 -.616-.891 2.964 2.964 0 0 0 -1.485-.286h-1.236z"/><path d="m481.541 415.751v-17.82h3.259v15.576h4.312v2.244z"/><path d="m502.243 415.993a5.626 5.626 0 0 1 -3.014-.7 3.887 3.887 0 0 1 -1.606-2.024 9.069 9.069 0 0 1 -.484-3.124v-6.666a8.792 8.792 0 0 1 .484-3.091 3.789 3.789 0 0 1 1.606-1.969 7.074 7.074 0 0 1 6.061 0 3.866 3.866 0 0 1 1.606 1.969 8.621 8.621 0 0 1 .495 3.091v6.688a8.732 8.732 0 0 1 -.495 3.091 4.024 4.024 0 0 1 -1.606 2.024 5.6 5.6 0 0 1 -3.047.711zm0-2.4a1.738 1.738 0 0 0 1.2-.352 1.78 1.78 0 0 0 .517-.968 6.4 6.4 0 0 0 .132-1.342v-8.206a6.209 6.209 0 0 0 -.132-1.342 1.706 1.706 0 0 0 -.517-.935 1.775 1.775 0 0 0 -1.2-.341 1.743 1.743 0 0 0 -1.166.341 1.671 1.671 0 0 0 -.528.935 6.207 6.207 0 0 0 -.132 1.342v8.206a6.938 6.938 0 0 0 .121 1.342 1.689 1.689 0 0 0 .517.968 1.745 1.745 0 0 0 1.188.359z"/><path d="m518.875 415.751v-6.8l-3.608-11.022h3.033l2.2 7.062 2.068-7.062h2.97l-3.564 11.022v6.8z"/><path d="m533.7 415.751v-17.82h7.48v2.288h-4.224v5.126h3.322v2.266h-3.322v5.9h4.268v2.244z"/><path d="m549.719 415.751v-17.82h7.48v2.288h-4.224v5.126h3.325v2.266h-3.322v5.9h4.268v2.244z"/></g></svg>