<svg height="18.26" viewBox="0 0 204.312 18.26" width="204.312" xmlns="http://www.w3.org/2000/svg"><g fill="#fff" transform="translate(-344.891 -393.733)"><path d="m344.891 411.751v-17.82h2.266l4.334 10.164v-10.164h2.684v17.82h-2.156l-4.356-10.651v10.648z"/><path d="m363.48 411.751v-17.82h7.48v2.288h-4.223v5.126h3.322v2.266h-3.322v5.9h4.268v2.244z"/><path d="m381.367 411.751-2.53-17.82h2.728l1.474 11.55 1.848-11.506h2.222l1.891 11.506 1.452-11.55h2.684l-2.486 17.82h-2.64l-1.98-11.946-1.958 11.946z"/><path d="m418.172 411.993a4.671 4.671 0 0 1 -2.794-.748 4.1 4.1 0 0 1 -1.485-2.123 10.435 10.435 0 0 1 -.451-3.245v-5.984a10.944 10.944 0 0 1 .44-3.3 3.847 3.847 0 0 1 1.551-2.123 5.5 5.5 0 0 1 3.069-.737 5.86 5.86 0 0 1 2.9.616 3.522 3.522 0 0 1 1.55 1.771 7.39 7.39 0 0 1 .474 2.8v.924h-3.1v-1.012a7.728 7.728 0 0 0 -.122-1.474 1.611 1.611 0 0 0 -.483-.935 1.764 1.764 0 0 0 -1.177-.319 1.617 1.617 0 0 0 -1.243.418 2 2 0 0 0 -.484 1.1 10.458 10.458 0 0 0 -.1 1.5v7.458a7.414 7.414 0 0 0 .153 1.606 1.885 1.885 0 0 0 .573 1.045 1.754 1.754 0 0 0 1.188.363 1.694 1.694 0 0 0 1.21-.4 2.152 2.152 0 0 0 .583-1.1 7.4 7.4 0 0 0 .165-1.672v-1.672h-1.914v-2.046h4.84v9.042h-2.09l-.243-1.76a3.394 3.394 0 0 1 -1.066 1.441 3.075 3.075 0 0 1 -1.944.566z"/><path d="m432.6 411.751v-17.82h4.269a9.419 9.419 0 0 1 3.047.429 3.5 3.5 0 0 1 1.891 1.463 5.264 5.264 0 0 1 .65 2.816 8.635 8.635 0 0 1 -.2 1.936 3.686 3.686 0 0 1 -.671 1.463 3.034 3.034 0 0 1 -1.309.935l2.486 8.778h-3.256l-2.156-8.162h-1.5v8.162zm3.257-10.208h1.012a3.45 3.45 0 0 0 1.507-.275 1.609 1.609 0 0 0 .8-.88 4.228 4.228 0 0 0 .242-1.551 3.378 3.378 0 0 0 -.5-2.013 2.213 2.213 0 0 0 -1.881-.671h-1.177z"/><path d="m450.644 411.751 3.563-17.82h3.477l3.564 17.82h-3.015l-.7-4.114h-3.1l-.726 4.114zm4.114-6.182h2.42l-1.21-7.48z"/><path d="m469.629 411.751v-17.82h4.2a7.915 7.915 0 0 1 3.4.594 3.468 3.468 0 0 1 1.739 1.826 8.141 8.141 0 0 1 .517 3.124v6.512a8.714 8.714 0 0 1 -.517 3.223 3.6 3.6 0 0 1 -1.717 1.914 7.167 7.167 0 0 1 -3.289.627zm3.257-2.266h.989a2.552 2.552 0 0 0 1.606-.4 1.751 1.751 0 0 0 .6-1.155 13.314 13.314 0 0 0 .109-1.859v-6.82a7.972 7.972 0 0 0 -.153-1.738 1.491 1.491 0 0 0 -.638-.968 3.019 3.019 0 0 0 -1.563-.308h-.945z"/><path d="m493.367 411.993a5.561 5.561 0 0 1 -3.08-.726 3.709 3.709 0 0 1 -1.518-2.068 10.856 10.856 0 0 1 -.418-3.212v-12.056h3.168v12.43a10.71 10.71 0 0 0 .11 1.573 2.2 2.2 0 0 0 .517 1.188 1.908 1.908 0 0 0 2.464 0 2.379 2.379 0 0 0 .506-1.188 9.676 9.676 0 0 0 .121-1.573v-12.43h3.146v12.056a10.857 10.857 0 0 1 -.418 3.212 3.729 3.729 0 0 1 -1.507 2.068 5.551 5.551 0 0 1 -3.091.726z"/><path d="m506.633 411.751 3.564-17.82h3.476l3.564 17.82h-3.014l-.7-4.114h-3.1l-.726 4.114zm4.114-6.182h2.42l-1.21-7.48z"/><path d="m527.4 411.751v-15.422h-2.838v-2.4h8.888v2.4h-2.794v15.422z"/><path d="m541.679 411.751v-17.82h7.48v2.288h-4.224v5.126h3.322v2.266h-3.322v5.9h4.265v2.244z"/></g></svg>