<svg height="18.26" viewBox="0 0 301.507 18.26" width="301.507" xmlns="http://www.w3.org/2000/svg"><g fill="#fff" transform="translate(-324.627 -397.733)"><path d="m329.731 415.993a5.626 5.626 0 0 1 -3.014-.7 3.887 3.887 0 0 1 -1.606-2.024 9.069 9.069 0 0 1 -.484-3.124v-6.666a8.792 8.792 0 0 1 .484-3.091 3.789 3.789 0 0 1 1.606-1.969 7.074 7.074 0 0 1 6.061 0 3.866 3.866 0 0 1 1.606 1.969 8.622 8.622 0 0 1 .495 3.091v6.688a8.733 8.733 0 0 1 -.495 3.091 4.024 4.024 0 0 1 -1.606 2.024 5.6 5.6 0 0 1 -3.047.711zm0-2.4a1.74 1.74 0 0 0 1.2-.352 1.779 1.779 0 0 0 .517-.968 6.4 6.4 0 0 0 .132-1.342v-8.206a6.207 6.207 0 0 0 -.132-1.342 1.706 1.706 0 0 0 -.517-.935 1.777 1.777 0 0 0 -1.2-.341 1.743 1.743 0 0 0 -1.166.341 1.671 1.671 0 0 0 -.528.935 6.209 6.209 0 0 0 -.132 1.342v8.206a6.938 6.938 0 0 0 .121 1.342 1.683 1.683 0 0 0 .517.968 1.745 1.745 0 0 0 1.188.359z"/><path d="m343.876 415.751v-17.82h4.268a9.421 9.421 0 0 1 3.048.429 3.5 3.5 0 0 1 1.891 1.463 5.264 5.264 0 0 1 .65 2.816 8.7 8.7 0 0 1 -.2 1.936 3.687 3.687 0 0 1 -.671 1.463 3.034 3.034 0 0 1 -1.309.935l2.485 8.778h-3.255l-2.156-8.162h-1.5v8.162zm3.257-10.208h1.011a3.452 3.452 0 0 0 1.508-.275 1.609 1.609 0 0 0 .8-.88 4.227 4.227 0 0 0 .242-1.551 3.378 3.378 0 0 0 -.495-2.013 2.213 2.213 0 0 0 -1.881-.671h-1.188z"/><path d="m367.285 415.993a4.671 4.671 0 0 1 -2.794-.748 4.1 4.1 0 0 1 -1.486-2.123 10.465 10.465 0 0 1 -.45-3.245v-5.984a10.943 10.943 0 0 1 .44-3.3 3.85 3.85 0 0 1 1.55-2.123 5.5 5.5 0 0 1 3.07-.737 5.852 5.852 0 0 1 2.9.616 3.522 3.522 0 0 1 1.55 1.771 7.391 7.391 0 0 1 .473 2.8v.924h-3.1v-1.012a7.736 7.736 0 0 0 -.121-1.474 1.607 1.607 0 0 0 -.484-.935 1.759 1.759 0 0 0 -1.176-.319 1.62 1.62 0 0 0 -1.244.418 2.006 2.006 0 0 0 -.483 1.1 10.441 10.441 0 0 0 -.1 1.5v7.458a7.409 7.409 0 0 0 .154 1.606 1.885 1.885 0 0 0 .573 1.045 1.755 1.755 0 0 0 1.188.363 1.692 1.692 0 0 0 1.209-.4 2.146 2.146 0 0 0 .584-1.1 7.461 7.461 0 0 0 .165-1.672v-1.672h-1.913v-2.046h4.84v9.042h-2.09l-.242-1.76a3.388 3.388 0 0 1 -1.067 1.441 3.07 3.07 0 0 1 -1.946.566z"/><path d="m380.814 415.751 3.564-17.82h3.476l3.564 17.82h-3.018l-.7-4.114h-3.1l-.726 4.114zm4.114-6.182h2.42l-1.21-7.48z"/><path d="m399.8 415.751v-17.82h2.266l4.334 10.169v-10.169h2.684v17.82h-2.156l-4.356-10.651v10.648z"/><path d="m418.478 415.751v-17.82h3.212v17.82z"/><path d="m430.424 415.751v-2.09l4.8-13.486h-4.532v-2.244h7.81v1.669l-4.972 13.9h4.993v2.244z"/><path d="m446.087 415.751 3.564-17.82h3.476l3.564 17.82h-3.014l-.7-4.114h-3.1l-.727 4.114zm4.115-6.182h2.42l-1.21-7.48z"/><path d="m466.855 415.751v-15.422h-2.838v-2.4h8.883v2.4h-2.794v15.422z"/><path d="m481.221 415.751v-17.82h3.212v17.82z"/><path d="m498.623 415.993a5.626 5.626 0 0 1 -3.014-.7 3.887 3.887 0 0 1 -1.609-2.028 9.069 9.069 0 0 1 -.484-3.124v-6.666a8.792 8.792 0 0 1 .484-3.091 3.789 3.789 0 0 1 1.606-1.969 7.074 7.074 0 0 1 6.061 0 3.866 3.866 0 0 1 1.606 1.969 8.622 8.622 0 0 1 .495 3.091v6.688a8.733 8.733 0 0 1 -.495 3.091 4.024 4.024 0 0 1 -1.606 2.024 5.6 5.6 0 0 1 -3.044.715zm0-2.4a1.74 1.74 0 0 0 1.2-.352 1.779 1.779 0 0 0 .517-.968 6.4 6.4 0 0 0 .132-1.342v-8.206a6.207 6.207 0 0 0 -.132-1.342 1.706 1.706 0 0 0 -.517-.935 1.777 1.777 0 0 0 -1.2-.341 1.743 1.743 0 0 0 -1.166.341 1.671 1.671 0 0 0 -.528.935 6.209 6.209 0 0 0 -.132 1.342v8.206a6.938 6.938 0 0 0 .121 1.342 1.683 1.683 0 0 0 .517.968 1.745 1.745 0 0 0 1.188.359z"/><path d="m512.769 415.751v-17.82h2.266l4.334 10.164v-10.164h2.684v17.82h-2.153l-4.36-10.651v10.648z"/><path d="m548.1 415.993a5.321 5.321 0 0 1 -3.069-.77 4.007 4.007 0 0 1 -1.551-2.1 9.753 9.753 0 0 1 -.44-3.069v-6.354a10.179 10.179 0 0 1 .44-3.168 3.794 3.794 0 0 1 1.551-2.068 5.568 5.568 0 0 1 3.069-.726 5.63 5.63 0 0 1 2.893.627 3.451 3.451 0 0 1 1.485 1.793 7.651 7.651 0 0 1 .44 2.706v1.5h-3.124v-1.54a11.115 11.115 0 0 0 -.077-1.364 1.7 1.7 0 0 0 -.418-.979 1.571 1.571 0 0 0 -1.177-.363 1.667 1.667 0 0 0 -1.221.385 1.854 1.854 0 0 0 -.495 1.034 8.741 8.741 0 0 0 -.11 1.463v7.744a6.836 6.836 0 0 0 .154 1.6 1.649 1.649 0 0 0 .561.946 1.752 1.752 0 0 0 1.111.319 1.479 1.479 0 0 0 1.155-.385 1.9 1.9 0 0 0 .429-1.023 10.641 10.641 0 0 0 .088-1.43v-1.606h3.124v1.43a8.665 8.665 0 0 1 -.418 2.8 3.651 3.651 0 0 1 -1.463 1.914 5.288 5.288 0 0 1 -2.937.684z"/><path d="m561.828 415.751v-17.82h3.234v7.458h3.63v-7.458h3.256v17.82h-3.256v-8.051h-3.63v8.052z"/><path d="m580.374 415.751 3.564-17.82h3.476l3.564 17.82h-3.014l-.7-4.114h-3.1l-.726 4.114zm4.114-6.182h2.42l-1.21-7.48z"/><path d="m599.36 415.751v-17.82h4.268a9.414 9.414 0 0 1 3.047.429 3.506 3.506 0 0 1 1.892 1.463 5.273 5.273 0 0 1 .649 2.816 8.635 8.635 0 0 1 -.2 1.936 3.687 3.687 0 0 1 -.671 1.463 3.028 3.028 0 0 1 -1.309.935l2.486 8.778h-3.256l-2.156-8.162h-1.5v8.162zm3.256-10.208h1.012a3.451 3.451 0 0 0 1.507-.275 1.609 1.609 0 0 0 .8-.88 4.227 4.227 0 0 0 .242-1.551 3.378 3.378 0 0 0 -.495-2.013 2.213 2.213 0 0 0 -1.881-.671h-1.188z"/><path d="m620.084 415.751v-15.422h-2.838v-2.4h8.888v2.4h-2.794v15.422z"/></g></svg>