<svg height="18.263" viewBox="0 0 226.884 18.263" width="226.884" xmlns="http://www.w3.org/2000/svg"><g fill="#fff" transform="translate(-554.891 -393.73)"><path d="m554.891 393.928h5.237c3.19 0 4.555 1.849 4.555 5.061 0 3.5-1.893 4.841-4.775 4.841h-1.783v7.921h-3.234zm4.489 7.614c1.782 0 2.244-.683 2.244-2.575 0-1.914-.242-2.75-2.244-2.75h-1.255v5.325z"/><path d="m573.085 393.928h4.29c3.565 0 5.589 1.145 5.589 4.731 0 2.134-.528 3.631-2.2 4.313l2.486 8.779h-3.256l-2.135-8.163h-1.54v8.163h-3.234zm4.269 7.635c1.87 0 2.552-.813 2.552-2.728 0-1.8-.506-2.684-2.377-2.684h-1.21v5.412z"/><path d="m592.115 393.928h3.212v17.823h-3.212z"/><path d="m603.84 393.928h2.86l2.354 12.608 2.222-12.608h2.924l-3.587 17.823h-3.19z"/><path d="m625.29 393.928h3.477l3.564 17.823h-3.014l-.7-4.115h-3.1l-.726 4.115h-3.058zm2.971 11.64-1.211-7.481-1.21 7.481z"/><path d="m640.426 406.052v-6.359c0-3.652 1.166-5.963 5.082-5.963 3.653 0 4.819 2.025 4.819 5.127v1.5h-3.127v-1.541c0-1.5-.022-2.706-1.673-2.706-1.672 0-1.826 1.276-1.826 2.9v7.723c0 1.936.4 2.861 1.826 2.861 1.607 0 1.673-1.255 1.673-2.839v-1.605h3.124v1.43c0 3.147-1.056 5.413-4.819 5.413-3.913 0-5.079-2.464-5.079-5.941z"/><path d="m661.678 404.952-3.608-11.024h3.03l2.2 7.063 2.068-7.063h2.971l-3.565 11.024v6.8h-3.1z"/><path d="m688.451 393.928h5.236c3.192 0 4.555 1.849 4.555 5.061 0 3.5-1.892 4.841-4.774 4.841h-1.782v7.921h-3.235zm4.488 7.614c1.784 0 2.245-.683 2.245-2.575 0-1.914-.243-2.75-2.245-2.75h-1.253v5.325z"/><path d="m706.359 406.162v-6.689c0-3.608 1.321-5.743 5.149-5.743 3.806 0 5.127 2.135 5.127 5.743v6.689c0 3.587-1.321 5.831-5.127 5.831-3.851 0-5.149-2.222-5.149-5.831zm6.975.77v-8.207c0-1.5-.242-2.618-1.826-2.618s-1.849 1.122-1.849 2.618v8.207c0 1.474.242 2.663 1.849 2.663 1.584.005 1.826-1.189 1.826-2.663z"/><path d="m725.631 393.928h3.234v15.6h4.335v2.222h-7.568z"/><path d="m741.58 393.928h3.213v17.823h-3.213z"/><path d="m753.856 406.052v-6.359c0-3.652 1.166-5.963 5.083-5.963 3.653 0 4.819 2.025 4.819 5.127v1.5h-3.125v-1.541c0-1.5-.022-2.706-1.672-2.706-1.672 0-1.826 1.276-1.826 2.9v7.723c0 1.936.4 2.861 1.826 2.861 1.606 0 1.672-1.255 1.672-2.839v-1.605h3.125v1.43c0 3.147-1.057 5.413-4.819 5.413-3.917 0-5.083-2.464-5.083-5.941z"/><path d="m775.108 404.952-3.608-11.024h3.036l2.2 7.063 2.069-7.063h2.97l-3.564 11.024v6.8h-3.1z"/></g></svg>