<svg height="21.56" viewBox="0 0 442.745 21.56" width="442.745" xmlns="http://www.w3.org/2000/svg"><g fill="#fff" transform="translate(-644.627 -398.008)"><path d="m653.581 419.568a5.7 5.7 0 0 1 -1.177-.792 12.555 12.555 0 0 1 -1.232-1.2 11.588 11.588 0 0 1 -1.045-1.331.807.807 0 0 1 -.188.022h-.209a5.624 5.624 0 0 1 -3.013-.7 3.891 3.891 0 0 1 -1.606-2.024 9.069 9.069 0 0 1 -.484-3.124v-6.669a8.788 8.788 0 0 1 .484-3.091 3.79 3.79 0 0 1 1.606-1.969 5.763 5.763 0 0 1 3.013-.682 5.869 5.869 0 0 1 3.059.682 3.783 3.783 0 0 1 1.6 1.969 8.786 8.786 0 0 1 .485 3.091v6.688a10.173 10.173 0 0 1 -.242 2.31 4.952 4.952 0 0 1 -.792 1.793 3.657 3.657 0 0 1 -1.452 1.177l.593.638q.307.33.617.616a3.956 3.956 0 0 0 .594.462zm-3.851-5.7a1.785 1.785 0 0 0 1.211-.352 1.742 1.742 0 0 0 .528-.968 6.4 6.4 0 0 0 .132-1.342v-8.206a6.207 6.207 0 0 0 -.132-1.342 1.671 1.671 0 0 0 -.528-.935 1.823 1.823 0 0 0 -1.211-.341 1.781 1.781 0 0 0 -1.187.341 1.62 1.62 0 0 0 -.518.935 6.8 6.8 0 0 0 -.125 1.342v8.206a7.016 7.016 0 0 0 .121 1.342 1.689 1.689 0 0 0 .518.968 1.744 1.744 0 0 0 1.191.354z"/><path d="m668.783 416.268a5.558 5.558 0 0 1 -3.08-.726 3.7 3.7 0 0 1 -1.518-2.068 10.858 10.858 0 0 1 -.418-3.212v-12.056h3.168v12.43a10.578 10.578 0 0 0 .11 1.573 2.2 2.2 0 0 0 .516 1.188 1.564 1.564 0 0 0 1.222.451 1.548 1.548 0 0 0 1.242-.451 2.371 2.371 0 0 0 .506-1.188 9.677 9.677 0 0 0 .121-1.573v-12.43h3.148v12.056a10.89 10.89 0 0 1 -.418 3.212 3.726 3.726 0 0 1 -1.508 2.068 5.55 5.55 0 0 1 -3.091.726z"/><path d="m682.95 416.026v-17.82h7.48v2.288h-4.223v5.126h3.321v2.266h-3.321v5.9h4.268v2.244z"/><path d="m703.454 416.268a5.271 5.271 0 0 1 -2.685-.627 3.939 3.939 0 0 1 -1.626-1.837 7.879 7.879 0 0 1 -.618-2.97l2.795-.55a8.693 8.693 0 0 0 .253 1.826 2.649 2.649 0 0 0 .638 1.221 1.532 1.532 0 0 0 1.133.429 1.272 1.272 0 0 0 1.122-.473 2.054 2.054 0 0 0 .33-1.2 3.242 3.242 0 0 0 -.528-1.914 8.233 8.233 0 0 0 -1.409-1.5l-2.243-1.98a6.728 6.728 0 0 1 -1.507-1.815 4.989 4.989 0 0 1 -.561-2.475 4.228 4.228 0 0 1 1.231-3.256 4.761 4.761 0 0 1 3.367-1.144 4.992 4.992 0 0 1 2.09.385 3.322 3.322 0 0 1 1.33 1.067 4.836 4.836 0 0 1 .739 1.551 9.177 9.177 0 0 1 .306 1.837l-2.771.484a9.454 9.454 0 0 0 -.188-1.5 2.06 2.06 0 0 0 -.506-1.034 1.42 1.42 0 0 0 -1.066-.374 1.348 1.348 0 0 0 -1.111.473 1.808 1.808 0 0 0 -.385 1.177 2.708 2.708 0 0 0 .374 1.485 5.759 5.759 0 0 0 1.078 1.2l2.222 1.958a9.232 9.232 0 0 1 1.881 2.167 5.531 5.531 0 0 1 .781 3 4.525 4.525 0 0 1 -.561 2.266 4.022 4.022 0 0 1 -1.562 1.551 4.715 4.715 0 0 1 -2.343.572z"/><path d="m718.216 416.026v-15.426h-2.838v-2.4h8.888v2.4h-2.794v15.422z"/><path d="m732.582 416.026v-17.82h3.212v17.82z"/><path d="m749.984 416.268a5.628 5.628 0 0 1 -3.014-.7 3.888 3.888 0 0 1 -1.607-2.024 9.1 9.1 0 0 1 -.483-3.124v-6.67a8.813 8.813 0 0 1 .483-3.091 3.787 3.787 0 0 1 1.607-1.969 7.074 7.074 0 0 1 6.061 0 3.862 3.862 0 0 1 1.606 1.969 8.619 8.619 0 0 1 .495 3.091v6.688a8.734 8.734 0 0 1 -.495 3.091 4.024 4.024 0 0 1 -1.606 2.024 5.6 5.6 0 0 1 -3.047.715zm0-2.4a1.74 1.74 0 0 0 1.2-.352 1.778 1.778 0 0 0 .516-.968 6.4 6.4 0 0 0 .133-1.342v-8.206a6.2 6.2 0 0 0 -.133-1.342 1.7 1.7 0 0 0 -.516-.935 1.777 1.777 0 0 0 -1.2-.341 1.745 1.745 0 0 0 -1.166.341 1.678 1.678 0 0 0 -.529.935 6.211 6.211 0 0 0 -.131 1.342v8.206a6.862 6.862 0 0 0 .121 1.342 1.677 1.677 0 0 0 .517.968 1.743 1.743 0 0 0 1.188.354z"/><path d="m764.129 416.026v-17.82h2.271l4.334 10.164v-10.164h2.685v17.82h-2.156l-4.363-10.648v10.648z"/><path d="m794.664 416.026v-17.82h7.48v2.288h-4.223v5.126h3.321v2.266h-3.321v5.9h4.268v2.244z"/><path d="m809.559 416.026 3.585-9.46-3.475-8.36h3.036l2.31 5.522 2.024-5.522h2.816l-3.432 8.976 3.7 8.844h-3.036l-2.53-5.984-2.2 5.984z"/><path d="m828.259 416.026v-17.82h5.236a5.064 5.064 0 0 1 2.607.594 3.525 3.525 0 0 1 1.474 1.727 7.106 7.106 0 0 1 .473 2.739 5.738 5.738 0 0 1 -.594 2.805 3.541 3.541 0 0 1 -1.661 1.551 6.051 6.051 0 0 1 -2.519.484h-1.759v7.92zm3.257-10.208h1.231a3.061 3.061 0 0 0 1.375-.253 1.357 1.357 0 0 0 .683-.814 4.969 4.969 0 0 0 .186-1.507 7.074 7.074 0 0 0 -.143-1.573 1.356 1.356 0 0 0 -.616-.891 2.961 2.961 0 0 0 -1.485-.286h-1.231z"/><path d="m846.453 416.026v-17.82h3.256v15.576h4.312v2.244z"/><path d="m861.412 416.026 3.565-17.82h3.475l3.564 17.82h-3.016l-.7-4.114h-3.1l-.725 4.114zm4.114-6.182h2.42l-1.21-7.48z"/><path d="m880.4 416.026v-17.82h2.266l4.334 10.164v-10.164h2.684v17.82h-2.156l-4.356-10.648v10.648z"/><path d="m898.086 416.026 3.564-17.82h3.476l3.563 17.82h-3.013l-.7-4.114h-3.1l-.726 4.114zm4.114-6.182h2.42l-1.21-7.48z"/><path d="m918.853 416.026v-15.426h-2.837v-2.4h8.884v2.4h-2.795v15.422z"/><path d="m933.221 416.026v-17.82h3.211v17.82z"/><path d="m950.621 416.268a5.626 5.626 0 0 1 -3.014-.7 3.884 3.884 0 0 1 -1.6-2.024 9.069 9.069 0 0 1 -.484-3.124v-6.67a8.788 8.788 0 0 1 .484-3.091 3.783 3.783 0 0 1 1.6-1.969 7.074 7.074 0 0 1 6.061 0 3.862 3.862 0 0 1 1.606 1.969 8.617 8.617 0 0 1 .495 3.091v6.688a8.732 8.732 0 0 1 -.495 3.091 4.024 4.024 0 0 1 -1.606 2.024 5.6 5.6 0 0 1 -3.047.715zm0-2.4a1.738 1.738 0 0 0 1.2-.352 1.781 1.781 0 0 0 .518-.968 6.4 6.4 0 0 0 .131-1.342v-8.206a6.211 6.211 0 0 0 -.131-1.342 1.707 1.707 0 0 0 -.518-.935 1.775 1.775 0 0 0 -1.2-.341 1.743 1.743 0 0 0 -1.166.341 1.67 1.67 0 0 0 -.527.935 6.208 6.208 0 0 0 -.133 1.342v8.206a7.016 7.016 0 0 0 .121 1.342 1.689 1.689 0 0 0 .518.968 1.742 1.742 0 0 0 1.187.354z"/><path d="m964.768 416.026v-17.82h2.265l4.334 10.164v-10.164h2.684v17.82h-2.157l-4.355-10.648v10.648z"/><path d="m995.082 416.026v-17.82h2.267l4.334 10.164v-10.164h2.683v17.82h-2.156l-4.356-10.648v10.648z"/><path d="m1018.512 416.268a5.628 5.628 0 0 1 -3.014-.7 3.891 3.891 0 0 1 -1.606-2.024 9.068 9.068 0 0 1 -.484-3.124v-6.67a8.786 8.786 0 0 1 .484-3.091 3.79 3.79 0 0 1 1.606-1.969 7.074 7.074 0 0 1 6.061 0 3.857 3.857 0 0 1 1.606 1.969 8.617 8.617 0 0 1 .495 3.091v6.688a8.732 8.732 0 0 1 -.495 3.091 4.018 4.018 0 0 1 -1.606 2.024 5.6 5.6 0 0 1 -3.047.715zm0-2.4a1.738 1.738 0 0 0 1.2-.352 1.773 1.773 0 0 0 .517-.968 6.4 6.4 0 0 0 .132-1.342v-8.206a6.211 6.211 0 0 0 -.132-1.342 1.7 1.7 0 0 0 -.517-.935 1.775 1.775 0 0 0 -1.2-.341 1.743 1.743 0 0 0 -1.166.341 1.671 1.671 0 0 0 -.528.935 6.207 6.207 0 0 0 -.132 1.342v8.206a7.016 7.016 0 0 0 .121 1.342 1.689 1.689 0 0 0 .517.968 1.745 1.745 0 0 0 1.188.354z"/><path d="m1034.44 416.026v-15.426h-2.84v-2.4h8.887v2.4h-2.787v15.422z"/><path d="m1048.806 416.026v-17.82h3.212v17.82z"/><path d="m1066.164 416.268a5.318 5.318 0 0 1 -3.068-.77 4.01 4.01 0 0 1 -1.552-2.1 9.783 9.783 0 0 1 -.44-3.069v-6.359a10.21 10.21 0 0 1 .44-3.168 3.8 3.8 0 0 1 1.552-2.068 5.565 5.565 0 0 1 3.068-.726 5.634 5.634 0 0 1 2.894.627 3.449 3.449 0 0 1 1.484 1.793 7.627 7.627 0 0 1 .44 2.706v1.5h-3.124v-1.54a10.924 10.924 0 0 0 -.077-1.364 1.693 1.693 0 0 0 -.418-.979 1.57 1.57 0 0 0 -1.177-.363 1.666 1.666 0 0 0 -1.22.385 1.855 1.855 0 0 0 -.495 1.034 8.741 8.741 0 0 0 -.111 1.463v7.744a6.777 6.777 0 0 0 .155 1.6 1.653 1.653 0 0 0 .56.946 1.756 1.756 0 0 0 1.111.319 1.483 1.483 0 0 0 1.156-.385 1.908 1.908 0 0 0 .429-1.023 10.651 10.651 0 0 0 .087-1.43v-1.606h3.124v1.43a8.664 8.664 0 0 1 -.417 2.805 3.656 3.656 0 0 1 -1.463 1.914 5.293 5.293 0 0 1 -2.938.684z"/><path d="m1079.848 416.026v-17.82h7.48v2.288h-4.228v5.126h3.323v2.266h-3.323v5.9h4.269v2.244z"/></g></svg>