<svg height="18.263" viewBox="0 0 111.892 18.263" width="111.892" xmlns="http://www.w3.org/2000/svg"><g fill="#fff" transform="translate(-554.891 -393.73)"><path d="m554.891 393.928h4.291c3.564 0 5.589 1.145 5.589 4.731 0 2.134-.529 3.631-2.2 4.313l2.487 8.779h-3.258l-2.134-8.163h-1.541v8.163h-3.234zm4.269 7.635c1.87 0 2.552-.813 2.552-2.728 0-1.8-.506-2.684-2.377-2.684h-1.21v5.412z"/><path d="m573.833 393.928h7.481v2.289h-4.247v5.126h3.345v2.267h-3.345v5.919h4.291v2.222h-7.525z"/><path d="m589.563 406.052v-6.359c0-3.652 1.166-5.963 5.083-5.963 3.652 0 4.818 2.025 4.818 5.127v1.5h-3.124v-1.541c0-1.5-.022-2.706-1.672-2.706-1.672 0-1.827 1.276-1.827 2.9v7.723c0 1.936.4 2.861 1.827 2.861 1.606 0 1.672-1.255 1.672-2.839v-1.605h3.124v1.43c0 3.147-1.056 5.413-4.818 5.413-3.917 0-5.083-2.464-5.083-5.941z"/><path d="m608.329 393.928h4.29c3.565 0 5.589 1.145 5.589 4.731 0 2.134-.528 3.631-2.2 4.313l2.486 8.779h-3.257l-2.134-8.163h-1.54v8.163h-3.234zm4.268 7.635c1.87 0 2.552-.813 2.552-2.728 0-1.8-.505-2.684-2.376-2.684h-1.21v5.412z"/><path d="m627.138 405.986v-12.058h3.169v12.432c0 1.7.2 3.213 1.848 3.213 1.672 0 1.87-1.518 1.87-3.213v-12.432h3.147v12.058c0 3.741-1.034 6.007-5.017 6.007-4.005 0-5.017-2.266-5.017-6.007z"/><path d="m646.41 393.928h3.213v17.823h-3.213z"/><path d="m660.754 396.327h-2.838v-2.4h8.867v2.4h-2.772v15.424h-3.257z"/></g></svg>