<svg height="18.263" viewBox="0 0 318.249 18.263" width="318.249" xmlns="http://www.w3.org/2000/svg"><g fill="#fff" transform="translate(-320.891 -394.73)"><path d="m320.891 394.928h4.291c3.564 0 5.589 1.145 5.589 4.731 0 2.134-.529 3.631-2.2 4.313l2.487 8.779h-3.258l-2.134-8.163h-1.541v8.163h-3.234zm4.269 7.635c1.87 0 2.552-.813 2.552-2.728 0-1.8-.506-2.684-2.377-2.684h-1.21v5.412z"/><path d="m339.833 394.928h7.481v2.289h-4.247v5.126h3.345v2.267h-3.345v5.919h4.291v2.222h-7.525z"/><path d="m355.409 407.558 2.794-.55c.089 2.113.594 3.477 2.025 3.477 1.034 0 1.474-.7 1.474-1.672 0-1.541-.792-2.4-1.958-3.411l-2.245-1.958a5.263 5.263 0 0 1 -2.068-4.313c0-2.817 1.76-4.4 4.6-4.4 3.344 0 4.29 2.245 4.466 4.841l-2.794.484c-.066-1.672-.308-2.926-1.738-2.926a1.5 1.5 0 0 0 -1.5 1.672 3.234 3.234 0 0 0 1.452 2.684l2.223 1.959a6.609 6.609 0 0 1 2.662 5.17 4.216 4.216 0 0 1 -4.466 4.379c-3.255-.001-4.795-1.894-4.927-5.436z"/><path d="m375.1 397.327h-2.84v-2.4h8.867v2.4h-2.772v15.424h-3.255z"/><path d="m392.016 394.928h3.477l3.564 17.823h-3.014l-.7-4.115h-3.1l-.726 4.115h-3.058zm2.971 11.64-1.211-7.481-1.21 7.481z"/><path d="m407.306 406.986v-12.058h3.168v12.432c0 1.7.2 3.213 1.849 3.213 1.672 0 1.87-1.518 1.87-3.213v-12.432h3.146v12.058c0 3.741-1.034 6.007-5.016 6.007-4.005 0-5.017-2.266-5.017-6.007z"/><path d="m426.49 394.928h4.29c3.565 0 5.589 1.145 5.589 4.731 0 2.134-.528 3.631-2.2 4.313l2.486 8.779h-3.255l-2.134-8.163h-1.54v8.163h-3.236zm4.268 7.635c1.87 0 2.553-.813 2.553-2.728 0-1.8-.506-2.684-2.377-2.684h-1.21v5.412z"/><path d="m448.094 394.928h3.476l3.565 17.823h-3.014l-.7-4.115h-3.1l-.726 4.115h-3.059zm2.97 11.64-1.21-7.481-1.21 7.481z"/><path d="m463.515 394.928h2.266l4.335 10.166v-10.166h2.684v17.823h-2.156l-4.356-10.651v10.649h-2.773z"/><path d="m483.887 397.327h-2.838v-2.4h8.867v2.4h-2.772v15.424h-3.257z"/><path d="m510.088 394.928h4.4c3.124 0 5.215 1.056 5.215 4.577 0 2.179-.9 3.389-2.575 3.653 2.091.4 3.081 1.892 3.081 4.4 0 3.411-1.672 5.193-4.973 5.193h-5.149zm4.357 7.283c1.936 0 2.442-.857 2.442-2.662 0-1.892-.924-2.354-2.9-2.354h-.66v5.016zm.132 8.252c1.98 0 2.53-.924 2.53-2.927 0-2.112-.7-3.08-2.64-3.08h-1.144v6.007z"/><path d="m528.81 406.986v-12.058h3.169v12.432c0 1.7.2 3.213 1.848 3.213 1.672 0 1.87-1.518 1.87-3.213v-12.432h3.147v12.058c0 3.741-1.034 6.007-5.017 6.007-4.005 0-5.017-2.266-5.017-6.007z"/><path d="m547.554 407.558 2.794-.55c.088 2.113.594 3.477 2.024 3.477 1.034 0 1.474-.7 1.474-1.672 0-1.541-.792-2.4-1.958-3.411l-2.244-1.958a5.263 5.263 0 0 1 -2.068-4.313c0-2.817 1.76-4.4 4.6-4.4 3.345 0 4.291 2.245 4.467 4.841l-2.795.484c-.066-1.672-.307-2.926-1.738-2.926a1.494 1.494 0 0 0 -1.5 1.672 3.231 3.231 0 0 0 1.452 2.684l2.223 1.959a6.609 6.609 0 0 1 2.662 5.17 4.216 4.216 0 0 1 -4.467 4.379c-3.254-.001-4.794-1.894-4.926-5.436z"/><path d="m565.549 394.928h3.213v17.823h-3.213z"/><path d="m578.111 394.928h2.266l4.335 10.166v-10.166h2.688v17.823h-2.16l-4.356-10.651v10.649h-2.773z"/><path d="m596.7 394.928h7.481v2.289h-4.246v5.126h3.344v2.267h-3.344v5.919h4.29v2.222h-7.525z"/><path d="m612.277 407.558 2.794-.55c.089 2.113.6 3.477 2.025 3.477 1.034 0 1.474-.7 1.474-1.672 0-1.541-.792-2.4-1.958-3.411l-2.245-1.958a5.263 5.263 0 0 1 -2.068-4.313c0-2.817 1.761-4.4 4.6-4.4 3.344 0 4.29 2.245 4.466 4.841l-2.794.484c-.066-1.672-.308-2.926-1.738-2.926a1.5 1.5 0 0 0 -1.5 1.672 3.232 3.232 0 0 0 1.453 2.684l2.222 1.959a6.609 6.609 0 0 1 2.662 5.17 4.216 4.216 0 0 1 -4.466 4.379c-3.255-.001-4.795-1.894-4.927-5.436z"/><path d="m629.745 407.558 2.794-.55c.088 2.113.594 3.477 2.024 3.477 1.034 0 1.474-.7 1.474-1.672 0-1.541-.792-2.4-1.958-3.411l-2.244-1.958a5.263 5.263 0 0 1 -2.068-4.313c0-2.817 1.76-4.4 4.6-4.4 3.344 0 4.291 2.245 4.467 4.841l-2.795.484c-.066-1.672-.308-2.926-1.738-2.926a1.494 1.494 0 0 0 -1.5 1.672 3.231 3.231 0 0 0 1.452 2.684l2.223 1.959a6.609 6.609 0 0 1 2.662 5.17 4.217 4.217 0 0 1 -4.467 4.379c-3.254-.001-4.795-1.894-4.926-5.436z"/></g></svg>