<svg height="18.26" viewBox="0 0 361.347 18.26" width="361.347" xmlns="http://www.w3.org/2000/svg"><g fill="#fff" transform="translate(-690.451 -393.008)"><path d="m695.379 411.268a5.267 5.267 0 0 1 -2.684-.627 3.961 3.961 0 0 1 -1.629-1.837 7.882 7.882 0 0 1 -.615-2.97l2.793-.55a8.559 8.559 0 0 0 .254 1.826 2.64 2.64 0 0 0 .638 1.221 1.531 1.531 0 0 0 1.133.429 1.272 1.272 0 0 0 1.122-.473 2.046 2.046 0 0 0 .33-1.2 3.242 3.242 0 0 0 -.528-1.914 8.259 8.259 0 0 0 -1.408-1.5l-2.244-1.98a6.769 6.769 0 0 1 -1.508-1.815 5.01 5.01 0 0 1 -.56-2.475 4.222 4.222 0 0 1 1.232-3.256 4.752 4.752 0 0 1 3.365-1.144 4.989 4.989 0 0 1 2.09.385 3.315 3.315 0 0 1 1.332 1.067 4.81 4.81 0 0 1 .736 1.551 9.108 9.108 0 0 1 .309 1.837l-2.772.484a9.584 9.584 0 0 0 -.187-1.5 2.084 2.084 0 0 0 -.506-1.034 1.421 1.421 0 0 0 -1.067-.374 1.347 1.347 0 0 0 -1.111.473 1.8 1.8 0 0 0 -.385 1.177 2.7 2.7 0 0 0 .374 1.485 5.762 5.762 0 0 0 1.078 1.2l2.222 1.958a9.232 9.232 0 0 1 1.881 2.167 5.54 5.54 0 0 1 .781 3 4.5 4.5 0 0 1 -.562 2.266 4.013 4.013 0 0 1 -1.561 1.551 4.715 4.715 0 0 1 -2.343.572z"/><path d="m713.154 411.268a5.322 5.322 0 0 1 -3.068-.77 4.007 4.007 0 0 1 -1.551-2.1 9.755 9.755 0 0 1 -.44-3.069v-6.359a10.181 10.181 0 0 1 .44-3.168 3.794 3.794 0 0 1 1.551-2.068 6.913 6.913 0 0 1 5.961-.1 3.452 3.452 0 0 1 1.486 1.793 7.651 7.651 0 0 1 .44 2.706v1.5h-3.124v-1.54a11.1 11.1 0 0 0 -.078-1.364 1.679 1.679 0 0 0 -.418-.979 1.567 1.567 0 0 0 -1.176-.363 1.671 1.671 0 0 0 -1.222.385 1.853 1.853 0 0 0 -.494 1.034 8.747 8.747 0 0 0 -.11 1.463v7.744a6.9 6.9 0 0 0 .153 1.6 1.659 1.659 0 0 0 .561.946 1.757 1.757 0 0 0 1.112.319 1.482 1.482 0 0 0 1.155-.385 1.907 1.907 0 0 0 .429-1.023 10.8 10.8 0 0 0 .088-1.43v-1.606h3.124v1.43a8.665 8.665 0 0 1 -.418 2.805 3.656 3.656 0 0 1 -1.463 1.914 5.292 5.292 0 0 1 -2.938.685z"/><path d="m726.883 411.026v-17.82h3.234v7.458h3.629v-7.458h3.254v17.82h-3.256v-8.052h-3.629v8.052z"/><path d="m746.33 411.026v-17.82h7.48v2.288h-4.224v5.126h3.322v2.266h-3.322v5.9h4.268v2.244z"/><path d="m762.346 411.026v-17.82h4.2a7.916 7.916 0 0 1 3.4.594 3.459 3.459 0 0 1 1.738 1.826 8.139 8.139 0 0 1 .518 3.124v6.512a8.712 8.712 0 0 1 -.518 3.223 3.6 3.6 0 0 1 -1.716 1.914 7.167 7.167 0 0 1 -3.289.627zm3.256-2.266h.99a2.554 2.554 0 0 0 1.606-.4 1.751 1.751 0 0 0 .6-1.155 13.488 13.488 0 0 0 .109-1.859v-6.82a7.834 7.834 0 0 0 -.154-1.738 1.487 1.487 0 0 0 -.638-.968 3.013 3.013 0 0 0 -1.561-.308h-.954z"/><path d="m786.084 411.268a5.563 5.563 0 0 1 -3.08-.726 3.714 3.714 0 0 1 -1.518-2.068 10.855 10.855 0 0 1 -.418-3.212v-12.056h3.168v12.43a10.711 10.711 0 0 0 .11 1.573 2.217 2.217 0 0 0 .517 1.188 1.91 1.91 0 0 0 2.465 0 2.4 2.4 0 0 0 .506-1.188 9.787 9.787 0 0 0 .121-1.573v-12.43h3.145v12.056a10.89 10.89 0 0 1 -.418 3.212 3.734 3.734 0 0 1 -1.507 2.068 5.557 5.557 0 0 1 -3.091.726z"/><path d="m800.252 411.026v-17.82h3.256v15.576h4.312v2.244z"/><path d="m816.113 411.026v-17.82h7.481v2.288h-4.224v5.126h3.321v2.266h-3.321v5.9h4.269v2.244z"/><path d="m860.729 411.026v-17.82h5.237a5.06 5.06 0 0 1 2.606.594 3.527 3.527 0 0 1 1.475 1.727 7.125 7.125 0 0 1 .472 2.739 5.749 5.749 0 0 1 -.593 2.805 3.546 3.546 0 0 1 -1.661 1.551 6.051 6.051 0 0 1 -2.519.484h-1.76v7.92zm3.257-10.208h1.232a3.061 3.061 0 0 0 1.375-.253 1.356 1.356 0 0 0 .682-.814 4.965 4.965 0 0 0 .187-1.507 7 7 0 0 0 -.144-1.573 1.351 1.351 0 0 0 -.615-.891 2.961 2.961 0 0 0 -1.485-.286h-1.232z"/><path d="m878.924 411.026v-17.82h7.476v2.288h-4.22v5.126h3.32v2.266h-3.32v5.9h4.267v2.244z"/><path d="m894.939 411.026v-17.82h4.268a9.42 9.42 0 0 1 3.048.429 3.5 3.5 0 0 1 1.891 1.463 5.264 5.264 0 0 1 .65 2.816 8.7 8.7 0 0 1 -.2 1.936 3.687 3.687 0 0 1 -.671 1.463 3.031 3.031 0 0 1 -1.31.935l2.486 8.778h-3.255l-2.157-8.162h-1.5v8.162zm3.256-10.208h1.012a3.453 3.453 0 0 0 1.508-.275 1.612 1.612 0 0 0 .8-.88 4.227 4.227 0 0 0 .242-1.551 3.379 3.379 0 0 0 -.495-2.013 2.213 2.213 0 0 0 -1.881-.671h-1.181z"/><path d="m913.881 411.026v-17.82h7.326v2.244h-4.07v5.192h3.322v2.266h-3.322v8.118z"/><path d="m934.407 411.268a5.626 5.626 0 0 1 -3.014-.7 3.882 3.882 0 0 1 -1.606-2.024 9.094 9.094 0 0 1 -.484-3.124v-6.67a8.812 8.812 0 0 1 .484-3.091 3.78 3.78 0 0 1 1.606-1.969 7.074 7.074 0 0 1 6.061 0 3.862 3.862 0 0 1 1.606 1.969 8.6 8.6 0 0 1 .495 3.091v6.688a8.71 8.71 0 0 1 -.495 3.091 4.024 4.024 0 0 1 -1.606 2.024 5.6 5.6 0 0 1 -3.047.715zm0-2.4a1.734 1.734 0 0 0 1.2-.352 1.774 1.774 0 0 0 .518-.968 6.4 6.4 0 0 0 .132-1.342v-8.206a6.207 6.207 0 0 0 -.132-1.342 1.7 1.7 0 0 0 -.518-.935 1.77 1.77 0 0 0 -1.2-.341 1.744 1.744 0 0 0 -1.166.341 1.671 1.671 0 0 0 -.528.935 6.207 6.207 0 0 0 -.132 1.342v8.206a6.933 6.933 0 0 0 .121 1.342 1.689 1.689 0 0 0 .517.968 1.743 1.743 0 0 0 1.188.354z"/><path d="m948.553 411.026v-17.82h4.267a9.42 9.42 0 0 1 3.048.429 3.506 3.506 0 0 1 1.892 1.463 5.273 5.273 0 0 1 .649 2.816 8.635 8.635 0 0 1 -.2 1.936 3.687 3.687 0 0 1 -.671 1.463 3.025 3.025 0 0 1 -1.31.935l2.487 8.778h-3.256l-2.156-8.162h-1.5v8.162zm3.256-10.208h1.011a3.452 3.452 0 0 0 1.508-.275 1.608 1.608 0 0 0 .8-.88 4.227 4.227 0 0 0 .242-1.551 3.378 3.378 0 0 0 -.495-2.013 2.213 2.213 0 0 0 -1.881-.671h-1.188z"/><path d="m967.451 411.026.308-17.82h3.366l2.529 12.342 2.641-12.342h3.256l.33 17.82h-2.42l-.261-12.386-2.53 12.386h-1.958l-2.574-12.43-.242 12.43z"/><path d="m988.219 411.026 3.564-17.82h3.476l3.563 17.82h-3.013l-.7-4.114h-3.109l-.726 4.114zm4.114-6.182h2.42l-1.21-7.48z"/><path d="m1007.2 411.026v-17.82h2.267l4.334 10.164v-10.164h2.683v17.82h-2.156l-4.355-10.648v10.648z"/><path d="m1030.59 411.268a5.318 5.318 0 0 1 -3.068-.77 4.01 4.01 0 0 1 -1.552-2.1 9.783 9.783 0 0 1 -.44-3.069v-6.359a10.21 10.21 0 0 1 .44-3.168 3.8 3.8 0 0 1 1.552-2.068 5.565 5.565 0 0 1 3.068-.726 5.63 5.63 0 0 1 2.893.627 3.446 3.446 0 0 1 1.485 1.793 7.629 7.629 0 0 1 .44 2.706v1.5h-3.124v-1.54a10.924 10.924 0 0 0 -.077-1.364 1.692 1.692 0 0 0 -.418-.979 1.571 1.571 0 0 0 -1.177-.363 1.664 1.664 0 0 0 -1.22.385 1.855 1.855 0 0 0 -.495 1.034 8.639 8.639 0 0 0 -.111 1.463v7.744a6.843 6.843 0 0 0 .154 1.6 1.655 1.655 0 0 0 .561.946 1.754 1.754 0 0 0 1.111.319 1.483 1.483 0 0 0 1.156-.385 1.9 1.9 0 0 0 .428-1.023 10.482 10.482 0 0 0 .088-1.43v-1.606h3.124v1.43a8.637 8.637 0 0 1 -.418 2.805 3.646 3.646 0 0 1 -1.463 1.914 5.286 5.286 0 0 1 -2.937.684z"/><path d="m1044.273 411.026v-17.82h7.481v2.288h-4.225v5.126h3.323v2.266h-3.323v5.9h4.269v2.244z"/></g></svg>