<svg height="18.263" viewBox="0 0 155.584 18.263" width="155.584" xmlns="http://www.w3.org/2000/svg"><g fill="#fff" transform="translate(-396.451 -397.73)"><path d="m396.451 410.558 2.794-.55c.088 2.113.594 3.477 2.025 3.477 1.034 0 1.474-.7 1.474-1.672 0-1.541-.792-2.4-1.958-3.411l-2.245-1.958a5.263 5.263 0 0 1 -2.068-4.313c0-2.817 1.76-4.4 4.6-4.4 3.344 0 4.29 2.245 4.466 4.841l-2.794.484c-.066-1.672-.308-2.926-1.738-2.926a1.5 1.5 0 0 0 -1.5 1.672 3.234 3.234 0 0 0 1.452 2.684l2.223 1.959a6.609 6.609 0 0 1 2.662 5.17 4.216 4.216 0 0 1 -4.466 4.379c-3.255-.001-4.795-1.894-4.927-5.436z"/><path d="m416.845 408.952-3.608-11.024h3.036l2.2 7.063 2.068-7.063h2.97l-3.564 11.024v6.8h-3.1z"/><path d="m431.937 397.928h3.363l2.53 12.344 2.619-12.344h3.278l.331 17.823h-2.418l-.264-12.388-2.53 12.388h-1.958l-2.575-12.432-.242 12.432h-2.442z"/><path d="m453.3 397.928h5.237c3.191 0 4.555 1.849 4.555 5.061 0 3.5-1.893 4.841-4.775 4.841h-1.782v7.921h-3.235zm4.489 7.614c1.782 0 2.244-.683 2.244-2.575 0-1.914-.242-2.75-2.244-2.75h-1.254v5.325z"/><path d="m471.206 410.162v-6.689c0-3.608 1.32-5.743 5.149-5.743 3.806 0 5.126 2.135 5.126 5.743v6.689c0 3.587-1.32 5.831-5.126 5.831-3.855 0-5.149-2.222-5.149-5.831zm6.975.77v-8.207c0-1.5-.242-2.618-1.826-2.618s-1.849 1.122-1.849 2.618v8.207c0 1.474.243 2.663 1.849 2.663 1.584.005 1.826-1.189 1.826-2.663z"/><path d="m490.038 410.558 2.794-.55c.088 2.113.594 3.477 2.024 3.477 1.035 0 1.475-.7 1.475-1.672 0-1.541-.792-2.4-1.958-3.411l-2.245-1.958a5.263 5.263 0 0 1 -2.068-4.313c0-2.817 1.76-4.4 4.6-4.4 3.344 0 4.29 2.245 4.466 4.841l-2.794.484c-.066-1.672-.308-2.926-1.738-2.926a1.5 1.5 0 0 0 -1.5 1.672 3.234 3.234 0 0 0 1.452 2.684l2.223 1.959a6.609 6.609 0 0 1 2.662 5.17 4.216 4.216 0 0 1 -4.466 4.379c-3.255-.001-4.795-1.894-4.927-5.436z"/><path d="m508.034 397.928h3.212v17.823h-3.212z"/><path d="m520.463 409.986v-12.058h3.169v12.432c0 1.7.2 3.213 1.848 3.213 1.672 0 1.871-1.518 1.871-3.213v-12.432h3.149v12.058c0 3.741-1.034 6.007-5.017 6.007-4.007 0-5.02-2.266-5.02-6.007z"/><path d="m539.911 397.928h3.366l2.531 12.344 2.618-12.344h3.279l.33 17.823h-2.421l-.264-12.388-2.53 12.388h-1.958l-2.575-12.432-.242 12.432h-2.445z"/></g></svg>