<svg height="18.26" viewBox="0 0 300.847 18.26" width="300.847" xmlns="http://www.w3.org/2000/svg"><g fill="#fff" transform="translate(-395.835 -397.733)"><path d="m398.673 415.751v-15.422h-2.838v-2.4h8.888v2.4h-2.794v15.422z"/><path d="m412.995 415.751v-17.82h3.234v7.458h3.63v-7.458h3.256v17.82h-3.256v-8.051h-3.63v8.052z"/><path d="m432.531 415.751v-17.82h3.212v17.82z"/><path d="m445.092 415.751v-17.82h4.268a9.421 9.421 0 0 1 3.048.429 3.5 3.5 0 0 1 1.891 1.463 5.264 5.264 0 0 1 .65 2.816 8.634 8.634 0 0 1 -.2 1.936 3.685 3.685 0 0 1 -.67 1.463 3.031 3.031 0 0 1 -1.31.935l2.486 8.778h-3.255l-2.155-8.162h-1.5v8.162zm3.257-10.208h1.011a3.452 3.452 0 0 0 1.508-.275 1.6 1.6 0 0 0 .8-.88 4.226 4.226 0 0 0 .243-1.551 3.371 3.371 0 0 0 -.5-2.013 2.212 2.212 0 0 0 -1.88-.671h-1.188z"/><path d="m464.034 415.751v-17.82h4.2a7.918 7.918 0 0 1 3.4.594 3.463 3.463 0 0 1 1.738 1.826 8.12 8.12 0 0 1 .518 3.124v6.512a8.692 8.692 0 0 1 -.518 3.223 3.6 3.6 0 0 1 -1.716 1.914 7.167 7.167 0 0 1 -3.289.627zm3.256-2.266h.99a2.553 2.553 0 0 0 1.606-.4 1.745 1.745 0 0 0 .594-1.155 13.149 13.149 0 0 0 .11-1.859v-6.82a7.9 7.9 0 0 0 -.154-1.738 1.487 1.487 0 0 0 -.638-.968 3.012 3.012 0 0 0 -1.562-.308h-.946z"/><path d="m497.32 415.751v-6.8l-3.608-11.022h3.036l2.2 7.062 2.068-7.062h2.97l-3.564 11.022v6.8z"/><path d="m512.148 415.751v-17.82h7.48v2.288h-4.228v5.126h3.322v2.266h-3.322v5.9h4.268v2.244z"/><path d="m527.262 415.751 3.564-17.82h3.474l3.564 17.82h-3.014l-.7-4.114h-3.1l-.726 4.114zm4.114-6.182h2.42l-1.21-7.48z"/><path d="m546.248 415.751v-17.82h4.268a9.419 9.419 0 0 1 3.047.429 3.506 3.506 0 0 1 1.892 1.463 5.273 5.273 0 0 1 .649 2.816 8.635 8.635 0 0 1 -.2 1.936 3.687 3.687 0 0 1 -.671 1.463 3.034 3.034 0 0 1 -1.309.935l2.486 8.778h-3.256l-2.154-8.162h-1.5v8.162zm3.256-10.208h1.012a3.451 3.451 0 0 0 1.507-.275 1.609 1.609 0 0 0 .8-.88 4.227 4.227 0 0 0 .242-1.551 3.378 3.378 0 0 0 -.495-2.013 2.213 2.213 0 0 0 -1.881-.671h-1.189z"/><path d="m579.005 415.751-2.529-17.82h2.724l1.473 11.55 1.848-11.506h2.223l1.892 11.506 1.451-11.55h2.684l-2.485 17.82h-2.641l-1.98-11.946-1.958 11.946z"/><path d="m604.239 415.993a5.626 5.626 0 0 1 -3.014-.7 3.886 3.886 0 0 1 -1.606-2.024 9.069 9.069 0 0 1 -.484-3.124v-6.666a8.792 8.792 0 0 1 .484-3.091 3.789 3.789 0 0 1 1.606-1.969 7.074 7.074 0 0 1 6.061 0 3.866 3.866 0 0 1 1.606 1.969 8.623 8.623 0 0 1 .495 3.091v6.688a8.734 8.734 0 0 1 -.495 3.091 4.024 4.024 0 0 1 -1.606 2.024 5.6 5.6 0 0 1 -3.047.711zm0-2.4a1.738 1.738 0 0 0 1.2-.352 1.78 1.78 0 0 0 .517-.968 6.4 6.4 0 0 0 .132-1.342v-8.206a6.207 6.207 0 0 0 -.132-1.342 1.706 1.706 0 0 0 -.517-.935 1.775 1.775 0 0 0 -1.2-.341 1.745 1.745 0 0 0 -1.166.341 1.671 1.671 0 0 0 -.528.935 6.207 6.207 0 0 0 -.132 1.342v8.206a6.939 6.939 0 0 0 .121 1.342 1.688 1.688 0 0 0 .517.968 1.745 1.745 0 0 0 1.188.359z"/><path d="m618.384 415.751v-17.82h4.268a9.421 9.421 0 0 1 3.048.429 3.5 3.5 0 0 1 1.891 1.463 5.264 5.264 0 0 1 .65 2.816 8.632 8.632 0 0 1 -.2 1.936 3.685 3.685 0 0 1 -.67 1.463 3.031 3.031 0 0 1 -1.31.935l2.486 8.778h-3.256l-2.155-8.162h-1.5v8.162zm3.257-10.208h1.011a3.452 3.452 0 0 0 1.508-.275 1.6 1.6 0 0 0 .8-.88 4.225 4.225 0 0 0 .243-1.551 3.371 3.371 0 0 0 -.5-2.013 2.212 2.212 0 0 0 -1.88-.671h-1.188z"/><path d="m637.326 415.751v-17.82h3.256v7.832l3.52-7.832h3.1l-3.41 7.964 3.762 9.856h-3.235l-2.992-8.118-.745 1.367v6.754z"/><path d="m655.719 415.751v-17.82h3.212v17.82z"/><path d="m668.28 415.751v-17.82h2.267l4.334 10.164v-10.164h2.683v17.82h-2.156l-4.355-10.651v10.648z"/><path d="m691.336 415.993a4.665 4.665 0 0 1 -2.793-.748 4.093 4.093 0 0 1 -1.486-2.123 10.434 10.434 0 0 1 -.451-3.245v-5.984a10.941 10.941 0 0 1 .441-3.3 3.843 3.843 0 0 1 1.551-2.123 5.5 5.5 0 0 1 3.068-.737 5.847 5.847 0 0 1 2.9.616 3.519 3.519 0 0 1 1.551 1.771 7.411 7.411 0 0 1 .473 2.8v.924h-3.1v-1.012a7.816 7.816 0 0 0 -.121-1.474 1.612 1.612 0 0 0 -.484-.935 1.761 1.761 0 0 0 -1.176-.319 1.621 1.621 0 0 0 -1.244.418 2.008 2.008 0 0 0 -.484 1.1 10.613 10.613 0 0 0 -.1 1.5v7.458a7.349 7.349 0 0 0 .153 1.606 1.89 1.89 0 0 0 .572 1.045 1.759 1.759 0 0 0 1.189.363 1.693 1.693 0 0 0 1.209-.4 2.152 2.152 0 0 0 .584-1.1 7.464 7.464 0 0 0 .164-1.672v-1.672h-1.914v-2.046h4.84v9.042h-2.09l-.242-1.76a3.4 3.4 0 0 1 -1.067 1.441 3.072 3.072 0 0 1 -1.943.566z"/></g></svg>