<svg height="18.26" viewBox="0 0 183.104 18.26" width="183.104" xmlns="http://www.w3.org/2000/svg"><g fill="#fff" transform="translate(-479.835 -395.008)"><path d="m482.673 413.026v-15.426h-2.838v-2.4h8.888v2.4h-2.794v15.422z"/><path d="m501.791 413.268a5.626 5.626 0 0 1 -3.014-.7 3.886 3.886 0 0 1 -1.606-2.024 9.069 9.069 0 0 1 -.484-3.124v-6.67a8.788 8.788 0 0 1 .484-3.091 3.785 3.785 0 0 1 1.606-1.969 7.074 7.074 0 0 1 6.061 0 3.862 3.862 0 0 1 1.606 1.969 8.618 8.618 0 0 1 .495 3.091v6.688a8.733 8.733 0 0 1 -.495 3.091 4.024 4.024 0 0 1 -1.606 2.024 5.6 5.6 0 0 1 -3.047.715zm0-2.4a1.74 1.74 0 0 0 1.2-.352 1.779 1.779 0 0 0 .517-.968 6.4 6.4 0 0 0 .132-1.342v-8.206a6.207 6.207 0 0 0 -.132-1.342 1.706 1.706 0 0 0 -.517-.935 1.777 1.777 0 0 0 -1.2-.341 1.743 1.743 0 0 0 -1.166.341 1.671 1.671 0 0 0 -.528.935 6.209 6.209 0 0 0 -.132 1.342v8.206a6.938 6.938 0 0 0 .121 1.342 1.683 1.683 0 0 0 .517.968 1.745 1.745 0 0 0 1.188.354z"/><path d="m515.936 413.026v-17.82h5.237a5.067 5.067 0 0 1 2.607.594 3.526 3.526 0 0 1 1.474 1.727 7.107 7.107 0 0 1 .473 2.739 5.749 5.749 0 0 1 -.594 2.805 3.546 3.546 0 0 1 -1.661 1.551 6.051 6.051 0 0 1 -2.519.484h-1.76v7.92zm3.257-10.208h1.232a3.063 3.063 0 0 0 1.375-.253 1.355 1.355 0 0 0 .682-.814 4.933 4.933 0 0 0 .187-1.507 7.074 7.074 0 0 0 -.143-1.573 1.356 1.356 0 0 0 -.616-.891 2.963 2.963 0 0 0 -1.485-.286h-1.232z"/><path d="m545.811 413.026.309-17.82h3.366l2.53 12.342 2.64-12.342h3.256l.33 17.82h-2.42l-.264-12.386-2.53 12.386h-1.958l-2.57-12.426-.242 12.43z"/><path d="m567.481 413.026v-17.82h7.48v2.288h-4.223v5.126h3.322v2.266h-3.322v5.9h4.268v2.244z"/><path d="m587.986 413.268a5.265 5.265 0 0 1 -2.684-.627 3.943 3.943 0 0 1 -1.628-1.837 7.88 7.88 0 0 1 -.616-2.97l2.794-.55a8.567 8.567 0 0 0 .253 1.826 2.631 2.631 0 0 0 .638 1.221 1.531 1.531 0 0 0 1.133.429 1.272 1.272 0 0 0 1.122-.473 2.046 2.046 0 0 0 .33-1.2 3.242 3.242 0 0 0 -.528-1.914 8.258 8.258 0 0 0 -1.408-1.5l-2.244-1.98a6.748 6.748 0 0 1 -1.507-1.815 5 5 0 0 1 -.561-2.475 4.225 4.225 0 0 1 1.231-3.256 4.759 4.759 0 0 1 3.367-1.144 4.992 4.992 0 0 1 2.09.385 3.326 3.326 0 0 1 1.331 1.067 4.832 4.832 0 0 1 .737 1.551 9.177 9.177 0 0 1 .308 1.837l-2.772.484a9.576 9.576 0 0 0 -.187-1.5 2.084 2.084 0 0 0 -.506-1.034 1.424 1.424 0 0 0 -1.067-.374 1.347 1.347 0 0 0 -1.111.473 1.8 1.8 0 0 0 -.385 1.177 2.7 2.7 0 0 0 .374 1.485 5.762 5.762 0 0 0 1.078 1.2l2.222 1.958a9.232 9.232 0 0 1 1.881 2.167 5.54 5.54 0 0 1 .781 3 4.514 4.514 0 0 1 -.561 2.266 4.022 4.022 0 0 1 -1.562 1.551 4.717 4.717 0 0 1 -2.343.572z"/><path d="m605.453 413.268a5.265 5.265 0 0 1 -2.684-.627 3.943 3.943 0 0 1 -1.628-1.837 7.879 7.879 0 0 1 -.616-2.97l2.794-.55a8.629 8.629 0 0 0 .253 1.826 2.639 2.639 0 0 0 .638 1.221 1.53 1.53 0 0 0 1.133.429 1.272 1.272 0 0 0 1.122-.473 2.047 2.047 0 0 0 .33-1.2 3.242 3.242 0 0 0 -.528-1.914 8.261 8.261 0 0 0 -1.408-1.5l-2.244-1.98a6.748 6.748 0 0 1 -1.507-1.815 5 5 0 0 1 -.561-2.475 4.222 4.222 0 0 1 1.232-3.256 4.755 4.755 0 0 1 3.366-1.144 4.992 4.992 0 0 1 2.09.385 3.325 3.325 0 0 1 1.331 1.067 4.811 4.811 0 0 1 .737 1.551 9.177 9.177 0 0 1 .308 1.837l-2.772.484a9.453 9.453 0 0 0 -.187-1.5 2.076 2.076 0 0 0 -.506-1.034 1.423 1.423 0 0 0 -1.067-.374 1.348 1.348 0 0 0 -1.111.473 1.8 1.8 0 0 0 -.385 1.177 2.7 2.7 0 0 0 .374 1.485 5.762 5.762 0 0 0 1.078 1.2l2.222 1.958a9.234 9.234 0 0 1 1.881 2.167 5.531 5.531 0 0 1 .781 3 4.514 4.514 0 0 1 -.561 2.266 4.022 4.022 0 0 1 -1.562 1.551 4.715 4.715 0 0 1 -2.343.572z"/><path d="m617.531 413.026 3.564-17.82h3.476l3.564 17.82h-3.014l-.7-4.114h-3.1l-.726 4.114zm4.114-6.182h2.42l-1.21-7.48z"/><path d="m640.983 413.268a4.67 4.67 0 0 1 -2.794-.748 4.106 4.106 0 0 1 -1.489-2.12 10.44 10.44 0 0 1 -.451-3.245v-5.984a10.943 10.943 0 0 1 .44-3.3 3.847 3.847 0 0 1 1.551-2.123 5.5 5.5 0 0 1 3.068-.737 5.853 5.853 0 0 1 2.9.616 3.529 3.529 0 0 1 1.551 1.771 7.412 7.412 0 0 1 .472 2.805v.924h-3.1v-1.012a7.817 7.817 0 0 0 -.121-1.474 1.616 1.616 0 0 0 -.485-.935 1.76 1.76 0 0 0 -1.176-.319 1.617 1.617 0 0 0 -1.243.418 2 2 0 0 0 -.484 1.1 10.443 10.443 0 0 0 -.1 1.5v7.458a7.344 7.344 0 0 0 .154 1.606 1.881 1.881 0 0 0 .572 1.045 1.754 1.754 0 0 0 1.188.363 1.69 1.69 0 0 0 1.209-.4 2.138 2.138 0 0 0 .584-1.1 7.4 7.4 0 0 0 .164-1.672v-1.675h-1.914v-2.046h4.84v9.042h-2.09l-.242-1.76a3.4 3.4 0 0 1 -1.066 1.441 3.073 3.073 0 0 1 -1.938.561z"/><path d="m655.414 413.026v-17.82h7.48v2.288h-4.223v5.126h3.321v2.266h-3.321v5.9h4.268v2.244z"/></g></svg>