<svg height="18.26" viewBox="0 0 159.828 18.26" width="159.828" xmlns="http://www.w3.org/2000/svg"><g fill="#fff" transform="translate(-483.835 -397.733)"><path d="m486.673 415.751v-15.422h-2.838v-2.4h8.888v2.4h-2.794v15.422z"/><path d="m500.951 415.751v-17.82h4.268a9.419 9.419 0 0 1 3.047.429 3.506 3.506 0 0 1 1.892 1.463 5.273 5.273 0 0 1 .649 2.816 8.637 8.637 0 0 1 -.2 1.936 3.687 3.687 0 0 1 -.671 1.463 3.028 3.028 0 0 1 -1.309.935l2.486 8.778h-3.256l-2.156-8.162h-1.5v8.162zm3.256-10.208h1.012a3.451 3.451 0 0 0 1.507-.275 1.609 1.609 0 0 0 .8-.88 4.227 4.227 0 0 0 .242-1.551 3.378 3.378 0 0 0 -.495-2.013 2.213 2.213 0 0 0 -1.881-.671h-1.188z"/><path d="m518.991 415.751 3.564-17.82h3.476l3.564 17.82h-3.014l-.7-4.114h-3.1l-.726 4.114zm4.114-6.182h2.42l-1.21-7.48z"/><path d="m537.976 415.751v-17.82h2.266l4.334 10.164v-10.164h2.684v17.82h-2.16l-4.352-10.651v10.648z"/><path d="m561.054 415.993a5.265 5.265 0 0 1 -2.684-.627 3.943 3.943 0 0 1 -1.628-1.837 7.88 7.88 0 0 1 -.616-2.97l2.794-.55a8.63 8.63 0 0 0 .253 1.826 2.641 2.641 0 0 0 .638 1.221 1.532 1.532 0 0 0 1.133.429 1.27 1.27 0 0 0 1.122-.473 2.047 2.047 0 0 0 .33-1.2 3.244 3.244 0 0 0 -.528-1.914 8.259 8.259 0 0 0 -1.408-1.5l-2.244-1.98a6.748 6.748 0 0 1 -1.507-1.815 5 5 0 0 1 -.561-2.475 4.226 4.226 0 0 1 1.232-3.256 4.755 4.755 0 0 1 3.366-1.144 4.992 4.992 0 0 1 2.09.385 3.319 3.319 0 0 1 1.331 1.067 4.812 4.812 0 0 1 .737 1.551 9.173 9.173 0 0 1 .308 1.837l-2.772.484a9.453 9.453 0 0 0 -.187-1.5 2.076 2.076 0 0 0 -.506-1.034 1.423 1.423 0 0 0 -1.067-.374 1.348 1.348 0 0 0 -1.111.473 1.8 1.8 0 0 0 -.385 1.177 2.708 2.708 0 0 0 .374 1.485 5.762 5.762 0 0 0 1.078 1.2l2.222 1.958a9.232 9.232 0 0 1 1.881 2.167 5.53 5.53 0 0 1 .781 3 4.514 4.514 0 0 1 -.561 2.266 4.021 4.021 0 0 1 -1.562 1.551 4.715 4.715 0 0 1 -2.343.572z"/><path d="m574.122 415.751v-17.82h3.212v17.82z"/><path d="m588.466 415.751v-15.422h-2.838v-2.4h8.888v2.4h-2.794v15.422z"/><path d="m602.832 415.751v-17.82h3.212v17.82z"/><path d="m620.233 415.993a5.628 5.628 0 0 1 -3.014-.7 3.887 3.887 0 0 1 -1.606-2.024 9.069 9.069 0 0 1 -.484-3.124v-6.666a8.792 8.792 0 0 1 .484-3.091 3.789 3.789 0 0 1 1.606-1.969 7.074 7.074 0 0 1 6.061 0 3.866 3.866 0 0 1 1.606 1.969 8.621 8.621 0 0 1 .495 3.091v6.688a8.732 8.732 0 0 1 -.495 3.091 4.023 4.023 0 0 1 -1.606 2.024 5.6 5.6 0 0 1 -3.047.711zm0-2.4a1.739 1.739 0 0 0 1.2-.352 1.779 1.779 0 0 0 .517-.968 6.4 6.4 0 0 0 .132-1.342v-8.206a6.207 6.207 0 0 0 -.132-1.342 1.706 1.706 0 0 0 -.517-.935 1.775 1.775 0 0 0 -1.2-.341 1.744 1.744 0 0 0 -1.166.341 1.671 1.671 0 0 0 -.528.935 6.207 6.207 0 0 0 -.132 1.342v8.206a6.938 6.938 0 0 0 .121 1.342 1.689 1.689 0 0 0 .517.968 1.745 1.745 0 0 0 1.188.359z"/><path d="m634.379 415.751v-17.82h2.266l4.334 10.164v-10.164h2.684v17.82h-2.155l-4.357-10.651v10.648z"/></g></svg>