<svg height="18.26" viewBox="0 0 253.195 18.26" width="253.195" xmlns="http://www.w3.org/2000/svg"><g fill="#fff" transform="translate(-442.231 -389.733)"><path d="m444.761 407.751-2.53-17.82h2.728l1.474 11.55 1.848-11.506h2.219l1.892 11.506 1.452-11.55h2.684l-2.486 17.82h-2.642l-1.98-11.946-1.958 11.946z"/><path d="m469.995 407.993a5.629 5.629 0 0 1 -3.015-.7 3.891 3.891 0 0 1 -1.606-2.024 9.1 9.1 0 0 1 -.483-3.124v-6.666a8.816 8.816 0 0 1 .483-3.091 3.793 3.793 0 0 1 1.606-1.969 7.074 7.074 0 0 1 6.061 0 3.861 3.861 0 0 1 1.606 1.969 8.621 8.621 0 0 1 .5 3.091v6.688a8.732 8.732 0 0 1 -.5 3.091 4.018 4.018 0 0 1 -1.606 2.024 5.594 5.594 0 0 1 -3.046.711zm0-2.4a1.737 1.737 0 0 0 1.2-.352 1.763 1.763 0 0 0 .517-.968 6.4 6.4 0 0 0 .132-1.342v-8.206a6.207 6.207 0 0 0 -.132-1.342 1.694 1.694 0 0 0 -.517-.935 1.774 1.774 0 0 0 -1.2-.341 1.741 1.741 0 0 0 -1.166.341 1.672 1.672 0 0 0 -.529.935 6.209 6.209 0 0 0 -.132 1.342v8.206a6.857 6.857 0 0 0 .122 1.342 1.674 1.674 0 0 0 .517.968 1.742 1.742 0 0 0 1.188.359z"/><path d="m484.14 407.751v-17.82h4.268a9.425 9.425 0 0 1 3.048.429 3.5 3.5 0 0 1 1.891 1.463 5.264 5.264 0 0 1 .65 2.816 8.634 8.634 0 0 1 -.2 1.936 3.687 3.687 0 0 1 -.671 1.463 3.028 3.028 0 0 1 -1.309.935l2.486 8.778h-3.256l-2.155-8.162h-1.5v8.162zm3.256-10.208h1.012a3.448 3.448 0 0 0 1.507-.275 1.6 1.6 0 0 0 .8-.88 4.227 4.227 0 0 0 .242-1.551 3.378 3.378 0 0 0 -.495-2.013 2.213 2.213 0 0 0 -1.881-.671h-1.181z"/><path d="m503.081 407.751v-17.82h3.257v7.832l3.52-7.832h3.1l-3.41 7.964 3.761 9.856h-3.233l-2.992-8.118-.746 1.367v6.754z"/><path d="m521.474 407.751v-17.82h3.212v17.82z"/><path d="m534.036 407.751v-17.82h2.264l4.334 10.164v-10.164h2.684v17.82h-2.156l-4.354-10.651v10.648z"/><path d="m557.092 407.993a4.671 4.671 0 0 1 -2.794-.748 4.1 4.1 0 0 1 -1.486-2.123 10.466 10.466 0 0 1 -.45-3.245v-5.984a10.943 10.943 0 0 1 .44-3.3 3.85 3.85 0 0 1 1.55-2.123 5.5 5.5 0 0 1 3.07-.737 5.849 5.849 0 0 1 2.9.616 3.522 3.522 0 0 1 1.55 1.771 7.39 7.39 0 0 1 .474 2.8v.924h-3.1v-1.012a7.728 7.728 0 0 0 -.122-1.474 1.611 1.611 0 0 0 -.483-.935 1.764 1.764 0 0 0 -1.177-.319 1.617 1.617 0 0 0 -1.243.418 2 2 0 0 0 -.484 1.1 10.444 10.444 0 0 0 -.1 1.5v7.458a7.41 7.41 0 0 0 .153 1.606 1.885 1.885 0 0 0 .573 1.045 1.754 1.754 0 0 0 1.188.363 1.7 1.7 0 0 0 1.21-.4 2.152 2.152 0 0 0 .583-1.1 7.459 7.459 0 0 0 .165-1.672v-1.672h-1.909v-2.046h4.839v9.042h-2.089l-.243-1.76a3.394 3.394 0 0 1 -1.066 1.441 3.075 3.075 0 0 1 -1.949.566z"/><path d="m582.567 407.751 3.564-17.82h3.476l3.564 17.82h-3.014l-.7-4.114h-3.1l-.726 4.114zm4.114-6.182h2.42l-1.21-7.48z"/><path d="m603.335 407.751v-15.422h-2.835v-2.4h8.888v2.4h-2.794v15.422z"/><path d="m629.6 407.751v-17.82h3.234v7.458h3.63v-7.458h3.256v17.82h-3.256v-8.051h-3.63v8.052z"/><path d="m648.148 407.751 3.565-17.82h3.476l3.564 17.82h-3.015l-.7-4.114h-3.1l-.727 4.114zm4.116-6.182h2.42l-1.211-7.48z"/><path d="m667.135 407.751v-17.82h2.265l4.334 10.164v-10.164h2.684v17.82h-2.155l-4.357-10.651v10.648z"/><path d="m684.822 407.751 3.565-17.82h3.475l3.564 17.82h-3.014l-.7-4.114h-3.1l-.725 4.114zm4.114-6.182h2.42l-1.21-7.48z"/></g></svg>