<svg xmlns="http://www.w3.org/2000/svg" viewBox="0 0 1000.96 412.29" style="" class=""><defs><style>.cls-1,.cls-4,.cls-5{fill:none;stroke-miterlimit:10;}.cls-1,.cls-5{stroke:#2e3d83;}.cls-2,.cls-6,.cls-7,.cls-8{fill:#2e3d83;}.cls-3{fill:#ff688b;}.cls-4{stroke:#ff688b;}.cls-5{stroke-width:2px;}.cls-6{font-size:18px;letter-spacing:0.2em;}.cls-7{font-size:14px;letter-spacing:0.1em;}.cls-7,.cls-8{font-family:NotoSansCJKjp-Bold-83pv-RKSJ-H, Noto Sans CJK JP;}.cls-8{font-size:21px;letter-spacing:0.1em;}</style></defs><g id="レイヤー_2" data-name="レイヤー 2"><g id="デザイン"><path class="cls-1 yDigNpGZ_0" d="M.22,295l85.5-41.5L362.22,200l276-49,277-104c.5.5,85.5-45.5,85.5-45.5"></path><path class="cls-2 yDigNpGZ_1" d="M75.22,252.98A10,10 0,1,1 95.22,252.98A10,10 0,1,1 75.22,252.98"></path><path class="cls-2 yDigNpGZ_2" d="M351.88,199.98A10,10 0,1,1 371.88,199.98A10,10 0,1,1 351.88,199.98"></path><path class="cls-2 yDigNpGZ_3" d="M628.55,150.98A10,10 0,1,1 648.55,150.98A10,10 0,1,1 628.55,150.98"></path><path class="cls-3 yDigNpGZ_4" d="M905.22,46.98A10,10 0,1,1 925.22,46.98A10,10 0,1,1 905.22,46.98"></path><path class="cls-4 yDigNpGZ_5" d="M903.22,46.98A12,12 0,1,1 927.22,46.98A12,12 0,1,1 903.22,46.98"></path><path class="cls-5 yDigNpGZ_6" d="M0.22,370.48L1000.22,370.48"></path><text class="cls-6" transform="translate(50.8 406.48)">2017/1</text><text class="cls-6" transform="translate(326.6 406.48)">2018/1</text><text class="cls-6" transform="translate(603.16 406.48)">2019/1</text><text class="cls-6" transform="translate(878.78 406.48)">2020/1</text><text class="cls-7" transform="translate(54.01 222.48)">000,000</text><text class="cls-7" transform="translate(331.01 168.48)">000,000</text><text class="cls-7" transform="translate(606.01 123.48)">000,000</text><text class="cls-8" transform="translate(866.4 18.48)">000,000</text></g></g><style data-made-with="vivus-instant">.yDigNpGZ_0{stroke-dasharray:1050 1052;stroke-dashoffset:1051;}.bar_graph .yDigNpGZ_0{animation:yDigNpGZ_draw_0 7300ms ease 0ms infinite,yDigNpGZ_fade 7300ms linear 0ms infinite;}.yDigNpGZ_1{stroke-dasharray:63 65;stroke-dashoffset:64;}.bar_graph .yDigNpGZ_1{animation:yDigNpGZ_draw_1 7300ms ease 0ms infinite,yDigNpGZ_fade 7300ms linear 0ms infinite;}.yDigNpGZ_2{stroke-dasharray:63 65;stroke-dashoffset:64;}.bar_graph .yDigNpGZ_2{animation:yDigNpGZ_draw_2 7300ms ease 0ms infinite,yDigNpGZ_fade 7300ms linear 0ms infinite;}.yDigNpGZ_3{stroke-dasharray:63 65;stroke-dashoffset:64;}.bar_graph .yDigNpGZ_3{animation:yDigNpGZ_draw_3 7300ms ease 0ms infinite,yDigNpGZ_fade 7300ms linear 0ms infinite;}.yDigNpGZ_4{stroke-dasharray:63 65;stroke-dashoffset:64;}.bar_graph .yDigNpGZ_4{animation:yDigNpGZ_draw_4 7300ms ease 0ms infinite,yDigNpGZ_fade 7300ms linear 0ms infinite;}.yDigNpGZ_5{stroke-dasharray:76 78;stroke-dashoffset:77;}.bar_graph .yDigNpGZ_5{animation:yDigNpGZ_draw_5 7300ms ease 0ms infinite,yDigNpGZ_fade 7300ms linear 0ms infinite;}.yDigNpGZ_6{stroke-dasharray:1000 1002;stroke-dashoffset:1001;}.bar_graph .yDigNpGZ_6{animation:yDigNpGZ_draw_6 7300ms ease 0ms infinite,yDigNpGZ_fade 7300ms linear 0ms infinite;}@keyframes yDigNpGZ_draw{100%{stroke-dashoffset:0;}}@keyframes yDigNpGZ_fade{0%{stroke-opacity:1;}93.15068493150685%{stroke-opacity:1;}100%{stroke-opacity:0;}}@keyframes yDigNpGZ_draw_0{10.95890410958904%{stroke-dashoffset: 1051}52.054794520547944%{ stroke-dashoffset: 0;}100%{ stroke-dashoffset: 0;}}@keyframes yDigNpGZ_draw_1{10.95890410958904%{stroke-dashoffset: 64}52.054794520547944%{ stroke-dashoffset: 0;}100%{ stroke-dashoffset: 0;}}@keyframes yDigNpGZ_draw_2{10.95890410958904%{stroke-dashoffset: 64}52.054794520547944%{ stroke-dashoffset: 0;}100%{ stroke-dashoffset: 0;}}@keyframes yDigNpGZ_draw_3{10.95890410958904%{stroke-dashoffset: 64}52.054794520547944%{ stroke-dashoffset: 0;}100%{ stroke-dashoffset: 0;}}@keyframes yDigNpGZ_draw_4{10.95890410958904%{stroke-dashoffset: 64}52.054794520547944%{ stroke-dashoffset: 0;}100%{ stroke-dashoffset: 0;}}@keyframes yDigNpGZ_draw_5{10.95890410958904%{stroke-dashoffset: 77}52.054794520547944%{ stroke-dashoffset: 0;}100%{ stroke-dashoffset: 0;}}@keyframes yDigNpGZ_draw_6{10.95890410958904%{stroke-dashoffset: 1001}52.054794520547944%{ stroke-dashoffset: 0;}100%{ stroke-dashoffset: 0;}}</style></svg>