<svg xmlns="http://www.w3.org/2000/svg" viewBox="0 0 857.77 74.32"><defs><style>.cls-1{fill:none;stroke:#4fc2f1;stroke-miterlimit:10;}</style></defs><g id="レイヤー_2" data-name="レイヤー 2"><g id="内容"><path class="cls-1" d="M.54,59.13l14.94,0,.13-44L3,15.17l0-8.55C10,5.32,14.81,3.55,19.23.84l10.24,0-.18,58.36,13.06,0,0,11.18L.5,70.32Z"/><path class="cls-1" d="M66.3,1l19.08.06c21.23.07,34.35,11.1,34.28,34.59s-13.26,35-33.75,35l-19.82-.07Zm18,58.41c13,0,21.07-6.89,21.12-23.8s-8-23.42-21-23.47H80.17L80,59.38Z"/><path class="cls-1" d="M175.23,53l-22.55-.07-4.94,17.84-14.1,0L156.13,1.27l16.35.05,22.14,69.61-14.56-.05Zm-3-10.81-2-7.62c-2.13-7.24-4-15.24-6-22.76h-.38c-1.81,7.6-3.9,15.49-6,22.72l-2.09,7.6Z"/><path class="cls-1" d="M224,45.55,203.3,1.42l14.75.05L225,18.4c2,5.18,3.82,10.07,6,15.43h.38c2.18-5.35,4.26-10.23,6.25-15.39l7-16.89,14.47,0-21.1,44-.08,25.46-13.9,0Z"/><path class="cls-1" d="M302.33,62.43l8-9.56c5,4.62,11.54,7.74,17.64,7.76,7.24,0,11.1-3.06,11.12-8,0-5.17-4.21-6.78-10.4-9.43l-9.29-4c-7-2.94-14.07-8.6-14-18.75,0-11.37,10-20.07,24.12-20a30.88,30.88,0,0,1,21.77,9l-7.07,8.71c-4.41-3.68-9-5.76-14.74-5.78-6.11,0-10.06,2.7-10.07,7.3,0,5,4.95,6.78,10.87,9.15l9.1,3.88c8.44,3.5,14,8.88,13.94,18.93,0,11.37-9.56,21-25.62,21A37,37,0,0,1,302.33,62.43Z"/><path class="cls-1" d="M371.56,37C371.63,14.07,386.43.68,404,.73a28.34,28.34,0,0,1,20.36,9L417,18.53c-3.46-3.39-7.5-5.84-12.76-5.86-10.52,0-18.44,9-18.49,23.9-.05,15.13,7.07,24.27,18.06,24.3,5.92,0,10.63-2.78,14.4-6.81l7.3,8.66A28.12,28.12,0,0,1,403.3,72.9C385.73,72.84,371.49,60.21,371.56,37Z"/><path class="cls-1" d="M446.28,2.18l13.9,0-.08,27.34,26.31.08.08-27.34,13.82,0-.22,69.54-13.81,0,.09-30.07-26.31-.08L460,71.76l-13.9,0Z"/><path class="cls-1" d="M526.8,2.44l42.66.13,0,11.56L540.67,14l0,16.06,24.43.08,0,11.65-24.43-.07-.06,18.6,29.79.09,0,11.66L526.58,72Z"/><path class="cls-1" d="M594,2.65l19.08.06c21.23.06,34.35,11.1,34.28,34.59s-13.27,35-33.75,34.94l-19.83-.06Zm18,58.41c13,0,21.07-6.89,21.12-23.81s-8-23.42-21-23.46h-4.33L607.7,61Z"/><path class="cls-1" d="M670,41.13l.12-38.24,13.9,0-.12,39.46c0,14.47,4.92,19.38,13.1,19.4S710.51,57,710.56,42.48L710.68,3l13.34,0L723.9,41.3c-.07,23.11-10,32.57-27,32.52S669.9,64.24,670,41.13Z"/><path class="cls-1" d="M750.14,3.14l13.91,0-.18,57.88,28.19.09,0,11.65-42.1-.13Z"/><path class="cls-1" d="M813.75,3.34l42.66.13,0,11.56-28.76-.09,0,16.07,24.43.07,0,11.65-24.43-.07-.06,18.6,29.78.1,0,11.65-43.7-.14Z"/></g></g></svg>