<svg xmlns="http://www.w3.org/2000/svg" viewBox="0 0 580.64 70.82"><defs><style>.cls-1{fill:none;stroke:#4fc2f1;stroke-miterlimit:10;}</style></defs><g id="レイヤー_2" data-name="レイヤー 2"><g id="内容"><path class="cls-1" d="M.5.78H14.41l0,69.53H.53Z"/><path class="cls-1" d="M40.9.76H55.09l20.22,37,7,15h.47C82,45.56,81,36.36,80.94,28.46V.74H94.09l0,69.53H80L59.9,33.08,52.84,18.14h-.47c.66,7.52,1.7,16.26,1.71,24.24V70.29H40.94Z"/><path class="cls-1" d="M134.49,12.28H115V.73l53.18,0V12.26H148.4l0,58H134.52Z"/><path class="cls-1" d="M188.79.69l42.66,0V12.23H202.71V28.31h24.43V40H202.72V58.57l29.78,0V70.2l-43.69,0Z"/><path class="cls-1" d="M293.88,70.17l-14.3-26.3H269.9v26.3H256L256,.66h24.25c14.56,0,26.12,5.06,26.13,21,0,10.43-5.26,16.92-13.24,20l16.27,28.47Zm-24-37.29h9c8.92,0,13.81-3.77,13.8-11.19s-4.89-10-13.81-10h-9Z"/><path class="cls-1" d="M320.43.63H335l9.23,33.82c2.16,7.71,3.58,14.66,5.83,22.46h.47c2.16-7.8,3.76-14.76,5.91-22.46l9-33.84h14.09L358.24,70.14H341.7Z"/><path class="cls-1" d="M396.91.59h13.91l0,69.54H397Z"/><path class="cls-1" d="M437.31.57,480,.55V12.11H451.22V28.19h24.43V39.83H451.24v18.6H481V70.08l-43.69,0Z"/><path class="cls-1" d="M497.64.54h14.18l5.56,33.92c1,7.33,2.17,14.75,3.21,22.17H521c1.4-7.42,2.9-14.94,4.4-22.17L533.43.52h11.84l8.1,33.91c1.51,7.14,2.92,14.66,4.43,22.18h.47c1-7.52,2.06-14.94,3.09-22.18L566.79.51H580L567.2,70H549.91L542.1,35.66c-1.13-5.45-2.17-10.8-3-16.07h-.37c-.94,5.27-1.88,10.62-3,16.07l-7.6,34.4h-17Z"/></g></g></svg>