<svg viewBox="0 0 85.49 107.42" xmlns="http://www.w3.org/2000/svg" xmlns:xlink="http://www.w3.org/1999/xlink"><linearGradient id="a" gradientUnits="objectBoundingBox" x1="0%" x2="100%" y1="100%" y2="0%"><stop offset="0" stop-color="#0d66b9"/><stop offset="1" stop-color="#258fb7"/></linearGradient><path d="m17.65 9.73h46.98v46.98h-46.98z" fill="url(#a)" transform="matrix(.70710678 .70710678 -.70710678 .70710678 35.54 -19.36)"/><g fill="none" stroke="#001c2b" stroke-miterlimit="10" stroke-width="3"><path d="m13.33 68.88-11.54-11.53a1 1 0 0 1 0-1.42l29-29a1 1 0 0 1 1.42 0l8.9 8.9"/><path d="m44.86 48.23 31.3 31.31a1 1 0 0 1 0 1.41l-24.67 24.68a1 1 0 0 1 -1.42 0l-8.41-8.42"/><path d="m50.87 42.22-18.87 18.86a1 1 0 0 1 -1.41 0l-6.67-6.66a1 1 0 0 1 0-1.41l30.49-30.48a1 1 0 0 1 1.42 0l27.87 27.88a1 1 0 0 1 0 1.41l-17.62 17.63"/><path d="m50.89 92.86 6.69 6.68"/><path d="m57.58 86.4 6.56 6.57"/><path d="m64.14 79.95 6.51 6.51"/><path d="m7.54 76.26 26.83 26.82a1 1 0 0 0 1.41 0l8.53-8.52a1 1 0 0 0 0-1.41l-27-27a1 1 0 0 0 -1.42 0l-8.4 8.66a1 1 0 0 0 .05 1.45z"/><path d="m13.41 82.13 9.94-9.94"/><path d="m20.87 89.59 9.94-9.94"/><path d="m27.74 96.46 9.94-9.94"/></g></svg>