<svg viewBox="0 0 82.46 96.44" xmlns="http://www.w3.org/2000/svg" xmlns:xlink="http://www.w3.org/1999/xlink"><linearGradient id="a" gradientUnits="userSpaceOnUse"><stop offset="0" stop-color="#0d66b9"/><stop offset="1" stop-color="#258fb7"/></linearGradient><g fill="url(#a)"><path d="m36.85 24.96h-36.85v29.32l7.73-7.74h29.12z"/><rect height="21.18" rx="1" width="12.82" x="5.16" y="75.26"/><rect height="37.18" rx="1" width="12.82" x="33.59" y="59.26"/><rect height="47.18" rx="1" width="12.82" x="62.03" y="49.26"/></g><g fill="none" stroke="#001c2b" stroke-miterlimit="10"><path d="m70.96 11.5h-36.85" stroke-width="2"/><path d="m60.96 21.13h-26.85" stroke-width="2"/><path d="m81 2.5v33.91a1 1 0 0 1 -1.71.7l-5.73-5.73a1 1 0 0 0 -.71-.29h-47.74a1 1 0 0 1 -1-1v-27.59a1 1 0 0 1 1-1h54.89a1 1 0 0 1 1 1z" stroke-width="3"/><path d="m11.57 80.26 13.26-1.48a1 1 0 0 0 .55-.25l14.25-12.68a1 1 0 0 1 .86-.24l13.51 2.56a1 1 0 0 0 .87-.25l13.56-12.66" stroke-width="2"/></g></svg>