<svg viewBox="0 0 84.2 106.46" xmlns="http://www.w3.org/2000/svg" xmlns:xlink="http://www.w3.org/1999/xlink"><linearGradient id="a" gradientUnits="objectBoundingBox"><stop offset="0" stop-color="#0d66b9"/><stop offset="1" stop-color="#258fb7"/></linearGradient><path d="m0 0h35.05l-20.09 104.96h-14.88z" fill="url(#a)"/><g fill="none" stroke="#001c2b" stroke-miterlimit="10"><path d="m69.72 67v-51.56a1 1 0 0 0 -1-1h-13.19l-4-5h-26l-4 5h-13.53a1 1 0 0 0 -1 1v81a1 1 0 0 0 1 1h60.72a1 1 0 0 0 1-1v-12a1 1 0 0 0 -.29-.71l-18.73-18.73a1 1 0 0 1 0-1.41l7.1-7.1a1 1 0 0 1 1.41 0l17 17" stroke-width="3"/><path d="m74.88 105h6.82a1 1 0 0 0 1-1v-44.44a.94.94 0 0 0 -.18-.57l-12.8-18.45" stroke-width="3"/><g stroke-width="2"><circle cx="39.13" cy="34.01" r="6.07"/><path d="m30.43 48.78a8.7 8.7 0 1 1 17.39 0"/><path d="m18.95 61.81h21.75"/><path d="m18.95 71.81h25.52"/><path d="m18.95 81.81h30.52"/></g></g></svg>