<svg viewBox="0 0 150 71.35" xmlns="http://www.w3.org/2000/svg"><g fill="#fff"><path d="m150 3.42v-3.42h-6.81l-6.6 20.47-7.06-20.47h-6.81v40.9h6.81v-21.61l3.43 8h6.81l3.42-8v21.61h6.81zm-122.72 23.86v-27.28h-6.81v27.28a6.81 6.81 0 1 1 -13.62 0v-27.28h-6.85v27.28a13.64 13.64 0 0 0 27.28 0zm40.89 0v-27.28h-6.81v27.28a6.81 6.81 0 0 1 -13.62 0v-27.28h-6.81v27.28a13.62 13.62 0 0 0 27.24 0zm40.93 0v-27.28h-6.84v27.28a6.81 6.81 0 0 1 -13.62 0v-27.28h-6.81v27.28a13.64 13.64 0 0 0 27.27 0z"/><path d="m30.23 71-2.32-6.11h-1.42v6.11h-2.49v-14.35h4.27a6.15 6.15 0 0 1 1.71.23 3.55 3.55 0 0 1 1.35.74 3.46 3.46 0 0 1 .87 1.28 4.81 4.81 0 0 1 .32 1.84 4.45 4.45 0 0 1 -.22 1.47 4.22 4.22 0 0 1 -.56 1.08 3.17 3.17 0 0 1 -.74.71 2.58 2.58 0 0 1 -.82.37l2.72 6.63zm-.17-10.12a2.56 2.56 0 0 0 -.19-1.07 1.65 1.65 0 0 0 -.49-.67 2 2 0 0 0 -.69-.35 3.3 3.3 0 0 0 -.76-.1h-1.44v4.42h1.44a2 2 0 0 0 2.13-2.23z"/><path d="m40.81 71v-14.35h6.7v2.14h-4.27v3.81h4v2h-4v4.23h4.49v2.17z"/><path d="m63.13 70.82a4.59 4.59 0 0 1 -2.31.53 4.67 4.67 0 0 1 -2.3-.57 5.07 5.07 0 0 1 -1.73-1.57 7.8 7.8 0 0 1 -1.1-2.38 11 11 0 0 1 -.39-3 11.12 11.12 0 0 1 .39-3 7.54 7.54 0 0 1 1.11-2.43 5.17 5.17 0 0 1 1.74-1.56 4.75 4.75 0 0 1 2.28-.56 5.33 5.33 0 0 1 2.26.46 4 4 0 0 1 1.59 1.26l-1.46 1.71a2.66 2.66 0 0 0 -2.21-1.16 2.2 2.2 0 0 0 -1.34.42 3.29 3.29 0 0 0 -1 1.12 6.18 6.18 0 0 0 -.57 1.67 10.38 10.38 0 0 0 -.19 2.06 10.21 10.21 0 0 0 .19 2 6.18 6.18 0 0 0 .57 1.67 3.35 3.35 0 0 0 1 1.13 2.36 2.36 0 0 0 1.37.41 2.26 2.26 0 0 0 1.28-.36 3.46 3.46 0 0 0 .9-.89l1.46 1.64a4.66 4.66 0 0 1 -1.54 1.4z"/><path d="m79 71-2.33-6.11h-1.43v6.11h-2.45v-14.35h4.27a6.27 6.27 0 0 1 1.72.23 3.44 3.44 0 0 1 1.34.74 3.6 3.6 0 0 1 .88 1.28 4.82 4.82 0 0 1 .31 1.84 4.45 4.45 0 0 1 -.22 1.47 3.92 3.92 0 0 1 -.56 1.08 2.83 2.83 0 0 1 -.75.72 2.53 2.53 0 0 1 -.81.37l2.68 6.62zm-.17-10.12a2.56 2.56 0 0 0 -.19-1.07 1.76 1.76 0 0 0 -.5-.67 1.88 1.88 0 0 0 -.69-.35 3.23 3.23 0 0 0 -.76-.1h-1.45v4.42h1.44a2.21 2.21 0 0 0 1.54-.56 2.17 2.17 0 0 0 .6-1.69z"/><path d="m98.49 68a4.72 4.72 0 0 1 -.83 1.73 3.94 3.94 0 0 1 -1.47 1.16 5 5 0 0 1 -2.19.43 4.88 4.88 0 0 1 -2.17-.43 3.79 3.79 0 0 1 -1.45-1.16 4.53 4.53 0 0 1 -.81-1.73 9 9 0 0 1 -.24-2.13v-9.22h2.54v9a9 9 0 0 0 .13 1.35 3.7 3.7 0 0 0 .34 1.08 1.92 1.92 0 0 0 .67.74 2 2 0 0 0 1.08.27 2 2 0 0 0 1.08-.27 1.89 1.89 0 0 0 .66-.74 3.42 3.42 0 0 0 .3-1.08 9 9 0 0 0 .1-1.29v-9h2.51v9.19a8.52 8.52 0 0 1 -.25 2.1z"/><path d="m107.48 71v-14.35h2.52v14.35z"/><path d="m123.15 58.71v12.29h-2.49v-12.29h-2.82v-2.06h8.16v2.06z"/></g></svg>