<svg viewBox="0 0 150 71.35" xmlns="http://www.w3.org/2000/svg"><g fill="#fff"><path d="m150 3.42v-3.42h-6.81l-6.6 20.47-7.06-20.47h-6.81v40.9h6.81v-21.61l3.43 8h6.81l3.42-8v21.61h6.81zm-122.72 23.86v-27.28h-6.81v27.28a6.81 6.81 0 1 1 -13.62 0v-27.28h-6.85v27.28a13.64 13.64 0 0 0 27.28 0zm40.89 0v-27.28h-6.81v27.28a6.81 6.81 0 0 1 -13.62 0v-27.28h-6.81v27.28a13.62 13.62 0 0 0 27.24 0zm40.93 0v-27.28h-6.84v27.28a6.81 6.81 0 0 1 -13.62 0v-27.28h-6.81v27.28a13.64 13.64 0 0 0 27.27 0z"/><g><path d="m8.2 71-2.33-6.13h-1.42v6.13h-2.45v-14.35h4.27a6.27 6.27 0 0 1 1.73.23 3.44 3.44 0 0 1 1.34.74 3.48 3.48 0 0 1 .88 1.28 4.82 4.82 0 0 1 .31 1.84 4.45 4.45 0 0 1 -.22 1.47 3.92 3.92 0 0 1 -.56 1.08 2.83 2.83 0 0 1 -.75.71 2.53 2.53 0 0 1 -.81.37l2.67 6.63zm-.2-10.14a2.56 2.56 0 0 0 -.19-1.07 1.66 1.66 0 0 0 -.5-.67 1.88 1.88 0 0 0 -.69-.35 3.23 3.23 0 0 0 -.76-.1h-1.41v4.42h1.44a2.21 2.21 0 0 0 1.54-.56 2.17 2.17 0 0 0 .57-1.67z"/><path d="m18.77 71v-14.35h6.71v2.14h-4.27v3.81h3.95v2h-3.95v4.23h4.48v2.17z"/><path d="m41.1 70.82a5.1 5.1 0 0 1 -4.61 0 5.1 5.1 0 0 1 -1.74-1.57 7.8 7.8 0 0 1 -1.1-2.38 11 11 0 0 1 -.39-3 11.12 11.12 0 0 1 .39-3 7.54 7.54 0 0 1 1.11-2.39 5.1 5.1 0 0 1 1.75-1.56 4.68 4.68 0 0 1 2.27-.56 5.38 5.38 0 0 1 2.27.46 4.09 4.09 0 0 1 1.58 1.18l-1.46 1.71a2.65 2.65 0 0 0 -2.24-1.2 2.17 2.17 0 0 0 -1.33.49 3.19 3.19 0 0 0 -1 1.12 5.56 5.56 0 0 0 -.57 1.67 10.36 10.36 0 0 0 -.2 2.06 10.2 10.2 0 0 0 .2 2 5.56 5.56 0 0 0 .57 1.67 3.14 3.14 0 0 0 1 1.13 2.33 2.33 0 0 0 1.36.41 2.24 2.24 0 0 0 1.28-.36 3.46 3.46 0 0 0 .9-.89l1.46 1.64a4.62 4.62 0 0 1 -1.5 1.37z"/><path d="m57 71-2.32-6.11h-1.47v6.11h-2.46v-14.35h4.25a6.15 6.15 0 0 1 1.71.23 3.44 3.44 0 0 1 1.34.74 3.37 3.37 0 0 1 .95 1.28 4.81 4.81 0 0 1 .32 1.84 4.45 4.45 0 0 1 -.22 1.47 4.22 4.22 0 0 1 -.56 1.08 3.17 3.17 0 0 1 -.75.72 2.58 2.58 0 0 1 -.82.37l2.65 6.62zm-.17-10.12a2.56 2.56 0 0 0 -.19-1.07 1.65 1.65 0 0 0 -.49-.67 2 2 0 0 0 -.69-.35 3.38 3.38 0 0 0 -.76-.1h-1.49v4.42h1.44a2 2 0 0 0 2.13-2.23z"/><path d="m76.45 68a4.7 4.7 0 0 1 -.82 1.73 3.94 3.94 0 0 1 -1.47 1.16 5 5 0 0 1 -2.19.43 4.93 4.93 0 0 1 -2.18-.43 3.87 3.87 0 0 1 -1.45-1.16 4.67 4.67 0 0 1 -.8-1.73 9 9 0 0 1 -.25-2.13v-9.22h2.54v9a7.75 7.75 0 0 0 .1 1.29 3.19 3.19 0 0 0 .34 1.08 1.89 1.89 0 0 0 .66.74 2.3 2.3 0 0 0 2.16 0 2 2 0 0 0 .67-.74 3.42 3.42 0 0 0 .33-1.02 7.75 7.75 0 0 0 .1-1.29v-9h2.52v9.19a8.51 8.51 0 0 1 -.26 2.1z"/><path d="m85.44 71v-14.35h2.56v14.35z"/><path d="m101.12 58.71v12.29h-2.5v-12.29h-2.81v-2.06h8.12v2.06z"/></g></g></svg>