<svg xmlns="http://www.w3.org/2000/svg" viewBox="0 0 404.01 34.35"><defs><style>.cls-1{fill:#001c2b;}</style></defs><title>アセット 1</title><g id="レイヤー_2" data-name="レイヤー 2"><g id="レイヤー_1-2" data-name="レイヤー 1"><path class="cls-1" d="M22.14,22.63c0,5.86-4.68,9.4-11.41,9.4S.11,28.45.11,22.71V12.25C.11,10,0,5.86,0,5.59c0-.8.23-1,1.1-1H3.54c.87,0,1.1.15,1.1,1,0,.27-.11,4.45-.11,6.66V22c0,3.69,2.39,5.93,6.39,5.93s6.81-2.2,6.81-6V12.25c0-2.21-.12-6.39-.12-6.66,0-.8.23-1,1.11-1h2.43c.88,0,1.1.15,1.1,1,0,.27-.11,4.45-.11,6.66Z"/><path class="cls-1" d="M58.09,22.63c0,5.86-4.68,9.4-11.42,9.4s-10.61-3.58-10.61-9.32V12.25C36.06,10,36,5.86,36,5.59c0-.8.22-1,1.1-1h2.43c.88,0,1.11.15,1.11,1,0,.27-.12,4.45-.12,6.66V22c0,3.69,2.4,5.93,6.39,5.93s6.81-2.2,6.81-6V12.25c0-2.21-.11-6.39-.11-6.66,0-.8.23-1,1.1-1H57.1c.87,0,1.1.15,1.1,1,0,.27-.11,4.45-.11,6.66Z"/><path class="cls-1" d="M94,22.63c0,5.86-4.68,9.4-11.41,9.4S72,28.45,72,22.71V12.25c0-2.21-.12-6.39-.12-6.66,0-.8.23-1,1.11-1h2.43c.88,0,1.1.15,1.1,1,0,.27-.11,4.45-.11,6.66V22c0,3.69,2.4,5.93,6.39,5.93s6.81-2.2,6.81-6V12.25c0-2.21-.12-6.39-.12-6.66,0-.8.23-1,1.11-1H93c.88,0,1.11.15,1.11,1,0,.27-.12,4.45-.12,6.66Z"/><path class="cls-1" d="M112.4,23.62c0,1.34,0,5.94,0,6.81s-.19,1.14-1.14,1.14H109c-.84,0-1.1-.19-1.1-.76s.22-4.68.26-7.42L108.33,12c0-1.9,0-5.48,0-6.24,0-1,.15-1.14,1.1-1.14h1.26a1.83,1.83,0,0,1,1.83.91c1.06,1.45,2.16,2.86,3.27,4.23L121,16.32c.3.38.49.57.72.57s.42-.19.73-.57l5-6.43c1.11-1.37,2.25-2.85,3.35-4.34a1.83,1.83,0,0,1,1.83-.91h1.25c.95,0,1.14.19,1.14,1.14,0,.57,0,3.54,0,6.24l.2,11.37c0,2,.22,6.47.22,7,0,1-.11,1.14-1.06,1.14h-2.32c-1,0-1.14-.19-1.14-1.14,0-1.1.07-4.71,0-6.77l-.19-9.78c0-.38-.12-.6-.27-.6s-.3.11-.49.34L122.41,23a1,1,0,0,1-.8.46,1,1,0,0,1-.76-.46l-7.53-9.39c-.19-.23-.35-.34-.5-.34s-.26.22-.26.6Z"/><path class="cls-1" d="M177.33,8.29a12.88,12.88,0,0,1,3.85,9.36,13.68,13.68,0,0,1-7.42,12.29,15,15,0,0,1-4.15,1.52c-1,0-2.55-2.36-2.55-3.2,0-.38.57-.45,1-.53,5-1.18,8.9-4.45,8.9-9.89a9.22,9.22,0,0,0-6.09-9.09,6.78,6.78,0,0,0-1.45-.34c-.87,0-.87.83-.91,1.48-.42,5.55-1.75,12.33-5.4,16.7-1.26,1.52-2.93,2.93-5,2.93a6.11,6.11,0,0,1-5.17-3.61,11.91,11.91,0,0,1-1.18-5.41,15.67,15.67,0,0,1,15.78-16A13.52,13.52,0,0,1,177.33,8.29ZM162.54,9.4a11.76,11.76,0,0,0-6.85,11c0,1.41.49,4.95,2.43,4.95s4-4.34,5.1-8.22a38.29,38.29,0,0,0,1.22-7.42.6.6,0,0,0-.61-.68A4.06,4.06,0,0,0,162.54,9.4Z"/><path class="cls-1" d="M197.27,16.47c0-.19-.08-.42-.31-.42a.34.34,0,0,0-.3.19l-.42.54c-.57.72-1.29,1.63-1.83,1.63-.72,0-2.09-2.17-2.09-2.81a2,2,0,0,1,.61-1.14c3.23-4,6.31-8.14,8.1-13.55.12-.38.23-.76.72-.76a14.05,14.05,0,0,1,2.52.84c.49.19,1.52.49,1.52,1,0,.27-.31.45-.54.53-.6.23-.6.23-.95,1a53.69,53.69,0,0,1-3.42,6.5.43.43,0,0,0,0,.2c0,.22.15.3.34.34s.76.07.76.45-.19.38-.41.54c-.42.3-.46,1-.46,2.24V27.88c0,1.72.11,3.47.11,5.18,0,1.1-.41,1.1-2,1.1s-2,0-2-1.1c0-1.71.08-3.46.08-5.18Zm10.5-1.33c-1.45,0-2.9.11-4.34.11-1,0-.91-.45-.91-1.94s0-1.94.91-1.94c1.44,0,2.89.08,4.34.08h3.3c.77,0,1.07-.3,1.07-1V4.18c0-1.1,0-2.24-.08-3a1.51,1.51,0,0,1,0-.34c0-.46.22-.58.64-.58s3.27.23,3.88.31c.31,0,.69.11.69.49s-.31.46-.61.69c-.5.3-.53.68-.53,2.24v6.39c0,.73.3,1,1.06,1h4.22c1.45,0,2.89-.08,4.34-.08.95,0,.91.5.91,1.94s0,1.94-.91,1.94c-1.45,0-2.89-.11-4.34-.11h-4.22c-.76,0-1.06.34-1.06,1.07V27.85c0,.76.3,1.06,1.06,1.06h2.36c1.44,0,2.85-.11,4.3-.11,1,0,.91.45.91,2s0,1.94-.91,1.94c-1.45,0-2.86-.11-4.3-.11H208.91c-1.41,0-2.86.11-4.3.11-.92,0-.92-.45-.92-1.94s0-2,1-2c1.44,0,2.85.11,4.26.11h2.16c.77,0,1.07-.3,1.07-1.06V16.21c0-.73-.3-1.07-1.07-1.07Z"/><path class="cls-1" d="M269.69,21.19c.84,0,1.64,0,2.44,0s.76.46.76,1.26,0,1.29-.76,1.29-1.6,0-2.4,0a.9.9,0,0,0-1,1v.49c0,1,.12,2,.12,2.7,0,.92-.61.88-2.21.88-1.14,0-1.67,0-1.86-.46-.15-.26-.27-.45-.61-.45h-4.95c-.72,0-1,.26-1,1,0,.38,0,1.37,0,1.75,0,3.69-3.91,3.77-6.69,3.77-1.07,0-2.32.19-2.32-2.81,0-.54.15-.88.72-.88s1.22.15,2.13.15c1.9,0,2.06-.49,2.13-2-.07-.72-.34-1-1.06-1h-5.59c-1.53,0-3.09.07-4.65.07-.87,0-.91-.3-.91-1.37s0-1.33.91-1.33c1.56,0,3.12,0,4.65,0h5.93c.49,0,.72-.19.72-.69v-.22c0-.5-.23-.73-.72-.73h-8.56c-1.6,0-3.23.08-4.87.08-.76,0-.72-.49-.72-1.29s0-1.26.76-1.26c1.6,0,3.23,0,4.83,0h8.56c.49,0,.72-.19.72-.69v-.19a.63.63,0,0,0-.72-.72h-7.84c-1,0-1.9.08-2.85.08-.68,0-.68-.35-.68-1.37s0-1.33.64-1.33c.95,0,1.94.07,2.89.07h7.84a.63.63,0,0,0,.72-.72v-.19c0-.5-.23-.72-.72-.72h-3.16l-3.42,0c-.88,0-2.17-.07-2.17-1.21,0-.38.08-.73.08-1.37V10.8c0-.64-.08-1-.08-1.37,0-1.18,1.29-1.25,2.17-1.25,1.14,0,2.28.07,3.42.07h3.16c.49,0,.72-.22.72-.72V7.3c0-.53-.23-.72-.72-.72h-7.76c-1.56,0-3.12.08-4.72.08-.83,0-.83-.42-.83-1.49s0-1.44.83-1.44c1.56,0,3.16.07,4.72.07h7.42c.72,0,1-.26,1.06-1,0-.53-.07-1.07-.15-1.6,0-.11,0-.27,0-.34,0-.46.31-.54.69-.54s2.7.23,3.31.31c.38,0,1,0,1,.49,0,.23-.19.35-.45.54s-.38.64-.38,1.1c0,.76.3,1.06,1,1.06h7.38c1.6,0,3.16-.07,4.72-.07.88,0,.84.42.84,1.44s0,1.49-.84,1.49c-1.56,0-3.16-.08-4.72-.08h-7.72c-.49,0-.72.19-.72.72v.23c0,.5.19.72.72.72H262c1.14,0,2.28-.07,3.42-.07.88,0,2.17.07,2.17,1.25,0,.38-.08.73-.08,1.37v2.06c0,.64.08,1,.08,1.37,0,1.14-1.25,1.21-2.13,1.21-1.14,0-2.28,0-3.46,0h-3.16c-.49,0-.72.19-.72.72v.19c0,.49.19.72.72.72H264c1,0,2.05-.07,3.08-.07s1.71.34,1.71,1.52c0,.57-.08,1.14-.08,1.67A.94.94,0,0,0,269.69,21.19ZM249.42,10.8a.88.88,0,0,0-.92.92V12a.88.88,0,0,0,.92.91h3.84a.88.88,0,0,0,.91-.91v-.23a.88.88,0,0,0-.91-.92ZM258.13,12a.88.88,0,0,0,.91.91h3.84a.88.88,0,0,0,.92-.91v-.23a.88.88,0,0,0-.92-.92H259a.88.88,0,0,0-.91.92Zm0,8.52a.68.68,0,0,0,.72.72H264a.68.68,0,0,0,.73-.72v-.16a.76.76,0,0,0-.73-.72h-5.17a.75.75,0,0,0-.72.72Zm.72,3.15a.75.75,0,0,0-.72.73v.19a.68.68,0,0,0,.72.72H264a.68.68,0,0,0,.73-.72v-.19a.76.76,0,0,0-.73-.73Z"/><path class="cls-1" d="M305.22,2.66c0,.23-.27.38-.46.46-.61.23-.76.42-1.25,1.29a2.45,2.45,0,0,0-.38.88.37.37,0,0,0,.42.38A27.18,27.18,0,0,0,308,4.6a3,3,0,0,1,1-.22c.65,0,.84.6.95,1.14a11.52,11.52,0,0,1,.31,2.05c0,.65-1.22.8-2,.95-2.4.5-4.79.91-7.19,1.18a1.34,1.34,0,0,0-1.14.61,12,12,0,0,0-1.3,2.21.3.3,0,0,0,.31.26,1.38,1.38,0,0,0,.68-.23,10.57,10.57,0,0,1,4.15-1c2.43,0,3.84,1,4.34,3.43.07.34.19.64.57.64A34.54,34.54,0,0,0,313,13.47a2.91,2.91,0,0,1,1-.38c.72,0,1.63,2.93,1.63,3.57,0,.46-.42.61-1.14.84-.15.08-.34.11-.53.19-1.52.57-3,1.22-4.49,1.86-.68.27-1,.5-1,1.26v.49c0,1.18,0,2.32,0,3.5,0,1.37-.19,1.52-1.64,1.52-1.63,0-2.32-.07-2.32-1.06s.08-1.68.08-2.47c0-.35-.11-.65-.5-.65-.19,0-4.1,1.67-4.1,4,0,2.55,3.69,2.78,5.51,2.78a27.76,27.76,0,0,0,7.08-.95,4.43,4.43,0,0,1,.76-.08c.49,0,.76.42.76,2.59,0,1.14,0,1.44-.88,1.63a49.24,49.24,0,0,1-7.3.5,14.17,14.17,0,0,1-6-1,5.77,5.77,0,0,1-3.8-5.44c0-3.42,2.77-5.29,5.4-6.85.76-.45,1.56-.87,2.36-1.25.38-.19.68-.42.68-.88a4.92,4.92,0,0,0-.19-1.06,1.58,1.58,0,0,0-1.67-1.3c-2.13,0-5.63,1.83-7.12,3.35a25,25,0,0,0-3.19,4.45.64.64,0,0,1-.53.38c-.69,0-3.24-1.52-3.24-2.2,0-.31.31-.61.5-.84.87-1,6.39-8.6,6.39-9.32,0-.34-.31-.46-.84-.46s-1.48.12-2.66.12c-.84,0-1-.19-1-2.13,0-1.52.15-1.75,1.1-1.75.65,0,1.64.07,2.74.07H296c1,0,2,0,2.36-.49a20.86,20.86,0,0,0,2.06-4.91c.07-.42.15-.8.53-.8S305.22,2.09,305.22,2.66Z"/><path class="cls-1" d="M342.08,15.86h1.06c1.26,0,2.63-.11,3.69-.11.84,0,.8.46.8,1.9s0,1.86-.8,1.86-2.35-.11-3.69-.11h-1.25c-.38,0-.8.11-.8.57a1.47,1.47,0,0,0,.19.65,30.93,30.93,0,0,0,6.05,7.83c.23.23.53.5.53.84a4.2,4.2,0,0,1-2.43,2.4c-.5,0-1.41-1-1.75-1.41a25.55,25.55,0,0,1-3.39-4.91.41.41,0,0,0-.38-.26c-.23,0-.34.15-.46.34a19.25,19.25,0,0,1-6.8,8.1,3,3,0,0,1-1.26.61c-.68,0-2.24-2-2.24-2.62,0-.42.6-.77,1.21-1.18a14.67,14.67,0,0,0,6.62-10c0-.68-.26-.91-1-1h-1.71c-1.29,0-2.66.11-3.69.11-.84,0-.8-.53-.8-1.86s0-1.9.8-1.9c1.1,0,2.43.11,3.69.11h2c.68,0,1.06-.3,1.06-1V11c0-.8-.26-1.06-1.06-1.06a1.24,1.24,0,0,0-1.33.76c-.39.8-2.17,4.14-3,4.14-.34,0-2.55-1.1-2.55-1.78A3.57,3.57,0,0,1,330,12,34.31,34.31,0,0,0,335.16.53c0-.23.11-.53.45-.53s1.6.34,1.94.42l.84.23c.91.23,1.29.3,1.29.68s-.38.5-.61.61c-.57.19-.61.34-.95,1.29-.15.5-.38,1.18-.76,2.21,0,.11,0,.23,0,.3,0,.5.35.61.76.65h4.11c1.22,0,2.48-.07,3.58-.07.91,0,.87.41.87,1.9s0,1.82-.87,1.82c-1.07,0-2.36-.11-3.58-.07-.76,0-1,.3-1.1,1,0,1.3,0,2.59,0,3.88C341.13,15.56,341.39,15.86,342.08,15.86Zm11.6,14c-.68,0-1,.31-1,1,0,.42,0,.84,0,1.29,0,1-.45,1-2,1s-2,0-2-1c0-1.52.11-3,.11-4.53V10.27c0-1.14-.07-2.32-.07-3.5,0-1.56.8-1.94,2.24-1.94.88,0,1.75,0,2.63,0h4.11c.87,0,1.75,0,2.62,0,1.41,0,2.24.34,2.24,1.94,0,1.18,0,2.32,0,3.5v17c0,1.49.07,3,.07,4.49,0,1-.49,1-2,1s-1.94,0-1.94-1c0-.3,0-.61,0-.91,0-.72-.34-1-1-1Zm4-3.65a1,1,0,0,0,1-1.07V9.7a1,1,0,0,0-1-1.06h-4c-.68.07-1.06.41-1.06,1.06V25.14c0,.65.38,1,1.06,1.07Z"/><path class="cls-1" d="M398.83,6.58c0,.27-.42.5-.83.8a36.5,36.5,0,0,0-5.52,5.1,1.15,1.15,0,0,0-.38.64c0,.31.3.5.65.5a2.09,2.09,0,0,0,.49-.08,7.56,7.56,0,0,1,1.56-.15,11.24,11.24,0,0,1,4.68,1.14A7.86,7.86,0,0,1,404,21.91c0,6.73-6,10.23-12.1,10.23-3.16,0-7.65-1.29-7.65-5.17a4.78,4.78,0,0,1,4.87-4.6,6.18,6.18,0,0,1,5.06,2.7,3.77,3.77,0,0,1,.69,2.43c0,.27.15.5.45.5,1,0,4.61-2,4.61-5.86s-3.12-5.21-6.43-5.21A11.53,11.53,0,0,0,385,20.66c-1.49,1.44-2.86,3-4.23,4.56a.51.51,0,0,1-.41.27c-.8,0-2.74-2.13-2.74-2.74s.57-.88.91-1.14A153.35,153.35,0,0,0,390.35,9.66c.3-.3,1-1,1-1.37s-.34-.45-.65-.45a8.6,8.6,0,0,0-.91.15c-.91.23-6.28,1.33-6.89,1.33-.83,0-.95-2.85-.95-3.5,0-.87,0-1,1.18-1H384c2.43,0,7.41-.53,9.62-1.41A5.33,5.33,0,0,1,395.1,3C396.63,3,398.83,5.93,398.83,6.58Zm-9.62,18.87A1.58,1.58,0,0,0,387.57,27c0,1.37,1.83,2,3,2,.72,0,1-.69,1-1.3A2.32,2.32,0,0,0,389.21,25.45Z"/></g></g></svg>