<svg viewBox="0 0 175.55 34.5" xmlns="http://www.w3.org/2000/svg"><g fill="#001c2b"><path d="m8.67 12.25a1.39 1.39 0 0 0 1.49-.84 18.7 18.7 0 0 0 1.29-3.27c.08-.26.11-.53.46-.53.53 0 3.42.76 3.42 1.29 0 .27-.3.38-.49.46a.77.77 0 0 0 -.54.49 14.7 14.7 0 0 0 -.72 1.83c0 .42.31.53.69.57l2.54-.08c1 0 .92.5.92 1.68s0 1.67-.95 1.67c-1.34 0-2.67-.08-4-.08h-7.78c-1.34 0-2.67.08-4 .08-1 0-1-.52-1-1.67s0-1.68 1-1.68c1.33 0 2.66.08 4 .08zm-3.23 10.12c0-.38-.3-.5-.65-.54-.83 0-2.17.08-3 .08-.95 0-.92-.45-.92-1.75s0-1.79.92-1.79c1.21 0 2.43.12 3.69.12h.52a.9.9 0 0 0 1-1 5.42 5.42 0 0 0 0-.79.91.91 0 0 1 0-.34c0-.46.38-.46.65-.46.65 0 2.36.12 3 .15.31 0 .92 0 .92.46 0 .23-.16.3-.42.49a.7.7 0 0 0 -.34.61.9.9 0 0 0 1 .88h.35c1.25 0 2.47-.12 3.68-.12 1 0 .92.54.92 1.79s0 1.75-.92 1.75-2.13-.08-3.15-.08c-.31 0-.57.12-.57.46a.55.55 0 0 0 .11.34 24 24 0 0 0 3 3.28c.19.15.34.26.34.53 0 .64-1.33 2.43-2 2.43s-1.9-1.94-2.24-2.43c-.12-.08-.19-.15-.31-.15s-.26.19-.26.38v2.47c0 1.41.07 2.81.07 4.26 0 1.06-.38 1.06-1.9 1.06s-1.93 0-1.93-1.06c0-1.41.12-2.85.12-4.26v-1.86c-.12-.16-.12-.28-.31-.28a.25.25 0 0 0 -.23.11c-.46.77-2.74 4.65-3.46 4.65s-2.51-1.52-2.51-2.28c0-.34.23-.49.46-.72a29.73 29.73 0 0 0 4.29-6 1.29 1.29 0 0 0 .08-.39zm6.47-18.26h.8c1.1 0 2.16-.11 3.29-.11.91 0 .91.5.91 1.68s0 1.67-.91 1.67c-1.11 0-2.17-.08-3.27-.08h-7.48c-1.1 0-2.17.08-3.27.08-.95 0-.91-.53-.91-1.67s-.07-1.68.93-1.68c1.1 0 2.17.08 3.27.08h.63c.72 0 1-.27 1.06-1a10.16 10.16 0 0 0 -.15-1.82v-.35c0-.41.3-.49.65-.49s2.66.19 3.27.27 1 .19 1 .49-.23.34-.46.53c-.42.31-.42.72-.42 1.41s.33.99 1.06.99zm-5.25 7.49a6.67 6.67 0 0 1 -1.66.4c-.65 0-.69-.08-1.07-1.26-.11-.38-.27-.8-.49-1.45a3.44 3.44 0 0 1 -.16-.53c0-.65 2-1.06 2.55-1.06s.64.3 1.17 1.54a10.11 10.11 0 0 1 .53 1.68c-.04.45-.53.57-.87.68zm17.27 4.4c-.73 0-1 .3-1.07 1a31.6 31.6 0 0 1 -2.74 12.56 20.3 20.3 0 0 1 -2.24 3.8.91.91 0 0 1 -.76.46c-.65 0-3-1-3-1.68a1.84 1.84 0 0 1 .53-.95c3.54-4.45 4.38-9.89 4.38-15.4v-10.31c0-1.6.49-1.79 2.55-2s7.22-1.25 9-2.2a.74.74 0 0 1 .42-.14c.53 0 1.37 1.22 1.71 1.71s1 1.14 1 1.6-.27.46-.53.46a2.9 2.9 0 0 1 -.57-.12 1.67 1.67 0 0 0 -1.11 0 44.39 44.39 0 0 1 -7.26 1.59c-1.37.15-1.45.35-1.45 2.25v2.77c0 .76.31 1.07 1.07 1.07h5.4c1.22 0 2.47-.08 3.5-.08s1 .54 1 1.87 0 1.86-1 1.86c-.65 0-1.29-.07-2-.07s-1 .34-1 1v11.95c0 1.4.12 2.85.12 4.26 0 1.14-.42 1.17-2 1.17s-2 0-2-1.17c0-1.41.12-2.86.12-4.26v-12c0-.72-.31-1.06-1.07-1.06z"/><path d="m60.33 8.14c-.11 0-.23 0-.23.19s.38.31.5.34c.6.27 1.14.54 1.14.88s-.31.34-.54.38c-.49 0-.6.19-1 .76-.12.19-.23.38-.42.65a1.18 1.18 0 0 0 -.27.72 1 1 0 0 0 .34.76 33.82 33.82 0 0 0 2.7 2.4c.19.19.46.34.46.61 0 .68-1.79 2.43-2.43 2.43s-2.55-2-3-2.51a1 1 0 0 0 -.69-.34.92.92 0 0 0 -.68.34c-1 1.14-2.93 3.08-4.07 4.07a1.8 1.8 0 0 1 -1 .53c-.68 0-2.51-1.56-2.51-2.17 0-.34.57-.8.84-1a42.59 42.59 0 0 0 7.32-8.18.64.64 0 0 0 .12-.38c0-.39-.31-.5-.61-.5h-1.52c-1.49 0-3 .08-4.49.08-.92 0-.92-.42-.92-1.83s0-1.9.92-1.9c1.48 0 3 .08 4.49.08h7.11c.72 0 1-.31 1.06-1.07a20.48 20.48 0 0 0 -.15-2.17c0-.11 0-.34 0-.45 0-.46.35-.54.73-.54.64 0 2.51.19 3.23.27.34 0 1 0 1 .53 0 .23-.19.31-.46.5s-.42.64-.42 1.25v.65c0 .76.31 1 1 1h7.26c1.49 0 3-.08 4.49-.08 1 0 .92.46.92 1.9s0 1.83-.92 1.83c-1.52 0-3-.08-4.49-.08h-1c-.12 0-.23 0-.23.19s.15.19.19.23c.76.34 1.44.61 1.44.95s-.42.42-.64.42c-.5 0-.57.19-1 .72-.12.15-.23.31-.38.53a1.32 1.32 0 0 0 -.31.77 1.2 1.2 0 0 0 .31.79 37.63 37.63 0 0 0 5.13 4.8c.23.19.69.53.69.87 0 .61-1.94 2.28-2.52 2.28-.91 0-4.86-4.26-5.63-5.09a.85.85 0 0 0 -.64-.35.88.88 0 0 0 -.65.31c-1.18 1.22-2 2-3.31 3.19a.56.56 0 0 0 -.19.31c0 .19.19.27.34.27.31 0 .92.07.92.53 0 .23-.19.34-.46.53a1 1 0 0 0 -.38.8c0 .72.34 1 1 1h8.21c1.6 0 3.16-.08 4.72-.08.95 0 .91.46.91 1.9s0 1.91-.91 1.91c-1.56 0-3.12-.12-4.72-.12h-8.13c-.72 0-1 .31-1 1.07v2.7c0 1.21.08 2.47.08 3.69s-.38 1.25-2 1.25-2.17 0-2.17-1.21.08-2.4.08-3.73v-2.7c0-.76-.31-1.07-1.07-1.07h-8.1c-1.56 0-3.16.12-4.72.12-1 0-.91-.5-.91-1.91s0-1.9.91-1.9c1.56 0 3.16.08 4.72.08h8.1c.73 0 1.07-.27 1-1a6.86 6.86 0 0 0 -.08-.87 1.57 1.57 0 0 0 -.49-1c-.19-.2-.53-.54-.53-.84s.57-.76.83-1a41.81 41.81 0 0 0 8.09-8.43.68.68 0 0 0 .11-.34c0-.39-.3-.5-.61-.5z"/><path d="m123 20.77c-.27 0-.57.11-.57.46a.79.79 0 0 0 .11.38 53.34 53.34 0 0 0 6.77 7.49c.23.19.57.46.57.8 0 .72-1.75 2.32-2.39 2.32s-1.56-1.14-1.94-1.52a49.93 49.93 0 0 1 -5.25-6.43.39.39 0 0 0 -.31-.15c-.19 0-.26.19-.26.38v4.5c0 1.44.07 2.85.07 4.3 0 1.18-.38 1.21-1.86 1.21s-2 0-2-1.21c0-1.45.08-2.86.08-4.3v-4.6c0-.19-.08-.35-.27-.35a.27.27 0 0 0 -.26.16 37 37 0 0 1 -7 7.76c-.27.22-.72.64-1.11.64-.64 0-2.16-1.86-2.16-2.55 0-.34.34-.57.57-.76a34.62 34.62 0 0 0 7.21-7.69.62.62 0 0 0 .12-.35c0-.38-.31-.49-.61-.49h-.27c-1.33 0-2.74.08-3.8.08s-.92-.46-.92-1.56a.54.54 0 0 0 -.49-.54.84.84 0 0 0 -.3.08c-.54.27-1.11.5-1.64.76a1.3 1.3 0 0 0 -.91 1.45v6.62 2.43c0 3.08-1.34 4.15-5.63 4.15-1 0-2.13.11-2.13-3.05 0-.61.18-1 .87-1 .49 0 1 .08 1.56.08 1.64 0 1.56-.61 1.56-2.47v-5.24c0-.42-.19-.76-.65-.76a3.27 3.27 0 0 0 -1.18.34c-.83.3-1 .34-1.1.68s-.23.76-.61.76-.61-.64-.84-1.36c-.11-.42-.76-2.51-.76-2.82s.61-.49 1-.61c.76-.15 2.4-.61 3.16-.87a1.15 1.15 0 0 0 .95-1.33v-5c0-.76-.31-1.06-1.07-1.06s-1.71.07-2.39.07c-.88 0-.8-.57-.8-1.82s-.08-1.87.8-1.87c.61 0 1.56.12 2.39.08s1.07-.34 1.07-1.07v-1.81a26.81 26.81 0 0 0 -.11-3c0-.07 0-.23 0-.34 0-.5.34-.53.76-.53.61 0 2.39.11 3.12.15.34 0 1 .08 1 .53s-.27.42-.53.61-.42.72-.42 1.79v2.61c0 .69.23 1 1 1.07.23 0 1.9-.08 2-.08.8 0 .76.5.76 1.79s0 1.9-.76 1.9c-.23 0-1.64-.07-2-.07-.72.07-1 .34-1 1.06v3.65c0 .38.15.73.61.73a.84.84 0 0 0 .3-.08 18.51 18.51 0 0 1 2.17-.87c.61 0 .65.87.72 1.29.08.61.31.84.88.87 1.14.08 2.24.08 3.38.08h2.74c.76 0 1-.27 1.07-1a12.45 12.45 0 0 0 -.12-2.09c0-.11 0-.23 0-.34 0-.42.34-.5.68-.5.65 0 2.47.16 3.2.23.3 0 1 .08 1 .5 0 .23-.27.34-.54.53s-.45.68-.45 1.29v.38c0 .76.34 1 1.06 1h4c1.29 0 2.55-.08 3.84-.08.91 0 .87.46.87 1.79s0 1.87-.87 1.87c-1.14 0-2.51-.08-3.84-.08zm5.67-17.16a1.84 1.84 0 0 1 -.5-.11 1.51 1.51 0 0 0 -.57-.15 4 4 0 0 0 -.68.11 76.73 76.73 0 0 1 -17.2 2.17c-.68 0-.83-.34-1.06-.8a5.67 5.67 0 0 1 -.42-1.94c0-.76.72-.68 1.52-.68 4.24-.04 12.24-.69 16.15-2.06a1.51 1.51 0 0 1 .53-.15c.38 0 .84.65 1.33 1.33.23.31.42.61.65.88s.65.72.65 1.06-.23.34-.42.34zm-17.18 10.16c-.68 0-.72-.49-1.22-2.13a36.06 36.06 0 0 0 -1.33-3.39 2 2 0 0 1 -.19-.6c0-.84 2.09-1.37 2.44-1.37.57 0 1 .76 1.67 2.77a23.46 23.46 0 0 1 1.07 3.47c0 .83-2.1 1.25-2.44 1.25zm6.35-1.14c-.91 0-1-.5-1-1a32.7 32.7 0 0 0 -1.07-4.56 3.1 3.1 0 0 1 -.15-.65c0-.8 2.32-1 2.62-1 .88 0 1 .92 1.49 3a28.13 28.13 0 0 1 .64 3.19c-.02.83-1.84 1.02-2.53 1.02zm10.85-6.89c.26.08.76.27.76.65s-.46.38-.65.42a.84.84 0 0 0 -.5.49 42.74 42.74 0 0 1 -2.92 6c-.19.31-.38.69-.8.69s-2.58-.79-2.58-1.44a1.43 1.43 0 0 1 .34-.76 28 28 0 0 0 2.93-6.39c.08-.26.19-.61.5-.61s2.38.8 2.92.95z"/><path d="m152 22.41c-.72 0-1.06.22-1.18 1a22.68 22.68 0 0 1 -3.42 9.85c-.31.42-.69 1-1.26 1s-2.66-1.41-2.66-2.17a1.2 1.2 0 0 1 .27-.61c3.42-5.21 3.65-10.31 3.65-16.32v-8c0-1.22-.08-2.4-.08-3.62 0-1.52.61-2 2.13-2 1.11 0 2.17.08 3.27.08h17.39c1.1 0 2.21-.08 3.27-.08 1.52 0 2.13.42 2.13 2v3.62 19.58c0 1 .08 1.94.08 2.89 0 1.33-.15 2.74-1.29 3.62-1.34 1-3.43 1-5 1-.68 0-2.2.12-2.2-3 0-.61.15-1 .83-1s1.18.08 1.79.08c1.83 0 1.9-.38 1.9-2.28v-4.62c0-.72-.3-1-1-1h-6.7c-.76 0-1.06.3-1.06 1v3.31c0 1.87.11 3.73.11 5.59 0 1.18-.42 1.22-2 1.22s-2.06 0-2.06-1.22c0-1.86.08-3.72.08-5.59v-3.31c0-.72-.31-1-1.07-1zm.34-8.6c-.76 0-1.06.3-1.06 1.06v.46 2.55s.31 1 1 1h5.51c.76 0 1.07-.31 1.07-1.07v-3c0-.76-.31-1.06-1.07-1.06zm6.51-7.49a1 1 0 0 0 -1.07-1.07h-5.44a1.07 1.07 0 0 0 -1.06 1.07v2.89a1.09 1.09 0 0 0 1.06 1.06h5.44a1.06 1.06 0 0 0 1.07-1.06zm11.68 3.95a1 1 0 0 0 1-1.06v-2.89c0-.69-.38-1-1-1.07h-6.7a1.06 1.06 0 0 0 -1.06 1.07v2.89a1.08 1.08 0 0 0 1.06 1.06zm-7.76 7.57a1.09 1.09 0 0 0 1.06 1.07h6.7a1 1 0 0 0 1-1.07v-3a1 1 0 0 0 -1-1.06h-6.7a1.08 1.08 0 0 0 -1.06 1.06z"/></g></svg>