<svg viewBox="0 0 15.98 13.34" xmlns="http://www.w3.org/2000/svg"><g fill="#db2da1"><path d="m5.84 3.39v6.42c0 2.07-.7 3.51-3 3.51-2.09 0-2.84-1.41-2.84-3.49v-6.32c0-2.34 1.05-3.51 3-3.51s2.84 1.15 2.84 3.39zm-4.07-.08v6.69c0 1.11.34 1.68 1.15 1.68s1.13-.52 1.13-1.68v-6.72c0-1.11-.37-1.64-1.13-1.64s-1.15.47-1.15 1.67z"/><path d="m10.3 3.42v-.42c0-1.36.42-3 2.72-3 2 0 2.66 1.25 2.66 3v.51c0 1.49-.49 2.19-1.25 2.5 1 .32 1.55 1 1.55 2.64v1.12c0 2.08-.64 3.57-3 3.57-2.1 0-2.87-1.19-2.87-3v-.42h1.66v.39c0 .81.27 1.55 1.21 1.55s1.2-.69 1.2-1.85v-1.28c0-1.36-.47-1.84-1.59-1.84h-.55v-1.54h.54c1 0 1.34-.39 1.34-1.63v-.72c0-.85-.16-1.53-1-1.53s-1 .67-1 1.45v.48z"/></g></svg>