<svg viewBox="0 0 377.9 36.12" xmlns="http://www.w3.org/2000/svg"><g fill="#db2da1"><path d="m23.3 23.66c0 6.17-4.92 9.89-12 9.89s-11.18-3.76-11.18-9.81v-11c0-2.33-.12-6.74-.12-7.01 0-.85.24-1 1.16-1h2.56c.92 0 1.16.16 1.16 1 0 .28-.12 4.68-.12 7v10.21c0 3.89 2.53 6.25 6.73 6.25s7.17-2.32 7.17-6.29v-10.17c0-2.32-.12-6.72-.12-7 0-.85.24-1 1.16-1h2.56c.92 0 1.16.16 1.16 1 0 .28-.12 4.68-.12 7z"/><path d="m60.34 23.66c0 6.17-4.92 9.89-12 9.89s-11.17-3.76-11.17-9.81v-11c0-2.32-.12-6.72-.12-7 0-.85.24-1 1.16-1h2.56c.92 0 1.16.16 1.16 1 0 .28-.12 4.68-.12 7v10.2c0 3.89 2.52 6.25 6.73 6.25s7.17-2.32 7.17-6.29v-10.17c0-2.32-.12-6.72-.12-7 0-.85.24-1 1.16-1h2.55c.92 0 1.16.16 1.16 1 0 .28-.12 4.68-.12 7z"/><path d="m97.38 23.66c0 6.17-4.93 9.89-12 9.89s-11.18-3.76-11.18-9.81v-11c0-2.32-.12-6.72-.12-7 0-.85.24-1 1.17-1h2.55c.92 0 1.16.16 1.16 1 0 .28-.12 4.68-.12 7v10.2c0 3.89 2.52 6.25 6.73 6.25s7.16-2.32 7.16-6.29v-10.17c0-2.32-.12-6.72-.12-7 0-.85.24-1 1.16-1h2.57c.92 0 1.16.16 1.16 1 0 .28-.12 4.68-.12 7z"/><path d="m115.92 24.7v7.17s-.2 1.2-1.21 1.2h-2.4c-.88 0-1.16-.2-1.16-.8s.24-4.92.28-7.81l.2-12c0-2 0-5.76 0-6.56 0-1 .16-1.21 1.16-1.21h1.32a1.91 1.91 0 0 1 1.93 1c1.12 1.52 2.28 3 3.44 4.44l5.52 6.87c.33.4.53.6.77.6s.44-.2.76-.6l5.32-6.77c1.16-1.44 2.36-3 3.52-4.56a1.93 1.93 0 0 1 1.93-1h1.32c1 0 1.2.2 1.2 1.21v6.56l.2 12c0 2.13.24 6.81.24 7.41 0 1.08-.12 1.2-1.12 1.2h-2.44c-1 0-1.2-.2-1.2-1.2 0-1.16.08-5 0-7.13l-.21-10.29c0-.4-.12-.64-.28-.64s-.32.12-.52.36l-8 9.89a.95.95 0 0 1 -1.65 0l-7.92-9.89c-.2-.24-.36-.36-.52-.36s-.28.24-.28.64z"/><path d="m182.66 8.57a13.55 13.55 0 0 1 4.05 9.85 14.4 14.4 0 0 1 -7.81 12.93 15.62 15.62 0 0 1 -4.37 1.6c-1 0-2.68-2.48-2.68-3.36 0-.4.6-.48 1-.56 5.25-1.24 9.37-4.69 9.37-10.41 0-4.29-2.24-8.13-6.41-9.57a7 7 0 0 0 -1.52-.36c-.92 0-.92.88-1 1.56-.44 5.85-1.84 13-5.68 17.58-1.32 1.6-3.09 3.08-5.29 3.08-2.44 0-4.36-1.76-5.44-3.8a12.61 12.61 0 0 1 -1.24-5.69 16.49 16.49 0 0 1 16.65-16.82 14.24 14.24 0 0 1 10.37 3.97zm-15.57 1.16a12.38 12.38 0 0 0 -7.21 11.53c0 1.48.52 5.21 2.56 5.21s4.25-4.57 5.37-8.65a40.78 40.78 0 0 0 1.28-7.82c0-.4-.2-.72-.64-.72a4.5 4.5 0 0 0 -1.36.45z"/><path d="m230.23 22.14h2.56s.8.48.8 1.32 0 1.36-.8 1.36-1.68 0-2.52 0-1.08.36-1.08 1.09v.52c0 1 .12 2.08.12 2.84 0 1-.64.92-2.32.92-1.2 0-1.76 0-2-.48-.16-.28-.28-.48-.64-.48h-5.2c-.76 0-1 .28-1.08 1v1.84c0 3.89-4.13 4-7 4-1.12 0-2.44.2-2.44-3 0-.56.16-.92.76-.92s1.28.16 2.24.16c2 0 2.16-.52 2.24-2.08-.08-.76-.36-1-1.12-1h-5.88c-1.6 0-3.25.08-4.89.08-.92 0-1-.32-1-1.44s0-1.4 1-1.4h4.89 6.24c.52 0 .76-.2.76-.72v-.25a.66.66 0 0 0 -.76-.76h-9c-1.68 0-3.4.08-5.12.08-.8 0-.76-.52-.76-1.36s0-1.32.8-1.32h5.08 9c.52 0 .76-.2.76-.72v-.2a.66.66 0 0 0 -.76-.76h-8.24c-1 0-2 .08-3 .08-.72 0-.72-.36-.72-1.44s0-1.4.68-1.4c1 0 2 .08 3 .08h8.24a.66.66 0 0 0 .76-.76v-.2a.66.66 0 0 0 -.76-.76h-3.32c-1.2 0-2.4 0-3.6 0-.92 0-2.29-.08-2.29-1.29 0-.4.08-.76.08-1.44v-2.12c0-.68-.08-1-.08-1.44 0-1.24 1.37-1.32 2.29-1.32 1.2 0 2.4.08 3.6.08h3.32a.66.66 0 0 0 .76-.76v-.24c0-.56-.24-.76-.76-.76h-8.07c-1.65 0-3.29.08-5 .08-.88 0-.88-.44-.88-1.56s0-1.53.88-1.53c1.64 0 3.32.08 5 .08h7.8c.76 0 1-.28 1.12-1.08 0-.56-.08-1.12-.16-1.68 0-.12 0-.28 0-.36 0-.48.32-.56.72-.56s2.85.24 3.49.32c.4 0 1.08 0 1.08.52 0 .24-.2.36-.48.56a1.25 1.25 0 0 0 -.4 1.16c0 .8.32 1.12 1.08 1.12h7.75c1.68 0 3.32-.08 5-.08.92 0 .88.44.88 1.53s0 1.56-.88 1.56c-1.64 0-3.32-.08-5-.08h-8.13c-.52 0-.76.2-.76.76v.24c0 .52.2.76.76.76h3.32c1.2 0 2.4-.08 3.61-.08.92 0 2.28.08 2.28 1.32 0 .4-.08.76-.08 1.44v2.16c0 .68.08 1 .08 1.44 0 1.21-1.32 1.29-2.24 1.29-1.21 0-2.41 0-3.65 0h-3.32c-.52 0-.76.2-.76.76v.14c0 .52.2.76.76.76h5.4c1.09 0 2.17-.08 3.25-.08s1.8.36 1.8 1.6c0 .6-.08 1.2-.08 1.76-.01.74.31 1.06.99 1.1zm-21.34-10.93a.92.92 0 0 0 -1 1v.24a.92.92 0 0 0 1 1h4a.92.92 0 0 0 1-1v-.24a.92.92 0 0 0 -1-1zm9.17 1.2a.92.92 0 0 0 1 1h4a.92.92 0 0 0 1-1v-.24a.92.92 0 0 0 -1-1h-4a.92.92 0 0 0 -1 1zm0 9a.71.71 0 0 0 .76.76h5.44a.71.71 0 0 0 .76-.76v-.16a.79.79 0 0 0 -.76-.76h-5.44a.79.79 0 0 0 -.76.76zm.76 3.32a.79.79 0 0 0 -.76.76v.21a.71.71 0 0 0 .76.76h5.44a.71.71 0 0 0 .76-.76v-.21a.79.79 0 0 0 -.76-.76z"/><path d="m274.35 1.28c.09-.2.21-.4.45-.4s3.6 1.32 3.6 1.88c0 .32-.44.36-.52.36a1.06 1.06 0 0 0 -.76.36c-.36.72-1.2 2.13-1.6 2.81a.56.56 0 0 0 -.12.36c0 .4.28.52.6.52 1.44 0 2.88-.08 4.32-.08.88 0 .88.44.88 1.68s0 1.64-.88 1.64c-1.68 0-3.32-.08-5-.08h-1.57c-.12 0-.12.08 0 .16s.12.16.12.24c0 .28-.36.36-.56.44a1.11 1.11 0 0 0 -.8.48c-.16.36-.36.76-.52 1.12a1.27 1.27 0 0 0 -.12.36c0 .44.36.56.76.6h1c1.65 0 3.25-.08 4.89-.08.92 0 .88.52.88 1.6s0 1.57-.84 1.57c-1.64 0-3.28-.08-4.93-.08h-6.8c-.52 0-.76.2-.76.76v.32c0 .52.2.76.76.76h4.76c1.52 0 3.05-.08 4.61-.08.92 0 .92.44.92 1.56s0 1.56-.92 1.56c-1.56 0-3.09-.08-4.61-.08h-4.76c-.52 0-.76.2-.76.72v.36c0 .52.2.76.76.76h9c1.68 0 3.36-.08 5.08-.08.92 0 .92.4.92 1.6s0 1.65-.88 1.65c-1.72 0-3.44-.08-5.12-.08h-5.13c-.2 0-.4.08-.4.32a.3.3 0 0 0 .16.28 38.23 38.23 0 0 0 10 4.8c.92.28 1.32.48 1.32 1 0 .84-1.44 2.64-2.24 2.64a25.26 25.26 0 0 1 -4.76-1.84 38.63 38.63 0 0 1 -7.81-5 .51.51 0 0 0 -.4-.16c-.32 0-.4.28-.44.56v.36c0 1.76.12 3.56.12 5.36 0 1.37-.44 1.41-2.29 1.41s-2.24 0-2.24-1.37c0-1.8.12-3.6.12-5.4v-.28c0-.32-.12-.56-.48-.56a.65.65 0 0 0 -.36.12 43.09 43.09 0 0 1 -9.25 5.64 16.49 16.49 0 0 1 -3.32 1.24c-.84 0-2.2-2-2.2-2.76 0-.48.52-.64 1.4-.92a45.66 45.66 0 0 0 9.85-4.76.42.42 0 0 0 .16-.32c0-.2-.2-.28-.36-.28h-4.85c-1.68 0-3.4.08-5.12.08-.88 0-.88-.48-.88-1.65s0-1.6.88-1.6c1.72 0 3.44.08 5.12.08h8.57a.66.66 0 0 0 .76-.76v-.4c0-.56-.24-.76-.76-.76h-4.5c-1.52 0-3.09.08-4.61.08-1 0-.92-.44-.92-1.56s0-1.56.92-1.56c1.52 0 3.09.08 4.61.08h4.5c.52 0 .76-.2.76-.76v-.32c0-.56-.24-.76-.76-.76h-6.44c-1.65 0-3.29.08-4.93.08-.88 0-.84-.64-.84-1.57 0-1.08 0-1.6.88-1.6 1.64 0 3.24.08 4.89.08h.92c.08 0 .72 0 .72-.6a1.17 1.17 0 0 0 -.08-.36c-.24-.52-.48-1-.76-1.52a1.43 1.43 0 0 0 -1.48-.92h-1.05c-1.68 0-3.32.08-5 .08-.88 0-.88-.44-.88-1.64s0-1.68.88-1.68c1.32 0 2.64.08 4 .08h.44c.28 0 .56-.12.56-.48a.59.59 0 0 0 -.08-.36 33.35 33.35 0 0 0 -2.46-3.33c-.12-.16-.36-.44-.36-.64 0-.6 2.08-1.56 2.8-1.56.44 0 .6.2 1 .76.08.12.21.28.37.48.44.52 2.52 3.25 2.52 3.73s-.88.88-1.28 1a.21.21 0 0 0 -.08.16c0 .12.08.16.2.16h2c.76 0 1.12-.32 1.12-1.08v-1.17c0-1.28 0-2.56-.16-3.84 0-.12 0-.24 0-.36 0-.48.28-.6.68-.6.56 0 2.72.24 3.36.32.4 0 1 .08 1 .56 0 .28-.16.36-.48.6s-.48 1-.48 2.2v2.37c0 .76.32 1.08 1.12 1.08h1.17c.8 0 1.12-.32 1.12-1.08v-2.29a16 16 0 0 0 -.24-2.8v-.32c0-.48.28-.56.68-.56s2.64.2 3.24.28c.36 0 1 .08 1 .56 0 .24-.2.36-.48.56s-.44.84-.44 1.84v2.73c0 .64.24 1 1 1.08a.68.68 0 0 0 .56-.36 51.13 51.13 0 0 0 3.12-5.53zm-8.28 12.45a1.48 1.48 0 0 0 1.6-.92c.24-.48.48-1 .76-1.52a.75.75 0 0 0 .08-.32c0-.48-.36-.6-.76-.64h-7.25c-.4 0-.72.16-.72.6a1.17 1.17 0 0 0 .08.36c1 2 1 2.44 2 2.44z"/><path d="m312.19 18.74a.53.53 0 0 0 -.44.32c-1.88 4.12-7.2 9.25-8.49 9.25-.92 0-2.6-2.08-2.6-3 0-.52.48-.76 1-1a16.44 16.44 0 0 0 8-12.13v-.24c0-.6-.48-.8-1-.8h-7.33c-.8 0-1.12.32-1.12 1.12v17.61c0 1.68.08 3.36.08 5 0 1.21-.4 1.25-2.16 1.25s-2.24 0-2.24-1.17c0-1.68.12-3.36.12-5.08v-17.58c0-1.12-.08-2.28-.08-3.4 0-1.56.76-1.84 2.16-1.84 1.16 0 2.36.08 3.52.08h7.21c.8 0 1.12-.36 1.12-1.12v-2.41a16.07 16.07 0 0 0 -.08-2c0-.16 0-.56 0-.84 0-.52.32-.64.76-.64.64 0 3.32.2 4 .28.28 0 .68.12.68.52s-.28.44-.48.56c-.53.32-.57.72-.57 1.84v2.68c0 .76.33 1.12 1.13 1.12h7.28c1.16 0 2.37-.08 3.53-.08 1.36 0 2.2.24 2.2 1.8 0 1.12-.08 2.28-.08 3.4v16.35c0 1 .08 1.92.08 2.84 0 3.48-1.28 4.53-6.41 4.53-1.8 0-2.72 0-2.72-3.09 0-.6.16-1.2.88-1.2a7.14 7.14 0 0 1 .92.08c.52 0 1 .12 1.52.12 1.6 0 1.52-.92 1.52-2.2v-17.46c0-.8-.32-1.12-1.12-1.12h-8c-.48 0-.93.2-.93.76 0 .88 1.33 4.29 2.89 6.57a21.93 21.93 0 0 0 6 5.68c.24.16.64.44.64.76 0 .81-1.84 2.89-2.64 2.89-.52 0-2.12-1.28-2.6-1.68a21.56 21.56 0 0 1 -5.69-7 .43.43 0 0 0 -.46-.33z"/><path d="m370.21 24.9c-.4 0-.52.32-.52.68v7.25c0 .32.08 2.2.08 2.32 0 .81-.48.81-2 .81s-2 0-2-.81v-.15c0-.52-.24-.72-.72-.72h-9.93c-.52 0-.72.2-.76.72 0 1-.4.93-2 .93s-2 0-2-.81c0-.52.08-1.52.08-2.32v-7.22c0-.36-.16-.64-.56-.64a1 1 0 0 0 -.36.08c-.8.48-4.28 2.53-5 2.53-1 0-2.41-2.17-2.41-2.73s.72-.8 1.13-1a43.93 43.93 0 0 0 15.85-11.53c.2-.24.48-.6.8-.6a6.88 6.88 0 0 1 1.8.8c.24.12.44.24.56.28.52.28 1.12.56 1.12 1a.52.52 0 0 1 -.36.48.27.27 0 0 0 -.16.2.24.24 0 0 0 0 .16 52.22 52.22 0 0 0 13.9 9.37c.32.16 1.08.48 1.08.88 0 .73-1.48 2.77-2.2 2.77s-4.29-2.17-5.09-2.69c-.09.06-.17-.04-.33-.04zm.08-20.9h4.33c1.08 0 2.2.28 2.2 1.61v2.12 2.12c0 .48.08 1.16.08 1.64 0 .92-.56.92-2 .92s-2.09 0-2.09-.88c0-.48.08-1.16.08-1.68v-1c0-.76-.32-1.12-1.08-1.12h-23.3a1 1 0 0 0 -1.12 1.12v.88c0 .52.12 1.2.12 1.68 0 .92-.72.88-2 .88s-2.08 0-2.08-.92c0-.52.12-1.12.12-1.64v-2c0-.92-.08-1.68-.08-2.12 0-1.33 1.08-1.61 2.2-1.61h4.32 6.93c.72 0 1.08-.28 1.12-1a18.2 18.2 0 0 0 -.16-2.08c0-.08 0-.24 0-.36 0-.48.4-.52.76-.52.76 0 2.56.16 3.36.24.4 0 1.16 0 1.16.52 0 .28-.2.36-.48.56-.44.36-.4.88-.44 1.64s.36 1 1.12 1zm-14.41 7.57h-.4a1.25 1.25 0 0 0 -.76.44 34.63 34.63 0 0 1 -7.21 5.49 4.58 4.58 0 0 1 -1.64.72c-.76 0-2.12-1.88-2.12-2.4s.68-.73 1-.89a29.17 29.17 0 0 0 8-6 .66.66 0 0 1 .48-.32 8.15 8.15 0 0 1 2 1.36c.56.4 1.24.92 1.24 1.24s-.35.36-.59.36zm8.85 19.22a1.06 1.06 0 0 0 1.12-1.08v-3a1.13 1.13 0 0 0 -1.12-1.13h-9.33c-.68.09-1.08.41-1.08 1.13v3a1 1 0 0 0 1.08 1.08zm-10.05-9c0 .24.2.32.4.32h10.13c.28 0 .36-.16.36-.32a.43.43 0 0 0 -.16-.36c-1.72-1.36-2.93-2.4-4.53-3.92a1 1 0 0 0 -.72-.36 1.14 1.14 0 0 0 -.76.36 46.67 46.67 0 0 1 -4.52 3.92c-.12.11-.2.19-.2.35zm19.38-3.56c-1.25 0-9.69-6.41-9.69-7.49 0-.52 1.84-2 2.4-2 .32 0 .6.36.8.56a36.27 36.27 0 0 0 8.05 5.88c.2.12.6.33.6.65 0 .51-1.36 2.39-2.16 2.39z"/></g></svg>