<svg viewBox="0 0 311.44 74.93" xmlns="http://www.w3.org/2000/svg"><g fill="#0084d0"><path d="m16.54 24.94c0 1.59.08 3.17.08 4.72 0 1-.47 1.08-1.81 1.08-2 0-2.34-.1-2.34-1 0-1.55.07-3.1.07-4.65v-9.8c0-.22.11-1-.57-1-.36 0-1.12.61-1.41.83-1.08.79-6.81 4.61-7.75 4.61-.61-.05-2.81-2.25-2.81-2.93 0-.36.33-.51.58-.62a51.83 51.83 0 0 0 14.16-9.55 30.11 30.11 0 0 0 4.9-6.09c.11-.18.36-.54.58-.54a13.46 13.46 0 0 1 2.45 1.48c.4.25 1.41.86 1.41 1.3 0 .21-.18.28-.36.36a1.92 1.92 0 0 0 -1.41.86 70.4 70.4 0 0 1 -4.94 5.41c-.54.54-.83.79-.83 1.62z"/><path d="m68.94 11.5c0 .61-1.44 2-1.91 2.48a62.52 62.52 0 0 1 -19.57 13.59c-1.19.58-1.22.61-1.51 1.23a.36.36 0 0 1 -.36.21c-.4 0-1.16-1.44-1.41-1.87a9.91 9.91 0 0 1 -1.08-2.14c0-.4.65-.47 1.12-.62 8-2.34 17-9.15 22.09-15.67a.9.9 0 0 1 .61-.4c.72-.02 2.02 2.69 2.02 3.19zm-18.6-5.95c.47.33 2.2 1.51 2.2 2.05 0 .83-1.69 2.78-2.38 2.78a3.94 3.94 0 0 1 -1.44-1 44.45 44.45 0 0 0 -4.79-3.35c-.29-.18-.58-.37-.58-.69 0-.54 1.44-2.85 2.27-2.85.58.03 4.04 2.56 4.72 3.06z"/><path d="m101.34 4.4c.75 0 2.52 0 3.24-.07.15 0 .54-.08.65-.08.86 0 2.41 2 2.41 2.31s-.32.76-.61 2.31c-1.22 7-3.78 11.75-9.62 15.85a33 33 0 0 1 -6.92 3.68 3.79 3.79 0 0 1 -1.19.33c-.87 0-2.16-2.42-2.16-3 0-.39.32-.5.65-.57a25.35 25.35 0 0 0 9-4.76 16.75 16.75 0 0 0 5.91-10.52 6.38 6.38 0 0 0 .07-.87c0-.68-.61-.76-1.26-.76h-12.82c-1.52 0-3 .08-4.51.08-1.12 0-1.08-.33-1.08-1.95s0-2 1-2c1.55 0 3.1.07 4.65.07z"/><path d="m131.89 4.58c.44.07.91.07.91.43 0 .18-.22.36-.36.5s-.19.83-.19 1.16v.79c0 7.46-.5 13.8-6.23 19.28-.29.26-.72.76-1.12.76s-3.2-1.33-3.2-2c0-.25.28-.51.46-.65 5.48-4.54 6.17-9.59 6.17-16.29 0-1.08 0-2.52-.15-3.57 0-.11 0-.29 0-.4 0-.32.21-.39.47-.39.65.02 2.49.27 3.24.38zm8.55 15.06c0 1.12 0 1.66.57 1.66 1.19 0 8.29-6.34 9.45-7.53.18-.18.43-.47.72-.47.61 0 1.83 2.31 1.83 2.88s-1.4 1.7-1.87 2.09c-2.16 1.88-4.32 3.72-6.6 5.41-1 .76-2.52 1.91-3.38 2.67-.33.25-.69.65-1.12.65a9.31 9.31 0 0 1 -2.49-1.09c-.5-.28-1.15-.64-1.15-1.29 0-.26.14-2.6.14-4.33v-12.61a32.34 32.34 0 0 0 -.14-3.68v-.18a.32.32 0 0 1 .36-.36c.22 0 1.12.14 1.41.18 1.87.25 2.91.36 2.91.76 0 .25-.14.32-.28.5a1.4 1.4 0 0 0 -.33.94v3.53z"/><path d="m184.55 5.77c1.58 0 3.13-.08 4.72-.08.72 0 .93.22.93 1.55v.87c0 1.12-.1 1.51-1.11 1.51-1.48 0-3-.07-4.47-.07h-2.89a1.06 1.06 0 0 0 -1.08 1.08v10.09a1.06 1.06 0 0 0 1.08 1.05h5.63c1.47 0 3.46-.07 4.54-.07.9 0 .93.32.93 2.09 0 1.15 0 1.87-1 1.87s-2.92-.11-4.47-.11h-17.45c-1.55 0-3.38.11-4.47.11s-1-.68-1-1.91c0-1.73 0-2.05.94-2.05 1.08 0 3 .07 4.54.07h5.63a1.06 1.06 0 0 0 1.08-1.05v-10.09a1.06 1.06 0 0 0 -1.08-1.08h-2.89c-1.51 0-3 .07-4.47.07-1 0-1.11-.39-1.11-1.47v-.87c0-1.37.21-1.59.93-1.59 1.55 0 3.14.08 4.69.08z"/><path d="m235.43 11.5c0 .61-1.44 2-1.91 2.48a62.63 62.63 0 0 1 -19.52 13.59c-1.19.58-1.23.61-1.51 1.23a.37.37 0 0 1 -.36.21c-.4 0-1.16-1.44-1.41-1.87a9.91 9.91 0 0 1 -1.13-2.14c0-.4.65-.47 1.12-.62 8-2.34 17-9.15 22.09-15.67a.88.88 0 0 1 .61-.4c.72-.02 2.02 2.69 2.02 3.19zm-18.6-5.95c.47.33 2.2 1.51 2.2 2.05 0 .83-1.69 2.78-2.38 2.78a3.94 3.94 0 0 1 -1.44-1 44.45 44.45 0 0 0 -4.79-3.35c-.29-.18-.58-.37-.58-.69 0-.54 1.44-2.85 2.27-2.85.58.03 4.04 2.56 4.72 3.06z"/><path d="m253 9.33c.57 0 1.22-.21 1.22-.9v-2.43c0-2-.14-3.93-.14-4 0-.25.11-.36.36-.36a25.75 25.75 0 0 1 2.67.18c.9.07 1.65.18 1.65.5a.59.59 0 0 1 -.21.36c-.47.58-.44.87-.44 3.21v2.51a.93.93 0 0 0 .94.93h6.35c.5 0 .9-.32.9-1 0-1.3-.08-5-.15-6.13 0-.14 0-.29 0-.43a.44.44 0 0 1 .46-.43c.51 0 2.53.21 3.1.25s1.12.07 1.12.4-.14.32-.4.57a11.68 11.68 0 0 0 -.21 3v1.36 1.08.22c0 .72.33 1.11 1.05 1.11h1c1.12 0 3.5-.07 4.26-.07s.9.29.9 1.7c0 1.8-.11 2.12-1 2.12-1.41 0-2.78-.07-4.15-.07h-1c-1.12 0-1.12.76-1.12 1.23-.11 6.27-.72 10.63-6.34 14.34a14.67 14.67 0 0 1 -3.61 1.84c-.54 0-2.63-2.06-2.63-2.63 0-.29.33-.47.58-.58 6.85-2.85 8.11-5.84 8.11-13 0-.61-.25-1.15-.94-1.15h-6.33a.93.93 0 0 0 -.94.9v3.43c0 1 .08 2 .08 3 0 1.58-.18 1.44-2.35 1.44-1.26 0-1.69 0-1.69-.9 0-1.16.07-2.31.07-3.46v-3.47a1 1 0 0 0 -1-.94h-1.12c-1.4 0-2.85.11-4 .11-.91 0-.94-.76-.94-1.66 0-1.73 0-2.2.9-2.2 1 0 2.67.07 4.07.07z"/><path d="m307.06 12.87c1.33 0 3.2-.11 3.58-.11.78 0 .8.29.8 2.27 0 1.15 0 1.84-.77 1.84-1.21 0-2.42-.07-3.61-.07h-13.26c-1.18 0-2.39.07-3.6.07-.75 0-.78-.69-.78-1.8 0-2 .06-2.31.81-2.31.37 0 2.36.11 3.57.11z"/><path d="m58.24 51.69a11.84 11.84 0 0 0 2-.11 1.11 1.11 0 0 1 .36 0c.72 0 2.52 2.27 2.52 2.7 0 .22-.5.69-1.12 1.23-.32.29-.65.58-1 .9-3.06 3-6.24 6-9.55 8.8-.33.28-.69.57-.69 1s.33.72.55 1.05a11.35 11.35 0 0 1 1.33 2.19c0 .69-2.24 2.13-3 2.13-.36 0-.58-.36-.72-.65a35.66 35.66 0 0 0 -6.53-7.78c-.21-.22-.68-.62-.68-.94 0-.54 1.94-2.16 2.67-2.16.54 0 2.34 1.84 2.81 2.3.28.29.5.54.93.54a1.32 1.32 0 0 0 .87-.39c1.55-1.3 3.06-2.63 4.5-4 .4-.36 2.27-2.09 2.27-2.53s-.64-.46-1.33-.46h-15.08c-1.58 0-3.38.1-4.61.1-1 0-.94-.72-.94-1.73 0-1.87 0-2.27.87-2.27 1.58 0 3.13.08 4.68.08z"/><path d="m95 51.22a9.81 9.81 0 0 0 2-.11h.25c.8 0 2.38 2 2.38 2.42s-.43.65-.65.86a1.26 1.26 0 0 0 -.32.33 62.27 62.27 0 0 1 -6 5.48c-.76.57-.79 1-.79 1.91v7.28c0 1.37.07 2.73.07 4.1s0 1.34-2.31 1.34c-1.44 0-1.66-.25-1.66-.94 0-1.48.11-2.95.11-4.43v-4.9a.6.6 0 0 0 -.57-.62 1.75 1.75 0 0 0 -.76.29c-1.33.87-7.57 4.29-8.8 4.29-.79 0-2.37-2-2.37-2.7 0-.47.5-.65.86-.76a45.43 45.43 0 0 0 14.56-8.18c.36-.33 1.47-1.19 1.47-1.55s-.68-.4-1.15-.4h-6.74c-1.55 0-3.1.07-4.65.07-1 0-.9-.61-.9-2s-.07-1.8.83-1.8h1.4 3.32zm-3.57-5.34c.47.44 2.34 2.13 2.34 2.67s-1.77 2.27-2.34 2.27a1.31 1.31 0 0 1 -.87-.5 39.42 39.42 0 0 0 -4.25-3.93c-.29-.22-.72-.51-.72-.87a4.65 4.65 0 0 1 2.41-2.27c.58 0 2.89 2.13 3.43 2.63zm9.66 17.37c.47.44 2.48 2.31 2.48 2.85s-1.83 2.34-2.45 2.34c-.43 0-.75-.46-1-.75a26.16 26.16 0 0 0 -4.65-4.4c-.14-.14-.39-.36-.39-.58 0-.57 1.84-2.27 2.41-2.27s3.06 2.31 3.6 2.81z"/><path d="m121.3 54c.5 0 4.32 2.38 5 2.81 1.19.76 2.27 1.3 2.27 1.84s-1.45 2.74-2.2 2.74a1.83 1.83 0 0 1 -.8-.4 61.45 61.45 0 0 0 -5.83-3.67c-.26-.11-.54-.29-.54-.58.05-.59 1.38-2.74 2.1-2.74zm23.82-.18a13.11 13.11 0 0 1 -.79 2.27 30.81 30.81 0 0 1 -6.33 9.36 35.32 35.32 0 0 1 -12.32 7.32 2 2 0 0 0 -1.19.76c-.15.18-.29.5-.54.5s-.65-.65-.76-.94c-.47-1-.9-1.94-1.33-2.92a.74.74 0 0 1 -.08-.28c0-.29.47-.4.69-.44 1.12-.28 3.17-1 4.29-1.47a24.73 24.73 0 0 0 9-5.66c3-3 4.54-6.2 6.06-10.13.11-.32.25-.79.72-.79s2.58 1.76 2.58 2.41zm-14.85-4.82c.8.58 2.24 1.48 2.24 2s-1.51 2.63-2.2 2.63c-.25 0-.65-.32-.86-.47a53.9 53.9 0 0 0 -5.27-3.78c-.25-.18-.65-.36-.65-.69 0-.57 1.59-2.52 2.2-2.52s3.89 2.38 4.54 2.83zm7.57-3.5a12.75 12.75 0 0 1 2.31 1.66c.5.43 1.44 1.23 1.44 1.51 0 .54-1.12 1.81-1.59 1.81-.21 0-.57-.44-.86-.69-.83-.79-1.69-1.48-2.56-2.2-.14-.11-.32-.25-.32-.43a3.13 3.13 0 0 1 1.58-1.64zm3.21-3.1c.4 0 3.78 2.71 3.78 3.17s-1.11 1.81-1.58 1.81c-.18 0-.36-.18-.47-.29a32 32 0 0 0 -2.92-2.52c-.14-.15-.4-.29-.4-.51 0-.38 1.19-1.64 1.59-1.64z"/><path d="m175.86 55.83a28.48 28.48 0 0 0 2.92-8.14c0-.29.07-.8.4-.8a16.67 16.67 0 0 1 2.52.83c.68.25 1.91.69 1.91 1.08 0 .22-.22.36-.4.47a2 2 0 0 0 -.83 1.26 56.13 56.13 0 0 1 -3.46 7.86 1.51 1.51 0 0 0 -.21.65c0 .47.32.72.68 1s2.67 2.09 2.67 2.56c0 .64-1.66 2.92-2.34 2.92a1.44 1.44 0 0 1 -.9-.55c-.47-.5-1.91-2-2.53-2-.43 0-.65.29-.9.58a30 30 0 0 1 -6.39 5.94c-.87.61-4.94 3.1-5.81 3.1s-2.55-2.2-2.55-2.7.57-.65 1-.83a2.24 2.24 0 0 0 .36-.06 26.15 26.15 0 0 0 10-7.21 1.89 1.89 0 0 0 .58-1 .8.8 0 0 0 -.58-.79 30.11 30.11 0 0 0 -4.29-1.69c-.36-.11-.75-.29-.75-.72s.9-2.89 1.83-2.89 4.36 1.59 5.3 2.06a1.6 1.6 0 0 0 .54.14c.76.01.94-.57 1.23-1.07z"/><path d="m230.24 55.54c0 .61-1.44 2-1.91 2.49a62.68 62.68 0 0 1 -19.57 13.59c-1.19.57-1.22.61-1.51 1.22a.36.36 0 0 1 -.36.22c-.4 0-1.16-1.44-1.41-1.88a9.91 9.91 0 0 1 -1.08-2.18c0-.4.65-.47 1.12-.61 8-2.34 17-9.16 22.09-15.68a.88.88 0 0 1 .61-.4c.72.02 2.02 2.69 2.02 3.23zm-18.6-5.94c.47.32 2.2 1.51 2.2 2 0 .83-1.69 2.77-2.38 2.77a3.94 3.94 0 0 1 -1.44-1 44.45 44.45 0 0 0 -4.79-3.35c-.29-.18-.58-.36-.58-.68 0-.55 1.44-2.85 2.27-2.85.58.08 4.08 2.6 4.72 3.11z"/><path d="m256.33 54.64c.72 0 4.33 2.85 5.05 3.46.5.43 2.52 2 2.52 2.6s-1.69 2.48-2.42 2.48a1.32 1.32 0 0 1 -.79-.47 52.79 52.79 0 0 0 -5.22-4.21.68.68 0 0 0 -.36-.15c-.33 0-.44.29-.44.58v9.84c0 1.44.07 2.85.07 4.29 0 1.66 0 1.87-2.23 1.87-1.44 0-2 0-2-1.22 0-1.63.1-3.25.1-4.87v-20.54c0-.94-.07-1.91-.1-2.81 0-.18 0-.51 0-.65 0-.36.11-.54.47-.54s1 .11 1.22.14c1.63.22 3.1.36 3.1.87a.93.93 0 0 1 -.18.46 3 3 0 0 0 -.39 1.92v2.12 5.41c0 .29.18.36.29.36a.4.4 0 0 0 .33-.15c.19-.28.58-.79.98-.79z"/></g></svg>