<svg viewBox="0 0 149.45 43.87" xmlns="http://www.w3.org/2000/svg"><g fill="#F786D1"><path d="m5.4 4.77h-5.4v-3.29h14.33v3.29h-5.33v30.11h-3.6z"/><path d="m25.09 0v11.71a4.74 4.74 0 0 1 4.66-2.71c3.81 0 5 2.87 5 6.54v19.34h-3.6v-18.42c0-2.12-.3-4.18-2.7-4.18-2.73 0-3.36 2.08-3.36 5.79v16.81h-3.55v-34.88z"/><path d="m44.39 9.42h3.55v25.46h-3.55zm0-9.42h3.61v5.16h-3.59z"/><path d="m57.64 17.17c0-5.11 0-6.49 0-7.75h3.36a21.33 21.33 0 0 1 .12 2.58 4.58 4.58 0 0 1 4.66-3c2.79 0 5 1.6 5 6.27v19.61h-3.53v-18.88c0-2.47-.83-3.71-2.68-3.71-2.13 0-3.38 1.06-3.38 5.87v16.72h-3.55z"/><path d="m84 21.33h.07c1.24-2.82 4.08-8.7 5.58-11.91h3.74l-4.8 9.33 5.41 16.13h-3.89l-3.93-12.67-2.18 4.11v8.56h-3.51v-34.88h3.51z"/><path d="m100.74 9.42h3.55v25.46h-3.55zm0-9.42h3.55v5.16h-3.55z"/><path d="m114 17.17c0-5.11 0-6.49 0-7.75h3.38a21.33 21.33 0 0 1 .15 2.55 4.58 4.58 0 0 1 4.66-3c2.79 0 5 1.6 5 6.27v19.64h-3.56v-18.88c0-2.47-.82-3.71-2.67-3.71-2.13 0-3.38 1.06-3.38 5.87v16.72h-3.58z"/><path d="m149.35 34.35c0 5.17-.57 9.52-6.94 9.52-5.31 0-6.31-3.57-6.31-6.33v-.13h3.58v.16c0 1.26.48 3.28 2.92 3.28 2.63 0 3.2-2 3.2-5.62v-3.23c-.68 1.73-2.05 2.66-4.31 2.66-3.88 0-5.38-2.84-5.38-7.79v-10.28c0-4.48 1.94-7.57 5.91-7.57 2.61 0 3.79 1.34 4.16 2.62a17.24 17.24 0 0 1 .2-2.22h3.07c0 1.41-.1 3.7-.1 6.7zm-9.66-17.57v9.75c0 3.26.85 4.87 2.78 4.87 2.9 0 3.36-2.9 3.36-6.33v-7.52c0-2.93-.31-5.27-3-5.27-2.21 0-3.14 1.61-3.14 4.5z"/></g></svg>