<svg viewBox="0 0 137.31 35.28" xmlns="http://www.w3.org/2000/svg"><g fill="#db2da1"><path d="m0 1.48h6.11c5 0 7.33 2.51 7.33 7.91v2c0 5-1.5 8.73-7.58 8.73h-2.31v14.76h-3.55zm3.55 15.67h2c3.79 0 4.34-2.32 4.34-5.8v-1.79c0-2.7-.59-5.06-4-5.06h-2.34z"/><path d="m34.42 16.65v10.65c0 5.52-2.61 8-6.7 8s-6.57-2.42-6.57-7.85v-10.89c0-4.9 2.58-7.54 6.72-7.54s6.55 2.79 6.55 7.63zm-9.69-.11v11c0 2.77.93 4.55 3.06 4.55s3.05-1.36 3.05-4.59v-11c0-2.51-.84-4.32-3-4.32s-3.11 1.58-3.11 4.36z"/><path d="m45.49 27.31v1.12c0 2.47 1 3.79 2.8 3.79s2.71-1.22 2.71-3.56-.73-3.64-3.63-5.55c-3.41-2.25-5-4-5-7.57 0-3.76 1.82-6.52 6-6.52 4.51 0 5.9 2.87 5.9 6.7v1.16h-3.48v-1.4c0-2.17-.63-3.39-2.47-3.39s-2.39 1.17-2.39 3.14.61 2.85 3.16 4.55c3.74 2.45 5.5 4.22 5.5 8.42 0 4.61-2.08 7.08-6.45 7.08-5 0-6.25-3.31-6.25-6.82v-1.15z"/><path d="m63.12 9.42h3.56v25.46h-3.56zm0-9.42h3.58v5.16h-3.56z"/><path d="m73.87 9.42h2.92v-6.25h3.53v6.25h3.58v3.16h-3.58v17.09c0 1.31.23 2.56 1.83 2.56a7.77 7.77 0 0 0 1.6-.15v2.76a8.13 8.13 0 0 1 -2.76.39c-2.47 0-4.2-1-4.2-4.91v-17.74h-2.92z"/><path d="m91.47 9.42h3.53v25.46h-3.53zm0-9.42h3.56v5.16h-3.54z"/><path d="m106.49 9.42c.76 4.29 3 16.61 3.59 21.41.39-4.38 3-16.78 3.74-21.41h3.58l-5.4 25.46h-4l-5.31-25.46z"/><path d="m127.88 22.88v4.17c0 2.53.5 5.17 3 5.17s2.86-2 2.86-4.4v-.21h3.49v.18c0 2.95-.69 7.49-6.33 7.49-5.32 0-6.52-3.49-6.52-8.66v-9.48c0-3.86 1.35-8.12 6.58-8.12 4.91 0 6.34 3.64 6.34 8.13v5.73zm6-2.9v-3.18c0-2.38-.38-4.71-2.93-4.71s-3 2-3 4.73v3.18z"/></g></svg>