<svg viewBox="0 0 223.85 56.34" xmlns="http://www.w3.org/2000/svg"><g fill="#0084d0"><path d="m12.42 18c0 1.15.05 2.29.05 3.41 0 .71-.34.79-1.3.79-1.43 0-1.69-.08-1.69-.76 0-1.12 0-2.24 0-3.36v-7.08c0-.16.08-.73-.42-.73-.26 0-.81.44-1 .6-.78.57-4.92 3.33-5.6 3.33a4.41 4.41 0 0 1 -2-2.08c0-.26.23-.36.41-.44a37.35 37.35 0 0 0 10.24-6.9 22.63 22.63 0 0 0 3.55-4.39c.07-.13.23-.39.41-.39a9.77 9.77 0 0 1 1.77 1.07c.29.18 1 .62 1 .93s-.13.21-.26.26a1.44 1.44 0 0 0 -1 .63 50.64 50.64 0 0 1 -3.58 3.9 1.4 1.4 0 0 0 -.58 1.21z"/><path d="m49.22 8.3c0 .45-1 1.46-1.38 1.8a45.19 45.19 0 0 1 -14.13 9.81c-.86.42-.89.45-1.1.89a.27.27 0 0 1 -.26.16c-.28 0-.83-1.05-1-1.36a7.11 7.11 0 0 1 -.79-1.6c0-.29.46-.34.8-.44 5.76-1.69 12.26-6.61 16-11.33a.62.62 0 0 1 .4-.23c.52 0 1.46 1.91 1.46 2.3zm-13.43-4.3c.34.23 1.59 1.09 1.59 1.48 0 .6-1.23 2-1.72 2a2.65 2.65 0 0 1 -1-.71 33.62 33.62 0 0 0 -3.47-2.42c-.2-.13-.41-.26-.41-.49 0-.39 1-2.06 1.64-2.06a20.84 20.84 0 0 1 3.37 2.2z"/><path d="m72.62 3.18c.54 0 1.82 0 2.34-.06.1 0 .39-.05.47-.05.62 0 1.74 1.41 1.74 1.67s-.23.54-.44 1.66c-.89 5-2.73 8.49-7 11.46a24.18 24.18 0 0 1 -5 2.65 2.53 2.53 0 0 1 -.86.24c-.62 0-1.56-1.75-1.56-2.16s.23-.37.47-.42a18.32 18.32 0 0 0 6.48-3.44 12.1 12.1 0 0 0 4.27-7.6 4.32 4.32 0 0 0 0-.62c0-.5-.44-.55-.91-.55h-9.14c-1.09 0-2.16 0-3.25 0-.81 0-.79-.23-.79-1.4s0-1.49.71-1.49c1.12 0 2.24.06 3.36.06z"/><path d="m94.16 3.31c.32 0 .66 0 .66.31s-.16.26-.27.36-.13.6-.13.84v.57c0 5.39-.36 10-4.5 13.93-.21.18-.52.54-.81.54s-2.31-1-2.31-1.43c0-.18.21-.36.34-.47 4-3.28 4.45-6.92 4.45-11.76 0-.79 0-1.83-.11-2.58 0-.08 0-.21 0-.29s.15-.28.34-.28c.47 0 1.8.18 2.34.26zm6.17 10.88c0 .8 0 1.19.42 1.19.86 0 6-4.58 6.82-5.44.13-.13.31-.33.52-.33.44 0 1.33 1.66 1.33 2.08s-1 1.22-1.35 1.51c-1.57 1.35-3.13 2.68-4.77 3.9-.7.55-1.82 1.38-2.45 1.93-.23.18-.49.47-.8.47a7 7 0 0 1 -1.8-.78c-.36-.21-.83-.47-.83-.94 0-.18.1-1.87.1-3.12v-9.12a23.48 23.48 0 0 0 -.1-2.65v-.13a.23.23 0 0 1 .26-.26c.16 0 .81.1 1 .13 1.36.18 2.11.26 2.11.55s-.1.23-.21.36a1.05 1.05 0 0 0 -.23.68v2.55z"/><path d="m132.19 4.17c1.15 0 2.27-.06 3.41-.06.52 0 .68.16.68 1.12v.63c0 .8-.08 1.09-.81 1.09-1.07 0-2.13 0-3.23 0h-2.08a.77.77 0 0 0 -.78.78v7.27a.76.76 0 0 0 .78.75h4.06c1.07 0 2.5-.05 3.28-.05s.68.24.68 1.51c0 .83 0 1.35-.73 1.35s-2.11-.07-3.23-.07h-12.6c-1.12 0-2.45.07-3.23.07s-.73-.49-.73-1.38c0-1.24 0-1.48.68-1.48s2.19.05 3.28.05h4.06a.76.76 0 0 0 .78-.75v-7.32a.76.76 0 0 0 -.78-.78h-2.08c-1.09 0-2.16 0-3.23 0-.73 0-.8-.29-.8-1.07v-.57c0-1 .15-1.15.67-1.15 1.12 0 2.27.06 3.39.06z"/><path d="m168.94 8.3c0 .45-1 1.46-1.38 1.8a45.19 45.19 0 0 1 -14.13 9.81c-.86.42-.89.45-1.1.89a.27.27 0 0 1 -.26.16c-.28 0-.83-1.05-1-1.36a7.11 7.11 0 0 1 -.78-1.56c0-.29.47-.34.8-.44 5.76-1.69 12.26-6.61 16-11.33a.64.64 0 0 1 .44-.28c.47.01 1.41 1.92 1.41 2.31zm-13.43-4.3c.34.23 1.59 1.09 1.59 1.48 0 .6-1.23 2-1.72 2a2.72 2.72 0 0 1 -1-.71 34.57 34.57 0 0 0 -3.46-2.42c-.21-.13-.42-.26-.42-.49 0-.39 1-2.06 1.64-2.06a20.42 20.42 0 0 1 3.37 2.2z"/><path d="m181.61 6.74c.42 0 .89-.15.89-.65v-1.77c0-1.46-.11-2.84-.11-2.86 0-.18.08-.26.26-.26a18.34 18.34 0 0 1 1.93.13c.65 0 1.2.13 1.2.36s-.11.21-.16.26c-.34.42-.31.63-.31 2.32v1.8a.67.67 0 0 0 .68.67h4.58c.36 0 .65-.23.65-.75 0-.94-.05-3.65-.11-4.43 0-.1 0-.21 0-.31a.32.32 0 0 1 .34-.31c.36 0 1.82.15 2.24.18s.8 0 .8.29-.1.23-.28.41a8.3 8.3 0 0 0 -.21 2.18v1 .78.15c0 .53.23.81.75.81h.7 3.08s.65.21.65 1.22c0 1.3-.08 1.54-.73 1.54-1 0-2 0-3 0h-.7c-.81 0-.81.54-.81.88-.07 4.53-.52 7.68-4.58 10.36a10.5 10.5 0 0 1 -2.6 1.33 4.31 4.31 0 0 1 -1.9-1.9c0-.21.23-.34.42-.42 4.94-2 5.85-4.21 5.85-9.42 0-.44-.18-.83-.67-.83h-4.46a.66.66 0 0 0 -.68.65v2.47c0 .73.05 1.43.05 2.16 0 1.15-.13 1-1.69 1-.91 0-1.22 0-1.22-.65 0-.83.05-1.66.05-2.5v-2.5a.69.69 0 0 0 -.71-.67h-.8c-1 0-2.06.08-2.92.08-.65 0-.67-.55-.67-1.2 0-1.25 0-1.59.65-1.59s1.92 0 2.94 0z"/><path d="m220.68 9.29c1 0 2.31-.08 2.58-.08.57 0 .59.21.59 1.64 0 .84 0 1.33-.56 1.33-.88 0-1.75 0-2.61 0h-9.58c-.85 0-1.73 0-2.6 0-.54 0-.57-.49-.57-1.3 0-1.46 0-1.67.59-1.67.27 0 1.71.08 2.58.08z"/><path d="m17.65 39.55a8.52 8.52 0 0 0 1.46-.08 1.14 1.14 0 0 1 .26 0c.52 0 1.82 1.64 1.82 1.95s-.36.5-.81.89c-.23.2-.47.41-.7.65-2.21 2.18-4.5 4.34-6.9 6.35-.23.21-.49.42-.49.75s.23.52.39.76a8 8 0 0 1 1 1.59c0 .49-1.61 1.53-2.16 1.53-.26 0-.42-.26-.52-.47a26.24 26.24 0 0 0 -4.71-5.62c-.16-.16-.5-.44-.5-.68s1.41-1.56 1.93-1.56 1.69 1.33 2 1.67.36.39.68.39a.91.91 0 0 0 .62-.29q1.68-1.41 3.26-2.89c.28-.26 1.64-1.51 1.64-1.82s-.47-.34-1-.34h-10.92c-1.15 0-2.45.08-3.33.08-.67-.02-.67-.54-.67-1.27 0-1.35 0-1.64.62-1.64h3.39z"/><path d="m44.2 39.21a7.17 7.17 0 0 0 1.48-.07h.18c.57 0 1.72 1.43 1.72 1.74s-.31.47-.47.63a.84.84 0 0 0 -.23.23 43.91 43.91 0 0 1 -4.35 4c-.55.42-.57.7-.57 1.38v5.26 3s0 1-1.67 1c-1 0-1.19-.18-1.19-.68 0-1.06.07-2.13.07-3.2v-3.68a.43.43 0 0 0 -.41-.44 1.26 1.26 0 0 0 -.55.21c-1 .62-5.47 3.09-6.35 3.09-.57 0-1.72-1.43-1.72-2 0-.34.36-.47.63-.55a32.78 32.78 0 0 0 10.54-5.83c.26-.23 1.06-.86 1.06-1.12s-.49-.28-.83-.28h-4.87c-1.12 0-2.24.05-3.36.05-.7 0-.65-.45-.65-1.49s0-1.3.6-1.3h1 2.39zm-2.58-3.85c.34.31 1.69 1.54 1.69 1.93s-1.25 1.64-1.69 1.64a.93.93 0 0 1 -.63-.37 27.38 27.38 0 0 0 -3.07-2.83c-.21-.16-.52-.37-.52-.63a3.35 3.35 0 0 1 1.75-1.64c.41 0 2.08 1.54 2.47 1.9zm7 12.55c.34.31 1.8 1.67 1.8 2.05s-1.33 1.7-1.77 1.7-.55-.34-.73-.55a19.06 19.06 0 0 0 -3.36-3.18c-.1-.1-.28-.26-.28-.41 0-.42 1.33-1.64 1.74-1.64s2.18 1.66 2.57 2.03z"/><path d="m63.19 41.22a29.33 29.33 0 0 1 3.65 2c.86.55 1.64.94 1.64 1.33s-1 2-1.59 2a1.32 1.32 0 0 1 -.57-.28 44 44 0 0 0 -4.22-2.66c-.18-.07-.39-.2-.39-.41 0-.42.96-1.98 1.48-1.98zm17.21-.13a9.45 9.45 0 0 1 -.57 1.64 22.62 22.62 0 0 1 -4.56 6.77 25.5 25.5 0 0 1 -8.9 5.28 1.45 1.45 0 0 0 -.86.55c-.11.13-.21.36-.39.36s-.47-.47-.55-.67c-.34-.71-.65-1.41-1-2.11a.58.58 0 0 1 0-.21c0-.21.34-.29.49-.31.81-.21 2.29-.76 3.1-1.07a17.89 17.89 0 0 0 6.48-4.09 19.24 19.24 0 0 0 4.36-7.31c.08-.24.19-.58.53-.58s1.87 1.28 1.87 1.75zm-10.73-3.46c.58.41 1.62 1.06 1.62 1.43s-1.1 1.94-1.59 1.94c-.18 0-.47-.24-.62-.34a40 40 0 0 0 -3.8-2.73c-.19-.13-.47-.26-.47-.5 0-.41 1.14-1.82 1.58-1.82a20 20 0 0 1 3.28 2.02zm5.47-2.53a9.55 9.55 0 0 1 1.67 1.2c.36.31 1 .88 1 1.09 0 .39-.81 1.3-1.15 1.3-.15 0-.41-.31-.62-.49-.6-.57-1.23-1.07-1.85-1.59-.1-.08-.23-.18-.23-.31a2.23 2.23 0 0 1 1.18-1.2zm2.32-2.24a9.69 9.69 0 0 1 2.73 2.29c0 .39-.81 1.31-1.14 1.31-.13 0-.26-.13-.34-.21a24.71 24.71 0 0 0 -2.11-1.83c-.11-.1-.29-.2-.29-.36s.86-1.2 1.15-1.2z"/><path d="m102.6 42.55a20.58 20.58 0 0 0 2.11-5.89c0-.2.05-.57.28-.57a12 12 0 0 1 1.83.6c.49.18 1.37.49 1.37.78s-.15.26-.28.34a1.41 1.41 0 0 0 -.6.91 40.34 40.34 0 0 1 -2.5 5.67 1 1 0 0 0 -.16.47c0 .34.24.52.5.73s1.93 1.51 1.93 1.85-1.2 2.11-1.7 2.11c-.26 0-.49-.24-.65-.39-.34-.37-1.38-1.43-1.82-1.43s-.47.2-.65.41a21.6 21.6 0 0 1 -4.63 4.27c-.63.44-3.57 2.24-4.19 2.24s-1.85-1.59-1.85-1.95.41-.47.75-.6a1.56 1.56 0 0 0 .21-.08 18.76 18.76 0 0 0 7.21-5.2c.16-.19.42-.47.42-.73a.56.56 0 0 0 -.34-.52 21.28 21.28 0 0 0 -3.1-1.23c-.26-.08-.55-.21-.55-.52s.66-2.08 1.33-2.08a18.83 18.83 0 0 1 3.83 1.48 1 1 0 0 0 .39.11c.52 0 .65-.42.86-.78z"/><path d="m141.35 42.34c0 .44-1 1.46-1.38 1.79a45.1 45.1 0 0 1 -14.13 9.87c-.86.41-.89.44-1.09.88a.27.27 0 0 1 -.26.16c-.29 0-.84-1-1-1.35a7.17 7.17 0 0 1 -.78-1.57c0-.28.47-.33.81-.44 5.75-1.69 12.26-6.61 15.95-11.32a.65.65 0 0 1 .45-.29c.5-.07 1.43 1.93 1.43 2.27zm-13.43-4.34c.34.24 1.59 1.1 1.59 1.49 0 .59-1.22 2-1.72 2a2.79 2.79 0 0 1 -1-.7 33 33 0 0 0 -3.46-2.42c-.21-.13-.42-.26-.42-.5s1-2 1.64-2a20.56 20.56 0 0 1 3.37 2.13z"/><path d="m159.67 41.69c.52 0 3.13 2.05 3.65 2.5.36.31 1.82 1.43 1.82 1.87s-1.22 1.8-1.74 1.8a1 1 0 0 1 -.58-.34 38.34 38.34 0 0 0 -3.77-3.05.49.49 0 0 0 -.26-.1c-.24 0-.31.21-.31.42v7.1c0 1 .05 2.06.05 3.1 0 1.2 0 1.35-1.62 1.35-1 0-1.48 0-1.48-.88 0-1.17.08-2.34.08-3.52v-14.83c0-.68 0-1.38-.08-2 0-.13 0-.37 0-.47 0-.26.08-.39.34-.39s.71.07.89.1c1.17.16 2.24.26 2.24.63a.74.74 0 0 1 -.13.33 2.07 2.07 0 0 0 -.29 1.38v1.54 3.9c0 .21.13.26.2.26a.28.28 0 0 0 .24-.1c.18-.24.47-.6.75-.6z"/></g></svg>