<svg viewBox="0 0 16.21 13.32" xmlns="http://www.w3.org/2000/svg"><g fill="#F786D1"><path d="m5.84 3.39v6.42c0 2.07-.7 3.51-3 3.51-2.09 0-2.84-1.41-2.84-3.49v-6.32c0-2.34 1.05-3.51 3-3.51s2.84 1.15 2.84 3.39zm-4.07-.08v6.69c0 1.11.34 1.68 1.15 1.68s1.13-.52 1.13-1.68v-6.72c0-1.11-.37-1.64-1.13-1.64s-1.15.47-1.15 1.67z"/><path d="m15.74 1.74h-3.23c-.06 1.1-.17 2.62-.26 3.46a1.92 1.92 0 0 1 1.59-.66c1.74 0 2.37 1.28 2.37 3.45v1.42c0 2.23-.63 3.91-3 3.91-2.2 0-2.92-1.43-2.92-3.19v-.27h1.71v.42c0 .75.23 1.56 1.13 1.56s1.19-.76 1.19-2.18v-1.6c0-1.32-.22-2-1.14-2-.76 0-1.05.44-1.21 1.31l-1.6-.17c.19-1.83.45-5.42.54-7h5z"/></g></svg>