<svg viewBox="0 0 797.02 82.58" xmlns="http://www.w3.org/2000/svg" xmlns:xlink="http://www.w3.org/1999/xlink"><linearGradient id="a" gradientUnits="userSpaceOnUse" x2="797.02" y1="41.29" y2="41.29"><stop offset="0" stop-color="#0b65b9"/><stop offset="1" stop-color="#014c93"/></linearGradient><path d="m10.76 1.21v61.6c0 6.18 2.09 10 7.4 10s7.22-4 7.22-10v-61.6h10.8v61.36c0 12.55-5.66 20-18.23 20-12.06.01-17.95-6.57-17.95-19.9v-61.46zm89.85 0v61.6c0 6.18 2.09 10 7.39 10s7.23-4 7.23-10v-61.6h10.77v61.36c0 12.55-5.66 20-18.23 20-12.06 0-18-6.62-18-19.91v-61.45zm89.85 0v61.6c0 6.18 2.09 10 7.39 10s7.23-4 7.23-10v-61.6h10.8v61.36c0 12.55-5.66 20-18.23 20-12.06 0-18-6.62-18-19.91v-61.45zm119.81 48.86c0-14.08.19-30.59.43-39.53h-.12c-1.91 13.73-7.06 47.42-10.87 70.91h-10.28c-2.87-20.76-8.13-56.47-10-71h-.24c.24 9.33.64 27.5.64 41.28v29.72h-9.83v-80.24h16c3.66 21.8 7.74 47.41 8.82 58.23h.12c1.29-10.81 6.39-37.69 10.1-58.23h15.53v80.24h-10.3zm123.59 8.2v4.83c0 6.63 2.14 10.26 7.23 10.26s6.91-4.36 6.91-11.11c0-9-2-12-10.49-18.74s-13.12-11-13.12-22.86c0-10.4 3.14-20.69 16.82-20.65s16.26 9.5 16.26 18.82v4.05h-10.7v-3.76c0-6-1.09-9.81-5.78-9.81s-5.86 4.06-5.86 9.79c0 6.42 1.25 9.22 8.43 14.55 11.64 8.69 15.26 13.65 15.26 27 0 11.34-3.67 21.91-18 21.91-14.05 0-17.69-9-17.69-19.62v-4.66zm104.84-14.4h-17.79v27.69h20.37l-1.4 9.89h-29.73v-80.24h29.54v10h-18.78v22.79h17.79zm52.49 37.58v-80.24h12.59c3.67 12.81 13.91 53.45 15 58.67h.15c-.52-10.25-.6-21.54-.6-34.69v-24h10v80.26h-12.16c-3.27-11.89-14.29-56-15.39-60.6h-.12c.56 9.69.62 21.39.62 35.84v24.76zm98.41-23.18v4.83c0 6.63 2.13 10.26 7.22 10.26s6.89-4.4 6.89-11.11c0-9-1.94-12-10.48-18.74s-13.12-11-13.12-22.86c0-10.4 3.13-20.69 16.82-20.65s16.26 9.5 16.26 18.82v4.05h-10.68v-3.76c0-6-1.09-9.81-5.78-9.81s-5.86 4.06-5.86 9.79c0 6.42 1.25 9.22 8.43 14.55 11.64 8.69 15.26 13.65 15.26 27 0 11.34-3.67 21.91-18 21.91-14 0-17.68-9-17.68-19.62v-4.66zm104.83-14.4h-17.79v27.69h20.36l-1.4 9.89h-29.72v-80.24h29.55v10h-18.79v22.79h17.79z" fill="url(#a)"/></svg>