<svg xmlns="http://www.w3.org/2000/svg" viewBox="0 0 308.07 34.46"><defs><style>.cls-1{fill:#001c2b;}</style></defs><title>アセット 1</title><g id="レイヤー_2" data-name="レイヤー 2"><g id="レイヤー_1-2" data-name="レイヤー 1"><path class="cls-1" d="M17.5,5.33c0,.76.3,1.06,1.06,1.06h.19c1.15,0,2.25-.07,3.39-.07.84,0,.76.53.76,1.44s.08,1.41-.76,1.41c-1.14,0-2.24-.08-3.39-.08h-.53a.63.63,0,0,0-.72.72v.35c0,.53.23.72.72.72h.34c.69,0,1.41,0,2.1,0,1.1,0,1.52.38,1.52,1.49,0,.68,0,1.33,0,2V19c0,.65,0,1.29,0,1.94,0,1.07-.34,1.56-1.45,1.56-.72,0-1.44-.08-2.17-.08h-.34c-.49,0-.72.23-.72.73v.38c0,.53.23.72.72.72h.5c1.1,0,2.16,0,3.27,0,.76,0,.72.5.72,1.37S22.71,27,22,27c-1.11,0-2.17-.08-3.27-.08h-.31c-.64,0-.91.27-.91.92v.49c0,.46.19.8.72.8h.12c.45-.07,2.39-.38,2.62-.38.61,0,.69.69.72,1.18a.14.14,0,0,0,.16.15A.24.24,0,0,0,22,30c2.32-5.71,2.89-11.42,3.08-17.5,0-.57-.27-.8-.84-.8h-.38c-.87,0-.84-.5-.84-1.83S23,8,23.85,8h.38c.61,0,.88-.27.88-.84V4c0-.87,0-1.75-.12-2.62,0-.12,0-.27,0-.38,0-.46.27-.57.69-.57s2.7.15,3.23.22c.27,0,.57.12.57.46s-.23.38-.42.53c-.45.27-.49.65-.49,1.87V7c0,.68.27,1,1,1S31,8,31.8,8c1.6,0,2.32.68,2.36,2.28.15,3.84-.23,11.26-.57,15.14-.19,2.17-.46,6.47-2.13,7.91a4.87,4.87,0,0,1-3.58,1.1c-1.29,0-1.67-.07-1.9-.72a8.61,8.61,0,0,1-.3-2c0-.6,0-1.21.68-1.21h.91c1.75,0,2.06-.12,2.52-2.1.68-3.08,1-12.13,1-15.55,0-1.26-.41-1.3-1.48-1.3-.61,0-.84.35-.84.88v.57c0,5.89-1.4,15-4.26,20.12-.49.88-.64,1.22-1.06,1.22-.69,0-2.55-.84-2.55-1.56a1.13,1.13,0,0,1,.19-.5.49.49,0,0,0,.08-.22c0-.31-.23-.42-.54-.38-1.4.22-2.81.41-4.22.6-1.6.23-3.23.38-4.87.61-.8.12-1,.19-1.1.57s-.15.38-.42.38-.49-.34-.8-1.33a13.71,13.71,0,0,1-.49-2.09c0-.49.49-.49,1.94-.57.68,0,1.63,0,2.81-.19.72-.08,1-.46,1-1.18V28c0-.72-.3-1.07-1.06-1.07h-.31c-1.06,0-2.17.08-3.27.08-.72,0-.68-.53-.68-1.41s0-1.33.72-1.33c1.1,0,2.17,0,3.23,0h.65c.49,0,.72-.19.72-.69v-.41c0-.5-.19-.73-.72-.73H13c-.68,0-1.41.08-2.09.08-1.11,0-1.49-.42-1.49-1.52,0-.65,0-1.33,0-2V14.3c0-.64,0-1.29,0-2,0-1.07.38-1.49,1.45-1.49.72,0,1.45,0,2.13,0h.42c.49,0,.72-.19.72-.72V9.81c0-.49-.19-.72-.72-.72H13.2c-1.1,0-2.24.08-3.35.08-.83,0-.8-.42-.8-1.41s0-1.44.76-1.44c1.15,0,2.29.11,3.43.07.64,0,.91-.27.91-.87V5.25a.73.73,0,0,0-.84-.84,11.62,11.62,0,0,1-1.67.12c-.72,0-1-.42-1.33-1.75,0-.16-.15-.38-.34-.38a.37.37,0,0,0-.27.15,4.35,4.35,0,0,0-.3,1,47.38,47.38,0,0,1-2.21,6.77s0,0,0,.11.12.27.31.31.72.08.72.46c0,.22-.23.34-.42.49-.42.31-.46,1-.46,2.32V28.57c0,1.56.08,3.12.08,4.68,0,1.1-.34,1.14-1.71,1.14s-1.75,0-1.75-1.14c0-1.56.07-3.12.07-4.68V17.46c0-.15-.07-.3-.22-.3a.37.37,0,0,0-.27.15c-.69,1.1-1.14,1.44-1.45,1.44-.49,0-.95-.68-1.75-1.78a1.64,1.64,0,0,1-.3-.8A2.44,2.44,0,0,1,.61,15,39,39,0,0,0,6.09,1.48C6.2,1,6.28.38,6.77.38a15.77,15.77,0,0,1,3.69,1.1.56.56,0,0,0,.34.19c.88-.11,1.56-.15,2.4-.19s1.52-.11,2.62-.26a22.1,22.1,0,0,0,4.42-1,1.16,1.16,0,0,1,.34-.12c.3,0,.57.39,1.29,1.75a5.38,5.38,0,0,1,.54,1.22.42.42,0,0,1-.42.38,1.21,1.21,0,0,1-.53-.19A1.37,1.37,0,0,0,21,3.2c-.12,0-2.21.45-2.55.53-.72.19-1,.45-1,1.25Zm-3,8.78a.88.88,0,0,0-.91-.91h-.53a.88.88,0,0,0-.92.91v.5a.88.88,0,0,0,.92.91h.53a.88.88,0,0,0,.91-.91Zm-1.44,3.65a.89.89,0,0,0-.92.92v.53a.86.86,0,0,0,.92.91h.53a.86.86,0,0,0,.91-.91v-.53a.89.89,0,0,0-.91-.92Zm5.44-2.24a.85.85,0,0,0,.87-.91v-.5a.85.85,0,0,0-.87-.91H18a.88.88,0,0,0-.91.91v.5a.88.88,0,0,0,.91.91Zm-1.41,3.69a.86.86,0,0,0,.91.91h.5a.83.83,0,0,0,.87-.91v-.53a.85.85,0,0,0-.87-.92H18a.89.89,0,0,0-.91.92Z"/><path class="cls-1" d="M71,6c0,.38-.53.34-.8.34a1.71,1.71,0,0,0-1,.46c-1,.68-1.9,1.41-2.85,2.17-2.13,1.75-4.3,3.5-6.28,5.4-.72.68-1.56,1.45-1.56,2.17,0,.95,1.26,2.32,1.91,3,2.16,2.32,4.52,4.45,6.88,6.55.65.57,3.27,2.7,3.27,3.46,0,.91-2.32,3.08-3.23,3.08-.42,0-1-.69-1.18-1-1.45-1.71-3-3.31-4.6-4.91-2.06-2-4.15-4.11-6-6.31a5.77,5.77,0,0,1-1.83-4,4.32,4.32,0,0,1,.84-2.63,36.93,36.93,0,0,1,4.9-4.45,51.62,51.62,0,0,0,7.12-6.73c.15-.19.34-.46.57-.46.49,0,1.6,1.29,2,1.71S71,5.59,71,6Z"/><path class="cls-1" d="M95.17,22.06V16.78c0-.73-.26-1-1-1.07-.38,0-1.49.08-1.75.08-.84,0-.77-.57-.77-1.79s-.07-1.83.77-1.83c.41,0,1.25,0,1.78.08.73,0,1-.34,1-1.07V6.85c0-.69-.23-.95-1-1-.38,0-2.09.08-2.4.08-.79,0-.76-.5-.76-1.79s0-1.79.76-1.79,2,.08,3.16.08H98.9c1.14,0,2.32-.08,3.16-.08s.76.5.76,1.79,0,1.79-.76,1.79c-.57,0-1.68-.08-2.28-.08s-1,.34-1,1v4.33c0,.73.26,1,1,1,.42,0,1,0,1.45,0,.8,0,.76.5.76,1.83s0,1.79-.76,1.79c-.31,0-1.1,0-1.45-.08-.76,0-1,.34-1,1.07V21c0,.42.19.79.68.79a3.72,3.72,0,0,0,.84-.22,18.84,18.84,0,0,1,1.82-.61c.8,0,.76,1.63.76,2.21s-.07,1.1-.72,1.33c-2.85,1-5.67,1.94-8.56,2.77-1,.31-.91.31-1.1.8-.08.19-.19.42-.46.42s-.57-.61-.87-1.71c-.12-.38-.23-.8-.38-1.26a5,5,0,0,1-.27-1c0-.38.08-.38,1.1-.61.58-.12,1.37-.27,2.59-.57C95,23.09,95.17,22.82,95.17,22.06Zm13.43,6.32c0-.31-.15-.61-.49-.61a.68.68,0,0,0-.35.11c-1.18.73-7,4.11-8.06,4.11-.84,0-1.87-1.94-1.87-2.66,0-.42.39-.53,1.3-.88a36.72,36.72,0,0,0,9.13-4.75.3.3,0,0,0,.15-.27c0-.11-.08-.26-.34-.3-.46,0-.95,0-1.41,0-1,0-1.9-.19-1.9-1.41,0-.5.07-1,.07-1.64V18.68c0-.69-.07-1.14-.07-1.64,0-1.18.87-1.41,1.86-1.41s2,.08,2.93.08h7.72c1,0,1.94-.08,2.93-.08s1.9.2,1.9,1.41c0,.5-.07.95-.07,1.64v1.44c0,.69.07,1.14.07,1.64,0,1.18-.87,1.41-1.86,1.41s-2-.08-3-.08h-.76c-.3,0-.61.15-.61.49A.5.5,0,0,0,116,24c.42.57.87,1.14,1.33,1.67a1,1,0,0,0,.76.42,1,1,0,0,0,.65-.31,26.69,26.69,0,0,0,2.09-2c.11-.16.3-.42.49-.42.35,0,2.74,2,2.74,2.43a.42.42,0,0,1-.38.42c-.07,0-.19,0-.23,0a.77.77,0,0,0-.26,0c-.23,0-.34.11-.53.26-.5.42-1.22,1.07-1.75,1.45a.85.85,0,0,0-.35.64,1,1,0,0,0,.31.61,23.87,23.87,0,0,0,2.93,2c.38.23,1.06.53,1.06.91,0,.57-1.33,2.47-2,2.47a8.66,8.66,0,0,1-2.36-1.37,28,28,0,0,1-7-7.41.8.8,0,0,0-.61-.42c-.42,0-.57.34-.65.68v2.93c0,1.45.12,2.89.12,4.34,0,1.18-.38,1.22-1.94,1.22s-1.94,0-1.94-1.22c0-1.45.11-2.89.11-4.34ZM107.65,14c-1.33,0-2.7.08-4.07.08-.84,0-.8-.42-.8-1.49s0-1.48.8-1.48c1.37,0,2.74.07,4.07.07h12.17c1.37,0,2.7-.07,4.07-.07.88,0,.84.45.84,1.48s0,1.49-.84,1.49c-1.33,0-2.7-.08-4.07-.08Zm15.29-7.57c0,.68,0,1.18,0,1.71,0,1.29-.84,1.52-1.94,1.52-.8,0-1.6,0-2.36,0H108.37c-.8,0-1.56,0-2.36,0-1.06,0-2-.23-2-1.52,0-.38.07-1,.07-1.71V4.68c0-.8-.07-1.33-.07-1.75,0-1.26.87-1.48,2-1.48.76,0,1.56,0,2.36,0h10.31c.76,0,1.52,0,2.32,0,1.1,0,2,.19,2,1.52,0,.57,0,1.06,0,1.71ZM109.7,5a.88.88,0,0,0-.91-.91h-.53a.86.86,0,0,0-.91.91V6.09a.86.86,0,0,0,.91.91h.53a.88.88,0,0,0,.91-.91Zm8,15.41a.82.82,0,0,0,.88-.88v-.3a.85.85,0,0,0-.88-.91h-8.52a.88.88,0,0,0-.91.91v.3a.85.85,0,0,0,.91.88ZM112.25,6.09a.88.88,0,0,0,.92.91h.6a.88.88,0,0,0,.92-.91V5a.88.88,0,0,0-.92-.91h-.6a.88.88,0,0,0-.92.91Zm5-.16A1.08,1.08,0,0,0,118.3,7h.34a1.1,1.1,0,0,0,1.07-1.07V5.17a1.06,1.06,0,0,0-1.07-1.06h-.34a1,1,0,0,0-1.06,1.06Z"/><path class="cls-1" d="M143.63,14c0-.72-.26-1-1-1.07-.26,0-2,.08-2.16.08-.8,0-.76-.53-.76-1.86s0-1.91.76-1.91l2.16.08c.73,0,1-.34,1-1.07V4.11a22.76,22.76,0,0,0-.11-2.36c0-.11,0-.3,0-.42,0-.42.31-.49.65-.49.53,0,2.74.15,3.35.23.34,0,.91,0,.91.49,0,.3-.23.42-.53.65s-.42.57-.42,2.05v4c0,.73.26,1,1,1.07.46,0,1.45-.08,1.83-.08.8,0,.76.5.76,1.91s0,1.86-.76,1.86c-.38,0-1.37,0-1.83,0-.76,0-1,.31-1,1v8c0,.38.15.76.64.76a.83.83,0,0,0,.31,0c.38-.15,2.62-1,2.85-1,.88,0,.91,1.4.91,2.05,0,1-.34,1.26-1,1.52-2.77,1.18-5.78,2.17-8.67,3.08-.84.27-.84.38-1,.76s-.23.42-.49.42c-.42,0-.61-.49-1-1.6-.11-.3-.27-.68-.42-1.14a4,4,0,0,1-.3-1c0-.5.53-.54.91-.61,3.42-.65,3.42-1.11,3.42-1.94ZM156.8,25.14c0-.41-.35-.53-.73-.57h-.49c-1.18,0-1.64-.45-1.64-1.63,0-.76,0-1.52,0-2.28V17.73c0-.76,0-1.52,0-2.29,0-1.21.5-1.63,1.68-1.63.8,0,1.63,0,2.47,0h8.18c.83,0,1.63,0,2.47,0,1.18,0,1.71.38,1.71,1.63,0,.77-.07,1.53-.07,2.29v2.93c0,.76.07,1.52.07,2.28,0,1.22-.53,1.63-1.71,1.63l-1.86,0c-.73,0-.95.34-.95,1.06v3.12c0,1.56.38,1.67,1.29,1.67h1.06c1.26,0,1.37-1.67,1.56-2.85.08-.53.23-.76.8-.76.84,0,2.74.27,2.74,1.41A9.73,9.73,0,0,1,171.71,33c-1,1-2.09.88-3.73.88h-1.9c-2.1,0-3.88-.42-3.88-2.93,0-.61,0-1.22,0-1.83V25.6c0-.76-.31-1.06-1.07-1.06h-1.71c-.19,0-.23.07-.23.15s.11.23.57.45c.65.31,1.18.54,1.18.84s-.27.34-.46.42c-.42.11-.53.27-.72.65-1.71,3.65-5.52,5.7-9.21,7a5.14,5.14,0,0,1-1.06.26c-.91,0-1.94-1.78-1.94-2.54,0-.46.46-.61,1.18-.8,2.93-.84,6.5-2.63,7.95-5.44A.9.9,0,0,0,156.8,25.14ZM164.06,2.4c0,.61.5.8,1,.8h2.36c1.33,0,2.62-.08,3.92-.08.76,0,.76.38.76,1.52s0,1.52-.76,1.52-1.41-.07-2.13-.07c-.08,0-.12,0-.12.07s.08.08.12.08c.34.11.53.19.53.38s-.27.3-.46.34-.42.12-.49.31c-.19.38-.34.76-.53,1.18a.48.48,0,0,0-.12.3c0,.42.34.57.69.57,1.21,0,2.47-.08,3.69-.08.79,0,.76.38.76,1.53s0,1.48-.76,1.48c-1.34,0-2.67-.08-4-.08H156.57c-1.33,0-2.67.08-4,.08-.8,0-.76-.38-.76-1.48s0-1.53.8-1.53,2.06.08,2.89.08c.34,0,.65-.19.65-.61a.84.84,0,0,0-.08-.3,5.78,5.78,0,0,0-.26-.57,10.5,10.5,0,0,1-.46-1.14.51.51,0,0,1,.08-.27.22.22,0,0,0,0-.15.18.18,0,0,0-.15-.19c-.61,0-1.22.07-1.82.07-.76,0-.76-.3-.76-1.52s0-1.52.76-1.52c1.29,0,2.58.08,3.88.08h1.86c.72,0,1-.27,1-1,0-.23-.12-1.14-.12-1.41,0-.46.35-.5.69-.5.64,0,2.39.16,3.12.23.34,0,1,0,1,.46,0,.23-.19.34-.5.53a.82.82,0,0,0-.38.69Zm2.66,14.72a.62.62,0,0,0-.6-.61H158.2a.63.63,0,0,0-.61.61v.26a.63.63,0,0,0,.61.61h7.92a.61.61,0,0,0,.6-.61Zm-8.4,3.23a.71.71,0,0,0-.73.72v.08a.75.75,0,0,0,.73.72H166a.74.74,0,0,0,.72-.72v-.08a.7.7,0,0,0-.72-.72Zm2.74-11H163a1.34,1.34,0,0,0,1.48-.87l.57-1.37a1.42,1.42,0,0,0,.08-.35c0-.49-.35-.64-.76-.64h-4.61c-.38,0-.68.11-.68.53a1.07,1.07,0,0,0,.07.34c.27.46.46,1,.69,1.45S160.33,9.32,161.06,9.32Z"/><path class="cls-1" d="M205.48,2.66c0,.23-.26.38-.45.46-.61.23-.76.42-1.26,1.29a2.64,2.64,0,0,0-.38.88.37.37,0,0,0,.42.38,27.18,27.18,0,0,0,4.41-1.07,3,3,0,0,1,.95-.22c.65,0,.84.6,1,1.14a12.5,12.5,0,0,1,.3,2.05c0,.65-1.22.8-2,.95-2.39.5-4.79.91-7.19,1.18a1.35,1.35,0,0,0-1.14.61,11.91,11.91,0,0,0-1.29,2.21.29.29,0,0,0,.3.26,1.42,1.42,0,0,0,.69-.23,10.52,10.52,0,0,1,4.14-1c2.44,0,3.85,1,4.34,3.43.08.34.19.64.57.64a33.91,33.91,0,0,0,4.45-2.16,3.08,3.08,0,0,1,1-.38c.72,0,1.64,2.93,1.64,3.57,0,.46-.42.61-1.14.84-.16.08-.35.11-.54.19-1.52.57-3,1.22-4.48,1.86-.69.27-1,.5-1,1.26v.49c0,1.18,0,2.32,0,3.5,0,1.37-.19,1.52-1.63,1.52-1.64,0-2.32-.07-2.32-1.06s.07-1.68.07-2.47c0-.35-.11-.65-.49-.65-.19,0-4.11,1.67-4.11,4,0,2.55,3.69,2.78,5.52,2.78A27.69,27.69,0,0,0,212.9,28a4.54,4.54,0,0,1,.76-.08c.5,0,.76.42.76,2.59,0,1.14,0,1.44-.87,1.63a49.43,49.43,0,0,1-7.3.5,14.15,14.15,0,0,1-6-1,5.77,5.77,0,0,1-3.81-5.44c0-3.42,2.78-5.29,5.4-6.85.76-.45,1.56-.87,2.36-1.25.38-.19.69-.42.69-.88a5.62,5.62,0,0,0-.19-1.06,1.59,1.59,0,0,0-1.68-1.3c-2.13,0-5.63,1.83-7.11,3.35a25,25,0,0,0-3.2,4.45.62.62,0,0,1-.53.38c-.68,0-3.23-1.52-3.23-2.2,0-.31.3-.61.49-.84.88-1,6.39-8.6,6.39-9.32,0-.34-.3-.46-.83-.46s-1.49.12-2.67.12c-.83,0-1-.19-1-2.13,0-1.52.16-1.75,1.11-1.75.64,0,1.63.07,2.74.07h1.1c1,0,2,0,2.36-.49a20.84,20.84,0,0,0,2.05-4.91c.08-.42.15-.8.53-.8S205.48,2.09,205.48,2.66Z"/><path class="cls-1" d="M244.63,15.86h1.06c1.26,0,2.63-.11,3.69-.11.84,0,.8.46.8,1.9s0,1.86-.8,1.86c-1,0-2.36-.11-3.69-.11h-1.25c-.38,0-.8.11-.8.57a1.35,1.35,0,0,0,.19.65,30.93,30.93,0,0,0,6,7.83c.22.23.53.5.53.84a4.18,4.18,0,0,1-2.44,2.4c-.49,0-1.4-1-1.75-1.41a25.5,25.5,0,0,1-3.38-4.91.41.41,0,0,0-.38-.26c-.23,0-.34.15-.46.34a19.21,19.21,0,0,1-6.81,8.1,2.91,2.91,0,0,1-1.25.61c-.69,0-2.25-2-2.25-2.62,0-.42.61-.77,1.22-1.18a14.67,14.67,0,0,0,6.62-10c0-.68-.27-.91-.95-1h-1.71c-1.3,0-2.67.11-3.69.11-.84,0-.8-.53-.8-1.86s0-1.9.8-1.9c1.1,0,2.43.11,3.69.11h2c.69,0,1.07-.3,1.07-1V11c0-.8-.27-1.06-1.07-1.06a1.25,1.25,0,0,0-1.33.76c-.38.8-2.17,4.14-3,4.14-.34,0-2.55-1.1-2.55-1.78a3.57,3.57,0,0,1,.61-1.11A34.09,34.09,0,0,0,237.7.53c0-.23.12-.53.46-.53s1.6.34,1.94.42l.84.23c.91.23,1.29.3,1.29.68s-.38.5-.61.61c-.57.19-.61.34-1,1.29-.15.5-.38,1.18-.76,2.21,0,.11,0,.23,0,.3,0,.5.34.61.76.65h4.11c1.22,0,2.47-.07,3.58-.07.91,0,.87.41.87,1.9s0,1.82-.87,1.82c-1.07,0-2.36-.11-3.58-.07-.76,0-1,.3-1.1,1,0,1.3,0,2.59,0,3.88C243.68,15.56,243.94,15.86,244.63,15.86Zm11.6,14c-.69,0-1,.31-1,1,0,.42,0,.84,0,1.29,0,1-.46,1-2,1s-2,0-2-1c0-1.52.11-3,.11-4.53V10.27c0-1.14-.07-2.32-.07-3.5,0-1.56.79-1.94,2.24-1.94.87,0,1.75,0,2.62,0h4.11c.88,0,1.75,0,2.63,0,1.4,0,2.24.34,2.24,1.94,0,1.18,0,2.32,0,3.5v17c0,1.49.08,3,.08,4.49,0,1-.49,1-2,1s-1.94,0-1.94-1c0-.3,0-.61,0-.91,0-.72-.34-1-1-1Zm4-3.65a1,1,0,0,0,1-1.07V9.7a1,1,0,0,0-1-1.06h-4c-.69.07-1.07.41-1.07,1.06V25.14c0,.65.38,1,1.07,1.07Z"/><path class="cls-1" d="M302.9,6.58c0,.27-.42.5-.84.8a36.43,36.43,0,0,0-5.51,5.1,1.15,1.15,0,0,0-.38.64c0,.31.3.5.64.5a2.09,2.09,0,0,0,.5-.08,7.43,7.43,0,0,1,1.56-.15,11.24,11.24,0,0,1,4.68,1.14,7.85,7.85,0,0,1,4.52,7.38c0,6.73-6,10.23-12.09,10.23-3.16,0-7.65-1.29-7.65-5.17a4.78,4.78,0,0,1,4.87-4.6,6.18,6.18,0,0,1,5.06,2.7A3.77,3.77,0,0,1,299,27.5c0,.27.15.5.45.5,1,0,4.6-2,4.6-5.86s-3.11-5.21-6.42-5.21a11.55,11.55,0,0,0-8.53,3.73c-1.48,1.44-2.85,3-4.22,4.56a.52.52,0,0,1-.42.27c-.79,0-2.73-2.13-2.73-2.74s.57-.88.91-1.14A153.35,153.35,0,0,0,294.42,9.66c.3-.3,1-1,1-1.37s-.34-.45-.65-.45a8.6,8.6,0,0,0-.91.15c-.91.23-6.28,1.33-6.89,1.33-.83,0-.95-2.85-.95-3.5,0-.87,0-1,1.18-1h.91c2.44,0,7.42-.53,9.63-1.41A5.23,5.23,0,0,1,299.17,3C300.7,3,302.9,5.93,302.9,6.58Zm-9.62,18.87A1.58,1.58,0,0,0,291.64,27c0,1.37,1.83,2,3,2,.72,0,1-.69,1-1.3A2.32,2.32,0,0,0,293.28,25.45Z"/></g></g></svg>