<svg viewBox="0 0 220.39 54.55" xmlns="http://www.w3.org/2000/svg"><g fill="#0084d0"><path d="m14.81 1.35c.55 0 1.82 0 2.34-.05.11 0 .4-.05.47-.05.63 0 1.75 1.41 1.75 1.67s-.24.54-.45 1.66c-.88 5-2.73 8.49-7 11.46a24.36 24.36 0 0 1 -5 2.65 2.75 2.75 0 0 1 -.86.23c-.63 0-1.56-1.74-1.56-2.16s.23-.36.46-.41a18.28 18.28 0 0 0 6.49-3.44 12.09 12.09 0 0 0 4.26-7.6 4.48 4.48 0 0 0 .06-.62c0-.5-.45-.55-.91-.55h-9.19c-1.09 0-2.16.05-3.25.05-.81 0-.78-.23-.78-1.4s0-1.49.7-1.49c1.12 0 2.24.05 3.36.05z"/><path d="m44.3 5.1a16.39 16.39 0 0 0 2-.08 1.62 1.62 0 0 1 .31 0c.65 0 1.64 1.38 1.64 1.79s-.29.47-.49.65-1.8 1.85-2.14 2.19c-.52.52-1.77 1.75-2.26 2.19a.8.8 0 0 1 -.52.21c-.39 0-1.59-1-1.59-1.36 0-.21.26-.39.47-.57s1.84-1.67 2.13-1.95a.59.59 0 0 0 .15-.41c0-.29-.31-.32-.52-.32h-8.19c-.91 0-1.82.06-2.73.06-.65 0-.65-.39-.65-1.1s-.05-1.32.65-1.32h2.73zm-3.36 3.59c.18 0 .42.08.42.32s-.13.23-.21.36a4.22 4.22 0 0 0 -.34 1.3 13.17 13.17 0 0 1 -1.4 4.3 12.41 12.41 0 0 1 -3.41 3.9 1.39 1.39 0 0 1 -.76.39c-.42 0-1.74-1.06-1.74-1.51 0-.28.31-.44.52-.57a9.48 9.48 0 0 0 4.45-8c0-.44-.08-.68.36-.68.26.01 1.85.14 2.11.19z"/><path d="m80.43 6.48c0 .44-1.05 1.46-1.38 1.8a45.4 45.4 0 0 1 -14.14 9.81c-.86.42-.88.44-1.09.89a.26.26 0 0 1 -.26.15c-.29 0-.84-1-1-1.35a7.58 7.58 0 0 1 -.78-1.56c0-.29.47-.34.81-.45 5.75-1.69 12.26-6.61 15.95-11.32a.66.66 0 0 1 .46-.28c.49 0 1.43 1.92 1.43 2.31zm-13.43-4.29c.34.23 1.59 1.09 1.59 1.48 0 .6-1.22 2-1.72 2a2.79 2.79 0 0 1 -1-.7 32 32 0 0 0 -3.46-2.42c-.21-.13-.42-.26-.42-.49 0-.39 1-2.06 1.64-2.06a20 20 0 0 1 3.37 2.19z"/><path d="m14.53 36.38c1.14 0 2.26-.06 3.41-.06.52 0 .67.16.67 1.12v.63c0 .81-.08 1.09-.8 1.09-1.07 0-2.14 0-3.23 0h-2.08a.77.77 0 0 0 -.79.78v7.29a.76.76 0 0 0 .79.75h4.06 3.28s.67.24.67 1.51c0 .84 0 1.36-.73 1.36s-2.1-.08-3.22-.08h-12.56c-1.12 0-2.45.08-3.23.08s-.77-.6-.77-1.48c0-1.25 0-1.49.68-1.49s2.18 0 3.28 0h4.04a.76.76 0 0 0 .78-.75v-7.24a.77.77 0 0 0 -.78-.78h-2.06c-1.1 0-2.17 0-3.23 0-.73 0-.81-.28-.81-1.07v-.62c0-1 .16-1.15.68-1.15 1.12 0 2.26.06 3.38.06z"/><path d="m50.76 40.52c0 .44-1 1.45-1.38 1.79a45.43 45.43 0 0 1 -14.14 9.82c-.86.41-.88.44-1.09.88a.25.25 0 0 1 -.26.16c-.29 0-.84-1-1-1.36a7.58 7.58 0 0 1 -.78-1.56c0-.29.47-.34.81-.44 5.75-1.69 12.26-6.61 16-11.32a.68.68 0 0 1 .45-.29c.45 0 1.39 1.92 1.39 2.32zm-13.44-4.3c.34.24 1.59 1.09 1.59 1.48 0 .6-1.22 2-1.72 2a2.79 2.79 0 0 1 -1-.7 33.5 33.5 0 0 0 -3.46-2.43c-.21-.12-.42-.26-.42-.49 0-.39 1-2.06 1.64-2.06a20.66 20.66 0 0 1 3.37 2.2z"/><path d="m76.26 37.91h3.25c.78 0 .76.34.76 1.8 0 .75-.08 1-.76 1-1.09 0-2.16-.05-3.25-.05h-1.2c-.78 0-.78.83-.8 1-.37 4.74-1.8 8.33-5.6 11.38a7.9 7.9 0 0 1 -2.53 1.54 3.49 3.49 0 0 1 -1.92-1.83c0-.28.41-.46.7-.62a13.73 13.73 0 0 0 4.48-3.85 11.42 11.42 0 0 0 1.77-4.51 19 19 0 0 0 .28-2.36.71.71 0 0 0 -.72-.76h-3.44a1.11 1.11 0 0 0 -1.15.6c-.52.81-3.41 4.92-4.19 4.92-.52 0-2.18-1-2.18-1.59 0-.21.28-.42.41-.55a22.65 22.65 0 0 0 6.54-11.35c.05-.31.1-.59.33-.59a16.69 16.69 0 0 1 1.67.44c.26.08 1.54.39 1.54.7 0 .16-.24.29-.37.37-.36.23-.52.65-.78 1.43-.18.49-.39 1.12-.73 1.92a1.2 1.2 0 0 0 -.15.5c0 .34.2.47.49.49zm3.12-2.65c0 .39-.93 1.17-1.27 1.17-.13 0-.24-.13-.34-.24a23.14 23.14 0 0 0 -1.85-2.1c-.1-.11-.23-.24-.23-.37 0-.31 1-1.07 1.27-1.07a11 11 0 0 1 2.42 2.61zm2.62-1.77c0 .36-.94 1.17-1.25 1.17-.16 0-.26-.16-.34-.26a26.91 26.91 0 0 0 -1.88-2.08c-.1-.08-.23-.21-.23-.34 0-.31 1-1.07 1.28-1.07a10.49 10.49 0 0 1 2.42 2.58z"/><path d="m103 41.5c1 0 2.31-.07 2.58-.07.56 0 .58.2.58 1.64 0 .83 0 1.32-.56 1.32-.87 0-1.75 0-2.6 0h-9.56c-.86 0-1.73 0-2.61 0-.54 0-.56-.49-.56-1.3 0-1.46 0-1.66.58-1.66.27 0 1.71.07 2.59.07z"/><path d="m117.93 39.4a28.69 28.69 0 0 1 3.64 2c.86.54 1.64.93 1.64 1.32s-1 2-1.59 2a1.38 1.38 0 0 1 -.57-.28 44 44 0 0 0 -4.22-2.66c-.18-.08-.39-.21-.39-.41 0-.37.97-1.97 1.49-1.97zm17.2-.13a9.75 9.75 0 0 1 -.57 1.64 22.26 22.26 0 0 1 -4.56 6.76 25.43 25.43 0 0 1 -8.9 5.33 1.45 1.45 0 0 0 -.86.55c-.1.13-.21.36-.39.36s-.47-.47-.54-.68c-.34-.7-.66-1.4-1-2.11a.73.73 0 0 1 0-.2c0-.21.34-.29.5-.32.8-.2 2.29-.75 3.09-1.06a17.89 17.89 0 0 0 6.48-4.09 19.35 19.35 0 0 0 4.38-7.32c.08-.23.18-.57.52-.57s1.85 1.24 1.85 1.71zm-10.72-3.47c.57.42 1.61 1.07 1.61 1.44s-1.09 1.9-1.59 1.9c-.18 0-.46-.24-.62-.34a39.37 39.37 0 0 0 -3.8-2.74c-.18-.13-.47-.26-.47-.49 0-.42 1.15-1.82 1.59-1.82a21 21 0 0 1 3.28 2.05zm5.46-2.52a9.19 9.19 0 0 1 1.67 1.2c.36.31 1 .88 1 1.09 0 .39-.81 1.3-1.14 1.3-.16 0-.42-.31-.63-.49-.6-.58-1.22-1.07-1.85-1.59-.1-.08-.23-.18-.23-.31a2.24 2.24 0 0 1 1.18-1.2zm2.32-2.28a9.55 9.55 0 0 1 2.73 2.29c0 .39-.8 1.3-1.14 1.3-.13 0-.26-.13-.34-.21a23 23 0 0 0 -2.11-1.82c-.1-.1-.28-.21-.28-.36s.85-1.2 1.14-1.2z"/><path d="m156.81 40.72a20.52 20.52 0 0 0 2.11-5.88c0-.21.05-.57.29-.57a12 12 0 0 1 1.82.6c.49.18 1.38.49 1.38.78s-.16.26-.29.34a1.41 1.41 0 0 0 -.6.91 40.34 40.34 0 0 1 -2.5 5.67 1.13 1.13 0 0 0 -.15.47c0 .34.23.52.49.73s1.93 1.51 1.93 1.85-1.2 2.11-1.69 2.11a1.07 1.07 0 0 1 -.65-.39c-.34-.37-1.38-1.44-1.83-1.44s-.47.21-.65.42a21.6 21.6 0 0 1 -4.63 4.27c-.63.44-3.57 2.24-4.19 2.24s-1.85-1.59-1.85-1.95.42-.47.75-.6a1.56 1.56 0 0 0 .21-.08 18.89 18.89 0 0 0 7.24-5.2 1.36 1.36 0 0 0 .42-.73.58.58 0 0 0 -.34-.52 21.47 21.47 0 0 0 -3.1-1.22c-.26-.08-.54-.21-.54-.52s.65-2.08 1.32-2.08a18.83 18.83 0 0 1 3.83 1.48 1.18 1.18 0 0 0 .39.1c.49-.01.62-.42.83-.79z"/><path d="m195.57 40.52c0 .44-1 1.45-1.38 1.79a45.43 45.43 0 0 1 -14.14 9.82c-.86.41-.88.44-1.09.88a.25.25 0 0 1 -.26.16c-.29 0-.84-1-1-1.36a7.58 7.58 0 0 1 -.78-1.56c0-.29.47-.34.81-.44 5.75-1.69 12.26-6.61 16-11.32a.64.64 0 0 1 .44-.29c.46 0 1.4 1.92 1.4 2.32zm-13.44-4.3c.34.24 1.59 1.09 1.59 1.48 0 .6-1.22 2-1.72 2a2.87 2.87 0 0 1 -1-.7 33.5 33.5 0 0 0 -3.46-2.43c-.21-.12-.42-.26-.42-.49 0-.39 1-2.06 1.64-2.06a20.66 20.66 0 0 1 3.37 2.2z"/><path d="m214.93 39.87c.52 0 3.12 2.05 3.64 2.49s1.82 1.44 1.82 1.88-1.22 1.76-1.74 1.76a.93.93 0 0 1 -.57-.33 38.18 38.18 0 0 0 -3.78-3.05.46.46 0 0 0 -.26-.1c-.23 0-.31.2-.31.41v7.11c0 1 .05 2.06.05 3.1s0 1.35-1.61 1.35c-1 0-1.49 0-1.49-.88 0-1.18.08-2.35.08-3.52v-14.81c0-.67 0-1.38-.08-2 0-.13 0-.36 0-.47s.08-.39.34-.39.7.08.88.11c1.17.15 2.24.26 2.24.62a.78.78 0 0 1 -.13.34 2.13 2.13 0 0 0 -.29 1.38v1.54 3.9c0 .21.13.26.21.26a.27.27 0 0 0 .23-.1c.19-.24.48-.6.77-.6z"/></g></svg>