<svg viewBox="0 0 1382.31 180.23" xmlns="http://www.w3.org/2000/svg"><g fill="#F786D1"><path d="m471.67 157.15a1.09 1.09 0 0 0 1.22-.7 24.66 24.66 0 0 0 1.5-3.33c.09-.24.18-.45.42-.45a13.82 13.82 0 0 1 2.69.64c.43.15.76.3.76.61s-.27.33-.52.4a.56.56 0 0 0 -.49.3c-.33.61-.64 1.22-1 1.83a.43.43 0 0 0 -.09.28c0 .3.24.39.52.42h5c.92 0 1.8-.06 2.72-.06 1.37 0 1.62.52 1.62 1.77 0 .64-.06 1.47-.06 2.51v14.71c0 1.1.06 2.17.06 3.24 0 .85-.37.85-1.71.85s-1.68 0-1.68-.85v-.43c0-.58-.25-.82-.83-.82h-11.44c-.55 0-.83.21-.83.79v.4c0 .85-.39.85-1.68.85s-1.71 0-1.71-.85c0-1.07.06-2.17.06-3.24v-14.65c0-1-.06-1.87-.06-2.78 0-1.16.49-1.5 1.59-1.5.92 0 1.83.06 2.75.06zm10.16 6a.84.84 0 0 0 .86-.86v-1.4a.83.83 0 0 0 -.86-.85h-11.54a.85.85 0 0 0 -.85.85v1.4a.86.86 0 0 0 .85.86zm-12.39 5a.88.88 0 0 0 .85.85h11.54a.86.86 0 0 0 .86-.85v-1.5a.83.83 0 0 0 -.86-.85h-11.54a.85.85 0 0 0 -.85.85zm0 6.13a.88.88 0 0 0 .85.86h11.54a.86.86 0 0 0 .86-.86v-1.68a.85.85 0 0 0 -.86-.85h-11.54a.87.87 0 0 0 -.85.85z"/><path d="m506.4 160.21c.21.09.55.18.55.42s-.16.28-.28.34c-.49.31-.52.58-.64 1.19-.24 1.41-.43 2.84-.73 4.24a4.84 4.84 0 0 0 -.09.65c0 .18.09.36.3.36a.7.7 0 0 0 .4-.18c2.26-1.59 4.09-2.81 7-2.81 3.75 0 6.65 2.5 6.65 6.35 0 4.33-3.23 6.17-6.93 7.27a20.61 20.61 0 0 1 -4 .82c-.67 0-.85-.28-1.12-.86a6.1 6.1 0 0 1 -.52-2c0-.49.36-.52.76-.55a20 20 0 0 0 4.06-.61c2.17-.55 4.43-1.5 4.43-4.09 0-2.11-1.71-3.24-3.67-3.24-3.2 0-6.44 2.69-8.36 5.1-.25.31-.49.64-.92.64-.27 0-2.32-.3-2.32-1.19a5 5 0 0 1 .31-1.07c.27-1 .52-2 .7-3a48 48 0 0 0 .73-6.65c0-.25 0-.46 0-.67 0-.89 0-1.35.52-1.35a20.9 20.9 0 0 1 3.17.89zm.55-6.6a21.21 21.21 0 0 1 3.48 1.93c.45.27 2.22 1.25 2.22 1.77s-1.25 2.41-1.89 2.41c-.33 0-.73-.43-1-.61a25.4 25.4 0 0 0 -3.84-2.6c-.31-.18-.7-.33-.7-.67s.99-2.23 1.78-2.23z"/><path d="m551.06 170.56h2.26s1.77.09 1.77 1.16a10.69 10.69 0 0 1 -.52 2.32 15.5 15.5 0 0 1 -1.89 4.24c-1.25 1.77-3.2 1.89-5.19 1.89-.67 0-1.65.12-1.65-2.14 0-.42.06-.73.55-.73s.67.06 1 .09h.73a2.51 2.51 0 0 0 2.17-.76 7.11 7.11 0 0 0 1.19-2.9c0-.46-.31-.49-.86-.49h-8.62c-.64 0-.89.19-1.1.83-.61 1.77-.74 2.26-1.35 2.26-.09 0-2.25-.25-2.25-1.07a1.11 1.11 0 0 1 .12-.43 26.7 26.7 0 0 0 1.25-3.69v-.14a.35.35 0 0 0 -.37-.36.43.43 0 0 0 -.21.06c-.89.4-4.24 1.92-5 1.92s-1.37-1.59-1.37-2.14.43-.55.91-.7a36.69 36.69 0 0 0 6.2-2.41.72.72 0 0 0 .49-.73c.06-.46 0-.77.52-.77.21 0 .67.07.92.1a.83.83 0 0 0 .27 0 1.36 1.36 0 0 0 .85-.28 27.53 27.53 0 0 0 2.51-1.62.27.27 0 0 0 .15-.24c0-.15-.18-.21-.3-.24h-8.24c-1.22 0-2.47.09-3.69.09-.7 0-.67-.37-.67-1.44s0-1.34.67-1.34c1.22 0 2.47.06 3.69.06h4.92c.61 0 .85-.24.85-.85v-.74c0-.58-.24-.82-.85-.82h-2.6c-.88 0-1.8.06-2.68.06s-.71-.46-.71-1.31 0-1.32.71-1.32 1.8.07 2.68.07h2.6c.58 0 .79-.22.85-.8a10.55 10.55 0 0 0 -.12-1.68v-.3c0-.37.24-.43.55-.43.52 0 2.11.12 2.69.18.27 0 .82 0 .82.4 0 .21-.15.31-.37.49s-.36.61-.33 1.34.24.8.82.8h.7c.92 0 1.8-.07 2.72-.07.73 0 .7.46.7 1.32s0 1.31-.7 1.31c-.92 0-1.8-.06-2.72-.06h-.7c-.58 0-.82.24-.82.82v.74c0 .61.24.85.82.85h1.65a1.53 1.53 0 0 0 1.4-.55 25.3 25.3 0 0 0 4.19-5.37c.09-.19.18-.43.42-.43a7.34 7.34 0 0 1 1.84.95c.42.21 1.16.58 1.16.91s-.28.34-.46.37c-.52.06-.58.12-1 .73a28.57 28.57 0 0 1 -2.26 2.78.42.42 0 0 0 -.09.27c0 .25.18.31.4.34h.92c1.22 0 2.44-.06 3.7-.06.7 0 .67.37.67 1.37s0 1.41-.67 1.41c-1.26 0-2.48-.09-3.7-.09h-3.72a1.92 1.92 0 0 0 -1.44.48c-1.13.89-2.26 1.74-3.42 2.54a.36.36 0 0 0 -.24.3.23.23 0 0 0 .24.22 44.47 44.47 0 0 0 5.35-1.59 1.46 1.46 0 0 1 .49-.15c.3 0 .73.64 1.06 1.13a1.83 1.83 0 0 1 .25.33c.27.4.7.89.7 1.1a.29.29 0 0 1 -.31.31 1.23 1.23 0 0 1 -.48-.13 1.32 1.32 0 0 0 -.58-.15 2.34 2.34 0 0 0 -.46.09 70.62 70.62 0 0 1 -8.89 1.59c-.24.09-.51.24-.51.55s.27.34.48.34z"/><path d="m585.38 172.72c-.06.49-.21 1.53-.21 2 0 .67.3 1 1 1 1.47 0 3.3-1.07 4.52-1.84a2.39 2.39 0 0 1 .86-.39c.42 0 .39 1.58.39 1.92 0 .55 0 1.53-.52 1.83a15.17 15.17 0 0 1 -5.64 1.56 3.52 3.52 0 0 1 -3.76-3.51 14.69 14.69 0 0 1 .28-2.41 14.14 14.14 0 0 0 .18-1.93c0-.7-.28-1.1-1-1.1a5 5 0 0 0 -2.72 1.29 67 67 0 0 0 -5.8 6.93c-.18.21-.55.79-.85.79-.64 0-2.44-1.53-2.44-2.23 0-.37.49-.79.73-1 3.48-3.45 6.62-7.2 9.89-10.83.28-.31 1.1-1.13 1.1-1.44a.25.25 0 0 0 -.27-.24 16.83 16.83 0 0 0 -1.87.49c-.7.18-4.27 1.12-4.79 1.12s-.55-.24-.82-.7a2.32 2.32 0 0 0 -.22-.36 4.69 4.69 0 0 1 -.7-1.71c0-.4.31-.46.64-.49a64.77 64.77 0 0 0 11-2.2 2.78 2.78 0 0 1 .86-.21c.73 0 2.13 2.13 2.13 2.59s-.39.58-.67.76a38.39 38.39 0 0 0 -4.24 4.13c-.15.15-.4.39-.4.61a.3.3 0 0 0 .31.3h.61a2.71 2.71 0 0 1 2.65 3.05 14.7 14.7 0 0 1 -.23 2.22zm-2.57-17.24c.31.09.59.21.59.58 0 .15-.43 2.59-1.13 2.59-.22 0-1.93-.61-3.24-1.07l-1.31-.46c-1.07-.33-1.74-.45-1.74-.94a7.6 7.6 0 0 1 .46-1.56c.3-.82.42-1 .76-1s4.94 1.64 5.61 1.86z"/><path d="m605.71 171.62c.7 0 5.95 4.22 5.95 5s-1.52 2.35-2.23 2.35c-.24 0-.46-.27-.61-.46a18.94 18.94 0 0 0 -4.64-4.15c-.21-.12-.55-.3-.55-.58a4.18 4.18 0 0 1 2.08-2.16z"/><path d="m633.73 165.58c0 .12.09.18.24.21s.7 0 .7.4c0 .18-.12.24-.33.43-.37.3-.34.88-.34 2.41v7c0 1 .1 2 .1 3s-.4.92-1.56.92-1.59 0-1.59-.92.09-2 .09-3v-6.84c0-.18-.09-.39-.33-.39a.45.45 0 0 0 -.28.12c-.49.46-1.74 1.68-2.38 1.68s-1.65-1.41-1.65-2c0-.42.37-.64.67-.85a32.22 32.22 0 0 0 7.7-8.58.47.47 0 0 1 .39-.28 8.42 8.42 0 0 1 1.93.92l.27.15c.25.13.64.34.64.64s-.33.37-.55.4c-.42.12-.46.24-.7.61a37.63 37.63 0 0 1 -2.93 3.82.26.26 0 0 0 -.09.15zm2.11-10.9c-.4 0-.43 0-.77.43a29.63 29.63 0 0 1 -5.83 5.74 2.55 2.55 0 0 1 -1.07.55c-.49 0-1.61-1.28-1.61-1.8 0-.34.27-.52.51-.67a28.31 28.31 0 0 0 6.11-6c.12-.18.24-.39.46-.39a6.81 6.81 0 0 1 1.74.91l.46.28c.18.09.54.33.54.61s-.38.34-.54.34zm5.67 10.32c-1.16 0-2.29.06-3.42.06-.79 0-.76-.4-.76-1.53s0-1.52.76-1.52c1.13 0 2.26.06 3.42.06h8.28c1.13 0 2.26-.06 3.42-.06.76 0 .76.36.76 1.52s0 1.53-.76 1.53c-1.13 0-2.29-.06-3.42-.06h-.1c-.61 0-.85.24-.85.85v8.86c0 .76.06 1.49.06 2.26 0 3-3.08 3.11-5.34 3.11-.43 0-1.16 0-1.44-.43a5 5 0 0 1 -.45-2c0-.4.09-.86.58-.86a4.34 4.34 0 0 1 .61.06 10 10 0 0 0 1.1.07c1.77 0 1.67-.61 1.67-2.23v-8.83c0-.61-.24-.85-.85-.85zm1.13-7.78c-1 0-2.07.06-3.11.06-.8 0-.76-.43-.76-1.53s0-1.56.76-1.56c1 0 2.07.09 3.11.09h5.44c1 0 2-.09 3.08-.09.82 0 .76.49.76 1.56s.06 1.53-.76 1.53c-1 0-2.08-.06-3.08-.06z"/><path d="m672.81 170.53c-.4 0-.58.15-.58.58v.27c0 .4.18.58.58.58h1.86c.89 0 1.77-.06 2.66-.06.67 0 .64.37.64 1.1s0 1.07-.67 1.07c-.89 0-1.78-.06-2.63-.06h-1.59a.74.74 0 0 0 -.85.85v.37c0 .42.18.76.67.76h.1c1.13-.12 2.6-.43 3.7-.64a3 3 0 0 1 .58-.06c.51 0 .51.67.51 1 0 .12.1.18.16.18s.09 0 .12-.09c2.5-4 3-9.16 3.08-13.8 0-.58-.21-.79-.82-.83-.31 0-.64 0-1 0-.7 0-.67-.43-.67-1.47s0-1.53.67-1.53h1c.61 0 .82-.24.82-.82v-2.03c0-.76 0-1.25-.06-2 0-.12 0-.4 0-.58 0-.4.24-.49.58-.49s1.31.09 1.71.12c.82.06 1.47 0 1.47.49 0 .21-.22.31-.37.43-.4.21-.43.49-.43 1.59v2.56c0 .58.25.79.86.86.94 0 1.92-.1 2.87-.1 1.19 0 1.77.49 1.8 1.71.09 2.51-.09 7.82-.25 10.38-.48 7.66-.55 9.22-5.06 9.22-1.32 0-1.47-.12-1.68-1a6.72 6.72 0 0 1 -.16-1.34c0-.4 0-.92.55-.92h.46a7.72 7.72 0 0 0 .83.06c.88 0 1.4 0 1.64-.89.52-1.68.74-8.09.8-10.16.12-4 .24-4.16-1.25-4.16h-.55c-.58 0-.83.22-.86.8-.15 5.16-.76 10.47-3.29 15.05a22.88 22.88 0 0 1 -1.44 2.23.66.66 0 0 1 -.61.36c-.73 0-2.14-.82-2.14-1.4 0-.22.31-.55.43-.73a.22.22 0 0 0 .06-.19c0-.15-.12-.27-.36-.24q-2.85.49-5.68.94c-1.84.28-3.73.49-5.5.71-.55.06-.73.12-.91.45s-.19.34-.4.34-.43-.55-.58-1a13.18 13.18 0 0 1 -.4-1.77c0-.33.12-.4.95-.4s3.05-.18 4.55-.36c.61-.06.79-.34.79-.92v-.7c0-.58-.24-.85-.82-.85h-1.7c-.89 0-1.77.06-2.66.06-.67 0-.64-.37-.64-1.07s0-1.1.64-1.1c.89 0 1.77.06 2.66.06h1.95c.43 0 .58-.18.58-.58v-.27c0-.4-.15-.58-.58-.58h-1.16c-.7 0-1.37 0-2.08 0s-1.37-.16-1.37-1.07c0-.49.06-1 .06-1.5v-4.18c0-.52-.06-1-.06-1.53 0-.88.58-1.07 1.37-1.07s1.38.07 2.08.07h1.16c.43 0 .58-.19.58-.58v-.31c0-.4-.15-.58-.58-.58h-2.26c-.88 0-1.77.06-2.65.06-.71 0-.64-.4-.64-1.1s0-1.1.64-1.1c.88 0 1.77.06 2.65.06h2.14c.49 0 .7-.21.7-.73v-.24c0-.46-.18-.7-.67-.67-1.1.06-2.6.18-3.69.18a.71.71 0 0 1 -.74-.43 4.56 4.56 0 0 1 -.3-1.31c0-.46.39-.49.94-.49h.4a37.56 37.56 0 0 0 10.2-1.34h.12c.21 0 .52.36 1.1 1.25.49.7.58.79.58 1s-.22.27-.31.27a1.4 1.4 0 0 1 -.49-.15.92.92 0 0 0 -.39-.09c-.16 0-2.81.58-3.24.64s-.79.36-.79 1v.31a.74.74 0 0 0 .85.85h1.77c.89 0 1.77-.06 2.66-.06.7 0 .64.4.64 1.1s0 1.1-.64 1.1c-.89 0-1.77-.06-2.66-.06h-2c-.4 0-.58.18-.58.58v.31a.51.51 0 0 0 .58.58h1.13c.7 0 1.37-.07 2.07-.07s1.38.19 1.38 1.1c0 .49-.06 1-.06 1.5v4.18c0 .52.06 1 .06 1.5 0 .88-.58 1.07-1.34 1.07s-1.41 0-2.11 0zm-4-5.62a.68.68 0 0 0 .7-.73v-.28a.65.65 0 0 0 -.7-.7h-1.25a.68.68 0 0 0 -.74.7v.28a.71.71 0 0 0 .74.73zm.7 2.62a.66.66 0 0 0 -.7-.7h-1.25a.69.69 0 0 0 -.74.7v.34a.69.69 0 0 0 .74.73h1.25a.66.66 0 0 0 .7-.73zm2.72-3.35a.7.7 0 0 0 .73.73h1.25a.71.71 0 0 0 .74-.73v-.28a.68.68 0 0 0 -.74-.7h-1.21a.67.67 0 0 0 -.73.7zm.73 2.65a.68.68 0 0 0 -.73.7v.34a.68.68 0 0 0 .73.73h1.25a.69.69 0 0 0 .74-.73v-.34a.69.69 0 0 0 -.74-.7z"/><path d="m708.07 155.84c.22 0 .61.15.61.43s-.18.3-.36.46c-1.07.79-1.35 10.47-1.35 12.21 0 2.38-.06 6.07 3.24 6.07a7.74 7.74 0 0 0 5.74-3 9.62 9.62 0 0 0 1.86-4.52c.09-.48.15-1 .61-1 .67 0 2.53 1.55 2.53 2.47a11.28 11.28 0 0 1 -1.25 3.57 10.68 10.68 0 0 1 -9.28 5.83 6.74 6.74 0 0 1 -5.37-2.35c-1.37-1.83-1.53-4.79-1.53-7q0-3.61.28-7.24c.09-1.4.36-4.33.36-5.58v-.34c0-.46 0-.76.46-.76a26.33 26.33 0 0 1 3.45.75z"/><path d="m733.33 171.62c.7 0 5.95 4.22 5.95 5s-1.52 2.35-2.23 2.35c-.24 0-.46-.27-.61-.46a18.94 18.94 0 0 0 -4.64-4.15c-.21-.12-.55-.3-.55-.58a4.18 4.18 0 0 1 2.08-2.16z"/><path d="m778.11 155.63c0 .21.15.3.37.3.7 0 1.4-.06 2.13-.06s.73.31.73 1.38 0 1.37-.73 1.37c-1.22 0-2.41-.09-3.63-.09h-4c-.37 0-.73.15-.73.61a.38.38 0 0 0 0 .18 18.73 18.73 0 0 0 .91 3.63.38.38 0 0 0 .34.28.39.39 0 0 0 .37-.21 23 23 0 0 0 1.43-3.15c.09-.24.15-.64.49-.64a10.81 10.81 0 0 1 1.68.73 3.2 3.2 0 0 0 .4.19c.64.3 1 .42 1 .7s-.24.33-.42.39c-.37.1-.43.25-.71.77a37.07 37.07 0 0 1 -2.26 3.91 1.26 1.26 0 0 0 -.24.64.79.79 0 0 0 .27.61c.46.55 1.29 1.4 2 1.4 1 0 1.16-1.83 1.28-2.56 0-.22.09-.46.58-.46.73 0 2.05.37 2.05 1.25a7.59 7.59 0 0 1 -.92 3.24 2.9 2.9 0 0 1 -2.72 1.58 5.83 5.83 0 0 1 -4.18-2.1.74.74 0 0 0 -.55-.28.77.77 0 0 0 -.52.28c-.06.06-.18.15-.3.27-.49.52-1.34 1.35-1.71 1.35-.52 0-1.89-1.26-1.89-1.77 0-.28.55-.71.76-.89a14.58 14.58 0 0 0 1.5-1.43 1.12 1.12 0 0 0 .33-.71 1.58 1.58 0 0 0 -.15-.64 22.7 22.7 0 0 1 -2-6.38.82.82 0 0 0 -.95-.79h-8c-.58 0-.85.24-.85.85v2.62a21 21 0 0 1 -1.27 8c-.21.58-1 2.59-1.68 2.59s-2.26-1.1-2.26-1.71a7.75 7.75 0 0 1 .49-.92 18.18 18.18 0 0 0 1.86-8.91v-1.68c0-.85-.06-1.52-.06-2.07 0-1.16.74-1.35 1.71-1.35s1.9.06 2.84.06h7.1c.55-.06.8-.24.8-.82s-.15-1.74-.15-1.8c0-.43.33-.49.67-.49.18 0 1.74.09 2 .12.86.06 1.35.06 1.35.49 0 .28-.28.37-.52.52s-.31.34-.31.7a2.37 2.37 0 0 0 0 .46c0 .61.31.76.86.82h3.29c.13 0 .28-.06.28-.21a.22.22 0 0 0 -.12-.21 12.62 12.62 0 0 0 -1.41-.74c-.73-.33-1-.45-1-.73s.61-1.46 1-1.46a9.54 9.54 0 0 1 1.93.82c.36.18 1.74.92 1.74 1.25a1.75 1.75 0 0 1 -.28.7.45.45 0 0 0 -.02.2zm-18 17.22c.18.06.46.18.46.45s-.4.37-.49.4c-.28.06-.34.31-.4.52a24.54 24.54 0 0 1 -2.14 4.55.83.83 0 0 1 -.79.52c-.55 0-2.14-.55-2.14-1.16a.71.71 0 0 1 .19-.46 19.32 19.32 0 0 0 2.35-5c.06-.24.12-.58.45-.58s2.13.63 2.5.76zm2.89-10.85c-.67 0-1.34.06-2 .06s-.55-.46-.55-1.07 0-1 .58-1 1.35 0 2 0h2.75 2c.61 0 .58.34.58 1s0 1.07-.55 1.07-1.34-.06-2-.06zm4.94 5.31v1.1c0 .76-.33 1.1-1.09 1.1-.52 0-1-.06-1.5-.06h-1.56c-.3 0-.73 0-.85.52-.06.36-.15.36-1.25.36-.74 0-1.07 0-1.07-.55v-4.33c0-.37 0-.73 0-1.1 0-.79.36-1.1 1.16-1.1.49 0 1 .06 1.46.06h2.14c.49 0 1-.06 1.47-.06.76 0 1.12.27 1.12 1.1v1.1zm3.06 9.4c.61 0 1.22.12 1.55-1.89.1-.49.1-.82.68-.82.76 0 2.28.42 2.28 1.34a8.69 8.69 0 0 1 -1 3.05c-.8 1.25-1.71 1.13-3.42 1.13h-7c-1.5 0-2.9-.21-2.9-2.07 0-.43 0-.83 0-1.26v-1.83c0-.85-.09-1.92-.09-2.23s.18-.42.45-.42c.49 0 2.41.18 3 .21.25 0 .58.09.58.4 0 .15-.12.24-.24.33-.43.28-.49.34-.49 1.47v1.8c0 .85.46.79 1.25.79zm-8-10.16a.86.86 0 0 0 .85.85h.86a.86.86 0 0 0 .85-.85v-.31a.84.84 0 0 0 -.85-.85h-.86a.84.84 0 0 0 -.85.85zm6.23 8.76c-.28 0-.46-.25-.61-.46a30.41 30.41 0 0 0 -2.45-2.5c-.15-.16-.39-.34-.39-.58 0-.46 1.52-1.5 1.92-1.5s1.77 1.37 2.11 1.71 1.46 1.37 1.46 1.8-1.53 1.54-2.01 1.54zm9.52 3.63c-.43 0-.55-.37-.67-.7a24.45 24.45 0 0 0 -2.32-4.15c-.09-.16-.28-.4-.28-.58 0-.55 1.68-1.19 2.14-1.19a.7.7 0 0 1 .55.33 21.13 21.13 0 0 1 1.4 2.2 14.74 14.74 0 0 1 1.47 2.87c.03.71-1.89 1.28-2.26 1.28z"/><path d="m800.43 170.53c-.4 0-.58.15-.58.58v.27c0 .4.18.58.58.58h1.86c.89 0 1.77-.06 2.66-.06.67 0 .64.37.64 1.1s0 1.07-.67 1.07c-.89 0-1.77-.06-2.63-.06h-1.59a.74.74 0 0 0 -.85.85v.37c0 .42.18.76.67.76h.12c1.13-.12 2.6-.43 3.7-.64a3 3 0 0 1 .58-.06c.52 0 .52.67.52 1 0 .12.09.18.15.18s.09 0 .12-.09c2.5-4 3-9.16 3.08-13.8 0-.58-.21-.79-.82-.83-.31 0-.64 0-1 0-.7 0-.67-.43-.67-1.47s0-1.53.67-1.53h1c.61 0 .82-.24.82-.82v-2.03c0-.76 0-1.25-.06-2 0-.12 0-.4 0-.58 0-.4.25-.49.58-.49s1.31.09 1.71.12c.83.06 1.47 0 1.47.49 0 .21-.22.31-.37.43-.4.21-.43.49-.43 1.59v2.56c0 .58.25.79.86.86.94 0 1.92-.1 2.87-.1 1.19 0 1.77.49 1.8 1.71.09 2.51-.09 7.82-.25 10.38-.48 7.66-.55 9.22-5.06 9.22-1.32 0-1.47-.12-1.68-1a6.72 6.72 0 0 1 -.16-1.34c0-.4 0-.92.55-.92h.46a7.72 7.72 0 0 0 .83.06c.88 0 1.4 0 1.65-.89.51-1.68.73-8.09.79-10.16.12-4 .24-4.16-1.25-4.16h-.55c-.58 0-.83.22-.86.8-.15 5.16-.76 10.47-3.29 15.05a22.88 22.88 0 0 1 -1.44 2.23.66.66 0 0 1 -.61.36c-.73 0-2.14-.82-2.14-1.4 0-.22.31-.55.43-.73a.22.22 0 0 0 .06-.19c0-.15-.12-.27-.36-.24q-2.85.49-5.68.94c-1.83.28-3.73.49-5.5.71-.55.06-.73.12-.91.45s-.19.34-.4.34-.43-.55-.58-1a13.18 13.18 0 0 1 -.4-1.77c0-.33.13-.4.95-.4s3.05-.18 4.55-.36c.61-.06.79-.34.79-.92v-.7c0-.58-.24-.85-.82-.85h-1.74c-.89 0-1.77.06-2.66.06-.67 0-.64-.37-.64-1.07s0-1.1.64-1.1c.89 0 1.77.06 2.66.06h1.95c.43 0 .58-.18.58-.58v-.27c0-.4-.15-.58-.58-.58h-1.16c-.7 0-1.37 0-2.07 0s-1.38-.16-1.38-1.07c0-.49.06-1 .06-1.5v-4.18c0-.52-.06-1-.06-1.53 0-.88.58-1.07 1.38-1.07s1.37.07 2.07.07h1.16c.43 0 .58-.19.58-.58v-.31c0-.4-.15-.58-.58-.58h-2.26c-.88 0-1.77.06-2.65.06-.71 0-.64-.4-.64-1.1s0-1.1.64-1.1c.88 0 1.77.06 2.65.06h2.14c.49 0 .7-.21.7-.73v-.24c0-.46-.18-.7-.67-.67-1.1.06-2.59.18-3.69.18a.71.71 0 0 1 -.74-.43 4.56 4.56 0 0 1 -.3-1.31c0-.46.4-.49.94-.49h.4a37.56 37.56 0 0 0 10.2-1.34h.12c.21 0 .52.36 1.1 1.25.49.7.58.79.58 1s-.21.27-.31.27a1.29 1.29 0 0 1 -.48-.15 1 1 0 0 0 -.4-.09c-.15 0-2.81.58-3.24.64s-.79.36-.79 1v.31a.74.74 0 0 0 .85.85h1.77c.89 0 1.77-.06 2.66-.06.7 0 .64.4.64 1.1s0 1.1-.64 1.1c-.89 0-1.77-.06-2.66-.06h-2c-.4 0-.58.18-.58.58v.31a.51.51 0 0 0 .58.58h1.22c.7 0 1.37-.07 2.08-.07s1.37.19 1.37 1.1c0 .49-.06 1-.06 1.5v4.18c0 .52.06 1 .06 1.5 0 .88-.58 1.07-1.34 1.07s-1.41 0-2.11 0zm-4-5.62a.68.68 0 0 0 .7-.73v-.28a.65.65 0 0 0 -.7-.7h-1.25a.67.67 0 0 0 -.73.7v.28a.7.7 0 0 0 .73.73zm.7 2.62a.66.66 0 0 0 -.7-.7h-1.25a.68.68 0 0 0 -.73.7v.34a.68.68 0 0 0 .73.73h1.25a.66.66 0 0 0 .7-.73zm2.72-3.35a.7.7 0 0 0 .73.73h1.25a.71.71 0 0 0 .74-.73v-.28a.68.68 0 0 0 -.74-.7h-1.25a.67.67 0 0 0 -.73.7zm.73 2.65a.68.68 0 0 0 -.73.7v.34a.68.68 0 0 0 .73.73h1.25a.69.69 0 0 0 .74-.73v-.34a.69.69 0 0 0 -.74-.7z"/><path d="m841.1 154.77c0 .19-.22.31-.37.37-.49.18-.61.34-1 1a2.06 2.06 0 0 0 -.3.7.3.3 0 0 0 .33.31 22.49 22.49 0 0 0 3.54-.86 2.39 2.39 0 0 1 .77-.18c.52 0 .67.49.76.91a10 10 0 0 1 .25 1.65c0 .52-1 .64-1.62.76-1.93.4-3.85.74-5.77.95a1.08 1.08 0 0 0 -.92.49 10 10 0 0 0 -1 1.77.24.24 0 0 0 .25.21 1.23 1.23 0 0 0 .55-.18 8.38 8.38 0 0 1 3.32-.79 3.1 3.1 0 0 1 3.48 2.74c.07.28.16.52.46.52a25.83 25.83 0 0 0 3.57-1.74 2.58 2.58 0 0 1 .8-.3c.58 0 1.31 2.35 1.31 2.87 0 .36-.34.49-.91.67-.13.06-.28.09-.43.15-1.22.46-2.41 1-3.6 1.5-.55.21-.8.39-.8 1v.4 2.81c0 1.1-.15 1.22-1.31 1.22-1.31 0-1.86-.06-1.86-.85s.06-1.35.06-2c0-.27-.09-.52-.4-.52-.15 0-3.3 1.35-3.3 3.24 0 2 3 2.23 4.43 2.23a22.22 22.22 0 0 0 5.68-.77 3.82 3.82 0 0 1 .61-.06c.4 0 .61.34.61 2.08 0 .92 0 1.16-.7 1.31a39.76 39.76 0 0 1 -5.86.4 11.38 11.38 0 0 1 -4.83-.79 4.64 4.64 0 0 1 -3-4.37c0-2.75 2.23-4.24 4.34-5.49a20.19 20.19 0 0 1 1.89-1c.3-.16.55-.34.55-.7a4.19 4.19 0 0 0 -.15-.86 1.29 1.29 0 0 0 -1.35-1 10.27 10.27 0 0 0 -5.71 2.69 20 20 0 0 0 -2.56 3.57.51.51 0 0 1 -.43.31c-.55 0-2.59-1.23-2.59-1.77 0-.25.24-.49.39-.68.71-.76 5.13-6.9 5.13-7.48 0-.27-.24-.36-.67-.36s-1.19.09-2.14.09c-.67 0-.79-.15-.79-1.71 0-1.22.12-1.4.89-1.4.51 0 1.31.06 2.19.06h.89c.79 0 1.62 0 1.89-.4a16.46 16.46 0 0 0 1.65-3.94c.06-.33.12-.64.43-.64s3.35 1.41 3.35 1.86z"/><path d="m872.25 179h-4.07c-.3 0-.42.15-.45.46 0 .64-.25.64-1.41.64-1 0-1.46 0-1.46-.52 0-.09.06-1.1.06-1.55v-1.81c0-.15 0-.42-.22-.42a.2.2 0 0 0 -.21.15 20.48 20.48 0 0 1 -1.28 2.62c-.18.34-.4.71-.83.71-.7 0-2.25-1.16-2.25-1.71a2.21 2.21 0 0 1 .39-.74 18.14 18.14 0 0 0 2.41-9.76v-1.93c0-.58 0-1.16 0-1.71 0-1.07.55-1.25 1.5-1.25s1.68.09 2.53.09h4.83c.76 0 1.55-.06 2.32-.06s1.74.09 1.74 1.19c0 .58-.06 1.16-.06 1.74v3.3c0 .52.06 1 .06 1.59 0 1-.92 1.07-1.71 1.07s-1.56-.07-2.35-.07h-5.38c-.48 0-.7.19-.82.68v.12c0 .39.15.64.58.64h.49 1.92 3.42 2c1.49 0 1.7.49 1.7 1.28v1.16 3.09c0 .54.07 1.43.07 1.55 0 .55-.43.52-1.59.52s-1.47 0-1.44-.64c-.04-.27-.19-.43-.49-.43zm-7.15-18.8s-.06 0-.12 0c-.49.39-2.41 1.89-2.93 1.89s-1.68-1.4-1.68-2c0-.34.46-.55.7-.68a24.9 24.9 0 0 0 7.18-6.22c.15-.22.33-.49.64-.49a12.66 12.66 0 0 1 1.89.58c.79.27 1.13.33 1.13.7s-.21.31-.43.37a.14.14 0 0 0 -.12.15s0 .06 0 .12a22 22 0 0 0 5.43 3.79c.22.12.55.27.55.58 0 .64-1.1 2.19-1.83 2.19a7.09 7.09 0 0 1 -2-1.09.24.24 0 0 0 -.16-.07c-.12 0-.18.16-.21.28 0 .49-.09.7-.64.7-.73 0-1.47-.06-2.17-.06h-2.29c-.7 0-1.43.06-2.16.06-.49 0-.61-.18-.64-.64.01-.06-.02-.15-.14-.15zm7.15 5.49a.55.55 0 0 0 .58-.61v-.18a.55.55 0 0 0 -.58-.58h-5.74a.58.58 0 0 0 -.61.58v.18a.57.57 0 0 0 .61.61zm0 3.24c.42 0 .58-.19.58-.58v-.28c0-.39-.16-.58-.55-.58h-5.53a.75.75 0 0 0 -.85.71c0 .54.33.73.82.73zm-3-12.3a.77.77 0 0 0 -.55.27c-.48.49-1 1-1.49 1.44a.43.43 0 0 0 -.12.3c0 .09.06.24.33.28a4.55 4.55 0 0 0 .64 0h3.06c.24 0 .33-.16.33-.28a.45.45 0 0 0 -.12-.27c-.55-.49-1-.95-1.56-1.47a.72.72 0 0 0 -.49-.26zm2.63 20.3a.87.87 0 0 0 .85-.86v-.7a.8.8 0 0 0 -.85-.82h-3.39a.8.8 0 0 0 -.85.82v.7a.87.87 0 0 0 .85.86zm6.12-18.13a15.5 15.5 0 0 0 -.09-1.71c0-.09 0-.18 0-.24 0-.31.25-.37.49-.37.4 0 2.23.16 2.66.22.21 0 .49.09.49.36s-.22.31-.46.46-.34.4-.34 1.44v10.89c0 1.13.06 2.26.06 3.42 0 .83-.27.86-1.4.86s-1.44 0-1.44-.83c0-1.16.06-2.29.06-3.45zm5.16-3.29a12.55 12.55 0 0 0 -.09-1.93.83.83 0 0 1 0-.27c0-.34.25-.37.52-.37a12.08 12.08 0 0 1 1.41.06 3.89 3.89 0 0 0 .58 0c.85.06 1.4.1 1.4.52 0 .25-.21.34-.43.46s-.36.49-.36 1.71v18.84c0 .73.06 1.46.06 2.19 0 3-2.32 3.45-4.83 3.45-1.13 0-2 .06-2-2.35 0-.49 0-1 .64-1 .28 0 .92.12 1.68.12 1.34 0 1.34-.46 1.34-2.2z"/><path d="m913.62 157.92c0 .21-.34.39-.67.64a29.57 29.57 0 0 0 -4.43 4.09.92.92 0 0 0 -.3.52c0 .24.24.4.52.4a1.78 1.78 0 0 0 .39-.07 6 6 0 0 1 1.25-.12 8.94 8.94 0 0 1 3.76.92 6.3 6.3 0 0 1 3.63 5.92c0 5.4-4.79 8.21-9.71 8.21-2.53 0-6.13-1-6.13-4.15a3.83 3.83 0 0 1 3.91-3.69 5 5 0 0 1 4.06 2.16 3.1 3.1 0 0 1 .54 2c0 .21.13.39.37.39a5 5 0 0 0 3.7-4.7c0-3-2.51-4.18-5.16-4.18a9.27 9.27 0 0 0 -6.84 3c-1.19 1.16-2.29 2.41-3.39 3.67a.41.41 0 0 1 -.34.21c-.64 0-2.19-1.71-2.19-2.2s.45-.7.73-.91a124.48 124.48 0 0 0 9.49-9.59c.25-.24.8-.79.8-1.1s-.28-.36-.52-.36-.55.09-.74.12c-.73.18-5 1.07-5.52 1.07-.67 0-.76-2.29-.76-2.81 0-.71 0-.77.94-.77h.74a28 28 0 0 0 7.72-1.13 4.12 4.12 0 0 1 1.16-.33c1.22-.05 2.99 2.27 2.99 2.79zm-7.72 15.14a1.27 1.27 0 0 0 -1.32 1.22c0 1.1 1.47 1.62 2.38 1.62.59 0 .83-.55.83-1a1.87 1.87 0 0 0 -1.89-1.84z"/><path d="m29.31 51.19c-10.56-8-12.7-11.81-12.7-22.68 0-10.69 2.86-15.45 9.25-15.45s9.06 4.27 9.06 15.23v5.17a1 1 0 0 0 1 1h12.56a1 1 0 0 0 1-1v-5.46c0-18.77-7.64-27.91-23.35-28-7 0-12.6 2-16.58 5.92-5.03 5-7.55 13.23-7.55 24.47 0 18.06 7 24.47 19.51 34.23s15.19 14.9 15.19 28.27c0 16-5.5 18.17-10.87 18.17-7.53 0-11.19-5.29-11.19-16.17v-6.89a1 1 0 0 0 -1-1h-12.64a1 1 0 0 0 -1 1v6.83c0 19.38 8.61 29.17 25.6 29.17 17.4 0 25.82-10.73 25.82-32.88 0-20.02-5.25-27.19-22.11-39.93z"/><path d="m140.69 1.67h-12.64a1 1 0 0 0 -1 1v48.24h-22.72v-48.24a1 1 0 0 0 -1-1h-12.64a1 1 0 0 0 -1 1v118.78a1 1 0 0 0 1 1h12.64a1 1 0 0 0 1-1v-56.92h22.72v56.92a1 1 0 0 0 1 1h12.64a1 1 0 0 0 1-1v-118.78a1 1 0 0 0 -1-1z"/><path d="m216.4 1.67h-18a1 1 0 0 0 -1 .83l-19.51 118.79a1 1 0 0 0 .22.81 1 1 0 0 0 .77.35h12.8a1 1 0 0 0 1-.85l5.54-37.06h18.31l6 37.07a1 1 0 0 0 1 .84h13.24a1 1 0 0 0 1-1.17l-20.39-118.78a1 1 0 0 0 -.98-.83zm-1.84 69.25h-14.33c.59-4 1.21-8.13 1.83-12.29 2.06-13.71 4.18-27.78 5.24-37 1.33 10.75 3.7 26.75 7.26 49.29z"/><path d="m296.65 1.67h-21.73a1 1 0 0 0 -1 1v118.78a1 1 0 0 0 1 1h12.64a1 1 0 0 0 1-1v-51.39h7.21c24.76 0 27.93-17.12 27.93-32v-7.27c0-19.6-8.85-29.12-27.05-29.12zm12.4 29.75v6.37c0 13-2.23 19.62-14.43 19.62h-6.06v-43h7.16c11.71-.01 13.33 8.17 13.33 17.01z"/><path d="m405.75 108.83h-29.25v-43.9h25.65a1 1 0 0 0 1-1v-11.62a1 1 0 0 0 -1-1h-25.65v-35.94h27.17a1 1 0 0 0 1-1v-11.7a1 1 0 0 0 -1-1h-40.81a1 1 0 0 0 -1 1v118.78a1 1 0 0 0 1 1h41.14a1 1 0 0 0 1-.85l1.74-11.6a1 1 0 0 0 -.23-.79 1 1 0 0 0 -.76-.38z"/><path d="m543.16 1.67h-13.4a1 1 0 0 0 -1 .74c-1.26 4.73-2.61 9.76-4 14.84-3.89 14.5-7.91 29.43-10.09 39-2.52-11.56-8-31.64-13-49.62l-1.16-4.2a1 1 0 0 0 -1-.73h-13.9a1 1 0 0 0 -1 1.29l22 71.21a8.66 8.66 0 0 1 .47 2.91v44.34a1 1 0 0 0 1 1h12.65a1 1 0 0 0 1-1v-43.19a13.59 13.59 0 0 1 .27-3.26l22.12-72a1 1 0 0 0 -.15-.89 1 1 0 0 0 -.81-.44z"/><path d="m602.12.08c-17.4 0-27 11.29-27 31.78v60c0 21.64 8.55 32.17 26.12 32.17 18.12 0 27.3-10.88 27.3-32.33v-59.86c.02-20.48-9.37-31.76-26.42-31.76zm11.55 31.2v61.06c0 16.07-6 18.24-11.81 18.24-8 0-11.82-5.79-11.82-17.68v-61.64c0-12.2 3.62-17.64 11.73-17.64 2.94 0 11.9 0 11.9 17.66z"/><path d="m719.36 1.67h-12.74a1 1 0 0 0 -1 1v92.41c0 10.65-3.45 15.4-11.19 15.4-7.53 0-11.35-5.21-11.35-15.49v-92.32a1 1 0 0 0 -1-1h-12.64a1 1 0 0 0 -1 1v92.25c0 19.32 8.66 29.12 25.73 29.12s26.19-10.17 26.19-29.41v-92a1 1 0 0 0 -1-.96z"/><path d="m807.71 88v-3.2c0-13.91-2.63-20.84-9.54-24.36 7-3.65 10.59-12 10.59-25v-5.44c0-19.6-8.52-28.33-27.63-28.33h-20.74a1 1 0 0 0 -1 1v118.78a1 1 0 0 0 1 1h12.61a1 1 0 0 0 1-1v-54.45h6.35c10.64 0 12.94 3.33 12.94 18.77v3.28c0 9.71-.08 25.95 1.27 32.61a1 1 0 0 0 1 .8h12.32a1 1 0 0 0 .77-.36 1 1 0 0 0 .21-.81c-1.19-6.69-1.17-22.68-1.15-33.29zm-13.71-57.25v5.25c0 13.45-3.47 18.22-13.24 18.22h-6.76v-39.82h6.14c11.57 0 13.86 6.25 13.86 16.35z"/><path d="m942.4 1.67h-41.35a1 1 0 0 0 -1 1v118.78a1 1 0 0 0 1 1h12.64a1 1 0 0 0 1-1v-55.71h26.08a1 1 0 0 0 1-1v-11.74a1 1 0 0 0 -1-1h-26.08v-36.63h27.71a1 1 0 0 0 1-1v-11.7a1 1 0 0 0 -1-1z"/><path d="m1033.4 1.67h-12.74a1 1 0 0 0 -1 1v92.41c0 10.65-3.45 15.4-11.19 15.4-7.53 0-11.35-5.21-11.35-15.49v-92.32a1 1 0 0 0 -1-1h-12.64a1 1 0 0 0 -1 1v92.25c0 19.32 8.66 29.12 25.73 29.12s26.19-10.17 26.19-29.41v-92a1 1 0 0 0 -1-.96z"/><path d="m1119.66 1.67h-51a1 1 0 0 0 -1 1v11.7a1 1 0 0 0 1 1h18.22v106.08a1 1 0 0 0 1 1h12.64a1 1 0 0 0 1-1v-106.08h18.11a1 1 0 0 0 1-1v-11.7a1 1 0 0 0 -.97-1z"/><path d="m1208.38 1.67h-12.74a1 1 0 0 0 -1 1v92.41c0 10.65-3.45 15.4-11.19 15.4-7.53 0-11.35-5.21-11.35-15.49v-92.32a1 1 0 0 0 -1-1h-12.64a1 1 0 0 0 -1 1v92.25c0 19.32 8.66 29.12 25.73 29.12s26.19-10.17 26.19-29.41v-92a1 1 0 0 0 -1-.96z"/><path d="m1296.73 88v-3.2c0-13.91-2.63-20.84-9.54-24.36 7-3.65 10.59-12 10.59-25v-5.44c0-19.6-8.52-28.33-27.62-28.33h-20.76a1 1 0 0 0 -1 1v118.78a1 1 0 0 0 1 1h12.64a1 1 0 0 0 1-1v-54.45h6.36c10.63 0 12.93 3.33 12.93 18.77v3.23c0 9.71-.08 26 1.27 32.62a1 1 0 0 0 1 .8h12.31a1 1 0 0 0 1-1.17c-1.22-6.65-1.19-22.63-1.18-33.25zm-13.68-57.29v5.29c0 13.45-3.46 18.22-13.24 18.22h-6.76v-39.82h6.15c11.53 0 13.85 6.25 13.85 16.35z"/><path d="m1382.06 109.18a1 1 0 0 0 -.75-.35h-29.25v-43.9h25.64a1 1 0 0 0 1-1v-11.62a1 1 0 0 0 -1-1h-25.64v-35.94h27.16a1 1 0 0 0 1-1v-11.7a1 1 0 0 0 -1-1h-40.8a1 1 0 0 0 -1 1v118.78a1 1 0 0 0 1 1h41.17a1 1 0 0 0 1-.85l1.71-11.6a1 1 0 0 0 -.24-.82z"/></g></svg>