<svg viewBox="0 0 859.08 54.48" xmlns="http://www.w3.org/2000/svg"><g fill="#F786D1"><path d="m9 21c0 2.52-1.62 4.5-4.74 4.5-2 0-4.26-1.32-4.26-5a26.54 26.54 0 0 1 2.82-10.36 2.22 2.22 0 0 1 2.52-1.56h.6c.9 0 1.32.12 1.32.48a2.59 2.59 0 0 1 -.42 1c-1.2 2.1-2.28 4.8-2.28 5.76 0 .72.48 1.08 1.26 1.32a3.85 3.85 0 0 1 3.18 3.86zm13.44 0a4.3 4.3 0 0 1 -4.68 4.5c-2 0-4.26-1.32-4.26-5a26.94 26.94 0 0 1 2.76-10.3c.66-1.38 1.08-1.62 2.52-1.62h.6c.9 0 1.32.12 1.32.54a2.34 2.34 0 0 1 -.42 1c-1.14 2-2.22 4.74-2.22 5.7 0 .72.48 1.08 1.26 1.32a3.8 3.8 0 0 1 3.12 3.86z"/><path d="m62.46 36.18c0 6.24-.6 7.08 5.82 7.08 4.32 0 10.68-.72 15-1 .24 0 .6-.06.84-.06 1.14 0 1.14 1.62 1.14 3s.06 2.94-1 3.54a5.76 5.76 0 0 1 -2 .36c-2.22.12-8.64.42-10.62.42h-2.94c-3.6 0-8.4-.18-10.38-1.62-2.22-1.56-2.4-4.56-2.4-7.26v-11.36a1.29 1.29 0 0 0 -1.62-1.28l-3.06.6c-1 .18-7.86 1.62-8.22 1.62-.78 0-1-.6-1.2-1.38a23.32 23.32 0 0 1 -.72-3.84c0-1 .9-1.2 4-1.68 1.32-.24 2.94-.48 5.1-.9l4.32-.84a1.74 1.74 0 0 0 1.44-1.74v-7.78a39.51 39.51 0 0 0 -.24-6c0-.18-.06-.48-.06-.72 0-.42.18-.6.66-.6.3 0 5 .6 5.7.66.42.06 1.56.18 1.56.78a3.81 3.81 0 0 1 -.58 1.26 2.41 2.41 0 0 0 -.48 1.68c-.06 1.74-.06 3.42-.06 5.16v4.14a1.26 1.26 0 0 0 1.54 1.26l12.9-2.52c.78-.18 6.84-1.5 6.9-1.5 1.14 0 4.44 3.12 4.44 4.32a2.53 2.53 0 0 1 -.6 1.2c-1 1-1.86 2.1-2.7 3.18-2.76 3.36-5.52 6.6-8.34 9.78-.6.72-1.38 1.74-2.4 1.74s-4.62-2.22-4.62-3.54c0-.42.66-.9 1.08-1.32 1-.9 6.72-6.36 6.72-7.14a.38.38 0 0 0 -.42-.42c-.36 0-1.68.3-2.1.36l-10.86 2.18a1.88 1.88 0 0 0 -1.56 1.92z"/><path d="m132.24 15.78a1.86 1.86 0 0 0 1.8-1.56c.12-1.2.42-7.62.48-9.06 0-.6-.06-1.38.78-1.38.36 0 5.64 1 6.24 1.2.36.06.9.24.9.66s-.42.78-.66 1c-.72.66-.66.72-.84 2.58-.12.84-.48 4.44-.48 5a1.34 1.34 0 0 0 1.44 1.38l5.76-.06c1.74 0 6.54-.24 6.6-.24 1.32 0 3.42 2.28 3.42 3.48 0 .6-.84 7.26-1 8.4-.6 4.62-1.5 13-3.36 17-1.62 3.54-4.08 4.68-7.8 5.22a23.15 23.15 0 0 1 -3.48.24 1.9 1.9 0 0 1 -2.1-1.2 12.79 12.79 0 0 1 -1.56-4.2 1 1 0 0 1 1.08-1.08c.6 0 2 .24 3.42.24 3.54 0 4.8-1.62 5.7-5.88a107.66 107.66 0 0 0 1.8-14.34c0-1.62-.84-1.5-3.54-1.5l-6.06.06c-1.5 0-1.74 1.26-1.92 2.16a49.92 49.92 0 0 1 -11.76 23.34c-.84.9-4.44 4.68-5.52 4.68s-4.56-2.82-4.56-3.9c0-.48.48-.78.84-1.08a41.44 41.44 0 0 0 13-18.12 31.78 31.78 0 0 0 1.56-5.76 1.23 1.23 0 0 0 -1.26-1.26l-8.46.06c-1.62 0-5.22.24-6 .24-1.32 0-1.5-1-1.5-3.3 0-2.58.12-3.12 1.44-3.12 2 0 4 .06 6 .06z"/><path d="m214.26 44.58c0 2.64.12 5.28.12 7.86 0 1.62-.78 1.8-3 1.8-3.3 0-3.9-.18-3.9-1.74 0-2.58.12-5.16.12-7.74v-16.32c0-.36.18-1.68-1-1.68-.6 0-1.86 1-2.34 1.38-1.8 1.32-11.34 7.68-12.9 7.68-1 0-4.68-3.66-4.68-4.8 0-.6.54-.84 1-1 7.86-3.3 17.52-10 23.58-15.9a50.86 50.86 0 0 0 8.16-10.12c.18-.3.54-.9 1-.9s2.28 1.26 4.08 2.46c.66.42 2.34 1.44 2.34 2.16 0 .36-.3.48-.6.6a3.24 3.24 0 0 0 -2.34 1.44 116.93 116.93 0 0 1 -8.22 9c-.9.9-1.38 1.32-1.38 2.7z"/><path d="m272.94 9.12c.48.18 1.2.42 1.2 1 0 .36-.24.42-.84.78-1 .54-1.26 1.08-1.86 2.58a47.61 47.61 0 0 0 -3.36 17c0 1.14.24 8.4 1.62 8.4.54 0 1.38-1.74 1.62-2.34.36-.78.72-1.44 1.26-1.44s2.16 1.26 2.16 1.92-2.4 6-2.4 8.7c0 .6.18 2 .24 2.52a5.32 5.32 0 0 1 .12.9c0 1.5-3.42 2.94-4.68 2.94-1 0-1.74-1.32-2.52-2.94-2.82-5.7-3.66-12.12-3.66-18.42a71.79 71.79 0 0 1 3.06-19.86 27.6 27.6 0 0 0 .78-3c.12-.54.24-1.32.9-1.32.48.06 5.52 2.22 6.36 2.58zm7.44 28.68c2.62 3.2 5.1 4.2 9.12 4.2a49.11 49.11 0 0 0 13.2-1.92 4.27 4.27 0 0 1 1.26-.24c1 0 1.08 1.44 1.08 4.5 0 .72.06 1.8-.72 2.22-1.68.9-11.82 1.8-14.22 1.8-9.72 0-13.74-5-13.74-6s2.1-5.1 3.24-5.1a1.06 1.06 0 0 1 .78.54zm2.16-26.22a38.5 38.5 0 0 0 7.86.9 39.22 39.22 0 0 0 9.12-1.2 5.79 5.79 0 0 1 1.08-.18c.84 0 1.08.72 1.2 1.44a29.42 29.42 0 0 1 .24 3.24c0 1.26 0 1.74-1.14 2a69.93 69.93 0 0 1 -10.08.84c-1.86 0-9.24-.36-10.5-1.2-.66-.42-.6-1.68-.6-2.34 0-2.88.3-3.78 1.26-3.78a7.91 7.91 0 0 1 1.56.28z"/><path d="m368.46 12.6c1.56 0 3.06-.06 4.62-.06 2.4 0 4 .24 4 3.06 0 1.8-.06 3.6-.06 5.4v20.22c0 1.8.06 3.66.06 5.46s-.36 1.86-3.6 1.86c-2.76 0-2.82-.12-3.06-1.26-.3-1.38-1.08-1.38-2.88-1.38h-19.54c-2.64 0-6.18.12-7.74.12s-1.44-.84-1.44-3.48c0-2.4-.12-3.18 1.32-3.18s4.92.18 7.8.18h20.7a1.81 1.81 0 0 0 1.8-1.8v-17a1.77 1.77 0 0 0 -1.8-1.8h-20.7c-2.58 0-6.24.18-7.74.18-1.32 0-1.44-.84-1.44-3.84 0-2.4.24-2.88 1.32-2.88.9 0 1.74.12 2.58.12 1.74.06 3.48.06 5.22.06z"/><path d="m431.34 20.7c1.2 0 7.2 4.74 8.4 5.76.84.72 4.2 3.3 4.2 4.32s-2.82 4.14-4 4.14a2.18 2.18 0 0 1 -1.32-.78 89 89 0 0 0 -8.7-7 1.07 1.07 0 0 0 -.6-.24c-.54 0-.72.48-.72 1v16.32c0 2.4.12 4.74.12 7.14 0 2.76-.06 3.12-3.72 3.12-2.4 0-3.42-.06-3.42-2 0-2.7.18-5.4.18-8.1v-34.24c0-1.56-.12-3.18-.18-4.68 0-.3-.06-.84-.06-1.08 0-.6.18-.9.78-.9.36 0 1.62.18 2 .24 2.7.36 5.16.6 5.16 1.44a1.77 1.77 0 0 1 -.3.78c-.54.66-.66 1.56-.66 3.18 0 .9.06 2 .06 3.54v9c0 .48.3.6.48.6a.65.65 0 0 0 .54-.24c.42-.48 1.1-1.32 1.76-1.32zm14.28-5.94c0 .84-2.22 2.64-2.94 2.64-.36 0-.66-.42-.9-.66a61.61 61.61 0 0 0 -4.08-4.8c-.3-.3-.54-.54-.54-.84 0-.72 2.28-2.4 2.94-2.4s5.52 5.22 5.52 6.06zm6.24-4.2c0 .84-2.16 2.7-2.94 2.7-.36 0-.66-.48-.84-.72-1.26-1.62-2.76-3.3-4.14-4.74-.24-.3-.54-.54-.54-.84 0-.72 2.28-2.46 2.94-2.46s5.52 5.28 5.52 6.06z"/><path d="m510.72 9.3c1.8 0 3.54.06 5.34 0 .78-.06 1.5-.12 2.28-.12 1.56 0 1.62.72 1.62 3.78 0 2.1-.12 2.7-1.74 2.7-2.52 0-5-.12-7.5-.12h-3.06a1.77 1.77 0 0 0 -1.8 1.8v6.72a1.79 1.79 0 0 0 1.8 1.74h10.2c2.76 0 5.64-.12 7.8-.12 1.62 0 1.62.66 1.62 3.42 0 1.74 0 3.06-1.56 3.06-2.64 0-5.28-.12-7.86-.12h-10.32a1.67 1.67 0 0 0 -1.68 1.62v5.1c0 4.56.3 4.68 6.78 4.68a79.24 79.24 0 0 0 10.08-.54 4.54 4.54 0 0 1 .9-.06c1.38 0 1.26 2.22 1.26 3.12 0 3.6-.54 3.72-4.86 3.72-19.92 0-20.7-.3-20.7-9.9v-6a1.74 1.74 0 0 0 -1.74-1.78h-9.42c-2.52 0-5 .12-7.5.12-1.66.04-1.66-1.12-1.66-2.84 0-2.88.06-3.66 1.5-3.66s4.74.18 7.62.18h9.42a1.74 1.74 0 0 0 1.74-1.74v-6.78a1.72 1.72 0 0 0 -1.8-1.74h-3c-2.4 0-4.86.06-7.32.06-1.68 0-2-.3-2-2.22 0-3.84 0-4.2 1.92-4.2 2.34 0 4.86.12 7.5.12z"/><path d="m587.58 13.08c1.56 0 3.06-.06 4.62-.06 2.4 0 3.9.24 3.9 3.12 0 1.8-.06 3.6-.06 5.4v20.16c0 1.86.12 3.66.12 5.46s-.36 1.92-3.6 1.92c-2.76 0-2.82-.12-3.06-1.32s-1.14-1.38-2.88-1.38h-19.5c-2.64 0-6.24.18-7.74.18s-1.44-.84-1.44-3.54c0-2.4-.12-3.12 1.32-3.12s4.92.12 7.8.12h20.7a1.85 1.85 0 0 0 1.8-1.8v-17a1.85 1.85 0 0 0 -1.8-1.8h-20.76c-2.58 0-6.18.18-7.68.18-1.32 0-1.44-.84-1.44-3.78 0-2.46.24-2.94 1.32-2.94.9 0 1.74.12 2.58.12 1.74.06 3.48.06 5.22.06zm13-3.12c0 .9-2.16 2.76-2.88 2.76-.3 0-.54-.3-.72-.54a56.76 56.76 0 0 0 -4.5-4.8c-.18-.18-.54-.48-.54-.78 0-.66 2.28-2.52 2.88-2.52s5.78 5.1 5.78 5.92zm5.76-4.14c0 .9-2.1 2.76-2.88 2.76-.3 0-.6-.36-.78-.6a55.31 55.31 0 0 0 -4.44-4.74c-.18-.18-.54-.42-.54-.72 0-.72 2.16-2.52 2.88-2.52s5.78 5 5.78 5.82z"/><path d="m661.26 12.6c1.56 0 3.06-.06 4.62-.06 2.4 0 4 .24 4 3.06 0 1.8-.06 3.6-.06 5.4v20.22c0 1.8.06 3.66.06 5.46s-.36 1.86-3.6 1.86c-2.76 0-2.82-.12-3.06-1.26-.3-1.38-1.08-1.38-2.88-1.38h-19.54c-2.64 0-6.18.12-7.74.12s-1.44-.84-1.44-3.48c0-2.4-.12-3.18 1.32-3.18s4.92.18 7.8.18h20.7a1.81 1.81 0 0 0 1.8-1.8v-17a1.77 1.77 0 0 0 -1.8-1.8h-20.7c-2.58 0-6.24.18-7.74.18-1.32 0-1.44-.84-1.44-3.84 0-2.4.24-2.88 1.32-2.88.9 0 1.74.12 2.58.12 1.74.06 3.48.06 5.22.06z"/><path d="m735.66 11.58c1.56 0 3.12-.06 4.68-.06 2.46 0 3.84.42 3.84 3.18 0 1.8-.06 3.6-.06 5.34v20.34c0 2.1.12 4.26.12 6.36s-.54 2.1-3.36 2.1c-3.48 0-3.36-.3-3.48-2s-.78-1.8-2.88-1.8h-20.76c-2 0-2.82.06-2.94 1.8s.12 2-3.48 2c-2.82 0-3.3 0-3.3-2.16s.12-4.2.12-6.3v-20.38c0-1.8-.06-3.6-.06-5.4 0-2.52 1.2-3.12 3.6-3.12 1.62 0 3.3.06 4.92.06zm-23.16 6.18a1.76 1.76 0 0 0 -1.8 1.74v17.64a1.81 1.81 0 0 0 1.8 1.8h23.28a1.81 1.81 0 0 0 1.8-1.8v-17.64a1.72 1.72 0 0 0 -1.8-1.74z"/><path d="m800.34 5.46c0 .36-.42.6-.72.72-1 .36-1.2.66-2 2a4 4 0 0 0 -.62 1.42.58.58 0 0 0 .66.6 43.41 43.41 0 0 0 7-1.68 4.56 4.56 0 0 1 1.5-.36c1 0 1.32 1 1.5 1.8a19.17 19.17 0 0 1 .48 3.24c0 1-1.92 1.26-3.18 1.5-3.78.78-7.56 1.44-11.34 1.86a2.12 2.12 0 0 0 -1.8 1 19.37 19.37 0 0 0 -2 3.48.46.46 0 0 0 .48.42 2.31 2.31 0 0 0 1.08-.36 16.6 16.6 0 0 1 6.54-1.56c3.84 0 6.06 1.62 6.84 5.4.12.54.3 1 .9 1s6.06-2.88 7-3.42a5 5 0 0 1 1.56-.6c1.14 0 2.58 4.62 2.58 5.64 0 .72-.66 1-1.8 1.32-.24.12-.54.18-.84.3-2.4.9-4.74 1.92-7.08 2.94-1.08.42-1.56.78-1.56 2v.78c0 1.86.06 3.66.06 5.52 0 2.16-.3 2.4-2.58 2.4-2.58 0-3.66-.12-3.66-1.68 0-1.32.12-2.64.12-3.9 0-.54-.18-1-.78-1-.3 0-6.48 2.64-6.48 6.36 0 4 5.82 4.38 8.7 4.38a43.87 43.87 0 0 0 11.1-1.56 7.39 7.39 0 0 1 1.2-.12c.78 0 1.2.66 1.2 4.08 0 1.8-.06 2.28-1.38 2.58-2.28.54-8.94.78-11.52.78a22.23 22.23 0 0 1 -9.48-1.56c-3.66-1.62-6-4.5-6-8.58 0-5.4 4.38-8.34 8.52-10.8 1.2-.72 2.46-1.38 3.72-2 .6-.3 1.08-.66 1.08-1.38a8.24 8.24 0 0 0 -.3-1.68 2.5 2.5 0 0 0 -2.64-2c-3.36 0-8.88 2.88-11.22 5.28a39.33 39.33 0 0 0 -5 7 1 1 0 0 1 -.84.6c-1.08 0-5.1-2.4-5.1-3.48 0-.48.48-1 .78-1.32 1.38-1.5 10.08-13.56 10.08-14.7 0-.54-.48-.72-1.32-.72s-2.34.18-4.2.18c-1.32 0-1.56-.3-1.56-3.36 0-2.4.24-2.76 1.74-2.76 1 0 2.58.12 4.32.12h1.74c1.56 0 3.18-.06 3.72-.78a32.92 32.92 0 0 0 3.24-7.74c.12-.66.24-1.26.84-1.26s6.72 2.76 6.72 3.66z"/><path d="m839.7 25.14c-.9 0-1.32-.12-1.32-.54a2.57 2.57 0 0 1 .36-1c1.2-2 2.28-4.74 2.28-5.76 0-.66-.48-1-1.26-1.26a3.8 3.8 0 0 1 -3.12-3.84 4.3 4.3 0 0 1 4.68-4.5c2 0 4.26 1.32 4.26 4.92a26.94 26.94 0 0 1 -2.76 10.38c-.66 1.38-1.08 1.62-2.52 1.62zm13.44 0c-.9 0-1.32-.12-1.32-.48a2.59 2.59 0 0 1 .42-1c1.14-2.1 2.28-4.8 2.28-5.82 0-.66-.48-1-1.26-1.26a3.85 3.85 0 0 1 -3.18-3.84c0-2.52 1.62-4.5 4.74-4.5 2 0 4.26 1.32 4.26 4.92a26.55 26.55 0 0 1 -2.82 10.44 2.22 2.22 0 0 1 -2.52 1.56z"/></g></svg>