<svg viewBox="0 0 549.86 130.83" xmlns="http://www.w3.org/2000/svg"><g fill="#db2da1"><path d="m9 18.62c0 2.52-1.62 4.5-4.75 4.5-2 0-4.26-1.32-4.26-5a26.54 26.54 0 0 1 2.83-10.37 2.22 2.22 0 0 1 2.53-1.56h.65c.9 0 1.32.12 1.32.48a2.59 2.59 0 0 1 -.42 1c-1.2 2.1-2.29 4.8-2.29 5.76 0 .72.48 1.08 1.27 1.32a3.86 3.86 0 0 1 3.12 3.87zm13.45 0a4.3 4.3 0 0 1 -4.68 4.5c-2 0-4.27-1.32-4.27-5a26.78 26.78 0 0 1 2.78-10.31c.66-1.38 1.08-1.62 2.52-1.62h.6c.9 0 1.32.12 1.32.54a2.34 2.34 0 0 1 -.42 1c-1.14 2-2.22 4.74-2.22 5.7 0 .72.48 1.08 1.26 1.32a3.81 3.81 0 0 1 3.12 3.87z"/><path d="m63.06 3.12c0 .3-.24.48-.54.66-.84.42-1.26.48-2.1 2.65-.54 1.44-1 2.94-1.5 4.38a2.12 2.12 0 0 0 -.18.84c0 1 .78 1.26 1.62 1.38 2 .24 4.08.42 6.12.48 1.15 0 2-.06 2 1.14a17.77 17.77 0 0 1 -.66 3.91c-.24.84-.48 1.32-1.32 1.32a75.3 75.3 0 0 1 -8.17-.9 1.75 1.75 0 0 0 -.54-.12c-1 0-1.38.66-1.62 1.44s-1 4.5-1 5c0 1.26 1.27 1.33 2.11 1.39 1.8.18 3.6.24 5.4.24 1.62 0 1.8.42 1.8 1a13.27 13.27 0 0 1 -.78 4c-.3.9-.66 1.38-1.68 1.38-1.38 0-4.2-.42-5.64-.6a6.24 6.24 0 0 0 -1-.12c-1.62 0-1.62 1.5-1.62 4.09 0 5.22 2.77 8 8 8 2.7 0 6.85-.72 8.71-2.82a6 6 0 0 0 1.32-4.26 25.93 25.93 0 0 0 -2-8.71 3.16 3.16 0 0 1 -.24-1.08c0-1.44 4.44-2.23 5.1-2.23 1 0 1.14 1 1.62 2.29a32.64 32.64 0 0 1 2 10.51c0 9.31-8.59 12.55-16.58 12.55-9.07 0-14.41-5.23-14.41-14.35 0-1.51.24-3.79.24-4.39 0-1.32-1-1.68-2.41-2.1a19.92 19.92 0 0 1 -3.54-1.44c-.66-.36-1.14-.66-1.14-1.44 0-.36.6-5.11 2.1-5.11a3.3 3.3 0 0 1 1.5.6 10.93 10.93 0 0 0 3.85 1.68c1 0 1.2-.84 1.56-2.58.12-.66.36-1.44.54-2.34a12.41 12.41 0 0 0 .24-1.32c0-1.32-1.08-1.68-1.92-2-4.21-1.63-5.41-2.17-5.41-3.25s1-5.16 2.22-5.16a3.3 3.3 0 0 1 1.39.66 37.47 37.47 0 0 0 4.08 2.1 1.85 1.85 0 0 0 .78.18c1 0 1.2-.78 1.38-1.44.54-2 1.86-6.31 2.34-8 .18-.66.3-1.2.91-1.2a22.64 22.64 0 0 1 3 1c1.01.29 4.07 1.13 4.07 2.09z"/><path d="m106.13 23.84a45.58 45.58 0 0 0 5.52-1.8c5.35-1.92 11.65-4.32 17.3-4.32 7 0 12.49 4.5 12.49 11.77 0 7.45-5.46 12-11.77 14.71-2.1.9-7 2.52-9.25 2.52-2 0-2.82-4.08-2.82-4.56 0-1 1.14-1.14 1.92-1.2a27 27 0 0 0 10.27-3c3.18-1.81 5.89-4.75 5.89-8.59s-3.07-6.07-6.68-6.07c-5.83 0-13.64 3.31-18.74 6.07a3.15 3.15 0 0 1 -1.68.6c-1.56 0-3.72-3.6-3.72-4.87-.05-.78.61-1.1 1.27-1.26z"/><path d="m182.4 2.94a22.25 22.25 0 0 1 2.89-.3c1.68 0 1.56.9 1.68 2.28a81.91 81.91 0 0 0 1.86 10.75c.18.79.36 1.81 1.38 1.81s10.69-5.65 12.25-6.67a3.84 3.84 0 0 1 1.56-.6c.79 0 1.81 1.8 2.17 2.4.48.78 1.74 2.82 1.74 3.67 0 .6-.66.78-1.14 1a110.58 110.58 0 0 0 -14.79 6.86c-3.18 1.74-8.29 4.69-10.81 7.09-1.56 1.5-2.94 3.12-2.94 5.4s2.1 3.67 4 4.33a24.07 24.07 0 0 0 8 1.08 90.78 90.78 0 0 0 15.68-1.56 1.66 1.66 0 0 1 .54-.06c.84 0 .9 2.46.9 3.72v.72c0 1.56-.06 2.23-1.26 2.53-2.29.6-13.64 1-16.52 1-4.44 0-8.35-.24-12.31-2.59a10.55 10.55 0 0 1 -5.53-9.24c0-6.55 5.41-10.81 10.39-14.06a1.86 1.86 0 0 0 1-1.56 2.05 2.05 0 0 0 -.24-1.08c-.72-2.16-2.4-8.53-3-11a38.33 38.33 0 0 0 -1.14-4 3.16 3.16 0 0 1 -.18-.72c-.08-.9 1.9-.9 3.82-1.2z"/><path d="m78.26 88.49a43.06 43.06 0 0 0 6.24-.3 3.17 3.17 0 0 1 .78-.06c.91 0 1.51.78 2.23 1.56s2.22 2.4 2.22 3.48c0 .66-.84 1.26-1.32 1.62s-4.87 5-5.59 5.77c-2.1 2.16-5.22 5.23-7.44 7.21-.43.36-.85.84-1.45.84-1 0-4.38-2.64-4.38-3.66 0-.61 1.08-1.45 1.5-1.81 1.08-1 7.75-6.84 7.75-7.68s-1.32-.73-1.86-.73h-25.77c-2.76 0-5.46.19-8.17.19-1.56 0-1.62-.67-1.62-3.07v-1.2c0-1.56.12-2.28 1.5-2.28 2.77 0 5.53.12 8.29.12zm-10.51 9.61c.42.06 1.26.06 1.26.72a.91.91 0 0 1 -.36.6c-.78.84-1 3.18-1.2 4.32-1.74 11-5.47 18.62-14.42 25.53-.48.36-1.32 1.08-2 1.08-1 0-4.92-3.12-4.92-4.2 0-.54.6-.78 1.44-1.33a28.46 28.46 0 0 0 12.55-17.47 32.29 32.29 0 0 0 1-8.95c0-.48 0-.78.6-.78.76 0 5.15.38 6.05.48z"/><path d="m120.54 89.45a58.46 58.46 0 0 1 4 4.68c.78 1 4.44 5.59 4.44 6.43 0 1.26-4 3.54-4.8 3.54-.67 0-1.15-.84-1.51-1.32a106.48 106.48 0 0 0 -7-9.31c-.3-.36-.9-1-.9-1.44 0-1.08 3.84-3.3 4.62-3.3a1.59 1.59 0 0 1 1.15.72zm33.15-2.76c.48.12 1.75.36 1.75.9 0 .3-.36.66-.54.84a2.47 2.47 0 0 0 -1 1.92c-1.74 12.79-6.36 23.48-16.57 31.83a50.77 50.77 0 0 1 -11.2 6.82 5.51 5.51 0 0 1 -1.68.54c-1.09 0-4.15-3.54-4.15-4.45 0-.72 1.44-1.26 2-1.44 9.07-4 17.42-11.05 21.39-20.24a41 41 0 0 0 3.31-16.9c0-.42.06-.84.6-.84s5.31.84 6.09 1.02z"/><path d="m193.46 113.41c0 7.27 1.2 7.15 9.42 7.15 6 0 14.3-.12 20.06-1.26.18 0 .42-.06.6-.06 1.15 0 1.21 1.5 1.21 3.3s0 3.31-1.93 3.55c-4.08.6-16.33.66-21 .66-4 0-10.75.24-13.33-3.49-1.5-2.22-1.56-6.9-1.56-9.55v-20.36a76.94 76.94 0 0 0 -.3-8.34v-.48a.62.62 0 0 1 .66-.67c.6 0 4.62.85 5.46 1s1.81.31 1.81.91-.9.84-1 2.1c-.06.42-.06 1.56-.06 2.64v8.79c0 1 .78 1.5 1.74 1.5 6.42 0 16.93-3.3 22.4-6.67a2.76 2.76 0 0 1 1-.42c.54 0 1.62 1.63 2.34 2.77.18.24.3.42.42.6a10.07 10.07 0 0 1 1.62 2.76c0 .48-.54.6-.9.6s-.48-.06-.78-.06c-.12 0-.3-.06-.42-.06a5.64 5.64 0 0 0 -2.16.66c-7.75 3.24-14.83 5.29-23.3 5.71-1.08.06-1.92.54-1.92 1.68zm34-21c0 .9-2.34 2.47-3.06 2.47-.42 0-.66-.43-.91-.73a51.71 51.71 0 0 0 -3.78-5c-.18-.24-.54-.6-.54-.9 0-.66 2.46-2.22 3.06-2.22s5.22 5.7 5.22 6.42zm6.24-3.84c0 1-2.34 2.58-3.06 2.58-.36 0-.6-.42-.84-.72-1.26-1.74-2.52-3.42-3.9-5-.18-.24-.48-.55-.48-.79 0-.78 2.46-2.28 3.06-2.28s5.21 5.64 5.21 6.25z"/><path d="m274.84 97.2c1.68 0 1.8-1.5 1.8-2.82v-.85c0-1.5-.06-9-.24-10 0-.18-.06-.54-.06-.72a.54.54 0 0 1 .6-.6c.78 0 5.34.48 6.12.66.37.06.91.3.91.72a.83.83 0 0 1 -.3.6c-.54.55-.61.91-.61 2v1c0 2.64-.05 5.28-.05 7.93 0 1.14.54 2.16 1.8 2.16h8c2.64 0 5.28-.18 7.92-.18 1.44 0 1.5.72 1.5 3.42s-.36 3.18-1.62 3.18c-2.58 0-5.22-.12-7.8-.12h-8.53c-1.32 0-1.75 1-1.87 2.11-1.2 9-5.22 16.75-12.67 22.22-.84.6-4.38 3-5.28 3-1.2 0-4.93-3.36-4.93-4.38 0-.6 1.14-1 1.62-1.21 8.05-3.42 12.86-10.27 14.54-18.67a13.84 13.84 0 0 0 .24-1.57 1.51 1.51 0 0 0 -1.44-1.5h-11.9c-2.53 0-5.53.18-7.51.18-1.44 0-1.62-.84-1.62-3.48 0-2.34 0-3.18 1.5-3.18 1.74 0 5.22.18 7.63.18z"/><path d="m342.4 93.47a1.86 1.86 0 0 0 1.81-1.56c.12-1.2.42-7.62.48-9.07 0-.6-.06-1.38.78-1.38.36 0 5.64 1 6.24 1.2.36.06.91.24.91.66s-.43.78-.67 1c-.72.67-.66.73-.84 2.59-.12.84-.48 4.44-.48 5a1.34 1.34 0 0 0 1.44 1.38l5.77-.06c1.74 0 6.55-.24 6.61-.24 1.32 0 3.42 2.29 3.42 3.49 0 .6-.84 7.26-1 8.41-.6 4.62-1.5 13-3.36 17-1.63 3.54-4.09 4.69-7.81 5.23a23.19 23.19 0 0 1 -3.49.24 1.9 1.9 0 0 1 -2.1-1.2 12.92 12.92 0 0 1 -1.56-4.21 1 1 0 0 1 1.08-1.08c.6 0 2 .24 3.43.24 3.54 0 4.8-1.62 5.7-5.89a107.81 107.81 0 0 0 1.84-14.22c0-1.62-.84-1.5-3.54-1.5l-6.07.06c-1.5 0-1.74 1.26-1.92 2.16a49.86 49.86 0 0 1 -11.77 23.36c-.84.9-4.44 4.69-5.53 4.69s-4.56-2.82-4.56-3.9c0-.48.48-.79.84-1.09a41.41 41.41 0 0 0 13-18.13 31.93 31.93 0 0 0 1.57-5.77 1.24 1.24 0 0 0 -1.27-1.26l-8.46.06c-1.63 0-5.23.24-6 .24-1.32 0-1.5-1-1.5-3.3 0-2.59.12-3.13 1.44-3.13 2 0 4 .06 6 .06z"/><path d="m433 93.47a19.94 19.94 0 0 0 3.36-.18 2 2 0 0 1 .6-.06c1.2 0 4.21 3.79 4.21 4.51 0 .36-.85 1.14-1.87 2-.54.48-1.08 1-1.62 1.5-5.1 5-10.39 10-15.91 14.66-.54.48-1.15 1-1.15 1.74s.55 1.2.91 1.74 2.22 3.12 2.22 3.66c0 1.14-3.73 3.55-5 3.55-.6 0-1-.6-1.2-1.09a59.7 59.7 0 0 0 -10.87-13c-.36-.36-1.14-1-1.14-1.56 0-.9 3.24-3.6 4.44-3.6.91 0 3.91 3.06 4.69 3.84.48.48.84.9 1.56.9a2.15 2.15 0 0 0 1.44-.66c2.58-2.16 5.11-4.38 7.51-6.67.66-.6 3.78-3.48 3.78-4.2s-1.08-.78-2.22-.78h-25.23c-2.65 0-5.65.18-7.69.18-1.62 0-1.56-1.2-1.56-2.88 0-3.13-.06-3.79 1.44-3.79 2.64 0 5.22.12 7.81.12z"/><path d="m489.85 83.14c0 .36-.42.6-.72.72-1 .36-1.2.67-2 2a4 4 0 0 0 -.6 1.38.58.58 0 0 0 .66.6 43.52 43.52 0 0 0 7-1.68 4.56 4.56 0 0 1 1.5-.36c1 0 1.32 1 1.5 1.8a19.17 19.17 0 0 1 .48 3.24c0 1-1.92 1.26-3.18 1.5-3.79.78-7.57 1.44-11.35 1.86a2.14 2.14 0 0 0 -1.8 1 19.87 19.87 0 0 0 -2.05 3.49.46.46 0 0 0 .48.42 2.35 2.35 0 0 0 1.09-.36 16.6 16.6 0 0 1 6.54-1.56c3.84 0 6.07 1.62 6.85 5.4.12.54.3 1 .9 1s6.07-2.88 7-3.42a5 5 0 0 1 1.56-.6c1.14 0 2.58 4.62 2.58 5.65 0 .72-.66 1-1.8 1.32-.24.12-.54.18-.84.3-2.4.9-4.75 1.92-7.09 2.94-1.08.42-1.56.78-1.56 2v.78c0 1.86.06 3.67.06 5.53 0 2.16-.3 2.4-2.58 2.4-2.59 0-3.67-.12-3.67-1.68 0-1.32.12-2.64.12-3.91 0-.54-.18-1-.78-1-.3 0-6.48 2.65-6.48 6.37 0 4 5.82 4.38 8.71 4.38a43.87 43.87 0 0 0 11.16-1.5 7.63 7.63 0 0 1 1.21-.12c.78 0 1.2.66 1.2 4.09 0 1.8-.06 2.28-1.38 2.58-2.29.54-8.95.78-11.53.78a22.25 22.25 0 0 1 -9.49-1.56c-3.67-1.62-6-4.51-6-8.59 0-5.41 4.38-8.35 8.53-10.81 1.2-.72 2.46-1.38 3.72-2 .6-.3 1.08-.66 1.08-1.38a8.33 8.33 0 0 0 -.3-1.69 2.5 2.5 0 0 0 -2.64-2c-3.36 0-8.89 2.88-11.23 5.29a39.89 39.89 0 0 0 -5.05 7 1 1 0 0 1 -.84.6c-1.08 0-5.1-2.4-5.1-3.48 0-.48.48-1 .78-1.32 1.39-1.54 10.1-13.54 10.1-14.72 0-.54-.48-.72-1.32-.72s-2.34.18-4.21.18c-1.32 0-1.56-.31-1.56-3.37 0-2.4.24-2.76 1.74-2.76 1 0 2.59.12 4.33.12h1.74c1.56 0 3.18-.06 3.72-.78a33 33 0 0 0 3.25-7.75c.12-.66.24-1.26.84-1.26s6.72 2.76 6.72 3.66z"/><path d="m530.46 102.84c-.9 0-1.32-.12-1.32-.54a2.57 2.57 0 0 1 .36-1c1.2-2 2.28-4.74 2.28-5.76 0-.66-.48-1-1.26-1.27a3.79 3.79 0 0 1 -3.13-3.84 4.31 4.31 0 0 1 4.69-4.5c2 0 4.26 1.32 4.26 4.92a27 27 0 0 1 -2.76 10.39c-.66 1.38-1.08 1.62-2.52 1.62zm13.45 0c-.9 0-1.32-.12-1.32-.48a2.59 2.59 0 0 1 .42-1c1.14-2.1 2.28-4.8 2.28-5.82 0-.66-.48-1-1.26-1.27a3.85 3.85 0 0 1 -3.18-3.84c0-2.52 1.62-4.5 4.74-4.5 2 0 4.27 1.32 4.27 4.92a26.61 26.61 0 0 1 -2.86 10.43 2.22 2.22 0 0 1 -2.52 1.56z"/></g></svg>