<svg xmlns="http://www.w3.org/2000/svg" viewBox="0 0 514.1 61.94"><defs><style>.cls-1{fill:#F786D1;}</style></defs><title>アセット 1</title><g id="レイヤー_2" data-name="レイヤー 2"><g id="レイヤー_1-2" data-name="レイヤー 1"><path class="cls-1" d="M8.07.91V47.1c0,4.64,1.57,7.51,5.55,7.51s5.42-3,5.42-7.48V.91h8.09v46c0,9.42-4.24,15-13.67,15C4.42,61.94,0,57,0,47V.91Z"/><path class="cls-1" d="M60.14.91V47.1c0,4.64,1.57,7.51,5.55,7.51s5.42-3,5.42-7.48V.91h8.1v46c0,9.42-4.25,15-13.67,15-9.05,0-13.47-5-13.47-14.93V.91Z"/><path class="cls-1" d="M112.21.91V47.1c0,4.64,1.57,7.51,5.55,7.51s5.42-3,5.42-7.48V.91h8.1v46c0,9.42-4.25,15-13.67,15-9,0-13.47-5-13.47-14.93V.91Z"/><path class="cls-1" d="M186.76,37.56c0-10.57.14-23,.32-29.65H187c-1.43,10.29-5.29,35.56-8.16,53.18h-7.71C169,45.52,165,18.74,163.63,7.84h-.18c.18,7,.47,20.63.47,31V61.09h-7.37V.91h12c2.74,16.34,5.8,35.56,6.61,43.67h.09c1-8.1,4.79-28.27,7.58-43.67h11.64V61.09h-7.71Z"/><path class="cls-1" d="M243.76.91h12.38c9.3,0,13.91,4.64,13.91,14.89v3.6c0,9.56-3.19,16.19-14.4,16.19h-3.82v25.5h-8.07Zm8.07,28h3c6.23,0,7.22-3.72,7.22-9.76V16.1c0-4.58-.91-8.46-6.5-8.46h-3.69Z"/><path class="cls-1" d="M314.47,32.9H301.13V53.67h15.28l-1.05,7.42h-22.3V.91h22.16V8.39H301.13V25.48h13.34Z"/><path class="cls-1" d="M346.6,33.68V61.09h-8.07V.91H350.4c9.11,0,14.11,3.76,14.11,14.23v2.48c0,8.8-3.41,11.57-6.13,12.6,3.64,1.56,5.55,4.23,5.55,12.35,0,5.1-.09,14.81.57,18.52h-7.82c-.78-3.69-.63-13.67-.63-18,0-7.53-1-9.44-6.63-9.44Zm0-6.73h2.89c5.25,0,6.92-2.46,6.92-9V15.67c0-5-1.18-8-6.77-8h-3Z"/><path class="cls-1" d="M393.41,43.7v3.62c0,5,1.6,7.7,5.42,7.7s5.17-3.3,5.17-8.34c0-6.71-1.46-9-7.87-14s-9.83-8.25-9.83-17.14C386.3,7.69,388.65,0,398.91,0S411.1,7.12,411.1,14.12v3h-8V14.34c0-4.53-.82-7.36-4.34-7.36s-4.39,3-4.39,7.34c0,4.81.93,6.91,6.32,10.91,8.73,6.52,11.44,10.24,11.44,20.27,0,8.51-2.75,16.44-13.52,16.44-10.54,0-13.27-6.79-13.27-14.72V43.7Z"/><path class="cls-1" d="M462,16.38v29c0,11.13-4.67,16.52-14.35,16.52s-13.57-5.74-13.57-16.39V16.34c0-11,5.32-16.28,14.09-16.28C457.18.06,462,5.67,462,16.38Zm-19.7-.65V46.4c0,5.75,2.08,8.24,5.72,8.24,3.88,0,5.75-2.37,5.75-8.43V15.69c0-5.45-1.77-8.27-5.78-8.27C444.21,7.42,442.28,10,442.28,15.73Z"/><path class="cls-1" d="M486.28,61.09V.91h9.44c2.75,9.61,10.43,40.09,11.22,44h.11c-.39-7.69-.45-16.16-.45-26V.91h7.5V61.09H505c-2.45-8.92-10.72-42-11.55-45.45h-.09c.43,7.27.47,16,.47,26.88V61.09Z"/></g></g></svg>