<svg viewBox="0 0 15.9 13.32" xmlns="http://www.w3.org/2000/svg"><g fill="#db2da1"><path d="m5.84 3.39v6.42c0 2.07-.7 3.51-3 3.51-2.09 0-2.84-1.41-2.84-3.49v-6.32c0-2.34 1.05-3.51 3-3.51s2.84 1.15 2.84 3.39zm-4.07-.08v6.69c0 1.11.34 1.68 1.15 1.68s1.13-.52 1.13-1.68v-6.72c0-1.11-.37-1.64-1.13-1.64s-1.15.47-1.15 1.67z"/><path d="m10 13.16v-.22c0-2.29 1-3.88 2.39-5.92 1.1-1.53 1.44-2.02 1.44-3.51s-.19-2-1-2-1.05.57-1.05 1.65v.64h-1.67v-.7c0-1.46.47-3.1 2.79-3.1 2.15 0 2.73 1.42 2.73 3.41s-.63 2.9-1.63 4.36a9.13 9.13 0 0 0 -2 3.84h3.9l-.25 1.55z"/></g></svg>