<svg viewBox="0 0 172.81 34.5" xmlns="http://www.w3.org/2000/svg"><g fill="#001c2b"><path d="m17.23 22.44c-.72 0-1.06.31-1.06 1.07v3.92c0 1.94.11 3.88.11 5.82 0 1.18-.45 1.21-2.13 1.21s-2.15-.03-2.15-1.25c0-1.9.08-3.84.08-5.78v-3.92c0-.76-.31-1.07-1-1.07h-6.08c-.68 0-.87.31-.87.88v.42c0 .91-.46.87-2.06.87s-2 0-2-.87.08-1.94.08-2.93v-9.36c0-.8 0-1.6 0-2.43-.15-1.49 1.03-1.64 2.25-1.64s2.32 0 3.46 0h5.21c.72 0 1-.31 1-1.07v-2.31a19 19 0 0 0 -.07-2.67 1.11 1.11 0 0 1 0-.38c0-.45.35-.49.73-.49.72 0 2.58.11 3.38.15.35 0 1 0 1 .49 0 .27-.19.38-.46.57s-.48 1.18-.48 2.33v2.35c0 .76.34 1.07 1.06 1.07h5.33 3.42s2.4.15 2.4 1.64v2.43 9.43c0 1 .08 2 .08 3s-.5.88-2.06.88-2.05 0-2.05-.88v-.53c0-.61-.27-.88-.88-.88zm-5.13-10.15c0-.69-.38-1-1-1.07h-6a1 1 0 0 0 -1.1 1.07v5.32a1.07 1.07 0 0 0 1.1 1.07h6a1 1 0 0 0 1-1.07zm12.28 0a1.06 1.06 0 0 0 -1.06-1.07h-6.09a1.06 1.06 0 0 0 -1.06 1.07v5.32a1.08 1.08 0 0 0 1.06 1.07h6.09a1.08 1.08 0 0 0 1.06-1.07z"/><path d="m48.42 17.8c-.61 0-1.33.08-1.9.08-.91 0-.87-.57-.87-1.83s0-1.9.87-1.9c.61 0 1.26.12 1.9.12h.95c.73 0 1.49-.08 2.25-.08 1.33 0 2.13.34 2.13 1.79 0 1.06-.08 2.09-.08 3.15v5.52c0 2.09-.11 3.84 2.89 4.83 1.75.57 6 .65 9.1.65h2.34c2.67 0 5.37 0 8-.15.46 0 2.25-.08 2.51-.08.69 0 .72.42.72 1.06 0 2.4-.64 2.63-2.16 2.63h-10.31c-3.2 0-8.94 0-11.83-1.07a5.59 5.59 0 0 1 -2.66-1.82.9.9 0 0 0 -.69-.42.85.85 0 0 0 -.57.23c-.88.76-1.79 1.48-2.74 2.17a1.14 1.14 0 0 0 -.53 1 .5.5 0 0 1 -.5.42c-.38 0-.53-.38-1.18-1.64a10.15 10.15 0 0 1 -1-2.36c0-.42.76-.72 1.41-1a30.58 30.58 0 0 0 2.73-1.68 1.48 1.48 0 0 0 .8-1.56v-6.99c0-.76-.3-1.07-1.06-1.07zm3.46-8.06c-.45 0-.6-.38-.83-.69a38.18 38.18 0 0 0 -4.53-5.59c-.19-.23-.38-.38-.38-.68 0-.61 1.67-1.94 2.28-1.94a1 1 0 0 1 .73.45c.91.92 2 2.13 2.77 3.12.5.59 2.32 2.89 2.32 3.59s-1.59 1.74-2.36 1.74zm16.86 5.26c0 .72.3 1.06 1.06 1.06h3.84c1.15 0 2.29-.07 3.43-.07.76 0 .72.38.72 1.63s0 1.64-.72 1.64c-1 0-2.25-.08-3.43-.08h-3.84c-.76 0-1.06.34-1.06 1.07v2.81c0 .76.07 1.56.07 2.36 0 3.38-2.66 3.61-5.4 3.61-1.25 0-1.67 0-2-.8a6.44 6.44 0 0 1 -.34-1.9c0-.57.19-.95.8-.95a2.2 2.2 0 0 1 .53 0 5.91 5.91 0 0 0 .84 0c1.67 0 1.63-.42 1.63-2.09v-3.01c0-.73-.3-1.07-1.06-1.07h-4c-1.18 0-2.36.08-3.43.08-.72 0-.72-.38-.72-1.68s0-1.59.72-1.59c1.14 0 2.29.07 3.43.07h4c.76 0 1.06-.34 1.06-1.06v-.57c0-.73-.3-1-1.06-1h-.3c-1 0-2 0-2.74 0s-.69-.38-.69-1.14c0-.2-.11-.35-.3-.35s-.15 0-.23.08c-.72.57-2.82 2.28-3.65 2.28s-2.09-1.71-2.09-2.47c0-.5.49-.72 1-1a31.29 31.29 0 0 0 10.35-10.36c.19-.31.34-.5.69-.5a19.4 19.4 0 0 1 2.54.76c.61.24 1.61.42 1.61.99 0 .34-.45.46-.72.53a.28.28 0 0 0 -.23.23.32.32 0 0 0 .08.23 45.47 45.47 0 0 0 9.32 8.18c.3.23 1 .61 1 1 0 .68-1.37 2.39-2.28 2.39-.57 0-2.67-1.71-3.2-2.17a.51.51 0 0 0 -.23-.07c-.23 0-.3.15-.34.34 0 .61 0 1-.65 1s-1.75 0-2.74 0h-.21c-.76 0-1.06.3-1.06 1zm-6.09 7.11a.79.79 0 0 0 -.53.46c-.61.95-4 5.55-5 5.55-.68 0-2.43-1.26-2.43-2 0-.26.3-.53.76-.91a20.73 20.73 0 0 0 4.07-5.06c.12-.19.19-.3.42-.3a8.38 8.38 0 0 1 1.63.68l1 .46c.27.11.76.34.76.72s-.49.43-.68.43zm-.34-12.22a.37.37 0 0 0 .42.38h7.83c.23 0 .5-.11.5-.38a.59.59 0 0 0 -.15-.34 35.35 35.35 0 0 1 -3.54-3.81.83.83 0 0 0 -.61-.38.85.85 0 0 0 -.65.35 44.16 44.16 0 0 1 -3.65 3.84.42.42 0 0 0 -.15.34zm15.94 16.11c0 .8-1.94 1.94-2.63 1.94-.42 0-.72-.53-1-.88a34.47 34.47 0 0 0 -3.62-4.39c-.19-.19-.46-.42-.46-.72 0-.57 1.75-1.9 2.4-1.9.93 0 5.31 5.36 5.31 5.95z"/><path d="m120.24 20.81c-.27 0-.57.11-.57.45a.82.82 0 0 0 .11.39 54 54 0 0 0 6.77 7.49c.23.19.58.46.58.8 0 .72-1.75 2.32-2.4 2.32s-1.56-1.14-1.94-1.52a49.93 49.93 0 0 1 -5.25-6.43.38.38 0 0 0 -.3-.15c-.2 0-.27.19-.27.38v4.46c0 1.44.07 2.85.07 4.3 0 1.17-.38 1.21-1.86 1.21s-2 0-2-1.21c0-1.45.08-2.86.08-4.3v-4.62c0-.19-.08-.34-.27-.34a.28.28 0 0 0 -.26.15 36.79 36.79 0 0 1 -7 7.76c-.27.23-.72.65-1.1.65-.65 0-2.17-1.86-2.17-2.55 0-.34.34-.57.57-.76a34.62 34.62 0 0 0 7.26-7.64.62.62 0 0 0 .12-.35c0-.38-.31-.49-.61-.49h-.27c-1.33 0-2.74.07-3.8.07s-.91-.45-.91-1.55c0-.27-.19-.54-.5-.54a.84.84 0 0 0 -.3.08c-.54.26-1.11.49-1.64.76a1.3 1.3 0 0 0 -.91 1.44v6.62 2.44c0 3.08-1.33 4.14-5.63 4.14-1 0-2.13.12-2.13-3 0-.61.19-1 .87-1 .5 0 1 .08 1.56.08 1.64 0 1.56-.61 1.56-2.47v-5.28c0-.42-.19-.76-.65-.76a3.39 3.39 0 0 0 -1.18.34c-.83.3-1 .34-1.1.68s-.23.76-.61.76-.61-.64-.83-1.37c-.12-.41-.77-2.51-.77-2.81 0-.46.61-.5 1-.61.76-.15 2.4-.61 3.16-.87a1.16 1.16 0 0 0 1-1.34v-5c0-.76-.3-1.06-1.06-1.06s-1.72.07-2.4.07c-.88 0-.8-.57-.8-1.82s-.08-1.81.8-1.81c.61 0 1.56.12 2.4.08s1.06-.38 1.06-1.08v-1.85a26.81 26.81 0 0 0 -.11-3c0-.08 0-.23 0-.34 0-.5.34-.54.76-.54.61 0 2.4.12 3.12.16.34 0 1 .07 1 .53 0 .3-.27.42-.53.61s-.42.72-.42 1.79v2.64c0 .69.23 1 1 1.07.23 0 1.9-.08 2-.08.8 0 .76.5.76 1.79s0 1.9-.76 1.9c-.23 0-1.64-.07-2-.07-.72.07-1 .34-1 1.06v3.65c0 .38.15.73.61.73a.84.84 0 0 0 .3-.08 18.68 18.68 0 0 1 2.17-.88c.61 0 .65.88.72 1.3.08.61.31.83.88.87 1.14.08 2.24.08 3.38.08h2.7c.76 0 1-.27 1.07-1a13.57 13.57 0 0 0 -.11-2.09c0-.11 0-.23 0-.34 0-.42.34-.5.68-.5.65 0 2.47.15 3.2.23.3 0 .95.08.95.5 0 .22-.27.34-.53.53-.42.3-.46.68-.46 1.29v.38c0 .76.34 1 1.06 1h4c1.29 0 2.55-.08 3.84-.08.91 0 .88.46.88 1.79s0 1.86-.88 1.86c-1.14 0-2.51-.07-3.84-.07zm5.67-17.16a1.93 1.93 0 0 1 -.5-.11 1.46 1.46 0 0 0 -.57-.15 4 4 0 0 0 -.68.11 76.73 76.73 0 0 1 -17.16 2.17c-.68 0-.83-.34-1.06-.8a5.67 5.67 0 0 1 -.42-1.94c0-.76.72-.68 1.52-.68 4.26 0 12.21-.69 16.17-2.06a1.33 1.33 0 0 1 .49-.19c.38 0 .84.65 1.33 1.33.23.3.42.61.65.88s.65.72.65 1.06-.23.38-.42.38zm-17.16 10.16c-.68 0-.72-.5-1.21-2.13-.31-.95-.92-2.47-1.34-3.39a2 2 0 0 1 -.19-.61c0-.83 2.1-1.36 2.44-1.36.57 0 1 .76 1.67 2.77a23.73 23.73 0 0 1 1.07 3.46c0 .84-2.1 1.26-2.44 1.26zm6.35-1.14c-.91 0-.95-.5-1-1a33.17 33.17 0 0 0 -1.1-4.56 3 3 0 0 1 -.15-.64c0-.8 2.32-1 2.63-1 .87 0 1 .91 1.48 3a28.25 28.25 0 0 1 .65 3.19c.01.82-1.82 1.01-2.51 1.01zm10.9-6.89c.26.08.76.27.76.65s-.46.38-.65.42a.75.75 0 0 0 -.49.49 43.92 43.92 0 0 1 -2.93 6c-.19.31-.38.69-.8.69s-2.63-.8-2.63-1.45a1.37 1.37 0 0 1 .35-.76 28.35 28.35 0 0 0 2.92-6.39c.08-.27.19-.61.5-.61s2.38.81 2.97.96z"/><path d="m149.26 22.44c-.72 0-1.06.23-1.18 1a22.73 22.73 0 0 1 -3.42 9.86c-.3.41-.68 1-1.25 1s-2.67-1.41-2.67-2.17a1.2 1.2 0 0 1 .27-.61c3.42-5.21 3.65-10.31 3.65-16.32v-8c0-1.21-.08-2.39-.08-3.61 0-1.52.61-2 2.13-2 1.11 0 2.17.08 3.28.08h17.38c1.1 0 2.21-.08 3.27-.08 1.52 0 2.13.42 2.13 2v3.61 19.58c0 .95.08 1.94.08 2.89 0 1.33-.15 2.74-1.29 3.62-1.33 1-3.43 1-5 1-.69 0-2.21.12-2.21-3 0-.61.15-1 .84-1s1.17.08 1.78.08c1.83 0 1.91-.38 1.91-2.29v-4.6c0-.72-.31-1-1-1h-6.7c-.76 0-1.06.31-1.06 1v3.31c0 1.86.11 3.73.11 5.59 0 1.18-.42 1.22-2 1.22s-2.06 0-2.06-1.22c0-1.86.08-3.73.08-5.59v-3.32c0-.72-.3-1-1.07-1zm.35-8.59c-.77 0-1.07.3-1.07 1.06v.46 2.55s.31 1 1 1h5.46c.77 0 1.07-.3 1.07-1.06v-3c0-.76-.3-1.06-1.07-1.06zm6.5-7.5a1 1 0 0 0 -1.11-1.06h-5.43a1.06 1.06 0 0 0 -1.07 1.06v2.89a1.1 1.1 0 0 0 1.07 1.07h5.43a1.07 1.07 0 0 0 1.07-1.07zm11.68 4a1 1 0 0 0 1-1.07v-2.93c0-.68-.38-1-1-1.06h-6.7a1.05 1.05 0 0 0 -1.09 1.06v2.89a1.09 1.09 0 0 0 1.06 1.07zm-7.79 7.53a1.07 1.07 0 0 0 1.06 1.06h6.7a1 1 0 0 0 1-1.06v-3a1 1 0 0 0 -1-1.06h-6.7a1.08 1.08 0 0 0 -1.06 1.09z"/></g></svg>