<svg xmlns="http://www.w3.org/2000/svg" viewBox="0 0 341.84 174.69"><defs><style>.cls-1{fill:#F786D1;}</style></defs><title>アセット 1</title><g id="レイヤー_2" data-name="レイヤー 2"><g id="レイヤー_1-2" data-name="レイヤー 1"><path class="cls-1" d="M9.86,0V56.46c0,5.67,1.92,9.18,6.78,9.18s6.63-3.63,6.63-9.15V0h9.89V56.24c0,11.51-5.18,18.35-16.7,18.35C5.4,74.59,0,68.52,0,56.34V0Z"/><path class="cls-1" d="M75.71,0V56.46c0,5.67,1.91,9.18,6.78,9.18s6.62-3.63,6.62-9.15V0H99V56.24c0,11.51-5.19,18.35-16.71,18.35-11.06,0-16.46-6.07-16.46-18.25V0Z"/><path class="cls-1" d="M141.55,0V56.46c0,5.67,1.92,9.18,6.78,9.18S155,62,155,56.49V0h9.89V56.24c0,11.51-5.18,18.35-16.71,18.35-11,0-16.45-6.07-16.45-18.25V0Z"/><path class="cls-1" d="M234.87,44.79c0-12.91.17-28,.39-36.24h-.11c-1.75,12.59-6.47,43.47-10,65h-9.42c-2.63-19-7.45-51.76-9.17-65.08h-.22c.22,8.56.59,25.22.59,37.85V73.55h-9V0h14.67c3.36,20,7.1,43.46,8.09,53.37h.11c1.17-9.9,5.85-34.55,9.25-53.37H244.3V73.55h-9.43Z"/><path class="cls-1" d="M.41,100.1H15.54c11.37,0,17,5.67,17,18.21v4.39c0,11.68-3.9,19.79-17.6,19.79H10.27v31.16H.41Zm9.86,34.24h3.64c7.61,0,8.82-4.54,8.82-11.92v-3.75c0-5.6-1.11-10.35-8-10.35H10.27Z"/><path class="cls-1" d="M89,139.21H72.74v25.37H91.41l-1.28,9.07H62.87V100.1H90v9.15H72.74v20.89H89Z"/><path class="cls-1" d="M130.51,140.15v33.5h-9.86V100.1h14.5c11.14,0,17.25,4.6,17.25,17.39v3c0,10.75-4.16,14.14-7.49,15.4,4.45,1.9,6.79,5.16,6.79,15.09,0,6.23-.11,18.1.69,22.63h-9.56c-1-4.5-.77-16.7-.77-22,0-9.21-1.23-11.54-8.11-11.54Zm0-8.22H134c6.42,0,8.46-3,8.46-11v-2.84c0-6.12-1.45-9.82-8.27-9.82h-3.72Z"/><path class="cls-1" d="M189.93,152.4v4.43c0,6.08,1.95,9.41,6.62,9.41s6.32-4,6.32-10.19c0-8.2-1.79-11-9.62-17.18s-12-10.08-12-21c0-9.54,2.87-19,15.42-18.93s14.9,8.7,14.9,17.26V120h-9.78v-3.45c0-5.54-1-9-5.31-9s-5.37,3.72-5.37,9c0,5.88,1.15,8.45,7.73,13.34,10.67,8,14,12.51,14,24.77,0,10.4-3.36,20.09-16.54,20.09-12.87,0-16.21-8.29-16.21-18V152.4Z"/><path class="cls-1" d="M275.93,119V154.5c0,13.6-5.7,20.19-17.53,20.19s-16.59-7-16.59-20V119c0-13.42,6.5-19.9,17.23-19.9C270.07,99.07,275.93,105.92,275.93,119Zm-24.07-.79v37.49c0,7,2.54,10.06,7,10.06,4.74,0,7-2.89,7-10.31V118.17c0-6.67-2.17-10.11-7.06-10.11C254.22,108.06,251.86,111.24,251.86,118.22Z"/><path class="cls-1" d="M307.83,173.65V100.1h11.54c3.37,11.74,12.76,49,13.71,53.78h.15c-.49-9.4-.55-19.75-.55-31.8v-22h9.16v73.55H330.73c-3-10.9-13.1-51.29-14.11-55.55h-.11c.51,8.89.57,19.61.57,32.85v22.7Z"/></g></g></svg>