<svg viewBox="0 0 99.08 43.47" xmlns="http://www.w3.org/2000/svg"><g fill="#F786D1"><path d="m3.55 25.47v1.94c0 3.15 1.09 4.83 3.43 4.83s3.34-1.73 3.34-5.39c0-3.91-.86-5.43-4.38-8.17s-5.39-4.48-5.39-9.41c0-4.27 1.27-8.27 6.51-8.27 5 0 6.29 3.34 6.29 7.58v1.55h-3.53v-1.45c0-2.77-.54-4.56-2.83-4.56s-2.88 2-2.88 4.63c0 3.1.62 4.28 3.68 6.6 4.64 3.5 6.11 5.46 6.11 11 0 4.7-1.35 9-7 9-5.37-.02-6.9-3.56-6.9-7.96v-1.92z"/><path d="m25.9 32.8v10.67h-3.56v-26.7c0-3.48 0-5.74-.05-7.35h3.39a23.34 23.34 0 0 1 .14 2.72 4.56 4.56 0 0 1 4.61-3.14c3.49 0 5.18 2.36 5.18 7.38v10.82c0 5.64-2.17 8.08-5.56 8.08a4.11 4.11 0 0 1 -4.15-2.48zm6.1-5.52v-10.74c0-3.08-1.11-4.26-2.75-4.26-2.66 0-3.41 2.23-3.41 5.54v8.33c0 3 .42 5.88 3.18 5.88 2.18-.03 2.98-1.73 2.98-4.75z"/><path d="m47.35 22.88v4.17c0 2.53.5 5.17 3 5.17s2.86-2 2.86-4.4v-.21h3.49v.18c0 2.95-.69 7.49-6.33 7.49-5.32 0-6.52-3.49-6.52-8.66v-9.48c0-3.86 1.35-8.12 6.58-8.12 4.9 0 6.34 3.65 6.34 8.13v5.73zm6-2.9v-3.18c0-2.38-.38-4.71-2.93-4.71s-3 2-3 4.73v3.18z"/><path d="m68.3 22.88v4.17c0 2.53.5 5.17 3 5.17s2.86-2 2.86-4.4v-.21h3.49v.18c0 2.95-.69 7.49-6.33 7.49-5.32 0-6.52-3.49-6.52-8.66v-9.48c0-3.86 1.35-8.12 6.57-8.12 4.91 0 6.35 3.65 6.35 8.13v5.73zm6-2.9v-3.18c0-2.38-.38-4.71-2.93-4.71s-3 2-3 4.73v3.18z"/><path d="m99 0v28.32 6.56h-3.3a23.67 23.67 0 0 1 -.15-2.5 4.35 4.35 0 0 1 -4.43 2.9c-4.29 0-5.36-3.39-5.36-8.28v-10.43c0-4.5 1.78-7.55 5.73-7.55 2.17 0 3.43.9 4 1.91v-10.93zm-9.66 16.78v10.34c0 3.24.8 4.91 2.86 4.91 2.66 0 3.28-2.55 3.28-6.06v-8.37c0-2.8-.28-5.32-3.18-5.32-2.11 0-2.96 1.72-2.96 4.5z"/></g></svg>