<svg viewBox="0 0 50.84 10.03" xmlns="http://www.w3.org/2000/svg"><g fill="#db2da1"><path d="m8.33 5.73c0-1.81 0-3.65.06-4.67h-.05c-.42 1.58-2 5.76-3.11 8.83h-1.16c-.85-2.5-2.48-7.19-2.92-8.89.07 1.12.11 3.29.11 5v3.89h-1.26v-9.75h1.93c1.07 3.02 2.46 6.93 2.79 8.17.28-.94 1.85-5.22 3-8.17h1.87v9.75h-1.26z"/><path d="m24.85 5c0 2.68-1.5 5.07-4.57 5.07-2.87 0-4.47-2.22-4.47-5s1.63-5 4.58-5c2.74-.07 4.46 1.99 4.46 4.93zm-7.69 0c0 2.11 1.08 4 3.17 4 2.27-.08 3.17-1.94 3.17-4s-1-3.88-3.16-3.88-3.18 1.77-3.18 3.88z"/><path d="m32.35 5.59v4.3h-1.28v-9.75h3.8c2 0 3.07 1.09 3.07 2.61a2.22 2.22 0 0 1 -1.66 2.25c.8.21 1.49.81 1.49 2.5v.5a7 7 0 0 0 .13 1.93h-1.26a7 7 0 0 1 -.16-2.1v-.25c0-1.38-.39-2-2.14-2zm0-1.08h2.12c1.49 0 2.14-.56 2.14-1.66s-.67-1.62-2-1.62h-2.26z"/><path d="m50.37 5.33h-4.85v3.45h5.32l-.16 1.11h-6.43v-9.75h6.35v1.11h-5.08v3h4.85z"/></g></svg>