<svg viewBox="0 0 311.44 74.75" xmlns="http://www.w3.org/2000/svg"><g fill="#0084d0"><path d="m16.54 24.94c0 1.59.08 3.17.08 4.72 0 1-.47 1.08-1.81 1.08-2 0-2.34-.1-2.34-1 0-1.55.07-3.1.07-4.65v-9.8c0-.22.11-1-.57-1-.36 0-1.12.61-1.41.83-1.08.79-6.81 4.61-7.75 4.61-.61-.05-2.81-2.25-2.81-2.93 0-.36.33-.51.58-.62a51.83 51.83 0 0 0 14.16-9.55 30.11 30.11 0 0 0 4.9-6.09c.11-.18.36-.54.58-.54a13.46 13.46 0 0 1 2.45 1.48c.4.25 1.41.86 1.41 1.3 0 .21-.18.28-.36.36a1.92 1.92 0 0 0 -1.41.86 70.4 70.4 0 0 1 -4.94 5.41c-.54.54-.83.79-.83 1.62z"/><path d="m68.94 11.5c0 .61-1.44 2-1.91 2.48a62.52 62.52 0 0 1 -19.57 13.59c-1.19.58-1.22.61-1.51 1.23a.36.36 0 0 1 -.36.21c-.4 0-1.16-1.44-1.41-1.87a9.91 9.91 0 0 1 -1.08-2.14c0-.4.65-.47 1.12-.62 8-2.34 17-9.15 22.09-15.67a.9.9 0 0 1 .61-.4c.72-.02 2.02 2.69 2.02 3.19zm-18.6-5.95c.47.33 2.2 1.51 2.2 2.05 0 .83-1.69 2.78-2.38 2.78a3.94 3.94 0 0 1 -1.44-1 44.45 44.45 0 0 0 -4.79-3.35c-.29-.18-.58-.37-.58-.69 0-.54 1.44-2.85 2.27-2.85.58.03 4.04 2.56 4.72 3.06z"/><path d="m101.34 4.4c.75 0 2.52 0 3.24-.07.15 0 .54-.08.65-.08.86 0 2.41 2 2.41 2.31s-.32.76-.61 2.31c-1.22 7-3.78 11.75-9.62 15.85a33 33 0 0 1 -6.92 3.68 3.79 3.79 0 0 1 -1.19.33c-.87 0-2.16-2.42-2.16-3 0-.39.32-.5.65-.57a25.35 25.35 0 0 0 9-4.76 16.75 16.75 0 0 0 5.91-10.52 6.38 6.38 0 0 0 .07-.87c0-.68-.61-.76-1.26-.76h-12.82c-1.52 0-3 .08-4.51.08-1.12 0-1.08-.33-1.08-1.95s0-2 1-2c1.55 0 3.1.07 4.65.07z"/><path d="m131.89 4.58c.44.07.91.07.91.43 0 .18-.22.36-.36.5s-.19.83-.19 1.16v.79c0 7.46-.5 13.8-6.23 19.28-.29.26-.72.76-1.12.76s-3.21-1.33-3.21-2c0-.25.29-.51.47-.65 5.48-4.54 6.17-9.59 6.17-16.29 0-1.08 0-2.52-.15-3.57 0-.11 0-.29 0-.4 0-.32.21-.39.46-.39.66.02 2.5.27 3.25.38zm8.55 15.06c0 1.12 0 1.66.57 1.66 1.19 0 8.29-6.34 9.45-7.53.18-.18.43-.47.72-.47.61 0 1.83 2.31 1.83 2.88s-1.4 1.7-1.87 2.09c-2.16 1.88-4.32 3.72-6.6 5.41-1 .76-2.52 1.91-3.38 2.67-.33.25-.69.65-1.12.65a9.31 9.31 0 0 1 -2.49-1.09c-.5-.28-1.15-.64-1.15-1.29 0-.26.14-2.6.14-4.33v-12.61a32.34 32.34 0 0 0 -.14-3.68v-.18a.32.32 0 0 1 .36-.36c.22 0 1.12.14 1.41.18 1.87.25 2.91.36 2.91.76 0 .25-.14.32-.28.5a1.4 1.4 0 0 0 -.33.94v3.53z"/><path d="m184.55 5.77c1.58 0 3.13-.08 4.72-.08.72 0 .93.22.93 1.55v.87c0 1.12-.1 1.51-1.11 1.51-1.48 0-3-.07-4.47-.07h-2.89a1.06 1.06 0 0 0 -1.08 1.08v10.09a1.06 1.06 0 0 0 1.08 1.05h5.63c1.47 0 3.46-.07 4.54-.07.9 0 .93.32.93 2.09 0 1.15 0 1.87-1 1.87s-2.92-.11-4.47-.11h-17.45c-1.55 0-3.38.11-4.47.11s-1-.68-1-1.91c0-1.73 0-2.05.94-2.05 1.08 0 3 .07 4.54.07h5.63a1.06 1.06 0 0 0 1.08-1.05v-10.09a1.06 1.06 0 0 0 -1.08-1.08h-2.89c-1.51 0-3 .07-4.47.07-1 0-1.11-.39-1.11-1.47v-.87c0-1.37.21-1.59.93-1.59 1.55 0 3.14.08 4.69.08z"/><path d="m235.43 11.5c0 .61-1.44 2-1.91 2.48a62.63 62.63 0 0 1 -19.52 13.59c-1.19.58-1.23.61-1.51 1.23a.37.37 0 0 1 -.36.21c-.4 0-1.16-1.44-1.41-1.87a9.91 9.91 0 0 1 -1.13-2.14c0-.4.65-.47 1.12-.62 8-2.34 17-9.15 22.09-15.67a.88.88 0 0 1 .61-.4c.72-.02 2.02 2.69 2.02 3.19zm-18.6-5.95c.47.33 2.2 1.51 2.2 2.05 0 .83-1.69 2.78-2.38 2.78a3.94 3.94 0 0 1 -1.44-1 44.45 44.45 0 0 0 -4.79-3.35c-.29-.18-.58-.37-.58-.69 0-.54 1.44-2.85 2.27-2.85.58.03 4.04 2.56 4.72 3.06z"/><path d="m253 9.33c.57 0 1.22-.21 1.22-.9v-2.43c0-2-.14-3.93-.14-4 0-.25.11-.36.36-.36a25.75 25.75 0 0 1 2.67.18c.9.07 1.65.18 1.65.5a.59.59 0 0 1 -.21.36c-.47.58-.44.87-.44 3.21v2.51a.93.93 0 0 0 .94.93h6.35c.5 0 .9-.32.9-1 0-1.3-.08-5-.15-6.13 0-.14 0-.29 0-.43a.44.44 0 0 1 .46-.43c.51 0 2.53.21 3.1.25s1.12.07 1.12.4-.14.32-.4.57a11.68 11.68 0 0 0 -.21 3v1.36 1.08.22c0 .72.33 1.11 1.05 1.11h1c1.12 0 3.5-.07 4.26-.07s.9.29.9 1.7c0 1.8-.11 2.12-1 2.12-1.41 0-2.78-.07-4.15-.07h-1c-1.12 0-1.12.76-1.12 1.23-.11 6.27-.72 10.63-6.34 14.34a14.67 14.67 0 0 1 -3.61 1.84c-.54 0-2.63-2.06-2.63-2.63 0-.29.33-.47.58-.58 6.85-2.85 8.11-5.84 8.11-13 0-.61-.25-1.15-.94-1.15h-6.33a.93.93 0 0 0 -.94.9v3.43c0 1 .08 2 .08 3 0 1.58-.18 1.44-2.35 1.44-1.26 0-1.69 0-1.69-.9 0-1.16.07-2.31.07-3.46v-3.47a1 1 0 0 0 -1-.94h-1.12c-1.4 0-2.85.11-4 .11-.91 0-.94-.76-.94-1.66 0-1.73 0-2.2.9-2.2 1 0 2.67.07 4.07.07z"/><path d="m307.06 12.87c1.33 0 3.2-.11 3.58-.11.78 0 .8.29.8 2.27 0 1.15 0 1.84-.77 1.84-1.21 0-2.42-.07-3.61-.07h-13.26c-1.18 0-2.39.07-3.6.07-.75 0-.78-.69-.78-1.8 0-2 .06-2.31.81-2.31.37 0 2.36.11 3.57.11z"/><path d="m47.36 51.69a11.66 11.66 0 0 0 2-.11 1.14 1.14 0 0 1 .36 0c.73 0 2.53 2.27 2.53 2.7 0 .22-.51.69-1.12 1.23-.32.29-.65.58-1 .9-3.07 3-6.24 6-9.55 8.8-.33.28-.69.57-.69 1s.33.72.54 1.05a11.43 11.43 0 0 1 1.34 2.19c0 .69-2.24 2.13-3 2.13-.36 0-.57-.36-.72-.65a35.34 35.34 0 0 0 -6.52-7.78c-.22-.22-.69-.62-.69-.94 0-.54 1.95-2.16 2.67-2.16.54 0 2.34 1.84 2.81 2.3.29.29.51.54.94.54a1.35 1.35 0 0 0 .87-.39c1.54-1.3 3.06-2.63 4.5-4 .4-.36 2.27-2.09 2.27-2.53s-.65-.46-1.33-.46h-15.1c-1.59 0-3.39.1-4.61.1-1 0-.94-.72-.94-1.73 0-1.87 0-2.27.87-2.27 1.58 0 3.13.08 4.68.08z"/><path d="m82 56.91c1.33 0 3.2-.11 3.57-.11.78 0 .81.29.81 2.27 0 1.16 0 1.84-.78 1.84-1.21 0-2.42-.07-3.6-.07h-13.28c-1.18 0-2.39.07-3.6.07-.75 0-.78-.68-.78-1.8 0-2 .06-2.31.81-2.31.37 0 2.36.11 3.57.11z"/><path d="m120.47 51.65c1.52 0 3-.07 4.55-.07 1 0 1 .43 1 2.09 0 1.3 0 1.8-1 1.8-1.51 0-3-.07-4.51-.07h-1.65c-1 0-1.08 1.12-1.12 1.4-.51 6.56-2.52 11.54-7.75 15.75-.61.51-2.74 2.13-3.5 2.13s-2.7-1.87-2.7-2.52c0-.33.4-.51.61-.65 3.86-2.16 7.14-5 8.44-9.34a26.19 26.19 0 0 0 1-5.73 1 1 0 0 0 -1-1h-4.84a1.53 1.53 0 0 0 -1.59.83c-.72 1.11-4.72 6.77-5.8 6.77-.72 0-3-1.4-3-2.16 0-.29.4-.58.58-.76a31.15 31.15 0 0 0 9-15.71c.07-.4.14-.83.47-.83s2.7.76 3.2.9c.33.11 1.23.33 1.23.69s-.25.36-.4.43c-.57.36-.79.9-1.19 2a25.62 25.62 0 0 1 -1 2.67 1.84 1.84 0 0 0 -.21.68c0 .47.29.65.68.69z"/><path d="m162.53 56c1.51 0 3-.11 4.58-.11 1.11 0 1.08.29 1.08 2 0 1.23 0 1.91-1 1.91-1.58 0-3.13-.07-4.68-.07h-4.72c-1 0-1.05.94-1.16 1.7a14.7 14.7 0 0 1 -7.78 11.35 16.93 16.93 0 0 1 -3.75 1.59c-.79 0-2.78-2.38-2.78-3 0-.39.69-.54 1-.61a17.13 17.13 0 0 0 4.51-1.87 10.64 10.64 0 0 0 4.54-6.56 17.46 17.46 0 0 0 .32-1.77.84.84 0 0 0 -.86-.83h-7.32c-1.47 0-3 .07-4.5.07-.94 0-1-.54-1-1.83 0-1.66.1-2.06.9-2.06 1.55 0 3.06.11 4.57.11zm-5.34-9.44c1.55 0 3.1-.07 4.69-.07 1 0 .94.46.94 2.23 0 1.12 0 1.62-1 1.62-1.51 0-3.06-.07-4.61-.07h-7.86c-1.55 0-3.1.07-4.61.07-1.08 0-1-.57-1-1.94s0-1.91 1-1.91c1.55 0 3.1.07 4.69.07z"/><path d="m196.58 70.14c0 1.22.07 2.41.07 3.64 0 .9-.75 1-1.44 1-2 0-2.13-.18-2.13-1.15s.08-2.27.08-3.39v-7.49c0-.18-.08-.54-.44-.54s-.68.32-.93.5c-.79.58-5.19 3.5-5.91 3.5a4.25 4.25 0 0 1 -2.31-2.38c0-.39.43-.58.83-.76 5.22-2.45 11.17-6.66 14.16-11.64.18-.28.33-.65.62-.65a7.6 7.6 0 0 1 2.12 1.27c.36.21 1 .61 1 1.08 0 .29-.25.39-.5.43a1.76 1.76 0 0 0 -1.05.79 42.41 42.41 0 0 1 -3.23 3.65 2.06 2.06 0 0 0 -.94 2z"/><path d="m246.46 55.54c0 .61-1.44 2-1.91 2.49a62.8 62.8 0 0 1 -19.55 13.59c-1.19.57-1.23.61-1.52 1.22a.35.35 0 0 1 -.36.22c-.39 0-1.15-1.44-1.4-1.88a9.91 9.91 0 0 1 -1.1-2.18c0-.4.65-.47 1.11-.61 8-2.34 17-9.16 22.1-15.68a.88.88 0 0 1 .61-.4c.72.02 2.02 2.69 2.02 3.23zm-18.6-5.94c.47.32 2.2 1.51 2.2 2 0 .83-1.69 2.77-2.38 2.77a3.86 3.86 0 0 1 -1.44-1 45.47 45.47 0 0 0 -4.79-3.35c-.29-.18-.58-.36-.58-.68 0-.55 1.44-2.85 2.27-2.85.58.08 4.04 2.6 4.72 3.11z"/><path d="m280.11 50.35a6.27 6.27 0 0 0 1.45-.11 1.78 1.78 0 0 1 .39-.07c.8 0 2.63 2.2 2.63 2.78a3.66 3.66 0 0 1 -.43.86c-.22.4-.58.94-.94 1.66-3.56 6.88-7 12.11-13.69 16.4-.79.5-4.15 2.56-4.9 2.56s-3.07-1.77-3.07-2.42c0-.36.47-.57.72-.68a31.73 31.73 0 0 0 14-11.54c.58-.86 2.78-4.36 2.78-5.26 0-.47-.62-.5-1.12-.5h-6.93c-.72.07-.86.07-1.51 1s-4.83 6-5.77 6c-.47 0-3.1-1.37-3.1-2.16 0-.22.15-.36.33-.51a33.26 33.26 0 0 0 9.62-12.87c.14-.36.29-.86.58-.86a18.78 18.78 0 0 1 2.56 1.12 4.57 4.57 0 0 0 .46.21c.44.18 1.09.4 1.09.72s-.37.36-.55.47c-.43.25-.57.54-.93 1.19-.15.25-.29.51-.51.87a1.4 1.4 0 0 0 -.25.65.59.59 0 0 0 .61.57zm7.28-.72c0 .54-1.4 1.52-1.83 1.52-.22 0-.33-.22-.47-.4-.72-1.08-1.52-2.16-2.34-3.17-.11-.15-.26-.29-.26-.47 0-.43 1.48-1.34 1.88-1.34s3.02 3.46 3.02 3.86zm3.72-2.23c0 .54-1.41 1.47-1.84 1.47-.25 0-.36-.18-.47-.36a35.42 35.42 0 0 0 -2.38-3.17.77.77 0 0 1 -.25-.43c0-.47 1.48-1.37 1.87-1.37a14.22 14.22 0 0 1 3.07 3.86z"/></g></svg>