<svg viewBox="0 0 315.83 72.45" xmlns="http://www.w3.org/2000/svg"><g fill="#0084d0"><path d="m125 1.87c.76 0 2.53 0 3.25-.07.14 0 .54-.07.65-.07.86 0 2.41 2 2.41 2.31s-.32.75-.61 2.3c-1.23 7-3.79 11.75-9.63 15.86a33.7 33.7 0 0 1 -6.91 3.68 3.84 3.84 0 0 1 -1.19.32c-.87 0-2.17-2.41-2.17-3 0-.4.33-.5.65-.58a25.45 25.45 0 0 0 9-4.75 16.77 16.77 0 0 0 5.91-10.53 8.31 8.31 0 0 0 .07-.86c0-.69-.61-.76-1.26-.76h-12.8c-1.51 0-3 .07-4.5.07-1.12 0-1.08-.32-1.08-1.94s0-2.06 1-2.06c1.55 0 3.1.07 4.65.07z"/><path d="m166.56 7.06a25.09 25.09 0 0 0 2.74-.06 1.64 1.64 0 0 1 .44 0c.9 0 2.27 1.91 2.27 2.49 0 .39-.4.65-.69.9s-2.49 2.56-2.95 3c-.72.73-2.45 2.42-3.14 3a1.08 1.08 0 0 1 -.72.29c-.54 0-2.2-1.33-2.2-1.87 0-.29.36-.54.65-.8.47-.39 2.56-2.3 3-2.7a.8.8 0 0 0 .28-.54c0-.4-.43-.43-.72-.43h-11.43c-1.26 0-2.52.07-3.78.07-.9 0-.9-.54-.9-1.51 0-1.16-.07-1.84.9-1.84h3.78zm-4.65 5c.26 0 .58.11.58.43 0 .14-.18.32-.29.5a6.1 6.1 0 0 0 -.47 1.81 17.88 17.88 0 0 1 -1.94 5.94 17.06 17.06 0 0 1 -4.72 5.41 1.94 1.94 0 0 1 -1 .54c-.58 0-2.41-1.48-2.41-2.09 0-.4.43-.61.72-.79a13.16 13.16 0 0 0 6.16-11.07c0-.61-.11-.93.51-.93.31-.02 2.5.19 2.86.19z"/><path d="m217.3 9c0 .62-1.44 2-1.91 2.49a62.52 62.52 0 0 1 -19.57 13.59c-1.19.58-1.22.61-1.51 1.22a.35.35 0 0 1 -.36.22c-.4 0-1.15-1.44-1.41-1.87a10.44 10.44 0 0 1 -1.08-2.17c0-.39.65-.46 1.12-.61 8-2.34 17-9.15 22.09-15.68a.89.89 0 0 1 .62-.39c.71-.03 2.01 2.63 2.01 3.2zm-18.59-6c.46.32 2.2 1.51 2.2 2.05 0 .83-1.7 2.78-2.38 2.78a3.81 3.81 0 0 1 -1.45-1 44.88 44.88 0 0 0 -4.79-3.35c-.29-.18-.58-.36-.58-.68 0-.54 1.45-2.85 2.28-2.85.57.05 4.01 2.57 4.72 3.05z"/><path d="m20.11 47.29c1.59 0 3.14-.07 4.72-.07.72 0 .94.21.94 1.55v.86c0 1.12-.11 1.52-1.12 1.52-1.48 0-2.95-.08-4.47-.08h-2.88a1.06 1.06 0 0 0 -1.08 1.08v10.1a1.05 1.05 0 0 0 1.08 1h5.62c1.48 0 3.46-.07 4.54-.07.9 0 .94.32.94 2.09 0 1.15 0 1.87-1 1.87s-2.92-.1-4.47-.1h-17.45c-1.55 0-3.39.1-4.47.1s-1-.68-1-1.91c0-1.73 0-2 .94-2 1.08 0 3 .07 4.54.07h5.61a1.05 1.05 0 0 0 1.08-1v-10.15a1.06 1.06 0 0 0 -1.08-1.08h-2.88c-1.52 0-3 .08-4.47.08-1 0-1.12-.4-1.12-1.48v-.87c0-1.37.22-1.58.94-1.58 1.55 0 3.13.07 4.68.07z"/><path d="m71 53c0 .61-1.45 2-1.91 2.49a62.6 62.6 0 0 1 -19.57 13.6c-1.19.58-1.23.62-1.52 1.23a.37.37 0 0 1 -.36.22c-.39 0-1.15-1.45-1.4-1.88a10 10 0 0 1 -1.09-2.16c0-.4.65-.47 1.12-.61 8-2.35 17-9.16 22.1-15.68a.88.88 0 0 1 .61-.4c.72 0 2.02 2.67 2.02 3.19zm-18.6-6c.47.33 2.2 1.52 2.2 2.06 0 .83-1.7 2.77-2.38 2.77a3.86 3.86 0 0 1 -1.44-1 44.61 44.61 0 0 0 -4.78-3.25c-.28-.18-.57-.36-.57-.69 0-.54 1.44-2.85 2.27-2.85.55-.04 4.01 2.53 4.7 3.03z"/><path d="m106.31 49.42c1.51 0 3-.08 4.51-.08 1.08 0 1 .47 1 2.49 0 1.05-.11 1.41-1 1.41-1.52 0-3-.08-4.51-.08h-1.66c-1.08 0-1.08 1.16-1.11 1.41-.51 6.56-2.49 11.53-7.75 15.75-.62.5-2.74 2.13-3.5 2.13s-2.67-1.88-2.67-2.53c0-.39.58-.65 1-.86a18.86 18.86 0 0 0 6.2-5.34 15.83 15.83 0 0 0 2.45-6.23 26.19 26.19 0 0 0 .39-3.28 1 1 0 0 0 -1-1.05h-4.78a1.53 1.53 0 0 0 -1.59.83c-.72 1.12-4.72 6.81-5.8 6.81-.72 0-3-1.44-3-2.19 0-.29.4-.58.58-.76a31.38 31.38 0 0 0 9-15.72c.08-.43.15-.82.47-.82a23.52 23.52 0 0 1 2.31.61c.36.11 2.13.54 2.13 1 0 .22-.33.4-.51.51-.5.32-.72.9-1.08 2-.25.68-.54 1.55-1 2.67a1.6 1.6 0 0 0 -.22.68c0 .47.29.65.69.69zm4.33-3.68c0 .54-1.3 1.62-1.77 1.62-.18 0-.33-.18-.47-.32a31.09 31.09 0 0 0 -2.56-2.92c-.14-.15-.32-.33-.32-.51 0-.43 1.37-1.48 1.76-1.48a15.26 15.26 0 0 1 3.36 3.61zm3.6-2.45c0 .5-1.3 1.62-1.73 1.62-.22 0-.36-.22-.47-.36-.76-.94-1.76-2-2.59-2.88a.7.7 0 0 1 -.33-.47c0-.43 1.34-1.48 1.77-1.48s3.35 3.1 3.35 3.57z"/><path d="m147.9 54.39c1.65 0 4-.11 4.47-.11 1 0 1 .29 1 2.27 0 1.16 0 1.84-1 1.84-1.51 0-3-.07-4.5-.07h-16.55c-1.48 0-3 .07-4.51.07-.93 0-1-.68-1-1.8 0-2 .07-2.31 1-2.31.47 0 3 .11 4.47.11z"/><path d="m171.07 51.47c.5 0 4.32 2.38 5 2.81 1.19.76 2.27 1.3 2.27 1.84s-1.44 2.74-2.2 2.74a1.8 1.8 0 0 1 -.79-.4 60.86 60.86 0 0 0 -5.84-3.67c-.25-.11-.54-.29-.54-.58.03-.58 1.37-2.74 2.1-2.74zm23.82-.18a13.11 13.11 0 0 1 -.79 2.27 31.24 31.24 0 0 1 -6.31 9.37 35.43 35.43 0 0 1 -12.33 7.32 2 2 0 0 0 -1.19.75c-.14.18-.29.51-.54.51s-.65-.65-.75-.94c-.47-1-.91-1.95-1.34-2.92a1 1 0 0 1 -.07-.29c0-.28.47-.39.68-.43 1.12-.29 3.18-1 4.29-1.48a24.51 24.51 0 0 0 9-5.66c3-3 4.54-6.19 6-10.12.11-.33.26-.79.72-.79s2.63 1.76 2.63 2.41zm-14.89-4.79c.79.57 2.23 1.47 2.23 2s-1.51 2.63-2.19 2.63c-.26 0-.65-.32-.87-.47a52.59 52.59 0 0 0 -5.17-3.8c-.25-.18-.65-.36-.65-.69 0-.58 1.59-2.52 2.2-2.52s3.84 2.35 4.45 2.85zm7.57-3.5a13.11 13.11 0 0 1 2.31 1.66c.5.43 1.44 1.22 1.44 1.51 0 .54-1.12 1.8-1.59 1.8-.22 0-.58-.43-.86-.68-.83-.79-1.7-1.48-2.56-2.2-.15-.11-.33-.25-.33-.43a3.11 3.11 0 0 1 1.63-1.66zm3.21-3.1c.39 0 3.78 2.7 3.78 3.17s-1.12 1.8-1.59 1.8c-.18 0-.36-.18-.46-.28a32.1 32.1 0 0 0 -2.92-2.53c-.15-.14-.4-.29-.4-.5.04-.4 1.23-1.66 1.63-1.66z"/><path d="m225.63 53.31a28.43 28.43 0 0 0 2.92-8.15c0-.29.07-.79.39-.79a16.75 16.75 0 0 1 2.53.83c.68.25 1.91.68 1.91 1.08 0 .22-.22.36-.4.47a2 2 0 0 0 -.83 1.26 56.65 56.65 0 0 1 -3.46 7.86 1.33 1.33 0 0 0 -.22.65c0 .46.33.72.69 1s2.67 2.1 2.67 2.56c0 .65-1.66 2.92-2.35 2.92a1.46 1.46 0 0 1 -.9-.54c-.47-.5-1.91-2-2.52-2-.43 0-.65.29-.9.58a30.83 30.83 0 0 1 -6.42 5.96c-.86.61-4.93 3.1-5.8 3.1s-2.56-2.2-2.56-2.71.58-.65 1.05-.82l.28-.11a26.18 26.18 0 0 0 10-7.21 1.89 1.89 0 0 0 .58-1 .79.79 0 0 0 -.47-.72 29.45 29.45 0 0 0 -4.29-1.7c-.36-.1-.76-.28-.76-.72s.9-2.88 1.84-2.88 4.36 1.59 5.3 2.06a1.49 1.49 0 0 0 .54.14c.71-.04.89-.62 1.18-1.12z"/><path d="m280 53c0 .61-1.44 2-1.91 2.49a62.6 62.6 0 0 1 -19.57 13.58c-1.19.58-1.23.62-1.52 1.23a.37.37 0 0 1 -.36.22c-.39 0-1.15-1.45-1.4-1.88a9.91 9.91 0 0 1 -1.08-2.16c0-.4.64-.47 1.11-.61 8-2.35 17-9.16 22.1-15.68a.88.88 0 0 1 .61-.4c.73.02 2.02 2.69 2.02 3.21zm-18.6-6c.47.33 2.2 1.52 2.2 2.06 0 .83-1.7 2.77-2.38 2.77a3.86 3.86 0 0 1 -1.44-1 44.61 44.61 0 0 0 -4.8-3.35c-.28-.18-.57-.36-.57-.69 0-.54 1.44-2.85 2.27-2.85.58.06 4.04 2.63 4.73 3.13z"/><path d="m308.26 52.12c.72 0 4.32 2.85 5 3.46.51.43 2.53 2 2.53 2.59s-1.7 2.49-2.42 2.49a1.27 1.27 0 0 1 -.79-.47 54.5 54.5 0 0 0 -5.19-4.19.61.61 0 0 0 -.36-.14c-.32 0-.43.29-.43.58v9.84c0 1.44.07 2.84.07 4.29 0 1.65 0 1.87-2.23 1.87-1.44 0-2.06 0-2.06-1.23 0-1.62.11-3.24.11-4.86v-20.57c0-.94-.07-1.91-.11-2.82 0-.18 0-.5 0-.64 0-.36.11-.55.47-.55.21 0 1 .11 1.22.15 1.62.21 3.1.36 3.1.86a1.07 1.07 0 0 1 -.18.47 2.93 2.93 0 0 0 -.4 1.91v2.13 5.41c0 .28.18.36.29.36a.39.39 0 0 0 .32-.15c.26-.29.66-.79 1.06-.79z"/></g></svg>