<svg viewBox="0 0 223.85 56.21" xmlns="http://www.w3.org/2000/svg"><g fill="#0084d0"><path d="m12.42 18c0 1.15.05 2.29.05 3.41 0 .71-.34.79-1.3.79-1.43 0-1.69-.08-1.69-.76 0-1.12 0-2.24 0-3.36v-7.08c0-.16.08-.73-.42-.73-.26 0-.81.44-1 .6-.78.57-4.92 3.33-5.6 3.33a4.41 4.41 0 0 1 -2-2.08c0-.26.23-.36.41-.44a37.35 37.35 0 0 0 10.24-6.9 22.63 22.63 0 0 0 3.55-4.39c.07-.13.23-.39.41-.39a9.77 9.77 0 0 1 1.77 1.07c.29.18 1 .62 1 .93s-.13.21-.26.26a1.44 1.44 0 0 0 -1 .63 50.64 50.64 0 0 1 -3.58 3.9 1.4 1.4 0 0 0 -.58 1.21z"/><path d="m49.22 8.3c0 .45-1 1.46-1.38 1.8a45.19 45.19 0 0 1 -14.13 9.81c-.86.42-.89.45-1.1.89a.27.27 0 0 1 -.26.16c-.28 0-.83-1.05-1-1.36a7.11 7.11 0 0 1 -.79-1.6c0-.29.46-.34.8-.44 5.76-1.69 12.26-6.61 16-11.33a.62.62 0 0 1 .4-.23c.52 0 1.46 1.91 1.46 2.3zm-13.43-4.3c.34.23 1.59 1.09 1.59 1.48 0 .6-1.23 2-1.72 2a2.65 2.65 0 0 1 -1-.71 33.62 33.62 0 0 0 -3.47-2.42c-.2-.13-.41-.26-.41-.49 0-.39 1-2.06 1.64-2.06a20.84 20.84 0 0 1 3.37 2.2z"/><path d="m72.62 3.18c.54 0 1.82 0 2.34-.06.1 0 .39-.05.47-.05.62 0 1.74 1.41 1.74 1.67s-.23.54-.44 1.66c-.89 5-2.73 8.49-7 11.46a24.18 24.18 0 0 1 -5 2.65 2.53 2.53 0 0 1 -.86.24c-.62 0-1.56-1.75-1.56-2.16s.23-.37.47-.42a18.32 18.32 0 0 0 6.48-3.44 12.1 12.1 0 0 0 4.27-7.6 4.32 4.32 0 0 0 0-.62c0-.5-.44-.55-.91-.55h-9.14c-1.09 0-2.16 0-3.25 0-.81 0-.79-.23-.79-1.4s0-1.49.71-1.49c1.12 0 2.24.06 3.36.06z"/><path d="m94.16 3.31c.32 0 .66 0 .66.31s-.16.26-.27.36-.13.6-.13.84v.57c0 5.39-.36 10-4.5 13.93-.21.18-.52.54-.81.54s-2.31-1-2.31-1.43c0-.18.21-.36.34-.47 4-3.28 4.45-6.92 4.45-11.76 0-.79 0-1.83-.11-2.58 0-.08 0-.21 0-.29s.15-.28.34-.28c.47 0 1.8.18 2.34.26zm6.17 10.88c0 .8 0 1.19.42 1.19.86 0 6-4.58 6.82-5.44.13-.13.31-.33.52-.33.44 0 1.33 1.66 1.33 2.08s-1 1.22-1.35 1.51c-1.57 1.35-3.13 2.68-4.77 3.9-.7.55-1.82 1.38-2.45 1.93-.23.18-.49.47-.8.47a7 7 0 0 1 -1.8-.78c-.36-.21-.83-.47-.83-.94 0-.18.1-1.87.1-3.12v-9.12a23.48 23.48 0 0 0 -.1-2.65v-.13a.23.23 0 0 1 .26-.26c.15 0 .81.1 1 .13 1.36.18 2.11.26 2.11.55s-.1.23-.21.36a1.05 1.05 0 0 0 -.23.68v2.55z"/><path d="m132.19 4.17c1.15 0 2.27-.06 3.41-.06.52 0 .68.16.68 1.12v.63c0 .8-.08 1.09-.81 1.09-1.07 0-2.13 0-3.23 0h-2.08a.77.77 0 0 0 -.78.78v7.27a.76.76 0 0 0 .78.75h4.06c1.07 0 2.5-.05 3.28-.05s.68.24.68 1.51c0 .83 0 1.35-.73 1.35s-2.11-.07-3.23-.07h-12.6c-1.12 0-2.45.07-3.23.07s-.73-.49-.73-1.38c0-1.24 0-1.48.68-1.48s2.19.05 3.28.05h4.06a.76.76 0 0 0 .78-.75v-7.32a.76.76 0 0 0 -.78-.78h-2.08c-1.09 0-2.16 0-3.23 0-.73 0-.8-.29-.8-1.07v-.57c0-1 .15-1.15.67-1.15 1.12 0 2.27.06 3.39.06z"/><path d="m168.94 8.3c0 .45-1 1.46-1.38 1.8a45.19 45.19 0 0 1 -14.13 9.81c-.86.42-.89.45-1.1.89a.27.27 0 0 1 -.26.16c-.28 0-.83-1.05-1-1.36a7.11 7.11 0 0 1 -.78-1.56c0-.29.47-.34.8-.44 5.76-1.69 12.26-6.61 16-11.33a.64.64 0 0 1 .44-.28c.47.01 1.41 1.92 1.41 2.31zm-13.43-4.3c.34.23 1.59 1.09 1.59 1.48 0 .6-1.23 2-1.72 2a2.72 2.72 0 0 1 -1-.71 34.57 34.57 0 0 0 -3.46-2.42c-.21-.13-.42-.26-.42-.49 0-.39 1-2.06 1.64-2.06a20.42 20.42 0 0 1 3.37 2.2z"/><path d="m181.61 6.74c.42 0 .89-.15.89-.65v-1.77c0-1.46-.11-2.84-.11-2.86 0-.18.08-.26.26-.26a18.34 18.34 0 0 1 1.93.13c.65 0 1.2.13 1.2.36s-.11.21-.16.26c-.34.42-.31.63-.31 2.32v1.8a.67.67 0 0 0 .68.67h4.58c.36 0 .65-.23.65-.75 0-.94-.05-3.65-.11-4.43 0-.1 0-.21 0-.31a.32.32 0 0 1 .34-.31c.36 0 1.82.15 2.23.18s.81 0 .81.29-.1.23-.28.41a8.3 8.3 0 0 0 -.21 2.18v1 .78.15c0 .53.23.81.75.81h.7 3.07s.66.21.66 1.22c0 1.3-.08 1.54-.73 1.54-1 0-2 0-3 0h-.7c-.81 0-.81.54-.81.88-.07 4.53-.52 7.68-4.58 10.36a10.5 10.5 0 0 1 -2.6 1.33 4.31 4.31 0 0 1 -1.9-1.9c0-.21.23-.34.41-.42 4.95-2 5.86-4.21 5.86-9.42 0-.44-.18-.83-.67-.83h-4.46a.66.66 0 0 0 -.68.65v2.47c0 .73.05 1.43.05 2.16 0 1.15-.13 1-1.69 1-.91 0-1.22 0-1.22-.65 0-.83.05-1.66.05-2.5v-2.5a.69.69 0 0 0 -.71-.67h-.8c-1 0-2.06.08-2.92.08-.65 0-.67-.55-.67-1.2 0-1.25 0-1.59.65-1.59s1.92 0 2.94 0z"/><path d="m220.68 9.29c1 0 2.31-.08 2.58-.08.57 0 .59.21.59 1.64 0 .84 0 1.33-.56 1.33-.88 0-1.75 0-2.61 0h-9.58c-.85 0-1.73 0-2.6 0-.54 0-.57-.49-.57-1.3 0-1.46 0-1.67.59-1.67.27 0 1.71.08 2.58.08z"/><path d="m17.65 39.55a8.52 8.52 0 0 0 1.46-.08 1.14 1.14 0 0 1 .26 0c.52 0 1.82 1.64 1.82 1.95s-.36.5-.81.89c-.23.2-.47.41-.7.65-2.21 2.18-4.5 4.34-6.9 6.35-.23.21-.49.42-.49.75s.23.52.39.76a8 8 0 0 1 1 1.59c0 .49-1.61 1.53-2.16 1.53-.26 0-.42-.26-.52-.47a26.24 26.24 0 0 0 -4.71-5.62c-.16-.16-.5-.44-.5-.68s1.41-1.56 1.93-1.56 1.69 1.33 2 1.67.36.39.68.39a.91.91 0 0 0 .62-.29q1.68-1.41 3.26-2.89c.28-.26 1.64-1.51 1.64-1.82s-.47-.34-1-.34h-10.92c-1.15 0-2.45.08-3.33.08-.67-.02-.67-.54-.67-1.27 0-1.35 0-1.64.62-1.64h3.39z"/><path d="m42.14 43.33c1 0 2.31-.08 2.58-.08.57 0 .59.21.59 1.64 0 .83 0 1.33-.57 1.33-.87 0-1.74 0-2.6 0h-9.58c-.85 0-1.73 0-2.6 0-.54 0-.57-.5-.57-1.3 0-1.46.05-1.67.59-1.67.27 0 1.71.08 2.58.08z"/><path d="m70.35 39.53c1.1 0 2.19-.06 3.28-.06.71 0 .73.32.73 1.51 0 .94 0 1.31-.75 1.31-1.1 0-2.16-.06-3.26-.06h-1.2c-.75 0-.78.81-.8 1-.35 4.77-1.82 8.35-5.6 11.39a8 8 0 0 1 -2.52 1.54 3.55 3.55 0 0 1 -2-1.82c0-.24.29-.37.45-.47 2.78-1.56 5.15-3.59 6.09-6.74a19.14 19.14 0 0 0 .77-4.13.72.72 0 0 0 -.73-.76h-3.44a1.1 1.1 0 0 0 -1.14.6c-.52.81-3.41 4.9-4.2 4.9-.52 0-2.18-1-2.18-1.56 0-.21.28-.42.41-.55a22.55 22.55 0 0 0 6.54-11.36c.05-.29.1-.6.34-.6s2 .55 2.31.65.89.23.89.49-.18.27-.29.32c-.41.26-.57.65-.86 1.48a18.52 18.52 0 0 1 -.73 1.93 1.32 1.32 0 0 0 -.15.49c0 .34.21.47.49.5z"/><path d="m100.72 42.68c1.1 0 2.19-.08 3.31-.08.81 0 .78.21.78 1.43 0 .89 0 1.38-.7 1.38-1.15 0-2.27 0-3.39 0h-3.4c-.73 0-.76.67-.84 1.22a10.62 10.62 0 0 1 -5.62 8.2 12.11 12.11 0 0 1 -2.71 1.15c-.57 0-2-1.72-2-2.16s.49-.39.73-.45a12.34 12.34 0 0 0 3.25-1.37 7.66 7.66 0 0 0 3.28-4.74 12.17 12.17 0 0 0 .23-1.26.61.61 0 0 0 -.62-.6h-5.28c-1.07 0-2.17 0-3.26 0-.68 0-.7-.39-.7-1.33 0-1.2.08-1.48.65-1.48 1.12 0 2.21.08 3.31.08zm-3.85-6.82c1.12 0 2.24-.06 3.39-.06.7 0 .67.34.67 1.62 0 .8 0 1.17-.7 1.17-1.09 0-2.21-.05-3.33-.05h-5.68c-1.12 0-2.23.05-3.33.05-.78 0-.7-.42-.7-1.41s0-1.38.7-1.38c1.12 0 2.24.06 3.39.06z"/><path d="m124.28 52.88v2.63c0 .65-.55.7-1 .7-1.46 0-1.54-.13-1.54-.83s0-1.64 0-2.45v-5.39c0-.13 0-.39-.31-.39s-.49.24-.67.37c-.58.41-3.75 2.52-4.27 2.52a3.08 3.08 0 0 1 -1.67-1.71c0-.29.31-.42.6-.55 3.77-1.77 8.07-4.82 10.23-8.41.13-.21.23-.47.44-.47a5.61 5.61 0 0 1 1.54.91c.26.16.73.45.73.78s-.19.29-.37.32c-.39.1-.49.26-.75.57a30.3 30.3 0 0 1 -2.35 2.6 1.5 1.5 0 0 0 -.67 1.43z"/><path d="m160.3 42.34c0 .44-1 1.46-1.38 1.79a45.22 45.22 0 0 1 -14.13 9.87c-.86.41-.89.44-1.1.88a.25.25 0 0 1 -.26.16c-.28 0-.83-1-1-1.35a7.17 7.17 0 0 1 -.78-1.57c0-.28.46-.33.8-.44 5.76-1.69 12.26-6.61 16-11.32a.64.64 0 0 1 .44-.29c.47-.07 1.41 1.93 1.41 2.27zm-13.43-4.34c.34.24 1.59 1.1 1.59 1.49 0 .59-1.23 2-1.72 2a2.72 2.72 0 0 1 -1-.7 32.14 32.14 0 0 0 -3.47-2.42c-.2-.13-.41-.26-.41-.5s1-2 1.64-2a21.42 21.42 0 0 1 3.37 2.13z"/><path d="m184.61 38.59a4.48 4.48 0 0 0 1-.08 1.35 1.35 0 0 1 .29 0c.57 0 1.9 1.59 1.9 2a2.32 2.32 0 0 1 -.32.63c-.15.29-.41.68-.67 1.2-2.58 5-5.08 8.74-9.9 11.84a16.73 16.73 0 0 1 -3.5 1.82c-.59 0-2.21-1.28-2.21-1.75 0-.26.34-.41.52-.49a23 23 0 0 0 10.08-8.33c.41-.62 2-3.15 2-3.8 0-.34-.44-.36-.81-.36h-4.94c-.52 0-.63 0-1.1.7s-3.48 4.29-4.16 4.29c-.34 0-2.24-1-2.24-1.56a.44.44 0 0 1 .24-.36 24.05 24.05 0 0 0 7-9.3c.1-.26.2-.62.41-.62a13.52 13.52 0 0 1 1.85.81 3.3 3.3 0 0 0 .34.15c.31.13.78.29.78.52s-.26.26-.39.34c-.31.18-.42.39-.68.86l-.36.62a1 1 0 0 0 -.18.47c0 .26.2.39.44.42zm5.26-.52c0 .39-1 1.09-1.33 1.09-.16 0-.24-.15-.34-.28a27.17 27.17 0 0 0 -1.69-2.3.57.57 0 0 1 -.18-.33c0-.32 1.06-1 1.35-1a10.37 10.37 0 0 1 2.19 2.82zm2.68-1.61c0 .39-1 1.06-1.33 1.06s-.26-.13-.34-.26a25.81 25.81 0 0 0 -1.72-2.26.55.55 0 0 1 -.18-.31c0-.34 1.07-1 1.35-1a10.09 10.09 0 0 1 2.22 2.77z"/></g></svg>