<svg viewBox="0 0 258.79 35.33" xmlns="http://www.w3.org/2000/svg"><g fill="#F786D1"><path d="m13.58 25.3v1.13c0 4.24-.77 8.9-6.81 8.9-5.77 0-6.77-4.11-6.77-9.01v-17c0-5.32 2.29-8.32 6.82-8.32 5.6 0 6.61 4 6.61 8.36v1.3h-3.61v-1.54c0-2.64-.42-4.84-3.06-4.84s-3.13 2-3.13 4.93v17.34c0 3.35.73 5.55 3.24 5.55s3.13-2.26 3.13-5.4v-1.4z"/><path d="m34.42 16.65v10.65c0 5.52-2.61 8-6.7 8s-6.57-2.42-6.57-7.85v-10.89c0-4.9 2.59-7.54 6.72-7.54s6.55 2.79 6.55 7.63zm-9.69-.11v11c0 2.78.93 4.55 3.06 4.55s3.05-1.36 3.05-4.59v-11c0-2.51-.83-4.32-3-4.32s-3.11 1.58-3.11 4.36z"/><path d="m42.38 16.76c0-4.62 0-6.1-.05-7.34h3.38a19.89 19.89 0 0 1 .15 2.39 4.43 4.43 0 0 1 4.35-2.81 3.68 3.68 0 0 1 4 2.94 4.88 4.88 0 0 1 4.65-2.94c2.49 0 4.79 1.12 4.79 6v19.88h-3.55v-19.1c0-2-.39-3.5-2.37-3.5-2.39 0-2.93 2.13-2.93 4.87v17.73h-3.57v-18.88c0-2.74-.7-3.71-2.43-3.71-2.33 0-2.87 2.18-2.87 5.08v17.51h-3.55z"/><path d="m71.33 16.76c0-4.62 0-6.1 0-7.34h3.38a16.48 16.48 0 0 1 .15 2.39 4.43 4.43 0 0 1 4.3-2.81 3.68 3.68 0 0 1 4 2.94 4.88 4.88 0 0 1 4.65-2.94c2.49 0 4.79 1.12 4.79 6v19.88h-3.55v-19.1c0-2-.39-3.5-2.37-3.5-2.39 0-2.93 2.13-2.93 4.87v17.73h-3.57v-18.88c0-2.74-.7-3.71-2.43-3.71-2.33 0-2.87 2.18-2.87 5.08v17.51h-3.55z"/><path d="m113.26 28v6.88h-3.39a25 25 0 0 1 -.14-2.65c-.79 2.31-2.4 3.05-4.58 3.05s-5-.81-5-6.5v-19.36h3.55v18.43c0 3 .82 4.2 2.7 4.2s3.2-1.07 3.2-5.93v-16.7h3.56z"/><path d="m121.93 17.17c0-5.11 0-6.49-.05-7.75h3.38a21.33 21.33 0 0 1 .15 2.55 4.58 4.58 0 0 1 4.66-3c2.79 0 5 1.6 5 6.27v19.64h-3.55v-18.88c0-2.47-.83-3.71-2.68-3.71-2.13 0-3.38 1.06-3.38 5.87v16.72h-3.55z"/><path d="m143.78 9.42h3.55v25.46h-3.55zm0-9.42h3.55v5.16h-3.53z"/><path d="m168.81 26.84v.35c0 4.39-1.12 8.09-6.33 8.09-5 0-6.18-3.44-6.18-8.6v-9.88c0-4.31 1.57-7.78 6.4-7.78 5.21 0 6.11 3.82 6.11 7.22v1h-3.53v-.88c0-2.31-.39-4.3-2.65-4.3-2 0-2.75 1.48-2.75 4.49v10.95c0 2.31.44 4.72 2.7 4.72 2 0 2.7-1.36 2.7-4.58v-.8z"/><path d="m188.05 30.48c0 1.73 0 3.65.1 4.4h-3.3a16.87 16.87 0 0 1 -.27-2.07 4.11 4.11 0 0 1 -4.16 2.47c-3.68 0-5.15-3.26-5.15-7.19v-.45c0-5.76 3.58-7.8 8.11-7.8h1.11v-4c0-2.31-.39-3.77-2.39-3.77s-2.52 1.51-2.52 3.5v.68h-3.51v-.65c0-3.56 1.4-6.58 6.15-6.58 4.44 0 5.83 2.78 5.83 6.54zm-3.49-7.8h-1.24c-2.88 0-4.6 1.21-4.6 4.88v.44c0 2.27.7 4.1 2.7 4.1 2.34 0 3.14-1.87 3.14-5.68z"/><path d="m195.27 9.42h2.92v-6.25h3.53v6.25h3.59v3.16h-3.59v17.09c0 1.31.23 2.56 1.84 2.56a7.74 7.74 0 0 0 1.59-.15v2.76a8.09 8.09 0 0 1 -2.76.39c-2.47 0-4.2-1-4.2-4.91v-17.74h-2.92z"/><path d="m212.87 9.42h3.56v25.46h-3.56zm0-9.42h3.55v5.16h-3.52z"/><path d="m237.67 16.65v10.65c0 5.52-2.61 8-6.7 8s-6.57-2.42-6.57-7.85v-10.89c0-4.9 2.58-7.54 6.72-7.54s6.55 2.79 6.55 7.63zm-9.67-.11v11c0 2.78.93 4.55 3.06 4.55s3.05-1.36 3.05-4.59v-11c0-2.51-.84-4.32-3-4.32s-3.11 1.58-3.11 4.36z"/><path d="m245.62 17.17c0-5.11 0-6.49-.05-7.75h3.43a21.75 21.75 0 0 1 .1 2.58 4.6 4.6 0 0 1 4.67-3c2.78 0 5 1.6 5 6.27v19.61h-3.56v-18.88c0-2.47-.82-3.71-2.67-3.71-2.13 0-3.38 1.06-3.38 5.87v16.72h-3.56z"/></g></svg>