<svg viewBox="0 0 762.07 379.68" xmlns="http://www.w3.org/2000/svg"><g fill="#F786D1"><g stroke="#F786D1" stroke-linecap="round" stroke-linejoin="round" stroke-width="2"><path d="m14.21 91.92v7.19c0 11.7 4 18 12.74 18 8.88 0 12.4-6.44 12.4-20 0-14.53-3.2-20.17-16.27-30.36-13.28-10.48-20.02-16.75-20.02-35.04 0-15.71 4.71-30.81 24.19-30.71 18.48.1 23.36 12.4 23.36 28.16v5.76h-13.12v-5.4c0-10.31-2-17-10.51-17s-10.71 7.48-10.71 17.23c0 11.54 2.3 15.92 13.68 24.53 17.23 13 22.69 20.29 22.69 40.9 0 17.45-5 33.35-25.93 33.35-20.03 0-25.71-13.13-25.71-29.48v-7.13z"/><path d="m83 2.74h13.22v51.46h25.83v-51.46h13.21v124.13h-13.21v-60.53h-25.83v60.53h-13.22z"/><path d="m182.76 87.25-5.93 39.62h-13.38l20.39-124.13h18.82l21.24 124.13h-13.84l-6.38-39.62zm19.24-12.14c-4.34-27.33-7.45-48.45-8.63-60.19h-.54c-.46 9.59-4.9 37.52-8.25 60.19z"/><path d="m255.82 2.74h22.7c18.45 0 27.24 9.34 27.24 29.39v7.56c0 18.66-5.58 32.43-28.15 32.43h-8.61v54.75h-13.18zm13.18 58.26h7.38c14.08 0 16.12-8.64 16.12-21.54v-6.67c0-10-2.2-18.83-15-18.83h-8.5z"/><path d="m377.06 66.76h-27.84v48h31.61l-1.83 12.11h-43v-124.13h42.64v12.26h-29.42v39.62h27.84z"/><path d="m471.77 126.87v-46.34a9.83 9.83 0 0 0 -.54-3.34l-22.82-74.45h14.53c6.16 22.45 13.6 49.26 15.66 60.61h.18c2.4-12 10-39.15 15.65-60.61h14l-23.08 75.26a15.68 15.68 0 0 0 -.37 3.7v45.14z"/><path d="m588.63 33.23v62.56c0 21.81-9 32.74-27.48 32.74-19.22 0-26.25-12.25-26.25-32.57v-62.71c0-21.08 9.59-32.17 27.15-32.17 18.34 0 26.58 12.54 26.58 32.15zm-40.25-.61v64.38c0 13.95 5.07 19.51 13.4 19.51 8.78 0 13.37-5.39 13.37-20.1v-63.77c0-13.18-4.52-19.49-13.48-19.49s-13.29 5.96-13.29 19.47z"/><path d="m633.89 2.74v96.48c0 10.25 3.6 17.23 12.9 17.23 9.5 0 12.74-6.59 12.74-17.13v-96.58h13.31v96.11c0 19.18-8.61 29.68-26.32 29.68-17.19 0-25.84-9.65-25.84-29.38v-96.41z"/><path d="m724.65 68.91v58h-13.21v-124.17h21.69c18.65 0 27.82 8 27.82 28.57v5.69c0 16.86-5.93 23.77-12.63 26.14 7.87 2.86 11.53 8.86 11.53 25.43 0 10.61-.18 30.46 1.22 38.3h-12.87c-1.57-7.74-1.3-28.6-1.3-37.3 0-16.08-2.27-20.66-14.56-20.66zm0-11.22h8.11c11.79 0 14.88-6.82 14.88-20.08v-5.53c0-11.33-3.09-18.12-15.52-18.12h-7.47z"/><path d="m11.29 180.65h43.21v12.23h-30v40.41h28.29v12.23h-28.29v59.26h-13.21z"/><path d="m98.92 180.65v96.48c0 10.25 3.6 17.23 12.91 17.23 9.49 0 12.74-6.59 12.74-17.13v-96.58h13.31v96.11c0 19.19-8.62 29.68-26.32 29.68-17.2 0-25.85-9.65-25.85-29.38v-96.41z"/><path d="m186.85 192.88h-20.09v-12.23h53.24v12.23h-20v111.9h-13.15z"/><path d="m262.07 180.65v96.48c0 10.25 3.6 17.23 12.9 17.23 9.5 0 12.74-6.59 12.74-17.13v-96.58h13.29v96.11c0 19.19-8.61 29.68-26.32 29.68-17.19 0-25.84-9.65-25.84-29.38v-96.41z"/><path d="m349.11 246.82v58h-13.21v-124.17h21.69c18.65 0 27.83 8 27.83 28.57v5.67c0 16.86-5.93 23.77-12.64 26.14 7.87 2.92 11.54 8.85 11.54 25.45 0 10.61-.19 30.46 1.22 38.3h-12.88c-1.57-7.74-1.3-28.6-1.3-37.3 0-16.08-2.26-20.66-14.56-20.66zm0-11.21h8.11c11.8 0 14.89-6.83 14.89-20.09v-5.52c0-11.33-3.1-18.12-15.53-18.12h-7.47z"/><path d="m458.26 244.68h-27.84v48h31.58l-1.79 12.14h-43v-124.17h42.63v12.23h-29.42v39.65h27.84z"/></g><path d="m14.19 352.47a1.29 1.29 0 0 0 1.44-.83 29.12 29.12 0 0 0 1.77-3.93c.11-.28.21-.54.5-.54a16.59 16.59 0 0 1 3.17.76c.5.18.9.36.9.72s-.33.4-.61.47a.64.64 0 0 0 -.58.36c-.39.72-.76 1.44-1.15 2.16a.52.52 0 0 0 -.11.32c0 .36.29.47.61.51h5.87c1.08 0 2.12-.08 3.2-.08 1.62 0 1.91.62 1.91 2.09 0 .76-.07 1.73-.07 2.95v17.35c0 1.3.07 2.56.07 3.82 0 1-.43 1-2 1s-2 0-2-1v-.51c0-.68-.29-1-1-1h-13.46c-.65 0-1 .25-1 .94v.47c0 1-.46 1-2 1s-2 0-2-1c0-1.26.07-2.56.07-3.82v-17.25c0-1.11-.07-2.19-.07-3.27 0-1.37.57-1.77 1.87-1.77 1.08 0 2.16.08 3.24.08zm12 7.12a1 1 0 0 0 1-1v-1.66a1 1 0 0 0 -1-1h-13.62a1 1 0 0 0 -1 1v1.66a1 1 0 0 0 1 1zm-14.61 5.94a1 1 0 0 0 1 1h13.6a1 1 0 0 0 1-1v-1.76a1 1 0 0 0 -1-1h-13.61a1 1 0 0 0 -1 1zm0 7.24a1 1 0 0 0 1 1h13.6a1 1 0 0 0 1-1v-2.09a1 1 0 0 0 -1-1h-13.61a1 1 0 0 0 -1 1z"/><path d="m55.14 356.07c.25.1.65.21.65.5s-.18.32-.32.4c-.58.36-.62.68-.76 1.4-.29 1.66-.5 3.35-.86 5a5 5 0 0 0 -.11.76.38.38 0 0 0 .36.43.82.82 0 0 0 .47-.22c2.66-1.87 4.82-3.31 8.24-3.31 4.43 0 7.85 3 7.85 7.49 0 5.11-3.82 7.27-8.18 8.57a24.26 24.26 0 0 1 -4.67 1c-.8 0-1-.32-1.34-1a7.56 7.56 0 0 1 -.61-2.34c0-.57.43-.61.9-.65a23.6 23.6 0 0 0 4.79-.72c2.55-.64 5.22-1.76 5.22-4.82 0-2.48-2-3.82-4.32-3.82-3.78 0-7.6 3.17-9.86 6-.29.36-.58.75-1.08.75-.33 0-2.74-.36-2.74-1.4a5.43 5.43 0 0 1 .36-1.26c.32-1.15.61-2.34.83-3.53a57.46 57.46 0 0 0 .86-7.85c0-.28 0-.54 0-.79 0-1 0-1.58.61-1.58a25 25 0 0 1 3.71.99zm.65-7.78c.54 0 3.46 1.87 4.1 2.27s2.63 1.47 2.63 2.09-1.47 2.84-2.23 2.84c-.4 0-.86-.5-1.15-.72a29.36 29.36 0 0 0 -4.54-3.06c-.36-.22-.83-.4-.83-.79s1.16-2.63 2.02-2.63z"/><path d="m107.81 368.27h2.66s2.09.11 2.09 1.37a13.41 13.41 0 0 1 -.61 2.74 18.53 18.53 0 0 1 -2.23 5c-1.48 2.09-3.78 2.23-6.12 2.23-.79 0-1.95.14-1.95-2.52 0-.5.07-.86.65-.86a10.2 10.2 0 0 1 1.15.11h.87a3 3 0 0 0 2.55-.9 8.32 8.32 0 0 0 1.41-3.42c0-.54-.36-.57-1-.57h-10.13c-.75 0-1 .21-1.29 1-.72 2.09-.87 2.66-1.59 2.66-.1 0-2.66-.29-2.66-1.26a1.34 1.34 0 0 1 .14-.5 30.66 30.66 0 0 0 1.48-4.35v-.18a.41.41 0 0 0 -.43-.43.57.57 0 0 0 -.25.07c-1 .47-5 2.27-5.87 2.27s-1.62-1.87-1.62-2.52.5-.65 1.08-.83a44.08 44.08 0 0 0 7.31-2.84.85.85 0 0 0 .57-.87c.07-.54 0-.9.61-.9.26 0 .8.08 1.08.11a.93.93 0 0 0 .33 0 1.67 1.67 0 0 0 1-.33 32.87 32.87 0 0 0 3-1.9.32.32 0 0 0 .18-.29c0-.18-.22-.25-.36-.29h-9.86c-1.44 0-2.92.11-4.36.11-.83 0-.79-.43-.79-1.69s0-1.59.79-1.59c1.44 0 2.92.08 4.36.08h5.79c.72 0 1-.29 1-1v-.87c0-.68-.29-1-1-1h-3.03c-1 0-2.12.07-3.16.07-.87 0-.83-.54-.83-1.54s0-1.55.83-1.55c1 0 2.12.07 3.16.07h3.06c.69 0 .94-.25 1-.94a13.28 13.28 0 0 0 -.14-2v-.36c0-.43.28-.5.64-.5.62 0 2.49.14 3.17.22.33 0 1 0 1 .46 0 .26-.18.36-.43.58-.4.32-.43.72-.4 1.58 0 .69.29.94 1 .94h.82c1.08 0 2.13-.07 3.21-.07.86 0 .83.54.83 1.55s0 1.54-.83 1.54c-1.08 0-2.13-.07-3.21-.07h-.82c-.69 0-1 .29-1 1v.91c0 .72.29 1 1 1h1.94a1.86 1.86 0 0 0 1.66-.65 30 30 0 0 0 4.93-6.34c.11-.21.21-.5.5-.5a8.7 8.7 0 0 1 2.16 1.11c.51.26 1.37.69 1.37 1.08s-.32.4-.54.44c-.61.07-.68.14-1.22.86a34.76 34.76 0 0 1 -2.67 3.28.5.5 0 0 0 -.11.32c0 .29.22.36.47.4h1.12c1.44 0 2.88-.08 4.35-.08.83 0 .8.44.8 1.62s0 1.66-.8 1.66c-1.47 0-2.91-.11-4.35-.11h-4.39a2.23 2.23 0 0 0 -1.7.58c-1.33 1-2.66 2.05-4 3-.14.08-.28.18-.28.36a.28.28 0 0 0 .28.26 50.56 50.56 0 0 0 6.3-1.88 1.85 1.85 0 0 1 .58-.18c.36 0 .86.76 1.26 1.34a2.28 2.28 0 0 1 .29.39c.32.47.82 1 .82 1.3a.34.34 0 0 1 -.36.36 1.51 1.51 0 0 1 -.57-.15 1.61 1.61 0 0 0 -.69-.18 3.45 3.45 0 0 0 -.54.11 83.93 83.93 0 0 1 -10.47 1.87c-.29.11-.61.29-.61.65s.32.4.57.4z"/><path d="m148.27 370.82c-.07.58-.25 1.8-.25 2.34a1 1 0 0 0 1.19 1.19c1.73 0 3.89-1.26 5.33-2.16a2.94 2.94 0 0 1 1-.47c.51 0 .47 1.88.47 2.27 0 .65 0 1.8-.61 2.16a17.94 17.94 0 0 1 -6.66 1.84 4.15 4.15 0 0 1 -4.43-4.14 18 18 0 0 1 .33-2.85 17.26 17.26 0 0 0 .21-2.26c0-.83-.32-1.3-1.18-1.3a5.82 5.82 0 0 0 -3.21 1.51c-1.8 1.55-5.25 6.12-6.84 8.17-.21.25-.65.94-1 .94-.75 0-2.88-1.8-2.88-2.63 0-.43.58-.93.87-1.22 4.1-4.07 7.81-8.5 11.66-12.78.33-.36 1.3-1.33 1.3-1.69a.3.3 0 0 0 -.33-.29 21.17 21.17 0 0 0 -2.24.55c-.83.21-5 1.33-5.65 1.33s-.65-.29-1-.83a2.09 2.09 0 0 0 -.25-.43 5.45 5.45 0 0 1 -.83-2c0-.47.36-.54.76-.57a75.66 75.66 0 0 0 13-2.6 3.48 3.48 0 0 1 1-.25c.87 0 2.52 2.52 2.52 3.06s-.47.69-.79.9a44.92 44.92 0 0 0 -5 4.86c-.18.18-.47.47-.47.72a.36.36 0 0 0 .36.36h.72c1 0 3.13.62 3.13 3.6a16.39 16.39 0 0 1 -.23 2.67zm-3-20.33c.36.1.68.25.68.68 0 .18-.5 3.06-1.33 3.06-.25 0-2.27-.72-3.81-1.26-.69-.25-1.3-.47-1.55-.54-1.26-.4-2.05-.54-2.05-1.12a9.17 9.17 0 0 1 .54-1.83c.36-1 .5-1.12.9-1.12s5.81 1.87 6.6 2.13z"/><path d="m172.24 369.53c.83 0 7 5 7 5.87s-1.8 2.77-2.63 2.77c-.28 0-.54-.33-.72-.54a22 22 0 0 0 -5.47-4.9c-.25-.14-.64-.36-.64-.68.02-.61 1.85-2.52 2.46-2.52z"/><path d="m205.28 362.4c0 .14.11.22.29.25s.83 0 .83.47c0 .22-.15.29-.4.5-.43.36-.39 1.05-.39 2.85v8.24c0 1.23.1 2.41.1 3.6s-.46 1.08-1.83 1.08-1.87 0-1.87-1.08.1-2.37.1-3.6v-8.06c0-.22-.1-.47-.39-.47a.55.55 0 0 0 -.33.14c-.57.54-2 2-2.8 2s-2-1.65-2-2.34c0-.5.44-.75.79-1a38 38 0 0 0 9.08-10.12.54.54 0 0 1 .46-.32 9.82 9.82 0 0 1 2.27 1.08c.15.07.25.14.33.18.28.14.75.39.75.75s-.39.44-.65.47c-.5.15-.54.29-.82.72a46 46 0 0 1 -3.46 4.5s-.06.09-.06.16zm2.49-12.85c-.47 0-.51 0-.9.5a35 35 0 0 1 -6.88 6.77 2.93 2.93 0 0 1 -1.26.65c-.58 0-1.91-1.51-1.91-2.12 0-.4.33-.62.61-.8a33.07 33.07 0 0 0 7.2-7c.15-.21.29-.46.54-.46a7.92 7.92 0 0 1 2.06 1.08l.54.32c.21.11.64.4.64.72s-.41.34-.64.34zm6.69 12.17c-1.37 0-2.7.07-4 .07-.94 0-.9-.47-.9-1.8s0-1.8.9-1.8c1.33 0 2.66.07 4 .07h9.76c1.33 0 2.66-.07 4-.07.9 0 .9.43.9 1.8s0 1.8-.9 1.8c-1.33 0-2.7-.07-4-.07h-.11c-.72 0-1 .29-1 1v10.44c0 .9.07 1.77.07 2.67 0 3.49-3.63 3.67-6.3 3.67-.5 0-1.36 0-1.69-.51a5.92 5.92 0 0 1 -.54-2.37c0-.47.11-1 .68-1a5.66 5.66 0 0 1 .72.07c.4 0 .9.08 1.3.08 2.09 0 2-.72 2-2.63v-10.42c0-.71-.29-1-1-1zm1.33-9.18c-1.22 0-2.44.07-3.67.07-.94 0-.9-.5-.9-1.8s0-1.84.9-1.84c1.23 0 2.45.11 3.67.11h6.41c1.19 0 2.41-.11 3.64-.11 1 0 .9.58.9 1.84s.07 1.8-.9 1.8c-1.23 0-2.45-.07-3.64-.07z"/><path d="m251.36 368.23c-.47 0-.68.18-.68.69v.32c0 .47.21.68.68.68h2.2c1 0 2.08-.07 3.13-.07.79 0 .75.43.75 1.3s0 1.26-.79 1.26c-1 0-2.09-.07-3.09-.07h-1.88a.87.87 0 0 0 -1 1v.44c0 .5.21.9.79.9h.14c1.33-.15 3.06-.51 4.36-.76a3.31 3.31 0 0 1 .68-.07c.61 0 .61.79.61 1.22 0 .15.11.22.18.22s.11 0 .15-.11c3-4.75 3.56-10.8 3.63-16.27 0-.68-.25-.94-1-1h-1.11c-.83 0-.8-.5-.8-1.72s0-1.8.8-1.8h1.11c.72 0 1-.29 1-1v-2.39c0-.9 0-1.48-.07-2.3 0-.15 0-.47 0-.69 0-.47.28-.57.68-.57s1.55.1 2 .14c1 .07 1.72 0 1.72.58 0 .25-.25.36-.43.5-.47.25-.5.58-.5 1.87v3c0 .68.29.93 1 1 1.11 0 2.26-.1 3.38-.1 1.4 0 2.09.57 2.12 2 .11 3-.11 9.22-.29 12.24-.57 9-.64 10.87-6 10.87-1.55 0-1.73-.14-2-1.22a7.83 7.83 0 0 1 -.18-1.59c0-.46 0-1.08.65-1.08h.54a7.91 7.91 0 0 0 1 .07c1 0 1.65 0 1.94-1 .62-2 .87-9.54.94-12 .14-4.68.29-4.89-1.48-4.89h-.64c-.69 0-1 .25-1 .93-.18 6.08-.9 12.35-3.89 17.75a24.88 24.88 0 0 1 -1.69 2.62c-.22.29-.36.44-.72.44-.87 0-2.52-1-2.52-1.66 0-.25.36-.65.5-.86a.25.25 0 0 0 .07-.22c0-.18-.14-.32-.43-.29-2.23.4-4.46.76-6.69 1.12s-4.39.57-6.48.83c-.65.07-.87.14-1.08.54-.11.21-.22.39-.47.39-.4 0-.5-.65-.68-1.22a15.2 15.2 0 0 1 -.47-2.09c0-.39.14-.47 1.11-.47s3.6-.21 5.37-.43c.72-.07.93-.39.93-1.08v-.83c0-.68-.28-1-1-1h-2c-1.05 0-2.09.07-3.14.07-.79 0-.75-.43-.75-1.26s0-1.3.75-1.3c1.05 0 2.09.07 3.14.07h2.3c.5 0 .68-.21.68-.68v-.32c0-.47-.18-.69-.68-.69h-1.37c-.83 0-1.62 0-2.45 0s-1.62-.18-1.62-1.26c0-.58.08-1.15.08-1.77v-4.93c0-.61-.08-1.18-.08-1.8 0-1 .69-1.26 1.62-1.26s1.62.08 2.45.08h1.37c.5 0 .68-.22.68-.69v-.36c0-.47-.18-.68-.68-.68h-2.66c-1 0-2.09.07-3.14.07-.82 0-.75-.47-.75-1.3s0-1.29.75-1.29c1 0 2.09.07 3.14.07h2.52c.57 0 .82-.25.82-.86v-.21c0-.54-.21-.83-.79-.79-1.29.07-3.06.21-4.35.21a.83.83 0 0 1 -.87-.5 5.57 5.57 0 0 1 -.36-1.55c0-.54.47-.58 1.12-.58h.47a43.82 43.82 0 0 0 12-1.58h.14c.25 0 .62.43 1.3 1.48.57.82.68.93.68 1.15s-.25.32-.36.32a1.53 1.53 0 0 1 -.57-.18 1.19 1.19 0 0 0 -.47-.11c-.18 0-3.31.69-3.82.76-.68.18-.93.43-.93 1.15v.36a.88.88 0 0 0 1 1h2.09c1 0 2.09-.07 3.13-.07.83 0 .76.47.76 1.29s0 1.3-.76 1.3c-1 0-2.08-.07-3.13-.07h-2.41c-.47 0-.68.21-.68.68v.36c0 .47.21.69.68.69h1.44c.83 0 1.62-.08 2.45-.08s1.62.22 1.62 1.3c0 .58-.07 1.15-.07 1.76v4.93c0 .62.07 1.19.07 1.77 0 1-.69 1.26-1.59 1.26s-1.65 0-2.48 0zm-4.71-6.62a.8.8 0 0 0 .82-.87v-.32a.77.77 0 0 0 -.82-.83h-1.48a.81.81 0 0 0 -.86.83v.32a.83.83 0 0 0 .86.87zm.82 3.09a.77.77 0 0 0 -.82-.82h-1.48a.8.8 0 0 0 -.86.82v.4a.81.81 0 0 0 .86.86h1.48a.78.78 0 0 0 .82-.86zm3.21-4a.83.83 0 0 0 .86.87h1.46a.83.83 0 0 0 .86-.87v-.32a.81.81 0 0 0 -.86-.83h-1.48a.81.81 0 0 0 -.86.83zm.86 3.14a.8.8 0 0 0 -.86.82v.4a.81.81 0 0 0 .86.86h1.46a.81.81 0 0 0 .86-.86v-.4a.8.8 0 0 0 -.86-.82z"/><path d="m292.94 350.92c.25 0 .72.18.72.5s-.21.36-.43.54c-1.26.94-1.58 12.35-1.58 14.4 0 2.81-.08 7.16 3.81 7.16a9.13 9.13 0 0 0 6.77-3.49 11.32 11.32 0 0 0 2.19-5.33c.11-.57.18-1.18.72-1.18.8 0 3 1.83 3 2.91a13.39 13.39 0 0 1 -1.47 4.21 12.6 12.6 0 0 1 -11 6.88 8 8 0 0 1 -6.33-2.77c-1.62-2.16-1.8-5.65-1.8-8.28q0-4.28.32-8.53c.11-1.66.43-5.11.43-6.59v-.35c0-.54 0-.9.54-.9a29.74 29.74 0 0 1 4.11.82z"/><path d="m322.72 369.53c.83 0 7 5 7 5.87s-1.8 2.77-2.63 2.77c-.28 0-.54-.33-.72-.54a22 22 0 0 0 -5.47-4.9c-.25-.14-.65-.36-.65-.68a4.94 4.94 0 0 1 2.47-2.52z"/><path d="m375.52 350.67c0 .25.18.36.44.36.82 0 1.65-.08 2.52-.08s.86.36.86 1.62 0 1.62-.86 1.62c-1.44 0-2.85-.1-4.29-.1h-4.71c-.43 0-.87.18-.87.72a.39.39 0 0 0 0 .21 21.92 21.92 0 0 0 1.08 4.29.42.42 0 0 0 .39.32.44.44 0 0 0 .44-.25 27.69 27.69 0 0 0 1.69-3.71c.11-.29.18-.76.57-.76a11.36 11.36 0 0 1 2 .87 3 3 0 0 0 .47.21c.76.36 1.15.51 1.15.83s-.28.4-.5.47c-.43.11-.5.29-.83.9a45.9 45.9 0 0 1 -2.66 4.61 1.43 1.43 0 0 0 -.29.75.9.9 0 0 0 .32.72c.54.65 1.52 1.66 2.42 1.66 1.11 0 1.36-2.16 1.51-3 0-.25.11-.54.68-.54.87 0 2.41.44 2.41 1.48a8.92 8.92 0 0 1 -1.08 3.82 3.43 3.43 0 0 1 -3.2 1.87 6.84 6.84 0 0 1 -4.93-2.49.87.87 0 0 0 -.65-.32.86.86 0 0 0 -.61.32c-.07.08-.22.18-.36.33-.58.61-1.59 1.58-2 1.58-.61 0-2.23-1.47-2.23-2.09 0-.32.65-.82.9-1a15.69 15.69 0 0 0 1.76-1.69 1.28 1.28 0 0 0 .4-.83 1.81 1.81 0 0 0 -.18-.76 27.1 27.1 0 0 1 -2.28-7.61 1 1 0 0 0 -1.12-.93h-9.39c-.69 0-1 .28-1 1v3.14a24.77 24.77 0 0 1 -1.62 9.32c-.25.68-1.19 3.06-2 3.06s-2.66-1.3-2.66-2a8.26 8.26 0 0 1 .57-1.08c1.77-3.13 2.2-6.94 2.2-10.51v-2c0-1-.08-1.8-.08-2.45 0-1.36.87-1.58 2-1.58s2.23.07 3.35.07h8.35c.65-.07.94-.29.94-1s-.18-2-.18-2.12c0-.51.39-.58.79-.58.21 0 2 .11 2.41.14 1 .08 1.58.08 1.58.58 0 .32-.32.43-.61.61s-.36.4-.36.83a2.46 2.46 0 0 0 0 .54c0 .72.36.9 1 1h3.89c.15 0 .33-.07.33-.25a.26.26 0 0 0 -.15-.25 15.29 15.29 0 0 0 -1.65-.87c-.87-.39-1.23-.54-1.23-.86s.72-1.73 1.23-1.73a11.4 11.4 0 0 1 2.26 1c.44.22 2.06 1.08 2.06 1.48a2.1 2.1 0 0 1 -.33.83.5.5 0 0 0 -.06.28zm-21.23 20.33c.21.07.54.21.54.54s-.47.43-.58.47c-.32.07-.4.36-.47.61a28.5 28.5 0 0 1 -2.52 5.36 1 1 0 0 1 -.93.61c-.65 0-2.52-.65-2.52-1.36a1 1 0 0 1 .21-.55 22.18 22.18 0 0 0 2.78-5.93c.07-.29.14-.69.54-.69s2.51.76 2.95.94zm3.45-12.78c-.79 0-1.58.07-2.41.07-.68 0-.65-.54-.65-1.26s0-1.22.69-1.22h2.37 3.26 2.38c.72 0 .68.39.68 1.22s0 1.26-.65 1.26-1.58-.07-2.41-.07zm5.83 6.26v1.3c0 .9-.4 1.29-1.3 1.29-.61 0-1.18-.07-1.76-.07h-1.84c-.36 0-.86 0-1 .61-.08.44-.18.44-1.48.44-.86 0-1.26 0-1.26-.65v-5.11c0-.44 0-.87 0-1.3 0-.93.44-1.29 1.37-1.29.58 0 1.15.07 1.73.07h2.52c.58 0 1.15-.07 1.73-.07.9 0 1.33.32 1.33 1.29v1.3zm3.6 11.09c.72 0 1.44.14 1.84-2.23.11-.58.11-1 .79-1 .9 0 2.7.5 2.7 1.58a10.06 10.06 0 0 1 -1.19 3.6c-.93 1.47-2 1.33-4 1.33h-8.31c-1.77 0-3.42-.25-3.42-2.45 0-.5 0-1 0-1.47v-2.16c0-1-.11-2.27-.11-2.63s.22-.5.54-.5c.58 0 2.85.21 3.5.25.28 0 .68.11.68.47 0 .18-.14.28-.29.39-.5.33-.57.4-.57 1.73v2.12c0 1 .54.94 1.47.94zm-9.43-12a1 1 0 0 0 1 1h1a1 1 0 0 0 1-1v-.36a1 1 0 0 0 -1-1h-1a1 1 0 0 0 -1 1zm7.35 10.33c-.33 0-.54-.28-.72-.54a40.09 40.09 0 0 0 -2.88-2.95c-.18-.18-.47-.39-.47-.68 0-.54 1.8-1.77 2.27-1.77s2.08 1.62 2.48 2 1.73 1.62 1.73 2.12c0 .65-1.84 1.8-2.41 1.8zm11.23 4.29c-.51 0-.65-.43-.8-.83a28.63 28.63 0 0 0 -2.73-4.9 1.66 1.66 0 0 1 -.33-.68c0-.65 2-1.4 2.52-1.4a.85.85 0 0 1 .65.39 24.92 24.92 0 0 1 1.66 2.59 17.82 17.82 0 0 1 1.73 3.39c-.02.8-2.27 1.42-2.7 1.42z"/><path d="m401.84 368.23c-.47 0-.68.18-.68.69v.32c0 .47.21.68.68.68h2.16c1 0 2.09-.07 3.13-.07.79 0 .76.43.76 1.3s0 1.26-.8 1.26c-1 0-2.08-.07-3.09-.07h-1.87a.88.88 0 0 0 -1 1v.44c0 .5.21.9.79.9h.14c1.34-.15 3.06-.51 4.36-.76a3.31 3.31 0 0 1 .68-.07c.61 0 .61.79.61 1.22 0 .15.11.22.19.22s.1 0 .14-.11c2.95-4.75 3.56-10.8 3.63-16.27 0-.68-.25-.94-1-1h-1.11c-.83 0-.8-.5-.8-1.72s0-1.8.8-1.8h1.11c.72 0 1-.29 1-1v-2.39c0-.9 0-1.48-.07-2.3 0-.15 0-.47 0-.69 0-.47.28-.57.68-.57s1.55.1 2 .14c1 .07 1.72 0 1.72.58 0 .25-.25.36-.43.5-.47.25-.5.58-.5 1.87v3c0 .68.29.93 1 1 1.11 0 2.26-.1 3.38-.1 1.4 0 2.09.57 2.12 2 .11 3-.1 9.22-.29 12.24-.57 9-.64 10.87-6 10.87-1.55 0-1.73-.14-2-1.22a7.83 7.83 0 0 1 -.18-1.59c0-.46 0-1.08.65-1.08h.54a7.91 7.91 0 0 0 1 .07c1 0 1.66 0 1.94-1 .62-2 .87-9.54.94-12 .14-4.68.29-4.89-1.48-4.89h-.64c-.69 0-1 .25-1 .93-.18 6.08-.9 12.35-3.89 17.75a24.88 24.88 0 0 1 -1.69 2.62c-.22.29-.36.44-.72.44-.86 0-2.52-1-2.52-1.66 0-.25.36-.65.5-.86a.23.23 0 0 0 .08-.22c0-.18-.15-.32-.44-.29-2.23.4-4.46.76-6.69 1.12s-4.39.57-6.48.83c-.65.07-.86.14-1.08.54-.11.21-.22.39-.47.39s-.5-.65-.68-1.22a15.2 15.2 0 0 1 -.47-2.09c0-.39.14-.47 1.11-.47s3.6-.21 5.37-.43c.72-.07.93-.39.93-1.08v-.83c0-.68-.28-1-1-1h-2c-1.05 0-2.09.07-3.13.07-.8 0-.76-.43-.76-1.26s0-1.3.76-1.3c1 0 2.08.07 3.13.07h2.3c.5 0 .68-.21.68-.68v-.32c0-.47-.18-.69-.68-.69h-1.31c-.83 0-1.62 0-2.45 0s-1.61-.18-1.61-1.26c0-.58.07-1.15.07-1.77v-4.93c0-.61-.07-1.18-.07-1.8 0-1 .68-1.26 1.61-1.26s1.62.08 2.45.08h1.37c.5 0 .68-.22.68-.69v-.36c0-.47-.18-.68-.68-.68h-2.66c-1.05 0-2.09.07-3.14.07-.82 0-.75-.47-.75-1.3s0-1.29.75-1.29c1 0 2.09.07 3.14.07h2.52c.57 0 .82-.25.82-.86v-.21c0-.54-.21-.83-.79-.79-1.29.07-3.06.21-4.35.21a.83.83 0 0 1 -.87-.5 5.57 5.57 0 0 1 -.36-1.55c0-.54.47-.58 1.12-.58h.47a43.82 43.82 0 0 0 12-1.58h.14c.26 0 .62.43 1.3 1.48.58.82.68.93.68 1.15s-.25.32-.36.32a1.53 1.53 0 0 1 -.57-.18 1.19 1.19 0 0 0 -.47-.11c-.18 0-3.31.69-3.82.76-.68.18-.93.43-.93 1.15v.36a.88.88 0 0 0 1 1h2.08c1.05 0 2.09-.07 3.14-.07.82 0 .75.47.75 1.29s0 1.3-.75 1.3c-1.05 0-2.09-.07-3.14-.07h-2.41c-.47 0-.68.21-.68.68v.36c0 .47.21.69.68.69h1.44c.83 0 1.62-.08 2.45-.08s1.62.22 1.62 1.3c0 .58-.07 1.15-.07 1.76v4.93c0 .62.07 1.19.07 1.77 0 1-.68 1.26-1.59 1.26s-1.65 0-2.48 0zm-4.71-6.62a.8.8 0 0 0 .82-.87v-.32a.77.77 0 0 0 -.82-.83h-1.48a.81.81 0 0 0 -.86.83v.32a.83.83 0 0 0 .86.87zm.82 3.09a.77.77 0 0 0 -.82-.82h-1.48a.8.8 0 0 0 -.86.82v.4a.81.81 0 0 0 .86.86h1.48a.78.78 0 0 0 .82-.86zm3.21-4a.83.83 0 0 0 .86.87h1.48a.83.83 0 0 0 .86-.87v-.32a.81.81 0 0 0 -.86-.83h-1.5a.81.81 0 0 0 -.86.83zm.86 3.14a.8.8 0 0 0 -.86.82v.4a.81.81 0 0 0 .86.86h1.48a.81.81 0 0 0 .86-.86v-.4a.8.8 0 0 0 -.86-.82z"/><path d="m449.79 349.66c0 .21-.25.36-.43.43-.57.22-.72.4-1.19 1.22a2.65 2.65 0 0 0 -.36.83.35.35 0 0 0 .4.36 25.37 25.37 0 0 0 4.18-1 2.88 2.88 0 0 1 .89-.21c.62 0 .8.57.9 1.08a11.35 11.35 0 0 1 .29 1.94c0 .61-1.15.76-1.91.9-2.26.47-4.53.87-6.8 1.12a1.27 1.27 0 0 0 -1.08.57 12.12 12.12 0 0 0 -1.22 2.09.27.27 0 0 0 .29.25 1.35 1.35 0 0 0 .64-.21 10 10 0 0 1 3.93-.94c2.3 0 3.63 1 4.1 3.24.07.32.18.61.54.61a31 31 0 0 0 4.21-2.05 2.91 2.91 0 0 1 .94-.36c.68 0 1.55 2.77 1.55 3.38 0 .44-.4.58-1.08.8-.15.07-.33.1-.51.18-1.44.54-2.84 1.15-4.25 1.76-.64.25-.93.47-.93 1.19v.47 3.31c0 1.29-.19 1.44-1.55 1.44-1.55 0-2.2-.07-2.2-1s.07-1.58.07-2.34c0-.32-.11-.61-.46-.61-.19 0-3.89 1.58-3.89 3.81 0 2.42 3.49 2.63 5.22 2.63a26.11 26.11 0 0 0 6.69-.9 5.33 5.33 0 0 1 .72-.07c.47 0 .72.4.72 2.45 0 1.08 0 1.36-.83 1.54a46.78 46.78 0 0 1 -6.91.47 13.41 13.41 0 0 1 -5.68-.93 5.47 5.47 0 0 1 -3.6-5.15c0-3.24 2.62-5 5.11-6.48.72-.43 1.47-.83 2.23-1.19.36-.18.65-.39.65-.83a5 5 0 0 0 -.18-1 1.5 1.5 0 0 0 -1.59-1.23c-2 0-5.32 1.73-6.73 3.17a23.53 23.53 0 0 0 -3 4.21.6.6 0 0 1 -.51.36c-.64 0-3.05-1.44-3.05-2.09 0-.28.28-.57.46-.79.83-.9 6-8.13 6-8.82 0-.32-.29-.43-.79-.43s-1.41.11-2.52.11c-.79 0-.94-.18-.94-2 0-1.44.15-1.65 1.05-1.65.61 0 1.54.07 2.59.07h1c.94 0 1.91 0 2.23-.47a19.36 19.36 0 0 0 1.95-4.64c.07-.4.14-.76.5-.76s4.14 1.62 4.14 2.16z"/><path d="m486.52 378.24h-4.79c-.36 0-.5.18-.54.54 0 .75-.28.75-1.65.75-1.15 0-1.73 0-1.73-.61 0-.11.07-1.29.07-1.83v-2.09c0-.18 0-.5-.25-.5a.23.23 0 0 0 -.25.18 25.35 25.35 0 0 1 -1.51 3.1c-.22.39-.47.82-1 .82-.82 0-2.66-1.36-2.66-2 0-.22.33-.65.47-.87 2.16-3.34 2.84-7.59 2.84-11.52v-2.31c0-.69 0-1.37 0-2 0-1.26.64-1.47 1.76-1.47s2 .1 3 .1h5.72c.9 0 1.83-.07 2.73-.07 1.08 0 2.05.11 2.05 1.4 0 .69-.07 1.37-.07 2.06v3.88c0 .62.07 1.23.07 1.88 0 1.22-1.08 1.26-2 1.26s-1.84-.08-2.77-.08h-6.34c-.58 0-.83.22-1 .8v.14c0 .47.18.76.68.76h.58 2.27 4.1 2.3c1.77 0 2 .57 2 1.51v1.37 3.67c0 .65.08 1.69.08 1.83 0 .65-.51.61-1.88.61s-1.72 0-1.69-.75c-.05-.38-.23-.53-.59-.56zm-8.42-22.17s-.07 0-.15 0c-.57.47-2.84 2.23-3.45 2.23s-2-1.65-2-2.37c0-.4.54-.65.83-.79a29.64 29.64 0 0 0 8.46-7.35c.18-.25.39-.57.75-.57a14.49 14.49 0 0 1 2.23.68c.94.32 1.34.4 1.34.83s-.26.36-.51.43a.16.16 0 0 0 -.14.18s0 .07 0 .14a25.77 25.77 0 0 0 6.41 4.47c.25.14.65.32.65.68 0 .76-1.3 2.59-2.16 2.59a8.53 8.53 0 0 1 -2.34-1.29.27.27 0 0 0 -.18-.07c-.14 0-.22.18-.25.32 0 .58-.11.83-.76.83-.86 0-1.73-.07-2.55-.07h-2.7c-.83 0-1.7.07-2.56.07-.58 0-.72-.22-.76-.76.02-.08-.02-.18-.16-.18zm8.42 6.47a.65.65 0 0 0 .69-.72v-.21a.65.65 0 0 0 -.69-.69h-6.77a.7.7 0 0 0 -.72.69v.21a.68.68 0 0 0 .72.72zm0 3.82c.51 0 .69-.22.69-.68v-.33c0-.47-.18-.68-.65-.68h-6.56a.88.88 0 0 0 -1 .83c0 .64.4.86 1 .86zm-3.52-14.51a.88.88 0 0 0 -.65.33c-.57.57-1.15 1.15-1.76 1.69a.52.52 0 0 0 -.15.36c0 .11.08.29.4.32a4.81 4.81 0 0 0 .76 0h3.6c.28 0 .39-.18.39-.32a.52.52 0 0 0 -.14-.32c-.65-.58-1.23-1.12-1.84-1.73a.87.87 0 0 0 -.61-.33zm3.1 23.94a1 1 0 0 0 1-1v-.79c-.07-.62-.39-1-1-1h-4a1 1 0 0 0 -1 1v.82a1 1 0 0 0 1 1zm7.19-21.38a18.71 18.71 0 0 0 -.1-2c0-.1 0-.21 0-.28 0-.36.29-.44.58-.44.46 0 2.62.18 3.13.26.25 0 .57.1.57.43s-.25.36-.54.54-.39.47-.39 1.69v12.85c0 1.33.07 2.66.07 4 0 1-.32 1-1.66 1s-1.69 0-1.69-1c0-1.37.07-2.7.07-4.07zm6.09-3.89a14.3 14.3 0 0 0 -.11-2.27.85.85 0 0 1 0-.32c0-.4.29-.43.62-.43a12.42 12.42 0 0 1 1.72.11 5.63 5.63 0 0 0 .69 0c1 .07 1.65.11 1.65.61 0 .29-.25.4-.5.54s-.43.58-.43 2v22.24c0 .86.07 1.73.07 2.59 0 3.56-2.74 4.07-5.69 4.07-1.33 0-2.3.07-2.3-2.77 0-.58 0-1.19.75-1.19.33 0 1.08.14 2 .14 1.59 0 1.59-.54 1.59-2.59z"/><path d="m535.31 353.37c0 .25-.4.46-.79.75a34.61 34.61 0 0 0 -5.22 4.88 1 1 0 0 0 -.36.61c0 .28.28.47.61.47a2 2 0 0 0 .45-.08 6.6 6.6 0 0 1 1.47-.14 10.55 10.55 0 0 1 4.43 1.08 7.43 7.43 0 0 1 4.28 7c0 6.37-5.65 9.68-11.44 9.68-3 0-7.24-1.22-7.24-4.89a4.53 4.53 0 0 1 4.61-4.36 5.88 5.88 0 0 1 4.79 2.56 3.57 3.57 0 0 1 .64 2.3c0 .26.15.47.44.47a5.85 5.85 0 0 0 4.35-5.54c0-3.49-3-4.93-6.08-4.93a10.93 10.93 0 0 0 -8.06 3.52c-1.41 1.37-2.7 2.85-4 4.32a.49.49 0 0 1 -.4.26c-.75 0-2.59-2-2.59-2.6s.54-.82.87-1.08a143.79 143.79 0 0 0 11.19-11.3c.29-.29.94-.93.94-1.29s-.33-.44-.62-.44a8.23 8.23 0 0 0 -.86.15c-.86.21-5.94 1.26-6.51 1.26-.8 0-.9-2.7-.9-3.31 0-.83 0-.9 1.11-.9h.87a33.27 33.27 0 0 0 9.1-1.34 5 5 0 0 1 1.37-.39c1.46-.09 3.55 2.66 3.55 3.28zm-9.11 17.85a1.5 1.5 0 0 0 -1.55 1.44c0 1.3 1.73 1.91 2.81 1.91.68 0 1-.65 1-1.23a2.2 2.2 0 0 0 -2.26-2.12z"/></g></svg>