<svg viewBox="0 0 195.31 54.18" xmlns="http://www.w3.org/2000/svg"><g fill="#0084d0"><path d="m13.54 2.37h2c1 0 1.72.11 1.72 1.33v2.34 8.78 2.37s-.16.8-1.56.8c-1.2 0-1.23-.05-1.33-.54s-.47-.6-1.25-.6h-8.46c-1.15 0-2.68.05-3.36.05s-.62-.4-.62-1.54-.05-1.36.57-1.36 2.13.08 3.38.08h9a.79.79 0 0 0 .79-.78v-7.39a.77.77 0 0 0 -.79-.78h-9c-1.12 0-2.7.08-3.35.08s-.63-.37-.63-1.67c0-1 .11-1.25.57-1.25s.76 0 1.12 0h2.27z"/><path d="m50.08 6.53c0 .45-1 1.46-1.38 1.8a45.12 45.12 0 0 1 -14.14 9.81c-.85.42-.88.45-1.09.89a.27.27 0 0 1 -.26.16c-.29 0-.83-1.05-1-1.36a7.16 7.16 0 0 1 -.79-1.56c0-.29.47-.34.81-.44 5.77-1.69 12.25-6.61 15.95-11.33a.62.62 0 0 1 .44-.28c.52 0 1.46 1.92 1.46 2.31zm-13.43-4.29c.33.23 1.58 1.09 1.58 1.48 0 .6-1.22 2-1.71 2a2.65 2.65 0 0 1 -1-.71 33.62 33.62 0 0 0 -3.52-2.41c-.21-.13-.41-.26-.41-.49 0-.39 1-2.06 1.64-2.06a21.52 21.52 0 0 1 3.42 2.19z"/><path d="m75.87 6.87c1.09 0 2.19-.08 3.31-.08.8 0 .78.21.78 1.44 0 .88 0 1.38-.71 1.38-1.14 0-2.26-.06-3.38-.06h-3.41c-.73 0-.76.68-.83 1.23a10.66 10.66 0 0 1 -5.63 8.22 12 12 0 0 1 -2.7 1.14c-.58 0-2-1.72-2-2.16 0-.28.5-.39.73-.44a12.41 12.41 0 0 0 3.26-1.35 7.77 7.77 0 0 0 3.28-4.74 12.84 12.84 0 0 0 .23-1.28.61.61 0 0 0 -.63-.6h-5.29c-1.07 0-2.16.06-3.25.06-.68 0-.71-.39-.71-1.33 0-1.2.08-1.49.65-1.49 1.12 0 2.22.08 3.31.08zm-3.87-6.82h3.38c.7 0 .68.34.68 1.61 0 .81 0 1.18-.7 1.18-1.1 0-2.22-.06-3.34-.06h-5.65c-1.12 0-2.24.06-3.33.06-.78 0-.71-.42-.71-1.41s.03-1.43.67-1.43c1.12 0 2.24.05 3.38.05z"/><path d="m110.46 6.53c0 .45-1 1.46-1.38 1.8a45.19 45.19 0 0 1 -14.08 9.81c-.86.42-.89.45-1.1.89a.27.27 0 0 1 -.26.16c-.28 0-.83-1.05-1-1.36a7.11 7.11 0 0 1 -.78-1.56c0-.29.46-.34.8-.44 5.76-1.69 12.26-6.61 16-11.33a.62.62 0 0 1 .44-.28c.42 0 1.36 1.92 1.36 2.31zm-13.46-4.29c.34.23 1.59 1.09 1.59 1.48 0 .6-1.23 2-1.72 2a2.65 2.65 0 0 1 -1-.71 33.62 33.62 0 0 0 -3.48-2.41c-.2-.13-.41-.26-.41-.49 0-.39 1-2.06 1.64-2.06a21.52 21.52 0 0 1 3.38 2.19z"/><path d="m122.56 2.89c.36.44 1.09 1.61 1.43 2.13a14.48 14.48 0 0 1 1.43 2.61c0 .54-1.72 1.33-2.08 1.33s-.44-.32-.57-.58a32.75 32.75 0 0 0 -2.37-4 1.2 1.2 0 0 1 -.29-.54c0-.45 1.59-1.23 2-1.23a.65.65 0 0 1 .45.28zm16.35-.76c.31.11 1 .32 1 .6s-.19.29-.29.37a1.11 1.11 0 0 0 -.5.68c-1.27 4.58-3 8.53-6.71 11.68a19.88 19.88 0 0 1 -7.52 3.93 1.88 1.88 0 0 1 -.58.13c-.52 0-1.72-1.74-1.72-2.16s.79-.52 1.1-.6a15.74 15.74 0 0 0 11.6-10.33 20.48 20.48 0 0 0 1.2-4.63c0-.19 0-.42.26-.42a18 18 0 0 1 2.16.75zm-9.71-1c.49.65.93 1.33 1.35 2a14.4 14.4 0 0 1 1.45 2.65c0 .52-1.75 1.3-2.11 1.3s-.39-.29-.6-.65a34.3 34.3 0 0 0 -2.34-4 1.2 1.2 0 0 1 -.29-.54c0-.42 1.59-1.2 2-1.2a.72.72 0 0 1 .54.43z"/><path d="m14.19 35.65h1.3c.52 0 .91.49 1.25.83s.88.86.88 1.2-.2.49-.39 1.51c-.86 4.89-2.78 8.33-6.89 11.19a24.83 24.83 0 0 1 -5 2.68 3.18 3.18 0 0 1 -.86.21c-.63 0-1.54-1.74-1.54-2.16s.24-.37.47-.42a18.57 18.57 0 0 0 6.48-3.43 12.26 12.26 0 0 0 4.25-7.58c0-.18.07-.49.07-.65 0-.49-.44-.55-.91-.55h-9.3c-1.1 0-2.17.06-3.26.06-.74-.05-.74-.29-.74-1.46s0-1.48.73-1.48h3.36zm7.49-1.9a2.59 2.59 0 1 1 -2.6-2.58 2.59 2.59 0 0 1 2.6 2.58zm-4 0a1.4 1.4 0 0 0 2.79 0 1.4 1.4 0 1 0 -2.79 0z"/><path d="m44.77 36h2c1.07 0 1.66.19 1.66 1.38v2.32 8.83c0 .91.05 1.84.05 2.75s-.23.92-1.46.92c-1.51 0-1.45-.13-1.51-.86s-.34-.78-1.25-.78h-9c-.89 0-1.23 0-1.28.78s0 .86-1.51.86c-1.22 0-1.43 0-1.43-.94s.05-1.82.05-2.73v-8.9c0-.78 0-1.56 0-2.34 0-1.09.52-1.36 1.56-1.36h2.13zm-10.05 2.64a.76.76 0 0 0 -.78.76v7.65a.78.78 0 0 0 .78.78h10.1a.78.78 0 0 0 .78-.78v-7.65a.75.75 0 0 0 -.78-.76z"/><path d="m75.25 36.56a6.26 6.26 0 0 0 1.27-.08.82.82 0 0 1 .23 0c.5 0 1.54 1.43 1.54 1.9a.54.54 0 0 1 -.16.33 6.68 6.68 0 0 0 -.59 1.12 43.86 43.86 0 0 1 -2.35 4.64 1.57 1.57 0 0 0 -.28.73c0 .33.2.49.47.67s1.45 1 1.45 1.36-1.17 2-1.69 2a.64.64 0 0 1 -.39-.2c-.52-.47-.57-.47-1-.86a.86.86 0 0 0 -.57-.29c-.37 0-.65.37-.89.63a21.43 21.43 0 0 1 -5.7 4.4 13.63 13.63 0 0 1 -3.12 1.32c-.68 0-1.9-1.66-1.9-2s.88-.52 1.14-.6a15.94 15.94 0 0 0 7.45-4.68 1 1 0 0 0 .39-.65.65.65 0 0 0 -.42-.6c-.94-.55-1.82-1-2.78-1.49-.19-.07-.5-.2-.5-.44s1-1.95 1.59-1.95a21.58 21.58 0 0 1 3.2 1.59 1.23 1.23 0 0 0 .65.28c.47 0 .68-.46.89-.86a16.27 16.27 0 0 0 1.35-3.12c0-.52-.65-.52-1-.52h-5c-.62 0-.81.21-1.14.68a40.74 40.74 0 0 1 -3.36 4 1.42 1.42 0 0 1 -.84.49c-.46 0-2.18-1.09-2.18-1.54 0-.2.26-.36.41-.49a24.14 24.14 0 0 0 6.8-9.34c.08-.21.18-.66.47-.66a9.67 9.67 0 0 1 1.64.71c.44.18 1.35.62 1.35.8s-.13.24-.26.29c-.39.16-.42.21-.83.94-.08.15-.21.39-.37.65a1 1 0 0 0 -.21.52c0 .26.24.36.45.39zm4.34-1.25c0 .39-1 1-1.35 1-.18 0-.26-.15-.34-.28a23.73 23.73 0 0 0 -1.59-2.32.71.71 0 0 1 -.18-.37c0-.31 1.07-.91 1.35-.91a10.07 10.07 0 0 1 2.11 2.88zm2-2.71a5.32 5.32 0 0 1 .78 1.28c0 .39-1 1-1.35 1s-.29-.18-.39-.34c-.49-.78-1-1.54-1.56-2.26a.54.54 0 0 1 -.18-.34c0-.34 1.06-.94 1.35-.94s1.09 1.12 1.22 1.38c.06.09.11.14.16.22z"/><path d="m105.51 36.61a6.18 6.18 0 0 0 1.46-.15h.29c.52 0 1.66 1.43 1.66 1.77a1.62 1.62 0 0 1 -.31.65 15.15 15.15 0 0 0 -.81 1.41c-2.55 4.94-5.1 8.74-9.89 11.84a17.92 17.92 0 0 1 -3.56 1.87c-.58 0-2.22-1.27-2.22-1.77 0-.26.32-.39.52-.47a23 23 0 0 0 10-8.33c.45-.65 2-3.17 2-3.82 0-.34-.42-.37-.78-.37h-4.87c-.6 0-.75.26-1.09.73-.5.7-3.49 4.27-4.19 4.27-.32 0-2.22-1-2.22-1.54a.41.41 0 0 1 .24-.36 24.12 24.12 0 0 0 7-9.32c.1-.26.18-.63.41-.63a8.73 8.73 0 0 1 1.38.58c.24.13 1.57.62 1.57.91 0 .13-.13.23-.24.29-.36.12-.44.25-.88 1.06a3.76 3.76 0 0 0 -.47.94.41.41 0 0 0 .44.44z"/><path d="m122.35 39.21a22.26 22.26 0 0 1 3.23 1.8c.7.42 2 1.15 2 1.56s-1 2-1.56 2a1.29 1.29 0 0 1 -.6-.29 48.88 48.88 0 0 0 -4.14-2.63c-.18-.1-.44-.21-.44-.44.03-.41 1.02-2 1.51-2zm.86 11.17a29 29 0 0 0 3.1-1 17.47 17.47 0 0 0 6.48-4.09 21.69 21.69 0 0 0 4.45-7.86c.1-.26.21-.62.55-.62s2 1.43 2 1.95a6 6 0 0 1 -.34 1c-.05.18-.13.31-.16.41a23 23 0 0 1 -4.81 7.37 25.15 25.15 0 0 1 -8.9 5.26 1.4 1.4 0 0 0 -1 .75.37.37 0 0 1 -.26.16c-.29 0-.5-.57-.65-.89-.29-.62-.58-1.25-.86-1.87a.57.57 0 0 1 -.06-.24c-.04-.22.3-.28.46-.33zm5-15.2c.54.39 1.48 1 1.95 1.43a.6.6 0 0 1 .29.44c0 .47-1.1 1.93-1.57 1.93a1.37 1.37 0 0 1 -.65-.34 41.13 41.13 0 0 0 -3.82-2.76c-.19-.1-.45-.26-.45-.49s1.12-1.8 1.59-1.8a11.08 11.08 0 0 1 2.27 1.33c.18.08.31.21.39.26z"/><path d="m160.06 39.27h1.54c1.25 0 1.43.39 1.43 1.46v1.51 8 1.66c0 .84-.23.89-1.14.89s-1.17-.05-1.3-.58c-.06-.28-.26-.28-.81-.28h-6.12-2.58c-.62 0-.62-.44-.62-1.4 0-.47 0-1 .57-1s1.67.06 2.6.06h6.37a.59.59 0 0 0 .6-.6v-1.65a.6.6 0 0 0 -.6-.6h-6.1c-.92 0-2.06 0-2.61 0s-.57-.55-.57-1.41c0-.49-.05-1 .57-1s1.67.05 2.58.05h6.13a.59.59 0 0 0 .6-.6v-1.57a.61.61 0 0 0 -.6-.63h-6.3c-.78 0-1.9.06-2.55.06s-.63-.42-.63-1.15 0-1.28.57-1.28 1.72.06 2.58.06z"/><path d="m195.31 40.57c0 .44-1.05 1.46-1.38 1.79a45.26 45.26 0 0 1 -14.14 9.82c-.86.41-.88.44-1.09.88a.25.25 0 0 1 -.26.16c-.29 0-.84-1-1-1.35a7.64 7.64 0 0 1 -.78-1.57c0-.28.47-.33.81-.44 5.75-1.69 12.26-6.61 16-11.32a.64.64 0 0 1 .44-.29c.46 0 1.4 1.93 1.4 2.32zm-13.44-4.3c.34.24 1.59 1.1 1.59 1.49 0 .6-1.22 2-1.72 2a2.87 2.87 0 0 1 -1-.7 32 32 0 0 0 -3.46-2.42c-.21-.13-.42-.26-.42-.5s1-2 1.64-2a20.56 20.56 0 0 1 3.37 2.13z"/></g></svg>