<svg viewBox="0 0 527.13 125.57" xmlns="http://www.w3.org/2000/svg"><g fill="#F786D1"><path d="m8.6 17.14c0 2.41-1.55 4.3-4.53 4.3-1.95 0-4.07-1.26-4.07-4.76a25.49 25.49 0 0 1 2.69-9.92 2.13 2.13 0 0 1 2.41-1.49h.58c.86 0 1.26.12 1.26.46a2.63 2.63 0 0 1 -.4 1 17 17 0 0 0 -2.18 5.5c0 .69.46 1 1.2 1.26a3.69 3.69 0 0 1 3.04 3.65zm12.84 0a4.11 4.11 0 0 1 -4.44 4.3c-1.95 0-4.07-1.26-4.07-4.76a25.74 25.74 0 0 1 2.64-9.86c.63-1.32 1-1.55 2.4-1.55h.58c.86 0 1.26.12 1.26.52a2.28 2.28 0 0 1 -.4 1 17.34 17.34 0 0 0 -2.12 5.45c0 .69.45 1 1.2 1.26a3.63 3.63 0 0 1 2.95 3.64z"/><path d="m58.53 31.64c0 6-.57 6.77 5.56 6.77 4.13 0 10.2-.69 14.33-1h.81c1.08 0 1.08 1.55 1.08 2.86s.06 2.81-1 3.39a5.72 5.72 0 0 1 -1.89.34c-2.12.11-8.26.4-10.15.4h-2.78c-3.44 0-8-.17-9.92-1.55-2.12-1.49-2.29-4.35-2.29-6.93v-10.87a1.23 1.23 0 0 0 -1.55-1.2l-2.92.57c-.98.17-7.51 1.58-7.81 1.58-.75 0-.92-.57-1.15-1.32a22.13 22.13 0 0 1 -.69-3.73c0-1 .86-1.14 3.79-1.6 1.26-.23 2.8-.46 4.87-.86l4.13-.8a1.68 1.68 0 0 0 1.33-1.69v-7.4a37.26 37.26 0 0 0 -.23-5.73c0-.18 0-.46 0-.69 0-.4.17-.57.62-.57.29 0 4.82.57 5.45.63.4 0 1.49.17 1.49.74a3.56 3.56 0 0 1 -.51 1.2 2.28 2.28 0 0 0 -.46 1.61c-.06 1.66-.06 3.27-.06 4.93v4a1.21 1.21 0 0 0 1.42 1.16l12.33-2.41c.74-.17 6.53-1.43 6.59-1.43 1.09 0 4.24 3 4.24 4.13a2.37 2.37 0 0 1 -.57 1.14c-.92 1-1.78 2-2.58 3-2.64 3.21-5.28 6.31-8 9.35-.57.68-1.32 1.66-2.29 1.66s-4.37-2.08-4.37-3.32c0-.41.63-.86 1-1.27.92-.86 6.42-6.07 6.42-6.82a.36.36 0 0 0 -.4-.4c-.34 0-1.6.29-2 .34l-10.37 2.05a1.79 1.79 0 0 0 -1.49 1.83z"/><path d="m122.91 12.15a1.77 1.77 0 0 0 1.72-1.49c.11-1.14.4-7.28.46-8.65 0-.58-.06-1.32.74-1.32.35 0 5.39 1 6 1.14.35.06.86.23.86.63s-.4.75-.63 1c-.68.63-.63.69-.8 2.46-.11.81-.46 4.25-.46 4.82a1.29 1.29 0 0 0 1.34 1.26l5.5-.06c1.66 0 6.25-.23 6.31-.23 1.26 0 3.27 2.18 3.27 3.33 0 .57-.81 6.93-.92 8-.57 4.42-1.43 12.39-3.21 16.28-1.55 3.39-3.9 4.48-7.45 5a22.47 22.47 0 0 1 -3.33.23 1.82 1.82 0 0 1 -2-1.15 12.23 12.23 0 0 1 -1.49-4 .94.94 0 0 1 1-1c.57 0 1.89.23 3.26.23 3.39 0 4.59-1.55 5.45-5.62a103 103 0 0 0 1.72-13.7c0-1.55-.8-1.43-3.38-1.43l-5.79.05c-1.44 0-1.67 1.21-1.84 2.07a47.67 47.67 0 0 1 -11.24 22.31c-.81.86-4.25 4.47-5.28 4.47s-4.35-2.7-4.35-3.73c0-.46.45-.74.8-1a39.62 39.62 0 0 0 12.44-17.31 30.55 30.55 0 0 0 1.49-5.5 1.18 1.18 0 0 0 -1.17-1.24l-8.08.06c-1.55 0-5 .23-5.73.23-1.26 0-1.43-.92-1.43-3.16 0-2.46.11-3 1.37-3 1.89 0 3.84.06 5.73.06z"/><path d="m200.13 39.67c0 2.52.11 5 .11 7.51 0 1.55-.74 1.72-2.86 1.72-3.16 0-3.73-.17-3.73-1.66 0-2.47.12-4.93.12-7.4v-15.59c0-.34.17-1.61-.92-1.61-.57 0-1.78 1-2.24 1.32-1.72 1.26-10.83 7.34-12.32 7.34-1 0-4.47-3.5-4.47-4.59 0-.57.51-.8.91-1 7.51-3.15 16.74-9.57 22.53-15.19a48.92 48.92 0 0 0 7.8-9.69c.17-.29.52-.86.92-.86a21 21 0 0 1 3.9 2.35c.62.4 2.23 1.38 2.23 2.06 0 .35-.29.46-.57.58a3.1 3.1 0 0 0 -2.24 1.37 110.39 110.39 0 0 1 -7.85 8.6c-.86.86-1.32 1.26-1.32 2.58z"/><path d="m251.61 5.79c.46.17 1.15.4 1.15 1 0 .35-.23.41-.81.75-1 .52-1.2 1-1.77 2.46a45.47 45.47 0 0 0 -3.18 16.26c0 1.09.23 8 1.54 8 .52 0 1.32-1.66 1.55-2.23.35-.75.69-1.38 1.21-1.38s2.06 1.2 2.06 1.83-2.36 5.76-2.36 8.34c0 .57.17 1.89.23 2.4a6.14 6.14 0 0 1 .11.86c0 1.44-3.27 2.81-4.47 2.81-1 0-1.66-1.26-2.41-2.81-2.69-5.44-3.5-11.58-3.5-17.6a68.5 68.5 0 0 1 2.93-19 26.88 26.88 0 0 0 .74-2.87c.12-.51.23-1.26.86-1.26.51.03 5.32 2.1 6.12 2.44zm7.11 27.4c2.46 3 4.87 4 8.71 4a46.73 46.73 0 0 0 12.57-1.82 4.26 4.26 0 0 1 1.21-.23c.92 0 1 1.38 1 4.3 0 .69.06 1.72-.69 2.12-1.6.86-11.29 1.72-13.59 1.72-9.28 0-13.12-4.81-13.12-5.73s2-4.87 3.09-4.87a1 1 0 0 1 .82.51zm2.06-25a36.48 36.48 0 0 0 7.51.86 37.4 37.4 0 0 0 8.71-1.2 6 6 0 0 1 1-.17c.8 0 1 .69 1.14 1.38a26.77 26.77 0 0 1 .23 3.09c0 1.21 0 1.67-1.09 1.89a66.54 66.54 0 0 1 -9.63.81c-1.77 0-8.83-.35-10-1.15-.63-.4-.57-1.6-.57-2.24 0-2.75.28-3.61 1.2-3.61a8 8 0 0 1 1.5.29z"/><path d="m71 85.55c1.49 0 2.92-.06 4.42-.06 2.29 0 3.78.23 3.78 2.93 0 1.72-.06 3.44-.06 5.16v19.32c0 1.72.06 3.49.06 5.21s-.34 1.78-3.44 1.78c-2.64 0-2.69-.11-2.92-1.2-.29-1.32-1-1.32-2.76-1.32h-18.66c-2.52 0-5.9.11-7.39.11s-1.38-.8-1.38-3.32c0-2.3-.11-3 1.26-3s4.7.17 7.46.17h19.77a1.72 1.72 0 0 0 1.72-1.72v-16.26a1.68 1.68 0 0 0 -1.72-1.72h-19.77c-2.47 0-6 .17-7.4.17-1.26 0-1.38-.8-1.38-3.67 0-2.29.23-2.75 1.27-2.75.85 0 1.66.11 2.46.11 1.66.06 3.33.06 5 .06z"/><path d="m129.9 93.29c1.15 0 6.88 4.53 8 5.5.8.69 4 3.16 4 4.13s-2.69 4-3.84 4a2 2 0 0 1 -1.26-.75 85.21 85.21 0 0 0 -8.31-6.71 1.05 1.05 0 0 0 -.57-.22c-.52 0-.69.45-.69.91v15.65c0 2.3.11 4.53.11 6.82 0 2.64-.06 3-3.55 3-2.3 0-3.27-.06-3.27-1.95 0-2.58.17-5.16.17-7.74v-32.73c0-1.49-.11-3-.17-4.47 0-.29-.06-.8-.06-1 0-.58.17-.86.75-.86.34 0 1.54.17 2 .23 2.58.34 4.93.57 4.93 1.37a1.64 1.64 0 0 1 -.29.75c-.52.63-.63 1.49-.63 3 0 .86.06 2 .06 3.38v8.6c0 .46.28.57.46.57a.61.61 0 0 0 .51-.23c.39-.45 1.02-1.25 1.65-1.25zm13.65-5.67c0 .8-2.12 2.52-2.81 2.52-.35 0-.63-.4-.86-.63a58.39 58.39 0 0 0 -3.9-4.59c-.29-.29-.52-.51-.52-.8 0-.69 2.18-2.29 2.81-2.29s5.28 4.98 5.28 5.79zm6-4c0 .81-2.06 2.58-2.81 2.58-.34 0-.63-.46-.8-.69-1.21-1.54-2.64-3.15-4-4.53-.23-.28-.51-.51-.51-.8 0-.69 2.18-2.35 2.81-2.35s5.27 5.03 5.27 5.77z"/><path d="m201.16 82.4c1.72 0 3.38.06 5.1 0 .75-.06 1.44-.12 2.18-.12 1.49 0 1.55.69 1.55 3.62 0 2-.11 2.58-1.66 2.58-2.41 0-4.76-.12-7.17-.12h-2.92a1.69 1.69 0 0 0 -1.72 1.72v6.42a1.71 1.71 0 0 0 1.72 1.66h9.76c2.64 0 5.39-.11 7.46-.11 1.54 0 1.54.63 1.54 3.27 0 1.66 0 2.92-1.49 2.92-2.52 0-5-.12-7.51-.12h-9.86a1.59 1.59 0 0 0 -1.6 1.55v4.88c0 4.35.29 4.47 6.48 4.47a75.94 75.94 0 0 0 9.63-.52 4.1 4.1 0 0 1 .86-.06c1.32 0 1.2 2.13 1.2 3 0 3.44-.51 3.55-4.64 3.55-19 0-19.78-.29-19.78-9.46v-5.73a1.67 1.67 0 0 0 -1.66-1.67h-9c-2.41 0-4.76.12-7.17.12-1.55 0-1.55-1.09-1.55-2.75 0-2.75.06-3.5 1.44-3.5s4.53.17 7.28.17h9a1.66 1.66 0 0 0 1.66-1.66v-6.51a1.65 1.65 0 0 0 -1.72-1.66h-2.87c-2.29 0-4.64.06-7 .06-1.61 0-1.89-.29-1.89-2.12 0-3.67 0-4 1.83-4 2.24 0 4.65.12 7.17.12z"/><path d="m272.31 86c1.49 0 2.92-.06 4.41-.06 2.29 0 3.73.23 3.73 3 0 1.72-.06 3.44-.06 5.16v19.27c0 1.77.11 3.49.11 5.21s-.34 1.84-3.44 1.84c-2.63 0-2.69-.12-2.92-1.26s-1.09-1.32-2.75-1.32h-18.63c-2.53 0-6 .17-7.4.17s-1.37-.8-1.37-3.38c0-2.3-.12-3 1.26-3s4.7.11 7.45.11h19.78a1.77 1.77 0 0 0 1.72-1.74v-16.19a1.77 1.77 0 0 0 -1.72-1.72h-19.84c-2.46 0-5.9.17-7.34.17-1.26 0-1.37-.8-1.37-3.61 0-2.35.23-2.81 1.26-2.81.86 0 1.66.11 2.47.11 1.66.06 3.32.06 5 .06zm12.44-3c0 .86-2.07 2.64-2.76 2.64-.28 0-.51-.29-.68-.52a56.64 56.64 0 0 0 -4.3-4.59c-.18-.17-.52-.45-.52-.74 0-.63 2.18-2.41 2.75-2.41s5.51 4.9 5.51 5.62zm5.5-4c0 .86-2 2.64-2.75 2.64-.29 0-.58-.34-.75-.57a52 52 0 0 0 -4.24-4.53c-.17-.17-.52-.4-.52-.69 0-.69 2.07-2.41 2.76-2.41s5.5 4.83 5.5 5.63z"/><path d="m341.56 85.55c1.49 0 2.92-.06 4.41-.06 2.29 0 3.78.23 3.78 2.93 0 1.72-.05 3.44-.05 5.16v19.32c0 1.72.05 3.49.05 5.21s-.34 1.78-3.43 1.78c-2.64 0-2.7-.11-2.93-1.2-.29-1.32-1-1.32-2.75-1.32h-18.64c-2.52 0-5.91.11-7.4.11s-1.37-.8-1.37-3.32c0-2.3-.12-3 1.26-3s4.7.17 7.45.17h19.78a1.73 1.73 0 0 0 1.72-1.72v-16.26a1.69 1.69 0 0 0 -1.72-1.72h-19.72c-2.46 0-6 .17-7.39.17-1.27 0-1.38-.8-1.38-3.67 0-2.29.23-2.75 1.26-2.75.86 0 1.66.11 2.47.11 1.66.06 3.32.06 5 .06z"/><path d="m411.5 84.58c1.49 0 3-.06 4.47-.06 2.35 0 3.67.4 3.67 3 0 1.72-.06 3.44-.06 5.1v19.43c0 2 .11 4.07.11 6.08s-.51 2-3.21 2c-3.32 0-3.21-.29-3.32-1.89s-.75-1.72-2.75-1.72h-19.84c-1.95 0-2.69.05-2.81 1.72s.12 1.89-3.32 1.89c-2.7 0-3.15 0-3.15-2.07s.11-4 .11-6v-19.4c0-1.72-.06-3.44-.06-5.16 0-2.41 1.15-3 3.44-3 1.55 0 3.16.06 4.7.06zm-22.13 5.9a1.68 1.68 0 0 0 -1.72 1.66v16.86a1.72 1.72 0 0 0 1.72 1.72h22.24a1.73 1.73 0 0 0 1.72-1.72v-16.86a1.64 1.64 0 0 0 -1.72-1.66z"/><path d="m473.3 78.73c0 .34-.41.57-.69.69-.92.34-1.15.63-1.89 2a3.63 3.63 0 0 0 -.58 1.32.56.56 0 0 0 .63.57 41.45 41.45 0 0 0 6.65-1.61 4.44 4.44 0 0 1 1.44-.34c1 0 1.26.92 1.43 1.72a18.41 18.41 0 0 1 .46 3.09c0 1-1.84 1.21-3 1.44-3.61.74-7.22 1.37-10.83 1.77a2 2 0 0 0 -1.72.92 18.28 18.28 0 0 0 -2 3.33.44.44 0 0 0 .46.4 2.15 2.15 0 0 0 1-.35 15.83 15.83 0 0 1 6.34-1.54c3.66 0 5.79 1.55 6.53 5.16.12.52.29 1 .86 1s5.79-2.75 6.71-3.27a4.74 4.74 0 0 1 1.49-.57c1.09 0 2.46 4.41 2.46 5.39 0 .68-.63.91-1.72 1.26-.23.11-.51.17-.8.28-2.29.86-4.53 1.84-6.76 2.81-1 .4-1.49.75-1.49 1.89v.75 5.27c0 2.07-.28 2.3-2.46 2.3-2.47 0-3.5-.12-3.5-1.61 0-1.26.12-2.52.12-3.72 0-.52-.18-1-.75-1-.29 0-6.19 2.52-6.19 6.08 0 3.84 5.56 4.18 8.31 4.18a41.74 41.74 0 0 0 10.66-1.43 6.88 6.88 0 0 1 1.15-.12c.75 0 1.15.64 1.15 3.9 0 1.72-.06 2.18-1.32 2.47a76.91 76.91 0 0 1 -11 .74 21.22 21.22 0 0 1 -9.06-1.49c-3.49-1.54-5.73-4.3-5.73-8.2 0-5.15 4.19-8 8.14-10.31 1.15-.69 2.35-1.32 3.56-1.9.57-.28 1-.63 1-1.31a7.46 7.46 0 0 0 -.29-1.61 2.39 2.39 0 0 0 -2.52-2c-3.21 0-8.49 2.75-10.72 5.05a38 38 0 0 0 -4.82 6.7 1 1 0 0 1 -.8.58c-1 0-4.87-2.3-4.87-3.33 0-.46.46-.92.74-1.26 1.32-1.43 9.63-13 9.63-14 0-.52-.45-.69-1.26-.69s-2.23.17-4 .17c-1.26 0-1.49-.29-1.49-3.21 0-2.29.23-2.64 1.66-2.64 1 0 2.47.12 4.13.12h1.66c1.49 0 3-.06 3.56-.75a31.56 31.56 0 0 0 3.09-7.39c.12-.63.23-1.21.81-1.21s6.43 2.65 6.43 3.51z"/><path d="m508.61 97.53c-.86 0-1.26-.11-1.26-.51a2.44 2.44 0 0 1 .34-1 16.15 16.15 0 0 0 2.18-5.5c0-.63-.46-1-1.2-1.21a3.61 3.61 0 0 1 -3-3.66 4.1 4.1 0 0 1 4.47-4.3c1.95 0 4.07 1.26 4.07 4.7a25.79 25.79 0 0 1 -2.62 9.95c-.63 1.31-1 1.54-2.41 1.54zm12.84 0c-.86 0-1.26-.11-1.26-.46a2.44 2.44 0 0 1 .4-1c1.09-2 2.18-4.59 2.18-5.56 0-.63-.46-1-1.21-1.21a3.66 3.66 0 0 1 -3-3.66c0-2.41 1.54-4.3 4.53-4.3 1.94 0 4.07 1.26 4.07 4.7a25.3 25.3 0 0 1 -2.7 10 2.11 2.11 0 0 1 -2.46 1.49z"/></g></svg>