<svg viewBox="0 0 184.48 35.28" xmlns="http://www.w3.org/2000/svg"><g fill="#F786D1"><path d="m3.55 1.48v33.4h-3.55v-33.4z"/><path d="m13.37 17.17c0-5.11 0-6.49 0-7.75h3.39a21.75 21.75 0 0 1 .09 2.58 4.6 4.6 0 0 1 4.67-3c2.78 0 5 1.6 5 6.27v19.61h-3.52v-18.88c0-2.47-.82-3.71-2.67-3.71-2.13 0-3.38 1.06-3.38 5.87v16.72h-3.58z"/><path d="m35.22 17.17c0-5.11 0-6.49 0-7.75h3.39a21.75 21.75 0 0 1 .09 2.58 4.6 4.6 0 0 1 4.67-3c2.78 0 5 1.6 5 6.27v19.61h-3.54v-18.88c0-2.47-.83-3.71-2.67-3.71-2.13 0-3.38 1.06-3.38 5.87v16.72h-3.56z"/><path d="m70.62 16.65v10.65c0 5.52-2.61 8-6.7 8s-6.58-2.42-6.58-7.85v-10.89c0-4.9 2.59-7.54 6.73-7.54s6.55 2.79 6.55 7.63zm-9.69-.11v11c0 2.77.93 4.55 3.06 4.55 2 0 3.05-1.36 3.05-4.59v-11c0-2.51-.84-4.32-3-4.32s-3.11 1.58-3.11 4.36z"/><path d="m81.33 9.42c.77 4.29 3 16.61 3.6 21.41.39-4.38 3-16.78 3.74-21.41h3.63l-5.41 25.46h-4.06l-5.29-25.46z"/><path d="m111.75 30.47c0 1.74 0 3.66.09 4.41h-3.3a18.82 18.82 0 0 1 -.26-2.07 4.11 4.11 0 0 1 -4.17 2.47c-3.67 0-5.11-3.28-5.11-7.19v-.45c0-5.76 3.57-7.8 8.11-7.8h1.11v-4c0-2.3-.4-3.76-2.39-3.76s-2.52 1.51-2.52 3.5v.68h-3.54v-.66c0-3.56 1.4-6.58 6.15-6.58 4.44 0 5.83 2.78 5.83 6.53zm-3.49-7.79h-1.26c-2.88 0-4.6 1.21-4.6 4.88v.44c0 2.27.7 4.1 2.69 4.1 2.34 0 3.15-1.87 3.15-5.68z"/><path d="m119 9.42h2.92v-6.25h3.53v6.25h3.55v3.16h-3.58v17.09c0 1.31.23 2.56 1.83 2.56a7.77 7.77 0 0 0 1.6-.15v2.76a8.16 8.16 0 0 1 -2.76.38c-2.47 0-4.2-1-4.2-4.9v-17.74h-2.89z"/><path d="m136.57 9.42h3.55v25.46h-3.55zm0-9.42h3.56v5.16h-3.56z"/><path d="m162.37 16.65v10.65c0 5.52-2.61 8-6.7 8s-6.58-2.42-6.58-7.85v-10.89c0-4.9 2.59-7.54 6.73-7.54s6.55 2.79 6.55 7.63zm-9.7-.11v11c0 2.77.94 4.55 3.07 4.55 2 0 3-1.36 3-4.59v-11c0-2.51-.83-4.32-3-4.32s-3.07 1.58-3.07 4.36z"/><path d="m171.32 17.17c0-5.11 0-6.49 0-7.75h3.39a21.75 21.75 0 0 1 .09 2.58 4.58 4.58 0 0 1 4.66-3c2.79 0 5 1.6 5 6.27v19.61h-3.55v-18.88c0-2.47-.83-3.71-2.67-3.71-2.14 0-3.39 1.06-3.39 5.87v16.72h-3.55z"/></g></svg>