<svg viewBox="0 0 270.42 71.94" xmlns="http://www.w3.org/2000/svg"><g fill="#0084d0"><path d="m56.58 3.28h2.77c1.45 0 2.38.15 2.38 1.84v3.25 12.1 3.28s-.21 1.12-2.16 1.12c-1.66 0-1.69-.07-1.84-.76s-.65-.83-1.73-.83h-11.71c-1.59 0-3.71.08-4.65.08s-.87-.51-.87-2.1-.07-1.91.8-1.91 3 .11 4.68.11h12.44a1.08 1.08 0 0 0 1.08-1.08v-10.2a1.06 1.06 0 0 0 -1.08-1.08h-12.44c-1.55 0-3.74.11-4.65.11s-.86-.51-.86-2.31c0-1.44.14-1.73.79-1.73s1 .07 1.55.07h3.14z"/><path d="m107.18 9.05c0 .61-1.45 2-1.91 2.48a62.63 62.63 0 0 1 -19.57 13.59c-1.19.58-1.23.61-1.52 1.23a.36.36 0 0 1 -.36.21c-.4 0-1.15-1.44-1.4-1.87a10 10 0 0 1 -1.09-2.16c0-.4.65-.47 1.12-.62 8-2.34 17-9.15 22.1-15.67a.88.88 0 0 1 .61-.4c.72 0 2.02 2.67 2.02 3.21zm-18.6-6c.47.32 2.2 1.51 2.2 2.05 0 .83-1.7 2.78-2.38 2.78a3.86 3.86 0 0 1 -1.4-.88 46.12 46.12 0 0 0 -4.8-3.36c-.28-.18-.57-.36-.57-.68 0-.54 1.44-2.85 2.27-2.85.53-.04 3.99 2.49 4.68 2.99z"/><path d="m142.89 9.52c1.51 0 3-.11 4.57-.11 1.12 0 1.09.29 1.09 2 0 1.23 0 1.91-1 1.91-1.58 0-3.13-.07-4.68-.07h-4.72c-1 0-1 .94-1.16 1.69a14.69 14.69 0 0 1 -7.78 11.35 16.93 16.93 0 0 1 -3.75 1.59c-.79 0-2.78-2.38-2.78-3 0-.4.69-.54 1-.61a17.16 17.16 0 0 0 4.51-1.88 10.62 10.62 0 0 0 4.54-6.56 17.29 17.29 0 0 0 .32-1.76.84.84 0 0 0 -.86-.83h-7.29c-1.48 0-3 .07-4.5.07-.94 0-1-.54-1-1.84 0-1.66.11-2.05.91-2.05 1.55 0 3.06.11 4.57.11zm-5.34-9.45c1.55 0 3.1-.07 4.69-.07 1 0 .93.47.93 2.24 0 1.11 0 1.62-1 1.62-1.51 0-3.06-.07-4.61-.07h-7.86c-1.55 0-3.1.07-4.61.07-1.08 0-1-.58-1-1.95s0-1.91 1-1.91c1.55 0 3.1.07 4.68.07z"/><path d="m190.78 9.05c0 .61-1.44 2-1.91 2.48a62.63 62.63 0 0 1 -19.57 13.59c-1.19.58-1.23.61-1.51 1.23a.37.37 0 0 1 -.36.21c-.4 0-1.16-1.44-1.41-1.87a9.91 9.91 0 0 1 -1.08-2.16c0-.4.65-.47 1.12-.62 8-2.34 17-9.15 22.09-15.67a.88.88 0 0 1 .61-.4c.72 0 2.02 2.67 2.02 3.21zm-18.6-6c.47.32 2.2 1.51 2.2 2.05 0 .83-1.69 2.78-2.38 2.78a3.86 3.86 0 0 1 -1.44-1 46 46 0 0 0 -4.79-3.36c-.29-.18-.58-.36-.58-.68 0-.54 1.44-2.85 2.27-2.85.54.08 4.04 2.61 4.72 3.11z"/><path d="m207.53 4c.51.61 1.52 2.24 2 3a20 20 0 0 1 2 3.6c0 .76-2.38 1.84-2.89 1.84s-.61-.43-.79-.79a44 44 0 0 0 -3.28-5.55 1.78 1.78 0 0 1 -.39-.76c0-.61 2.19-1.7 2.73-1.7a.88.88 0 0 1 .62.36zm22.64-1c.43.14 1.37.43 1.37.83s-.25.39-.4.5a1.48 1.48 0 0 0 -.68.94c-1.77 6.34-4.22 11.82-9.3 16.18a27.77 27.77 0 0 1 -10.42 5.44 2.85 2.85 0 0 1 -.74.11c-.72 0-2.38-2.41-2.38-3s1.08-.72 1.51-.83c8-2 13.12-6.63 16.08-14.31a28.25 28.25 0 0 0 1.66-6.41c0-.25.07-.58.36-.58a25.08 25.08 0 0 1 2.94 1.13zm-13.45-1.45a33.09 33.09 0 0 1 1.88 2.78c.36.57 2 3.13 2 3.67 0 .72-2.42 1.8-2.92 1.8s-.54-.39-.83-.9a46.72 46.72 0 0 0 -3.25-5.48 1.75 1.75 0 0 1 -.39-.75c0-.58 2.2-1.66 2.74-1.66.38-.01.59.29.77.54z"/><path d="m19.64 46.28c.62 0 1.48-.07 1.8-.07.73 0 1.27.68 1.73 1.15s1.23 1.19 1.23 1.64c0 .32-.29.68-.54 2.09-1.19 6.77-3.86 11.53-9.55 15.5a34.13 34.13 0 0 1 -6.92 3.71 4.41 4.41 0 0 1 -1.19.29c-.87 0-2.13-2.42-2.13-3 0-.4.33-.51.65-.58a25.6 25.6 0 0 0 9-4.76 17 17 0 0 0 5.87-10.49 7.6 7.6 0 0 0 .11-.9c0-.68-.61-.75-1.26-.75h-12.85c-1.52 0-3 .07-4.51.07-1.08.03-1.08-.3-1.08-1.92s0-2 1-2c1.55 0 3.1.07 4.65.07zm10.36-2.63a3.59 3.59 0 1 1 -3.6-3.57 3.58 3.58 0 0 1 3.6 3.57zm-5.51 0a1.93 1.93 0 0 0 3.85 0 1.93 1.93 0 1 0 -3.85 0z"/><path d="m62 46.71h2.81c1.47 0 2.3.25 2.3 1.91v3.2 12.18c0 1.26.07 2.56.07 3.82s-.32 1.26-2 1.26c-2.09 0-2-.18-2.09-1.19s-.47-1.08-1.73-1.08h-12.53c-1.22 0-1.69 0-1.77 1.08s.08 1.19-2.09 1.19c-1.69 0-2 0-2-1.29s.07-2.53.07-3.79v-12.21c0-1.08 0-2.16 0-3.24 0-1.51.72-1.87 2.16-1.87h3zm-13.93 3.71a1.06 1.06 0 0 0 -1.08 1v10.6a1.09 1.09 0 0 0 1.08 1.08h14a1.09 1.09 0 0 0 1.08-1.08v-10.55a1 1 0 0 0 -1.08-1z"/><path d="m104.18 47.54a8.79 8.79 0 0 0 1.77-.11 1.06 1.06 0 0 1 .32 0c.69 0 2.13 2 2.13 2.63a.82.82 0 0 1 -.22.47 8.52 8.52 0 0 0 -.82 1.55 59.26 59.26 0 0 1 -3.25 6.41 2.24 2.24 0 0 0 -.4 1c0 .47.29.69.65.94s2 1.4 2 1.87-1.6 2.7-2.36 2.7a.86.86 0 0 1 -.54-.29c-.72-.65-.79-.65-1.44-1.19a1.24 1.24 0 0 0 -.8-.39c-.5 0-.9.5-1.22.86a29.37 29.37 0 0 1 -7.89 6.09 18.28 18.28 0 0 1 -4.33 1.84c-.94 0-2.63-2.31-2.63-2.81s1.23-.72 1.59-.83a22.17 22.17 0 0 0 10.3-6.49 1.37 1.37 0 0 0 .54-.9.91.91 0 0 0 -.57-.83c-1.3-.75-2.53-1.4-3.86-2-.25-.11-.68-.29-.68-.61 0-.51 1.37-2.71 2.2-2.71a29.82 29.82 0 0 1 4.43 2.2 1.68 1.68 0 0 0 .9.4c.65 0 .94-.65 1.22-1.19a21.94 21.94 0 0 0 1.88-4.33c0-.72-.9-.72-1.44-.72h-6.88c-.87 0-1.12.29-1.59.94a52.13 52.13 0 0 1 -4.65 5.55 1.93 1.93 0 0 1 -1.15.69c-.65 0-3-1.52-3-2.13 0-.29.36-.51.58-.69a33.52 33.52 0 0 0 9.4-12.93c.11-.29.26-.91.65-.91a12.52 12.52 0 0 1 2.27 1c.62.25 1.88.86 1.88 1.11s-.18.33-.36.4c-.54.22-.58.29-1.16 1.3-.1.21-.28.54-.5.9a1.32 1.32 0 0 0 -.29.72c0 .36.33.5.61.54zm6-1.73c0 .54-1.4 1.44-1.87 1.44-.25 0-.36-.21-.47-.39a34.92 34.92 0 0 0 -2.2-3.21 1 1 0 0 1 -.25-.51c0-.43 1.48-1.26 1.87-1.26s2.94 3.5 2.94 3.93zm2.82-3.75a7.34 7.34 0 0 1 1.08 1.77c0 .54-1.44 1.44-1.87 1.44-.25 0-.4-.25-.54-.47-.68-1.08-1.41-2.12-2.16-3.13a.75.75 0 0 1 -.25-.47c0-.47 1.47-1.3 1.87-1.3s1.51 1.55 1.69 1.91c.05.07.12.19.18.25z"/><path d="m146.09 47.61a8.55 8.55 0 0 0 2-.21h.4c.72 0 2.31 2 2.31 2.45a2.33 2.33 0 0 1 -.44.9 20.49 20.49 0 0 0 -1.11 1.95c-3.54 6.85-7.07 12.11-13.7 16.4-.79.5-4.18 2.63-4.94 2.63s-3.06-1.77-3.06-2.45c0-.36.43-.54.72-.65a32 32 0 0 0 13.93-11.57c.61-.9 2.78-4.4 2.78-5.3 0-.47-.58-.51-1.08-.51h-6.85c-.83 0-1.05.36-1.52 1-.68 1-4.82 5.91-5.8 5.91-.43 0-3.06-1.37-3.06-2.12a.56.56 0 0 1 .32-.51 33.29 33.29 0 0 0 9.63-12.9c.14-.36.25-.87.57-.87a12.06 12.06 0 0 1 1.91.8c.33.18 2.16.86 2.16 1.26 0 .18-.17.32-.32.4-.5.18-.61.36-1.23 1.47a5.59 5.59 0 0 0 -.64 1.3.58.58 0 0 0 .61.61z"/><path d="m169.41 51.22a32.45 32.45 0 0 1 4.47 2.48c1 .58 2.81 1.59 2.81 2.17s-1.44 2.77-2.16 2.77a1.92 1.92 0 0 1 -.83-.39 62 62 0 0 0 -5.7-3.64c-.26-.15-.62-.29-.62-.62-.03-.57 1.34-2.77 2.03-2.77zm1.19 15.46c1-.22 3.28-1.05 4.29-1.44a24.48 24.48 0 0 0 9-5.66 30.12 30.12 0 0 0 6.11-10.89c.15-.36.29-.86.76-.86s2.7 2 2.7 2.7a7.87 7.87 0 0 1 -.47 1.41c-.07.25-.18.43-.21.57a31.61 31.61 0 0 1 -6.67 10.2 34.75 34.75 0 0 1 -12.31 7.29 2 2 0 0 0 -1.37 1 .46.46 0 0 1 -.36.22c-.39 0-.68-.8-.9-1.23-.39-.86-.79-1.73-1.19-2.59a1.07 1.07 0 0 1 -.07-.33c0-.25.47-.32.69-.39zm6.92-21.05c.75.54 2 1.44 2.7 2a.84.84 0 0 1 .4.62c0 .65-1.52 2.66-2.17 2.66a1.87 1.87 0 0 1 -.9-.47 56.32 56.32 0 0 0 -5.29-3.82c-.26-.14-.62-.36-.62-.68 0-.5 1.55-2.49 2.2-2.49a15.24 15.24 0 0 1 3.16 1.82c.23.15.41.29.52.36z"/><path d="m221.63 51.29h2.12c1.73 0 2 .54 2 2v2.09 11.1 2.31c0 1.15-.32 1.23-1.58 1.23-1.44 0-1.62-.08-1.8-.8-.08-.39-.36-.39-1.12-.39h-8.47c-1.26 0-2.74 0-3.57 0s-.86-.61-.86-1.94c0-.65 0-1.41.79-1.41.65 0 2.31.07 3.6.07h8.8a.82.82 0 0 0 .83-.83v-2.26a.84.84 0 0 0 -.83-.83h-8.44c-1.26 0-2.84.08-3.6.08s-.79-.76-.79-2c0-.69-.07-1.37.79-1.37s2.31.07 3.57.07h8.47a.82.82 0 0 0 .83-.83v-2.22a.84.84 0 0 0 -.83-.86h-8.74c-1.09 0-2.64.07-3.54.07s-.86-.57-.86-1.57-.07-1.76.79-1.76c.69 0 2.38.07 3.57.07z"/><path d="m270.42 53.09c0 .61-1.44 2-1.91 2.49a62.68 62.68 0 0 1 -19.57 13.59c-1.19.57-1.23.61-1.51 1.22a.36.36 0 0 1 -.36.22c-.4 0-1.16-1.44-1.41-1.88a9.91 9.91 0 0 1 -1.08-2.16c0-.4.65-.47 1.12-.61 8-2.34 17-9.16 22.09-15.68a.88.88 0 0 1 .61-.4c.72 0 2.02 2.67 2.02 3.21zm-18.6-6c.47.33 2.2 1.52 2.2 2.06 0 .83-1.69 2.77-2.38 2.77a3.94 3.94 0 0 1 -1.44-1 44.45 44.45 0 0 0 -4.79-3.35c-.29-.18-.58-.36-.58-.69 0-.54 1.44-2.84 2.27-2.84.58.08 4.04 2.6 4.72 3.1z"/></g></svg>