<svg xmlns="http://www.w3.org/2000/svg" width="216.078" height="28.804" viewBox="0 0 938.654 125.125">
  <defs>
    <style>
      .cls-1 {
        fill: #db2da1;
        fill-rule: evenodd;
      }
    </style>
  </defs>
  <path id="会社説明資料" class="cls-1" d="M422.52,69.458L428.6,57.443a282.194,282.194,0,0,1-54.81-38.475h-17.82a282.255,282.255,0,0,1-54.81,38.475l6.075,12.015q8.774-4.724,19.17-11.2v10.26h76.95V58.253q10.393,6.48,19.17,11.2h0Zm-93.69-12.69a256.946,256.946,0,0,0,36.045-28.35,256.715,256.715,0,0,0,36.045,28.35H328.83Zm60.75,45.9q4.724,8.237,8.64,15.39-26.73,3.377-52.11,5.13,7.423-14.58,13.095-29.025H422.25V82.013H307.5v12.15h36.45q-5.806,14.311-14.04,30.1-6.212.405-19.035,0.945l0.675,12.151a893.414,893.414,0,0,0,92.745-8.1q1.215,2.293,3.442,6.547t3.173,6.008l12.555-5.535q-10.935-20.925-21.6-39.15ZM563.6,59.063h24.03V46.508H563.6V20.318H549.15v26.19H520.8V59.063h28.35v64.394H515.4v12.961h74.25V123.457H563.6V59.063Zm-65.07-39.825H484.35v20.25H466.125V52.313h35.1q-11.612,25.787-38.88,41.31l3.51,14.984a94.108,94.108,0,0,0,18.09-12.555v44.686h14.31V86.2q10.53,10.261,19.035,19.98L526.74,97q-7.695-8.5-22-22.41A115.338,115.338,0,0,0,516.75,52.313V39.488H498.525V19.238Zm196.83,32.67h38.07v24.03h-38.07V51.908Zm-20.25,84.106v-4.05l6.615,8.64q13.77-8.642,20.115-20.926t6.885-32.265h7.425v36.855q0,9.721,2.835,12.083t14.445,2.363h4.928a22.236,22.236,0,0,0,3.915-.405q2.227-.4,3.172-0.608a5.988,5.988,0,0,0,2.363-1.417,7.692,7.692,0,0,0,1.89-2.16,24.684,24.684,0,0,0,1.215-3.443,21.106,21.106,0,0,0,.877-4.455q0.134-1.956.473-6.143t0.472-7.695q0.133-3.508.27-9.72l-12.825-1.08q-0.137,18.093-.877,21.533t-4.523,3.442q-3.511,0-4.117-.607t-0.608-4.388V87.413H747.6V40.163H735.315A116.236,116.236,0,0,0,744.36,21.8l-13.23-3.51a126.343,126.343,0,0,1-11.475,21.87H707.37q-4.05-10.394-9.45-21.195l-13.095,4.185q3.508,6.616,7.83,17.01h-10.8v47.25h12.96q-0.677,15.662-5.2,24.84t-14.513,15.8V100.912h-43.2v40.5h13.5v-5.4h29.7Zm-29.7-23.626h16.74v12.15h-16.74v-12.15Zm29.3-77.22V23.288h-42.8v11.88h42.8ZM677,54.608V42.458h-48.87v12.15H677Zm-2.7,19.3V62.438H632.85V73.913H674.3Zm0,19.305V81.608H632.85v11.61H674.3ZM893,66.488v21.33h-28.35q0.4-5.129.4-10.8V66.488H893ZM865.05,35.168H893v19.44H865.05V35.168Zm-23.895,74.25V24.908h-46.71v92.61h13.9v-8.1h32.8Zm-13.23-36.854V97.268H808.35v-24.7h19.575Zm-19.575-35.1h19.575v22.95H808.35V37.463Zm97,98.956q1.955-2.971,1.957-16.606V23.018H851.55v47.25q0,23.762-4.657,36.72t-17.213,24.3l10.665,9.045A77.418,77.418,0,0,0,855.4,121.972a69.207,69.207,0,0,0,7.9-22.409H893v20.249q0,5.133-.742,6.143t-4.658,1.012q-2.835,0-14.04-.675l0.54,12.421q15.118,0.674,19.71.675Q903.389,139.388,905.348,136.418Zm91.867-71.55q19.853-5.129,29.835-14.445,7.02,8.91,20.66,14.445H997.215Zm48.735,38.339v5.4H979.8v-5.4h66.15Zm0-14.039v5.4H979.8v-5.4h66.15ZM979.8,74.858h66.15v5.4H979.8v-5.4Zm5.67-45.765q-10.935-4.588-25.785-9.18l-5.4,10.4q13.5,4.322,25.65,9.45ZM955.365,66.488a208.74,208.74,0,0,0,24.3-9.045l3.105,7.425H964.95v54.269h20.655a221.149,221.149,0,0,1-33.615,10.8l5,11.07q28.484-6.885,44.415-16.876l-2.7-5h28.48l-2.69,6.075q25.92,8.1,43.06,16.741l6.35-10.53a257.459,257.459,0,0,0-31.6-12.286h18.5V68.918q5.535,1.215,9.31,1.89l4.32-11.34q-20.64-3.509-29.97-9.45-9.3-5.939-9.58-14.85h19.3a61.411,61.411,0,0,1-9.85,8.1l9.99,8.37a61.5,61.5,0,0,0,16.6-16.47v-10.8h-53.05a63.352,63.352,0,0,0,3.24-5.535l-13.9-2.025q-7.98,11.881-22.28,20.79l10.4,7.7a80.69,80.69,0,0,0,13.235-10.125h12.01q-0.945,14.852-37.935,21.06,6.749-3.24,8.64-4.32l-5.4-10.26q-13.5,7.157-34.56,13.77ZM1212.4,140.738h14.05V108.067l13.36-2.43-1.21-12.419-12.15,2.16V19.238H1212.4v78.84l-53.19,9.989,1.22,12.42,51.97-9.72v29.971Zm-2.56-89.505a291.838,291.838,0,0,0-24.7-24.7l-9.72,9.045a340.747,340.747,0,0,1,24.56,24.975Zm-8.1,33.75a321.538,321.538,0,0,0-27.13-27.135l-9.59,9.18a362.54,362.54,0,0,1,26.87,27.27Zm-56.29-22.815V19.238h-13.5v42.93h-19.18V73.913h17.02a129.5,129.5,0,0,1-19.99,38.745l7.3,13.23a111.174,111.174,0,0,0,14.85-28.35v43.2h13.5V90.518l8.91,19.439,9.72-7.695q-2.43-4.992-14.31-28.35h12.96V62.168h-17.28Zm-26.33-3.1,11.34-2.7a313.982,313.982,0,0,0-6.88-31.05l-11.75,2.835q4.185,15.526,7.29,30.915h0Zm39.02,0.27a212.9,212.9,0,0,0,7.82-33.21l-12.01-1.485a163.578,163.578,0,0,1-7.15,31.455Z" transform="translate(-301.156 -16.813)"/>
</svg>
