<svg viewBox="0 0 324.43 50.66" xmlns="http://www.w3.org/2000/svg"><g fill="none" stroke="#ff688b" stroke-miterlimit="10"><path d="m.5 1.41h9.84l7.56 22.37c1 3 1.8 6.14 2.7 9.25h.3c1-3.11 1.74-6.28 2.7-9.25l7.4-22.37h9.84v47.85h-8.1v-20c0-4.53.66-11.19 1.08-15.72h-.24l-3.58 11.27-6.88 20.12h-5.12l-6.9-20.12-3.52-11.25h-.24c.42 4.53 1.14 11.19 1.14 15.72v20h-7.98z"/><path d="m78.56 37h-14.4l-3.16 12.26h-9l14.26-47.85h10.44l14.3 47.85h-9.3zm-1.92-7.43-1.32-5.27c-1.38-5-2.58-10.48-3.9-15.65h-.24c-1.18 5.24-2.46 10.67-3.78 15.65l-1.32 5.24z"/><path d="m102.2 1.41h9.06l12.9 25.47 4.44 10.35h.3c-.48-5-1.14-11.32-1.14-16.75v-19.07h8.4v47.85h-9l-12.84-25.61-4.5-10.28h-.3c.42 5.17 1.08 11.19 1.08 16.68v19.21h-8.4z"/><path d="m174 37h-14.4l-3.12 12.29h-9l14.18-47.88h10.44l14.28 47.85h-9.3zm-2-7.46-1.32-5.24c-1.38-5-2.58-10.48-3.9-15.65h-.24c-1.14 5.24-2.46 10.67-3.78 15.65l-1.32 5.24z"/><path d="m195.38 25.53c0-15.78 9.48-25 21.3-25a18.07 18.07 0 0 1 13.74 6.14l-4.74 6.08a11.3 11.3 0 0 0 -8.7-4c-7.38 0-12.54 6.21-12.54 16.49s4.44 16.69 13.14 16.69a8.53 8.53 0 0 0 5.58-1.81v-9.49h-7.86v-7.82h15.78v21.6a20.08 20.08 0 0 1 -14.4 5.75c-12.12 0-21.3-8.66-21.3-24.63z"/><path d="m246.62 1.41h27.24v8h-18.36v11.01h15.6v8h-15.6v12.8h19v8h-27.9z"/><path d="m313.7 49.26-9.12-18.11h-6.18v18.11h-8.88v-47.85h15.48c9.3 0 16.68 3.49 16.68 14.48 0 7.18-3.36 11.64-8.46 13.77l10.38 19.6zm-15.3-25.67h5.76c5.7 0 8.82-2.59 8.82-7.7s-3.12-6.89-8.82-6.89h-5.76z"/></g></svg>