<svg viewBox="0 0 351.63 109.76" xmlns="http://www.w3.org/2000/svg"><g fill="none" stroke="#ff688b" stroke-miterlimit="10"><path d="m96.14.5h9.06l12.9 25.5 4.44 10.35h.3c-.48-5-1.14-11.32-1.14-16.75v-19.1h8.4v47.85h-9l-12.84-25.6-4.5-10.29h-.3c.42 5.18 1.08 11.19 1.08 16.69v19.2h-8.4z"/><path d="m147.08.5h27.24v8h-18.32v11.01h15.6v8h-15.6v12.8h19v8h-27.9z"/><path d="m185.6.5h9.06l3.54 23.34c.66 5.05 1.38 10.16 2 15.27h.24c.9-5.11 1.86-10.29 2.82-15.27l5.2-23.34h7.54l5.16 23.34c1 4.92 1.86 10.09 2.82 15.27h.3c.66-5.18 1.32-10.29 2-15.27l3.48-23.34h8.46l-8.22 47.85h-11l-5-23.66c-.72-3.76-1.38-7.44-1.92-11.06h-.24c-.6 3.62-1.2 7.3-1.92 11.06l-4.92 23.66h-10.82z"/><path d="m.5 60.5h27.24v8h-18.36v11.01h15.62v8h-15.62v12.8h19v8h-27.88z"/><path d="m43.4 60.5h9.84l7.56 22.38c1 3 1.8 6.14 2.7 9.24h.3c1-3.1 1.74-6.27 2.7-9.24l7.38-22.38h9.84v47.85h-8.1v-20c0-4.53.66-11.19 1.08-15.71h-.24l-3.6 11.25-6.86 20.11h-5.1l-6.9-20.09-3.52-11.25h-.24c.42 4.52 1.14 11.18 1.14 15.71v20h-8z"/><path d="m100.64 60.5h14.58c9.84 0 17.4 3.69 17.4 15 0 10.93-7.62 15.85-17.16 15.85h-5.94v17h-8.88zm14.22 23.28c6.12 0 9.06-2.78 9.06-8.28s-3.24-7.43-9.36-7.43h-5v15.71z"/><path d="m146.66 60.5h8.88v39.83h18v8h-26.88z"/><path d="m185.06 84.23c0-15.58 8.1-24.64 19.86-24.64s19.86 9.12 19.86 24.64-8.1 25-19.86 25-19.86-9.48-19.86-25zm30.66 0c0-10.28-4.2-16.42-10.8-16.42s-10.8 6.14-10.8 16.42 4.2 16.75 10.8 16.75 10.8-6.53 10.8-16.75z"/><path d="m247 90.83-13.34-30.33h9.42l4.44 11.64c1.26 3.56 2.46 6.92 3.84 10.61h.24c1.38-3.69 2.7-7 4-10.61l4.4-11.64h9.24l-13.38 30.33v17.52h-8.86z"/><path d="m280.34 60.5h27.24v8h-18.36v11.01h15.6v8h-15.6v12.8h19v8h-27.88z"/><path d="m323.24 60.5h27.23v8h-18.35v11.01h15.59v8h-15.59v12.8h19v8h-27.88z"/></g></svg>