<svg viewBox="0 0 403.39 110.92" xmlns="http://www.w3.org/2000/svg"><g fill="none" stroke="#ff688b" stroke-miterlimit="10"><path d="m13 8.45h-12.5v-7.95h34v8h-12.64v39.9h-8.86z"/><path d="m47.66.5h8.88v18.82h16.8v-18.82h8.82v47.85h-8.82v-20.69h-16.8v20.69h-8.88z"/><path d="m99.08.5h8.92v47.85h-8.92z"/><path d="m149.06 48.35-9.12-18.1h-6.18v18.1h-8.88v-47.85h15.48c9.3 0 16.64 3.5 16.64 14.5 0 7.17-3.36 11.63-8.46 13.77l10.46 19.58zm-15.3-25.67h5.76c5.7 0 8.82-2.59 8.82-7.69s-3.12-6.92-8.82-6.92h-5.76z"/><path d="m171.8.5h12.2c13.56 0 22 7.57 22 23.73s-8.4 24.12-21.48 24.12h-12.72zm11.64 40.16c8.28 0 13.44-4.79 13.44-16.43s-5.16-16.1-13.44-16.1h-2.76v32.53z"/><path d="m247.76 30.83-13.32-30.33h9.42l4.44 11.64c1.26 3.56 2.46 6.92 3.84 10.61h.24c1.38-3.69 2.7-7 4-10.61l4.4-11.64h9.22l-13.36 30.33v17.52h-8.88z"/><path d="m281.12.5h27.24v8h-18.36v11.01h15.6v8h-15.6v12.8h19v8h-27.9z"/><path d="m344.83 36.07h-14.39l-3.12 12.28h-9l14.22-47.85h10.46l14.28 47.85h-9.28zm-1.91-7.44-1.32-5.24c-1.39-5-2.58-10.47-3.9-15.65h-.24c-1.14 5.26-2.46 10.67-3.78 15.65l-1.32 5.24z"/><path d="m392.65 48.35-9.11-18.1h-6.18v18.1h-8.88v-47.85h15.52c9.25 0 16.63 3.5 16.63 14.5 0 7.17-3.36 11.63-8.46 13.77l10.38 19.59zm-15.29-25.67h5.76c5.69 0 8.81-2.59 8.81-7.69s-3.12-6.92-8.81-6.92h-5.76z"/><path d="m48.74 61.66h9.06l3.54 23.34c.66 5 1.38 10.15 2 15.26h.24c.94-5.1 1.9-10.26 2.86-15.26l5.16-23.34h7.56l5.16 23.34c1 4.91 1.86 10.08 2.82 15.26h.3c.66-5.18 1.32-10.28 2-15.26l3.46-23.34h8.46l-8.22 47.86h-11l-5-23.67c-.72-3.75-1.38-7.44-1.92-11.06h-.22c-.6 3.62-1.2 7.31-1.92 11.06l-4.86 23.67h-10.9z"/><path d="m111.8 85.4c0-15.59 8.1-24.64 19.86-24.64s19.86 9.12 19.86 24.64-8.1 25-19.86 25-19.86-9.48-19.86-25zm30.66 0c0-10.29-4.2-16.43-10.8-16.43s-10.8 6.14-10.8 16.43 4.2 16.74 10.8 16.74 10.8-6.53 10.8-16.74z"/><path d="m190.4 109.52-9.12-18.11h-6.18v18.11h-8.88v-47.86h15.48c9.3 0 16.68 3.49 16.68 14.49 0 7.18-3.36 11.64-8.46 13.77l10.38 19.6zm-15.3-25.68h5.76c5.7 0 8.82-2.58 8.82-7.69s-3.12-6.92-8.82-6.92h-5.76z"/><path d="m213.14 61.66h8.86v20.76h.18l14.7-20.76h9.78l-13.54 18.82 16 29h-9.82l-11.46-21.43-5.82 8v13.45h-8.88z"/><path d="m260.3 61.66h8.88v47.86h-8.88z"/><path d="m286.1 61.66h9.06l12.89 25.48 4.45 10.35h.29c-.48-5-1.14-11.32-1.14-16.75v-19.08h8.4v47.86h-9l-12.84-25.61-4.49-10.28h-.3c.42 5.17 1.08 11.18 1.08 16.68v19.21h-8.4z"/><path d="m334.82 85.78c0-15.78 9.47-25 21.3-25a18 18 0 0 1 13.73 6.14l-4.74 6.08a11.29 11.29 0 0 0 -8.7-4c-7.37 0-12.53 6.21-12.53 16.49s4.43 16.68 13.13 16.68a8.48 8.48 0 0 0 5.58-1.81v-9.47h-7.86v-7.82h15.78v21.6a20.11 20.11 0 0 1 -14.39 5.75c-12.12 0-21.3-8.66-21.3-24.64z"/></g></svg>