<svg id="organization-sp" xmlns="http://www.w3.org/2000/svg" xmlns:xlink="http://www.w3.org/1999/xlink" width="351" height="1995.83" viewBox="0 0 351 1995.83">
  <defs>
    <linearGradient id="linear-gradient" y1="52.314" x2="1" y2="52.314" gradientUnits="objectBoundingBox">
      <stop offset="0" stop-color="#ff93ac"/>
      <stop offset="0.37" stop-color="#ff7bac"/>
      <stop offset="1" stop-color="#ff688b"/>
    </linearGradient>
    <linearGradient id="linear-gradient-2" y1="49.237" y2="49.237" xlink:href="#linear-gradient"/>
    <linearGradient id="linear-gradient-3" y1="46.542" x2="1" y2="46.542" gradientUnits="objectBoundingBox">
      <stop offset="0" stop-color="#ff93ac"/>
      <stop offset="0.37" stop-color="#ff7bac"/>
      <stop offset="1" stop-color="#e363ac"/>
    </linearGradient>
    <linearGradient id="linear-gradient-4" y1="22.558" x2="1" y2="22.558" gradientUnits="objectBoundingBox">
      <stop offset="0" stop-color="#c4bddd"/>
      <stop offset="0.49" stop-color="#b2b2d8"/>
      <stop offset="1" stop-color="#7d5fa6"/>
    </linearGradient>
    <linearGradient id="linear-gradient-5" y1="28.728" x2="1" y2="28.728" gradientUnits="objectBoundingBox">
      <stop offset="0" stop-color="#fcd26d"/>
      <stop offset="0.49" stop-color="#f5c241"/>
      <stop offset="1" stop-color="#f7931e"/>
    </linearGradient>
    <linearGradient id="linear-gradient-6" y1="-1.365" x2="1" y2="-1.365" gradientUnits="objectBoundingBox">
      <stop offset="0" stop-color="#a6d3a2"/>
      <stop offset="0.51" stop-color="#72bb7f"/>
      <stop offset="1" stop-color="#22b573"/>
    </linearGradient>
    <linearGradient id="linear-gradient-7" y1="4.48" x2="1" y2="4.48" gradientUnits="objectBoundingBox">
      <stop offset="0" stop-color="#bbe2f1"/>
      <stop offset="0.52" stop-color="#8ad1ec"/>
      <stop offset="1" stop-color="#4fc2f1"/>
    </linearGradient>
    <linearGradient id="linear-gradient-8" y1="16.403" x2="1" y2="16.403" gradientUnits="objectBoundingBox">
      <stop offset="0" stop-color="#ffefac"/>
      <stop offset="0.52" stop-color="#fff088"/>
      <stop offset="1" stop-color="#fcee21"/>
    </linearGradient>
    <linearGradient id="linear-gradient-9" y1="32.077" x2="1" y2="32.077" gradientUnits="objectBoundingBox">
      <stop offset="0" stop-color="#f2a1a9"/>
      <stop offset="0.61" stop-color="#ff686a"/>
      <stop offset="1" stop-color="#ea5c64"/>
    </linearGradient>
    <linearGradient id="linear-gradient-10" y1="-7.148" x2="1" y2="-7.148" gradientUnits="objectBoundingBox">
      <stop offset="0" stop-color="#a6d3a2"/>
      <stop offset="0.51" stop-color="#bbcf9f"/>
      <stop offset="1" stop-color="#72b746"/>
    </linearGradient>
    <linearGradient id="linear-gradient-11" y1="25.122" y2="25.122" xlink:href="#linear-gradient-5"/>
    <linearGradient id="linear-gradient-12" y1="19.2" y2="19.2" xlink:href="#linear-gradient-4"/>
  </defs>
  <path id="パス_249" data-name="パス 249" d="M182.03,64.18v37" fill="none" stroke="#2e3d83" stroke-miterlimit="10" stroke-width="1"/>
  <path id="パス_250" data-name="パス 250" d="M28.03,164.5V1965.18" fill="none" stroke="#2e3d83" stroke-miterlimit="10" stroke-width="1"/>
  <path id="パス_251" data-name="パス 251" d="M74.03,263.5V592.18" fill="none" stroke="#2e3d83" stroke-miterlimit="10" stroke-width="1"/>
  <path id="パス_252" data-name="パス 252" d="M0,0H350V65H0Z" transform="translate(0.5 0.5)" stroke="#fff" stroke-miterlimit="10" stroke-width="1" fill="url(#linear-gradient)"/>
  <path id="パス_253" data-name="パス 253" d="M119.1,37c-.52-.7-1.37-1.7-2.22-2.63V43.8h-2.95V35.13a20.344,20.344,0,0,1-3.1,2.4,11.762,11.762,0,0,0-1.4-2.82,18.8,18.8,0,0,0,7-7h-6.05V25h3.55V20.4h2.95V25H118l.52-.13L120.2,26a23.861,23.861,0,0,1-2.94,5.35c1.2,1,3.12,2.69,3.64,3.19Zm14.33,3.17V43H119.28V40.1h5.77V31h-4.74V28.11h4.74V20.64h3v7.47h4.73V31H128.1v9.14Z" fill="#fff"/>
  <path id="パス_254" data-name="パス 254" d="M157.05,36.13a40.827,40.827,0,0,1-4.6,2.83,16.662,16.662,0,0,0,5.83,2.15,13.018,13.018,0,0,0-1.88,2.67c-5.65-1.3-9-4.27-11.05-9h-2.87v5.3c1.75-.25,3.6-.52,5.4-.8l.12,2.63c-3.82.62-7.94,1.25-11,1.7l-.67-2.73c.9-.1,1.92-.25,3-.37V34.78H135.2V32.16h4.15V21.26H155.2v2.43H142.48V25h12v2.3h-12v1.25h12v2.3h-12v1.3H157.8v2.62h-2.67Zm-8.6-1.35a11.517,11.517,0,0,0,2,2.6,34.485,34.485,0,0,0,3.82-2.6Z" fill="#fff"/>
  <circle id="楕円形_11" data-name="楕円形 11" cx="26" cy="26" r="26" transform="translate(32.53 7.5)" fill="#fff"/>
  <path id="パス_255" data-name="パス 255" d="M51,26.61s-1.39-.49-1.49,1.49c0,1,.5,3.4,2.44,3.67,0,1,1.21,2.93,2.26,4.14.32,1.23.46,1.74.23,2.41" fill="none" stroke="#ff688b" stroke-miterlimit="10" stroke-width="1"/>
  <path id="パス_256" data-name="パス 256" d="M51.94,40.59c-1.8.5-3.8,2-5.63,2.41a4,4,0,0,0-.84.23,2.74,2.74,0,0,0-1.13,1.9c-.19.77-1.23,5.21-.9,6.34" fill="none" stroke="#ff688b" stroke-miterlimit="10" stroke-width="1"/>
  <path id="パス_257" data-name="パス 257" d="M63.77,14.67c.53.37,1.07.8,1.67,1.27,2.08,1.64,3.26,3.77,3.39,7.39" fill="none" stroke="#ff688b" stroke-miterlimit="10" stroke-width="1"/>
  <path id="パス_258" data-name="パス 258" d="M53.06,16.34c.66-1.45,2.83-3,6.51-3a7.356,7.356,0,0,1,1.92.23" fill="none" stroke="#ff688b" stroke-miterlimit="10" stroke-width="1"/>
  <path id="パス_259" data-name="パス 259" d="M52.2,16.61a1.836,1.836,0,0,0-.92-.31c-.6,0-1,.6-1.28,1.14a9.779,9.779,0,0,0,.23,9" fill="none" stroke="#ff688b" stroke-miterlimit="10" stroke-width="1"/>
  <path id="パス_260" data-name="パス 260" d="M54.66,18.25a11.675,11.675,0,0,1,7.6,2.21c.76.46,6,3.75,6.05,4.65" fill="none" stroke="#ff688b" stroke-miterlimit="10" stroke-width="1"/>
  <path id="パス_261" data-name="パス 261" d="M57,43.94c.34-1.11.84-.9,1.32-2l.17-.33a51.769,51.769,0,0,1-4.36-3.54l-.67,1.71" fill="none" stroke="#ff688b" stroke-linejoin="round" stroke-width="1"/>
  <path id="パス_262" data-name="パス 262" d="M59.36,52.5c1.63-1.34,2.47-3.43,4.46-4.13-.31-1.09-.61-2.17-.91-3.26a.638.638,0,0,1,0-.54.648.648,0,0,1,.3-.18c.47-.18,1.44-.6,1.9-.78,0-1.27.25-2.56,0-3-.06-.12-1-1.51-1-1.51A86.822,86.822,0,0,1,58.68,49h-.3a86.691,86.691,0,0,1-5.48-9.9l-1,1.51c-.24.46,0,1.75,0,3,.47.18,1.44.6,1.9.78a.648.648,0,0,1,.3.18.63.63,0,0,1,0,.54c-.31,1.09-.61,2.17-.91,3.26,2,.7,2.83,2.79,4.45,4.13" fill="none" stroke="#ff688b" stroke-linejoin="round" stroke-width="1"/>
  <path id="パス_263" data-name="パス 263" d="M71.59,43.23a2.707,2.707,0,0,1,1.13,1.9c.2.77,1.23,5.21.91,6.34" fill="none" stroke="#ff688b" stroke-miterlimit="10" stroke-width="1"/>
  <path id="パス_264" data-name="パス 264" d="M65.12,40.59a36.952,36.952,0,0,1,4.21,1.92" fill="none" stroke="#ff688b" stroke-miterlimit="10" stroke-width="1"/>
  <path id="パス_265" data-name="パス 265" d="M60.1,44c-.34-1.11-.84-1-1.31-2.06l-.17-.33A49.4,49.4,0,0,0,63,38.11l.66,1.71" fill="none" stroke="#ff688b" stroke-linejoin="round" stroke-width="1"/>
  <path id="パス_266" data-name="パス 266" d="M66.33,26.61s1.39-.49,1.48,1.49c0,1-.49,3.4-2.43,3.67,0,1-1.21,2.93-2.26,4.14-.32,1.23-.47,1.74-.24,2.41" fill="none" stroke="#ff688b" stroke-miterlimit="10" stroke-width="1"/>
  <path id="パス_267" data-name="パス 267" d="M67.56,24.16a6.817,6.817,0,0,1-.4,2.11" fill="none" stroke="#ff688b" stroke-miterlimit="10" stroke-width="1"/>
  <path id="パス_268" data-name="パス 268" d="M52.64,19.25a4.669,4.669,0,0,0-1,3.36,1.43,1.43,0,0,0,.06.5,3.209,3.209,0,0,1-.18,1.37c-.21.59.19,1.17.28,1.79" fill="none" stroke="#ff688b" stroke-miterlimit="10" stroke-width="1"/>
  <path id="パス_269" data-name="パス 269" d="M65.72,22.76c.48.59.35,2.15.44,2.9" fill="none" stroke="#ff688b" stroke-miterlimit="10" stroke-width="1"/>
  <path id="パス_270" data-name="パス 270" d="M59.82,47.33l-1.29,1.65-1.29-1.65V42.51h2.58Z" fill="#ff688b"/>
  <path id="パス_271" data-name="パス 271" d="M0,0H350V65H0Z" transform="translate(0.5 100.5)" stroke="#fff" stroke-miterlimit="10" stroke-width="1" fill="url(#linear-gradient-2)"/>
  <path id="パス_272" data-name="パス 272" d="M131.65,124c-.52,5.45-1.72,9.74-3.6,13.09a13.709,13.709,0,0,0,4.53,4,10.781,10.781,0,0,0-2.05,2.45,15.763,15.763,0,0,1-4.3-3.82,17.09,17.09,0,0,1-4.45,3.82,12.087,12.087,0,0,0-1.65-2.17v2.35h-2.87v-4c-2.88.5-5.8,1-8.1,1.3l-.58-3,2.3-.25V124.56h-1.7v-2.75h12.55v1.78h7.47l.5-.08Zm-17.94.57v2.38h3.55v-2.38Zm0,7.55h3.55v-2.5h-3.55Zm0,5.37,3.55-.47v-2.25h-3.55Zm6.42,3.53a13.556,13.556,0,0,0,4.32-4,35.352,35.352,0,0,1-3.37-9.89l2.85-.58a30.047,30.047,0,0,0,2.3,7.4,28.745,28.745,0,0,0,2.15-7.45H121v-2h-.87Z" fill="#fff"/>
  <path id="パス_273" data-name="パス 273" d="M137,135.41a22.237,22.237,0,0,1-1.5,6.42,13.347,13.347,0,0,0-2.08-1,18.034,18.034,0,0,0,1.28-5.8Zm20.07-8.07V132H154.3v-2.29h-8.8V132H143a15.017,15.017,0,0,1,.47,1.83l-2.07.9c-.08-.43-.18-.9-.33-1.43l-1.27.1v10.33h-2.5v-10.1l-3.3.25-.3-2.57c.6,0,1.25-.08,2-.1.33-.45.68-1,1-1.45a20.722,20.722,0,0,0-2.9-3.62l1.43-1.93c.2.18.4.38.6.58a31.37,31.37,0,0,0,1.8-4.35l2.52.87c-.9,1.73-1.92,3.7-2.8,5.1a11.118,11.118,0,0,1,.8,1c.83-1.4,1.58-2.85,2.15-4.08l2.35,1.08c-.92,1.52-2,3.2-3.1,4.77l2-.8A22.944,22.944,0,0,1,143,131.8v-4.49h3a14.049,14.049,0,0,0-.75-2.38h-2.07v-2.48h5.32v-2h3v2h5.32v2.48h-1.77l-1.1,2.4Zm-16.85,3.6a14.318,14.318,0,0,0-.75-1.73c-.45.65-.87,1.28-1.32,1.85Zm1.6,4a17.27,17.27,0,0,1,1.27,4.5l-2.07.68a18.211,18.211,0,0,0-1.15-4.6ZM156,138.68c0,1.13-.15,1.85-.87,2.28a5.092,5.092,0,0,1-2.8.47,9.077,9.077,0,0,0-.73-2.52h1.53c.23,0,.3-.08.3-.28v-3.8h-2.15v8.93H148.6v-8.93h-1.9v6.7h-2.59v-9.09h4.49v-2.05h2.68v2.05H156Zm-8-13.74a14.9,14.9,0,0,1,.75,2.4H151c.3-.73.63-1.63.88-2.4Z" fill="#fff"/>
  <path id="パス_274" data-name="パス 274" d="M167.48,126.76a29.047,29.047,0,0,1-2.3,3.23v13.74h-2.87v-10.6a24.744,24.744,0,0,1-2.2,1.93,18.338,18.338,0,0,0-1.58-2.85,22.991,22.991,0,0,0,6.3-6.55Zm-.62-5.2a26.1,26.1,0,0,1-6.6,6.33,19.511,19.511,0,0,0-1.48-2.5,18.787,18.787,0,0,0,5.28-5Zm13.84,10.38a16.5,16.5,0,0,1-4.3,7.07,18.434,18.434,0,0,0,6.08,2.17,11.916,11.916,0,0,0-1.9,2.65A18,18,0,0,1,174,141a23.115,23.115,0,0,1-6.27,2.87,11.46,11.46,0,0,0-1.63-2.5,19.039,19.039,0,0,0,5.65-2.37,16.725,16.725,0,0,1-3-4.45l2.22-.68h-3.52V131.2h10.64l.55-.12Zm-8.65-8c0,2.3-.45,5.2-2.9,7.05a13.374,13.374,0,0,0-2.44-1.68,6.092,6.092,0,0,0,2.52-5.45v-2.57h9.05v5.42a1.839,1.839,0,0,0,.07.78.522.522,0,0,0,.35.1h.53a.8.8,0,0,0,.37-.08c.1-.05.2-.2.25-.55s.08-1.15.1-2.07a8.311,8.311,0,0,0,2.23,1.17,10.807,10.807,0,0,1-.38,2.7,1.811,1.811,0,0,1-1,1.08,3.614,3.614,0,0,1-1.5.3h-1.5a2.72,2.72,0,0,1-1.87-.65c-.48-.48-.7-1-.7-2.68v-2.92H172Zm-.55,9.89a12.011,12.011,0,0,0,2.53,3.4,13.1,13.1,0,0,0,2.62-3.4Z" fill="#fff"/>
  <circle id="楕円形_12" data-name="楕円形 12" cx="26" cy="26" r="26" transform="translate(33.53 107.5)" fill="#fff"/>
  <path id="パス_275" data-name="パス 275" d="M52,127.49S50.56,127,50.46,129c0,1,.5,3.4,2.44,3.67,0,1,1.21,2.93,2.26,4.14a3.91,3.91,0,0,1,.23,2.41" fill="none" stroke="#ff688b" stroke-miterlimit="10" stroke-width="1"/>
  <path id="パス_276" data-name="パス 276" d="M52.94,141.47c-1.8.5-3.8,2-5.63,2.41a3.486,3.486,0,0,0-.84.23,2.72,2.72,0,0,0-1.13,1.9c-.19.77-1.23,5.21-.9,6.34" fill="none" stroke="#ff688b" stroke-miterlimit="10" stroke-width="1"/>
  <path id="パス_277" data-name="パス 277" d="M65.38,116.13c-.67-1.45-5.2-3.75-10.23-1.36-6.36,3-5.24,8.79-4.33,13" fill="none" stroke="#ff688b" stroke-miterlimit="10" stroke-width="1"/>
  <path id="パス_278" data-name="パス 278" d="M69,120.38c.29,2.08.31,5-.74,6.79" fill="none" stroke="#ff688b" stroke-miterlimit="10" stroke-width="1"/>
  <path id="パス_279" data-name="パス 279" d="M66.23,116.63a3.251,3.251,0,0,1,1.9,1.58" fill="none" stroke="#ff688b" stroke-miterlimit="10" stroke-width="1"/>
  <path id="パス_280" data-name="パス 280" d="M58,144.82c.34-1.11.84-.9,1.32-2l.17-.33a51.769,51.769,0,0,1-4.36-3.54l-.67,1.71" fill="none" stroke="#ff688b" stroke-linejoin="round" stroke-width="1"/>
  <path id="パス_281" data-name="パス 281" d="M60.36,153.38C62,152,62.83,150,64.82,149.25c-.31-1.09-.61-2.17-.91-3.26a.638.638,0,0,1,0-.54.671.671,0,0,1,.3-.19c.47-.17,1.44-.59,1.9-.77,0-1.27.25-2.57,0-3-.06-.12-1-1.51-1-1.51a86.7,86.7,0,0,1-5.48,9.9h-.3A86.775,86.775,0,0,1,53.9,140l-1,1.51c-.24.45,0,1.75,0,3,.47.18,1.44.6,1.9.77a.671.671,0,0,1,.3.19.63.63,0,0,1,0,.54c-.31,1.09-.61,2.17-.91,3.26,2,.7,2.83,2.79,4.45,4.13" fill="none" stroke="#ff688b" stroke-linejoin="round" stroke-width="1"/>
  <path id="パス_282" data-name="パス 282" d="M72.59,144.11a2.688,2.688,0,0,1,1.13,1.9c.2.77,1.23,5.21.91,6.34" fill="none" stroke="#ff688b" stroke-miterlimit="10" stroke-width="1"/>
  <path id="パス_283" data-name="パス 283" d="M66.12,141.47a35.161,35.161,0,0,1,4.21,1.92" fill="none" stroke="#ff688b" stroke-miterlimit="10" stroke-width="1"/>
  <path id="パス_284" data-name="パス 284" d="M61.1,144.92c-.34-1.11-.84-1-1.31-2.06l-.17-.33Q61.89,140.861,64,139l.66,1.71" fill="none" stroke="#ff688b" stroke-linejoin="round" stroke-width="1"/>
  <path id="パス_285" data-name="パス 285" d="M67.33,127.49s1.39-.49,1.48,1.49c0,1-.49,3.4-2.43,3.67,0,1-1.21,2.93-2.26,4.14-.32,1.22-.47,1.73-.24,2.41" fill="none" stroke="#ff688b" stroke-miterlimit="10" stroke-width="1"/>
  <path id="パス_286" data-name="パス 286" d="M60.82,148.21l-1.29,1.65-1.29-1.65v-4.82h2.58Z" fill="#ff688b"/>
  <path id="パス_287" data-name="パス 287" d="M62.39,119.82a5.438,5.438,0,0,1-3.32,2.5c-.93.24-1.89.34-2.79.66-1.86.65-4.33,3-4.83,4.51" fill="none" stroke="#ff688b" stroke-miterlimit="10" stroke-width="1"/>
  <path id="パス_288" data-name="パス 288" d="M63.58,121.56a6.793,6.793,0,0,0,1.07,2.55c.34.42.77.75,1.12,1.16a4,4,0,0,1,.9,1.88" fill="none" stroke="#ff688b" stroke-miterlimit="10" stroke-width="1"/>
  <path id="パス_289" data-name="パス 289" d="M55.5,232.08H27.29" fill="none" stroke="#2e3d83" stroke-miterlimit="10" stroke-width="0.9"/>
  <path id="パス_290" data-name="パス 290" d="M56.5,699.08h-28" fill="none" stroke="#2e3d83" stroke-miterlimit="10" stroke-width="0.9"/>
  <path id="パス_291" data-name="パス 291" d="M56.5,804.08h-28" fill="none" stroke="#2e3d83" stroke-miterlimit="10" stroke-width="0.9"/>
  <path id="パス_292" data-name="パス 292" d="M56.5,1006.08h-28" fill="none" stroke="#2e3d83" stroke-miterlimit="10" stroke-width="0.9"/>
  <path id="パス_293" data-name="パス 293" d="M56.5,1205.08h-28" fill="none" stroke="#2e3d83" stroke-miterlimit="10" stroke-width="0.9"/>
  <path id="パス_294" data-name="パス 294" d="M56.5,1589.08h-28" fill="none" stroke="#2e3d83" stroke-miterlimit="10" stroke-width="0.9"/>
  <path id="パス_295" data-name="パス 295" d="M56.5,1777.08h-28" fill="none" stroke="#2e3d83" stroke-miterlimit="10" stroke-width="0.9"/>
  <path id="パス_296" data-name="パス 296" d="M56.5,1964.68h-28" fill="none" stroke="#2e3d83" stroke-miterlimit="10" stroke-width="0.9"/>
  <path id="パス_297" data-name="パス 297" d="M0,0H295V64.5H0Z" transform="translate(55.5 199.83)" opacity="0.8" fill="url(#linear-gradient-3)"/>
  <path id="パス_298" data-name="パス 298" d="M171.6,232.47c-.17.35-.37.67-.57,1h11.69V245.9h-3V245h-9v.9h-2.85v-8.23a19.091,19.091,0,0,1-3.85,3,17.3,17.3,0,0,0-1.88-2.4,16.653,16.653,0,0,0,6.1-5.82h-5.32V230.1h6.57c.18-.35.33-.72.48-1.07h-5.3V226.8h6.1c.1-.35.2-.7.27-1.08-2.07.08-4.15.1-6.1.08a7.533,7.533,0,0,0-.55-2.23,126.374,126.374,0,0,0,17.52-1l1.75,2.13a85.5,85.5,0,0,1-9.34.9c-.1.4-.23.8-.35,1.2h9.79v2.25H173.13c-.13.35-.28.72-.43,1.07h12.37v2.35Zm8.12,3.27h-9v1.08h9Zm0,2.93h-9v1.1h9Zm0,4.1v-1.15h-9v1.15Z" fill="#fff"/>
  <path id="パス_299" data-name="パス 299" d="M195.55,229H187.3v-2.35h8.25Zm-.65,15.52h-4.35v1h-2.3V237h6.65ZM197.43,232c-.25.27-.48.52-.73.75a17.327,17.327,0,0,0-1.75-1.45v1.1h-6.62v-2.3H195v1a12.282,12.282,0,0,0,3.2-4.63l.83.23v-.83H195.9v-2.12H199V222.5h2.65v1.25h2.92V222.5h2.65v1.25h3.1v2.12h-3.1v1.2h-1.28c-.22.43-.45.85-.67,1.23h4.4v1.82h-4.53v.75h4v1.47h-4v.75h4v1.5h-4v.75h5.1v1.88H197.43Zm-9.1,1.55H195v2.22h-6.62Zm6.55-8h-6.4V223.3h6.4Zm-4.33,13.77v2.88h2v-2.88Zm19.15-.57a10.777,10.777,0,0,1-3.7,3.92,29,29,0,0,0,4.77.85,9.463,9.463,0,0,0-1.67,2.33,24.084,24.084,0,0,1-6.15-1.63,30.914,30.914,0,0,1-6.77,1.7A9.119,9.119,0,0,0,195,243.7a30.381,30.381,0,0,0,5.2-.95,12.083,12.083,0,0,1-2.3-2l1.73-.65H196.2v-2.13h11.42l.38-.1Zm-9.32-11.65h.1c-.18.4-.35.8-.55,1.2h2.69a11.559,11.559,0,0,0,.63-1.7l1.3.2v-.93h-2.92v1.2Zm2.17,3.05H200v.75h2.52Zm0,2.22H200v.75h2.52Zm0,2.25H200v.75h2.52Zm-2,5.48a10.13,10.13,0,0,0,2.55,1.57,11.059,11.059,0,0,0,2.45-1.57Z" fill="#fff"/>
  <circle id="楕円形_13" data-name="楕円形 13" cx="26" cy="26" r="26" transform="translate(88.79 206.83)" fill="#fff"/>
  <path id="パス_300" data-name="パス 300" d="M106.68,241.34a40.716,40.716,0,0,1,8-.82h.12c5.53-.21,16.06,2.59,16.06,2.59s2.48-9.45,1-12.66c-2.08-4.64-6.67-8-17.1-8h-.12c-10.43,0-15,3.37-17.09,8-1.44,3.21,1,12.66,1,12.66s1.91-.51,4.54-1.08" fill="none" stroke="#ff7bac" stroke-miterlimit="10" stroke-width="1"/>
  <path id="パス_301" data-name="パス 301" d="M112.77,234.06a.52.52,0,0,1,.52.52v1.55a.52.52,0,0,0,.52.52h1.56a.52.52,0,0,0,.53-.51v-1.56a.52.52,0,0,1,.52-.52H118a.51.51,0,0,0,.52-.5V232a.52.52,0,0,0-.52-.52h-1.56a.52.52,0,0,1-.52-.52v-1.55a.53.53,0,0,0-.53-.52h-1.56a.52.52,0,0,0-.52.52V231a.52.52,0,0,1-.52.52H111.2a.52.52,0,0,0-.52.52v1.55a.51.51,0,0,0,.51.51h.36" fill="none" stroke="#ff7bac" stroke-miterlimit="10" stroke-width="1"/>
  <path id="パス_302" data-name="パス 302" d="M0,0H295.09V64.5H0Z" transform="translate(55.41 973.33)" opacity="0.6" fill="url(#linear-gradient-4)"/>
  <path id="パス_303" data-name="パス 303" d="M176,1002.82c-1.29,3.42-4.61,5.65-10.17,6.75a8.44,8.44,0,0,0-1.42-2,23.006,23.006,0,0,0,4.52-1.2,18.235,18.235,0,0,0-1.83-1.25c-.48.23-1,.45-1.44.65a17.111,17.111,0,0,0-1.73-1.8,15.335,15.335,0,0,0,5-2.49h-4v-2.25h21.5v2.25h-7.3V1003a25.836,25.836,0,0,0,4.66-1.27l2,1.63a37.731,37.731,0,0,1-6.69,1.57v.57c0,.68.2.8,1.22.8h3.24c.79,0,.94-.25,1.07-1.62a7.661,7.661,0,0,0,2.35.87c-.27,2.35-1,3-3.14,3H180c-2.92,0-3.61-.72-3.61-3v-4H172c-.23.25-.46.5-.69.72h2.54l.46-.07Zm11.11,10H181.3v4.5h-3.07v-4.5H172.7c-.48,1.92-2,3.65-6.64,4.57a10.415,10.415,0,0,0-1.75-2.2c3.19-.55,4.64-1.42,5.3-2.37H164v-2.5h6.06v-1.68h2.81v1.68h5.33v-1.68h3.07v1.68h5.78Zm-17.27-15.25h-5.5v-2.35h5.5V994h3v1.27h5.43V994h3v1.27h5.68v2.35h-5.68v1.3h-3v-1.3H172.8v1.3h-3Zm-.63,6.32-.26.15a17.858,17.858,0,0,1,2,1.3,7.4,7.4,0,0,0,1.68-1.45Z" fill="#fff"/>
  <path id="パス_304" data-name="パス 304" d="M196.8,994.87a39.7,39.7,0,0,1-2.34,5.05v17.4h-2.84v-13a19.439,19.439,0,0,1-1.47,1.72,23.179,23.179,0,0,0-1.49-2.92,26.182,26.182,0,0,0,5.47-9.07Zm15.2,16.05a15.154,15.154,0,0,1-2.84,3c.41.65.86,1,1.35,1s.55-.45.66-1.7a5,5,0,0,0,1.87,1.1c-.35,2.43-1.06,3-2.74,3.05a3.812,3.812,0,0,1-3.17-2,22.833,22.833,0,0,1-2.94,1.6,13.8,13.8,0,0,0-1.67-1.88,20.733,20.733,0,0,0,3.6-1.77,17.913,17.913,0,0,1-.86-3.35h-3.6v1l2.68-.25.05,2-2.73.3v1.73c0,1.17-.23,1.7-1,2.05a9.109,9.109,0,0,1-3.4.35,7.131,7.131,0,0,0-.71-2.13h2.11c.28,0,.4-.1.4-.38v-1.37l-3.65.37-.2-2.17c1.09-.08,2.41-.2,3.85-.33V1010h-3.67v-2h3.67v-1.1c-1,.1-2.05.17-3,.2a7.8,7.8,0,0,0-.61-1.73,40.687,40.687,0,0,0,7.26-1.05l1.49,1.73c-.76.2-1.62.37-2.53.52V1008H205c-.1-1.08-.2-2.2-.23-3.38h2.64c0,1.18.08,2.33.18,3.38h2.79a14.793,14.793,0,0,0-2.72-2.35l1.78-1.28a20.17,20.17,0,0,1,2.84,2.28l-1.85,1.35h2.43v2h-5c.13.62.26,1.2.41,1.75a11,11,0,0,0,1.45-1.63Zm-12.5-14.57a14.018,14.018,0,0,0-1-1.55l2.38-.83a10.762,10.762,0,0,1,1.63,2.38h3.19a16.573,16.573,0,0,0,1.27-2.4l2.94.77c-.43.6-.86,1.15-1.27,1.63h3.3v1.92h-6.47v.93h5.63v1.87h-5.63v1h7.18v2h-17v-2h6.9v-1H197.2V999.2h5.35v-.93h-6.19v-1.92Z" fill="#fff"/>
  <ellipse id="楕円形_14" data-name="楕円形 14" cx="26.38" cy="26" rx="26.38" ry="26" transform="translate(88.37 981.58)" fill="#fff"/>
  <path id="パス_305" data-name="パス 305" d="M104.35,1017.1a16,16,0,0,1-8.5-12,7,7,0,0,1,6.1,1.52m6.91-6.44a8.174,8.174,0,0,0-4.19-2.1,1.42,1.42,0,0,0-1.61,1.15c-.91,4.8,1.39,11.6,5.27,15.11m10,1.53c2.8-3.3,3.56-13.4-.9-18.51a9.911,9.911,0,0,0-1.6-1.63,1.681,1.681,0,0,0-2.06,0,9.975,9.975,0,0,0-1.61,1.63c-4.45,5.11-3.7,15.21-.89,18.51m10-1.53c3.88-3.51,6.18-10.31,5.27-15.11a1.429,1.429,0,0,0-1.61-1.15,8.174,8.174,0,0,0-4.19,2.1M109.16,1019a22.133,22.133,0,0,0,5.59.78c5.35,0,17-2.81,18.89-14.71a7,7,0,0,0-6.09,1.52" fill="none" stroke="#7d5fa6" stroke-linejoin="round" stroke-width="1"/>
  <path id="パス_306" data-name="パス 306" d="M0,0H295V64.5H0Z" transform="translate(55.5 774.33)" opacity="0.8" fill="url(#linear-gradient-5)"/>
  <path id="パス_307" data-name="パス 307" d="M186.35,803.87a29.538,29.538,0,0,1-4.15,5v5.83c0,1.7-.33,2.6-1.43,3.07a13.4,13.4,0,0,1-5.09.55,12.875,12.875,0,0,0-1.05-3.12,27.438,27.438,0,0,0,3.82,0c.5-.07.67-.15.67-.58v-3.2a43.244,43.244,0,0,1-13.67,6.65,24.037,24.037,0,0,0-2-2.72,42.059,42.059,0,0,0,10.48-4.1c-3.6.3-7,.57-9.73.75l-.4-3,3.68-.15v-11.6h5.17a20.581,20.581,0,0,0,.8-2.42l3.65.35c-.35.72-.75,1.42-1.12,2.07h6.22v6.92a21.74,21.74,0,0,0,1.27-1.82Zm-15.9-3.95v1.45h8.67v-1.45Zm8.67,3.58h-8.67V805h8.67Zm-8.67,5.32,7.75-.43c.32-.25.63-.52.92-.77v-.45h-8.67Z" fill="#fff"/>
  <path id="パス_308" data-name="パス 308" d="M207.77,815.14c.83,0,1-.65,1.1-4.25a8.261,8.261,0,0,0,2.75,1.25c-.3,4.48-1.05,5.78-3.6,5.78h-3c-2.82,0-3.54-1-3.54-3.88v-7.65h-3.75c-.45,5.2-1.6,9.48-7.58,11.9a8.394,8.394,0,0,0-1.85-2.42c5.2-1.95,5.9-5.33,6.2-9.48h-5.65V803.5h22.3v2.89h-6.6V814c0,1,.15,1.1,1,1.1Zm1.08-15.52H191.1v-2.87h17.75Z" fill="#fff"/>
  <path id="パス_309" data-name="パス 309" d="M221.63,796a42.189,42.189,0,0,1-2.33,4.92v17.42h-2.82V805.27a28.481,28.481,0,0,1-1.9,2.22,20.159,20.159,0,0,0-1.6-3,26.433,26.433,0,0,0,5.9-9.35Zm9.84,13.67a19.015,19.015,0,0,0,5.73,5.45,12.189,12.189,0,0,0-2.1,2.37,20.586,20.586,0,0,1-5.08-5.55v6.45h-3V812a20.1,20.1,0,0,1-5.4,5.37,12.428,12.428,0,0,0-2-2.37,18,18,0,0,0,6-5.4H220.5v-2.7H227v-2.25h-4.9v-8.57h13.12v8.57H230v2.25h6.45v2.7Zm-6.52-7.57h7.32v-3.35H225Z" fill="#fff"/>
  <path id="パス_310" data-name="パス 310" d="M238.3,799.22h9.28v2.35H238.3Zm8.55,18.12H241.9v1h-2.5v-8.53h7.45Zm-.17-12.32h-7.2V802.8h7.2Zm-7.2,1.25h7.2v2.25h-7.2Zm7.2-8.25h-7.05v-2.25h7.05Zm-4.78,14.12V815h2.4v-2.85Zm19.8,2.55v2.78h-14v-2.78h1.53V802.85H252v11.84h1.9V799.1h-5.5v-2.83h12.87v2.83h-4.45V805h4.33v2.8h-4.33v6.9Z" fill="#fff"/>
  <circle id="楕円形_15" data-name="楕円形 15" cx="26" cy="26" r="26" transform="translate(90.04 780.58)" fill="#fff"/>
  <path id="パス_311" data-name="パス 311" d="M122.44,816.8h7a1.559,1.559,0,0,0,1.56-1.56V797.91a1.559,1.559,0,0,0-1.56-1.56H102.68a1.559,1.559,0,0,0-1.56,1.56v17.33a1.559,1.559,0,0,0,1.56,1.56h15.15" fill="none" stroke="#fbb03b" stroke-miterlimit="10" stroke-width="1"/>
  <path id="パス_312" data-name="パス 312" d="M108.83,808.2v-.26a1.287,1.287,0,0,0-.08-.42,5.774,5.774,0,0,1-1.1-2.8,2.38,2.38,0,1,1,4.71,0,5.746,5.746,0,0,1-1.11,2.82,1.351,1.351,0,0,0-.06.4v.26a.919.919,0,0,0,.54.84l1.77.72a1.317,1.317,0,0,1,.73.94l.08,1.07H105.7l.08-1.06a1.319,1.319,0,0,1,.73-1l1.78-.72a.942.942,0,0,0,.54-.79Z" fill="none" stroke="#fbb03b" stroke-miterlimit="10" stroke-width="1"/>
  <path id="パス_313" data-name="パス 313" d="M116.67,809.51h9.48v1.72h-9.48Z" fill="#fbb03b"/>
  <path id="パス_314" data-name="パス 314" d="M116.67,805.81h9.48v1.72h-9.48Z" fill="#fbb03b"/>
  <path id="パス_315" data-name="パス 315" d="M114.61,802.1h11.53v1.72H114.61Z" fill="#fbb03b"/>
  <path id="パス_316" data-name="パス 316" d="M0,0H293.21V64.5H0Z" transform="translate(56.29 1744.83)" opacity="0.7" fill="url(#linear-gradient-6)"/>
  <path id="パス_317" data-name="パス 317" d="M176.67,1789.22v-1.3H165.3c-1,0-2.4.07-3.22.15v-3.58c.87.08,2,.15,3.12.15h11.52V1774.3H165.5a28.653,28.653,0,0,0-3.1.1v-3.48c.93.1,2.23.15,3.1.15h12.57c.73,0,1.78,0,2.2-.05,0,.58-.07,1.58-.07,2.3v12.95c0,.87.05,2.2.1,2.95Z" fill="#fff"/>
  <path id="パス_318" data-name="パス 318" d="M196,1783a23.731,23.731,0,0,0,9.1-9.72l1.95,3.53a26.6,26.6,0,0,1-9.25,9.24,27,27,0,0,1-9.27,3.53l-2.1-3.3A25.718,25.718,0,0,0,196,1783Zm0-8.09-2.55,2.62a51.956,51.956,0,0,0-6.25-5.4l2.35-2.5A53.018,53.018,0,0,1,196,1775Z" fill="#fff"/>
  <path id="パス_319" data-name="パス 319" d="M229,1773.72a15.334,15.334,0,0,0,2.75-.17v3.32c-.55,0-1.42-.07-2.75-.07h-1.85v.82c0,6.2-1.5,10-7.52,12.62l-2.67-2.52c4.82-1.68,7-3.85,7-10v-.94H218v3.39c0,1.1.08,2.13.1,2.63h-3.5a19.269,19.269,0,0,0,.15-2.63v-3.39h-2.12a18.659,18.659,0,0,0-2.7.1v-3.4a17.185,17.185,0,0,0,2.7.22h2.12v-2.47a20.157,20.157,0,0,0-.15-2.25h3.55a15.98,15.98,0,0,0-.15,2.27v2.45h5.93v-2.62a17.464,17.464,0,0,0-.15-2.33h3.54a21.617,21.617,0,0,0-.15,2.33v2.62Z" fill="#fff"/>
  <path id="パス_320" data-name="パス 320" d="M234.48,1787.74a11.8,11.8,0,0,0,4.25-6c.7-2.15.72-6.87.72-9.9a9.116,9.116,0,0,0-.22-2.27h3.67a17.106,17.106,0,0,0-.17,2.25c0,3-.08,8.22-.75,10.74a14.468,14.468,0,0,1-4.45,7.18Zm11.57.38a9.664,9.664,0,0,0,.2-1.85V1771.7a10.549,10.549,0,0,0-.2-2.15h3.73a11.773,11.773,0,0,0-.18,2.17v13.07a15.808,15.808,0,0,0,6.17-5.27l1.93,2.75a27.586,27.586,0,0,1-8.47,6.82,6.3,6.3,0,0,0-1.1.75Z" fill="#fff"/>
  <path id="パス_321" data-name="パス 321" d="M274.88,1785.14a22.293,22.293,0,0,0,7.92,2.73,13.789,13.789,0,0,0-2,2.7,21.38,21.38,0,0,1-8.4-4.23v4.5h-2.92v-4.35a23.58,23.58,0,0,1-8.38,4.05,13.529,13.529,0,0,0-1.9-2.47,26.425,26.425,0,0,0,7.9-2.93h-7.17v-2.45h9.55v-1.1h-7.2v-2.15h7.2v-1.12H261V1776h4.75a11.53,11.53,0,0,0-.85-1.94l.3-.05H260v-2.43h3.35a22.421,22.421,0,0,0-1.55-3.1l2.55-.87a18.6,18.6,0,0,1,1.9,3.52l-1.22.45h2.27v-4.07h2.78v4.07h1.85v-4.07h2.8v4.07H277l-.9-.27a20.335,20.335,0,0,0,1.57-3.63l3.13.75c-.7,1.15-1.38,2.28-1.95,3.15h3.25V1774h-4.7c-.4.72-.8,1.4-1.18,2h4.9v2.33H272.4v1.12h7.5v2.15h-7.5v1.1h9.72v2.45Zm-6.8-11.14a12.7,12.7,0,0,1,.85,1.92l-.43.07h4.68c.3-.59.6-1.32.87-2Z" fill="#fff"/>
  <circle id="楕円形_16" data-name="楕円形 16" cx="26" cy="26" r="26" transform="translate(88.04 1751.96)" fill="#fff"/>
  <path id="パス_322" data-name="パス 322" d="M104.46,1765.66h-3.39a1.45,1.45,0,0,0-1.46,1.42v16.15l-3.15,3.85a.512.512,0,0,0-.13.35v1.7a1.15,1.15,0,0,0,1.17,1.13h33.09a1.16,1.16,0,0,0,1.17-1.13v-1.7a.56.56,0,0,0-.13-.35l-3.15-3.85v-16.15a1.45,1.45,0,0,0-1.47-1.42H106.69m-5,2h24.74v13.58H101.67Zm15.7,21.26h-6.66v-1.71h6.66Z" fill="none" stroke="#22b573" stroke-miterlimit="10" stroke-width="1"/>
  <path id="パス_323" data-name="パス 323" d="M105.47,1777.24h2.45v2.37h-2.45Z" fill="#22b573"/>
  <path id="パス_324" data-name="パス 324" d="M109.14,1774.87h2.45v4.75h-2.45Z" fill="#22b573"/>
  <path id="パス_325" data-name="パス 325" d="M112.82,1773.68h2.45v5.93h-2.45Z" fill="#22b573"/>
  <path id="パス_326" data-name="パス 326" d="M116.49,1770.12h2.45v9.49h-2.45Z" fill="#22b573"/>
  <path id="パス_327" data-name="パス 327" d="M120.17,1772.5h2.45v7.12h-2.45Z" fill="#22b573"/>
  <path id="パス_328" data-name="パス 328" d="M0,0H294.21V64.5H0Z" transform="translate(56.29 1556.33)" fill="url(#linear-gradient-7)"/>
  <path id="パス_329" data-name="パス 329" d="M179.55,1586.57c0,2.45,1,8.1,5.25,11.17a27.884,27.884,0,0,0-1.83,2.63c-3.12-2.2-4.54-6.48-4.87-8.65a14.092,14.092,0,0,1-5.6,8.65,17.729,17.729,0,0,0-1.67-2.43l-1.2.48c-.08-.35-.2-.78-.35-1.23-2.48.8-5,1.63-7.05,2.25l-.93-2.72,1.75-.4v-11.8c-.17.13-.32.28-.5.4a9.607,9.607,0,0,0-1.7-2.05,15.365,15.365,0,0,0,4.83-5.85h2.8a39.413,39.413,0,0,1,4.3,4.45l-2,1.93a29.725,29.725,0,0,0-3.3-3.93,21.059,21.059,0,0,1-3.42,4.2h2.17v-1.92h2.65v1.92h2.85v2.13a21.006,21.006,0,0,0,3-8.8l2.9.4a35.7,35.7,0,0,1-.85,3.95h5.47l.45-.1,2,.47a32.5,32.5,0,0,1-1.82,6.87l-2.35-.75a26.33,26.33,0,0,0,1-3.79h-1.85Zm-9.5,5.7a38.438,38.438,0,0,1,2,4.67,14.267,14.267,0,0,0,4.6-10.37v-2.52h-.85a16.459,16.459,0,0,1-2.27,4.22,18.549,18.549,0,0,0-1.83-1.28v5.2h-6v3.43l2.73-.73c-.25-.62-.53-1.22-.78-1.77Zm-4.35-6.55v1.2h3.38v-1.2Zm0,3.17v1.23h3.38v-1.23Z" fill="#fff"/>
  <path id="パス_330" data-name="パス 330" d="M208.25,1593.64a44.727,44.727,0,0,1-4.65,2.7,21.474,21.474,0,0,0,5.8,1.4,11.979,11.979,0,0,0-1.78,2.6c-5.44-.9-9-3.15-11.24-7.07H193.5v3.67l5.3-.45v2.63c-3.7.37-7.62.72-10.5,1l-.4-2.72c.78,0,1.65-.13,2.6-.2v-12.05a29.5,29.5,0,0,1-2.7,1.35,12.187,12.187,0,0,0-1.72-2.45c4.1-1.62,8.15-4.52,10.12-7.1h3a25,25,0,0,0,10.67,6.83,13.779,13.779,0,0,0-1.88,2.65c-.87-.38-1.77-.83-2.67-1.3v7.32c.27-.18.52-.38.75-.55Zm-5-9.79a26.149,26.149,0,0,1-5.37-4.33,25.111,25.111,0,0,1-5.2,4.33h3.72v-1.93h3v1.93Zm-9.75,3.59h8.85v-1.29H193.5Zm0,3.5h8.85v-1.37H193.5Zm5.88,2.33a8.947,8.947,0,0,0,1.8,1.72c.92-.5,2-1.1,2.92-1.72Z" fill="#fff"/>
  <path id="パス_331" data-name="パス 331" d="M226.88,1594.64a22.293,22.293,0,0,0,7.92,2.73,13.792,13.792,0,0,0-2,2.7,21.376,21.376,0,0,1-8.4-4.23v4.5h-2.92V1596a23.554,23.554,0,0,1-8.38,4.05,13.555,13.555,0,0,0-1.9-2.47,26.4,26.4,0,0,0,7.9-2.93h-7.17v-2.45h9.55v-1.1h-7.2v-2.15h7.2v-1.12H213v-2.33h4.75a11.529,11.529,0,0,0-.85-1.94l.3-.05H212v-2.43h3.35a22.429,22.429,0,0,0-1.55-3.1l2.55-.87a18.6,18.6,0,0,1,1.9,3.52l-1.22.45h2.27V1577h2.78v4.07h1.85V1577h2.8v4.07H229l-.9-.27a20.334,20.334,0,0,0,1.57-3.63l3.13.75c-.7,1.15-1.38,2.28-1.95,3.15h3.25v2.43h-4.7c-.4.72-.8,1.4-1.17,2h4.89v2.33H224.4v1.12h7.5v2.15h-7.5v1.1h9.72v2.45Zm-6.8-11.14a12.7,12.7,0,0,1,.85,1.92l-.43.07h4.68c.3-.59.6-1.32.87-2Z" fill="#fff"/>
  <circle id="楕円形_17" data-name="楕円形 17" cx="26" cy="26" r="26" transform="translate(89.04 1562.96)" fill="#fff"/>
  <path id="パス_332" data-name="パス 332" d="M102.63,1601.64l.71.75a.881.881,0,0,0,1.23.05l10-8.82-2-1.94-9.85,8.68a.891.891,0,0,0-.113,1.254Z" fill="none" stroke="#4fc2f1" stroke-miterlimit="10" stroke-width="1"/>
  <path id="パス_333" data-name="パス 333" d="M124.55,1576.46a6.829,6.829,0,0,0-3.34,1.74,6.76,6.76,0,0,0-2.06,4.8,4.519,4.519,0,0,1-1.19,3.52l-1.4,1.33,2,1.94,1.29-1.23a4.46,4.46,0,0,1,3.57-1,6.771,6.771,0,0,0,4.91-1.81c2.36-2.24,2.84-5.91.86-8a4.349,4.349,0,0,0-1.86-1.16" fill="none" stroke="#4fc2f1" stroke-miterlimit="10" stroke-width="1"/>
  <path id="パス_334" data-name="パス 334" d="M108.28,1576.91l-1.37-1.29a1.17,1.17,0,0,0-1.743,1.562,1.243,1.243,0,0,0,.123.118l4,3.83a.65.65,0,0,1,0,.91l-.12.12a.65.65,0,0,1-.91,0l-4-3.85a1.21,1.21,0,0,0-1.67,1.75l4.06,3.85a.661.661,0,0,1,0,.91l-.12.12a.649.649,0,0,1-.91,0l-4-3.83a1.171,1.171,0,1,0-1.6,1.71l3.85,3.65c2.13,2,3.17,2.06,4.64,1.85,1.18-.17,2-.46,3.37.8l13.83,13.26a.831.831,0,0,0,1.17,0l.8-.84a.829.829,0,0,0,0-1.17l-13.82-13.26c-1.34-1.27-1.09-2.14-1-3.33.13-1.48.06-2.51-2.09-4.54l-1.06-1" fill="none" stroke="#4fc2f1" stroke-miterlimit="10" stroke-width="1"/>
  <path id="パス_335" data-name="パス 335" d="M0,0H292.84V64.5H0Z" transform="translate(56.66 1171.83)" fill="url(#linear-gradient-8)"/>
  <path id="パス_336" data-name="パス 336" d="M171.73,1203.22l-1.83,2.8a64.707,64.707,0,0,0-5.7-3.58l1.8-2.74c1.7.9,4.45,2.62,5.73,3.52Zm2,5.7a25.4,25.4,0,0,0,9.72-9.37l1.92,3.39a30,30,0,0,1-9.92,9,31.311,31.311,0,0,1-8.35,3.08l-1.87-3.28A26.679,26.679,0,0,0,173.73,1208.92Zm1.82-11.35-1.85,2.75c-1.4-1-4-2.65-5.65-3.57l1.8-2.75C171.5,1194.9,174.25,1196.67,175.55,1197.57Zm7.45.78-2.17.92a22.228,22.228,0,0,0-2.21-3.92l2.08-.88a39.443,39.443,0,0,1,2.3,3.88Zm3.5-1.35-2.13,1a23.415,23.415,0,0,0-2.35-3.8l2.13-.88a32.9,32.9,0,0,1,2.35,3.68Z" fill="none" stroke="#f0d200" stroke-linecap="round" stroke-linejoin="round" stroke-width="3"/>
  <path id="パス_337" data-name="パス 337" d="M207.92,1214.79c-.32-.85-.72-1.87-1.17-3-4.07.48-11.65,1.28-14.8,1.6l-2.35.3-.57-3.65h3.42c1.45-3.7,3.6-10.54,4.33-13.14a18.629,18.629,0,0,0,.6-2.88l4,.8a27.448,27.448,0,0,0-1.07,2.78c-.8,2.45-2.83,8.79-4.08,12.14,3.05-.3,6.6-.7,9.13-1a30.072,30.072,0,0,0-2.63-4.57l3.13-1.28a77.41,77.41,0,0,1,5.47,10.4Z" fill="none" stroke="#f0d200" stroke-linecap="round" stroke-linejoin="round" stroke-width="3"/>
  <path id="パス_338" data-name="パス 338" d="M225,1201a3.2,3.2,0,1,1-3.2,3.2,3.2,3.2,0,0,1,3.2-3.2Z" fill="none" stroke="#f0d200" stroke-linecap="round" stroke-linejoin="round" stroke-width="3"/>
  <path id="パス_339" data-name="パス 339" d="M258,1198a16.5,16.5,0,0,0,2.6-.18v3.42c-.93-.09-2-.09-2.6-.09h-3.5c-.45,6.64-3,11.09-7.57,13.94l-3.38-2.25a9.251,9.251,0,0,0,2.38-1.4c2.62-2,4.7-5.07,5.1-10.29H245.7a20.518,20.518,0,0,1-4,5.24l-3.15-1.9a19.188,19.188,0,0,0,4.32-5.14,15.768,15.768,0,0,0,1.45-3.4,9.727,9.727,0,0,0,.53-2.58l3.85.78c-.28.62-.6,1.5-.8,2s-.43,1.18-.7,1.83Z" fill="none" stroke="#f0d200" stroke-linecap="round" stroke-linejoin="round" stroke-width="3"/>
  <path id="パス_340" data-name="パス 340" d="M286.35,1196.75a11.571,11.571,0,0,0-1,1.3,25.089,25.089,0,0,1-6,6.84l-2.57-2.07a14.872,14.872,0,0,0,4.6-4.65h-13c-1.05,0-1.87.08-3.05.18v-3.48a19.848,19.848,0,0,0,3.05.25h13.47a12.484,12.484,0,0,0,2.53-.22Zm-10.2,3.37c0,6.2-.12,11.3-6.95,15l-2.9-2.38a9.984,9.984,0,0,0,2.63-1.37c3.17-2.2,3.77-4.85,3.77-9a14.489,14.489,0,0,0-.17-2.25Z" fill="none" stroke="#f0d200" stroke-linecap="round" stroke-linejoin="round" stroke-width="3"/>
  <path id="パス_341" data-name="パス 341" d="M171.73,1203.22l-1.83,2.8a64.707,64.707,0,0,0-5.7-3.58l1.8-2.74c1.7.9,4.45,2.62,5.73,3.52Zm2,5.7a25.4,25.4,0,0,0,9.72-9.37l1.92,3.39a30,30,0,0,1-9.92,9,31.311,31.311,0,0,1-8.35,3.08l-1.87-3.28A26.679,26.679,0,0,0,173.73,1208.92Zm1.82-11.35-1.85,2.75c-1.4-1-4-2.65-5.65-3.57l1.8-2.75C171.5,1194.9,174.25,1196.67,175.55,1197.57Zm7.45.78-2.17.92a22.228,22.228,0,0,0-2.21-3.92l2.08-.88a39.443,39.443,0,0,1,2.3,3.88Zm3.5-1.35-2.13,1a23.415,23.415,0,0,0-2.35-3.8l2.13-.88a32.9,32.9,0,0,1,2.35,3.68Z" fill="#fff"/>
  <path id="パス_342" data-name="パス 342" d="M207.92,1214.79c-.32-.85-.72-1.87-1.17-3-4.07.48-11.65,1.28-14.8,1.6l-2.35.3-.57-3.65h3.42c1.45-3.7,3.6-10.54,4.33-13.14a18.629,18.629,0,0,0,.6-2.88l4,.8a27.448,27.448,0,0,0-1.07,2.78c-.8,2.45-2.83,8.79-4.08,12.14,3.05-.3,6.6-.7,9.13-1a30.072,30.072,0,0,0-2.63-4.57l3.13-1.28a77.41,77.41,0,0,1,5.47,10.4Z" fill="#fff"/>
  <path id="パス_343" data-name="パス 343" d="M225,1201a3.2,3.2,0,1,1-3.2,3.2,3.2,3.2,0,0,1,3.2-3.2Z" fill="#fff"/>
  <path id="パス_344" data-name="パス 344" d="M258,1198a16.5,16.5,0,0,0,2.6-.18v3.42c-.93-.09-2-.09-2.6-.09h-3.5c-.45,6.64-3,11.09-7.57,13.94l-3.38-2.25a9.251,9.251,0,0,0,2.38-1.4c2.62-2,4.7-5.07,5.1-10.29H245.7a20.518,20.518,0,0,1-4,5.24l-3.15-1.9a19.188,19.188,0,0,0,4.32-5.14,15.768,15.768,0,0,0,1.45-3.4,9.727,9.727,0,0,0,.53-2.58l3.85.78c-.28.62-.6,1.5-.8,2s-.43,1.18-.7,1.83Z" fill="#fff"/>
  <path id="パス_345" data-name="パス 345" d="M286.35,1196.75a11.571,11.571,0,0,0-1,1.3,25.089,25.089,0,0,1-6,6.84l-2.57-2.07a14.872,14.872,0,0,0,4.6-4.65h-13c-1.05,0-1.87.08-3.05.18v-3.48a19.848,19.848,0,0,0,3.05.25h13.47a12.484,12.484,0,0,0,2.53-.22Zm-10.2,3.37c0,6.2-.12,11.3-6.95,15l-2.9-2.38a9.984,9.984,0,0,0,2.63-1.37c3.17-2.2,3.77-4.85,3.77-9a14.489,14.489,0,0,0-.17-2.25Z" fill="#fff"/>
  <circle id="楕円形_18" data-name="楕円形 18" cx="26" cy="26" r="26" transform="translate(89.04 1177.96)" fill="#fff"/>
  <path id="パス_346" data-name="パス 346" d="M109.82,1201.71h-.01v4.5h10.47v-4.5Z" fill="none" stroke="#edca34" stroke-miterlimit="10" stroke-width="1"/>
  <path id="パス_347" data-name="パス 347" d="M106.34,1194.57h-3.1c-1.8,0-3.27,1.09-3.27,2.41v14c0,1.32,1.47,2.41,3.27,2.41h3.1c.89,0,1.62-.54,1.62-1.19v-15.1" fill="none" stroke="#edca34" stroke-miterlimit="10" stroke-width="1"/>
  <path id="パス_348" data-name="パス 348" d="M127.65,1194.57h-3.9c-.89,0-1.62.54-1.62,1.19v16.4c0,.65.73,1.19,1.62,1.19h3.09c1.81,0,3.28-1.09,3.28-2.41v-14" fill="none" stroke="#edca34" stroke-miterlimit="10" stroke-width="1"/>
  <path id="パス_349" data-name="パス 349" d="M94.39,1204a2.74,2.74,0,0,0,2.74,2.74h1.32v-5.47H97.13a2.741,2.741,0,0,0-2.74,2.73Z" fill="none" stroke="#edca34" stroke-miterlimit="10" stroke-width="1"/>
  <path id="パス_350" data-name="パス 350" d="M133,1201.23h-1.33v5.47H133a2.735,2.735,0,1,0,0-5.47Z" fill="none" stroke="#edca34" stroke-miterlimit="10" stroke-width="1"/>
  <path id="パス_351" data-name="パス 351" d="M0,0H293.89V64.5H0Z" transform="translate(56.29 666.33)" opacity="0.8" fill="url(#linear-gradient-9)"/>
  <path id="パス_352" data-name="パス 352" d="M165,698.79a10.523,10.523,0,0,0-1.82-2.45,23.933,23.933,0,0,0,10-9.39h3.18a22.446,22.446,0,0,0,10.59,9,14.642,14.642,0,0,0-1.95,2.72,26.908,26.908,0,0,1-10.09-8.75A26.726,26.726,0,0,1,165,698.79Zm7.18-2.57v3.1c0,3.52-.53,8-5.4,11a11.2,11.2,0,0,0-2.48-2.12c4.38-2.6,4.8-6.13,4.8-9v-3Zm8.62-.12v14.22h-3.1V696.1Z" fill="#fff"/>
  <path id="パス_353" data-name="パス 353" d="M196.55,693.47H188.3v-2.35h8.25ZM195.9,709h-4.35v1h-2.3v-8.52h6.65Zm2.53-12.52c-.25.27-.48.52-.73.75a17.318,17.318,0,0,0-1.75-1.45v1.1h-6.62v-2.27H196v1a12.281,12.281,0,0,0,3.2-4.63l.83.23v-.83H196.9v-2.12H200V687h2.64v1.25h2.93V687h2.65v1.25h3.1v2.12h-3.1v1.2h-1.28c-.22.43-.45.85-.67,1.23h4.4v1.82h-4.53v.75h4v1.47h-4v.75h4v1.5h-4v.75h5.1v1.88H198.43Zm-9.1,1.55H196v2.22h-6.62Zm6.55-8h-6.4v-2.25h6.4Zm-4.33,13.77v2.88h2V703.8Zm19.15-.57a10.776,10.776,0,0,1-3.7,3.92,29.006,29.006,0,0,0,4.77.85,9.468,9.468,0,0,0-1.67,2.33,24.086,24.086,0,0,1-6.15-1.63,30.914,30.914,0,0,1-6.77,1.7,9.119,9.119,0,0,0-1.18-2.22,30.352,30.352,0,0,0,5.2-1,12.084,12.084,0,0,1-2.3-2l1.73-.65H197.2V702.4h11.42l.38-.1Zm-9.32-11.65h.1c-.18.4-.36.8-.55,1.2h2.69a11.565,11.565,0,0,0,.63-1.7l1.3.2v-.93h-2.93v1.2Zm2.17,3H201v.75h2.52Zm0,2.22H201v.75h2.52Zm0,2.25H201v.75h2.52Zm-2,5.48a10.131,10.131,0,0,0,2.55,1.57,11.056,11.056,0,0,0,2.45-1.57Z" fill="#fff"/>
  <circle id="楕円形_19" data-name="楕円形 19" cx="26" cy="26" r="26" transform="translate(90.04 673.08)" fill="#fff"/>
  <path id="パス_354" data-name="パス 354" d="M127.4,703.94a18.239,18.239,0,0,0,1.62-1.18,1.55,1.55,0,0,0,.121-2.189,1.532,1.532,0,0,0-.121-.121,2.068,2.068,0,0,0-2.68,0c-.74.62-5.83,4-5.83,4h-6.19a.59.59,0,1,1,.039-1.18h4.531a1.66,1.66,0,0,0,0-3.31h-6.62c-4.14,0-5.45,1.73-6.9,3.17l-2.62,2.3a.78.78,0,0,0-.27.59v7.63a.251.251,0,0,0,.15.23.262.262,0,0,0,.28,0l5.08-4.35a.806.806,0,0,1,.65-.18l7.91,1.44a2.073,2.073,0,0,0,1.58-.35s3.94-2.74,7.08-5" fill="none" stroke="#f66" stroke-linejoin="round" stroke-width="1"/>
  <path id="パス_355" data-name="パス 355" d="M122.29,684.44a4.008,4.008,0,0,0-1.34-.19,4.119,4.119,0,0,0-3.43,2,.55.55,0,0,1-1,0,4.15,4.15,0,0,0-3.43-2c-2.26,0-4.31,1.6-4.31,5.23s3.07,6.12,5,7.42a17.218,17.218,0,0,0,2.82,1.48,2.436,2.436,0,0,0,.44.08,2.535,2.535,0,0,0,.45-.08,16.932,16.932,0,0,0,2.81-1.48c1.9-1.3,5-3.84,5-7.42a6,6,0,0,0-1-3.62" fill="none" stroke="#f66" stroke-linejoin="round" stroke-width="1"/>
  <path id="パス_356" data-name="パス 356" d="M0,0H293.21V64.5H0Z" transform="translate(56.29 1931.33)" opacity="0.7" fill="url(#linear-gradient-10)"/>
  <path id="パス_357" data-name="パス 357" d="M176.33,1959.85a21.871,21.871,0,0,0,8.72,9.07,12.488,12.488,0,0,0-2.3,2.7,20.612,20.612,0,0,1-4.08-3.35v2.85h-4.14v4.22H171.4v-4.22h-4.3v-2.63a21.654,21.654,0,0,1-3.9,3.2,14.255,14.255,0,0,0-2.17-2.47,22.348,22.348,0,0,0,8.6-9.37H162v-3h9.4V1952h3.13v4.83H184v3Zm-4.93,8.24v-5.44a29.4,29.4,0,0,1-3.92,5.44Zm7.1,0a27.5,27.5,0,0,1-4-5.5v5.5Z" fill="#fff"/>
  <path id="パス_358" data-name="パス 358" d="M197.83,1957.65c-.55,1.37-1.05,2.75-1.48,3.7h2.9V1964H186.4v-2.69h2.85a15.742,15.742,0,0,0-.87-3.7l2.42-.5a12.349,12.349,0,0,1,1,3.65l-2.35.55h6.65l-2.13-.53a25.57,25.57,0,0,0,1-3.77ZM199,1957H187v-2.57h4.57v-2.23h2.88v2.23H199Zm-11.15,8.7h10.32v9.6h-2.9v-1.15H190.6v1.25h-2.75Zm2.75,2.57v3.3h4.67v-3.3Zm19.12-13.59c-.88,2.42-2,5.29-3,7.42a8,8,0,0,1,2.5,5.85c0,1.82-.4,3-1.35,3.72a4.093,4.093,0,0,1-1.7.63,14.337,14.337,0,0,1-2,.05,6.9,6.9,0,0,0-.72-2.93,8.837,8.837,0,0,0,1.4.05,2.312,2.312,0,0,0,.92-.2c.45-.27.6-.85.6-1.7a7.2,7.2,0,0,0-2.54-5.1c.72-1.77,1.52-4.32,2.12-6.22h-3v19.12H200v-21.92h7l.45-.12Z" fill="#fff"/>
  <circle id="楕円形_20" data-name="楕円形 20" cx="26" cy="26" r="26" transform="translate(88.04 1937.96)" fill="#fff"/>
  <path id="パス_359" data-name="パス 359" d="M121.46,1951.18h3.8a2.18,2.18,0,0,1,2.17,2.18v23.88" fill="none" stroke="#8cc63f" stroke-miterlimit="10" stroke-width="1"/>
  <path id="パス_360" data-name="パス 360" d="M100.66,1977.24v-23.88a2.18,2.18,0,0,1,2.17-2.18h13.75" fill="none" stroke="#8cc63f" stroke-miterlimit="10" stroke-width="1"/>
  <path id="パス_361" data-name="パス 361" d="M111.51,1976.88v-5.79h5.07v5.79" fill="none" stroke="#8cc63f" stroke-miterlimit="10" stroke-width="1"/>
  <path id="パス_362" data-name="パス 362" d="M107.8,1956.16v2.35h-1.62v-2.35Zm.73-1h-3.09a.27.27,0,0,0-.26.27v3.81a.27.27,0,0,0,.26.27h3.09a.27.27,0,0,0,.27-.27v-3.81a.27.27,0,0,0-.27-.27Z" fill="#8cc63f"/>
  <path id="パス_363" data-name="パス 363" d="M114.85,1956.16v2.35h-1.62v-2.35Zm.74-1H112.5a.27.27,0,0,0-.27.27v3.81a.27.27,0,0,0,.27.27h3.09a.27.27,0,0,0,.26-.27v-3.81a.27.27,0,0,0-.26-.27Z" fill="#8cc63f"/>
  <path id="パス_364" data-name="パス 364" d="M121.91,1956.16v2.35h-1.62v-2.35Zm.74-1h-3.1a.27.27,0,0,0-.26.27v3.81a.27.27,0,0,0,.26.27h3.1a.27.27,0,0,0,.26-.27v-3.81a.27.27,0,0,0-.26-.27Z" fill="#8cc63f"/>
  <path id="パス_365" data-name="パス 365" d="M107.8,1963.4v2.34h-1.62v-2.34Zm.73-1h-3.09a.27.27,0,0,0-.26.27v3.81a.259.259,0,0,0,.26.26h3.09a.26.26,0,0,0,.27-.25v-3.82a.27.27,0,0,0-.27-.27Z" fill="#8cc63f"/>
  <path id="パス_366" data-name="パス 366" d="M114.85,1963.4v2.34h-1.62v-2.34Zm.74-1H112.5a.27.27,0,0,0-.27.27v3.81a.259.259,0,0,0,.26.26h3.1a.259.259,0,0,0,.26-.26v-3.81a.27.27,0,0,0-.26-.27Z" fill="#8cc63f"/>
  <path id="パス_367" data-name="パス 367" d="M121.91,1963.4v2.34h-1.62v-2.34Zm.74-1h-3.1a.27.27,0,0,0-.26.27v3.81a.259.259,0,0,0,.26.26h3.1a.259.259,0,0,0,.26-.26v-3.81a.27.27,0,0,0-.26-.27Z" fill="#8cc63f"/>
  <path id="パス_368" data-name="パス 368" d="M91.98,320.08H73.55" fill="none" stroke="#2e3d83" stroke-miterlimit="10" stroke-width="0.9"/>
  <path id="パス_369" data-name="パス 369" d="M89.67,288.29H350.06v65.05H89.67Z" fill="#fff"/>
  <path id="パス_370" data-name="パス 370" d="M349.53,289.2v63.42L90.2,352.43V289.01l259.28.19m1.11-1.63-261.5-.18v66.67l261.5.19.05-66.68Z" fill="#ff96b3"/>
  <path id="パス_375" data-name="パス 375" d="M134,325a9.5,9.5,0,0,0-.7,1.24,28.963,28.963,0,0,1-3.14,5.49,56.021,56.021,0,0,1,5.57,5.73l-2.28,2a47.08,47.08,0,0,0-5-5.67,26.541,26.541,0,0,1-7.53,5.62l-2.06-2.16a22.7,22.7,0,0,0,8.21-5.74,15.5,15.5,0,0,0,3-4.9h-6.78c-.84,0-1.94.12-2.36.14v-2.84a22.413,22.413,0,0,0,2.36.14h7a7.232,7.232,0,0,0,2.08-.26Z" fill="#2e3d83"/>
  <path id="パス_376" data-name="パス 376" d="M154.08,328.42a15.4,15.4,0,0,0,1.82-.12v2.6c-.5,0-1.26-.06-1.82-.06h-4.82A12.522,12.522,0,0,1,148,336a9.6,9.6,0,0,1-4,3.84l-2.34-1.71a8.288,8.288,0,0,0,3.62-2.85,8.513,8.513,0,0,0,1.25-4.42H141a15.246,15.246,0,0,0-1.92.08v-2.62c.6.06,1.3.12,1.92.12Zm-10.54-2.75a18.265,18.265,0,0,0-2.14.08v-2.58a14.882,14.882,0,0,0,2.12.14h8a15.9,15.9,0,0,0,2.17-.14v2.58c-.7,0-1.46-.08-2.16-.08Z" fill="#2e3d83"/>
  <path id="パス_377" data-name="パス 377" d="M159.2,329.26c.72.07,2.18.13,3.22.13h10.74c.92,0,1.82-.07,2.34-.11v3.14c-.48,0-1.5-.1-2.34-.1H162.42a30.545,30.545,0,0,0-3.22.1Z" fill="#2e3d83"/>
  <path id="パス_378" data-name="パス 378" d="M185,330.08l-1.46,2.24a52.225,52.225,0,0,0-4.56-2.84l1.46-2.22C181.8,328,184,329.36,185,330.08Zm1.62,4.59a20.394,20.394,0,0,0,7.78-7.5l1.54,2.72a23.7,23.7,0,0,1-14.65,9.65l-1.5-2.64a22.582,22.582,0,0,0,6.85-2.23Zm1.46-9.11-1.5,2.22c-1.12-.78-3.2-2.14-4.52-2.88l1.46-2.2c1.34.74,3.54,2.14,4.58,2.86Z" fill="#2e3d83"/>
  <path id="パス_379" data-name="パス 379" d="M213.17,338.71v1.36h-2.52v-.8h-7.58a14.48,14.48,0,0,0-1.72.06v-2.46a17.1,17.1,0,0,0,1.74.08h7.56v-2.66h-8.57V332c.52,0,1.42.06,2.18.06h6.38V329.6h-6.6a23.114,23.114,0,0,0-2.48.08v-2.43c.52.06,1.74.11,2.48.11h9.1v1.34Z" fill="#2e3d83"/>
  <path id="パス_380" data-name="パス 380" d="M227.34,334.07a18.879,18.879,0,0,0,7.28-7.77l1.56,2.82a21.224,21.224,0,0,1-7.41,7.4,21.863,21.863,0,0,1-7.42,2.81l-1.68-2.64a20.673,20.673,0,0,0,7.67-2.62Zm0-6.48-2,2.1a41.541,41.541,0,0,0-5-4.32l1.88-2a41.955,41.955,0,0,1,5.12,4.22Z" fill="#2e3d83"/>
  <path id="パス_381" data-name="パス 381" d="M243.08,323.2a16.7,16.7,0,0,0-.48,1.76,52.493,52.493,0,0,0-.94,7.66,9.115,9.115,0,0,0,.07,1.28c.26-.7.59-1.36.89-2l1.22,1a45.161,45.161,0,0,0-1.43,4.72,3.9,3.9,0,0,0-.1.92v.82l-2.24.15a23.894,23.894,0,0,1-.78-6.32,60.071,60.071,0,0,1,.83-8.26,14.823,14.823,0,0,0,.18-1.94Zm12.15,15a19.35,19.35,0,0,0-2.39-2c-.13,1.88-1.21,3.24-3.89,3.24s-4.44-1.16-4.44-3.24,1.71-3.4,4.41-3.4a8.981,8.981,0,0,1,1.3.08c-.06-1.22-.12-2.66-.14-4.06h-1.42a33.52,33.52,0,0,1-3.46-.12v-2.36a32.79,32.79,0,0,0,3.46.18h1.4v-2.2a11.34,11.34,0,0,0-.12-1.3h2.84a12.466,12.466,0,0,0-.12,1.28c0,.44-.06,1.18-.06,2.06,1.08-.12,2.12-.26,3.06-.46v2.46c-1,.14-2,.26-3.08.34,0,1.92.14,3.5.22,4.84a12.4,12.4,0,0,1,3.82,2.57Zm-4.91-3.23a6.176,6.176,0,0,0-1.6-.22c-1.12,0-1.88.46-1.89,1.2s.8,1.16,1.84,1.16c1.22,0,1.64-.64,1.65-1.8Z" fill="#2e3d83"/>
  <path id="パス_382" data-name="パス 382" d="M268.84,326.94a28.978,28.978,0,0,1-3.44.68,36.231,36.231,0,0,1-4.25,8.48l-2.42-1.22a30.238,30.238,0,0,0,4-7h-1c-.82,0-1.62,0-2.48-.06l-.18-2.32a25.037,25.037,0,0,0,2.64.14c.58,0,1.18,0,1.78-.06a16.885,16.885,0,0,0,.54-3.32l2.74.28c-.16.64-.4,1.64-.68,2.7a20.9,20.9,0,0,0,2.66-.62Zm2.6,1.79c-.06.83,0,1.66,0,2.54,0,.56.06,1.52.12,2.5a13.209,13.209,0,0,1,4.1,2.54l-1.33,2.12a17.6,17.6,0,0,0-2.68-2.1v.18c0,1.84-1,3.28-3.82,3.27-2.46,0-4.4-1.1-4.4-3.28,0-1.94,1.63-3.44,4.39-3.44a7.322,7.322,0,0,1,1.34.08c-.06-1.48-.16-3.22-.22-4.42Zm-2.18,6.55a6.988,6.988,0,0,0-1.61-.2c-1.13,0-1.88.48-1.88,1.18s.62,1.24,1.7,1.24c1.34,0,1.78-.77,1.78-1.84Zm5.58-5.49a26.457,26.457,0,0,0-4.76-2.83l1.28-2a36.763,36.763,0,0,1,4.88,2.69Z" fill="#2e3d83"/>
  <path id="パス_383" data-name="パス 383" d="M74.03,839.18v54" fill="none" stroke="#2e3d83" stroke-miterlimit="10" stroke-width="1"/>
  <path id="パス_384" data-name="パス 384" d="M91.98,893.08H73.55" fill="none" stroke="#2e3d83" stroke-miterlimit="10" stroke-width="0.9"/>
  <path id="パス_385" data-name="パス 385" d="M89.67,861.29H350.06v65.05H89.67Z" fill="#fff"/>
  <path id="パス_386" data-name="パス 386" d="M349.53,862.2v63.42l-259.28-.19V862.01Zm1.11-1.63-261.5-.18v66.67l261.5.19.05-66.68Z" opacity="0.8" fill="url(#linear-gradient-11)"/>
  <path id="パス_387" data-name="パス 387" d="M123.1,885.12a16.757,16.757,0,0,0-.48,1.76,50.9,50.9,0,0,0-1,7.66,9.128,9.128,0,0,0,.08,1.28c.26-.7.58-1.36.88-2l1.22,1a47.353,47.353,0,0,0-1.42,4.72,3.908,3.908,0,0,0-.1.92v.82l-2.25.16a24.4,24.4,0,0,1-.77-6.32,58.687,58.687,0,0,1,.82-8.26,14.855,14.855,0,0,0,.19-1.94Zm12.15,15a20.211,20.211,0,0,0-2.4-2c-.12,1.88-1.2,3.24-3.88,3.24s-4.44-1.17-4.44-3.25,1.7-3.4,4.4-3.4a8.963,8.963,0,0,1,1.3.08c-.06-1.22-.12-2.66-.14-4.06h-1.42a33.52,33.52,0,0,1-3.46-.12v-2.36a32.758,32.758,0,0,0,3.46.18h1.4v-2.2a11.333,11.333,0,0,0-.12-1.3h2.84a12.463,12.463,0,0,0-.12,1.28c0,.44-.06,1.18-.06,2.07,1.08-.12,2.12-.26,3.06-.46v2.46c-1,.14-2,.26-3.08.34,0,1.92.13,3.5.21,4.84a12.566,12.566,0,0,1,3.82,2.56Zm-4.92-3.22a5.782,5.782,0,0,0-1.6-.23c-1.12,0-1.88.46-1.88,1.2s.8,1.16,1.84,1.16c1.22,0,1.64-.63,1.64-1.79Z" fill="#2e3d83"/>
  <path id="パス_388" data-name="パス 388" d="M148.85,888.86a27.19,27.19,0,0,1-3.44.67,36.567,36.567,0,0,1-4.24,8.48l-2.42-1.22a30.236,30.236,0,0,0,4-7h-1c-.82,0-1.62,0-2.48-.06l-.18-2.32a25,25,0,0,0,2.64.14,17.714,17.714,0,0,0,1.78-.06,16.168,16.168,0,0,0,.55-3.32l2.74.28c-.16.64-.4,1.64-.68,2.7a19.364,19.364,0,0,0,2.66-.61Zm2.6,1.78v2.54c0,.56.06,1.52.12,2.5a13.209,13.209,0,0,1,4.1,2.54l-1.32,2.12a17.6,17.6,0,0,0-2.68-2.1v.18c0,1.84-1,3.28-3.82,3.28-2.46,0-4.4-1.1-4.4-3.28,0-2,1.62-3.44,4.38-3.44a7.319,7.319,0,0,1,1.34.08c-.06-1.48-.16-3.22-.22-4.42Zm-2.18,6.56a7.019,7.019,0,0,0-1.6-.2c-1.14,0-1.88.48-1.88,1.18s.62,1.24,1.7,1.24c1.34,0,1.78-.78,1.78-1.84Zm5.58-5.5a26.026,26.026,0,0,0-4.75-2.82l1.28-2a35.688,35.688,0,0,1,4.88,2.68Z" fill="#2e3d83"/>
  <path id="パス_389" data-name="パス 389" d="M166.79,899c.76-.1,1.32-.2,1.84-.32a5.35,5.35,0,0,0,4.5-5.29c0-2.75-1.47-4.79-4.13-5.25a43.181,43.181,0,0,1-1.19,5.38c-1.18,4-2.9,6.44-5.06,6.44s-4-2.42-4-5.76c0-4.57,4-8.48,9.13-8.48,4.9,0,8,3.43,8,7.75,0,4.16-2.56,7.12-7.56,7.87Zm-1.54-6a33.108,33.108,0,0,0,1.07-4.8,6.211,6.211,0,0,0-5,5.74c0,2,.8,3,1.54,3S164.45,895.69,165.25,893Z" fill="#2e3d83"/>
  <path id="パス_390" data-name="パス 390" d="M182.71,890.32a23.224,23.224,0,0,1-3.38,2,9.293,9.293,0,0,0-1.4-2,19.767,19.767,0,0,0,8.09-6.7h2.48A18.246,18.246,0,0,0,197,890a12.92,12.92,0,0,0-1.55,2.18,23.41,23.41,0,0,1-3.35-1.94v1.58h-9.34Zm-3.54,3.12h16.54v2.2h-9c-.58,1.18-1.24,2.41-1.84,3.53,1.92,0,4-.13,6-.21a23.593,23.593,0,0,0-2-2l2.1-1.1a26.89,26.89,0,0,1,4.58,5.14l-2.22,1.34a10.7,10.7,0,0,0-.8-1.24c-4.7.26-9.65.45-13,.61l-.31-2.32,3-.1a38.514,38.514,0,0,0,1.52-3.62H179.1Zm12-3.83a19.508,19.508,0,0,1-3.84-3.71,18,18,0,0,1-3.67,3.7Z" fill="#2e3d83"/>
  <path id="パス_391" data-name="パス 391" d="M74.03,1037.18v54" fill="none" stroke="#2e3d83" stroke-miterlimit="10" stroke-width="1"/>
  <path id="パス_392" data-name="パス 392" d="M91.98,1091.08H73.55" fill="none" stroke="#2e3d83" stroke-miterlimit="10" stroke-width="0.9"/>
  <path id="パス_393" data-name="パス 393" d="M89.67,1059.29H349.95v65.05H89.67Z" fill="#fff"/>
  <path id="パス_394" data-name="パス 394" d="M349.42,1060.2l-.05,63.42-259.17-.19v-63.42l259.17.19m1.11-1.63-261.39-.18v66.67l261.39.19Z" opacity="0.6" fill="url(#linear-gradient-12)"/>
  <path id="パス_395" data-name="パス 395" d="M123.1,1083.12a16.764,16.764,0,0,0-.48,1.76,50.9,50.9,0,0,0-1,7.66,9.128,9.128,0,0,0,.08,1.28c.26-.7.58-1.36.88-2l1.22,1a47.343,47.343,0,0,0-1.42,4.72,3.908,3.908,0,0,0-.1.92v.82l-2.25.16a24.4,24.4,0,0,1-.77-6.32,58.68,58.68,0,0,1,.82-8.26,14.847,14.847,0,0,0,.19-1.94Zm12.15,15a20.192,20.192,0,0,0-2.4-2c-.12,1.88-1.2,3.24-3.88,3.24s-4.44-1.17-4.44-3.25,1.7-3.4,4.4-3.4a8.972,8.972,0,0,1,1.3.08c-.06-1.22-.12-2.66-.14-4.06h-1.42a33.571,33.571,0,0,1-3.46-.12v-2.36a32.79,32.79,0,0,0,3.46.18h1.4v-2.2a11.335,11.335,0,0,0-.12-1.3h2.84a12.452,12.452,0,0,0-.12,1.28c0,.44-.06,1.18-.06,2.07,1.08-.12,2.12-.26,3.06-.46v2.46c-1,.14-2,.26-3.08.34,0,1.92.13,3.5.21,4.84a12.565,12.565,0,0,1,3.82,2.56Zm-4.92-3.22a5.775,5.775,0,0,0-1.6-.23c-1.12,0-1.88.46-1.88,1.2s.8,1.16,1.84,1.16c1.22,0,1.64-.63,1.64-1.79Z" fill="#2e3d83"/>
  <path id="パス_396" data-name="パス 396" d="M148.85,1086.86a27.19,27.19,0,0,1-3.44.67,36.571,36.571,0,0,1-4.24,8.48l-2.42-1.22a30.237,30.237,0,0,0,4-7h-1c-.82,0-1.62,0-2.48-.06l-.18-2.32a25,25,0,0,0,2.64.14,17.678,17.678,0,0,0,1.78-.06,16.168,16.168,0,0,0,.55-3.32l2.74.28c-.16.64-.4,1.64-.68,2.7a19.345,19.345,0,0,0,2.66-.61Zm2.6,1.78v2.54c0,.56.06,1.52.12,2.5a13.21,13.21,0,0,1,4.1,2.54l-1.32,2.12a17.613,17.613,0,0,0-2.68-2.1v.18c0,1.84-1,3.28-3.82,3.28-2.46,0-4.4-1.1-4.4-3.28,0-2,1.62-3.44,4.38-3.44a7.3,7.3,0,0,1,1.34.08c-.06-1.48-.16-3.22-.22-4.42Zm-2.18,6.56a7.026,7.026,0,0,0-1.6-.2c-1.14,0-1.88.48-1.88,1.18s.62,1.24,1.7,1.24c1.34,0,1.78-.78,1.78-1.84Zm5.58-5.5a26.033,26.033,0,0,0-4.75-2.82l1.28-2a35.66,35.66,0,0,1,4.88,2.68Z" fill="#2e3d83"/>
  <path id="パス_397" data-name="パス 397" d="M167.69,1088.65c-1,2.74-3.64,4.52-8,5.4a7.2,7.2,0,0,0-1.12-1.59,17.249,17.249,0,0,0,3.56-1,14.11,14.11,0,0,0-1.44-1c-.38.18-.76.36-1.14.52a13.224,13.224,0,0,0-1.36-1.45,11.882,11.882,0,0,0,3.92-2H159v-1.8h17v1.8h-5.76v1.24a20.579,20.579,0,0,0,3.69-1l1.6,1.31a29,29,0,0,1-5.29,1.25v.46c0,.54.16.64,1,.64h2.56c.62,0,.74-.2.84-1.3a5.859,5.859,0,0,0,1.87.7c-.23,1.88-.83,2.4-2.49,2.4h-3c-2.3,0-2.84-.58-2.84-2.44v-3.24h-3.46c-.18.2-.36.4-.54.58h2l.36-.06Zm8.76,8h-4.56v3.6h-2.42v-3.6h-4.36c-.38,1.54-1.63,2.92-5.25,3.66a7.945,7.945,0,0,0-1.38-1.76c2.53-.44,3.67-1.14,4.19-1.9h-4.4v-2h4.78v-1.34h2.22v1.34h4.2v-1.34h2.42v1.34h4.56Zm-13.61-12.21h-4.35v-1.88h4.34v-1h2.36v1h4.28v-1h2.38v1h4.48v1.88h-4.48v1h-2.38v-1H165.2v1h-2.36Zm-.51,5.06-.2.12a13.194,13.194,0,0,1,1.56,1,5.843,5.843,0,0,0,1.32-1.16Z" fill="#2e3d83"/>
  <path id="パス_398" data-name="パス 398" d="M196.44,1083.71a20.86,20.86,0,0,1-3.38,4.66,10.9,10.9,0,0,0,4,2.14,8.657,8.657,0,0,0-1.48,2,11.928,11.928,0,0,1-4.28-2.6v.94h-7.54V1090a14.642,14.642,0,0,1-4.66,2.78,7.828,7.828,0,0,0-1.26-1.86,12.329,12.329,0,0,0,3.68-1.88,21.129,21.129,0,0,0-1.7-1.42l-.66.48a6.693,6.693,0,0,0-1.46-1.54,12,12,0,0,0,4.43-4.9l2.22.38c-.14.28-.28.54-.44.82h2l.4-.08,1.16.48c-.1-.32-.18-.66-.28-1l2-.42a16.082,16.082,0,0,0,.92,2.59v-1.58h4.3l.46-.14Zm-12.41,12a13.337,13.337,0,0,1-3.95,4.3,16.309,16.309,0,0,0-2-1.56,9.921,9.921,0,0,0,3.55-3.4Zm4.6-1.13V1098c0,1.12-.24,1.68-1.08,2a9.335,9.335,0,0,1-3.38.31,8.109,8.109,0,0,0-.8-2.1h2.44c.3,0,.42-.06.42-.3v-3.32h-6.4v-2.14H195v2.14Zm-7.66-8c.62.42,1.28.92,1.78,1.34a9.375,9.375,0,0,0,.72-.82,16.988,16.988,0,0,0-1.78-1.24c-.24.22-.46.46-.69.7Zm1.89-2.16-.22.3a20.664,20.664,0,0,1,1.76,1.1,11.225,11.225,0,0,0,.68-1.4Zm7.35,4.33a16.007,16.007,0,0,1-2.59-5,13.5,13.5,0,0,1-2.69,5Zm.09-4a12.6,12.6,0,0,0,1.32,2.12,15.829,15.829,0,0,0,1.54-2.12Zm2,10.34a26.541,26.541,0,0,1,4,3.74l-2.12,1.3a24.727,24.727,0,0,0-3.82-3.9Z" fill="#2e3d83"/>
  <path id="パス_399" data-name="パス 399" d="M74.03,1236.18v240" fill="none" stroke="#2e3d83" stroke-miterlimit="10" stroke-width="1"/>
  <path id="パス_400" data-name="パス 400" d="M89.5,1290.08H73.55" fill="none" stroke="#2e3d83" stroke-miterlimit="10" stroke-width="0.9"/>
  <path id="パス_401" data-name="パス 401" d="M89.67,1258.29H350.06v65.05H89.67Z" fill="#fff" stroke="#707070" stroke-miterlimit="10" stroke-width="1"/>
  <path id="パス_402" data-name="パス 402" d="M349.53,1259.2v63.42l-259.28-.19v-63.42Zm0-1.63-260.38-.18v66.67l260.38.19Z" fill="#fff" stroke="#707070" stroke-miterlimit="10" stroke-width="1" opacity="0.6"/>
  <path id="パス_403" data-name="パス 403" d="M136.48,1287.67a24.382,24.382,0,0,1-3.33,4v4.66c0,1.36-.26,2.08-1.14,2.46a10.214,10.214,0,0,1-4.08.43,9.978,9.978,0,0,0-.84-2.5c1.24.08,2.66.07,3.06.05s.54-.12.54-.46v-2.56a34.931,34.931,0,0,1-11,5.31,21.619,21.619,0,0,0-1.59-2.18,33.408,33.408,0,0,0,8.38-3.28c-2.88.24-5.62.46-7.78.6l-.32-2.36,2.94-.12v-9.28h4.14a18.111,18.111,0,0,0,.64-1.94l2.92.28c-.28.58-.6,1.14-.9,1.66h5V1288a16.685,16.685,0,0,0,1-1.46Zm-12.73,3.95,6.2-.34c.26-.2.5-.42.74-.62v-.36h-6.94Zm6.94-4.26h-6.94v1.2h6.94Zm-6.93-2.86v1.16h6.94v-1.16Z" fill="#2e3d83"/>
  <path id="パス_404" data-name="パス 404" d="M144.1,1281.33a33.293,33.293,0,0,1-1.61,3.86v14h-2.26v-10.16c-.4.54-.82,1.08-1.22,1.56a14.2,14.2,0,0,0-1.32-2.48,21.082,21.082,0,0,0,4.15-7.48Zm8.1,5.07a21.461,21.461,0,0,0,4.87,8,9.725,9.725,0,0,0-1.78,1.84,18.29,18.29,0,0,1-1.6-2.12v1.76H151v3.22h-2.32v-3.22h-2.62v-1.84a14.871,14.871,0,0,1-1.78,2.26,9.715,9.715,0,0,0-1.7-1.81,20.348,20.348,0,0,0,5-8.11h-3.94v-2.26h5.06v-3.46H151v3.46h5.52v2.26Zm-3.51,7.38v-5.08a26,26,0,0,1-2.44,5.08Zm4.78,0a29.268,29.268,0,0,1-2.46-5.22v5.22Z" fill="#2e3d83"/>
  <path id="パス_405" data-name="パス 405" d="M164.13,1292.65c.72.5,2.38,1.82,2.84,2.18l-1.38,1.7a18.586,18.586,0,0,0-1.46-1.56v4.26h-2.31v-4a14.132,14.132,0,0,1-2.54,2.82,8.774,8.774,0,0,0-1.54-1.68,13.131,13.131,0,0,0,3.6-3.86h-3v-2h3.52V1289h-3.58v-2h1.84a9.023,9.023,0,0,0-.6-2.2l1.22-.28H158.5v-1.94h3.36v-1.83h2.3v1.82h3.32v1.94H165.4l1.16.22c-.36.86-.69,1.66-1,2.26h2v2h-3.48v1.54h3.3v2h-3.3Zm-2.76-8.14a7.891,7.891,0,0,1,.68,2.2l-1,.28H165l-1.32-.28a16.281,16.281,0,0,0,.75-2.2Zm15.32,4.87h-1.9v9.78h-2.3v-9.79h-2c0,3-.44,7.2-3.08,9.94a5.478,5.478,0,0,0-1.7-1.62c2.3-2.44,2.54-5.84,2.54-8.6v-6.94l1.4.4a23.376,23.376,0,0,0,5.08-1.76l1.9,1.75a33.262,33.262,0,0,1-6.14,1.83v2.8h6.24Z" fill="#2e3d83"/>
  <path id="パス_406" data-name="パス 406" d="M193.73,1292.11A11,11,0,0,1,190,1296a28.445,28.445,0,0,0,6.84,1,10.388,10.388,0,0,0-1.38,2.24,23.106,23.106,0,0,1-8.1-1.9,30.731,30.731,0,0,1-8.25,2,7.812,7.812,0,0,0-1.12-2.14,31.4,31.4,0,0,0,7-1.24,11.949,11.949,0,0,1-1.86-1.78,19.157,19.157,0,0,1-3.08,1.54,6.362,6.362,0,0,0-1.5-1.76,14,14,0,0,0,5.1-2.84,8.594,8.594,0,0,0-1.7-1.6,5.36,5.36,0,0,0,2.79-5h-6.21v-2.18h7.6v-1.72h2.44v1.72h7.66v2.18h-5.14v3.6c0,1-.16,1.58-.84,1.92a7.08,7.08,0,0,1-2.82.34,7.911,7.911,0,0,0-.66-2.09h1.7c.24,0,.3-.06.3-.26v-3.55H187a7.672,7.672,0,0,1-1.67,5.24l2.1.43c-.24.32-.48.64-.74,1h5.1l.42-.08Zm-10.4-6.33a12.411,12.411,0,0,1-3.52,4.14,14.334,14.334,0,0,0-1.64-1.38,8.4,8.4,0,0,0,2.94-3.36Zm1.58,7.24a8.561,8.561,0,0,0,2.56,2,9.856,9.856,0,0,0,2.72-2Zm8.61-7.91a22.923,22.923,0,0,1,3.17,3.74l-2,1.22a21.794,21.794,0,0,0-3-3.9Z" fill="#2e3d83"/>
  <path id="パス_407" data-name="パス 407" d="M207.19,1286.62a13.591,13.591,0,0,1-1.68,1.2,11.822,11.822,0,0,0-1.13-1.94l.14-.08H198v-1.88h7.09v1.5a15.141,15.141,0,0,0,4.37-4.78h2.14a15.483,15.483,0,0,0,5.38,5,11.567,11.567,0,0,0-1.26,2.08,14.337,14.337,0,0,1-1.58-1.15v1.34h-7Zm-2.71,11.6h-3.7v.8h-1.94v-6.83h5.64Zm-5.57-8.79h5.54v1.78h-5.54Zm5.54-.91h-5.54v-1.82h5.54Zm0-5.48H199v-1.8h5.38Zm-3.63,11v2.3h1.76v-2.3Zm15,3.17c0,.84-.12,1.34-.62,1.66a3.52,3.52,0,0,1-1.9.34,6.978,6.978,0,0,0-.56-1.83h.84c.14,0,.2-.06.2-.22V1295h-1.06v4h-1.56v-4h-1v4H208.6v-4h-1v4.14h-2V1289.1h10.16Zm-7.22-4.05V1291h-1v2.2Zm4.85-7.22a19.416,19.416,0,0,1-2.84-3.2,15.819,15.819,0,0,1-2.68,3.2Zm-2.29,7.22V1291h-1v2.2Zm2.62,0V1291h-1.06v2.2Z" fill="#2e3d83"/>
  <path id="パス_408" data-name="パス 408" d="M230.2,1280.53h6.62v2.16h-4.26v10.62H230.2Z" fill="#2e3d83"/>
  <path id="パス_409" data-name="パス 409" d="M237.28,1282.78h3.1l2,7.2c.46,1.65.76,3.13,1.24,4.79h.1c.46-1.66.8-3.14,1.26-4.78l1.93-7.2h3l-4.55,14.8h-3.52Z" fill="#2e3d83"/>
  <path id="パス_410" data-name="パス 410" d="M251.56,1282.79h9.08v2.46h-6.12v3.42h5.2v2.48h-5.2v4h6.34v2.48h-9.3Z" fill="#2e3d83"/>
  <path id="パス_411" data-name="パス 411" d="M271.91,1297.61l-3-5.61h-2.06v5.6h-3v-14.8H269c3.1,0,5.56,1.09,5.56,4.49a4.26,4.26,0,0,1-2.83,4.26l3.46,6.06Zm-5.1-8h1.92c1.9,0,2.94-.79,2.94-2.38s-1-2.14-2.94-2.14h-1.92Z" fill="#2e3d83"/>
  <path id="パス_412" data-name="パス 412" d="M282.86,1299.46h-6.64v-2.16h4.26v-10.62h2.38Z" fill="#2e3d83"/>
  <path id="パス_413" data-name="パス 413" d="M89.5,1382.08H73.55" fill="none" stroke="#2e3d83" stroke-miterlimit="10" stroke-width="0.9"/>
  <path id="パス_414" data-name="パス 414" d="M89.67,1350.29H350.06v65.05H89.67Z" fill="#fff" stroke="#707070" stroke-miterlimit="10" stroke-width="1"/>
  <path id="パス_415" data-name="パス 415" d="M349.53,1351.2v63.42l-259.28-.19v-63.42Zm0-1.63-260.38-.18v66.67l260.38.19Z" fill="#fff" stroke="#707070" stroke-miterlimit="10" stroke-width="1" opacity="0.6"/>
  <path id="パス_416" data-name="パス 416" d="M123.1,1374.12a16.743,16.743,0,0,0-.48,1.76,50.923,50.923,0,0,0-1,7.66,9.125,9.125,0,0,0,.08,1.28c.26-.7.58-1.36.88-2l1.22,1a47.363,47.363,0,0,0-1.42,4.72,3.9,3.9,0,0,0-.1.92v.82l-2.25.16a24.4,24.4,0,0,1-.77-6.32,58.676,58.676,0,0,1,.82-8.26,14.851,14.851,0,0,0,.19-1.94Zm12.15,15a20.3,20.3,0,0,0-2.4-2c-.12,1.88-1.2,3.24-3.88,3.24s-4.44-1.17-4.44-3.25,1.7-3.4,4.4-3.4a8.972,8.972,0,0,1,1.3.08c-.06-1.22-.12-2.66-.14-4.06h-1.42a33.5,33.5,0,0,1-3.46-.12v-2.36a32.79,32.79,0,0,0,3.46.18h1.4v-2.2a11.342,11.342,0,0,0-.12-1.3h2.84a12.453,12.453,0,0,0-.12,1.28c0,.44-.06,1.18-.06,2.07,1.08-.12,2.12-.26,3.06-.46v2.46c-1,.14-2,.26-3.08.34,0,1.92.13,3.5.21,4.84a12.565,12.565,0,0,1,3.82,2.56Zm-4.92-3.22a5.779,5.779,0,0,0-1.6-.23c-1.12,0-1.88.46-1.88,1.2s.8,1.16,1.84,1.16c1.22,0,1.64-.63,1.64-1.79Z" fill="#2e3d83"/>
  <path id="パス_417" data-name="パス 417" d="M148.85,1377.86a27.214,27.214,0,0,1-3.44.67,36.567,36.567,0,0,1-4.24,8.48l-2.42-1.22a30.235,30.235,0,0,0,4-7h-1c-.82,0-1.62,0-2.48-.06l-.18-2.32a25.327,25.327,0,0,0,2.64.14,17.714,17.714,0,0,0,1.78-.06,16.184,16.184,0,0,0,.55-3.32l2.74.28c-.16.64-.4,1.64-.68,2.7a19.516,19.516,0,0,0,2.66-.61Zm2.6,1.78v2.54c0,.56.06,1.52.12,2.5a13.205,13.205,0,0,1,4.1,2.54l-1.32,2.12a17.634,17.634,0,0,0-2.68-2.1v.18c0,1.84-1,3.28-3.82,3.28-2.46,0-4.4-1.1-4.4-3.28,0-2,1.62-3.44,4.38-3.44a7.282,7.282,0,0,1,1.34.08c-.06-1.48-.16-3.22-.22-4.42Zm-2.18,6.56a7.033,7.033,0,0,0-1.6-.2c-1.14,0-1.88.48-1.88,1.18s.62,1.24,1.7,1.24c1.34,0,1.78-.78,1.78-1.84Zm5.58-5.5a26.034,26.034,0,0,0-4.75-2.82l1.28-2a35.689,35.689,0,0,1,4.88,2.68Z" fill="#2e3d83"/>
  <path id="パス_418" data-name="パス 418" d="M176.6,1380.2a22.851,22.851,0,0,1-2.31,6.18c.2,1.5.48,2.46.84,2.64.2.12.38-1,.46-2.58a10.4,10.4,0,0,0,1.48,1.34c-.38,3.38-1.8,4.08-3,3a3.774,3.774,0,0,1-1.2-2.3,13.856,13.856,0,0,1-3,2.67,8.4,8.4,0,0,0-1.3-1.2,12.526,12.526,0,0,0,3.84-3.93c-.28-2.31-.42-5.23-.49-8.37H167.7v3.76c0,2.92-.24,7.08-1.76,9.8a7.518,7.518,0,0,0-1.72-.94c.12-.22.24-.44.34-.66-2.06.44-4.21.86-5.89,1.18l-.49-2.1c.78-.12,1.74-.28,2.76-.46V1383h-2.46v-2h2.46v-1.4h-1.7v-.68l-.18.18a6.5,6.5,0,0,0-1.42-1.54,12.483,12.483,0,0,0,3.35-4.9h2a20.26,20.26,0,0,1,2.86,3.22v-.22h6.08v-3h2v3h1.3a8.736,8.736,0,0,0-1.2-2.12l1.58-.74a8.382,8.382,0,0,1,1.32,2.15l-1.46.72h1.3v2.08h-2.82c0,1.79,0,3.47.13,5a24.265,24.265,0,0,0,.84-3.1Zm-16.6,3.57a19.749,19.749,0,0,1,.66,3.46l-1.54.4a19.373,19.373,0,0,0-.58-3.5Zm4.19-6.18a19.66,19.66,0,0,0-1.94-2.7,18.665,18.665,0,0,1-1.85,2.69Zm.91,10.5a25.146,25.146,0,0,0,.68-6.64v-5.1l-1.17,1.24h.07v2h-1.8v1.4h2.22v2h-2.22v5l2.18-.4Zm-2-1.24a28.185,28.185,0,0,0,.68-3.24l1.62.38c-.34,1.14-.64,2.4-.9,3.22Zm5-5.06h3.58v5.13h-2.3V1388H168.1Zm3.48-1.24h-3.42v-1.7h3.42Zm-2.2,2.84v1.94h1v-1.94Z" fill="#2e3d83"/>
  <path id="パス_419" data-name="パス 419" d="M188.45,1381a9.876,9.876,0,0,1-.12,1.4c.92,4.2,3.08,6.26,8.46,6.76a9.45,9.45,0,0,0-1.32,2.16c-4.34-.62-6.64-2.18-8-5.06-1.06,2.46-3.3,4.11-8.31,5.05a6.14,6.14,0,0,0-1.14-2c7.25-1.17,7.77-3.74,8.07-8.34Zm-8.7,4.67a8,8,0,0,0,2.48-3.18,23.783,23.783,0,0,1-2.88.84,8.487,8.487,0,0,0-1.14-2c3.86-.72,7.44-2.42,9.41-5.06H184.3a19.216,19.216,0,0,1-4.43,2.76,7.788,7.788,0,0,0-1.52-1.72,13.551,13.551,0,0,0,6.37-4.7l2.5.5c-.28.4-.58.78-.9,1.16H189l.42-.09,1.54.76a11.855,11.855,0,0,1-1.34,2.36,13.661,13.661,0,0,0,7,3.38,11.325,11.325,0,0,0-1.56,2.06,14.232,14.232,0,0,1-6.8-3.9,16.369,16.369,0,0,1-6.08,3.63l2,.8a8.863,8.863,0,0,1-2.52,3.58Zm10.06.07a19.673,19.673,0,0,0,2.2-3.34l2.3.86a29.747,29.747,0,0,1-2.62,3.28Z" fill="#2e3d83"/>
  <path id="パス_420" data-name="パス 420" d="M205.1,1374.28c-.52,1.7-1.19,3.88-1.75,5.44a6.158,6.158,0,0,1,1.46,4c0,1.28-.26,2.12-.88,2.56a2.855,2.855,0,0,1-1.16.42,8.517,8.517,0,0,1-1.28,0,4.991,4.991,0,0,0-.52-2h.88a.994.994,0,0,0,.56-.18c.22-.16.3-.56.3-1.12a5.386,5.386,0,0,0-1.38-3.51c.4-1.26.82-3,1.15-4.36h-1.56v15.71h-2.06v-17.83h4.34l.34-.09Zm9.27,14.75c.32,0,.38-.3.42-2.34a6.115,6.115,0,0,0,2,.88c-.2,2.8-.72,3.56-2.14,3.56h-1.34c-1.74,0-2.12-.69-2.12-2.73v-4.34h-1.48c-.24,3.62-1.08,5.92-5,7.22a5.756,5.756,0,0,0-1.26-1.86c3.2-1,3.8-2.58,4-5.36h-2.2v-2.121H216.4v2.121h-3v4.33c0,.58,0,.64.32.64Zm-5-14.23v-2.1h2.3v2.1h4.78v3.93H215v1.78h-8.53v-1.76H205v-3.94Zm4.9,2h-7.24v1.64h7.25Z" fill="#2e3d83"/>
  <path id="パス_421" data-name="パス 421" d="M227.62,1373.47h2l-5,19.74h-2Z" fill="#2e3d83"/>
  <path id="パス_422" data-name="パス 422" d="M248.57,1381.09c-.2.46-.42,1-.66,1.44h6.44v2h-2.16a8.846,8.846,0,0,1-1.42,3.22,22.987,22.987,0,0,1,3.36,1.8l-1.5,1.78a24.179,24.179,0,0,0-3.52-2,16.043,16.043,0,0,1-6.76,2,6.3,6.3,0,0,0-.88-1.92,16,16,0,0,0,5.3-1.14c-.5-.2-1-.4-1.48-.56l-.2.36-2-.66c.44-.8,1-1.84,1.46-2.92h-2.4v-1.08l-1.5.44v4.77c0,1.17-.21,1.81-.85,2.17a5.9,5.9,0,0,1-3,.48,8.646,8.646,0,0,0-.66-2.32H238c.25,0,.34-.08.35-.38v-4.1l-2.22.6-.5-2.3c.76-.16,1.7-.38,2.72-.62v-3.6H236v-2.18h2.32v-3.76h2.28v3.76h1.54v2.18H240.6v3l1.52-.4.16,1.28h3.12q.33-.75.6-1.44h-4v-2h3a13.525,13.525,0,0,0-.57-2.44l.4-.08h-2.22v-2H247v-1.9h2.42v1.9h4.46v2h-1.64a26.472,26.472,0,0,1-1,2.52h3.08v2Zm-1.62,3.44c-.24.5-.5,1-.74,1.48.78.24,1.62.54,2.48.86a6.109,6.109,0,0,0,1.16-2.34Zm-.41-8a10.428,10.428,0,0,1,.6,2.5h2.02a19.428,19.428,0,0,0,.76-2.52Z" fill="#2e3d83"/>
  <path id="パス_423" data-name="パス 423" d="M273.78,1378.57v4.24h-2.24v-2.23h-12.9v2.22h-2.12v-4.24h2.74v-5.12h11.6v5.12Zm-3.17,10.58c0,1.06-.22,1.56-1,1.88a10.1,10.1,0,0,1-3.36.31,6.925,6.925,0,0,0-.66-1.9h2.32c.32,0,.38-.1.38-.36v-.82h-6.46v3H259.6v-10h11Zm-9.08-10.59h2.16v-2.5h4.76v-.82h-6.92Zm6.78,8v-.9h-6.46v.9Zm-6.46-3.46v.92h6.46v-.92Zm6.61-5.62h-2.72v1h2.73Z" fill="#2e3d83"/>
  <path id="パス_424" data-name="パス 424" d="M282.86,1374.33c-.52,1.7-1.19,3.88-1.75,5.44a6.157,6.157,0,0,1,1.46,4c0,1.28-.26,2.12-.88,2.56a2.853,2.853,0,0,1-1.16.42,8.566,8.566,0,0,1-1.28,0,4.99,4.99,0,0,0-.52-2h.88a1,1,0,0,0,.56-.18c.22-.16.3-.56.3-1.12a5.348,5.348,0,0,0-1.38-3.5c.4-1.26.82-3,1.15-4.36h-1.56v15.7H276.6v-17.82H281l.34-.1Zm9.27,14.75c.32,0,.38-.3.42-2.34a6.116,6.116,0,0,0,2,.88c-.2,2.8-.72,3.56-2.14,3.56h-1.34c-1.74,0-2.12-.68-2.12-2.72v-4.34h-1.48c-.24,3.62-1.08,5.92-5,7.22a5.716,5.716,0,0,0-1.26-1.87c3.2-.95,3.8-2.57,4-5.35H283V1382h11.14v2.12h-3v4.32c0,.58,0,.64.32.64Zm-4.95-14.22v-2.11h2.3v2.1h4.78v3.92h-1.54v1.78h-8.53v-1.76h-1.48v-3.94Zm4.9,2h-7.24v1.64h7.25Z" fill="#2e3d83"/>
  <path id="パス_425" data-name="パス 425" d="M74.03,1621.18v53" fill="none" stroke="#2e3d83" stroke-miterlimit="10" stroke-width="1"/>
  <path id="パス_426" data-name="パス 426" d="M89.5,1674.08H73.55" fill="none" stroke="#2e3d83" stroke-miterlimit="10" stroke-width="0.9"/>
  <path id="パス_427" data-name="パス 427" d="M89.67,1642.29H350.06v65.05H89.67Z" fill="#fff" stroke="#fff" stroke-miterlimit="10" stroke-width="1"/>
  <path id="パス_428" data-name="パス 428" d="M349.53,1643.2v63.42l-259.28-.19v-63.42Zm0-1.63-260.38-.18v66.67l260.38.19Z" fill="#fff"/>
  <path id="パス_429" data-name="パス 429" d="M122.52,1672.08a20.532,20.532,0,0,0-4.63-2.73l1.55-2.22a19.567,19.567,0,0,1,4.75,2.5Zm2.24,3.55c-1.07,2.6-2.38,5.37-3.6,7.74l-2.65-1.8a73.865,73.865,0,0,0,4-8l2.25,1.72v-1.42h2.15V1662.1l2.28.5a55.912,55.912,0,0,0,8.49-2.09l2.25,2.35a71.14,71.14,0,0,1-10,2.16V1667h11v2.77h-3v4.15h3.6v2.77H124.76Zm-.84-10.2a18.1,18.1,0,0,0-4.55-2.8l1.65-2.2a19.665,19.665,0,0,1,4.68,2.58Zm8.11,12.88a21.823,21.823,0,0,1-5.45,5.44,17.285,17.285,0,0,0-2.55-2.05,15.577,15.577,0,0,0,4.93-4.39Zm-2.12-4.43H135v-4.15h-5Zm7,3.38a31.024,31.024,0,0,1,4.87,4.85l-2.75,1.6a30.667,30.667,0,0,0-4.67-5.05Z" fill="#2e3d83"/>
  <path id="パス_430" data-name="パス 430" d="M142.62,1671.77a14.376,14.376,0,0,0,1-6.18l2,.26a14.912,14.912,0,0,1-1.07,6.74Zm7.29,8.75c-.42-.8-1.14-2-1.84-3.05a14.489,14.489,0,0,1-3.36,6.25,11,11,0,0,0-1.94-2.08c3.12-3.5,3.5-8.22,3.5-12.57v-8.62h2.65v8.77a42.332,42.332,0,0,0,1.35-4.75l2,.73v-2.4h4.92v-2.43H160v2.43h5.2v2.45H160v2.4h-2.8v-2.4h-4.75l.2.08c-.75,1.74-1.53,3.82-2.15,5.09l-1.58-.65a39.925,39.925,0,0,1-.25,4.5c.85,1,2.75,3.6,3.22,4.23Zm13.53.54c.39,0,.5-.33.55-2.45a7.992,7.992,0,0,0,2.42,1c-.25,3.05-.93,3.85-2.68,3.84h-1.82c-2.28,0-2.75-.8-2.75-3.17v-4.13h-2.1c-.3,3.82-1.22,6.2-5.67,7.5a7.017,7.017,0,0,0-1.5-2.21c3.55-.919,4.17-2.52,4.38-5.29h-2.93v-2.5h2.2v-2.32h-2.35v-2.5h2.35v-2.58h2.7v2.58H161v-2.57h2.75v2.57h2.45v2.5h-2.45v2.33H166v2.5h-4.07v4.1c0,.65,0,.75.47.75Zm-7.2-7.36H161v-2.32h-4.73Z" fill="#2e3d83"/>
  <path id="パス_431" data-name="パス 431" d="M168.56,1679.31a2.6,2.6,0,1,1,2.6,2.6A2.6,2.6,0,0,1,168.56,1679.31Zm.44-12.75-.1-3.72h4.58l-.13,3.72-.88,8.55h-2.58Z" transform="translate(50)" fill="#2e3d83"/>
  <path id="パス_432" data-name="パス 432" d="M180.13,1672c-.9-.65-2.83-1.7-4.13-2.43l1.63-2.2c1.3.6,3.25,1.55,4.25,2.16Zm-3.73,9.64a76.752,76.752,0,0,0,3.78-8l2.37,1.68c-1,2.67-2.28,5.6-3.46,8Zm17.8-17.23v2.3h4.33v17h-2.82v-1h-9.75v1.07h-2.67v-17h4v-2.3h-4.67v-1.32l-1.75,2.42c-.9-.67-2.77-1.8-4-2.55l1.68-2.2c1.25.68,3.17,1.65,4.12,2.3v-1.35H199.2v2.7Zm1.49,15.67v-1.82h-9.75v1.83Zm-1.87-5.95c-1.92,0-2.37-.67-2.37-2.77v-2.08H190v.65a5.341,5.341,0,0,1-3,5.07,7.72,7.72,0,0,0-1-1v1.75h9.74v-1.63h-1.87ZM186,1669.3v3.75a3.491,3.491,0,0,0,1.82-3.15v-.6Zm5.6-4.87h-1.7v2.3h1.65Zm4.15,4.88h-2v2c0,.5.05.53.47.53h1.13a.774.774,0,0,0,.4,0Z" transform="translate(-8)" fill="#2e3d83"/>
  <path id="パス_433" data-name="パス 433" d="M214.18,1672.92c-.2.4-.45.8-.7,1.2h10.14a9.274,9.274,0,0,1-.05,1c-.35,4.87-.75,6.87-1.43,7.6a2.349,2.349,0,0,1-1.65.85,16.307,16.307,0,0,1-2.52,0,6.006,6.006,0,0,0-.67-2.32c.8.07,1.44.07,1.77.08a.848.848,0,0,0,.75-.28c.35-.37.65-1.65.93-4.67h-1a17.808,17.808,0,0,1-5,7.39,8.3,8.3,0,0,0-2.1-1.65,13.686,13.686,0,0,0,4.65-5.75h-1.47a19.053,19.053,0,0,1-5.85,6.27,9.176,9.176,0,0,0-1.95-1.75,15.054,15.054,0,0,0,5.1-4.52h-1.5a15.678,15.678,0,0,1-2.9,2.45,10.146,10.146,0,0,0-1.95-1.75l-5.12,2.54-1.1-3c.85-.32,1.9-.75,3.07-1.22v-7.05h-2.5v-2.8h2.5v-4.92h2.75v4.92h2.35v2.8h-2.35v5.9l2-.87.53,2.12a12.257,12.257,0,0,0,2.3-2.64H208.4v-2.5h15.72v2.5Zm8.25-3.44H210.61V1661h11.82Zm-2.75-3.26h-6.45v1.2h6.45Zm0-3.15h-6.45v1.2h6.45Z" transform="translate(-8)" fill="#2e3d83"/>
  <path id="パス_434" data-name="パス 434" d="M235.15,1672a15.977,15.977,0,0,0-4-2.55l1.62-2.2a15.613,15.613,0,0,1,4.15,2.35Zm-3.58,9.92a73.41,73.41,0,0,0,3.65-8.07l2.38,1.65c-1,2.67-2.21,5.6-3.36,8Zm4.74-16.47a16.426,16.426,0,0,0-4.08-2.65l1.7-2.17a18.048,18.048,0,0,1,4.18,2.45Zm16.31,9.71c-.05,1-.13,1.85-.2,2.62h2v2.49h-2.3a5.465,5.465,0,0,1-.75,2.28,2.533,2.533,0,0,1-2,1.12,17.06,17.06,0,0,1-3.15.07,5.729,5.729,0,0,0-.72-2.42c1.07.07,2.05.1,2.55.1a1,1,0,0,0,.92-.4,2.717,2.717,0,0,0,.33-.75h-7.53l-.2,1.219-2.85-.23c.33-1.669.71-3.82,1-6.12h-2.15v-2.67h2.5c.18-1.379.33-2.75.46-4-.3.4-.6.75-.9,1.1a13.876,13.876,0,0,0-2.5-1.7,17.261,17.261,0,0,0,4-7.39l2.92.6c-.22.75-.47,1.5-.75,2.22h10.87v2.65H242.08a15.406,15.406,0,0,1-1,1.65H253v1.2c0,1.35-.1,2.57-.18,3.7h1.9v2.67Zm-10.15,0c-.12.9-.25,1.78-.35,2.63h2.35c.1-.8.2-1.7.3-2.63Zm.33-2.67h2.25c0-.8.12-1.6.17-2.37h-2.15Zm6.87,5.3c.07-.72.15-1.6.22-2.62h-2.57c-.1.92-.2,1.82-.3,2.62Zm.38-5.3c0-.72.07-1.52.1-2.37h-2.38c-.05.77-.12,1.57-.2,2.37Z" fill="#2e3d83"/>
  <path id="パス_435" data-name="パス 435" d="M278.79,1679.79v2.92H256.15v-2.93h9.7v-6.35h-7.32v-2.94h7.32v-5.6h-8.5v-3h20.17v2.95H269v5.6h7.57v3H269v6.35Z" fill="#2e3d83"/>
  <path id="パス_436" data-name="パス 436" d="M74.03,1809.18v53" fill="none" stroke="#2e3d83" stroke-miterlimit="10" stroke-width="1"/>
  <path id="パス_437" data-name="パス 437" d="M89.5,1862.08H73.55" fill="none" stroke="#2e3d83" stroke-miterlimit="10" stroke-width="0.9"/>
  <path id="パス_438" data-name="パス 438" d="M89.67,1830.29H350.06v65.05H89.67Z" fill="#fff" stroke="#fff" stroke-miterlimit="10" stroke-width="1"/>
  <path id="パス_439" data-name="パス 439" d="M349.53,1831.2v63.42l-259.28-.19v-63.42Zm0-1.63-260.38-.18v66.67l260.38.19Z" fill="#fff" opacity="0.7"/>
  <path id="パス_440" data-name="パス 440" d="M125.73,1865c-.28-.7-.75-1.78-1.25-2.83v11.5h-2.9V1864a22.054,22.054,0,0,1-2.35,5.22,18.942,18.942,0,0,0-1.4-3,24.917,24.917,0,0,0,3.58-8.44h-3.08V1855h3.25v-4.65h2.9V1855h2.85v2.75h-2.85v.72c.73.93,2.55,3.81,3,4.53Zm11.57-1.54a19,19,0,0,0,4.62,6.6,12.409,12.409,0,0,0-2.15,2.32,21.25,21.25,0,0,1-3.85-6.32v7.62H133v-7.4a18.581,18.581,0,0,1-5.13,6.27,13.941,13.941,0,0,0-2-2.28,16.151,16.151,0,0,0,5.78-6.82h-4.12v-2.67H133v-3.42h-2.33a14.258,14.258,0,0,1-1.48,3,15.394,15.394,0,0,0-2.32-1.48,17,17,0,0,0,2.36-7.32l2.72.48c-.15.9-.3,1.77-.5,2.62H133v-4.3h2.93v4.3h4.68v2.67h-4.67v3.42h5.3v2.67Z" fill="#2e3d83"/>
  <path id="パス_441" data-name="パス 441" d="M150.94,1868.72c1.53-.27,3.12-.57,4.65-.87l.22,2.65c-4.1.9-8.5,1.82-11.72,2.49l-.82-3c1.27-.2,2.92-.45,4.72-.75v-6h-3.77v-2.88h10.72v2.88h-4Zm7.91-11.22c.52,7.3,2,13.08,3.86,13.08.53,0,.83-1.32.95-4.5a8.044,8.044,0,0,0,2.6,1.75c-.45,4.73-1.45,5.88-3.83,5.87-4.27,0-6.14-7.4-6.73-16.2H143.27v-2.9h12.27c-.05-1.35-.07-2.75-.07-4.12h3.2v4.13h4a17.911,17.911,0,0,0-2.92-2.63l2-1.62a18.253,18.253,0,0,1,3.27,2.78l-1.7,1.47h2.35v2.9Z" fill="#2e3d83"/>
  <path id="パス_442" data-name="パス 442" d="M173.33,1858.77a29.992,29.992,0,0,1-4.23,2.49,11.55,11.55,0,0,0-1.75-2.5,24.707,24.707,0,0,0,10.11-8.36h3.1a22.878,22.878,0,0,0,10.56,7.93,15.11,15.11,0,0,0-1.92,2.72,29.7,29.7,0,0,1-4.2-2.43v2H173.33Zm-4.43,3.89h20.67v2.74h-11.2c-.72,1.47-1.55,3-2.3,4.42,2.4-.07,5-.17,7.52-.27a28.351,28.351,0,0,0-2.45-2.55l2.63-1.37a33.69,33.69,0,0,1,5.72,6.42l-2.78,1.679a12.866,12.866,0,0,0-1-1.55c-5.87.321-12,.56-16.29.76l-.4-2.9,3.77-.121a47.634,47.634,0,0,0,1.91-4.53h-5.8Zm15-4.79a24.156,24.156,0,0,1-4.8-4.62,23.125,23.125,0,0,1-4.58,4.62Z" fill="#2e3d83"/>
  <path id="パス_443" data-name="パス 443" d="M201.53,1866.93c-.52-.7-1.37-1.7-2.22-2.62v9.42h-2.95v-8.62a20.94,20.94,0,0,1-3.1,2.39,11.75,11.75,0,0,0-1.4-2.821,18.823,18.823,0,0,0,7-7h-6.05V1855h3.55v-4.6h2.95v4.6h1.12l.53-.12,1.67,1.07a24.274,24.274,0,0,1-2.95,5.35c1.2,1,3.12,2.7,3.65,3.2Zm14.32,3.19v2.9H201.71v-2.9h5.77V1861h-4.75v-2.87h4.75v-7.47h3v7.47h4.72V1861h-4.72v9.14Z" fill="#2e3d83"/>
  <path id="パス_444" data-name="パス 444" d="M223.17,1853.08h3.7v7.27h7v-7.28h3.67v18.49h-3.67v-8h-7v8h-3.7Z" fill="#2e3d83"/>
  <path id="パス_445" data-name="パス 445" d="M250.31,1866.84h-6l-1.31,4.75h-3.74l5.93-18.49h4.35l5.94,18.5H251.6Zm-.8-2.87-.55-2c-.57-1.92-1.07-4.05-1.62-6.05h-.1c-.48,2-1,4.13-1.58,6.05l-.55,2Z" fill="#2e3d83"/>
  <path id="パス_446" data-name="パス 446" d="M257.21,1853.1H261l5.36,9.86,1.85,4h.12c-.19-1.93-.47-4.38-.47-6.48v-7.37h3.5v18.5H267.6l-5.35-9.9-1.87-4h-.12c.17,2,.44,4.32.44,6.45v7.42h-3.5Z" fill="#2e3d83"/>
  <path id="パス_447" data-name="パス 447" d="M284.14,1866.87h-6l-1.3,4.75h-3.75l5.94-18.49h4.35l5.93,18.5h-3.87Zm-.8-2.88-.55-2c-.57-1.93-1.07-4-1.62-6h-.1c-.47,2-1,4.12-1.58,6l-.55,2Z" fill="#2e3d83"/>
  <path id="パス_448" data-name="パス 448" d="M291.05,1853.13h3.7v15.39h7.5v3.1H291Z" fill="#2e3d83"/>
  <path id="パス_449" data-name="パス 449" d="M313.82,1866.89h-6l-1.3,4.75h-3.75l5.93-18.49h4.35l5.94,18.5h-3.88ZM313,1864l-.55-2c-.57-1.93-1.07-4-1.62-6h-.1c-.47,2-1,4.12-1.58,6l-.55,2Z" fill="#2e3d83"/>
  <path id="パス_450" data-name="パス 450" d="M320.73,1853.15h6.12c3.8,0,6.7,1.11,6.69,4.55a4.2,4.2,0,0,1-2.52,4v.13a4.189,4.189,0,0,1,3.47,4.37c0,3.73-3.11,5.45-7.18,5.45h-6.6ZM327,1868.8c2.52,0,3.9-.9,3.9-2.82s-1.35-2.55-3.9-2.56h-2.57v5.38Zm-.42-8.13c2.35,0,3.37-.94,3.37-2.42s-1.09-2.27-3.32-2.27h-2.2v4.7Z" fill="#2e3d83"/>
  <path id="パス_451" data-name="パス 451" d="M89.5,1476.08H73.55" fill="none" stroke="#2e3d83" stroke-miterlimit="10" stroke-width="0.9"/>
  <path id="パス_452" data-name="パス 452" d="M89.67,1444.29H350.06v65.05H89.67Z" fill="#fff" stroke="#707070" stroke-miterlimit="10" stroke-width="1"/>
  <path id="パス_453" data-name="パス 453" d="M349.53,1445.2v63.42l-259.28-.19v-63.42Zm0-1.63-260.38-.18v66.67l260.38.19Z" fill="#fff" stroke="#707070" stroke-miterlimit="10" stroke-width="1" opacity="0.6"/>
  <g id="グループ_2" data-name="グループ 2">
    <path id="パス_454" data-name="パス 454" d="M124.57,1471.74c0,1-.14,1.66-.72,2a4.616,4.616,0,0,1-2.52.42,9.157,9.157,0,0,0-.58-2.2h1.46c.22,0,.26-.08.26-.34v-4.08h-1.68a23.2,23.2,0,0,1-1.22,6.58,7.468,7.468,0,0,0-1.84-1c1.08-2.76,1.16-6.78,1.17-9.68v-7.25h5.68Zm-2.1-6.3V1463h-1.56v2.48Zm-1.55-7v2.4h1.56v-2.4Zm5.08,3.36a20.332,20.332,0,0,0-1.24-4.7l2-.58a18.827,18.827,0,0,1,1.44,4.6Zm7.8,1.11h2.26V1474H133.8v-1.14h-6.08V1474h-2.2v-11.26h2.2v1.94l1-1.38c.52.34,1.1.72,1.66,1.12a24.778,24.778,0,0,0,.76-2.72l1.94.73a28.394,28.394,0,0,1-1,3.28,15.77,15.77,0,0,1,1.74,1.6Zm0,4.9-1.15,1.68a15.034,15.034,0,0,0-1.5-1.62,13.864,13.864,0,0,1-1.8,2.78,8.207,8.207,0,0,0-1.5-1.31,11.474,11.474,0,0,0,1.72-2.82,19.683,19.683,0,0,0-1.85-1.38v5.5h6.08Zm-4.36-6.75a21.73,21.73,0,0,0-.58-4.8l2.12-.34a18.93,18.93,0,0,1,.76,4.72Zm7.14-4.35a43.973,43.973,0,0,1-2.38,5.6l-2.06-.71a34.534,34.534,0,0,0,2-5.63Z" fill="#2e3d83"/>
    <path id="パス_455" data-name="パス 455" d="M151.05,1467.64a7,7,0,0,1-1.2,3.14,19.334,19.334,0,0,0,6.58,1.36,8.865,8.865,0,0,0-1.38,2.16,17.607,17.607,0,0,1-6.82-1.86,12.549,12.549,0,0,1-4.54,1.9,9.23,9.23,0,0,0-1.14-1.67v1.58h-2.23v-7.76a16.926,16.926,0,0,1-1.88,4.16,16.04,16.04,0,0,0-1.12-2.38,20.021,20.021,0,0,0,2.86-6.78h-2.46v-2.2h2.61v-3.72h2.22v3.72h1.84v2.2h-1.85v.7c.5.68,1.66,2.5,2.16,3.32v-5.6h4.22v-1.16H144.3v-2h11.54v2H151.2v1.16h4.36v7.72Zm-8.5,4.77a11.785,11.785,0,0,0,3.8-1.35,11.347,11.347,0,0,1-2-2.64l2.1-.56a6.7,6.7,0,0,0,1.5,1.76,5,5,0,0,0,.84-2h-4V1466l-1.24,1.42c-.2-.56-.54-1.34-.92-2.14Zm4.28-6.59h2.1v-1.22h-2.1Zm0-2.9h2.11v-1.18h-2.1Zm6.48,1.68h-2.12v1.22h2.12Zm-2.11-2.86v1.18h2.13v-1.18Z" fill="#2e3d83"/>
    <path id="パス_456" data-name="パス 456" d="M171.65,1467.13a12.727,12.727,0,0,0,4.32,1.95,10.016,10.016,0,0,0-1.52,1.9,12.214,12.214,0,0,1-3.18-1.61v1.28H167.7v1.28h6.38v1.92h-14.9v-1.92h6.3v-1.28H162v-1.14a13.979,13.979,0,0,1-3.32,1.66,10.829,10.829,0,0,0-1.5-1.83,13.259,13.259,0,0,0,4.61-2.21h-4v-2h4.82v-.9h-2.66v-1.64h2.66v-.88h-2.88v-1.14h-1.9v-3.84h7.48v-1.16h2.44v1.16h7.59v3.85H173.4v1.14h-2.76v.88h2.64v1.64h-2.64v.9h4.8v2Zm-9.06-7.06v-.9h2.24v.9h3.5v-.9h2.28v.9h2.26v-1.3H160.15v1.3Zm8,8.8a11.662,11.662,0,0,1-1.82-1.74h-4.12a10.389,10.389,0,0,1-1.76,1.74h2.6v-1.26h2.22v1.26Zm-5.76-3.7h3.5v-.9h-3.5Zm0-2.54h3.5v-.88h-3.5Z" fill="#2e3d83"/>
    <path id="パス_457" data-name="パス 457" d="M193.37,1463.45v1.8h2v2.2h-2v4.18c0,1.2-.2,1.84-1,2.22a9.09,9.09,0,0,1-3.44.4,8.666,8.666,0,0,0-.72-2.36h2.4c.32,0,.42-.08.42-.34v-4.14h-4.18a15.213,15.213,0,0,1,2.39,3l-1.9,1.22a16.323,16.323,0,0,0-2.28-3.15l1.73-1.05h-2.42v-1.06l-1.76.56v7.34h-2.18v-6.68l-3,.88-.55-2.28c1-.22,2.22-.54,3.56-.9v-3.68H179.1a16.159,16.159,0,0,1-.74,2.54,12.663,12.663,0,0,0-1.68-1.08,24.323,24.323,0,0,0,1.14-6.44l2,.32q-.12,1.2-.3,2.4h.94v-3.74h2.18v3.74h1.66v1.88h4.4v-1.71h-3.54v-2.16h3.54v-1.78H191v1.78h3.69v2.16H191v1.7h4.54v2.2Zm-2.34,0h-7.1v-1.82h-1.32v3.06l1.84-.52.16,1.08H191Z" fill="#2e3d83"/>
    <path id="パス_458" data-name="パス 458" d="M204.05,1456.66a31.534,31.534,0,0,1-2.08,4v13.57h-2.38v-10.21a22.729,22.729,0,0,1-2,2.12,18.32,18.32,0,0,0-1.37-2.52,20.668,20.668,0,0,0,5.46-7.78Zm7.93,15.18c1,0,1.12-.67,1.29-3.5a6.586,6.586,0,0,0,2.2,1c-.29,3.44-.91,4.7-3.27,4.69h-3.42c-2.52,0-3.24-.8-3.24-3.62v-14.3H208V1463a33.983,33.983,0,0,0,5-3.5l1.76,2.08a48.382,48.382,0,0,1-6.8,3.86v5c0,1.18.14,1.38,1.1,1.38Z" fill="#2e3d83"/>
    <path id="パス_459" data-name="パス 459" d="M234.59,1471.48v2.2h-18v-2.2h7.82v-1.6H218.6v-2.16h5.78v-1.26H222.9v-3.84h-1.84a6.1,6.1,0,0,1-3.14,4.38,10.668,10.668,0,0,0-1.56-1.66,4.419,4.419,0,0,0,2.44-2.72h-2v-2.1H219v-2.1h-1.58v-2.09h9.08v2.08h-1.42v2.1H227v2.1h-1.88v3.5h1.72v1.6h5.78v2.16h-5.78v1.61Zm-11.7-11v-2.1h-1.68v2.1Zm7.12,3h-2.18v-6.76H230Zm3.72.86c0,1.1-.2,1.66-1,2a8.248,8.248,0,0,1-3.14.38,9.174,9.174,0,0,0-.7-2.11h2.16c.3,0,.38-.08.38-.34v-8.5h2.26Z" fill="#2e3d83"/>
    <path id="パス_460" data-name="パス 460" d="M121.86,1481.16c0,.44-.06.88-.07,1.52v6.76a16.481,16.481,0,0,0,.06,1.74h-3c0-.38.1-1.16.1-1.76v-6.75a13.527,13.527,0,0,0-.07-1.52Zm9.22-.18c0,.56-.08,1.2-.08,2v4c0,4.31-.84,6.14-2.32,7.78a11.617,11.617,0,0,1-4.86,2.9l-2.1-2.2a9.352,9.352,0,0,0,4.9-2.52c1.36-1.5,1.62-3,1.62-6.12V1483a14.222,14.222,0,0,0-.12-2Z" fill="#2e3d83"/>
    <path id="パス_461" data-name="パス 461" d="M137.43,1482.31l2.92.62c-.16.56-.4,1.54-.48,2a45.566,45.566,0,0,1-1.7,6,28.493,28.493,0,0,1-2.95,5.72l-2.8-1.18a24.812,24.812,0,0,0,3.11-5.56,28.439,28.439,0,0,0,1.9-7.6Zm5.08.6,2.67-.86c.82,1.56,2.19,4.65,2.95,6.57s1.76,5,2.32,7l-3,1a63.032,63.032,0,0,0-2.08-7.06,56.968,56.968,0,0,0-2.86-6.65Z" fill="#2e3d83"/>
    <path id="パス_462" data-name="パス 462" d="M155.44,1493.36c0,.86.4,1.08,1.3,1.26a18.535,18.535,0,0,0,2.32.13,33.886,33.886,0,0,0,7-.7V1497a56.911,56.911,0,0,1-7.12.42,21.978,21.978,0,0,1-3.37-.25,2.853,2.853,0,0,1-2.73-3v-10.9a18.782,18.782,0,0,0-.15-2.08h3a15.244,15.244,0,0,0-.17,2.08V1487a50.5,50.5,0,0,0,6.92-2.21,12.64,12.64,0,0,0,2.19-1.08l1.07,2.54c-.78.32-1.68.7-2.34.94a69.051,69.051,0,0,1-7.84,2.43Zm8.77-9.61a22.154,22.154,0,0,0-1.56-2.76l1.58-.66c.5.74,1.22,2,1.6,2.74Zm2.38-4.32a24.92,24.92,0,0,1,1.62,2.72l-1.58.68a21.177,21.177,0,0,0-1.62-2.76Z" fill="#2e3d83"/>
    <path id="パス_463" data-name="パス 463" d="M172.27,1481.19a12.862,12.862,0,0,0-.07,1.52v6.76a16.479,16.479,0,0,0,.06,1.74h-3c0-.38.1-1.16.1-1.76v-6.74a13.541,13.541,0,0,0-.08-1.52Zm9.22-.17c0,.56-.08,1.2-.09,2v4c0,4.3-.84,6.14-2.32,7.78a11.648,11.648,0,0,1-4.87,2.9l-2.1-2.2a9.386,9.386,0,0,0,4.91-2.52c1.36-1.5,1.62-3,1.62-6.12V1483a14.377,14.377,0,0,0-.11-2Z" fill="#2e3d83"/>
    <path id="パス_464" data-name="パス 464" d="M193.61,1490.71a17.385,17.385,0,0,0,3.2-4l-6.16,1.22v5.3c0,1.24.36,1.68,2.54,1.68a35.3,35.3,0,0,0,6.32-.65l-.08,2.7a49.01,49.01,0,0,1-6.21.43c-4.56,0-5.22-1.1-5.21-3.46v-5.46c-1.78.35-3.36.67-4.2.87l-.48-2.62c.94-.12,2.7-.42,4.68-.78V1483a16.713,16.713,0,0,0-.16-2.28h3a15.011,15.011,0,0,0-.19,2.28v2.36c2.92-.54,5.72-1.12,6.62-1.32a6.524,6.524,0,0,0,1.42-.48l1.92,1.5c-.18.28-.48.72-.66,1.08a28.112,28.112,0,0,1-4.14,5.82Z" fill="#2e3d83"/>
    <path id="パス_465" data-name="パス 465" d="M209.32,1492.06a19,19,0,0,0,7.29-7.77l1.56,2.82a21.271,21.271,0,0,1-7.41,7.39,21.668,21.668,0,0,1-7.42,2.82l-1.68-2.64a20.605,20.605,0,0,0,7.66-2.62Zm0-6.48-2,2.1a42.644,42.644,0,0,0-5-4.33l1.88-2a42.043,42.043,0,0,1,5.13,4.23Z" fill="#2e3d83"/>
    <path id="パス_466" data-name="パス 466" d="M235.26,1483.82a9.385,9.385,0,0,0-.66,1.42,22.969,22.969,0,0,1-2.76,5.48c.74.46,1.42.92,1.92,1.28l-1.82,2.34a23.371,23.371,0,0,0-1.86-1.42,19.12,19.12,0,0,1-7.39,5l-2.32-2a17,17,0,0,0,7.47-4.48c-1.36-.88-2.72-1.7-3.74-2.28l1.7-1.9c1.06.54,2.42,1.3,3.76,2.11a14.573,14.573,0,0,0,2.08-4.26H225.9a23.537,23.537,0,0,1-5.28,5.16l-2.16-1.66a18.3,18.3,0,0,0,6.38-6.64,9.268,9.268,0,0,0,.91-2.1l2.9.9c-.49.7-1,1.62-1.25,2h4.1a6.464,6.464,0,0,0,1.75-.22Z" fill="#2e3d83"/>
    <path id="パス_467" data-name="パス 467" d="M236.46,1487.32c.72.06,2.18.12,3.22.12h10.74c.92,0,1.82-.08,2.34-.12v3.14c-.48,0-1.5-.1-2.34-.1H239.68a30.545,30.545,0,0,0-3.22.1Z" fill="#2e3d83"/>
    <path id="パス_468" data-name="パス 468" d="M258.86,1481.21a16.7,16.7,0,0,0-.48,1.76,52.477,52.477,0,0,0-.95,7.67,9.133,9.133,0,0,0,.08,1.28c.26-.7.58-1.36.88-2l1.22,1a47.336,47.336,0,0,0-1.42,4.72,3.9,3.9,0,0,0-.1.92v.82l-2.24.16a23.929,23.929,0,0,1-.78-6.33,58.374,58.374,0,0,1,.83-8.26,15,15,0,0,0,.18-1.94Zm12.15,15a21.35,21.35,0,0,0-2.4-2c-.12,1.88-1.2,3.24-3.88,3.24s-4.44-1.16-4.44-3.24,1.7-3.4,4.4-3.4a8.989,8.989,0,0,1,1.3.08c-.06-1.22-.11-2.66-.13-4.06h-1.42a33.5,33.5,0,0,1-3.46-.12v-2.36a32.79,32.79,0,0,0,3.46.18h1.4v-2.2a11.313,11.313,0,0,0-.12-1.3h2.84a12.43,12.43,0,0,0-.12,1.28c0,.44-.06,1.18-.06,2.06,1.08-.12,2.12-.26,3.06-.46v2.46c-1,.14-2,.26-3.08.34,0,1.92.13,3.5.21,4.84a12.769,12.769,0,0,1,3.82,2.57Zm-4.92-3.23a6.179,6.179,0,0,0-1.6-.22c-1.12,0-1.88.46-1.88,1.2s.8,1.16,1.84,1.16c1.22,0,1.64-.64,1.64-1.8Z" fill="#2e3d83"/>
    <path id="パス_469" data-name="パス 469" d="M283.69,1485a29.021,29.021,0,0,1-3.44.68,36.581,36.581,0,0,1-4.25,8.48l-2.42-1.22a30.289,30.289,0,0,0,4.05-7h-1c-.82,0-1.62,0-2.48-.06l-.18-2.32a25.228,25.228,0,0,0,2.64.14c.58,0,1.18,0,1.78-.06a16.9,16.9,0,0,0,.54-3.32l2.74.28c-.16.639-.4,1.639-.68,2.7a20.973,20.973,0,0,0,2.66-.621Zm2.6,1.79c-.06.84,0,1.66,0,2.54,0,.56.06,1.52.11,2.5a13.187,13.187,0,0,1,4.1,2.54l-1.32,2.12a17.59,17.59,0,0,0-2.68-2.1v.18c0,1.84-1,3.28-3.82,3.28-2.46,0-4.4-1.11-4.4-3.29,0-1.94,1.62-3.44,4.38-3.44a7.3,7.3,0,0,1,1.34.08c-.06-1.48-.15-3.22-.21-4.42Zm-2.19,6.56a7.018,7.018,0,0,0-1.6-.21c-1.14,0-1.88.48-1.88,1.18s.62,1.24,1.7,1.24a1.6,1.6,0,0,0,1.78-1.83Zm5.59-5.5a27.01,27.01,0,0,0-4.76-2.83l1.28-2a36.741,36.741,0,0,1,4.88,2.69Z" fill="#2e3d83"/>
  </g>
  <path id="パス_470" data-name="パス 470" d="M91.98,408.08H73.55" fill="none" stroke="#2e3d83" stroke-miterlimit="10" stroke-width="0.9"/>
  <path id="パス_471" data-name="パス 471" d="M89.67,376.29H350.06v65.05H89.67Z" fill="#fff"/>
  <path id="パス_472" data-name="パス 472" d="M349.53,377.2v63.42L90.2,440.43V377.01l259.28.19m1.11-1.63-261.5-.18v66.67l261.5.19.05-66.68Z" fill="#ff96b3"/>
  <path id="パス_473" data-name="パス 473" d="M118.23,400.46a18.852,18.852,0,0,0,1.64-1.52c.9-.92,2.48-2.88,3.85-4.52,1.2-1.4,2.28-1.54,3.92-.16a47.354,47.354,0,0,1,4.07,4.07c1.34,1.44,3.48,3.72,4.92,5.38l-2.14,2.34c-1.28-1.66-3.1-3.8-4.28-5.19a46.976,46.976,0,0,0-3.66-4c-.7-.6-1.06-.6-1.62.12-.8,1-2.2,3-3,4.06l-1.28,1.86Z" fill="#2e3d83"/>
  <path id="パス_474" data-name="パス 474" d="M138.16,405.77a9.4,9.4,0,0,0,3.41-4.78c.56-1.72.58-5.5.59-7.92a7.282,7.282,0,0,0-.18-1.82h2.94a12.755,12.755,0,0,0-.14,1.8,44.11,44.11,0,0,1-.61,8.6,11.531,11.531,0,0,1-3.57,5.74Zm9.27.31a7.592,7.592,0,0,0,.16-1.48V392.94a8.969,8.969,0,0,0-.16-1.73h3a10.244,10.244,0,0,0-.14,1.74v10.46a12.672,12.672,0,0,0,4.94-4.22l1.54,2.2a22.007,22.007,0,0,1-6.78,5.46,5.161,5.161,0,0,0-.88.6Z" fill="#2e3d83"/>
  <path id="パス_475" data-name="パス 475" d="M163.12,392.71l2.92.6a19.063,19.063,0,0,0-.49,2,49.985,49.985,0,0,1-1.7,6,27.511,27.511,0,0,1-3,5.72l-2.81-1.18a23.783,23.783,0,0,0,3.13-5.56A29.213,29.213,0,0,0,163.12,392.71Zm5.08.6,2.66-.86a71.55,71.55,0,0,1,2.93,6.57c.72,1.8,1.78,5,2.34,7l-3,1a62.044,62.044,0,0,0-2.08-7.07,56.027,56.027,0,0,0-2.85-6.64Zm6.36-3.56a2.4,2.4,0,1,1-2.4,2.4A2.4,2.4,0,0,1,174.56,389.75Zm0,3.54a1.14,1.14,0,0,0,1.16-1.12v-.01a1.16,1.16,0,1,0-1.16,1.13Z" fill="#2e3d83"/>
  <path id="パス_476" data-name="パス 476" d="M179.21,397.28c.72.06,2.18.12,3.22.12h10.75c.92,0,1.82-.08,2.34-.12v3.14c-.48,0-1.5-.1-2.34-.1H182.43a30.537,30.537,0,0,0-3.22.1Z" fill="#2e3d83"/>
  <path id="パス_477" data-name="パス 477" d="M134,413a9.508,9.508,0,0,0-.7,1.24,28.96,28.96,0,0,1-3.14,5.49,56.031,56.031,0,0,1,5.57,5.73l-2.28,2a47.077,47.077,0,0,0-5-5.67,26.54,26.54,0,0,1-7.53,5.62l-2.06-2.16a22.7,22.7,0,0,0,8.21-5.74,15.494,15.494,0,0,0,3-4.9h-6.78c-.84,0-1.94.12-2.36.14v-2.84a22.429,22.429,0,0,0,2.36.14h7a7.234,7.234,0,0,0,2.08-.26Z" fill="#2e3d83"/>
  <path id="パス_478" data-name="パス 478" d="M154.08,416.42a15.39,15.39,0,0,0,1.82-.12v2.6c-.5,0-1.26-.06-1.82-.06h-4.82A12.522,12.522,0,0,1,148,424a9.6,9.6,0,0,1-4,3.84l-2.34-1.71a8.288,8.288,0,0,0,3.62-2.85,8.513,8.513,0,0,0,1.25-4.42H141a15.24,15.24,0,0,0-1.92.08v-2.62c.6.06,1.3.12,1.92.12Zm-10.54-2.75a18.265,18.265,0,0,0-2.14.08v-2.58a14.882,14.882,0,0,0,2.12.14h8a15.907,15.907,0,0,0,2.17-.14v2.58c-.7,0-1.46-.08-2.16-.08Z" fill="#2e3d83"/>
  <path id="パス_479" data-name="パス 479" d="M159.2,417.26c.72.07,2.18.13,3.22.13h10.74c.92,0,1.82-.07,2.34-.11v3.14c-.48,0-1.5-.1-2.34-.1H162.42a30.554,30.554,0,0,0-3.22.1Z" fill="#2e3d83"/>
  <path id="パス_480" data-name="パス 480" d="M185,418.08l-1.46,2.24a52.237,52.237,0,0,0-4.56-2.84l1.46-2.22C181.8,416,184,417.36,185,418.08Zm1.62,4.59a20.394,20.394,0,0,0,7.78-7.5l1.54,2.72a23.7,23.7,0,0,1-14.65,9.65l-1.5-2.64a22.582,22.582,0,0,0,6.85-2.23Zm1.46-9.11-1.5,2.22c-1.12-.78-3.2-2.14-4.52-2.88l1.46-2.2c1.34.74,3.54,2.14,4.58,2.86Z" fill="#2e3d83"/>
  <path id="パス_481" data-name="パス 481" d="M213.17,426.71v1.36h-2.52v-.8h-7.58a14.473,14.473,0,0,0-1.72.06v-2.46a17.146,17.146,0,0,0,1.74.08h7.56v-2.66h-8.57V420c.52,0,1.42.06,2.18.06h6.38V417.6h-6.6a23.122,23.122,0,0,0-2.48.08v-2.43c.52.06,1.74.11,2.48.11h9.1v1.34Z" fill="#2e3d83"/>
  <path id="パス_482" data-name="パス 482" d="M227.34,422.07a18.879,18.879,0,0,0,7.28-7.77l1.56,2.82a21.224,21.224,0,0,1-7.41,7.4,21.863,21.863,0,0,1-7.42,2.81l-1.68-2.64a20.675,20.675,0,0,0,7.67-2.62Zm0-6.48-2,2.1a41.536,41.536,0,0,0-5-4.32l1.88-2A42.047,42.047,0,0,1,227.34,415.59Z" fill="#2e3d83"/>
  <path id="パス_483" data-name="パス 483" d="M243.08,411.2a16.7,16.7,0,0,0-.48,1.76,52.481,52.481,0,0,0-.94,7.66,9.118,9.118,0,0,0,.07,1.28c.26-.7.59-1.36.89-2l1.22,1a45.155,45.155,0,0,0-1.43,4.72,3.9,3.9,0,0,0-.1.92v.82l-2.24.15a23.894,23.894,0,0,1-.78-6.32,60.072,60.072,0,0,1,.83-8.26,14.824,14.824,0,0,0,.18-1.94Zm12.15,15a19.341,19.341,0,0,0-2.39-2c-.13,1.88-1.21,3.24-3.89,3.24s-4.44-1.16-4.44-3.24,1.71-3.4,4.41-3.4a8.981,8.981,0,0,1,1.3.08c-.06-1.22-.12-2.66-.14-4.06h-1.42a33.528,33.528,0,0,1-3.46-.12v-2.36a32.774,32.774,0,0,0,3.46.18h1.4v-2.2a11.34,11.34,0,0,0-.12-1.3h2.84a12.464,12.464,0,0,0-.12,1.28c0,.44-.06,1.18-.06,2.06,1.08-.12,2.12-.26,3.06-.46v2.46c-1,.14-2,.26-3.08.34,0,1.92.14,3.5.22,4.84a12.4,12.4,0,0,1,3.82,2.57Zm-4.91-3.23a6.174,6.174,0,0,0-1.6-.22c-1.12,0-1.88.46-1.89,1.2s.8,1.16,1.84,1.16c1.22,0,1.64-.64,1.65-1.8Z" fill="#2e3d83"/>
  <path id="パス_484" data-name="パス 484" d="M268.84,414.94a28.984,28.984,0,0,1-3.44.68,36.232,36.232,0,0,1-4.25,8.48l-2.42-1.22a30.238,30.238,0,0,0,4-7h-1c-.82,0-1.62,0-2.48-.06l-.18-2.32a25.045,25.045,0,0,0,2.64.14c.58,0,1.18,0,1.78-.06a16.886,16.886,0,0,0,.54-3.32l2.74.28c-.16.64-.4,1.64-.68,2.7a20.89,20.89,0,0,0,2.66-.62Zm2.6,1.79c-.06.83,0,1.66,0,2.54,0,.56.06,1.52.12,2.5a13.173,13.173,0,0,1,4.1,2.54l-1.33,2.12a17.6,17.6,0,0,0-2.68-2.1v.18c0,1.84-1,3.28-3.82,3.27-2.46,0-4.4-1.1-4.4-3.28,0-1.94,1.63-3.44,4.39-3.44a7.322,7.322,0,0,1,1.34.08c-.06-1.48-.16-3.22-.22-4.42Zm-2.18,6.55a6.99,6.99,0,0,0-1.61-.2c-1.13,0-1.88.48-1.88,1.18s.62,1.24,1.7,1.24c1.34,0,1.78-.77,1.78-1.84Zm5.58-5.49a26.46,26.46,0,0,0-4.76-2.83l1.28-2a36.763,36.763,0,0,1,4.88,2.69Z" fill="#2e3d83"/>
  <path id="パス_485" data-name="パス 485" d="M91.98,500.08H73.55" fill="none" stroke="#2e3d83" stroke-miterlimit="10" stroke-width="0.9"/>
  <path id="パス_486" data-name="パス 486" d="M89.67,468.29H350.06v65.05H89.67Z" fill="#fff"/>
  <path id="パス_487" data-name="パス 487" d="M349.53,469.2v63.42L90.2,532.43V469.01l259.28.19m1.11-1.63-261.5-.18v66.67l261.5.19.05-66.68Z" fill="#ff96b3"/>
  <path id="パス_488" data-name="パス 488" d="M133.76,485.93a13.047,13.047,0,0,0,2.08-.14v2.74a20.619,20.619,0,0,0-2.08-.08H131c-.36,5.33-2.44,8.88-6.06,11.16l-2.7-1.8a7.47,7.47,0,0,0,1.9-1.12c2.1-1.6,3.76-4.06,4.08-8.24H124a16.389,16.389,0,0,1-3.22,4.2l-2.52-1.52a15.326,15.326,0,0,0,3.46-4.12,12.66,12.66,0,0,0,1.17-2.72,7.844,7.844,0,0,0,.42-2.06l3.08.62c-.22.5-.48,1.2-.64,1.62s-.34.94-.56,1.46Z" fill="#2e3d83"/>
  <path id="パス_489" data-name="パス 489" d="M156.48,485a10.157,10.157,0,0,0-.78,1,20.17,20.17,0,0,1-4.83,5.48l-2.06-1.66a11.933,11.933,0,0,0,3.69-3.72H142.07c-.84,0-1.5.06-2.44.14v-2.78a15.957,15.957,0,0,0,2.44.2h10.78a10.018,10.018,0,0,0,2-.18Zm-8.17,2.7c0,5-.1,9-5.57,12l-2.31-1.91a7.92,7.92,0,0,0,2.1-1.1c2.54-1.75,3-3.87,3-7.15a11.2,11.2,0,0,0-.14-1.81Z" fill="#2e3d83"/>
  <path id="パス_490" data-name="パス 490" d="M131.08,504.3a8.875,8.875,0,0,0,1.14-.08,2.189,2.189,0,0,1,0-.38,2.4,2.4,0,1,1,2.41,2.39h-.01a1.133,1.133,0,0,1-.26,0l-.16.6a20.2,20.2,0,0,1-3,7.28,16,16,0,0,1-8,5.51l-2.18-2.38a13.2,13.2,0,0,0,7.85-4.7,12.843,12.843,0,0,0,2.36-5.64h-9.32a19.955,19.955,0,0,0-2.38.08v-2.82a22.3,22.3,0,0,0,2.38.16Zm4.65-.45a1.16,1.16,0,1,0-1.047,1.047,1.16,1.16,0,0,0,1.047-1.047Z" fill="#2e3d83"/>
  <path id="パス_491" data-name="パス 491" d="M155.44,509a7.381,7.381,0,0,0-.38.84,14.376,14.376,0,0,1-3,5.54,15.046,15.046,0,0,1-7.15,4.32l-2-2.27a13.43,13.43,0,0,0,7-3.49,8.685,8.685,0,0,0,2.06-3.46H142.3a21.032,21.032,0,0,0-2.32.1V508c.84.08,1.7.12,2.32.12h9.9a4.226,4.226,0,0,0,1.46-.2Zm-13.62-5.81a16.817,16.817,0,0,0,2.08.1h7.7a19.17,19.17,0,0,0,2.17-.1v2.58c-.54,0-1.48-.06-2.2-.06H143.9c-.64,0-1.5,0-2.08.06Z" fill="#2e3d83"/>
  <path id="パス_492" data-name="パス 492" d="M167.34,514a19,19,0,0,0,7.28-7.77l1.56,2.82a21.188,21.188,0,0,1-7.41,7.39,21.668,21.668,0,0,1-7.42,2.82l-1.68-2.64a20.675,20.675,0,0,0,7.67-2.62Zm0-6.48-2,2.1a42.554,42.554,0,0,0-5-4.33l1.88-2a41.97,41.97,0,0,1,5.12,4.26Z" fill="#2e3d83"/>
  <path id="パス_493" data-name="パス 493" d="M183.08,503.16a16.7,16.7,0,0,0-.48,1.76,52.48,52.48,0,0,0-.94,7.66,9.131,9.131,0,0,0,.07,1.28c.26-.7.59-1.36.89-2l1.22,1a45.153,45.153,0,0,0-1.43,4.72,3.9,3.9,0,0,0-.1.92v.82l-2.24.16a23.9,23.9,0,0,1-.78-6.32,60.074,60.074,0,0,1,.83-8.26,14.829,14.829,0,0,0,.18-1.94Zm12.15,15a20.216,20.216,0,0,0-2.39-2c-.13,1.88-1.21,3.24-3.89,3.24s-4.44-1.17-4.44-3.25,1.71-3.4,4.41-3.39a8.964,8.964,0,0,1,1.3.08c-.06-1.22-.12-2.66-.14-4.06h-1.42a30.981,30.981,0,0,1-3.46-.13v-2.36c1.14.12,2.28.18,3.46.19h1.4v-2.2a11.336,11.336,0,0,0-.12-1.3h2.84a12.472,12.472,0,0,0-.12,1.28c0,.44-.06,1.18-.06,2.06,1.08-.12,2.12-.26,3.06-.46v2.46c-1,.14-2,.26-3.08.34,0,1.92.14,3.5.22,4.84a12.565,12.565,0,0,1,3.82,2.56Zm-4.91-3.22a6.176,6.176,0,0,0-1.6-.22c-1.12,0-1.88.46-1.89,1.2s.8,1.16,1.84,1.16c1.22,0,1.64-.64,1.65-1.8Z" fill="#2e3d83"/>
  <path id="パス_494" data-name="パス 494" d="M208.84,506.9a28.965,28.965,0,0,1-3.44.68,36.228,36.228,0,0,1-4.25,8.48l-2.42-1.23a30.008,30.008,0,0,0,4.05-7h-1c-.82,0-1.62,0-2.48-.07l-.18-2.32a25.037,25.037,0,0,0,2.64.14c.58,0,1.18,0,1.78-.05a16.884,16.884,0,0,0,.54-3.32l2.74.28c-.16.64-.4,1.64-.68,2.7a20.888,20.888,0,0,0,2.66-.62Zm2.6,1.78c-.06.84,0,1.66,0,2.54,0,.56.06,1.52.12,2.5a13.2,13.2,0,0,1,4.1,2.55l-1.33,2.12a17.667,17.667,0,0,0-2.68-2.11v.18c0,1.84-1,3.28-3.82,3.28-2.46,0-4.4-1.1-4.4-3.28,0-1.94,1.63-3.44,4.39-3.44a7.325,7.325,0,0,1,1.34.08c-.06-1.48-.16-3.22-.22-4.42Zm-2.18,6.56a6.989,6.989,0,0,0-1.61-.2c-1.13,0-1.88.48-1.88,1.18s.62,1.24,1.7,1.24c1.34,0,1.78-.78,1.78-1.84Zm5.58-5.5a26.444,26.444,0,0,0-4.76-2.82l1.28-2a34.678,34.678,0,0,1,4.88,2.69Z" fill="#2e3d83"/>
  <path id="パス_495" data-name="パス 495" d="M91.98,592.08H73.55" fill="none" stroke="#2e3d83" stroke-miterlimit="10" stroke-width="0.9"/>
  <path id="パス_496" data-name="パス 496" d="M89.67,560.29H350.06v65.05H89.67Z" fill="#fff"/>
  <path id="パス_497" data-name="パス 497" d="M349.53,561.2v63.42L90.2,624.43V561.01l259.28.19m1.11-1.63-261.5-.18v66.67l261.5.19.05-66.68Z" fill="#ff96b3"/>
  <path id="パス_498" data-name="パス 498" d="M125.59,583.14h10.64v9h-2.3v-.76h-6.16v.78h-2.18v-7.4l-.94,1.28a22.5,22.5,0,0,0-1.52-1.84v8h-2.34v-6.6a14.987,14.987,0,0,1-2,1.66,9.133,9.133,0,0,0-1.1-2.26,14.841,14.841,0,0,0,5.08-5.6h-4.34v-2.15h2.39v-3.68h2.34v3.68H124l.42-.1,1.3.84a20.145,20.145,0,0,1-2.05,4.1c.54.42,1.4,1.16,2,1.66Zm10.71-8.75v2H125.48v-2Zm-.94,2.86v5h-8.78v-5Zm-7.59,12.25h2v-1.36h-2Zm0-4.46v1.32h2V585Zm5.39-6h-4.48v1.44h4.48Zm.77,10.48v-1.36h-2.06v1.36Zm0-4.46h-2.06v1.32h2.06Z" fill="#2e3d83"/>
  <path id="パス_499" data-name="パス 499" d="M145.05,586.64a27.5,27.5,0,0,0-1.72-2.19v7.81H141v-6.78a16.334,16.334,0,0,1-2.22,1.8,10.267,10.267,0,0,0-1.08-2.26,14.92,14.92,0,0,0,5.24-5.6h-4.5v-2.14H141V573.6h2.34v3.68h.82l.4-.1,1.32.86a20.644,20.644,0,0,1-2.09,4.08c.88.76,2.32,2.15,2.7,2.55Zm11.7,2.94v2.31h-12v-2.3h1.78v-11.4h2.36v11.38h1.72V573.86h2.42v6.62h3.27v2.26h-3.26v6.84Z" fill="#2e3d83"/>
  <path id="パス_500" data-name="パス 500" d="M175.35,589.46c0,1.28-.28,1.92-1.08,2.28a9.155,9.155,0,0,1-3.84.41,9,9,0,0,0-.76-2.28c1.12.07,2.44,0,2.8,0s.52-.12.52-.48v-3h-4.22V592h-2.4v-5.58h-4.08a11.377,11.377,0,0,1-2.53,5.94,8.73,8.73,0,0,0-1.87-1.54c2.18-2.4,2.36-6,2.36-8.76v-7.15h15.1Zm-9-5.27v-2.46h-3.76v.36c0,.64,0,1.36-.06,2.1Zm-3.75-7v2.32h3.76v-2.32Zm10.37,7v-2.47h-4.22v2.46Zm0-7h-4.22v2.32H173Z" fill="#2e3d83"/>
  <path id="パス_501" data-name="パス 501" d="M184.31,588l2,1.59a34.1,34.1,0,0,1-6.45,2.69,20.835,20.835,0,0,0-1.63-1.82,26,26,0,0,0,6-2.46h-5.76v-2.2h17.78V588Zm9.24-3.11H181.31V574.32h12.24Zm-2.46-3h-7.44v1.2h7.44Zm0-2.88h-7.45v1.2h7.45Zm0-2.86h-7.44v1.2h7.44Zm-.85,12a65.381,65.381,0,0,1,6.3,2.58l-2.4,1.62a38.885,38.885,0,0,0-5.74-2.62Z" fill="#2e3d83"/>
  <path id="パス_502" data-name="パス 502" d="M123.08,595.12a16.7,16.7,0,0,0-.48,1.76,52.48,52.48,0,0,0-.94,7.66,9.119,9.119,0,0,0,.07,1.28c.26-.7.59-1.36.89-2l1.22,1a45.161,45.161,0,0,0-1.43,4.72,3.9,3.9,0,0,0-.1.92v.82l-2.24.16a23.9,23.9,0,0,1-.78-6.32,60.07,60.07,0,0,1,.83-8.26,14.838,14.838,0,0,0,.18-1.94Zm12.15,15a20.212,20.212,0,0,0-2.39-2c-.13,1.88-1.21,3.24-3.89,3.24s-4.44-1.17-4.44-3.25,1.71-3.4,4.41-3.4a8.964,8.964,0,0,1,1.3.08c-.06-1.22-.12-2.66-.14-4.06h-1.42a33.5,33.5,0,0,1-3.46-.12v-2.36a32.791,32.791,0,0,0,3.46.18h1.4v-2.2a11.341,11.341,0,0,0-.12-1.3h2.84a12.479,12.479,0,0,0-.12,1.28c0,.44-.06,1.18-.06,2.07,1.08-.12,2.12-.26,3.06-.46v2.46c-1,.14-2,.26-3.08.34,0,1.92.14,3.5.22,4.84a12.561,12.561,0,0,1,3.82,2.56Zm-4.91-3.22a5.782,5.782,0,0,0-1.6-.23c-1.12,0-1.88.46-1.89,1.2s.8,1.16,1.84,1.16c1.22,0,1.64-.63,1.65-1.79Z" fill="#2e3d83"/>
  <path id="パス_503" data-name="パス 503" d="M148.84,598.86a27.348,27.348,0,0,1-3.44.67,36.232,36.232,0,0,1-4.25,8.48l-2.42-1.22a30.283,30.283,0,0,0,4.05-7h-1c-.82,0-1.62,0-2.48-.06l-.18-2.32a25.029,25.029,0,0,0,2.64.14c.58,0,1.18,0,1.78-.06a16.884,16.884,0,0,0,.54-3.32l2.74.28c-.16.64-.4,1.64-.68,2.7a19.363,19.363,0,0,0,2.66-.61Zm2.6,1.78c-.06.84,0,1.66,0,2.54,0,.56.06,1.52.12,2.5a13.2,13.2,0,0,1,4.1,2.54l-1.33,2.12a17.6,17.6,0,0,0-2.68-2.1v.18c0,1.84-1,3.28-3.82,3.28-2.46,0-4.4-1.1-4.4-3.28,0-1.95,1.63-3.44,4.39-3.44a7.314,7.314,0,0,1,1.34.08c-.06-1.48-.16-3.22-.22-4.42Zm-2.18,6.56a6.992,6.992,0,0,0-1.61-.2c-1.13,0-1.88.48-1.88,1.18s.62,1.24,1.7,1.24c1.34,0,1.78-.78,1.78-1.84Zm5.58-5.5a26.448,26.448,0,0,0-4.76-2.82l1.28-2a35.689,35.689,0,0,1,4.88,2.68Z" fill="#2e3d83"/>
  <path id="パス_505" data-name="パス 505" d="M7.446-12.945H1.527v1.764H7.446Zm.51,2.626H.528v1.842H7.955ZM7.486-7.6H1.449v1.783H7.485ZM1.449-3.166H7.485V-4.91H1.449Zm4,5.056H3.37V-.363H5.447ZM18.91-8.065v-2.2H14.618v-3.273H12.227v3.273H8.249v2.195h2.567C10.679-4.087,10.424.146,7.465,2.752V-2.206H1.39V4.477H3.37V3.713h4.1V3.144A6.8,6.8,0,0,1,8.955,4.771c2.41-2.1,3.429-5.115,3.9-8.348h2.979c-.176,3.88-.372,5.467-.725,5.859a.791.791,0,0,1-.686.274c-.392,0-1.215-.02-2.077-.1a5.548,5.548,0,0,1,.666,2.214,17.169,17.169,0,0,0,2.548-.039,2.2,2.2,0,0,0,1.587-.862c.607-.764.823-2.939,1.058-8.544v-.96H13.089c.059-.784.1-1.548.137-2.332Zm7.49-2.959v1.058h-3v-1.058Zm-3,3.743V-8.4h3v1.117Zm5.173,1.764v-7.29H21.085V4.751H23.4V-5.517Zm2.254,3.273V.068H27.591V-2.245ZM33,1.988V-4.165H25.416v7.25h2.175v-1.1Zm-.862-9.25V-8.4h3.1v1.137Zm3.1-3.782v1.078h-3.1v-1.078ZM37.6-12.807H29.923V-5.5h5.311V1.929c0,.353-.137.47-.51.47-.372.02-1.7.039-2.842-.039a8.345,8.345,0,0,1,.784,2.391A9.626,9.626,0,0,0,36.507,4.3c.823-.372,1.1-1.039,1.1-2.332ZM53.38-2.323H46.286v-.843H53.38ZM46.286,2.341v-.9H53.38v.9ZM53.38-.011H46.286V-.873H53.38Zm4.194-5.722V-7.575h-9.7c.118-.274.235-.568.333-.843h8.309v-1.764H48.834c.1-.314.2-.627.274-.941a66.062,66.062,0,0,0,7.329-.7l-1.372-1.666a99.243,99.243,0,0,1-13.737.784,5.991,5.991,0,0,1,.431,1.744c1.529.02,3.155,0,4.782-.059-.059.294-.137.568-.216.843H41.544v1.764H45.7c-.118.274-.235.568-.372.843H40.172v1.842h4.174a13.059,13.059,0,0,1-4.782,4.566A13.508,13.508,0,0,1,41.034.714a15,15,0,0,0,3.018-2.352V4.81h2.234V4.1H53.38v.71h2.352V-4.93H46.56c.157-.274.314-.529.451-.8Zm7.682-7.212H60.239v1.764h5.017Zm.529,2.626H59.318v1.842h6.467ZM63.413-.383V1.871H61.865V-.383ZM65.275-2.2H60.062V4.477h1.8V3.693h3.41Zm-5.154-.96h5.193V-4.91H60.121Zm10.425-6.8v-.941h2.293v.725l-1.019-.157A9.366,9.366,0,0,1,71.33-9H69.214c.157-.314.294-.627.431-.941l-.078-.02Zm.725,2.979H69.292v-.588h1.979Zm0,1.744H69.292V-5.83h1.979Zm0,1.764H69.292v-.588h1.979ZM67.254-2.01H77.288V-3.48h-4v-.588h3.135V-5.243H73.29v-.588h3.135V-6.987H73.29v-.588h3.547V-9.006H73.388c.176-.294.353-.627.529-.96h1v-.941h2.43v-1.666h-2.43v-.98H72.839v.98H70.547v-.98H68.469v.98H66.02v1.666h2.45v.647l-.647-.176a9.648,9.648,0,0,1-2.508,3.625v-.784H60.121v1.783h5.193v-.862a14.582,14.582,0,0,1,1.372,1.137,7.268,7.268,0,0,0,.568-.588ZM73.623.224A8.51,8.51,0,0,1,71.7,1.459a7.891,7.891,0,0,1-2-1.235Zm1.92-1.744-.294.078H66.294V.224h2.685l-1.352.51A9.342,9.342,0,0,0,69.43,2.3a23.511,23.511,0,0,1-4.076.745,7.067,7.067,0,0,1,.921,1.744,24.216,24.216,0,0,0,5.311-1.333A19.115,19.115,0,0,0,76.407,4.73,7.428,7.428,0,0,1,77.72,2.908a23.18,23.18,0,0,1-3.743-.666,8.4,8.4,0,0,0,2.9-3.077Z" transform="translate(117.5 315.5)" fill="#2e3d83"/>
</svg>
