<svg xmlns="http://www.w3.org/2000/svg" xmlns:xlink="http://www.w3.org/1999/xlink" width="779.21" height="1526" viewBox="0 0 779.21 1526">
  <defs>
    <linearGradient id="linear-gradient" x1="0.178" y1="-8.397" x2="0.822" y2="-10.605" gradientUnits="objectBoundingBox">
      <stop offset="0" stop-color="#fcee21"/>
      <stop offset="1" stop-color="#fcee21"/>
    </linearGradient>
    <linearGradient id="linear-gradient-2" x1="0.178" y1="-4.956" x2="0.822" y2="-7.165" xlink:href="#linear-gradient"/>
    <linearGradient id="linear-gradient-3" x1="0.178" y1="-1.945" x2="0.822" y2="-4.154" xlink:href="#linear-gradient"/>
    <linearGradient id="linear-gradient-4" y1="19.901" x2="1" y2="19.901" gradientUnits="objectBoundingBox">
      <stop offset="0" stop-color="#ff93ac"/>
      <stop offset="0.37" stop-color="#ff7bac"/>
      <stop offset="1" stop-color="#e363ac"/>
    </linearGradient>
    <linearGradient id="linear-gradient-5" y1="3.266" x2="1" y2="3.266" gradientUnits="objectBoundingBox">
      <stop offset="0" stop-color="#c4bddd"/>
      <stop offset="0.49" stop-color="#b2b2d8"/>
      <stop offset="1" stop-color="#7d5fa6"/>
    </linearGradient>
    <linearGradient id="linear-gradient-6" y1="8.63" x2="1" y2="8.63" gradientUnits="objectBoundingBox">
      <stop offset="0" stop-color="#fcd26d"/>
      <stop offset="0.49" stop-color="#f5c241"/>
      <stop offset="1" stop-color="#f7931e"/>
    </linearGradient>
    <linearGradient id="linear-gradient-7" y1="-16.161" x2="1" y2="-16.161" gradientUnits="objectBoundingBox">
      <stop offset="0" stop-color="#a6d3a2"/>
      <stop offset="0.51" stop-color="#72bb7f"/>
      <stop offset="1" stop-color="#22b573"/>
    </linearGradient>
    <linearGradient id="linear-gradient-8" y1="-10.564" x2="1" y2="-10.564" gradientUnits="objectBoundingBox">
      <stop offset="0" stop-color="#bbe2f1"/>
      <stop offset="0.52" stop-color="#8ad1ec"/>
      <stop offset="1" stop-color="#4fc2f1"/>
    </linearGradient>
    <linearGradient id="linear-gradient-9" y1="-4.223" x2="1" y2="-4.223" gradientUnits="objectBoundingBox">
      <stop offset="0" stop-color="#ffefac"/>
      <stop offset="0.52" stop-color="#fff088"/>
      <stop offset="1" stop-color="#fcee21"/>
    </linearGradient>
    <linearGradient id="linear-gradient-10" y1="13.87" x2="1" y2="13.87" gradientUnits="objectBoundingBox">
      <stop offset="0" stop-color="#f2a1a9"/>
      <stop offset="0.61" stop-color="#ff686a"/>
      <stop offset="1" stop-color="#ea5c64"/>
    </linearGradient>
    <linearGradient id="linear-gradient-11" y1="-22.316" x2="1" y2="-22.316" gradientUnits="objectBoundingBox">
      <stop offset="0" stop-color="#a6d3a2"/>
      <stop offset="0.51" stop-color="#bbcf9f"/>
      <stop offset="1" stop-color="#72b746"/>
    </linearGradient>
    <linearGradient id="linear-gradient-12" y1="19.714" x2="1" y2="19.714" gradientUnits="objectBoundingBox">
      <stop offset="0" stop-color="#ff93ac"/>
      <stop offset="0.37" stop-color="#ff7bac"/>
      <stop offset="1" stop-color="#ff688b"/>
    </linearGradient>
    <linearGradient id="linear-gradient-13" y1="16.637" y2="16.637" xlink:href="#linear-gradient-12"/>
  </defs>
  <g id="organization-pc" transform="translate(0 -8)">
    <path id="パス_1" data-name="パス 1" d="M620.05,238.55H777.44v44.39H620.05Z" fill="#fff"/>
    <path id="パス_2" data-name="パス 2" d="M776.89,239.11v43.28H620.61V239.11ZM778,238H619.5v45.5H778Z" fill="#ff96b3"/>
    <path id="パス_3" data-name="パス 3" d="M119,174v34.5" fill="none" stroke="#2e3d83" stroke-miterlimit="10" stroke-width="1"/>
    <path id="パス_4" data-name="パス 4" d="M237.5,241.25h67" fill="none" stroke="#2e3d83" stroke-miterlimit="10" stroke-width="1"/>
    <path id="パス_5" data-name="パス 5" d="M304.5,141V1501.5" fill="none" stroke="#2e3d83" stroke-miterlimit="10" stroke-width="1"/>
    <path id="パス_6" data-name="パス 6" d="M361.25,140.25H304" fill="none" stroke="#2e3d83" stroke-miterlimit="10" stroke-width="0.9"/>
    <path id="パス_7" data-name="パス 7" d="M362,918.25H304" fill="none" stroke="#2e3d83" stroke-miterlimit="10" stroke-width="1.02"/>
    <path id="パス_8" data-name="パス 8" d="M362,1501.75H304" fill="none" stroke="#2e3d83" stroke-miterlimit="10" stroke-width="0.91"/>
    <path id="パス_9" data-name="パス 9" d="M540.37,140.25H579.5" fill="none" stroke="#2e3d83" stroke-miterlimit="10" stroke-width="1"/>
    <path id="パス_10" data-name="パス 10" d="M620.05,158.55H777.44v44.39H620.05Z" fill="#fff"/>
    <path id="パス_11" data-name="パス 11" d="M776.89,159.11v43.28H620.61V159.11ZM778,158H619.5v45.5H778Z" fill="#ff96b3"/>
    <path id="パス_12" data-name="パス 12" d="M620.05,78.55H777.44v44.39H620.05Z" fill="#fff"/>
    <path id="パス_13" data-name="パス 13" d="M776.89,79.11v43.28H620.61V79.11ZM778,78H619.5v45.5H778Z" fill="#ff96b3"/>
    <path id="パス_14" data-name="パス 14" d="M620.05,8.55H777.44V52.94H620.05Z" fill="#fff"/>
    <path id="パス_15" data-name="パス 15" d="M776.89,9.11V52.39H620.61V9.11ZM778,8H619.5V53.5H778Z" fill="#ff96b3"/>
    <g id="グループ_1" data-name="グループ 1">
      <path id="パス_20" data-name="パス 20" d="M650.1,37.24a6.582,6.582,0,0,0-.56,1,23.912,23.912,0,0,1-2.51,4.4,45.6,45.6,0,0,1,4.46,4.58l-1.82,1.58a36.381,36.381,0,0,0-4-4.53,20.755,20.755,0,0,1-6,4.5L638,47a18.16,18.16,0,0,0,6.56-4.59,12.332,12.332,0,0,0,2.38-3.92h-5.42c-.67,0-1.55.09-1.89.11V36.36c.43.06,1.41.11,1.89.11h5.63a5.851,5.851,0,0,0,1.67-.21Z" fill="#2e3d83"/>
      <path id="パス_21" data-name="パス 21" d="M666.13,40a13.2,13.2,0,0,0,1.46-.1V42c-.4,0-1-.05-1.46-.05h-3.86a10.187,10.187,0,0,1-1,4.12A7.667,7.667,0,0,1,658,49.13l-1.87-1.36a6.61,6.61,0,0,0,2.9-2.29,6.889,6.889,0,0,0,1-3.54h-4.4a11.2,11.2,0,0,0-1.54.07v-2.1a14.759,14.759,0,0,0,1.54.1Zm-8.43-2.2a13.494,13.494,0,0,0-1.72.07V35.81a11.937,11.937,0,0,0,1.7.12h6.43a12.524,12.524,0,0,0,1.733-.12l0,2.07c-.56,0-1.17-.07-1.73-.07Z" fill="#2e3d83"/>
      <path id="パス_22" data-name="パス 22" d="M670.22,40.68c.58,0,1.75.1,2.58.1h8.6c.73,0,1.45-.07,1.87-.1v2.51c-.39,0-1.2-.08-1.87-.08h-8.6a24.417,24.417,0,0,0-2.58.08Z" fill="#2e3d83"/>
      <path id="パス_23" data-name="パス 23" d="M690.88,41.32l-1.17,1.79a42.216,42.216,0,0,0-3.65-2.27l1.17-1.78C688.3,39.64,690.06,40.74,690.88,41.32Zm1.3,3.66a16.279,16.279,0,0,0,6.22-6l1.24,2.18a19.457,19.457,0,0,1-6.37,5.75,20,20,0,0,1-5.35,2l-1.2-2.11a17.855,17.855,0,0,0,5.46-1.8Zm1.17-7.28-1.21,1.78c-.89-.63-2.56-1.71-3.61-2.31l1.17-1.76C690.75,36,692.51,37.13,693.35,37.7Z" fill="#2e3d83"/>
      <path id="パス_24" data-name="パス 24" d="M713.41,48.2v1.09h-2a5.682,5.682,0,0,0,0-.64h-6.07a11.242,11.242,0,0,0-1.38.05v-2c.28,0,.82.06,1.4.06h6v-2.1H704.5V42.81h6.86V40.92h-5.29c-.59,0-1.6,0-2,.06V39.05c.41,0,1.39.08,2,.08h7.29v1.08Z" fill="#2e3d83"/>
      <path id="パス_25" data-name="パス 25" d="M724.74,44.49a15.137,15.137,0,0,0,5.82-6.23l1.25,2.26a16.918,16.918,0,0,1-5.92,5.92A17.392,17.392,0,0,1,720,48.7l-1.34-2.11a16.693,16.693,0,0,0,6.08-2.1Zm0-5.19L723.1,41a32.922,32.922,0,0,0-4-3.45l1.51-1.6a33.616,33.616,0,0,1,4.13,3.35Z" fill="#2e3d83"/>
      <path id="パス_26" data-name="パス 26" d="M737.33,35.78a14.377,14.377,0,0,0-.39,1.41,42.121,42.121,0,0,0-.75,6.13,6.965,6.965,0,0,0,.07,1c.2-.56.46-1.08.7-1.61l1,.78a39.191,39.191,0,0,0-1.14,3.78,2.837,2.837,0,0,0-.08.74v.65l-1.8.13a19.1,19.1,0,0,1-.62-5.06,47.415,47.415,0,0,1,.65-6.61,10.881,10.881,0,0,0,.15-1.55Zm9.73,12a17.184,17.184,0,0,0-1.92-1.59c-.1,1.51-1,2.6-3.11,2.6s-3.55-.93-3.55-2.6,1.36-2.72,3.52-2.72a6.823,6.823,0,0,1,1,.07c0-1-.09-2.13-.11-3.25h-1.14c-.93,0-1.82,0-2.77-.09V38.28c.92.09,1.83.14,2.77.14h1.12V36.66a3.59,3.59,0,0,0-.09-1h2.27c0,.31-.08.69-.1,1s-.05.94-.05,1.65c.87-.1,1.7-.21,2.45-.37v2c-.76.11-1.6.21-2.46.27,0,1.54.11,2.8.17,3.87a10.047,10.047,0,0,1,3.06,2Zm-3.94-2.58a4.987,4.987,0,0,0-1.28-.18c-.9,0-1.5.37-1.5,1s.64.92,1.47.92c1,0,1.31-.51,1.31-1.44Z" fill="#2e3d83"/>
      <path id="パス_27" data-name="パス 27" d="M757.94,38.76a22.932,22.932,0,0,1-2.76.54,29.146,29.146,0,0,1-3.39,6.79l-1.94-1a24.457,24.457,0,0,0,3.24-5.6h-.82c-.66,0-1.3,0-2-.05l-.15-1.86a20.284,20.284,0,0,0,2.12.11h1.42a13.6,13.6,0,0,0,.43-2.66l2.19.22c-.12.52-.31,1.32-.54,2.16a15.54,15.54,0,0,0,2.13-.49ZM760,40.18a19.587,19.587,0,0,0,0,2c0,.44.05,1.21.09,2a10.439,10.439,0,0,1,3.29,2L762.34,48a13,13,0,0,0-2.15-1.68v.14c0,1.47-.8,2.62-3.05,2.62-2,0-3.52-.88-3.52-2.62,0-1.55,1.29-2.75,3.5-2.75a6.168,6.168,0,0,1,1.07.06c0-1.18-.12-2.58-.17-3.54Zm-1.75,5.25a5.879,5.879,0,0,0-1.28-.16c-.91,0-1.5.39-1.5.95s.5,1,1.36,1c1.07,0,1.42-.62,1.42-1.47Zm4.47-4.4a20.806,20.806,0,0,0-3.81-2.26l1-1.56a27.349,27.349,0,0,1,3.91,2.14Z" fill="#2e3d83"/>
      <path id="パス_28" data-name="パス 28" d="M637.44,92.26A16.235,16.235,0,0,0,638.75,91c.72-.74,2-2.31,3.07-3.62,1-1.12,1.83-1.23,3.14-.13a41.614,41.614,0,0,1,3.27,3.25c1.07,1.16,2.78,3,3.93,4.31l-1.71,1.87c-1-1.33-2.48-3-3.42-4.14a38.039,38.039,0,0,0-2.93-3.17c-.56-.48-.85-.48-1.3.09-.64.8-1.76,2.39-2.42,3.25l-1,1.49Z" fill="#2e3d83"/>
      <path id="パス_29" data-name="パス 29" d="M653.39,96.5a7.548,7.548,0,0,0,2.72-3.83,27.454,27.454,0,0,0,.46-6.34,5.615,5.615,0,0,0-.14-1.45h2.35a11.369,11.369,0,0,0-.11,1.44,35.466,35.466,0,0,1-.48,6.88,9.2,9.2,0,0,1-2.85,4.59Zm7.41.24a6.428,6.428,0,0,0,.13-1.19V86.22a6.5,6.5,0,0,0-.13-1.37h2.39a7.2,7.2,0,0,0-.12,1.39v8.37a10.22,10.22,0,0,0,4-3.38L668.26,93a17.515,17.515,0,0,1-5.43,4.37,4.644,4.644,0,0,0-.7.48Z" fill="#2e3d83"/>
      <path id="パス_30" data-name="パス 30" d="M673.34,86l2.34.48c-.14.46-.32,1.25-.38,1.6a41.983,41.983,0,0,1-1.36,4.82,22.648,22.648,0,0,1-2.37,4.58l-2.24-1a19.334,19.334,0,0,0,2.49-4.45A23,23,0,0,0,673.34,86Zm4.07.48,2.13-.69c.65,1.25,1.76,3.7,2.35,5.25s1.43,4,1.87,5.59l-2.36.77a48.928,48.928,0,0,0-1.67-5.65,45.805,45.805,0,0,0-2.32-5.24Zm5.09-2.85a1.9,1.9,0,1,0,0,.03Zm0,2.83a.92.92,0,0,0,.93-.91.93.93,0,1,0-1.86-.007v.007a.92.92,0,0,0,.9.94h.03Z" fill="#2e3d83"/>
      <path id="パス_31" data-name="パス 31" d="M686.22,89.68c.58,0,1.75.1,2.58.1h8.6c.73,0,1.45-.07,1.87-.1v2.51c-.39,0-1.2-.08-1.87-.08h-8.6a24.416,24.416,0,0,0-2.58.08Z" fill="#2e3d83"/>
      <path id="パス_32" data-name="パス 32" d="M650.1,106.24a6.587,6.587,0,0,0-.56,1,23.908,23.908,0,0,1-2.51,4.4,45.61,45.61,0,0,1,4.46,4.58l-1.82,1.58a36.371,36.371,0,0,0-4-4.53,20.756,20.756,0,0,1-6,4.5L638,116a18.16,18.16,0,0,0,6.56-4.59,12.332,12.332,0,0,0,2.38-3.92h-5.42c-.67,0-1.55.09-1.89.11v-2.27c.43.06,1.41.11,1.89.11h5.63a5.852,5.852,0,0,0,1.67-.21Z" fill="#2e3d83"/>
      <path id="パス_33" data-name="パス 33" d="M666.13,109a13.2,13.2,0,0,0,1.46-.1V111h-5.32a10.169,10.169,0,0,1-1,4.12,7.669,7.669,0,0,1-3.22,3.07l-1.87-1.36a6.6,6.6,0,0,0,2.9-2.29,6.889,6.889,0,0,0,1-3.54h-4.4a11.2,11.2,0,0,0-1.54.07v-2.1c.48,0,1,.1,1.54.1Zm-8.43-2.2a13.491,13.491,0,0,0-1.72.07V104.8a11.937,11.937,0,0,0,1.7.12h6.43a12.524,12.524,0,0,0,1.733-.12l0,2.07c-.56,0-1.17-.07-1.73-.07Z" fill="#2e3d83"/>
      <path id="パス_34" data-name="パス 34" d="M670.22,109.68c.58,0,1.75.1,2.58.1h8.6c.73,0,1.45-.07,1.87-.1v2.51c-.39,0-1.2-.08-1.87-.08h-8.6a24.423,24.423,0,0,0-2.58.08Z" fill="#2e3d83"/>
      <path id="パス_35" data-name="パス 35" d="M690.88,110.32l-1.17,1.79a42.2,42.2,0,0,0-3.65-2.27l1.17-1.78c1.07.58,2.83,1.68,3.65,2.26Zm1.3,3.66a16.279,16.279,0,0,0,6.22-6l1.24,2.18a19.457,19.457,0,0,1-6.37,5.75,20,20,0,0,1-5.35,2l-1.2-2.11a17.855,17.855,0,0,0,5.46-1.8Zm1.17-7.28-1.21,1.78c-.89-.63-2.56-1.71-3.61-2.31l1.17-1.76c1.05.59,2.81,1.72,3.65,2.29Z" fill="#2e3d83"/>
      <path id="パス_36" data-name="パス 36" d="M713.41,117.2v1.09h-2a5.682,5.682,0,0,0,0-.64h-7.45v-2c.28,0,.82.06,1.4.06h6v-2.13H704.5v-1.89h6.86v-1.94h-5.29c-.59,0-1.6,0-2,.06v-1.93c.41,0,1.39.08,2,.08h7.29v1.08Z" fill="#2e3d83"/>
      <path id="パス_37" data-name="パス 37" d="M724.74,113.49a15.137,15.137,0,0,0,5.82-6.23l1.25,2.26a16.918,16.918,0,0,1-5.92,5.92A17.393,17.393,0,0,1,720,117.7l-1.34-2.11a16.694,16.694,0,0,0,6.08-2.1Zm0-5.19L723.1,110a32.939,32.939,0,0,0-4-3.45l1.51-1.6a33.619,33.619,0,0,1,4.13,3.35Z" fill="#2e3d83"/>
      <path id="パス_38" data-name="パス 38" d="M737.33,104.78a14.378,14.378,0,0,0-.39,1.41,42.113,42.113,0,0,0-.75,6.13,6.965,6.965,0,0,0,.07,1c.2-.56.46-1.08.7-1.61l1,.78a39.191,39.191,0,0,0-1.14,3.78,2.837,2.837,0,0,0-.08.74v.65l-1.8.13a19.1,19.1,0,0,1-.62-5.06,47.415,47.415,0,0,1,.65-6.61,10.881,10.881,0,0,0,.15-1.55Zm9.73,12a17.183,17.183,0,0,0-1.92-1.59c-.1,1.51-1,2.6-3.11,2.6s-3.55-.93-3.55-2.6,1.36-2.72,3.52-2.72a6.825,6.825,0,0,1,1,.07c0-1-.09-2.13-.11-3.25h-1.14c-.93,0-1.82,0-2.77-.09v-1.89c.92.09,1.83.14,2.77.14h1.12v-1.76a4.142,4.142,0,0,0-.09-1.05h2.27c0,.31-.08.69-.1,1s-.05.94-.05,1.65c.87-.1,1.7-.21,2.45-.37v2c-.76.11-1.6.21-2.46.27,0,1.54.11,2.8.17,3.87a10.047,10.047,0,0,1,3.06,2Zm-3.94-2.58a4.987,4.987,0,0,0-1.28-.18c-.9,0-1.5.37-1.5,1s.64.92,1.47.92c1,0,1.31-.51,1.31-1.44Z" fill="#2e3d83"/>
      <path id="パス_39" data-name="パス 39" d="M757.94,107.76a22.924,22.924,0,0,1-2.76.54,29.149,29.149,0,0,1-3.39,6.79l-1.94-1a24.457,24.457,0,0,0,3.24-5.6h-2.82l-.15-1.86a20.28,20.28,0,0,0,2.12.11h1.42a13.6,13.6,0,0,0,.43-2.66l2.19.22c-.12.52-.31,1.32-.54,2.16a15.542,15.542,0,0,0,2.13-.49Zm2.08,1.42a19.623,19.623,0,0,0,0,2c0,.44.05,1.21.09,2a10.439,10.439,0,0,1,3.29,2l-1.06,1.7a12.992,12.992,0,0,0-2.15-1.68v.14c0,1.47-.8,2.62-3.05,2.62-2,0-3.52-.88-3.52-2.62,0-1.55,1.29-2.75,3.5-2.75a6.17,6.17,0,0,1,1.07.06c0-1.18-.12-2.58-.17-3.54Zm-1.75,5.25a5.879,5.879,0,0,0-1.28-.16c-.91,0-1.5.39-1.5,1s.5,1,1.36,1c1.07,0,1.42-.62,1.42-1.47Zm4.47-4.4a20.811,20.811,0,0,0-3.81-2.26l1-1.56a27.352,27.352,0,0,1,3.91,2.14Z" fill="#2e3d83"/>
      <path id="パス_40" data-name="パス 40" d="M657.86,177a9.917,9.917,0,0,0,1.66-.11v2.19c-.59-.06-1.29-.06-1.66-.06h-2.24c-.29,4.26-2,7.11-4.85,8.93l-2.16-1.44a6.1,6.1,0,0,0,1.52-.9,8.51,8.51,0,0,0,3.26-6.59H650a13.051,13.051,0,0,1-2.58,3.36l-2-1.22a12.2,12.2,0,0,0,2.77-3.29,9.929,9.929,0,0,0,.93-2.18,6.546,6.546,0,0,0,.34-1.65l2.46.5c-.18.4-.38,1-.51,1.29s-.27.76-.45,1.17Z" fill="#2e3d83"/>
      <path id="パス_41" data-name="パス 41" d="M676,176.25a8.718,8.718,0,0,0-.63.84,16.09,16.09,0,0,1-3.86,4.38l-1.65-1.33a9.466,9.466,0,0,0,3-3h-8.34a19.369,19.369,0,0,0-2,.11v-2.23a12.177,12.177,0,0,0,2,.16h8.63a8.539,8.539,0,0,0,1.62-.14Zm-6.53,2.16c0,4-.08,7.24-4.45,9.58l-1.86-1.52a6.509,6.509,0,0,0,1.68-.88c2-1.41,2.42-3.11,2.42-5.73a9.03,9.03,0,0,0-.12-1.45Z" fill="#2e3d83"/>
      <path id="パス_42" data-name="パス 42" d="M687.73,175.73a6.914,6.914,0,0,0,.91-.07,2.485,2.485,0,0,1,0-.3,1.92,1.92,0,1,1,1.94,1.9h-.23l-.13.48a15.9,15.9,0,0,1-2.4,5.82,12.668,12.668,0,0,1-6.43,4.42l-1.75-1.9a10.541,10.541,0,0,0,6.28-3.77,10.249,10.249,0,0,0,1.89-4.51h-7.46a17.128,17.128,0,0,0-1.91.06V175.6a19.043,19.043,0,0,0,1.91.13Zm3.71-.37a.915.915,0,1,0-.91.91.915.915,0,0,0,.91-.91Z" fill="#2e3d83"/>
      <path id="パス_43" data-name="パス 43" d="M707.22,179.45a5.491,5.491,0,0,0-.3.68,11.517,11.517,0,0,1-2.37,4.43,12.073,12.073,0,0,1-5.72,3.46l-1.6-1.81a10.832,10.832,0,0,0,5.56-2.8,6.854,6.854,0,0,0,1.64-2.77H696.7a16.731,16.731,0,0,0-1.85.08v-2.08c.67.06,1.36.09,1.85.09h7.93a3.217,3.217,0,0,0,1.16-.16Zm-10.9-4.64a12.269,12.269,0,0,0,1.66.08h6.17a13.726,13.726,0,0,0,1.72-.08v2.07h-9.53Z" fill="#2e3d83"/>
      <path id="パス_44" data-name="パス 44" d="M716.74,183.49a15.137,15.137,0,0,0,5.82-6.23l1.25,2.26a16.917,16.917,0,0,1-5.92,5.92A17.393,17.393,0,0,1,712,187.7l-1.34-2.11a16.692,16.692,0,0,0,6.08-2.1Zm0-5.19L715.1,180a32.931,32.931,0,0,0-4-3.45l1.51-1.6a33.614,33.614,0,0,1,4.13,3.35Z" fill="#2e3d83"/>
      <path id="パス_45" data-name="パス 45" d="M729.33,174.78a14.323,14.323,0,0,0-.39,1.41,42.113,42.113,0,0,0-.75,6.13,6.957,6.957,0,0,0,.07,1c.2-.56.46-1.08.7-1.61l1,.78a39.265,39.265,0,0,0-1.14,3.78,2.834,2.834,0,0,0-.08.74v.65l-1.8.13a19.1,19.1,0,0,1-.62-5.06,47.405,47.405,0,0,1,.65-6.61,10.863,10.863,0,0,0,.15-1.55Zm9.73,12a17.181,17.181,0,0,0-1.92-1.59c-.1,1.51-1,2.6-3.11,2.6s-3.55-.93-3.55-2.6,1.36-2.72,3.52-2.72a6.823,6.823,0,0,1,1,.07c0-1-.09-2.13-.11-3.25h-1.14c-.93,0-1.82,0-2.77-.09v-1.89c.92.09,1.83.14,2.77.14h1.12v-1.76a4.15,4.15,0,0,0-.09-1.05h2.27c0,.31-.08.69-.1,1s-.05.94-.05,1.65c.87-.1,1.7-.21,2.45-.37v2c-.76.11-1.6.21-2.46.27,0,1.54.11,2.8.17,3.87a10.047,10.047,0,0,1,3.06,2Zm-3.94-2.58a4.988,4.988,0,0,0-1.28-.18c-.9,0-1.5.37-1.5,1s.64.92,1.47.92c1,0,1.31-.51,1.31-1.44Z" fill="#2e3d83"/>
      <path id="パス_46" data-name="パス 46" d="M749.94,177.76a22.925,22.925,0,0,1-2.76.54,29.145,29.145,0,0,1-3.39,6.79l-1.94-1a24.458,24.458,0,0,0,3.24-5.6h-.82c-.66,0-1.3,0-2-.05l-.15-1.86a20.29,20.29,0,0,0,2.12.11h1.42a13.6,13.6,0,0,0,.43-2.66l2.19.22c-.12.52-.31,1.32-.54,2.16a15.537,15.537,0,0,0,2.13-.49Zm2.08,1.42a19.587,19.587,0,0,0,0,2c0,.44.05,1.21.09,2a10.439,10.439,0,0,1,3.29,2l-1.06,1.7a12.989,12.989,0,0,0-2.15-1.68v.14c0,1.47-.8,2.62-3.05,2.62-2,0-3.52-.88-3.52-2.62,0-1.55,1.29-2.75,3.5-2.75a6.169,6.169,0,0,1,1.07.06c0-1.18-.12-2.58-.17-3.54Zm-1.75,5.25a5.881,5.881,0,0,0-1.28-.16c-.91,0-1.5.39-1.5.95s.5,1,1.36,1c1.07,0,1.42-.62,1.42-1.47Zm4.47-4.4a20.813,20.813,0,0,0-3.81-2.26l1-1.56a27.35,27.35,0,0,1,3.91,2.14Z" fill="#2e3d83"/>
      <path id="パス_47" data-name="パス 47" d="M655.33,261.2h8.51v7.23H662v-.6h-4.93v.62h-1.74v-5.92l-.75,1a14.95,14.95,0,0,0-1.22-1.47v6.4h-1.87v-5.31a12.74,12.74,0,0,1-1.62,1.33,7.086,7.086,0,0,0-.88-1.81,12,12,0,0,0,4.07-4.48h-3.48v-1.72h1.91v-2.94h1.87v2.94H654l.33-.08,1,.68a15.653,15.653,0,0,1-1.63,3.28c.43.33,1.12.93,1.57,1.33Zm8.56-7v1.6h-8.66v-1.6Zm-.75,2.29v4h-7v-4Zm-6.07,6.24v1.06h1.59v-1.06Zm0,3.57h1.59v-1.1h-1.59Zm4.31-8.39h-3.59v1.15h3.59Zm.62,4.82h-1.65v1.06H662Zm0,3.57v-1.1h-1.65v1.09Z" fill="#2e3d83"/>
      <path id="パス_48" data-name="パス 48" d="M670.9,264c-.32-.46-.85-1.13-1.38-1.74v6.24h-1.87v-5.42a13.373,13.373,0,0,1-1.78,1.44,8.207,8.207,0,0,0-.86-1.81,11.933,11.933,0,0,0,4.19-4.48h-3.6v-1.72h2v-2.94h1.87v2.94h.66l.32-.08,1,.69a15.991,15.991,0,0,1-1.66,3.27c.7.61,1.85,1.71,2.16,2Zm9.36,2.36v1.84h-9.57v-1.84h1.42v-9.11H674v9.11h1.38v-12.6h1.94v5.29h2.6v1.81h-2.6v5.48Z" fill="#2e3d83"/>
      <path id="パス_49" data-name="パス 49" d="M695.14,266.23c0,1-.22,1.53-.86,1.82a7.566,7.566,0,0,1-3.08.34,7,7,0,0,0-.61-1.83c.9.05,2,0,2.24,0s.42-.09.42-.38v-2.4h-3.38v4.46H688v-4.46h-3.26a9.213,9.213,0,0,1-2,4.75,6.9,6.9,0,0,0-1.5-1.23c1.74-1.92,1.88-4.77,1.88-7v-5.7h12.09ZM688,262v-2h-3v1.97Zm-3-5.61v1.86h3v-1.86Zm8.31,0h-3.38v1.86h3.38Zm0,5.61v-2h-3.38v2Z" fill="#2e3d83"/>
      <path id="パス_50" data-name="パス 50" d="M702.3,265l1.64,1.27a27.418,27.418,0,0,1-5.16,2.16,14.613,14.613,0,0,0-1.31-1.46,20.909,20.909,0,0,0,4.79-2h-4.61v-1.76h14.23V265Zm7.4-2.5h-9.8v-8.43h9.8Zm-2-7h-6v1h6Zm0,2.29h-6v1h6Zm0,2.3h-6v1h6Zm-.67,5a52.218,52.218,0,0,1,5,2.07l-1.92,1.29a30.806,30.806,0,0,0-4.59-2.09Z" fill="#2e3d83"/>
      <path id="パス_51" data-name="パス 51" d="M717.33,254.78a14.36,14.36,0,0,0-.39,1.41,42.113,42.113,0,0,0-.75,6.13,6.965,6.965,0,0,0,.07,1c.2-.56.46-1.08.7-1.61l1,.78a39.209,39.209,0,0,0-1.14,3.78,2.834,2.834,0,0,0-.08.74v.65l-1.8.13a19.1,19.1,0,0,1-.62-5.06,47.433,47.433,0,0,1,.65-6.61,10.873,10.873,0,0,0,.15-1.55Zm9.73,12a17.187,17.187,0,0,0-1.92-1.59c-.1,1.51-1,2.6-3.11,2.6s-3.55-.93-3.55-2.6,1.36-2.72,3.52-2.72a6.827,6.827,0,0,1,1,.07c0-1-.09-2.13-.11-3.25h-1.14c-.93,0-1.82,0-2.77-.09v-1.89c.92.09,1.83.14,2.77.14h1.12v-1.76a4.142,4.142,0,0,0-.09-1.05h2.27c0,.31-.08.69-.1,1s-.05.94-.05,1.65c.87-.1,1.7-.21,2.45-.37v2c-.76.11-1.6.21-2.46.27,0,1.54.11,2.8.17,3.87a10.044,10.044,0,0,1,3.06,2.05Zm-3.94-2.58a4.986,4.986,0,0,0-1.28-.18c-.9,0-1.5.37-1.5,1s.64.92,1.47.92c1,0,1.31-.51,1.31-1.44Z" fill="#2e3d83"/>
      <path id="パス_52" data-name="パス 52" d="M737.94,257.76a22.918,22.918,0,0,1-2.76.54,29.134,29.134,0,0,1-3.39,6.79l-1.94-1a24.458,24.458,0,0,0,3.24-5.6h-2.82l-.15-1.86a20.269,20.269,0,0,0,2.12.11h1.42a13.6,13.6,0,0,0,.43-2.66l2.19.22c-.12.52-.31,1.32-.54,2.16a15.545,15.545,0,0,0,2.13-.49Zm2.08,1.42a19.6,19.6,0,0,0,0,2c0,.44.05,1.21.09,2a10.458,10.458,0,0,1,3.29,2l-1.06,1.7a12.988,12.988,0,0,0-2.15-1.68v.14c0,1.47-.8,2.62-3.05,2.62-2,0-3.52-.88-3.52-2.62,0-1.55,1.29-2.75,3.5-2.75a6.167,6.167,0,0,1,1.07.06c0-1.18-.12-2.58-.17-3.54Zm-1.75,5.25a5.88,5.88,0,0,0-1.28-.16c-.91,0-1.5.39-1.5,1s.5,1,1.36,1c1.07,0,1.42-.62,1.42-1.47Zm4.47-4.4a20.807,20.807,0,0,0-3.81-2.26l1-1.56a27.358,27.358,0,0,1,3.91,2.14Z" fill="#2e3d83"/>
      <path id="パス_504" data-name="パス 504" d="M6.176-13.056H1.344v1.44H6.176Zm.416,2.144H.528v1.5H6.592ZM6.208-8.688H1.28v1.456H6.208ZM1.28-5.072H6.208V-6.5H1.28ZM4.544-.944h-1.7v-1.84h1.7ZM15.536-9.072v-1.792h-3.5v-2.672H10.08v2.672H6.832v1.792h2.1C8.82-5.824,8.612-2.372,6.2-.24V-4.288H1.232V1.168H2.848V.544H6.192V.08A5.556,5.556,0,0,1,7.408,1.408c1.968-1.712,2.8-4.176,3.184-6.816h2.432c-.144,3.168-.3,4.464-.592,4.784a.646.646,0,0,1-.56.224c-.32,0-.992-.016-1.7-.08a4.53,4.53,0,0,1,.544,1.808A14.018,14.018,0,0,0,12.8,1.3,1.8,1.8,0,0,0,14.1.6c.5-.624.672-2.4.864-6.976V-7.16h-4.18c.048-.64.08-1.264.112-1.9Zm6.112-2.416v.864H19.2v-.864ZM19.2-8.432v-.912h2.448v.912Zm4.224,1.44v-5.952H17.312V1.392H19.2V-6.992Zm1.84,2.672v1.888h-2.64V-4.32ZM27.04-.864V-5.888H20.848V.032h1.776v-.9Zm-.7-7.552v-.928h2.528v.928ZM28.864-11.5v.88H26.336v-.88ZM30.8-12.94H24.528v5.968h4.336v6.06c0,.288-.112.384-.416.384-.3.016-1.392.032-2.32-.032a6.813,6.813,0,0,1,.64,1.952A7.86,7.86,0,0,0,29.9,1.024c.672-.3.9-.848.9-1.9ZM43.68-4.38H37.888v-.688H43.68Zm-5.792,3.8v-.736H43.68v.736ZM43.68-2.5H37.888v-.7H43.68ZM47.1-7.168v-1.5H39.18c.1-.224.192-.464.272-.688H46.24V-10.8H39.968c.08-.256.16-.512.224-.768a53.94,53.94,0,0,0,5.984-.576l-1.12-1.36a81.029,81.029,0,0,1-11.216.64,4.891,4.891,0,0,1,.352,1.424c1.248.016,2.576,0,3.9-.048-.048.24-.112.464-.176.688h-3.9v1.44h3.392c-.1.224-.192.464-.3.688H32.9v1.5h3.4A10.662,10.662,0,0,1,32.4-3.44,11.029,11.029,0,0,1,33.6-1.9a12.244,12.244,0,0,0,2.464-1.92V1.44h1.824V.864H43.68V1.44H45.6V-6.512H38.112c.128-.224.256-.432.368-.656Zm6.272-5.888h-4.1v1.44h4.1Zm.432,2.144h-5.28v1.5H53.8ZM51.872-2.8V-.96H50.608V-2.8Zm1.52-1.488H49.136V1.168h1.472V.528h2.784Zm-4.208-.784h4.24V-6.5h-4.24ZM57.7-10.624v-.768h1.872v.592l-.832-.128a7.648,7.648,0,0,1-.4,1.088H56.608c.128-.256.24-.512.352-.768l-.064-.016Zm.592,2.432h-1.62v-.48h1.616Zm0,1.424h-1.62v-.48h1.616Zm0,1.44h-1.62v-.48h1.616Zm-3.28,1.2H63.2v-1.2H59.936v-.48H62.5v-.96H59.94v-.48H62.5v-.944H59.94v-.48h2.9V-9.84H60.016c.144-.24.288-.512.432-.784h.816v-.768h1.984v-1.36H61.264v-.8h-1.7v.8H57.7v-.8H56v.8H54v1.36h2v.528l-.528-.144a7.877,7.877,0,0,1-2.048,2.96v-.64h-4.24v1.456h4.24v-.7A11.906,11.906,0,0,1,54.544-7c.16-.144.3-.3.464-.48Zm5.2,1.824a6.948,6.948,0,0,1-1.572,1,6.442,6.442,0,0,1-1.632-1ZM61.78-3.728l-.24.064H54.224V-2.3h2.192l-1.1.416A7.627,7.627,0,0,0,56.788-.6a19.2,19.2,0,0,1-3.332.6,5.77,5.77,0,0,1,.752,1.424A19.772,19.772,0,0,0,58.544.336a15.607,15.607,0,0,0,3.936,1.04A6.064,6.064,0,0,1,63.552-.112,18.926,18.926,0,0,1,60.5-.656a6.858,6.858,0,0,0,2.368-2.512Z" transform="translate(636.5 28)" fill="#2e3d83"/>
    </g>
    <path id="パス_53" data-name="パス 53" d="M619.5,31h-40V261" fill="none" stroke="#2e3d83" stroke-miterlimit="10" stroke-width="1"/>
    <path id="パス_54" data-name="パス 54" d="M619.5,100.75h-40" fill="none" stroke="#2e3d83" stroke-miterlimit="10" stroke-width="1"/>
    <path id="パス_55" data-name="パス 55" d="M619.5,181.75h-40" fill="none" stroke="#2e3d83" stroke-miterlimit="10" stroke-width="1"/>
    <path id="パス_56" data-name="パス 56" d="M619.5,260.75h-40" fill="none" stroke="#2e3d83" stroke-miterlimit="10" stroke-width="1"/>
    <path id="パス_57" data-name="パス 57" d="M620.21,975.72h158.5v45.5H620.21Z" fill="#fff"/>
    <path id="パス_58" data-name="パス 58" d="M778.71,1021.72H620.21a.5.5,0,0,1-.5-.5v-45.5a.5.5,0,0,1,.5-.5h158.5a.509.509,0,0,1,.5.5v45.5A.5.5,0,0,1,778.71,1021.72Zm-158-1h157.5v-44.5H620.71Z" fill="url(#linear-gradient)"/>
    <path id="パス_59" data-name="パス 59" d="M620.21,895.72h158.5v45.5H620.21Z" fill="#fff"/>
    <path id="パス_60" data-name="パス 60" d="M778.71,941.72H620.21a.5.5,0,0,1-.5-.5v-45.5a.5.5,0,0,1,.5-.5h158.5a.509.509,0,0,1,.5.5v45.5A.5.5,0,0,1,778.71,941.72Zm-158-1h157.5v-44.5H620.71Z" fill="url(#linear-gradient-2)"/>
    <path id="パス_61" data-name="パス 61" d="M620.21,825.72h158.5v45.5H620.21Z" fill="#fff"/>
    <path id="パス_62" data-name="パス 62" d="M778.71,871.72H620.21a.5.5,0,0,1-.5-.5v-45.5a.5.5,0,0,1,.5-.5h158.5a.509.509,0,0,1,.5.5v45.5A.5.5,0,0,1,778.71,871.72Zm-158-1h157.5v-44.5H620.71Z" fill="url(#linear-gradient-3)"/>
    <path id="パス_63" data-name="パス 63" d="M649.74,847.94a19.578,19.578,0,0,1-2.65,3.22v3.73c0,1.08-.21,1.66-.92,2a8.166,8.166,0,0,1-3.26.36,7.979,7.979,0,0,0-.67-2c1,.06,2.12,0,2.45,0s.43-.1.43-.37v-2a27.777,27.777,0,0,1-8.76,4.26,17,17,0,0,0-1.28-1.75,26.354,26.354,0,0,0,6.71-2.62c-2.31.19-4.5.37-6.23.48l-.25-1.89,2.35-.1v-7.42H641a14.021,14.021,0,0,0,.51-1.56l2.34.23c-.22.46-.48.91-.72,1.33h4v4.43c.28-.37.56-.77.81-1.17Zm-10.18-2.53v.93h5.56v-.93Zm5.56,2.29h-5.56v1h5.56Zm-5.56,3.41,5-.27.59-.5v-.29h-5.56Z" fill="#2e3d83"/>
    <path id="パス_64" data-name="パス 64" d="M655.83,842.87a26.783,26.783,0,0,1-1.28,3.08v11.23h-1.8V849c-.32.44-.66.87-1,1.25a11.247,11.247,0,0,0-1.06-2,16.8,16.8,0,0,0,3.32-6Zm6.49,4a17.23,17.23,0,0,0,3.9,6.42,7.72,7.72,0,0,0-1.42,1.48,14.6,14.6,0,0,1-1.28-1.7v1.41h-2.15v2.58h-1.85v-2.58h-2.1v-1.47a11.491,11.491,0,0,1-1.43,1.8,7.762,7.762,0,0,0-1.36-1.44,16.329,16.329,0,0,0,4-6.5h-3.15v-1.8h4V842.3h1.85v2.77h4.42v1.8Zm-2.8,5.91v-4.06a20.421,20.421,0,0,1-2,4.06Zm3.82,0a23.8,23.8,0,0,1-2-4.18v4.18Z" fill="#2e3d83"/>
    <path id="パス_65" data-name="パス 65" d="M671.87,851.91c.57.4,1.9,1.46,2.27,1.74L673,855a15.243,15.243,0,0,0-1.17-1.24v3.41H670V854a11.575,11.575,0,0,1-2,2.25,7.111,7.111,0,0,0-1.23-1.34,10.457,10.457,0,0,0,2.88-3.09h-2.43v-1.6H670V849h-2.87v-1.57h1.47a6.8,6.8,0,0,0-.48-1.76l1-.23h-1.79v-1.55H670v-1.45h1.84v1.45h2.65v1.55h-1.64l.92.18c-.28.69-.54,1.33-.76,1.81h1.61V849h-2.78v1.23h2.64v1.6h-2.64Zm-2.21-6.52a6.233,6.233,0,0,1,.54,1.77l-.8.22h3.14l-1.06-.22a11.147,11.147,0,0,0,.59-1.77Zm12.26,3.89H680.4v7.83h-1.84v-7.83h-1.64c0,2.39-.35,5.77-2.46,8a4.429,4.429,0,0,0-1.36-1.3c1.84-2,2-4.67,2-6.88v-5.55l1.12.32a18.856,18.856,0,0,0,4.07-1.41l1.52,1.39a25.949,25.949,0,0,1-4.92,1.47v2.24h5Z" fill="#2e3d83"/>
    <path id="パス_66" data-name="パス 66" d="M695.55,851.46a8.806,8.806,0,0,1-3,3.11,23.054,23.054,0,0,0,5.47.83,8.289,8.289,0,0,0-1.1,1.79,18.612,18.612,0,0,1-6.49-1.52,24.277,24.277,0,0,1-6.59,1.57,6.235,6.235,0,0,0-.9-1.71,25.01,25.01,0,0,0,5.62-1,9.485,9.485,0,0,1-1.49-1.42,15.267,15.267,0,0,1-2.46,1.23,5.12,5.12,0,0,0-1.2-1.41,11.11,11.11,0,0,0,4.08-2.27,7.207,7.207,0,0,0-1.36-1.28,4.249,4.249,0,0,0,2.22-4h-5v-1.74h6.08v-1.38h2v1.38h6.13v1.74h-4.12v2.89c0,.8-.13,1.26-.67,1.53a5.625,5.625,0,0,1-2.26.27,6.247,6.247,0,0,0-.52-1.66h1.36c.18,0,.24-.05.24-.21v-2.84h-1.46a6.163,6.163,0,0,1-1.33,4.2l1.68.33c-.19.26-.38.52-.59.77H694l.34-.06Zm-8.32-5.06a10.123,10.123,0,0,1-2.82,3.32,10.677,10.677,0,0,0-1.31-1.11,6.765,6.765,0,0,0,2.35-2.69Zm1.26,5.8a7.145,7.145,0,0,0,2,1.57,8.286,8.286,0,0,0,2.18-1.57Zm6.88-6.34a18.038,18.038,0,0,1,2.55,3l-1.59,1a16.248,16.248,0,0,0-2.43-3.12Z" fill="#2e3d83"/>
    <path id="パス_67" data-name="パス 67" d="M706.32,847.06a11.1,11.1,0,0,1-1.35,1,9.015,9.015,0,0,0-.91-1.55l.11-.07H699v-1.5h5.66v1.2a12.144,12.144,0,0,0,3.49-3.83h1.71a12.389,12.389,0,0,0,4.31,4,9.524,9.524,0,0,0-1,1.66,9.325,9.325,0,0,1-1.26-.91v1.07h-5.57Zm-2.17,9.28h-3V857H699.6v-5.46h4.51Zm0-7.76h-4.43v-1.46h4.43Zm-4.43.74h4.43v1.42h-4.43Zm4.4-5.13h-4.31v-1.44h4.31Zm-2.9,8.82v1.84h1.41V853Zm12,2.53c0,.67-.1,1.08-.5,1.33a2.8,2.8,0,0,1-1.52.27,5.155,5.155,0,0,0-.44-1.45h.67c.13,0,.16-.05.16-.17V853.8h-.85V857H709.5v-3.2h-.8V857h-1.25v-3.2h-.77v3.31H705.1V849h8.13Zm-5.78-3.23v-1.76h-.77v1.76Zm3.88-5.78a15.453,15.453,0,0,1-2.28-2.56,12.416,12.416,0,0,1-2.14,2.56Zm-1.83,5.78v-1.76h-.8v1.76Zm2.1,0v-1.76h-.85v1.76Z" fill="#2e3d83"/>
    <path id="パス_68" data-name="パス 68" d="M724.72,842.18H730v1.73h-3.41v8.5H724.7Z" fill="#2e3d83"/>
    <path id="パス_69" data-name="パス 69" d="M730.38,844h2.48l1.57,5.76c.36,1.31.6,2.5,1,3.83h.08c.37-1.33.64-2.52,1-3.83L738,844h2.4l-3.63,11.84H734Z" fill="#2e3d83"/>
    <path id="パス_70" data-name="パス 70" d="M741.8,844h7.27v2h-4.9v2.74h4.16v2h-4.16v3.17h5.07v2H741.8Z" fill="#2e3d83"/>
    <path id="パス_71" data-name="パス 71" d="M758.09,855.81l-2.43-4.48H754v4.48h-2.37V844h4.13c2.48,0,4.45.86,4.45,3.59A3.381,3.381,0,0,1,758,851l2.77,4.85ZM754,849.46h1.54c1.52,0,2.35-.64,2.35-1.9s-.83-1.72-2.35-1.72H754Z" fill="#2e3d83"/>
    <path id="パス_72" data-name="パス 72" d="M766.86,857.29h-5.32v-1.73H765v-8.5h1.91Z" fill="#2e3d83"/>
    <path id="パス_73" data-name="パス 73" d="M632,910.51c-.12.32-.32,1.12-.38,1.4a42.122,42.122,0,0,0-.75,6.13,7.272,7.272,0,0,0,.06,1c.21-.56.47-1.09.71-1.62l1,.79a35.34,35.34,0,0,0-1.13,3.77,2.876,2.876,0,0,0-.08.74v.66l-1.79.13a19.236,19.236,0,0,1-.62-5.06,47.4,47.4,0,0,1,.65-6.61,11.031,11.031,0,0,0,.15-1.56Zm9.74,12a16.991,16.991,0,0,0-1.92-1.58c-.1,1.5-1,2.59-3.11,2.59s-3.55-.93-3.55-2.59,1.36-2.72,3.52-2.72a6.962,6.962,0,0,1,1,.06c0-1-.1-2.13-.11-3.25h-1.14a25.824,25.824,0,0,1-2.77-.1V913a25.15,25.15,0,0,0,2.77.15h1.12v-1.76a8.6,8.6,0,0,0-.1-1h2.28c0,.3-.08.69-.1,1s0,.95,0,1.65a23.511,23.511,0,0,0,2.45-.37v2c-.77.12-1.6.21-2.46.28,0,1.53.11,2.8.17,3.87a10,10,0,0,1,3.06,2Zm-3.94-2.57a4.655,4.655,0,0,0-1.28-.18c-.9,0-1.51.37-1.51,1s.64.93,1.48.93,1.31-.51,1.31-1.44Z" fill="#2e3d83"/>
    <path id="パス_74" data-name="パス 74" d="M652.64,913.48a24.709,24.709,0,0,1-2.75.55,29.256,29.256,0,0,1-3.39,6.78l-1.94-1a23.982,23.982,0,0,0,3.23-5.6H645l-.14-1.85a20.069,20.069,0,0,0,2.11.11,13.771,13.771,0,0,0,1.43-.05,13.6,13.6,0,0,0,.43-2.66L651,910c-.13.51-.32,1.31-.54,2.16a17.46,17.46,0,0,0,2.13-.5Zm2.09,1.43a19.571,19.571,0,0,0,0,2,17.549,17.549,0,0,0,.09,2,10.528,10.528,0,0,1,3.28,2l-1.05,1.7A14.1,14.1,0,0,0,654.9,921v.14c0,1.48-.8,2.63-3.06,2.63-2,0-3.52-.88-3.52-2.63,0-1.55,1.3-2.75,3.51-2.75a6.237,6.237,0,0,1,1.07.06c0-1.18-.13-2.57-.18-3.53ZM653,920.16a5.432,5.432,0,0,0-1.28-.16c-.91,0-1.51.38-1.51.94s.5,1,1.37,1c1.07,0,1.42-.62,1.42-1.47Zm4.47-4.4a21.1,21.1,0,0,0-3.81-2.26l1-1.57a28.4,28.4,0,0,1,3.91,2.15Z" fill="#2e3d83"/>
    <path id="パス_75" data-name="パス 75" d="M674.84,915.34a18.321,18.321,0,0,1-1.84,4.95c.16,1.2.38,2,.67,2.11s.3-.77.37-2.07a8.552,8.552,0,0,0,1.18,1.08c-.3,2.7-1.44,3.26-2.43,2.43a2.993,2.993,0,0,1-1-1.84,11.117,11.117,0,0,1-2.39,2.14,6.477,6.477,0,0,0-1-1,9.861,9.861,0,0,0,3.08-3.15c-.23-1.84-.34-4.18-.4-6.69H667.7v3c0,2.33-.19,5.66-1.41,7.84a5.956,5.956,0,0,0-1.38-.75c.1-.18.2-.35.28-.53-1.65.35-3.36.69-4.71.94l-.4-1.68c.62-.09,1.39-.22,2.21-.36V917.5h-2V916h2v-1.12h-1.36v-.55l-.15.15a5,5,0,0,0-1.13-1.24,10.01,10.01,0,0,0,2.67-3.92h1.57a16,16,0,0,1,2.29,2.58v-.18h4.87v-2.4h1.6v2.4h1a6.585,6.585,0,0,0-1-1.69l1.27-.59A6.5,6.5,0,0,1,675,911.1l-1.17.57h1v1.67h-2.26c0,1.42,0,2.77.11,4a18.324,18.324,0,0,0,.67-2.48Zm-13.29,2.86a15.26,15.26,0,0,1,.53,2.77l-1.23.32a15.625,15.625,0,0,0-.46-2.8Zm3.35-4.94a16.233,16.233,0,0,0-1.55-2.16,16.148,16.148,0,0,1-1.48,2.16Zm.74,8.4a20.363,20.363,0,0,0,.54-5.31v-4.08l-.93,1v1.57h-1.44V916h1.78v1.6h-1.78v4l1.74-.32Zm-1.64-1a23.8,23.8,0,0,0,.55-2.59l1.29.3c-.27.91-.51,1.92-.72,2.58Zm4-4h2.87v4.1H669v.86h-1Zm2.79-1h-2.74V914.3h2.74ZM669,917.9v1.55h.82V917.9Z" fill="#2e3d83"/>
    <path id="パス_76" data-name="パス 76" d="M684.32,916a4.542,4.542,0,0,1-.09,1.12c.73,3.37,2.46,5,6.77,5.41a8.025,8.025,0,0,0-1.06,1.73c-3.47-.49-5.31-1.74-6.42-4.05-.84,2-2.64,3.3-6.64,4.05a4.818,4.818,0,0,0-.91-1.58c5.79-.95,6.21-3,6.45-6.68Zm-7,3.75a6.384,6.384,0,0,0,2-2.55,18.522,18.522,0,0,1-2.31.68,6.969,6.969,0,0,0-.91-1.59c3.09-.57,6-1.93,7.52-4H681a15.11,15.11,0,0,1-3.53,2.21,6.417,6.417,0,0,0-1.22-1.38,10.874,10.874,0,0,0,5.09-3.76l2,.4a10.421,10.421,0,0,1-.72.93h2.18l.33-.08,1.24.61a9.43,9.43,0,0,1-1.08,1.89,11,11,0,0,0,5.62,2.7,9.691,9.691,0,0,0-1.25,1.65,11.44,11.44,0,0,1-5.44-3.12,13,13,0,0,1-4.86,2.91l1.6.64a7,7,0,0,1-2,2.87Zm8,0a15.45,15.45,0,0,0,1.76-2.68l1.84.69a22.214,22.214,0,0,1-2.09,2.63Z" fill="#2e3d83"/>
    <path id="パス_77" data-name="パス 77" d="M697.64,910.59c-.42,1.36-.95,3.1-1.4,4.35a4.934,4.934,0,0,1,1.17,3.22,2.38,2.38,0,0,1-.7,2.05,2.331,2.331,0,0,1-.93.33,6.684,6.684,0,0,1-1,0,3.993,3.993,0,0,0-.41-1.61h.7a.748.748,0,0,0,.45-.14c.18-.13.24-.45.24-.9a4.308,4.308,0,0,0-1.1-2.8c.32-1,.65-2.4.91-3.49h-1.25v12.57h-1.65V910h3.47l.28-.08Zm7.42,11.79c.26,0,.31-.24.34-1.87a4.8,4.8,0,0,0,1.58.7c-.16,2.24-.57,2.85-1.71,2.85H704.2c-1.39,0-1.7-.54-1.7-2.17v-3.48h-1.18c-.2,2.9-.87,4.74-4,5.78a4.642,4.642,0,0,0-1-1.49c2.56-.77,3-2.06,3.2-4.29h-1.76v-1.69h8.92v1.69h-2.4v3.46c0,.46,0,.51.25.51Zm-4-11.38v-1.68h1.84V911h3.83v3.14H705.5v1.42h-6.82v-1.4h-1.19V911Zm3.92,1.62h-5.79v1.31H705Z" fill="#2e3d83"/>
    <path id="パス_78" data-name="パス 78" d="M715.65,909.93h1.57l-4,15.8h-1.57Z" fill="#2e3d83"/>
    <path id="パス_79" data-name="パス 79" d="M732.42,916c-.16.37-.34.77-.53,1.15h5.16v1.61h-1.73a7.153,7.153,0,0,1-1.14,2.57,18.54,18.54,0,0,1,2.69,1.44l-1.2,1.43a18.622,18.622,0,0,0-2.82-1.6,12.785,12.785,0,0,1-5.41,1.63,5,5,0,0,0-.7-1.54,12.8,12.8,0,0,0,4.24-.91c-.4-.16-.8-.32-1.18-.45l-.16.29L728,921.1c.36-.64.77-1.47,1.17-2.33h-1.92v-.87l-1.2.35v3.81c0,1-.16,1.46-.67,1.75a4.746,4.746,0,0,1-2.39.38,7.423,7.423,0,0,0-.52-1.86,13.072,13.072,0,0,0,1.48,0c.2,0,.28-.06.28-.3v-3.28l-1.78.47-.4-1.84c.61-.12,1.36-.3,2.18-.49V914h-1.86v-1.75h1.86v-3h1.82v3h1.23V914h-1.23v2.43l1.22-.32.13,1h2.49c.18-.4.34-.78.48-1.15h-3.25V914.4h2.4a10.553,10.553,0,0,0-.46-2l.32-.06H727.6v-1.6h3.57v-1.52h1.94v1.52h3.57v1.6h-1.31c-.26.73-.53,1.44-.77,2h2.46V916Zm-1.3,2.76-.59,1.18c.63.19,1.3.43,2,.69a5,5,0,0,0,.93-1.87Zm-.33-6.39a8.237,8.237,0,0,1,.48,2h1.62a15.889,15.889,0,0,0,.6-2Z" fill="#2e3d83"/>
    <path id="パス_80" data-name="パス 80" d="M752.58,914v3.39h-1.79V915.6H740.47v1.77h-1.7V914H741v-4.1h9.29V914Zm-2.53,8.47c0,.84-.17,1.25-.78,1.5a7.976,7.976,0,0,1-2.69.26,5.3,5.3,0,0,0-.53-1.52h1.86c.24,0,.3-.08.3-.29v-.66H743v2.44h-1.79v-8h8.8ZM742.79,914h1.73v-2h3.8v-.66h-5.53Zm.25,3.66v.74h5.17v-.74Zm5.17,2.77v-.72H743v.72Zm.11-7.26h-2.17V914h2.17Z" fill="#2e3d83"/>
    <path id="パス_81" data-name="パス 81" d="M759.84,910.59c-.41,1.36-.94,3.1-1.39,4.35a4.934,4.934,0,0,1,1.17,3.22,2.362,2.362,0,0,1-.71,2.05,2.278,2.278,0,0,1-.92.33,6.685,6.685,0,0,1-1,0,3.988,3.988,0,0,0-.41-1.61h.7a.748.748,0,0,0,.45-.14c.17-.13.24-.45.24-.9a4.277,4.277,0,0,0-1.11-2.8c.32-1,.66-2.4.92-3.49H756.5v12.57h-1.65V910h3.47l.27-.08Zm7.43,11.79c.26,0,.3-.24.34-1.87a4.8,4.8,0,0,0,1.58.7c-.16,2.24-.58,2.85-1.71,2.85h-1.07c-1.4,0-1.7-.54-1.7-2.17v-3.48h-1.18c-.2,2.9-.87,4.74-4,5.78a4.641,4.641,0,0,0-1-1.49c2.56-.77,3-2.06,3.2-4.29H760v-1.69h8.92v1.69h-2.4v3.46c0,.46,0,.51.25.51Zm-4-11.38v-1.68h1.84V911H769v3.14h-1.24v1.42h-6.81v-1.4h-1.19V911Zm3.92,1.62H761.4v1.31h5.79Z" fill="#2e3d83"/>
    <path id="パス_82" data-name="パス 82" d="M636.22,996.21c0,.8-.11,1.33-.57,1.63a3.746,3.746,0,0,1-2,.34,7.387,7.387,0,0,0-.47-1.77h1.17c.17,0,.21-.07.21-.28v-3.26H633.2a18.58,18.58,0,0,1-1,5.27,5.714,5.714,0,0,0-1.47-.82c.86-2.21.93-5.43.93-7.75v-5.79h4.54Zm-1.68-5.05v-2h-1.25v1.98Zm-1.25-5.63v1.92h1.25v-1.92Zm4.07,2.69a16.314,16.314,0,0,0-1-3.76L638,984a15.138,15.138,0,0,1,1.16,3.68Zm6.24.88h1.81V998H643.6v-.91h-4.86v1H637v-9h1.77v1.55l.8-1.11c.41.28.88.58,1.32.9a19.59,19.59,0,0,0,.61-2.18l1.56.58a23.494,23.494,0,0,1-.82,2.62,14.037,14.037,0,0,1,1.39,1.28Zm0,3.92-.91,1.35a11.269,11.269,0,0,0-1.2-1.3,11.487,11.487,0,0,1-1.44,2.22,6.684,6.684,0,0,0-1.2-1,9.181,9.181,0,0,0,1.37-2.25c-.49-.4-1-.77-1.48-1.11v4.4h4.86Zm-3.49-5.39a17.238,17.238,0,0,0-.46-3.84l1.69-.28a15.091,15.091,0,0,1,.61,3.78Zm5.72-3.49a35.854,35.854,0,0,1-1.91,4.48l-1.65-.56a27.519,27.519,0,0,0,1.62-4.51Z" fill="#2e3d83"/>
    <path id="パス_83" data-name="パス 83" d="M657.41,992.91a5.493,5.493,0,0,1-1,2.51,15.537,15.537,0,0,0,5.27,1.09,7.077,7.077,0,0,0-1.1,1.73,13.9,13.9,0,0,1-5.46-1.49,10.207,10.207,0,0,1-3.63,1.52,7.12,7.12,0,0,0-.92-1.33v1.27H648.8V992a13.871,13.871,0,0,1-1.51,3.33,13.2,13.2,0,0,0-.89-1.91,15.885,15.885,0,0,0,2.28-5.43h-2v-1.76h2.09v-3h1.77v3h1.47V988H650.6v.57c.4.54,1.33,2,1.73,2.65v-4.48h3.38v-.93H652V984.2h9.24v1.61h-3.73v.93H661v6.18Zm-6.81,3.82a9.64,9.64,0,0,0,3-1.08,9.467,9.467,0,0,1-1.63-2.12l1.68-.45a5.256,5.256,0,0,0,1.2,1.41,3.986,3.986,0,0,0,.68-1.58h-3.24v-1.35l-1,1.14a18.587,18.587,0,0,0-.74-1.71Zm3.43-7.6h1.68v-.94H654Zm0,2.32h1.68v-1H654Zm3.49-3.26v.94h1.69v-.94Zm1.69,2.29h-1.69v1h1.69Z" fill="#2e3d83"/>
    <path id="パス_84" data-name="パス 84" d="M673.88,992.49a10.412,10.412,0,0,0,3.46,1.56,8.31,8.31,0,0,0-1.22,1.52,10.115,10.115,0,0,1-2.54-1.28v1h-2.85v1h5.11v1.54H663.91v-1.54h5v-1h-2.78v-.91a11.415,11.415,0,0,1-2.66,1.33,8.4,8.4,0,0,0-1.2-1.46,10.584,10.584,0,0,0,3.68-1.78h-3.22V990.9h3.86v-.72H664.5v-1.31h2.13v-.7h-2.3v-.92h-1.52V984.2h6v-.93h2v.93h6.06v3.07h-1.55v.92h-2.21v.7h2.11v1.31h-2.11v.72h3.84v1.57Zm-7.25-5.65v-.72h1.79v.72h2.81v-.72h1.82v.72h1.81v-1H664.68v1Zm6.4,7a9.233,9.233,0,0,1-1.45-1.4h-3.3a8.091,8.091,0,0,1-1.41,1.4H669v-1h1.78v1Zm-4.61-5h2.81v-.7h-2.81Zm0,2h2.81v-.72h-2.81Z" fill="#2e3d83"/>
    <path id="パス_85" data-name="パス 85" d="M691.26,989.53V991h1.62v1.76h-1.62v3.35c0,1-.16,1.47-.8,1.77a7.2,7.2,0,0,1-2.75.33,6.872,6.872,0,0,0-.58-1.89h1.92c.26,0,.34-.07.34-.27v-3.32H686a12.209,12.209,0,0,1,1.92,2.39l-1.52,1a12.977,12.977,0,0,0-1.82-2.51l1.37-.85h-1.93v-.85l-1.41.45v5.88H680.9v-5.35l-2.4.71-.45-1.83c.79-.18,1.78-.43,2.85-.72v-2.94h-1.07a13.748,13.748,0,0,1-.59,2,11.211,11.211,0,0,0-1.35-.87,19.313,19.313,0,0,0,.92-5.15l1.58.26q-.09,1-.24,1.92h.75v-3h1.75v3H684v1.5h3.52v-1.36h-2.84v-1.73h2.84v-1.42h1.89v1.42h2.94v1.73h-2.94v1.36H693v1.76Zm-1.87,0H683.7v-1.45h-1.05v2.44l1.47-.41.13.86h5.14Z" fill="#2e3d83"/>
    <path id="パス_86" data-name="パス 86" d="M699.8,984.09a26.109,26.109,0,0,1-1.67,3.23v10.86h-1.9V990a18.83,18.83,0,0,1-1.58,1.7,14.5,14.5,0,0,0-1.11-2,16.5,16.5,0,0,0,4.37-6.22Zm6.35,12.15c.77,0,.9-.55,1-2.8a5.613,5.613,0,0,0,1.76.81c-.23,2.76-.72,3.77-2.61,3.77h-2.74c-2,0-2.59-.65-2.59-2.9V983.67h1.92v5.48a27.737,27.737,0,0,0,4-2.8l1.41,1.66a39.048,39.048,0,0,1-5.44,3.09v4c0,1,.11,1.11.88,1.11Z" fill="#2e3d83"/>
    <path id="パス_87" data-name="パス 87" d="M724.24,995.93v1.77H709.81v-1.77h6.26v-1.28h-4.64v-1.72h4.63v-1h-1.19v-3.08H713.4a4.9,4.9,0,0,1-2.51,3.51,8.754,8.754,0,0,0-1.25-1.33,3.551,3.551,0,0,0,2-2.18H710v-1.68h1.81v-1.68h-1.26v-1.66h7.26v1.66h-1.13v1.68h1.5v1.68h-1.5v2.8H718v1.29h4.62v1.72H718v1.28Zm-9.37-8.77v-1.68h-1.34v1.68Zm5.7,2.42h-1.74v-5.41h1.74Zm3,.69c0,.88-.16,1.33-.77,1.6a6.732,6.732,0,0,1-2.51.3,7.537,7.537,0,0,0-.56-1.68h1.72c.24,0,.31-.07.31-.27v-6.81h1.81Z" fill="#2e3d83"/>
    <path id="パス_88" data-name="パス 88" d="M634.06,1004.54a10.614,10.614,0,0,0,0,1.21v6.81h-2.37c0-.31.08-.93.08-1.41v-5.4a10.438,10.438,0,0,0-.07-1.21Zm7.38-.15c0,.45-.07,1-.07,1.6v3.17c0,3.44-.67,4.92-1.86,6.23a9.246,9.246,0,0,1-3.89,2.32l-1.68-1.76a7.551,7.551,0,0,0,3.93-2c1.08-1.2,1.29-2.4,1.29-4.89v-3a12.012,12.012,0,0,0-.09-1.6Z" fill="#2e3d83"/>
    <path id="パス_89" data-name="パス 89" d="M646.52,1005.45l2.34.5c-.13.44-.33,1.23-.39,1.58a35.965,35.965,0,0,1-1.36,4.82,23.2,23.2,0,0,1-2.35,4.58l-2.24-.95a20.022,20.022,0,0,0,2.48-4.45,22.6,22.6,0,0,0,1.52-6.08Zm4.06.48,2.13-.69c.66,1.25,1.76,3.72,2.37,5.25s1.41,4,1.86,5.59l-2.37.77a48.734,48.734,0,0,0-1.67-5.65A43.444,43.444,0,0,0,650.58,1005.93Z" fill="#2e3d83"/>
    <path id="パス_90" data-name="パス 90" d="M660.93,1014.29c0,.68.32.86,1,1a13.789,13.789,0,0,0,1.85.1,27.2,27.2,0,0,0,5.57-.56v2.34a46.263,46.263,0,0,1-5.69.33,17.953,17.953,0,0,1-2.69-.19,2.29,2.29,0,0,1-2.2-2.376V1006.2a13.158,13.158,0,0,0-.12-1.66h2.37a11.977,11.977,0,0,0-.13,1.66v3a41.2,41.2,0,0,0,5.54-1.78,10.4,10.4,0,0,0,1.74-.86l.86,2c-.62.26-1.34.56-1.87.75a55.042,55.042,0,0,1-6.27,2Zm7-7.7a17.989,17.989,0,0,0-1.25-2.21l1.26-.53a22.714,22.714,0,0,1,1.29,2.19Zm1.9-3.46a18.9,18.9,0,0,1,1.3,2.18l-1.27.54a16.425,16.425,0,0,0-1.29-2.21Z" fill="#2e3d83"/>
    <path id="パス_91" data-name="パス 91" d="M674.38,1004.54v8.02H672c0-.31.08-.93.08-1.41v-5.4a10.222,10.222,0,0,0-.06-1.21Zm7.38-.15c0,.45-.06,1-.06,1.6v3.17c0,3.44-.67,4.92-1.86,6.23a9.3,9.3,0,0,1-3.89,2.32l-1.68-1.76a7.483,7.483,0,0,0,3.92-2c1.09-1.2,1.3-2.4,1.3-4.89v-3a10.437,10.437,0,0,0-.1-1.6Z" fill="#2e3d83"/>
    <path id="パス_92" data-name="パス 92" d="M691.47,1012.14a14.08,14.08,0,0,0,2.56-3.23l-4.93,1v4.25c0,1,.28,1.34,2,1.34a26.952,26.952,0,0,0,5.06-.53l-.07,2.16a37.83,37.83,0,0,1-5,.35c-3.65,0-4.18-.88-4.18-2.76v-4.37c-1.42.28-2.69.54-3.36.7l-.38-2.1c.75-.09,2.16-.33,3.74-.62V1006a13.5,13.5,0,0,0-.12-1.82h2.38a13.04,13.04,0,0,0-.14,1.82v1.89c2.33-.43,4.57-.9,5.29-1.06a5.042,5.042,0,0,0,1.14-.38l1.54,1.2a8.333,8.333,0,0,0-.53.86,22.745,22.745,0,0,1-3.31,4.66Z" fill="#2e3d83"/>
    <path id="パス_93" data-name="パス 93" d="M704,1013.21a15.126,15.126,0,0,0,5.82-6.22l1.25,2.25a17,17,0,0,1-5.92,5.93,17.4,17.4,0,0,1-5.94,2.25l-1.34-2.11a16.514,16.514,0,0,0,6.13-2.1Zm0-5.18-1.64,1.68a33.026,33.026,0,0,0-4-3.46l1.51-1.6A33.6,33.6,0,0,1,704,1008Z" fill="#2e3d83"/>
    <path id="パス_94" data-name="パス 94" d="M724.78,1006.6a8.091,8.091,0,0,0-.52,1.14,18.694,18.694,0,0,1-2.21,4.38c.59.37,1.13.74,1.53,1l-1.45,1.87c-.39-.33-.9-.72-1.49-1.13a15.283,15.283,0,0,1-5.91,4l-1.85-1.62a13.525,13.525,0,0,0,6-3.58c-1.09-.71-2.18-1.36-3-1.83l1.36-1.52c.85.44,1.94,1,3,1.68a11.354,11.354,0,0,0,1.67-3.41h-4.6a18.6,18.6,0,0,1-4.22,4.13l-1.73-1.32a14.694,14.694,0,0,0,5.11-5.32,7.23,7.23,0,0,0,.72-1.68l2.32.72c-.39.56-.8,1.3-1,1.63h3.28a4.764,4.764,0,0,0,1.39-.18Z" fill="#2e3d83"/>
    <path id="パス_95" data-name="パス 95" d="M725.74,1009.4c.58.05,1.75.1,2.58.1h8.59c.74,0,1.46-.06,1.88-.1v2.52c-.39,0-1.2-.08-1.88-.08h-8.59a24.428,24.428,0,0,0-2.58.08Z" fill="#2e3d83"/>
    <path id="パス_96" data-name="パス 96" d="M743.66,1004.51c-.13.32-.32,1.12-.39,1.4a42.113,42.113,0,0,0-.75,6.13,7.118,7.118,0,0,0,.07,1c.2-.56.46-1.09.7-1.62l1,.79a38.435,38.435,0,0,0-1.14,3.77,2.877,2.877,0,0,0-.08.74v.66l-1.8.13a19.236,19.236,0,0,1-.62-5.06,47.387,47.387,0,0,1,.65-6.61,10.984,10.984,0,0,0,.15-1.56Zm9.73,12a16.985,16.985,0,0,0-1.92-1.58c-.1,1.5-1,2.59-3.11,2.59s-3.55-.93-3.55-2.59,1.36-2.72,3.52-2.72a6.943,6.943,0,0,1,1,.06c0-1-.09-2.13-.11-3.25h-1.14a25.838,25.838,0,0,1-2.77-.1V1007a25.622,25.622,0,0,0,2.77.15h1.12v-1.76a7.407,7.407,0,0,0-.09-1h2.27c0,.3-.08.69-.1,1s0,.95,0,1.65a23.581,23.581,0,0,0,2.45-.37v2c-.76.12-1.6.21-2.46.28,0,1.53.11,2.8.17,3.87a9.893,9.893,0,0,1,3.06,2Zm-3.94-2.57a4.58,4.58,0,0,0-1.28-.18c-.89,0-1.5.37-1.5,1s.64.93,1.47.93,1.31-.51,1.31-1.44Z" fill="#2e3d83"/>
    <path id="パス_97" data-name="パス 97" d="M763.53,1007.48a24.93,24.93,0,0,1-2.76.55,29.266,29.266,0,0,1-3.39,6.78l-1.94-1a24.46,24.46,0,0,0,3.24-5.6h-2.82l-.14-1.85a20.067,20.067,0,0,0,2.11.11,13.739,13.739,0,0,0,1.43-.05,13.6,13.6,0,0,0,.43-2.66l2.19.23c-.13.51-.32,1.31-.54,2.16a17.474,17.474,0,0,0,2.13-.5Zm2.08,1.43a19.571,19.571,0,0,0,0,2,17.549,17.549,0,0,0,.09,2,10.528,10.528,0,0,1,3.28,2l-1.05,1.7a14.143,14.143,0,0,0-2.15-1.68v.14c0,1.48-.8,2.63-3,2.63-2,0-3.53-.88-3.53-2.63,0-1.55,1.3-2.75,3.51-2.75a6.212,6.212,0,0,1,1.07.06c0-1.18-.13-2.57-.17-3.53Zm-1.75,5.25a5.419,5.419,0,0,0-1.28-.16c-.91,0-1.5.38-1.5.94s.49,1,1.36,1c1.07,0,1.42-.62,1.42-1.47Zm4.47-4.4a21.106,21.106,0,0,0-3.81-2.26l1-1.57a28.421,28.421,0,0,1,3.91,2.15Z" fill="#2e3d83"/>
    <path id="パス_98" data-name="パス 98" d="M620.21,848.72h-40l.29,150.78" fill="none" stroke="#2e3d83" stroke-miterlimit="10" stroke-width="1"/>
    <path id="パス_99" data-name="パス 99" d="M620.21,918.47H541" fill="none" stroke="#2e3d83" stroke-miterlimit="10" stroke-width="1"/>
    <path id="パス_100" data-name="パス 100" d="M620.21,999.47h-40" fill="none" stroke="#2e3d83" stroke-miterlimit="10" stroke-width="1"/>
    <path id="パス_101" data-name="パス 101" d="M0,0H177.89V64.5H0Z" transform="translate(362 108)" opacity="0.8" fill="url(#linear-gradient-4)"/>
    <path id="パス_102" data-name="パス 102" d="M468.29,140.88c-.14.28-.3.54-.46.82h9.36v9.94h-2.4v-.72h-7.24v.72h-2.28v-6.58a15.3,15.3,0,0,1-3.08,2.4,13.708,13.708,0,0,0-1.5-1.92,13.333,13.333,0,0,0,4.88-4.66h-4.26V139h5.26c.14-.28.26-.58.38-.86h-4.24v-1.8h4.88c.08-.28.16-.56.22-.86-1.66.06-3.32.08-4.88.06a6.112,6.112,0,0,0-.44-1.78,101.262,101.262,0,0,0,14-.8l1.4,1.7a67.444,67.444,0,0,1-7.48.72c-.08.32-.18.64-.28,1H478v1.8h-8.48c-.1.28-.22.58-.34.86h9.9v1.88Zm6.5,2.62h-7.24v.86h7.24Zm0,2.34h-7.24v.88h7.24Zm0,3.28v-.92h-7.24v.92Z" fill="#fff"/>
    <path id="パス_103" data-name="パス 103" d="M487.45,138.08h-6.6V136.2h6.6Zm-.52,12.42h-3.48v.8h-1.84v-6.82h5.32Zm2-10c-.2.22-.38.42-.58.6a14.935,14.935,0,0,0-1.4-1.16v.88h-5.3V139H487v.8a9.849,9.849,0,0,0,2.56-3.7l.66.18v-.66h-2.5v-1.7h2.5v-1h2.12v1h2.34v-1h2.12v1h2.48v1.7H496.8v1h-1c-.18.34-.36.68-.54,1h3.52V139h-3.62v.6h3.2v1.18h-3.2v.6h3.2v1.2h-3.2v.6h4.08v1.5H489Zm-7.28,1.24H487v1.78h-5.3Zm5.24-6.4h-5.12v-1.8h5.12Zm-3.46,11v2.3H485v-2.3Zm15.32-.46a8.573,8.573,0,0,1-3,3.14,23.68,23.68,0,0,0,3.82.68,7.593,7.593,0,0,0-1.34,1.86,19.529,19.529,0,0,1-4.92-1.3,24.7,24.7,0,0,1-5.42,1.36,7.225,7.225,0,0,0-.94-1.78,23.992,23.992,0,0,0,4.16-.76,9.517,9.517,0,0,1-1.84-1.6l1.38-.52H488v-1.7h9.14l.3-.08Zm-7.46-9.32h.08c-.14.32-.28.64-.44,1h2.16a9.55,9.55,0,0,0,.5-1.36l1,.16v-.74h-2.34v1Zm1.74,2.44h-2v.6h2Zm0,1.78h-2v.6h2Zm0,1.8h-2v.6h2Zm-1.6,4.38a8.045,8.045,0,0,0,2,1.26,8.693,8.693,0,0,0,2-1.26Z" fill="#fff"/>
    <circle id="楕円形_1" data-name="楕円形 1" cx="26" cy="26" r="26" transform="translate(384.5 115)" fill="#fff"/>
    <path id="パス_104" data-name="パス 104" d="M402.39,149.51a42.261,42.261,0,0,1,8.05-.82h.12c5.53-.21,16.05,2.59,16.05,2.59s2.49-9.45,1.05-12.66c-2.08-4.64-6.67-8-17.1-8h-.12c-10.43,0-15,3.37-17.1,8-1.44,3.21,1.05,12.66,1.05,12.66s1.91-.51,4.53-1.08" fill="none" stroke="#ff7bac" stroke-miterlimit="10" stroke-width="1"/>
    <path id="パス_105" data-name="パス 105" d="M408.47,142.24a.51.51,0,0,1,.52.5v1.56a.52.52,0,0,0,.52.52h1.57a.52.52,0,0,0,.52-.52v-1.55a.52.52,0,0,1,.52-.51h1.57a.52.52,0,0,0,.52-.52v-1.55a.52.52,0,0,0-.52-.52h-1.57a.52.52,0,0,1-.52-.51v-1.56a.51.51,0,0,0-.51-.51h-1.57a.52.52,0,0,0-.53.51v1.56a.51.51,0,0,1-.51.51h-1.57a.52.52,0,0,0-.52.52v1.55a.52.52,0,0,0,.52.52h.35" fill="none" stroke="#ff7bac" stroke-miterlimit="10" stroke-width="1"/>
    <path id="パス_106" data-name="パス 106" d="M0,0H177.89V64.5H0Z" transform="translate(363.11 644.5)" opacity="0.6" fill="url(#linear-gradient-5)"/>
    <path id="パス_107" data-name="パス 107" d="M470.51,676.46c-1,2.74-3.64,4.52-8,5.4a6.68,6.68,0,0,0-1.13-1.58,17.777,17.777,0,0,0,3.57-1,14.092,14.092,0,0,0-1.44-1c-.38.18-.76.36-1.14.52a13.108,13.108,0,0,0-1.37-1.4,12.189,12.189,0,0,0,3.92-2H461.8v-1.8h17v1.8H473v1.24a20.486,20.486,0,0,0,3.68-1l1.6,1.3A28.737,28.737,0,0,1,473,678.2v.46c0,.54.16.64,1,.64h2.56c.62,0,.74-.2.84-1.3a5.887,5.887,0,0,0,1.86.7c-.22,1.88-.82,2.4-2.48,2.4h-3c-2.3,0-2.84-.58-2.84-2.44V675.4h-3.46c-.18.2-.36.4-.54.58h2l.36-.06Zm8.76,8h-4.56v3.6h-2.42v-3.6h-4.36c-.38,1.54-1.62,2.92-5.24,3.66a8.226,8.226,0,0,0-1.38-1.76c2.52-.44,3.66-1.14,4.18-1.9h-4.4v-2h4.78v-1.34h2.22v1.34h4.2v-1.34h2.42v1.34h4.56Zm-13.62-12.2h-4.34v-1.88h4.34v-1H468v1h4.28v-1h2.38v1h4.48v1.88h-4.48v1h-2.38v-1H468v1h-2.36Zm-.5,5.06-.2.12a13.2,13.2,0,0,1,1.56,1,5.841,5.841,0,0,0,1.32-1.16Z" fill="#fff"/>
    <path id="パス_108" data-name="パス 108" d="M486.93,670.1a31.777,31.777,0,0,1-1.84,4v13.92h-2.24v-10.4a16.266,16.266,0,0,1-1.16,1.38,19.724,19.724,0,0,0-1.18-2.34,20.988,20.988,0,0,0,4.32-7.26Zm12,12.84a12.064,12.064,0,0,1-2.24,2.4c.32.52.68.82,1.06.82s.44-.36.52-1.36a4,4,0,0,0,1.48.88c-.28,1.94-.84,2.42-2.16,2.44a3,3,0,0,1-2.5-1.58,17.678,17.678,0,0,1-2.32,1.28,11.468,11.468,0,0,0-1.32-1.5,16.374,16.374,0,0,0,2.84-1.42,15,15,0,0,1-.68-2.68h-2.84V683l2.12-.2v1.64l-2.16.24v1.38c0,.94-.18,1.36-.8,1.64a7.081,7.081,0,0,1-2.68.28,6.07,6.07,0,0,0-.56-1.7,15.835,15.835,0,0,0,1.66,0c.24,0,.32-.08.32-.3v-1.1l-2.88.3-.16-1.74c.86-.06,1.9-.16,3-.26v-1h-2.9v-1.6h2.9v-.88c-.8.08-1.62.14-2.36.16a6.677,6.677,0,0,0-.48-1.38,32.008,32.008,0,0,0,5.72-.84l1.18,1.38c-.6.16-1.28.3-2,.42v1.14h2.6c-.08-.86-.16-1.76-.18-2.7h2.08c0,.94.06,1.86.14,2.7h2.2a12.009,12.009,0,0,0-2.14-1.88l1.4-1a15.73,15.73,0,0,1,2.24,1.82l-1.46,1.08h1.92v1.6h-3.92c.1.5.2,1,.32,1.4a8.543,8.543,0,0,0,1.14-1.3Zm-9.86-11.66a13.394,13.394,0,0,0-.82-1.24l1.88-.66a8.56,8.56,0,0,1,1.28,1.9h2.52a12.633,12.633,0,0,0,1-1.92l2.32.62c-.34.48-.68.92-1,1.3h2.6v1.54h-5.1v.74h4.44v1.5h-4.44v.8h5.66v1.62H486v-1.62h5.44v-.8h-4.22v-1.5h4.22v-.74h-4.88v-1.54Z" fill="#fff"/>
    <circle id="楕円形_2" data-name="楕円形 2" cx="26" cy="26" r="26" transform="translate(385.75 652.75)" fill="#fff"/>
    <path id="パス_109" data-name="パス 109" d="M401.49,688.27a16,16,0,0,1-8.37-12,6.8,6.8,0,0,1,6,1.51m6.81-6.44a7.884,7.884,0,0,0-4.13-2.09,1.4,1.4,0,0,0-1.58,1.14c-.9,4.8,1.36,11.61,5.19,15.11m9.81,1.54c2.76-3.31,3.51-13.4-.88-18.52a9.851,9.851,0,0,0-1.59-1.63,1.65,1.65,0,0,0-2,0,9.848,9.848,0,0,0-1.59,1.63c-4.39,5.12-3.64,15.21-.88,18.52m9.81-1.54c3.83-3.5,6.09-10.31,5.19-15.11a1.4,1.4,0,0,0-1.58-1.14,7.884,7.884,0,0,0-4.13,2.09m-11.32,18.85a21.612,21.612,0,0,0,5.51.79c5.28,0,16.8-2.82,18.63-14.71a6.8,6.8,0,0,0-6,1.51" fill="none" stroke="#7d5fa6" stroke-linejoin="round" stroke-width="1"/>
    <path id="パス_110" data-name="パス 110" d="M0,0H177.89V64.5H0Z" transform="translate(362 471.5)" opacity="0.8" fill="url(#linear-gradient-6)"/>
    <path id="パス_111" data-name="パス 111" d="M463.29,503.5a23.824,23.824,0,0,1-3.32,4v4.66c0,1.36-.26,2.08-1.14,2.46a10.359,10.359,0,0,1-4.08.44,9.992,9.992,0,0,0-.84-2.5,21.379,21.379,0,0,0,3.06,0c.4-.06.54-.12.54-.46v-2.5a34.79,34.79,0,0,1-10.94,5.32,20.3,20.3,0,0,0-1.6-2.18,33.415,33.415,0,0,0,8.38-3.28c-2.88.24-5.62.46-7.78.6l-.32-2.36,2.94-.12V498.3h4.14a18.1,18.1,0,0,0,.64-1.94l2.92.28c-.28.58-.6,1.14-.9,1.66h5v5.54c.36-.46.7-1,1-1.46Zm-12.72-3.16v1.16h6.94v-1.16Zm6.94,2.86h-6.94v1.2h6.94Zm-6.94,4.26,6.2-.34c.26-.2.5-.42.74-.62v-.36h-6.94Z" fill="#fff"/>
    <path id="パス_112" data-name="パス 112" d="M480.43,512.52c.66,0,.78-.52.88-3.4a6.648,6.648,0,0,0,2.2,1c-.24,3.58-.84,4.62-2.88,4.62h-2.4c-2.26,0-2.84-.76-2.84-3.1v-6.12h-3c-.36,4.16-1.28,7.58-6.06,9.52a6.857,6.857,0,0,0-1.48-1.94c4.16-1.56,4.72-4.26,5-7.58h-4.53V503.2h17.85v2.32h-5.28v6.12c0,.76.12.88.78.88Zm.86-12.42h-14.2v-2.3h14.2Z" fill="#fff"/>
    <path id="パス_113" data-name="パス 113" d="M491.51,497.16a33.549,33.549,0,0,1-1.86,3.94V515h-2.26V504.58a20.735,20.735,0,0,1-1.53,1.78,15.024,15.024,0,0,0-1.27-2.44,21.232,21.232,0,0,0,4.72-7.48Zm7.88,10.94a15.065,15.065,0,0,0,4.58,4.36,10.159,10.159,0,0,0-1.68,1.9,16.513,16.513,0,0,1-4.06-4.44v5.16h-2.4V510a16,16,0,0,1-4.32,4.3,9.815,9.815,0,0,0-1.64-1.9,14.372,14.372,0,0,0,4.82-4.32h-4.1v-2.16h5.24v-1.8h-3.92v-6.86h10.5v6.86h-4.18v1.8h5.16v2.16Zm-5.22-6.1H500v-2.68h-5.86Z" fill="#fff"/>
    <path id="パス_114" data-name="パス 114" d="M504.85,499.78h7.42v1.88h-7.42Zm6.84,14.5h-4v.78h-2v-6.82h6Zm-.14-9.86h-5.76v-1.78h5.76Zm-5.76,1h5.76v1.8h-5.76Zm5.76-6.6h-5.64V497h5.64Zm-3.82,11.3v2.28h1.92v-2.28Zm15.84,2v2.22H512.33v-2.22h1.22v-9.48h2.22v9.48h1.52V499.68h-4.4v-2.26h10.3v2.26h-3.56v4.72h3.46v2.24h-3.46v5.52Z" fill="#fff"/>
    <circle id="楕円形_3" data-name="楕円形 3" cx="26" cy="26" r="26" transform="translate(385.75 477.75)" fill="#fff"/>
    <path id="パス_115" data-name="パス 115" d="M418.15,514h7a1.559,1.559,0,0,0,1.56-1.56V495.09a1.559,1.559,0,0,0-1.56-1.56H398.39a1.559,1.559,0,0,0-1.56,1.56v17.32a1.559,1.559,0,0,0,1.56,1.56h15.15" fill="none" stroke="#fbb03b" stroke-miterlimit="10" stroke-width="1"/>
    <path id="パス_116" data-name="パス 116" d="M404.53,505.37v-.26a1.1,1.1,0,0,0-.08-.42,5.754,5.754,0,0,1-1.09-2.8,2.38,2.38,0,1,1,4.71,0,5.893,5.893,0,0,1-1.11,2.83,1,1,0,0,0-.07.39v.26a.918.918,0,0,0,.54.84l1.77.72a1.3,1.3,0,0,1,.73.94l.09,1.07h-8.61l.08-1.06a1.26,1.26,0,0,1,.73-.94l1.77-.73a.918.918,0,0,0,.54-.84Z" fill="none" stroke="#fbb03b" stroke-miterlimit="10" stroke-width="1"/>
    <path id="パス_117" data-name="パス 117" d="M412.38,506.69h9.48v1.72h-9.48Z" fill="#fbb03b"/>
    <path id="パス_118" data-name="パス 118" d="M412.38,502.98h9.48v1.72h-9.48Z" fill="#fbb03b"/>
    <path id="パス_119" data-name="パス 119" d="M410.32,499.27h11.53v1.72H410.32Z" fill="#fbb03b"/>
    <path id="パス_120" data-name="パス 120" d="M0,0H178V64.5H0Z" transform="translate(362 1271)" opacity="0.7" fill="url(#linear-gradient-7)"/>
    <path id="パス_121" data-name="パス 121" d="M441.75,1313.28v-1h-9.12c-.78,0-1.92.06-2.58.12v-2.86c.7.06,1.6.12,2.5.12h9.22v-8.28h-9a22.941,22.941,0,0,0-2.48.08v-2.78c.74.08,1.78.12,2.48.12h11.82c0,.46-.06,1.26-.06,1.84V1311a22.323,22.323,0,0,0,.08,2.36Z" fill="#fff"/>
    <path id="パス_122" data-name="パス 122" d="M457.17,1308.34a19,19,0,0,0,7.28-7.78l1.56,2.82a21.28,21.28,0,0,1-7.4,7.4,21.66,21.66,0,0,1-7.42,2.82l-1.68-2.64a20.6,20.6,0,0,0,7.66-2.62Zm0-6.48-2,2.1a41.527,41.527,0,0,0-5-4.32l1.88-2a42.063,42.063,0,0,1,5.12,4.22Z" fill="#fff"/>
    <path id="パス_123" data-name="パス 123" d="M483.63,1300.88a11.829,11.829,0,0,0,2.2-.14v2.66c-.44,0-1.14-.06-2.2-.06h-1.48v.66c0,5-1.2,8-6,10.1l-2.14-2c3.86-1.34,5.56-3.08,5.56-8v-.76h-4.74v2.72c0,.88.06,1.7.08,2.1h-2.8a16.024,16.024,0,0,0,.12-2.1v-2.72h-1.7a14.879,14.879,0,0,0-2.16.08v-2.72a13.216,13.216,0,0,0,2.16.18h1.7v-2a16.4,16.4,0,0,0-.12-1.8h2.84a12.316,12.316,0,0,0-.12,1.82v2h4.74v-2.1a13.15,13.15,0,0,0-.12-1.86h2.84a17,17,0,0,0-.12,1.86v2.1Z" fill="#fff"/>
    <path id="パス_124" data-name="パス 124" d="M488,1312.1a9.426,9.426,0,0,0,3.4-4.78c.56-1.72.58-5.5.58-7.92a7.279,7.279,0,0,0-.18-1.82h2.94a12.753,12.753,0,0,0-.14,1.8,44.154,44.154,0,0,1-.6,8.6,11.577,11.577,0,0,1-3.56,5.74Zm9.26.3a7.6,7.6,0,0,0,.16-1.48v-11.66a8.864,8.864,0,0,0-.16-1.72h3a10.248,10.248,0,0,0-.14,1.74v10.46a12.671,12.671,0,0,0,4.94-4.22l1.54,2.2a22,22,0,0,1-6.78,5.46,5.162,5.162,0,0,0-.88.6Z" fill="#fff"/>
    <path id="パス_125" data-name="パス 125" d="M520.31,1310a17.87,17.87,0,0,0,6.34,2.18,11.2,11.2,0,0,0-1.6,2.16,17.077,17.077,0,0,1-6.72-3.38v3.6H516v-3.48a19,19,0,0,1-6.7,3.24,11.075,11.075,0,0,0-1.52-2,21.012,21.012,0,0,0,6.32-2.34h-5.74v-2H516v-.88h-5.76v-1.72H516v-.9h-6.76v-1.86H513a9.04,9.04,0,0,0-.68-1.56h-3.94v-1.94h2.68a17.971,17.971,0,0,0-1.24-2.48l2-.7a15.13,15.13,0,0,1,1.52,2.82l-1,.36h1.82v-3.26h2.22v3.26H518v-3.26h2.24v3.26H522l-.72-.22a16.106,16.106,0,0,0,1.26-2.9l2.5.6c-.56.92-1.1,1.82-1.56,2.52h2.6v1.94h-3.76c-.32.58-.64,1.12-.94,1.6h3.92v1.86h-6.94v.9h6v1.72h-6v.88h7.78v2Zm-5.44-8.92a9.84,9.84,0,0,1,.68,1.54l-.34.06H519c.24-.48.48-1.06.7-1.6Z" fill="#fff"/>
    <circle id="楕円形_4" data-name="楕円形 4" cx="26" cy="26" r="26" transform="translate(367.75 1278.13)" fill="#fff"/>
    <path id="パス_126" data-name="パス 126" d="M384.17,1291.83h-3.39a1.44,1.44,0,0,0-1.46,1.42v16.16l-3.16,3.84a.548.548,0,0,0-.12.35v1.7a1.139,1.139,0,0,0,1.15,1.13H410.3a1.14,1.14,0,0,0,1.16-1.12v-1.71a.548.548,0,0,0-.12-.35l-3.16-3.84v-16.16a1.44,1.44,0,0,0-1.46-1.42H386.4m-5,2h24.74v13.58H381.38Zm15.7,21.26h-6.66v-1.71h6.66Z" fill="none" stroke="#22b573" stroke-miterlimit="10" stroke-width="1"/>
    <path id="パス_127" data-name="パス 127" d="M385.17,1303.42h2.45v2.37h-2.45Z" fill="#22b573"/>
    <path id="パス_128" data-name="パス 128" d="M388.85,1301.04h2.45v4.75h-2.45Z" fill="#22b573"/>
    <path id="パス_129" data-name="パス 129" d="M392.52,1299.86h2.45v5.93h-2.45Z" fill="#22b573"/>
    <path id="パス_130" data-name="パス 130" d="M396.2,1296.3h2.45v9.49H396.2Z" fill="#22b573"/>
    <path id="パス_131" data-name="パス 131" d="M399.88,1298.67h2.45v7.12h-2.45Z" fill="#22b573"/>
    <path id="パス_132" data-name="パス 132" d="M0,0H178V64.5H0Z" transform="translate(362 1090.5)" fill="url(#linear-gradient-8)"/>
    <path id="パス_133" data-name="パス 133" d="M462.45,1123.06c0,2,.8,6.48,4.2,8.94a22.881,22.881,0,0,0-1.46,2.1c-2.5-1.76-3.64-5.18-3.9-6.92a11.3,11.3,0,0,1-4.48,6.92,14.025,14.025,0,0,0-1.34-1.94l-1,.38a9.639,9.639,0,0,0-.28-1c-2,.64-4,1.3-5.64,1.8l-.74-2.18,1.4-.32v-9.44c-.14.1-.26.22-.4.32a7.7,7.7,0,0,0-1.36-1.64,12.242,12.242,0,0,0,3.86-4.68h2.24A31.571,31.571,0,0,1,457,1119l-1.62,1.54a24.437,24.437,0,0,0-2.64-3.14,16.99,16.99,0,0,1-2.74,3.36h1.74v-1.54h2.12v1.54h2.28v1.7a16.846,16.846,0,0,0,2.36-7l2.32.32a29.132,29.132,0,0,1-.68,3.16h4.38l.36-.08,1.6.38a26.025,26.025,0,0,1-1.46,5.5l-1.88-.6a20.955,20.955,0,0,0,.76-3h-1.48Zm-7.6,4.56a30.417,30.417,0,0,1,1.6,3.74,11.422,11.422,0,0,0,3.68-8.3v-2h-.68a13.123,13.123,0,0,1-1.82,3.38,13.689,13.689,0,0,0-1.46-1v4.16h-4.8v2.74l2.18-.58c-.2-.5-.42-1-.62-1.42Zm-3.48-5.24v1h2.7v-1Zm0,2.54v1h2.7v-1Z" fill="#fff"/>
    <path id="パス_134" data-name="パス 134" d="M485.41,1128.72a36.085,36.085,0,0,1-3.72,2.16,17.367,17.367,0,0,0,4.64,1.12,9.336,9.336,0,0,0-1.42,2.08c-4.36-.72-7.24-2.52-9-5.66h-2.3v2.94l4.24-.36v2.1c-3,.3-6.1.58-8.4.78l-.32-2.18,2.08-.16v-9.64a24.149,24.149,0,0,1-2.16,1.08,9.965,9.965,0,0,0-1.38-2,20.614,20.614,0,0,0,8.1-5.68h2.38a20.011,20.011,0,0,0,8.54,5.46,11.275,11.275,0,0,0-1.5,2.12c-.7-.3-1.42-.66-2.14-1v5.86c.22-.14.42-.3.6-.44Zm-4-7.84a20.671,20.671,0,0,1-4.3-3.46,19.846,19.846,0,0,1-4.16,3.46h3v-1.54h2.44v1.54Zm-7.8,2.88h7.08v-1h-7.08Zm0,2.8h7.08v-1.1h-7.08Zm4.7,1.86a7.276,7.276,0,0,0,1.44,1.38c.74-.4,1.58-.88,2.34-1.38Z" fill="#fff"/>
    <path id="パス_135" data-name="パス 135" d="M500.31,1129.52a17.87,17.87,0,0,0,6.34,2.18,11.206,11.206,0,0,0-1.6,2.16,17.078,17.078,0,0,1-6.72-3.38v3.6H496v-3.48a19.006,19.006,0,0,1-6.7,3.24,11.085,11.085,0,0,0-1.52-2,21.01,21.01,0,0,0,6.32-2.34h-5.74v-2H496v-.88h-5.76V1125H496v-.9h-6.76v-1.86H493a9.046,9.046,0,0,0-.68-1.56h-3.94v-1.94h2.68a17.95,17.95,0,0,0-1.24-2.48l2-.7a15.131,15.131,0,0,1,1.52,2.82l-1,.36h1.82v-3.26h2.22v3.26H498v-3.26h2.24v3.26H502l-.72-.22a16.111,16.111,0,0,0,1.26-2.9l2.5.6c-.56.92-1.1,1.82-1.56,2.52h2.6v1.94h-3.76c-.32.58-.64,1.12-.94,1.6h3.92v1.86h-6.94v.9h6v1.72h-6v.88h7.78v2Zm-5.44-8.92a9.826,9.826,0,0,1,.68,1.54l-.34.06H499c.24-.48.48-1.06.7-1.6Z" fill="#fff"/>
    <circle id="楕円形_5" data-name="楕円形 5" cx="26" cy="26" r="26" transform="translate(367.75 1097.13)" fill="#fff"/>
    <path id="パス_136" data-name="パス 136" d="M381.33,1135.81l.71.75a.9.9,0,0,0,1.24.06l10-8.83-2-1.94-9.84,8.68a.891.891,0,0,0-.134,1.252Z" fill="none" stroke="#4fc2f1" stroke-miterlimit="10" stroke-width="1"/>
    <path id="パス_137" data-name="パス 137" d="M403.25,1110.63a6.846,6.846,0,0,0-3.33,1.74,6.742,6.742,0,0,0-2.06,4.81,4.477,4.477,0,0,1-1.19,3.51l-1.4,1.33,2,2,1.3-1.24a4.491,4.491,0,0,1,3.57-1,6.779,6.779,0,0,0,4.91-1.81c2.35-2.24,2.83-5.91.85-8a4.439,4.439,0,0,0-1.86-1.16" fill="none" stroke="#4fc2f1" stroke-miterlimit="10" stroke-width="1"/>
    <path id="パス_138" data-name="パス 138" d="M387,1111.09c-.48-.47-1-.92-1.36-1.3a1.17,1.17,0,0,0-1.742,1.563,1.251,1.251,0,0,0,.122.117l4,3.83a.64.64,0,0,1,.005.9l-.005.005-.12.13a.63.63,0,0,1-.891.009l-.009-.009-4.06-3.85a1.21,1.21,0,0,0-1.66,1.76l4.05,3.84a.65.65,0,0,1,0,.91l-.12.13a.659.659,0,0,1-.91,0l-4-3.83a1.171,1.171,0,1,0-1.6,1.71l3.85,3.66c2.13,2,3.17,2,4.64,1.84,1.18-.17,2-.46,3.37.8l13.82,13.26a.84.84,0,0,0,1.18,0l.8-.84a.829.829,0,0,0,0-1.17l-13.83-13.26c-1.33-1.26-1.09-2.14-1-3.33.14-1.47.07-2.51-2.08-4.53l-1.06-1" fill="none" stroke="#4fc2f1" stroke-miterlimit="10" stroke-width="1"/>
    <path id="パス_139" data-name="パス 139" d="M0,0H177.63V64.5H0Z" transform="translate(362.37 886)" fill="url(#linear-gradient-9)"/>
    <path id="パス_140" data-name="パス 140" d="M434.59,919.48l-1.46,2.24c-1.14-.8-3.22-2.14-4.56-2.86l1.44-2.2C431.37,917.38,433.57,918.76,434.59,919.48Zm1.6,4.56a20.244,20.244,0,0,0,7.78-7.5l1.54,2.72a24.121,24.121,0,0,1-7.94,7.2,25.136,25.136,0,0,1-6.68,2.46l-1.5-2.62a21.441,21.441,0,0,0,6.8-2.3Zm1.46-9.08-1.48,2.2c-1.12-.78-3.2-2.12-4.52-2.86l1.44-2.2a52.9,52.9,0,0,1,4.56,2.9Zm6,.62-1.74.74a18.037,18.037,0,0,0-1.76-3.14l1.66-.7a30.18,30.18,0,0,1,1.8,3.1Zm2.8-1.08-1.7.76a19.17,19.17,0,0,0-1.88-3l1.7-.7a25.608,25.608,0,0,1,1.84,2.94Z" fill="none" stroke="#f0d200" stroke-linecap="round" stroke-linejoin="round" stroke-width="3"/>
    <path id="パス_141" data-name="パス 141" d="M463.55,928.74c-.26-.68-.58-1.5-.94-2.36-3.26.38-9.32,1-11.84,1.28l-1.88.24-.46-2.92h2.74c1.16-3,2.88-8.44,3.46-10.52a14.8,14.8,0,0,0,.48-2.3l3.18.64a22.871,22.871,0,0,0-.86,2.22c-.64,2-2.26,7-3.26,9.72,2.44-.24,5.28-.56,7.3-.8a24.175,24.175,0,0,0-2.1-3.66l2.5-1a61.6,61.6,0,0,1,4.38,8.32Z" fill="none" stroke="#f0d200" stroke-linecap="round" stroke-linejoin="round" stroke-width="3"/>
    <path id="パス_142" data-name="パス 142" d="M477.19,917.68a2.56,2.56,0,1,1-2.56,2.56A2.56,2.56,0,0,1,477.19,917.68Z" fill="none" stroke="#f0d200" stroke-linecap="round" stroke-linejoin="round" stroke-width="3"/>
    <path id="パス_143" data-name="パス 143" d="M503.57,915.26a13.04,13.04,0,0,0,2.08-.14v2.74a20.611,20.611,0,0,0-2.08-.08h-2.8c-.36,5.32-2.44,8.88-6.06,11.16l-2.7-1.8a7.466,7.466,0,0,0,1.9-1.12c2.1-1.6,3.76-4.06,4.08-8.24h-4.22a16.389,16.389,0,0,1-3.22,4.2L488,920.46a15.314,15.314,0,0,0,3.46-4.12,12.58,12.58,0,0,0,1.16-2.72,7.845,7.845,0,0,0,.42-2.06l3.08.62c-.22.5-.48,1.2-.64,1.62s-.34.94-.56,1.46Z" fill="none" stroke="#f0d200" stroke-linecap="round" stroke-linejoin="round" stroke-width="3"/>
    <path id="パス_144" data-name="パス 144" d="M526.29,914.3a10.166,10.166,0,0,0-.78,1,20.13,20.13,0,0,1-4.82,5.48l-2.06-1.66a11.88,11.88,0,0,0,3.68-3.72H511.89c-.84,0-1.5.06-2.44.14V912.8a15.953,15.953,0,0,0,2.44.2h10.78a10.009,10.009,0,0,0,2-.18Zm-8.16,2.7c0,5-.1,9-5.56,12l-2.32-1.9a7.919,7.919,0,0,0,2.1-1.1c2.54-1.76,3-3.88,3-7.16a11.18,11.18,0,0,0-.14-1.8Z" fill="none" stroke="#f0d200" stroke-linecap="round" stroke-linejoin="round" stroke-width="3"/>
    <path id="パス_145" data-name="パス 145" d="M434.59,919.48l-1.46,2.24c-1.14-.8-3.22-2.14-4.56-2.86l1.44-2.2C431.37,917.38,433.57,918.76,434.59,919.48Zm1.6,4.56a20.244,20.244,0,0,0,7.78-7.5l1.54,2.72a24.121,24.121,0,0,1-7.94,7.2,25.136,25.136,0,0,1-6.68,2.46l-1.5-2.62a21.441,21.441,0,0,0,6.8-2.3Zm1.46-9.08-1.48,2.2c-1.12-.78-3.2-2.12-4.52-2.86l1.44-2.2a52.9,52.9,0,0,1,4.56,2.9Zm6,.62-1.74.74a18.037,18.037,0,0,0-1.76-3.14l1.66-.7a30.18,30.18,0,0,1,1.8,3.1Zm2.8-1.08-1.7.76a19.17,19.17,0,0,0-1.88-3l1.7-.7a25.608,25.608,0,0,1,1.84,2.94Z" fill="#fff"/>
    <path id="パス_146" data-name="パス 146" d="M463.55,928.74c-.26-.68-.58-1.5-.94-2.36-3.26.38-9.32,1-11.84,1.28l-1.88.24-.46-2.92h2.74c1.16-3,2.88-8.44,3.46-10.52a14.8,14.8,0,0,0,.48-2.3l3.18.64a22.871,22.871,0,0,0-.86,2.22c-.64,2-2.26,7-3.26,9.72,2.44-.24,5.28-.56,7.3-.8a24.175,24.175,0,0,0-2.1-3.66l2.5-1a61.6,61.6,0,0,1,4.38,8.32Z" fill="#fff"/>
    <path id="パス_147" data-name="パス 147" d="M477.19,917.68a2.56,2.56,0,1,1-2.56,2.56A2.56,2.56,0,0,1,477.19,917.68Z" fill="#fff"/>
    <path id="パス_148" data-name="パス 148" d="M503.57,915.26a13.04,13.04,0,0,0,2.08-.14v2.74a20.611,20.611,0,0,0-2.08-.08h-2.8c-.36,5.32-2.44,8.88-6.06,11.16l-2.7-1.8a7.466,7.466,0,0,0,1.9-1.12c2.1-1.6,3.76-4.06,4.08-8.24h-4.22a16.389,16.389,0,0,1-3.22,4.2L488,920.46a15.314,15.314,0,0,0,3.46-4.12,12.58,12.58,0,0,0,1.16-2.72,7.845,7.845,0,0,0,.42-2.06l3.08.62c-.22.5-.48,1.2-.64,1.62s-.34.94-.56,1.46Z" fill="#fff"/>
    <path id="パス_149" data-name="パス 149" d="M526.29,914.3a10.166,10.166,0,0,0-.78,1,20.13,20.13,0,0,1-4.82,5.48l-2.06-1.66a11.88,11.88,0,0,0,3.68-3.72H511.89c-.84,0-1.5.06-2.44.14V912.8a15.953,15.953,0,0,0,2.44.2h10.78a10.009,10.009,0,0,0,2-.18Zm-8.16,2.7c0,5-.1,9-5.56,12l-2.32-1.9a7.919,7.919,0,0,0,2.1-1.1c2.54-1.76,3-3.88,3-7.16a11.18,11.18,0,0,0-.14-1.8Z" fill="#fff"/>
    <circle id="楕円形_6" data-name="楕円形 6" cx="26" cy="26" r="26" transform="translate(367.75 892.13)" fill="#fff"/>
    <path id="パス_150" data-name="パス 150" d="M388.53,915.88h-.01v4.51h10.46v-4.51Z" fill="none" stroke="#edca34" stroke-miterlimit="10" stroke-width="1"/>
    <path id="パス_151" data-name="パス 151" d="M385.05,908.74H382c-1.8,0-3.28,1.09-3.28,2.41v14c0,1.33,1.48,2.41,3.28,2.41h3.1c.88,0,1.61-.53,1.61-1.19v-15.1" fill="none" stroke="#edca34" stroke-miterlimit="10" stroke-width="1"/>
    <path id="パス_152" data-name="パス 152" d="M406.36,908.74h-3.91c-.88,0-1.61.54-1.61,1.19v16.4c0,.66.73,1.19,1.61,1.19h3.1c1.8,0,3.28-1.08,3.28-2.41v-14" fill="none" stroke="#edca34" stroke-miterlimit="10" stroke-width="1"/>
    <path id="パス_153" data-name="パス 153" d="M373.1,918.13a2.741,2.741,0,0,0,2.73,2.73h1.33V915.4h-1.33A2.741,2.741,0,0,0,373.1,918.13Z" fill="none" stroke="#edca34" stroke-miterlimit="10" stroke-width="1"/>
    <path id="パス_154" data-name="パス 154" d="M411.67,915.4h-1.33v5.47h1.33a2.735,2.735,0,0,0,0-5.47Z" fill="none" stroke="#edca34" stroke-miterlimit="10" stroke-width="1"/>
    <path id="パス_155" data-name="パス 155" d="M0,0H177.89V64.5H0Z" transform="translate(362 302.5)" opacity="0.8" fill="url(#linear-gradient-10)"/>
    <path id="パス_156" data-name="パス 156" d="M462.17,336.84a8.518,8.518,0,0,0-1.47-2,19.166,19.166,0,0,0,8-7.52h2.54a18,18,0,0,0,8.48,7.24,11.98,11.98,0,0,0-1.56,2.18,21.921,21.921,0,0,1-8.08-7,21.422,21.422,0,0,1-7.91,7.1Zm5.74-2.06v2.48c0,2.82-.42,6.36-4.32,8.82a9.113,9.113,0,0,0-2-1.7c3.5-2.08,3.84-4.9,3.84-7.18v-2.42Zm6.9-.1v11.38h-2.48V334.68Z" fill="#fff"/>
    <path id="パス_157" data-name="パス 157" d="M487.45,332.58h-6.6V330.7h6.6ZM486.93,345h-3.48v.8h-1.84V339h5.32Zm2-10c-.2.22-.38.42-.58.6a14.95,14.95,0,0,0-1.4-1.16v.88h-5.3V333.5H487v.8a9.85,9.85,0,0,0,2.56-3.7l.66.18v-.66h-2.5v-1.7h2.5v-1h2.12v1h2.34v-1h2.12v1h2.48v1.7H496.8v1h-1c-.18.34-.36.68-.54,1h3.52v1.46h-3.62v.6h3.2v1.18h-3.2v.6h3.2v1.2h-3.2v.6h4.08v1.5H489Zm-7.28,1.24H487V338h-5.3Zm5.24-6.4h-5.12V328h5.12Zm-3.46,11v2.3H485v-2.3Zm15.32-.46a8.573,8.573,0,0,1-3,3.14,23.677,23.677,0,0,0,3.82.68,7.59,7.59,0,0,0-1.34,1.86,19.528,19.528,0,0,1-4.92-1.3,24.7,24.7,0,0,1-5.42,1.36,7.221,7.221,0,0,0-.94-1.78,24,24,0,0,0,4.16-.76,9.52,9.52,0,0,1-1.84-1.6l1.38-.52H488v-1.7h9.14l.3-.08Zm-7.46-9.32h.08c-.14.32-.28.64-.44,1h2.16a9.55,9.55,0,0,0,.5-1.36l1,.16v-.74h-2.34v1Zm1.74,2.44h-2v.6h2Zm0,1.78h-2v.6h2Zm0,1.8h-2v.6h2Zm-1.6,4.38a8.043,8.043,0,0,0,2,1.26,8.689,8.689,0,0,0,2-1.26Z" fill="#fff"/>
    <circle id="楕円形_7" data-name="楕円形 7" cx="26" cy="26" r="26" transform="translate(385.75 309.25)" fill="#fff"/>
    <path id="パス_158" data-name="パス 158" d="M423.11,340.11a18.252,18.252,0,0,0,1.62-1.18,1.56,1.56,0,0,0,.106-2.2c-.033-.037-.069-.072-.106-.106a2.071,2.071,0,0,0-2.68,0c-.75.62-5.83,4-5.83,4h-6.2a.59.59,0,1,1-.153-1.17.559.559,0,0,1,.153,0h4.55a1.65,1.65,0,0,0,.009-3.3H408c-4.14,0-5.45,1.72-6.9,3.17l-2.63,2.29a.78.78,0,0,0-.27.59v7.63a.271.271,0,0,0,.16.24.28.28,0,0,0,.28,0l5.07-4.36a.8.8,0,0,1,.65-.17l7.92,1.44a2.1,2.1,0,0,0,1.57-.35l7.09-4.95" fill="none" stroke="#f66" stroke-linejoin="round" stroke-width="1"/>
    <path id="パス_159" data-name="パス 159" d="M418,320.61a4.012,4.012,0,0,0-1.35-.19,4.1,4.1,0,0,0-3.42,2.06.56.56,0,0,1-1,0,4.1,4.1,0,0,0-3.42-2.06c-2.26-.05-4.32,1.6-4.32,5.23s3.08,6.12,5,7.42a17.4,17.4,0,0,0,2.81,1.48,2.662,2.662,0,0,0,.45.09,2.458,2.458,0,0,0,.44-.09,17.208,17.208,0,0,0,2.82-1.48c1.9-1.3,5-3.84,5-7.42a6,6,0,0,0-1-3.62" fill="none" stroke="#f66" stroke-linejoin="round" stroke-width="1"/>
    <path id="パス_160" data-name="パス 160" d="M0,0H178V64.5H0Z" transform="translate(362 1469.5)" opacity="0.7" fill="url(#linear-gradient-11)"/>
    <path id="パス_161" data-name="パス 161" d="M469.87,1500.68a17.468,17.468,0,0,0,7,7.26,10.124,10.124,0,0,0-1.84,2.16,16.371,16.371,0,0,1-3.26-2.68v2.28h-3.32v3.38h-2.5v-3.38h-3.44v-2.1a17.819,17.819,0,0,1-3.12,2.56,11.751,11.751,0,0,0-1.74-2,17.77,17.77,0,0,0,6.88-7.5h-6.1v-2.4h7.52v-3.86h2.5v3.86H476v2.4Zm-3.94,6.6v-4.36a23.317,23.317,0,0,1-3.14,4.36Zm5.68,0a22.326,22.326,0,0,1-3.18-4.4v4.4Z" fill="#fff"/>
    <path id="パス_162" data-name="パス 162" d="M487.07,1498.92c-.44,1.1-.84,2.2-1.18,3h2.32V1504H477.93v-2.16h2.28a12.625,12.625,0,0,0-.7-3l1.94-.4a10.062,10.062,0,0,1,.82,2.92l-1.88.44h5.32l-1.7-.42a21.029,21.029,0,0,0,.82-3Zm.92-.54h-9.64v-2.06H482v-1.78h2.3v1.78H488Zm-8.92,7h8.26V1513H485v-.92h-3.74v1h-2.2Zm2.2,2.06V1510H485v-2.64Zm15.3-10.88c-.7,1.94-1.58,4.24-2.38,5.94a6.381,6.381,0,0,1,2,4.68c0,1.46-.32,2.44-1.08,3a3.363,3.363,0,0,1-1.36.5,10.465,10.465,0,0,1-1.6,0,5.442,5.442,0,0,0-.58-2.34,7.457,7.457,0,0,0,1.12,0,2,2,0,0,0,.74-.16c.36-.22.48-.68.48-1.36a5.738,5.738,0,0,0-2-4.08c.58-1.42,1.22-3.46,1.7-5h-2.42v15.3h-2.32V1495.5h5.64l.36-.1Z" fill="#fff"/>
    <circle id="楕円形_8" data-name="楕円形 8" cx="26" cy="26" r="26" transform="translate(367.75 1476.13)" fill="#fff"/>
    <path id="パス_163" data-name="パス 163" d="M401.17,1489.36H405a2.171,2.171,0,0,1,2.17,2.17v23.88" fill="none" stroke="#8cc63f" stroke-miterlimit="10" stroke-width="1"/>
    <path id="パス_164" data-name="パス 164" d="M380.36,1515.41v-23.88a2.17,2.17,0,0,1,2.17-2.17h13.75" fill="none" stroke="#8cc63f" stroke-miterlimit="10" stroke-width="1"/>
    <path id="パス_165" data-name="パス 165" d="M391.22,1515.05v-5.79h5.06v5.79" fill="none" stroke="#8cc63f" stroke-miterlimit="10" stroke-width="1"/>
    <path id="パス_166" data-name="パス 166" d="M387.5,1494.34v2.34h-1.62v-2.34Zm.74-1h-3.09a.27.27,0,0,0-.27.26v3.82a.27.27,0,0,0,.27.26h3.09a.26.26,0,0,0,.26-.26v-3.82a.26.26,0,0,0-.26-.26Z" fill="#8cc63f"/>
    <path id="パス_167" data-name="パス 167" d="M394.56,1494.34v2.34h-1.62v-2.34Zm.74-1h-3.1a.26.26,0,0,0-.26.26v3.82a.26.26,0,0,0,.26.26h3.1a.26.26,0,0,0,.26-.26v-3.82a.26.26,0,0,0-.26-.26Z" fill="#8cc63f"/>
    <path id="パス_168" data-name="パス 168" d="M401.62,1494.34v2.34H400v-2.34Zm.73-1h-3.09a.26.26,0,0,0-.26.26v3.82a.26.26,0,0,0,.26.26h3.09a.27.27,0,0,0,.27-.26v-3.82a.27.27,0,0,0-.27-.26Z" fill="#8cc63f"/>
    <path id="パス_169" data-name="パス 169" d="M387.5,1501.57v2.35h-1.62v-2.35Zm.74-1h-3.09a.27.27,0,0,0-.27.27v3.81a.27.27,0,0,0,.27.27h3.09a.26.26,0,0,0,.26-.26v-3.82a.26.26,0,0,0-.25-.27Z" fill="#8cc63f"/>
    <path id="パス_170" data-name="パス 170" d="M394.56,1501.57v2.35h-1.62v-2.35Zm.74-1h-3.1a.27.27,0,0,0-.26.27v3.81a.27.27,0,0,0,.26.27h3.1a.27.27,0,0,0,.26-.27v-3.81a.27.27,0,0,0-.26-.27Z" fill="#8cc63f"/>
    <path id="パス_171" data-name="パス 171" d="M401.62,1501.57v2.35H400v-2.35Zm.73-1h-3.09a.26.26,0,0,0-.26.26v3.82a.26.26,0,0,0,.25.27h3.1a.27.27,0,0,0,.27-.27v-3.81a.27.27,0,0,0-.27-.27Z" fill="#8cc63f"/>
    <path id="パス_172" data-name="パス 172" d="M0,0H237V65H0Z" transform="translate(0.5 109)" stroke="#fff" stroke-miterlimit="10" stroke-width="1" fill="url(#linear-gradient-12)"/>
    <path id="パス_173" data-name="パス 173" d="M107.06,146.38c-.42-.56-1.1-1.36-1.78-2.1v7.54h-2.36v-6.9a16.531,16.531,0,0,1-2.48,1.92,9.526,9.526,0,0,0-1.12-2.26,14.991,14.991,0,0,0,5.6-5.6h-4.84v-2.14h2.84v-3.68h2.36v3.68h.9l.42-.1,1.34.86a19.417,19.417,0,0,1-2.36,4.28c1,.78,2.5,2.16,2.92,2.56Zm11.46,2.54v2.32H107.2v-2.32h4.62V141.6H108v-2.3h3.8v-6h2.44v6H118v2.3h-3.78v7.32Z" fill="#fff"/>
    <path id="パス_174" data-name="パス 174" d="M137.42,145.72a33.721,33.721,0,0,1-3.68,2.26,13.24,13.24,0,0,0,4.66,1.72,10.576,10.576,0,0,0-1.5,2.14,11.749,11.749,0,0,1-8.84-7.2h-2.3v4.24l4.32-.64.1,2.1c-3.06.5-6.36,1-8.78,1.36l-.54-2.18c.72-.08,1.54-.2,2.44-.3v-4.58H120v-2.1h3.32v-8.72h12.62v1.94H125.76v1.06h9.62v1.84h-9.62v1h9.62v1.84h-9.62v1H138v2.1h-2.14Zm-6.88-1.08a9.505,9.505,0,0,0,1.58,2.08,28.2,28.2,0,0,0,3.06-2.08Z" fill="#fff"/>
    <circle id="楕円形_9" data-name="楕円形 9" cx="26" cy="26" r="26" transform="translate(10.5 116)" fill="#fff"/>
    <path id="パス_175" data-name="パス 175" d="M28.92,135.11s-1.39-.49-1.49,1.49c-.05,1,.5,3.4,2.44,3.67,0,1,1.2,2.93,2.26,4.14.32,1.23.46,1.74.23,2.41" fill="none" stroke="#ff688b" stroke-miterlimit="10" stroke-width="1"/>
    <path id="パス_176" data-name="パス 176" d="M29.91,149.09c-1.81.5-3.8,2-5.63,2.41a3.871,3.871,0,0,0-.84.23,2.707,2.707,0,0,0-1.13,1.9c-.2.77-1.23,5.21-.91,6.34" fill="none" stroke="#ff688b" stroke-miterlimit="10" stroke-width="1"/>
    <path id="パス_177" data-name="パス 177" d="M41.74,123.17c.53.37,1.07.8,1.67,1.27,2.08,1.64,3.26,3.77,3.39,7.39" fill="none" stroke="#ff688b" stroke-miterlimit="10" stroke-width="1"/>
    <path id="パス_178" data-name="パス 178" d="M31,124.84c.67-1.45,2.84-3,6.52-3a7.443,7.443,0,0,1,1.92.23" fill="none" stroke="#ff688b" stroke-miterlimit="10" stroke-width="1"/>
    <path id="パス_179" data-name="パス 179" d="M30.17,125.11a1.836,1.836,0,0,0-.92-.31c-.6,0-1,.6-1.28,1.14a9.811,9.811,0,0,0,.22,9.05" fill="none" stroke="#ff688b" stroke-miterlimit="10" stroke-width="1"/>
    <path id="パス_180" data-name="パス 180" d="M32.63,126.75a11.675,11.675,0,0,1,7.6,2.21c.76.46,6,3.75,6.05,4.65" fill="none" stroke="#ff688b" stroke-miterlimit="10" stroke-width="1"/>
    <path id="パス_181" data-name="パス 181" d="M34.93,152.44c.34-1.11.84-.9,1.32-2l.16-.33q-2.27-1.67-4.35-3.54l-.67,1.71" fill="none" stroke="#ff688b" stroke-linejoin="round" stroke-width="1"/>
    <path id="パス_182" data-name="パス 182" d="M37.33,161c1.63-1.34,2.47-3.43,4.46-4.13l-.92-3.26a.63.63,0,0,1,0-.54.648.648,0,0,1,.3-.18c.47-.18,1.43-.6,1.9-.78,0-1.27.24-2.56,0-3-.06-.12-1-1.51-1-1.51a86.7,86.7,0,0,1-5.48,9.9h-.3a86.692,86.692,0,0,1-5.48-9.9s-.9,1.39-1,1.51c-.24.46,0,1.75,0,3,.47.18,1.43.6,1.9.78a.648.648,0,0,1,.3.18.63.63,0,0,1,0,.54l-.92,3.26c2,.7,2.83,2.79,4.46,4.13" fill="none" stroke="#ff688b" stroke-linejoin="round" stroke-width="1"/>
    <path id="パス_183" data-name="パス 183" d="M49.56,151.73a2.707,2.707,0,0,1,1.13,1.9c.2.77,1.23,5.21.91,6.34" fill="none" stroke="#ff688b" stroke-miterlimit="10" stroke-width="1"/>
    <path id="パス_184" data-name="パス 184" d="M43.09,149.09A36.889,36.889,0,0,1,47.3,151" fill="none" stroke="#ff688b" stroke-miterlimit="10" stroke-width="1"/>
    <path id="パス_185" data-name="パス 185" d="M38.07,152.54c-.34-1.11-.84-1-1.32-2.06l-.16-.33q2.27-1.669,4.35-3.54l.67,1.71" fill="none" stroke="#ff688b" stroke-linejoin="round" stroke-width="1"/>
    <path id="パス_186" data-name="パス 186" d="M44.29,135.11s1.4-.49,1.49,1.49c0,1-.5,3.4-2.44,3.67,0,1-1.2,2.93-2.25,4.14-.32,1.23-.47,1.74-.24,2.41" fill="none" stroke="#ff688b" stroke-miterlimit="10" stroke-width="1"/>
    <path id="パス_187" data-name="パス 187" d="M45.53,132.66a7.441,7.441,0,0,1-.4,2.11" fill="none" stroke="#ff688b" stroke-miterlimit="10" stroke-width="1"/>
    <path id="パス_188" data-name="パス 188" d="M30.61,127.75a4.669,4.669,0,0,0-1,3.36l.06.5a3.209,3.209,0,0,1-.18,1.37c-.21.59.18,1.17.27,1.79" fill="none" stroke="#ff688b" stroke-miterlimit="10" stroke-width="1"/>
    <path id="パス_189" data-name="パス 189" d="M43.69,131.26c.47.59.34,2.15.43,2.9" fill="none" stroke="#ff688b" stroke-miterlimit="10" stroke-width="1"/>
    <path id="パス_190" data-name="パス 190" d="M37.79,155.83l-1.29,1.65-1.29-1.65v-4.82h2.58Z" fill="#ff688b"/>
    <path id="パス_191" data-name="パス 191" d="M0,0H237V65H0Z" transform="translate(0.5 209)" stroke="#fff" stroke-miterlimit="10" stroke-width="1" fill="url(#linear-gradient-13)"/>
    <path id="パス_192" data-name="パス 192" d="M107.9,236a26.552,26.552,0,0,1-2.9,10.48,11.006,11.006,0,0,0,3.62,3.24,8.623,8.623,0,0,0-1.64,2,12.607,12.607,0,0,1-3.44-3.06,13.714,13.714,0,0,1-3.56,3.06,9.518,9.518,0,0,0-1.32-1.74v1.88h-2.3v-3.2c-2.3.4-4.64.76-6.48,1l-.46-2.38,1.84-.2V236.46H89.92v-2.2h10v1.42h6l.4-.06Zm-14.36.46v1.9h2.84v-1.9Zm0,6h2.84v-2H93.54Zm0,4.3,2.84-.38v-1.8H93.54Zm5.14,2.82a10.841,10.841,0,0,0,3.46-3.18,28.335,28.335,0,0,1-2.7-7.92l2.28-.46a24.138,24.138,0,0,0,1.84,5.92,22.677,22.677,0,0,0,1.72-6h-5.9v-1.56h-.7Z" fill="#fff"/>
    <path id="パス_193" data-name="パス 193" d="M112.18,245.14a17.526,17.526,0,0,1-1.2,5.14,10.653,10.653,0,0,0-1.66-.8,14.578,14.578,0,0,0,1-4.64Zm16.06-6.46v3.76H126V240.6h-7v1.84h-2a11.3,11.3,0,0,1,.38,1.46l-1.66.72a11.119,11.119,0,0,0-.26-1.14l-1,.08v8.26h-2v-8.1l-2.64.2-.24-2.06,1.58-.08c.26-.36.54-.76.8-1.16a16.971,16.971,0,0,0-2.32-2.9l1.14-1.54c.16.14.32.3.48.46a24.73,24.73,0,0,0,1.44-3.48l2,.7c-.72,1.38-1.54,3-2.24,4.08a10.129,10.129,0,0,1,.64.82c.66-1.12,1.26-2.28,1.72-3.26l1.88.86c-.74,1.22-1.6,2.56-2.48,3.82l1.56-.64a18.426,18.426,0,0,1,1.16,2.74v-3.6h2.42a11.711,11.711,0,0,0-.6-1.9H117v-2h4.26v-1.64h2.38v1.64h4.26v2h-1.42l-.88,1.92Zm-13.48,2.88a12.321,12.321,0,0,0-.6-1.38c-.36.52-.7,1-1.06,1.48Zm1.28,3.2a14.248,14.248,0,0,1,1,3.6l-1.66.54a14.786,14.786,0,0,0-.92-3.68Zm11.3,3c0,.9-.12,1.48-.7,1.82a4.062,4.062,0,0,1-2.24.38,7.265,7.265,0,0,0-.58-2,11.836,11.836,0,0,0,1.22,0c.18,0,.24-.06.24-.22v-3h-1.72v7.14h-2.14v-7.14H119.9V250h-2.08v-7.28h3.6v-1.64h2.14v1.64h3.78Zm-6.4-11a12.308,12.308,0,0,1,.6,1.92h1.8c.24-.58.5-1.3.7-1.92Z" fill="#fff"/>
    <path id="パス_194" data-name="パス 194" d="M136.56,238.22a23.727,23.727,0,0,1-1.84,2.58v11h-2.3v-8.48a19.66,19.66,0,0,1-1.76,1.54,14.343,14.343,0,0,0-1.26-2.28,18.532,18.532,0,0,0,5-5.24Zm-.5-4.16a20.822,20.822,0,0,1-5.28,5.06,15.806,15.806,0,0,0-1.18-2,14.881,14.881,0,0,0,4.22-4Zm11.08,8.3A13.2,13.2,0,0,1,143.7,248a14.862,14.862,0,0,0,4.86,1.74,9.81,9.81,0,0,0-1.52,2.12,14.426,14.426,0,0,1-5.24-2.3,18.554,18.554,0,0,1-5,2.3,9.025,9.025,0,0,0-1.3-2A15.127,15.127,0,0,0,140,248a13.524,13.524,0,0,1-2.38-3.56l1.78-.54h-2.82v-2.14h8.52l.44-.1Zm-6.92-6.4a6.712,6.712,0,0,1-2.32,5.64,10.309,10.309,0,0,0-2-1.34,4.869,4.869,0,0,0,2-4.36v-2.06h7.24v4.34c0,.36,0,.54.06.62a.391.391,0,0,0,.28.08H146a.675.675,0,0,0,.3-.06c.08,0,.16-.16.2-.44s.06-.92.08-1.66a6.575,6.575,0,0,0,1.78.94,8.71,8.71,0,0,1-.3,2.16,1.461,1.461,0,0,1-.76.86,2.915,2.915,0,0,1-1.2.24h-1.2a2.18,2.18,0,0,1-1.5-.52c-.38-.38-.56-.82-.56-2.14v-2.34h-2.58Zm-.44,7.92a9.559,9.559,0,0,0,2,2.72,10.645,10.645,0,0,0,2.1-2.72Z" fill="#fff"/>
    <circle id="楕円形_10" data-name="楕円形 10" cx="26" cy="26" r="26" transform="translate(10.5 216)" fill="#fff"/>
    <path id="パス_195" data-name="パス 195" d="M28.92,236s-1.39-.49-1.49,1.49c-.05,1,.5,3.4,2.44,3.67,0,1,1.2,2.93,2.26,4.14a3.91,3.91,0,0,1,.23,2.41" fill="none" stroke="#ff688b" stroke-miterlimit="10" stroke-width="1"/>
    <path id="パス_196" data-name="パス 196" d="M29.91,250c-1.81.5-3.8,2-5.63,2.41a3.355,3.355,0,0,0-.84.23,2.688,2.688,0,0,0-1.13,1.9c-.2.77-1.23,5.21-.91,6.34" fill="none" stroke="#ff688b" stroke-miterlimit="10" stroke-width="1"/>
    <path id="パス_197" data-name="パス 197" d="M42.34,224.63c-.66-1.45-5.2-3.75-10.23-1.36-6.35,3-5.23,8.79-4.33,13" fill="none" stroke="#ff688b" stroke-miterlimit="10" stroke-width="1"/>
    <path id="パス_198" data-name="パス 198" d="M45.92,228.88c.29,2.08.31,5-.74,6.79" fill="none" stroke="#ff688b" stroke-miterlimit="10" stroke-width="1"/>
    <path id="パス_199" data-name="パス 199" d="M43.2,225.13a3.281,3.281,0,0,1,1.9,1.58" fill="none" stroke="#ff688b" stroke-miterlimit="10" stroke-width="1"/>
    <path id="パス_200" data-name="パス 200" d="M34.93,253.32c.34-1.11.84-.9,1.32-2l.16-.33q-2.27-1.67-4.35-3.54l-.67,1.71" fill="none" stroke="#ff688b" stroke-linejoin="round" stroke-width="1"/>
    <path id="パス_201" data-name="パス 201" d="M37.33,261.88c1.63-1.34,2.47-3.43,4.46-4.13l-.92-3.26a.63.63,0,0,1,0-.54.671.671,0,0,1,.3-.19c.47-.17,1.43-.59,1.9-.77,0-1.27.24-2.57,0-3-.06-.12-1-1.51-1-1.51a86.7,86.7,0,0,1-5.48,9.9h-.3a86.689,86.689,0,0,1-5.48-9.9s-.9,1.39-1,1.51c-.24.45,0,1.75,0,3,.47.18,1.43.6,1.9.77a.671.671,0,0,1,.3.19.63.63,0,0,1,0,.54l-.92,3.26c2,.7,2.83,2.79,4.46,4.13" fill="none" stroke="#ff688b" stroke-linejoin="round" stroke-width="1"/>
    <path id="パス_202" data-name="パス 202" d="M49.56,252.61a2.688,2.688,0,0,1,1.13,1.9c.2.77,1.23,5.21.91,6.34" fill="none" stroke="#ff688b" stroke-miterlimit="10" stroke-width="1"/>
    <path id="パス_203" data-name="パス 203" d="M43.09,250a35.17,35.17,0,0,1,4.21,1.92" fill="none" stroke="#ff688b" stroke-miterlimit="10" stroke-width="1"/>
    <path id="パス_204" data-name="パス 204" d="M38.07,253.42c-.34-1.11-.84-1-1.32-2.06l-.16-.33q2.27-1.669,4.35-3.54l.67,1.71" fill="none" stroke="#ff688b" stroke-linejoin="round" stroke-width="1"/>
    <path id="パス_205" data-name="パス 205" d="M44.29,236s1.4-.49,1.49,1.49c0,1-.5,3.4-2.44,3.67,0,1-1.2,2.93-2.25,4.14-.32,1.22-.47,1.73-.24,2.41" fill="none" stroke="#ff688b" stroke-miterlimit="10" stroke-width="1"/>
    <path id="パス_206" data-name="パス 206" d="M37.79,256.71l-1.29,1.65-1.29-1.65v-4.82h2.58Z" fill="#ff688b"/>
    <path id="パス_207" data-name="パス 207" d="M39.36,228.32a5.461,5.461,0,0,1-3.33,2.5c-.93.24-1.88.34-2.79.66-1.85.65-4.32,3-4.82,4.51" fill="none" stroke="#ff688b" stroke-miterlimit="10" stroke-width="1"/>
    <path id="パス_208" data-name="パス 208" d="M40.55,230.06a6.793,6.793,0,0,0,1.07,2.55c.33.42.76.75,1.12,1.16a4,4,0,0,1,.9,1.88" fill="none" stroke="#ff688b" stroke-miterlimit="10" stroke-width="1"/>
    <path id="パス_209" data-name="パス 209" d="M619.5,484H778v45.5H619.5Z" fill="#fff" stroke="#fbb03b" stroke-linecap="round" stroke-linejoin="round" stroke-width="1" opacity="0.8"/>
    <path id="パス_210" data-name="パス 210" d="M361.25,503.75H304" fill="none" stroke="#2e3d83" stroke-miterlimit="10" stroke-width="0.9"/>
    <path id="パス_211" data-name="パス 211" d="M668.33,502.11a14.364,14.364,0,0,0-.39,1.41,42.1,42.1,0,0,0-.75,6.13,7.119,7.119,0,0,0,.07,1c.2-.56.46-1.09.7-1.62l1,.78a39.193,39.193,0,0,0-1.14,3.78,2.877,2.877,0,0,0-.08.74v.65l-1.8.13a19.1,19.1,0,0,1-.62-5.06,47.434,47.434,0,0,1,.65-6.61,10.594,10.594,0,0,0,.15-1.55Zm9.73,12a16.979,16.979,0,0,0-1.92-1.58c-.1,1.5-1,2.59-3.11,2.59s-3.55-.93-3.55-2.59,1.36-2.73,3.52-2.73a6.823,6.823,0,0,1,1,.07c0-1-.09-2.13-.11-3.25h-1.14c-.93,0-1.82,0-2.77-.09v-1.89a25.364,25.364,0,0,0,2.77.14h1.12v-1.76a3.585,3.585,0,0,0-.09-1h2.27c0,.3-.08.69-.1,1s-.05,1-.05,1.65c.87-.1,1.7-.21,2.45-.37v2c-.76.11-1.6.21-2.46.27,0,1.54.11,2.8.17,3.88a9.873,9.873,0,0,1,3.06,2Zm-3.94-2.58a4.99,4.99,0,0,0-1.28-.17c-.9,0-1.5.36-1.5,1s.64.93,1.47.93c1,0,1.31-.52,1.31-1.44Z" fill="#2e3d83"/>
    <path id="パス_212" data-name="パス 212" d="M688.94,505.09a22.936,22.936,0,0,1-2.76.54,29.148,29.148,0,0,1-3.39,6.79l-1.94-1a24.214,24.214,0,0,0,3.24-5.6h-.82c-.66,0-1.3,0-2-.05l-.15-1.86a20.29,20.29,0,0,0,2.12.12,13.671,13.671,0,0,0,1.42-.05,13.607,13.607,0,0,0,.43-2.66l2.19.22c-.12.52-.31,1.32-.54,2.17a17.1,17.1,0,0,0,2.13-.5Zm2.08,1.42a19.6,19.6,0,0,0,0,2c0,.45.05,1.21.09,2a10.457,10.457,0,0,1,3.29,2l-1.06,1.7a14.129,14.129,0,0,0-2.15-1.68v.14c0,1.47-.8,2.63-3.05,2.63-2,0-3.52-.88-3.52-2.63,0-1.55,1.29-2.75,3.5-2.75a6.172,6.172,0,0,1,1.07.06c0-1.18-.12-2.57-.17-3.54Zm-1.75,5.26a5.365,5.365,0,0,0-1.28-.17c-.91,0-1.5.39-1.5.95s.5,1,1.36,1c1.07,0,1.42-.62,1.42-1.47Zm4.47-4.41a21.341,21.341,0,0,0-3.81-2.25l1-1.57a28.4,28.4,0,0,1,3.91,2.14Z" fill="#2e3d83"/>
    <path id="パス_213" data-name="パス 213" d="M703.29,513.21a13.341,13.341,0,0,0,1.47-.26,4.29,4.29,0,0,0,3.6-4.24,3.92,3.92,0,0,0-3.31-4.2,36.906,36.906,0,0,1-.94,4.31c-1,3.2-2.33,5.15-4.05,5.15s-3.24-1.93-3.24-4.61a7.069,7.069,0,0,1,7.3-6.78,6,6,0,0,1,6.39,5.583c.013.2.017.4.01.607,0,3.33-2,5.7-6,6.31Zm-1.23-4.81a25.977,25.977,0,0,0,.84-3.84,5,5,0,0,0-4,4.6c0,1.6.64,2.38,1.23,2.38s1.29-.99,1.93-3.14Z" fill="#2e3d83"/>
    <path id="パス_214" data-name="パス 214" d="M716,506.24a17.144,17.144,0,0,1-2.7,1.6,7.868,7.868,0,0,0-1.12-1.6,15.732,15.732,0,0,0,6.46-5.36h2a14.621,14.621,0,0,0,6.77,5.07,9.683,9.683,0,0,0-1.23,1.75,20.532,20.532,0,0,1-2.69-1.55v1.26H716Zm-2.83,2.5h13.24v1.76h-7.17c-.47.94-1,1.94-1.48,2.83,1.54,0,3.19-.11,4.82-.17a17.5,17.5,0,0,0-1.57-1.64l1.68-.88a21.376,21.376,0,0,1,3.67,4.12l-1.78,1.07a8.154,8.154,0,0,0-.64-1c-3.76.21-7.71.37-10.43.49l-.26-1.85,2.42-.08a30.368,30.368,0,0,0,1.21-2.9h-3.71Zm9.62-3.07a15.316,15.316,0,0,1-3.07-3,14.825,14.825,0,0,1-2.93,3Z" fill="#2e3d83"/>
    <path id="パス_215" data-name="パス 215" d="M619.5,506.75H541" fill="none" stroke="#2e3d83" stroke-miterlimit="10" stroke-width="1.59"/>
    <path id="パス_216" data-name="パス 216" d="M362,676.75H304.75" fill="none" stroke="#2e3d83" stroke-miterlimit="10" stroke-width="0.9"/>
    <path id="パス_217" data-name="パス 217" d="M620,656.5H777.5V701H620Z" fill="#fff"/>
    <path id="パス_218" data-name="パス 218" d="M777,657v43.5H620.5V657Zm1-1H619.5v45.5H778Z" fill="#7d5fa6"/>
    <path id="パス_219" data-name="パス 219" d="M668.33,674.11a14.343,14.343,0,0,0-.39,1.41,42.115,42.115,0,0,0-.75,6.13,7.119,7.119,0,0,0,.07,1c.2-.56.46-1.09.7-1.62l1,.78a39.211,39.211,0,0,0-1.14,3.78,2.88,2.88,0,0,0-.08.74v.65l-1.8.13a19.1,19.1,0,0,1-.62-5.06,47.424,47.424,0,0,1,.65-6.61,10.612,10.612,0,0,0,.15-1.55Zm9.73,12a16.955,16.955,0,0,0-1.92-1.58c-.1,1.5-1,2.59-3.11,2.59s-3.55-.93-3.55-2.59,1.36-2.73,3.52-2.73a6.827,6.827,0,0,1,1,.07c0-1-.09-2.13-.11-3.25h-1.14c-.93,0-1.82,0-2.77-.09v-1.89a25.4,25.4,0,0,0,2.77.14h1.12v-1.76a3.586,3.586,0,0,0-.09-1h2.27c0,.3-.08.69-.1,1s-.05.95-.05,1.65c.87-.1,1.7-.21,2.45-.37v2c-.76.11-1.6.21-2.46.27,0,1.54.11,2.8.17,3.88a9.893,9.893,0,0,1,3.06,2Zm-3.94-2.58a4.992,4.992,0,0,0-1.28-.17c-.9,0-1.5.36-1.5,1s.64.93,1.47.93c1,0,1.31-.52,1.31-1.44Z" fill="#2e3d83"/>
    <path id="パス_220" data-name="パス 220" d="M688.94,677.09a22.947,22.947,0,0,1-2.76.54,29.144,29.144,0,0,1-3.39,6.79l-1.94-1a24.213,24.213,0,0,0,3.24-5.6h-.82c-.66,0-1.3,0-2-.05l-.15-1.86a20.266,20.266,0,0,0,2.12.12,13.646,13.646,0,0,0,1.42-.05,13.6,13.6,0,0,0,.43-2.66l2.19.22c-.12.52-.31,1.32-.54,2.17a17.123,17.123,0,0,0,2.13-.5Zm2.08,1.42a19.6,19.6,0,0,0,0,2c0,.45.05,1.21.09,2a10.457,10.457,0,0,1,3.29,2l-1.06,1.7a14.126,14.126,0,0,0-2.15-1.68v.14c0,1.47-.8,2.63-3.05,2.63-2,0-3.52-.88-3.52-2.63,0-1.55,1.29-2.75,3.5-2.75a6.176,6.176,0,0,1,1.07.06c0-1.18-.12-2.57-.17-3.54Zm-1.75,5.26a5.355,5.355,0,0,0-1.28-.17c-.91,0-1.5.39-1.5.95s.5,1,1.36,1c1.07,0,1.42-.62,1.42-1.47Zm4.47-4.41a21.343,21.343,0,0,0-3.81-2.25l1-1.57a28.411,28.411,0,0,1,3.91,2.14Z" fill="#2e3d83"/>
    <path id="パス_221" data-name="パス 221" d="M704,678.51c-.82,2.2-2.91,3.62-6.42,4.33a5.66,5.66,0,0,0-.9-1.27,14.068,14.068,0,0,0,2.85-.77,12.112,12.112,0,0,0-1.15-.8c-.3.15-.61.29-.91.42a10.666,10.666,0,0,0-1.09-1.15,9.884,9.884,0,0,0,3.14-1.6H697v-1.44h13.6v1.44H706v1a16.4,16.4,0,0,0,3-.82l1.28,1a22.667,22.667,0,0,1-4.23,1v.37c0,.43.13.51.77.51h2c.5,0,.59-.16.67-1a4.66,4.66,0,0,0,1.49.56c-.17,1.51-.65,1.92-2,1.92h-2.44c-1.84,0-2.27-.46-2.27-2v-2.59H701.5c-.14.16-.29.32-.43.46h1.89Zm7,6.44h-3.65v2.88h-1.94V685h-3.49c-.3,1.23-1.29,2.34-4.19,2.93a6.71,6.71,0,0,0-1.1-1.41c2-.35,2.92-.91,3.34-1.52h-3.52v-1.6h3.83v-1.07h1.77v1.07h3.36v-1.07h1.94v1.07H711Zm-10.9-9.76h-3.47v-1.51h3.47v-.82H702v.82h3.42v-.82h1.91v.82h3.58v1.51h-3.58V676h-1.91v-.83H702V676h-1.89Zm-.4,4-.16.09a10.973,10.973,0,0,1,1.25.83,4.564,4.564,0,0,0,1.05-.92Z" fill="#2e3d83"/>
    <path id="パス_222" data-name="パス 222" d="M727,674.55a16.667,16.667,0,0,1-2.7,3.72,8.866,8.866,0,0,0,3.18,1.72,7,7,0,0,0-1.18,1.6,9.738,9.738,0,0,1-3.43-2.08v.75h-6v-.7a11.8,11.8,0,0,1-3.73,2.22,6.013,6.013,0,0,0-1-1.49,9.894,9.894,0,0,0,2.95-1.5,15.932,15.932,0,0,0-1.36-1.14l-.53.38a5.473,5.473,0,0,0-1.2-1.23,9.635,9.635,0,0,0,3.54-3.92l1.77.3c-.11.23-.22.44-.35.66h1.62l.32-.06.93.38c-.08-.25-.15-.53-.23-.8l1.64-.34a12.651,12.651,0,0,0,.73,2.07v-1.26h3.44l.37-.12Zm-9.92,9.61a10.714,10.714,0,0,1-3.15,3.45,13.054,13.054,0,0,0-1.57-1.25,8.127,8.127,0,0,0,2.83-2.72Zm3.68-.91V686c0,.89-.19,1.34-.86,1.6a7.743,7.743,0,0,1-2.71.25,6.241,6.241,0,0,0-.64-1.68h2c.29,0,.34,0,.34-.24v-2.66h-5.12v-1.71h12.16v1.71Zm-6.13-6.42c.5.34,1,.74,1.43,1.08.2-.21.391-.431.57-.66a15.778,15.778,0,0,0-1.42-1c-.21.2-.37.39-.58.58Zm1.51-1.72-.18.24a15.689,15.689,0,0,1,1.41.88,9.612,9.612,0,0,0,.54-1.12Zm5.89,3.45a12.687,12.687,0,0,1-2.09-4,10.863,10.863,0,0,1-2.14,4Zm.06-3.2a9.718,9.718,0,0,0,1.06,1.7,12.822,12.822,0,0,0,1.23-1.7Zm1.62,8.28a21.881,21.881,0,0,1,3.17,3l-1.7,1a19.709,19.709,0,0,0-3.06-3.12Z" fill="#2e3d83"/>
    <path id="パス_223" data-name="パス 223" d="M619.5,678.75H541" fill="none" stroke="#2e3d83" stroke-miterlimit="10" stroke-width="1"/>
    <path id="パス_224" data-name="パス 224" d="M619.5,1279.67H778v45.5H619.5Z" fill="#fff" stroke="#22b573" stroke-linecap="round" stroke-linejoin="round" stroke-width="1" opacity="0.7"/>
    <path id="パス_225" data-name="パス 225" d="M362,1303.25H304" fill="none" stroke="#2e3d83" stroke-miterlimit="10" stroke-width="0.91"/>
    <path id="パス_226" data-name="パス 226" d="M635.1,1302.91c-.17-.44-.48-1.13-.8-1.8v7.36h-1.85v-6.21a14.168,14.168,0,0,1-1.51,3.34,11.075,11.075,0,0,0-.9-1.92,15.861,15.861,0,0,0,2.29-5.41h-2v-1.76h2.09v-3h1.85v3h1.83v1.76h-1.8v.47c.47.59,1.64,2.43,1.89,2.89Zm7.41-1a12.112,12.112,0,0,0,3,4.23,7.48,7.48,0,0,0-1.38,1.49,13.775,13.775,0,0,1-2.47-4.05v4.88h-1.87v-4.74a11.839,11.839,0,0,1-3.28,4,9.357,9.357,0,0,0-1.28-1.46,10.441,10.441,0,0,0,3.7-4.37h-2.64v-1.71h3.5V1298H638.3a9.42,9.42,0,0,1-.94,1.93,10,10,0,0,0-1.49-.94,11,11,0,0,0,1.5-4.69l1.75.3c-.1.58-.19,1.14-.32,1.68h1v-2.75h1.87v2.75h3V1298h-3v2.19H645v1.71Z" fill="#2e3d83"/>
    <path id="パス_227" data-name="パス 227" d="M656.3,1298.11c.33,4.68,1.31,8.37,2.48,8.37.33,0,.53-.84.61-2.88a5.011,5.011,0,0,0,1.66,1.12c-.29,3-.93,3.77-2.45,3.77-2.73,0-3.93-4.74-4.32-10.38h-7.95v-1.85h7.86c0-.87-.05-1.76-.05-2.64h2.05v2.64h2.53a11.016,11.016,0,0,0-1.87-1.68l1.26-1a11.544,11.544,0,0,1,2.1,1.77l-1.09,1h1.51v1.85Zm-5.06,7.19,3-.56.14,1.7c-2.62.57-5.44,1.17-7.51,1.6l-.52-1.92,3-.48v-3.86h-2.42v-1.84h6.87v1.84h-2.56Z" fill="#2e3d83"/>
    <path id="パス_228" data-name="パス 228" d="M665.56,1298.91a17.617,17.617,0,0,1-2.7,1.6,7.862,7.862,0,0,0-1.12-1.6,15.79,15.79,0,0,0,6.46-5.36h2a14.71,14.71,0,0,0,6.77,5.08,9.327,9.327,0,0,0-1.23,1.74,19.536,19.536,0,0,1-2.69-1.55v1.26h-7.48Zm-2.83,2.5H676v1.76h-7.2c-.47.95-1,1.94-1.48,2.83,1.54,0,3.19-.11,4.82-.17a17.4,17.4,0,0,0-1.57-1.63l1.68-.88a21.04,21.04,0,0,1,3.67,4.11l-1.78,1.07a8.139,8.139,0,0,0-.64-1c-3.76.21-7.71.37-10.43.5l-.26-1.86,2.42-.08a29.86,29.86,0,0,0,1.21-2.9h-3.71Zm9.62-3.07a15.547,15.547,0,0,1-3.07-3,15.069,15.069,0,0,1-2.93,3Z" fill="#2e3d83"/>
    <path id="パス_229" data-name="パス 229" d="M683.62,1304.13c-.34-.45-.88-1.09-1.42-1.68v6h-1.89V1303a12.7,12.7,0,0,1-2,1.54,7.989,7.989,0,0,0-.89-1.81,12,12,0,0,0,4.48-4.48H678v-1.71h2.28v-3h1.89v3h.72l.33-.08,1.08.68a15.872,15.872,0,0,1-1.89,3.43c.76.62,2,1.73,2.33,2Zm9.17,2V1308h-9.06v-1.86h3.7v-5.85h-3v-1.84h3v-4.79h2v4.79h3v1.84h-3v5.85Z" fill="#2e3d83"/>
    <path id="パス_230" data-name="パス 230" d="M697.46,1295.25h2.37v4.66h4.48v-4.66h2.35v11.84h-2.35V1302h-4.48v5.12h-2.37Z" fill="#2e3d83"/>
    <path id="パス_231" data-name="パス 231" d="M714.83,1304.05H711l-.83,3h-2.4l3.79-11.84h2.79l3.81,11.84h-2.48Zm-.51-1.84-.35-1.3c-.37-1.23-.69-2.59-1-3.87h-.06c-.31,1.3-.66,2.64-1,3.87l-.35,1.3Z" fill="#2e3d83"/>
    <path id="パス_232" data-name="パス 232" d="M719.25,1295.25h2.41l3.44,6.3,1.19,2.57h.08c-.13-1.24-.31-2.81-.31-4.15v-4.72h2.25v11.84H725.9l-3.42-6.34-1.2-2.54h-.08c.11,1.28.29,2.77.29,4.13v4.75h-2.24Z" fill="#2e3d83"/>
    <path id="パス_233" data-name="パス 233" d="M736.49,1304.05h-3.84l-.83,3h-2.41l3.8-11.84H736l3.81,11.84h-2.48Zm-.51-1.84-.36-1.3c-.36-1.23-.68-2.59-1-3.87h-.06c-.3,1.3-.66,2.64-1,3.87l-.35,1.3Z" fill="#2e3d83"/>
    <path id="パス_234" data-name="パス 234" d="M740.9,1295.25h2.37v9.86h4.8v2H740.9Z" fill="#2e3d83"/>
    <path id="パス_235" data-name="パス 235" d="M755.48,1304.05h-3.84l-.83,3h-2.4l3.79-11.84H755l3.81,11.84h-2.48Zm-.51-1.84-.35-1.3c-.37-1.23-.69-2.59-1-3.87h-.06c-.31,1.3-.66,2.64-1,3.87l-.36,1.3Z" fill="#2e3d83"/>
    <path id="パス_236" data-name="パス 236" d="M759.9,1295.25h3.92c2.43,0,4.29.7,4.29,2.91a2.68,2.68,0,0,1-1.62,2.56v.08a2.69,2.69,0,0,1,2.22,2.8c0,2.39-2,3.49-4.59,3.49H759.9Zm3.74,4.82c1.51,0,2.16-.61,2.16-1.56s-.7-1.45-2.13-1.45h-1.41v3Zm.27,5.2c1.62,0,2.5-.58,2.5-1.81s-.87-1.63-2.5-1.63h-1.65v3.44Z" fill="#2e3d83"/>
    <path id="パス_237" data-name="パス 237" d="M619.5,1302.42H541" fill="none" stroke="#2e3d83" stroke-miterlimit="10" stroke-width="1.59"/>
    <path id="パス_238" data-name="パス 238" d="M619.5,1099.17H778v45.5H619.5Z" fill="#fff" stroke="#4fc2f1" stroke-linecap="round" stroke-linejoin="round" stroke-width="1"/>
    <path id="パス_239" data-name="パス 239" d="M362,1122.75H304" fill="none" stroke="#2e3d83" stroke-miterlimit="10" stroke-width="0.91"/>
    <path id="パス_240" data-name="パス 240" d="M643,1121.56a13,13,0,0,0-3-1.75l1-1.42a12.626,12.626,0,0,1,3,1.6Zm1.45,2.27c-.69,1.67-1.53,3.44-2.31,5l-1.7-1.15a46.8,46.8,0,0,0,2.56-5.12l1.45,1.1v-.91h1.37v-7.54l1.46.32a36.1,36.1,0,0,0,5.44-1.34l1.44,1.5a44.954,44.954,0,0,1-6.42,1.39v1.24h7.06v1.77h-1.9v2.66h2.31v1.78H644.49Zm-.55-6.53a11.6,11.6,0,0,0-2.91-1.79l1.05-1.41a12.546,12.546,0,0,1,3,1.65Zm5.2,8.24a13.931,13.931,0,0,1-3.49,3.49,11.881,11.881,0,0,0-1.63-1.31,9.9,9.9,0,0,0,3.15-2.82Zm-1.36-2.83H651v-2.66h-3.24Zm4.45,2.16a19.528,19.528,0,0,1,3.12,3.11l-1.76,1a19.255,19.255,0,0,0-3-3.23Z" fill="#2e3d83"/>
    <path id="パス_241" data-name="パス 241" d="M655.91,1121.35a9.34,9.34,0,0,0,.66-3.95l1.26.16a9.614,9.614,0,0,1-.69,4.32Zm4.67,5.6c-.27-.51-.73-1.26-1.18-2a9.217,9.217,0,0,1-2.15,4,7.144,7.144,0,0,0-1.24-1.33c2-2.24,2.24-5.26,2.24-8.05v-5.52h1.69v5.62a29.442,29.442,0,0,0,.87-3l1.28.46v-1.54h3.15v-1.55h1.81v1.55h3.33v1.57h-3.33v1.54h-1.81v-1.54h-2.87c-.48,1.12-1,2.45-1.38,3.27l-1-.42a25.211,25.211,0,0,1-.16,2.88c.55.66,1.76,2.31,2.07,2.71Zm8.66.34c.26,0,.32-.21.35-1.57a5.252,5.252,0,0,0,1.56.67c-.16,2-.59,2.47-1.72,2.47h-1.16c-1.46,0-1.76-.51-1.76-2v-2.64h-1.35c-.19,2.45-.78,4-3.63,4.81a4.372,4.372,0,0,0-1-1.41c2.27-.6,2.67-1.62,2.8-3.4H661.5v-1.6h1.4v-1.49h-1.5v-1.6h1.5v-1.64h1.73v1.64h3v-1.64h1.76v1.64H671v1.6h-1.57v1.49h1.47v1.6h-2.61v2.63c0,.41,0,.48.31.48Zm-4.61-4.71h3v-1.49h-3Z" fill="#2e3d83"/>
    <path id="パス_242" data-name="パス 242" d="M672.52,1126.17a1.67,1.67,0,1,1,1.536,1.536,1.67,1.67,0,0,1-1.536-1.536Zm.27-8.17-.06-2.38h2.93l-.08,2.38-.56,5.48h-1.65Z" transform="translate(32)" fill="#2e3d83"/>
    <path id="パス_243" data-name="パス 243" d="M679.91,1121.49c-.57-.41-1.8-1.08-2.64-1.55l1-1.41c.84.39,2.08,1,2.72,1.38Zm-2.38,6.18a48.463,48.463,0,0,0,2.42-5.13l1.52,1.07c-.64,1.71-1.46,3.58-2.21,5.14Zm11.4-11v1.47h2.76V1129h-1.8v-.67h-6.25v.69h-1.71V1118.1h2.58v-1.47h-3v-.85l-1.12,1.55c-.57-.43-1.77-1.15-2.59-1.63l1.07-1.41c.8.43,2,1.06,2.64,1.47v-.86h10.62v1.73Zm-.24,6.22c-1.24,0-1.53-.43-1.53-1.77v-1.33h-.91v.42a3.419,3.419,0,0,1-2,3.24,5.38,5.38,0,0,0-.64-.64v1.13h6.25v-1.05Zm-5.05-3.1v2.4a2.219,2.219,0,0,0,1.17-2v-.38Zm6.25,6.91v-1.16h-6.25v1.16Zm-2.66-10h-1.06v1.47h1.06Zm2.66,3.12h-1.28V1121c0,.32,0,.34.3.34h.98Z" transform="translate(-5)" fill="#2e3d83"/>
    <path id="パス_244" data-name="パス 244" d="M701.71,1122.05a8.885,8.885,0,0,1-.45.77h6.5v.66c-.22,3.12-.48,4.4-.91,4.87a1.549,1.549,0,0,1-1.06.54,10.084,10.084,0,0,1-1.61,0,3.937,3.937,0,0,0-.44-1.49h1.14a.538.538,0,0,0,.48-.18c.22-.24.42-1,.59-3h-.62a11.531,11.531,0,0,1-3.2,4.74,5.337,5.337,0,0,0-1.35-1.06,8.778,8.778,0,0,0,3-3.68h-1a12.138,12.138,0,0,1-3.74,4,5.4,5.4,0,0,0-1.25-1.12,9.643,9.643,0,0,0,3.27-2.9h-1a10.049,10.049,0,0,1-1.86,1.57,6.854,6.854,0,0,0-1.25-1.12l-3.28,1.63-.71-1.92,2-.78v-4.52h-1.6v-1.79H695v-3.15h1.76v3.15h1.51v1.79h-1.51V1123l1.28-.56.34,1.36a7.437,7.437,0,0,0,1.47-1.7H698v-1.6h10.07v1.6Zm5.28-2.2h-7.57v-5.41H707Zm-1.76-4.1H701.1v.77h4.13Zm0,2H701.1v.76h4.13Z" transform="translate(-5)" fill="#2e3d83"/>
    <path id="パス_245" data-name="パス 245" d="M727.5,1121.43a10.181,10.181,0,0,0-2.58-1.63l1-1.41a10.672,10.672,0,0,1,2.66,1.5Zm-2.29,6.36a48.713,48.713,0,0,0,2.34-5.17l1.52,1.05c-.63,1.71-1.41,3.59-2.15,5.16Zm3-10.55a10.511,10.511,0,0,0-2.61-1.7l1.08-1.39a11.475,11.475,0,0,1,2.68,1.57Zm10.45,6.21a15.6,15.6,0,0,1-.13,1.68h1.26v1.6h-1.47a3.607,3.607,0,0,1-.48,1.46,1.647,1.647,0,0,1-1.28.72,10.608,10.608,0,0,1-2,0,3.642,3.642,0,0,0-.46-1.55c.69,0,1.31.06,1.63.06a.62.62,0,0,0,.59-.25,1.583,1.583,0,0,0,.21-.48h-4.82l-.12.78-1.83-.14c.21-1.07.45-2.45.66-3.92h-1.38v-1.72h1.6c.11-.88.21-1.76.29-2.57-.19.25-.38.48-.58.7a8.852,8.852,0,0,0-1.6-1.09,11,11,0,0,0,2.55-4.73l1.87.38a13.124,13.124,0,0,1-.48,1.42h7v1.7h-7.73q-.284.546-.62,1.06h7.6v.77c0,.86-.07,1.64-.12,2.36H740v1.72Zm-6.5,0c-.08.57-.16,1.13-.23,1.68h1.51c.06-.51.13-1.09.19-1.68Zm.21-1.72h1.44c0-.51.08-1,.11-1.52h-1.38Zm4.4,3.4c.05-.47.09-1,.14-1.68h-1.65c-.06.59-.12,1.17-.19,1.68Zm.24-3.4c0-.46.05-1,.06-1.52h-1.52c0,.5-.08,1-.13,1.52Z" fill="#2e3d83"/>
    <path id="パス_246" data-name="パス 246" d="M755.44,1126.42v1.88h-14.5v-1.88h6.21v-4.06h-4.69v-1.89h4.69v-3.59h-5.44V1115h12.92v1.88h-5.48v3.59H754v1.89h-4.85v4.06Z" fill="#2e3d83"/>
    <path id="パス_247" data-name="パス 247" d="M619.5,1121.92H541" fill="none" stroke="#2e3d83" stroke-miterlimit="10" stroke-width="1.59"/>
    <path id="パス_248" data-name="パス 248" d="M361.25,334.75H304" fill="none" stroke="#2e3d83" stroke-miterlimit="10" stroke-width="0.9"/>
  </g>
</svg>
