<svg viewBox="0 0 580.64 70.82" xmlns="http://www.w3.org/2000/svg"><g fill="none" stroke="#4fc2f1" stroke-miterlimit="10"><path d="m.5.78h13.91v69.53h-13.88z"/><path d="m40.9.76h14.19l20.22 37 7 15h.47c-.78-7.2-1.78-16.4-1.84-24.3v-27.72h13.15v69.53h-14.09l-20.1-37.19-7.06-14.94h-.47c.66 7.52 1.7 16.26 1.71 24.24v27.91h-13.14z"/><path d="m134.49 12.28h-19.49v-11.55h53.18v11.53h-19.78v58h-13.88z"/><path d="m188.79.69h42.66v11.54h-28.74v16.08h24.43v11.69h-24.42v18.57h29.78v11.63h-43.69z"/><path d="m293.88 70.17-14.3-26.3h-9.68v26.3h-13.9v-69.51h24.25c14.56 0 26.12 5.06 26.13 21 0 10.43-5.26 16.92-13.24 20l16.27 28.47zm-24-37.29h9c8.92 0 13.81-3.77 13.8-11.19s-4.89-10-13.81-10h-9z"/><path d="m320.43.63h14.57l9.23 33.82c2.16 7.71 3.58 14.66 5.83 22.46h.47c2.16-7.8 3.76-14.76 5.91-22.46l9-33.84h14.09l-21.29 69.53h-16.54z"/><path d="m396.91.59h13.91v69.54h-13.82z"/><path d="m437.31.57 42.69-.02v11.56h-28.78v16.08h24.43v11.64h-24.41v18.6h29.76v11.65h-43.69z"/><path d="m497.64.54h14.18l5.56 33.92c1 7.33 2.17 14.75 3.21 22.17h.41c1.4-7.42 2.9-14.94 4.4-22.17l8.03-33.94h11.84l8.1 33.91c1.51 7.14 2.92 14.66 4.43 22.18h.47c1-7.52 2.06-14.94 3.09-22.18l5.43-33.92h13.21l-12.8 69.49h-17.29l-7.81-34.34c-1.13-5.45-2.17-10.8-3-16.07h-.37c-.94 5.27-1.88 10.62-3 16.07l-7.6 34.4h-17z"/></g></svg>