<svg viewBox="0 0 857.77 74.32" xmlns="http://www.w3.org/2000/svg"><g fill="none" stroke="#ff96b3" stroke-miterlimit="10"><path d="m.54 59.13h14.94l.13-44-12.61.04v-8.55c7-1.3 11.81-3.07 16.23-5.78h10.24l-.18 58.36h13.06v11.18l-41.85-.06z"/><path d="m66.3 1 19.08.06c21.23.07 34.35 11.1 34.28 34.59s-13.26 35-33.75 35l-19.82-.07zm18 58.41c13 0 21.07-6.89 21.12-23.8s-8-23.42-21-23.47h-4.25l-.17 47.24z"/><path d="m175.23 53-22.55-.07-4.94 17.84h-14.1l22.49-69.5 16.35.05 22.14 69.61-14.56-.05zm-3-10.81-2-7.62c-2.13-7.24-4-15.24-6-22.76h-.38c-1.81 7.6-3.9 15.49-6 22.72l-2.09 7.6z"/><path d="m224 45.55-20.7-44.13 14.75.05 6.95 16.93c2 5.18 3.82 10.07 6 15.43h.38c2.18-5.35 4.26-10.23 6.25-15.39l7-16.89h14.47l-21.1 44-.08 25.46h-13.9z"/><path d="m302.33 62.43 8-9.56c5 4.62 11.54 7.74 17.64 7.76 7.24 0 11.1-3.06 11.12-8 0-5.17-4.21-6.78-10.4-9.43l-9.29-4c-7-2.94-14.07-8.6-14-18.75 0-11.37 10-20.07 24.12-20a30.88 30.88 0 0 1 21.77 9l-7.07 8.71c-4.41-3.68-9-5.76-14.74-5.78-6.11 0-10.06 2.7-10.07 7.3 0 5 4.95 6.78 10.87 9.15l9.1 3.88c8.44 3.5 14 8.88 13.94 18.93 0 11.37-9.56 21-25.62 21a37 37 0 0 1 -25.37-10.21z"/><path d="m371.56 37c.07-22.93 14.87-36.32 32.44-36.27a28.34 28.34 0 0 1 20.36 9l-7.36 8.8c-3.46-3.39-7.5-5.84-12.76-5.86-10.52 0-18.44 9-18.49 23.9-.05 15.13 7.07 24.27 18.06 24.3 5.92 0 10.63-2.78 14.4-6.81l7.3 8.66a28.12 28.12 0 0 1 -22.21 10.18c-17.57-.06-31.81-12.69-31.74-35.9z"/><path d="m446.28 2.18h13.9l-.08 27.34 26.31.08.08-27.34h13.82l-.22 69.54h-13.81l.09-30.07-26.31-.08-.06 30.11h-13.9z"/><path d="m526.8 2.44 42.66.13v11.56l-28.79-.13v16.06l24.43.08v11.65l-24.43-.07-.06 18.6 29.79.09v11.66l-43.82-.07z"/><path d="m594 2.65 19.08.06c21.23.06 34.35 11.1 34.28 34.59s-13.27 35-33.75 34.94l-19.83-.06zm18 58.41c13 0 21.07-6.89 21.12-23.81s-8-23.42-21-23.46h-4.33l-.09 47.21z"/><path d="m670 41.13.12-38.24h13.9l-.12 39.46c0 14.47 4.92 19.38 13.1 19.4s13.51-4.75 13.56-19.27l.12-39.48h13.34l-.12 38.3c-.07 23.11-10 32.57-27 32.52s-27-9.58-26.9-32.69z"/><path d="m750.14 3.14h13.91l-.18 57.88 28.19.09v11.65l-42.1-.13z"/><path d="m813.75 3.34 42.66.13v11.56l-28.76-.09v16.07l24.43.07v11.65l-24.43-.07-.06 18.6 29.78.1v11.65l-43.7-.14z"/></g></svg>