<svg height="73.164" viewBox="0 0 632.501 73.164" width="632.501" xmlns="http://www.w3.org/2000/svg"><g fill="none" stroke="#fff" stroke-miterlimit="10" transform="translate(-316.66 -1095.866)"><path d="m317.343 1158.382 7.988-9.585c4.979 4.6 11.557 7.7 17.665 7.7 7.235 0 11.087-3.1 11.087-7.986 0-5.168-4.228-6.766-10.43-9.4l-9.3-3.946c-7.047-2.913-14.1-8.551-14.1-18.7 0-11.37 9.96-20.108 24.055-20.108a30.853 30.853 0 0 1 21.8 8.926l-7.047 8.739c-4.416-3.665-9.02-5.732-14.752-5.732-6.107 0-10.054 2.725-10.054 7.329 0 4.98 4.98 6.766 10.9 9.115l9.114 3.852c8.457 3.477 14 8.833 14 18.887 0 11.37-9.491 21.048-25.559 21.048a37.057 37.057 0 0 1 -25.367-10.139z"/><path d="m401.72 1141.75-20.86-44.069h14.752l6.953 16.914c1.974 5.168 3.853 10.054 6.014 15.41h.376c2.161-5.356 4.229-10.242 6.2-15.41l6.953-16.914h14.471l-20.955 44.069v25.464h-13.904z"/><path d="m453.961 1097.681h15.411l11.839 32.512c1.5 4.322 2.819 8.926 4.228 13.436h.47c1.5-4.51 2.725-9.114 4.228-13.436l11.558-32.512h15.405v69.533h-12.68v-29.034c0-6.578 1.034-16.256 1.691-22.834h-.376l-5.635 16.354-10.712 29.223h-7.988l-10.807-29.223-5.544-16.35h-.376c.658 6.578 1.785 16.256 1.785 22.834v29.034h-12.5z"/><path d="m543.6 1097.681h22.833c15.41 0 27.249 5.356 27.249 21.8 0 15.88-11.933 23.021-26.873 23.021h-9.3v24.712h-13.909zm22.269 33.827c9.584 0 14.189-4.04 14.189-12.027 0-8.081-5.075-10.806-14.659-10.806h-7.893v22.833z"/><path d="m612.189 1132.166c0-22.646 12.685-35.8 31.1-35.8s31.1 13.249 31.1 35.8-12.685 36.364-31.1 36.364-31.1-13.813-31.1-36.364zm48.016 0c0-14.94-6.577-23.867-16.913-23.867s-16.914 8.927-16.914 23.867c0 14.846 6.577 24.336 16.914 24.336s16.913-9.49 16.913-24.336z"/><path d="m692.807 1158.382 7.987-9.585c4.979 4.6 11.558 7.7 17.665 7.7 7.235 0 11.088-3.1 11.088-7.986 0-5.168-4.229-6.766-10.431-9.4l-9.3-3.946c-7.047-2.913-14.094-8.551-14.094-18.7 0-11.37 9.96-20.108 24.054-20.108a30.857 30.857 0 0 1 21.8 8.926l-7.048 8.739c-4.416-3.665-9.02-5.732-14.752-5.732-6.107 0-10.053 2.725-10.053 7.329 0 4.98 4.979 6.766 10.9 9.115l9.114 3.852c8.457 3.477 14 8.833 14 18.887 0 11.37-9.49 21.048-25.558 21.048a37.055 37.055 0 0 1 -25.372-10.139z"/><path d="m765.437 1097.681h13.907v69.533h-13.907z"/><path d="m805.464 1135.924v-38.243h13.906v39.465c0 14.47 4.981 19.356 13.155 19.356 8.269 0 13.532-4.886 13.532-19.356v-39.465h13.343v38.243c0 23.116-9.866 32.606-26.874 32.606-16.914 0-27.062-9.49-27.062-32.606z"/><path d="m885.518 1097.681h15.41l11.839 32.512c1.5 4.322 2.819 8.926 4.228 13.436h.47c1.5-4.51 2.725-9.114 4.228-13.436l11.558-32.512h15.41v69.533h-12.685v-29.034c0-6.578 1.034-16.256 1.691-22.834h-.376l-5.638 16.35-10.712 29.223h-7.986l-10.806-29.219-5.544-16.35h-.376c.658 6.578 1.786 16.256 1.786 22.834v29.034h-12.5z"/></g></svg>