<svg height="73.164" viewBox="0 0 440.385 73.164" width="440.385" xmlns="http://www.w3.org/2000/svg"><g fill="none" stroke="#ff96b3" stroke-miterlimit="10" transform="translate(-410.593 -1736.34)"><path d="m411.093 1738.24 22.833-.011c15.41-.007 27.25 5.343 27.259 21.787.007 15.879-11.921 23.026-26.862 23.034h-9.3l.013 24.713-13.906.006zm22.286 33.817c9.584-.005 14.186-4.048 14.182-12.034 0-8.082-5.08-10.8-14.664-10.8h-7.893l.012 22.832z"/><path d="m521.06 1807.72-14.295-26.3-9.679.005.014 26.309-13.907.007-.034-69.533 24.242-.012c14.565-.007 26.124 5.062 26.132 21.036.005 10.429-5.253 16.915-13.239 20.02l16.27 28.463zm-23.979-37.292h9.021c8.926-.005 13.81-3.766 13.806-11.189 0-7.517-4.89-10.051-13.817-10.047h-9.021z"/><path d="m553.175 1772.655c-.011-22.645 12.666-35.805 31.083-35.815s31.109 13.234 31.12 35.785-12.668 36.37-31.085 36.379-31.108-13.798-31.118-36.349zm48.014-.023c-.007-14.941-6.589-23.863-16.925-23.859s-16.91 8.935-16.9 23.875c.007 14.846 6.589 24.333 16.925 24.329s16.911-9.499 16.9-24.345z"/><path d="m638.379 1738.129 42.847-.021v11.558l-28.94.014.01 18.134 24.712-.011.005 11.651-24.712.013.014 28.188-13.906.007z"/><path d="m702.739 1738.1 13.906-.007.035 69.532-13.907.007z"/><path d="m743.142 1738.078 13.9-.007.028 57.881 28.19-.014.005 11.652-42.094.02z"/><path d="m806.751 1738.047 42.659-.022.005 11.558-28.753.015.009 16.067 24.431-.012v11.652l-24.43.011.009 18.6 29.787-.015.005 11.652-43.692.021z"/></g></svg>