<?xml version="1.0" encoding="utf-8"?><svg id="circle_graph" image-rendering="auto" baseProfile="basic" version="1.1" preserveAspectRatio="xMidYMid meet" x="0px" y="0px" width="100%" height="100%" xmlns="http://www.w3.org/2000/svg" viewBox="0 0 417 417" xmlns:xlink="http://www.w3.org/1999/xlink"><g id=".__E3.__82.__B7.__E3.__83.__BC.__E3.__83.__B3-1" overflow="visible"><g display="none" id="Layer4_0_FILL"><path fill="#475492" stroke="none" d="M209 0L208.5 0Q166.05 0 127.3 16.4 89.9 32.2 61.05 61.05 32.2 89.9 16.4 127.3 0 166.05 0 208.5 0 246.6 13.3 282 26.2 316.15 50.05 344 73.7 371.65 105.25 389.65 137.55 408.1 174.15 414.15L209 208 209 0Z"/><path fill="#FF9BB2" stroke="none" d="M400.65 127.45Q384.9 90.05 356.1 61.2 327.3 32.35 289.95 16.5 251.35 .1 209 0L209 208 174.15 414.15Q191.35 417 208.5 417 250.9 417 289.65 400.6 327.1 384.8 355.95 355.95 384.8 327.1 400.6 289.65 417 250.9 417 208.5 417 166.15 400.65 127.45Z"/><path fill="#FFF" stroke="none" d="M298.1 197.75L294.95 197.25Q293.5 201.3 292.95 202.6L286.4 202.6 286.4 205.5 291.8 205.5Q289.9 209.95 288.75 212.35L291.6 213.45 292 212.55 295.9 214.2Q292.85 216.1 286.6 216.8 287.75 218.3 288.1 219.65 295.5 218.6 299.1 215.75 303.45 218 305.6 219.75L307.8 217.05Q305.4 215.3 301.4 213.4 303.55 210.55 304.6 205.5L308.15 205.5 308.15 202.6 296.2 202.6Q296.45 202 298.1 197.75M295.05 205.5L301.35 205.5Q300.35 209.7 298.4 212.05 295.7 210.85 293.15 210L295.05 205.5Z"/><path fill="#FFF" stroke="none" d="M332.1 197.4L329.25 197.4 329.25 202.1 327.35 202.1Q327.75 200.4 327.95 198.75L325.15 198.4Q324.7 201.85 323.9 204.25 323.3 202.65 322.55 201.2L321.2 201.8 321.2 197.25 318.3 197.25 318.3 202.15 316.3 201.85Q316 205.55 315.15 208.1L317.25 208.85Q318.1 206.15 318.3 202.5L318.3 219.65 321.2 219.65 321.2 203.3Q321.85 204.9 322.1 206.05L323.45 205.4 322.75 206.8 325.3 208.1Q326 206.85 326.65 204.8L329.25 204.8 329.25 208.75 324.65 208.75 324.65 211.4 329.25 211.4 329.25 216.2 322.85 216.2 322.85 218.9 337.8 218.9 337.8 216.2 332.1 216.2 332.1 211.4 336.5 211.4 336.5 208.75 332.1 208.75 332.1 204.8 337 204.8 337 202.1 332.1 202.1 332.1 197.4Z"/><path fill="#FFF" stroke="none" d="M97.9 208.65L97.9 198.4 80.65 198.4 80.65 208.65 87.25 208.65 86.95 210.3 79.05 210.3 79.05 212.85 86.05 212.85Q84.2 215.9 78 217.1 79.1 218.4 79.5 219.6 83.8 218.7 86.2 216.9 88.35 215.35 89.3 212.85L95.6 212.85Q95.2 216.25 94.55 216.8 94.2 217.05 93.5 217.05 92.05 217.05 89.85 216.9 90.65 218.05 90.75 219.5 93.25 219.6 94.6 219.5 96.15 219.35 96.95 218.55 98.05 217.45 98.6 211.45L98.7 210.3 89.95 210.3 90.25 208.65 97.9 208.65M94.9 204.6L94.9 206.3 90.6 206.3 90.6 204.6 94.9 204.6M94.9 200.75L94.9 202.4 90.6 202.4 90.6 200.75 94.9 200.75M87.7 200.75L87.7 202.4 83.5 202.4 83.5 200.75 87.7 200.75M83.5 206.3L83.5 204.6 87.7 204.6 87.7 206.3 83.5 206.3Z"/><path fill="#FFF" stroke="none" d="M113.2 197.25L110.3 197.25 110.3 202.15 108.3 201.85Q108 205.55 107.15 208.1L109.25 208.85Q110.1 206.15 110.3 202.5L110.3 219.65 113.2 219.65 113.2 203.3Q113.85 204.9 114.1 206.05L115.45 205.4 114.75 206.8 117.3 208.1Q118 206.85 118.65 204.8L121.25 204.8 121.25 208.75 116.65 208.75 116.65 211.4 121.25 211.4 121.25 216.2 114.85 216.2 114.85 218.9 129.8 218.9 129.8 216.2 124.1 216.2 124.1 211.4 128.5 211.4 128.5 208.75 124.1 208.75 124.1 204.8 129 204.8 129 202.1 124.1 202.1 124.1 197.4 121.25 197.4 121.25 202.1 119.35 202.1Q119.75 200.4 119.95 198.75L117.15 198.4Q116.7 201.85 115.9 204.25 115.3 202.65 114.55 201.2L113.2 201.8 113.2 197.25Z"/><animate attributeName="display" repeatCount="indefinite" dur="6.208s" keyTimes="0;.275;1" values="none;inline;inline"/><animate attributeName="mask" repeatCount="indefinite" dur="6.208s" keyTimes="0;.275;.55;1" values="none;url(#mask_1);none;none"/></g><mask id="mask_1"><g><g display="none"><g id=".__E3.__82.__B7.__E3.__83.__B3.__E3.__83.__9C.__E3.__83.__AB-6" transform="translate(208.5 208.5)"><animateTransform attributeName="transform" additive="replace" type="translate" repeatCount="indefinite" dur="6.208s" keyTimes="0;1" values="208.5,208.5;208.5,208.5"/><animateTransform attributeName="transform" additive="sum" type="rotate" repeatCount="indefinite" dur="6.208s" keyTimes="0;.275;.544;1" values="0,0,0;0,0,0;180,0,0;180,0,0"/><g id="シンボル 4_0.0"><g><g id="Layer11_0_FILL"><path fill="#FFF" stroke="none" d="M.5 -208.5L0 -208.5 0 208.5Q42.4 208.5 81.15 192.1 118.6 176.3 147.45 147.45 176.3 118.6 192.1 81.15 207.5 44.8 208.5 5.3L208.5 -5.25Q207.5 -44.75 192.15 -81.05 176.4 -118.45 147.6 -147.3 118.8 -176.15 81.45 -192 42.85 -208.4 .5 -208.5Z" fill-opacity="1"/></g></g></g></g><animate attributeName="display" repeatCount="indefinite" dur="6.208s" keyTimes="0;.275;.55;1" values="none;inline;none;none"/></g></g></mask><g mask="url(#mask_)" id="Layer1_0_FILL"><path fill="#FF9BB2" stroke="none" d="M400.65 127.45Q384.9 90.05 356.1 61.2 327.3 32.35 289.95 16.5 251.35 .1 209 0L209 208 208.5 210.95 208.5 417Q250.9 417 289.65 400.6 327.1 384.8 355.95 355.95 384.8 327.1 400.6 289.65 417 250.9 417 208.5 417 166.15 400.65 127.45Z"/><path fill="#FFF" stroke="none" d="M298.1 197.75L294.95 197.25Q293.5 201.3 292.95 202.6L286.4 202.6 286.4 205.5 291.8 205.5Q289.9 209.95 288.75 212.35L291.6 213.45 292 212.55 295.9 214.2Q292.85 216.1 286.6 216.8 287.75 218.3 288.1 219.65 295.5 218.6 299.1 215.75 303.45 218 305.6 219.75L307.8 217.05Q305.4 215.3 301.4 213.4 303.55 210.55 304.6 205.5L308.15 205.5 308.15 202.6 296.2 202.6Q296.45 202 298.1 197.75M295.05 205.5L301.35 205.5Q300.35 209.7 298.4 212.05 295.7 210.85 293.15 210L295.05 205.5Z"/><path fill="#FFF" stroke="none" d="M332.05 197.4L329.2 197.4 329.2 202.1 327.3 202.1Q327.7 200.4 327.9 198.75L325.1 198.4Q324.65 201.85 323.85 204.25 323.25 202.65 322.5 201.2L321.15 201.8 321.15 197.25 318.25 197.25 318.25 202.15 316.25 201.85Q315.95 205.55 315.1 208.1L317.2 208.85Q318.05 206.15 318.25 202.5L318.25 219.65 321.15 219.65 321.15 203.3Q321.8 204.9 322.05 206.05L323.4 205.4 322.7 206.8 325.25 208.1Q325.95 206.85 326.6 204.8L329.2 204.8 329.2 208.75 324.6 208.75 324.6 211.4 329.2 211.4 329.2 216.2 322.8 216.2 322.8 218.9 337.75 218.9 337.75 216.2 332.05 216.2 332.05 211.4 336.45 211.4 336.45 208.75 332.05 208.75 332.05 204.8 336.95 204.8 336.95 202.1 332.05 202.1 332.05 197.4Z"/><animate attributeName="display" repeatCount="indefinite" dur="6.208s" keyTimes="0;.55;1" values="inline;none;none"/></g><mask id="mask_"><g><g><g id=".__E3.__82.__B7.__E3.__83.__B3.__E3.__83.__9C.__E3.__83.__AB-5" transform="translate(208.5 208.5)"><animateTransform attributeName="transform" additive="replace" type="translate" repeatCount="indefinite" dur="6.208s" keyTimes="0;1" values="208.5,208.5;208.5,208.5"/><animateTransform attributeName="transform" additive="sum" type="rotate" repeatCount="indefinite" dur="6.208s" keyTimes="0;.268;1" values="0,0,0;180,0,0;180,0,0"/><g id="シンボル 5_0.0"><g><g id="Layer10_0_FILL"><path fill="#FFF" stroke="none" d="M0 208.5L0 -208.5Q-42.45 -208.5 -81.2 -192.1 -118.6 -176.3 -147.45 -147.45 -176.3 -118.6 -192.1 -81.2 -208.5 -42.45 -208.5 0 -208.5 38.1 -195.2 73.5 -182.3 107.65 -158.45 135.5 -134.8 163.15 -103.25 181.15 -70.95 199.6 -34.35 205.65 -17.15 208.5 0 208.5Z" fill-opacity="1"/></g></g></g></g><animate attributeName="display" repeatCount="indefinite" dur="6.208s" keyTimes="0;.55;1" values="inline;none;none"/></g></g></mask></g></svg>