<svg enable-background="new 0 0 252 252" viewBox="0 0 252 252" xmlns="http://www.w3.org/2000/svg"><circle cx="126" cy="126" fill="#fff" opacity=".5" r="125"/><g fill="none" stroke="#eb6785" stroke-miterlimit="10" stroke-width="2"><path d="m94.8 143.4c-1.4-2.5-7.4-2.9-11-5.1-1.8-1.1-2.6-2.3-2.9-4.9 0 0 5.3-2.9 5-11.2-.2-8.1-5.2-10.5-9.4-10.9h-.4c-4.2.3-9.2 2.8-9.4 10.9-.2 8.3 5 11.2 5 11.2-.2 2.6-1.1 3.8-2.9 4.9-3.6 2.2-9.5 2.6-11 5.1-2.2 3.7-1.4 12.6-1.4 12.6h39.9c-.1 0 .6-8.9-1.5-12.6z"/><path d="m144.3 143.4c-1.5-2.5-7.4-2.9-11-5.1-1.8-1.1-2.6-2.3-2.9-4.9 0 0 5.3-2.9 5-11.2-.2-8.1-5.2-10.5-9.4-10.9h-.4c-4.2.3-9.2 2.8-9.4 10.9-.2 8.3 5 11.2 5 11.2-.2 2.6-1.1 3.8-2.9 4.9-3.6 2.2-9.5 2.6-11 5.1-2.2 3.7-1.4 12.6-1.4 12.6h39.8s.7-8.9-1.4-12.6z"/><path d="m193.8 143.4c-1.4-2.5-7.4-2.9-11-5.1-1.8-1.1-2.6-2.3-2.9-4.9 0 0 5.3-2.9 5-11.2-.2-8.1-5.2-10.5-9.5-10.9h-.4c-4.2.3-9.2 2.8-9.4 10.9-.2 8.3 5 11.2 5 11.2 0 2-1.1 3.9-2.9 4.9-3.6 2.2-9.6 2.6-11 5.1-2.1 3.7-1.4 12.6-1.4 12.6h39.8c.1 0 .9-8.9-1.3-12.6z"/><path d="m167.9 85.1c-1.4-2.5-7.4-2.9-11-5.2-1.8-1.1-2.6-2.3-2.9-4.9 0 0 5.3-2.9 5-11.2-.2-8.1-5.2-10.5-9.5-10.8h-.4c-4.2.3-9.2 2.8-9.4 10.8-.2 8.3 5 11.2 5 11.2 0 2-1 3.9-2.8 4.9-3.6 2.2-9.6 2.7-11 5.2-2.1 3.7-1.4 12.6-1.4 12.6h39.8c.1 0 .8-8.9-1.4-12.6z"/><path d="m119.3 85.1c-1.4-2.5-7.4-2.9-11-5.2-1.8-1.1-2.6-2.3-2.9-4.9 0 0 5.3-2.9 5-11.2-.2-8.1-5.2-10.5-9.4-10.9h-.4c-4.2.3-9.2 2.8-9.4 10.8-.2 8.3 5 11.2 5 11.2-.2 2.6-1.1 3.8-2.9 4.9-3.6 2.2-9.6 2.7-11 5.2-2.2 3.7-1.4 12.6-1.4 12.6h39.8s.7-8.8-1.4-12.5z"/></g><path d="m94.6 199c4.8-4.3 7.7-7.7 7.7-10.4 0-1.8-1-2.9-2.7-2.9-1.3.1-2.5.8-3.3 1.8l-1.9-1.9c1.4-1.7 3.4-2.7 5.6-2.7 2.9-.2 5.4 1.9 5.6 4.8v.7c0 3.2-2.7 6.7-5.9 9.8.9-.1 2.1-.2 2.9-.2h3.9v3h-11.9z" fill="#eb6785"/><path d="m116.9 186.3h-8v-2.9h11.8v2.1c-4.1 5-4.7 8.7-5 15.6h-3.6c.4-6.2 1.4-10.1 4.8-14.8z" fill="#eb6785"/><path d="m131 186.3h-8v-2.9h11.8v2.1c-4.1 5-4.7 8.7-5 15.6h-3.6c.4-6.2 1.5-10.1 4.8-14.8z" fill="#eb6785"/><path d="m148.5 181.3c0 .4 0 .9-.1 1.4.2 3.3 1.4 13.7 10.3 17.9-.9.7-1.6 1.5-2.2 2.4-5.4-2.7-8.1-7.6-9.4-12-1.3 5-4.5 9.3-8.9 12-.7-.9-1.5-1.7-2.4-2.3 9.6-5.3 9.2-16.2 9.4-19.4z" fill="#eb6785"/></svg>