<svg viewBox="0 0 250 250" xmlns="http://www.w3.org/2000/svg"><path d="m125.3 0h-.3a125 125 0 0 0 -20.58 248.3l20.88-123.6z" fill="#474b87"/><path d="m125.3 0v124.7l-20.88 123.6a125 125 0 1 0 20.88-248.3z" fill="#f2a0ae"/><g fill="#fff"><path d="m65 111.55s0 .77-.09 1.15c-.39 4.37-.87 6.34-1.63 7.11a3.38 3.38 0 0 1 -2.38.93c-.84.08-2.31.05-3.82 0a5.72 5.72 0 0 0 -.93-2.62c1.48.12 3 .15 3.65.15a1.61 1.61 0 0 0 1-.24c.43-.36.79-1.56 1.06-3.94h-6.23c-1.2 3.1-3.74 5.42-9.79 6.74a7.47 7.47 0 0 0 -1.49-2.49c4.68-.91 6.92-2.33 8-4.25h-7v-2.57h7.94c.1-.53.19-1.08.26-1.65h-6.55v-10.22h17.25v10.25h-7.66c-.07.57-.16 1.1-.26 1.65zm-15.19-7.9h4.22v-1.65h-4.18zm0 3.89h4.22v-1.68h-4.18zm11.44-5.54h-4.25v1.65h4.3zm0 3.86h-4.25v1.68h4.3z"/><path d="m96.15 117.41v2.71h-14.93v-2.71h6.41v-4.8h-4.63v-2.67h4.64v-3.94h-2.64a16.17 16.17 0 0 1 -1.35 3.31 25.17 25.17 0 0 0 -2.55-1.31c.24-.43.48-.89.72-1.39l-1.37.62a16.29 16.29 0 0 0 -.91-2.76v16.4h-2.86v-17.14a30.59 30.59 0 0 1 -1.08 6.36l-2.11-.77a29 29 0 0 0 1.18-6.24l2 .29v-4.9h2.86v4.53l1.39-.58a29.15 29.15 0 0 1 1.32 3 29 29 0 0 0 1.27-5.85l2.79.38c-.17 1.13-.36 2.26-.6 3.34h1.92v-4.68h2.85v4.71h4.9v2.68h-4.9v3.93h4.4v2.67h-4.4v4.8z"/><path d="m59.33 148.86h-2.11v4.61h-3.29v-4.61h-7.56v-2.4l6.63-10.76h4.23v10.47h2.11zm-5.4-2.69v-3.62c0-1 .1-2.64.14-3.68h-.07c-.43.94-.92 1.92-1.42 2.88l-2.76 4.42z"/><path d="m69.19 138.66h-8v-3h11.81v2.14c-4.13 5-4.68 8.67-5 15.63h-3.54c.32-6.13 1.35-10.07 4.73-14.77z"/><path d="m75.31 140.72c0-3.57 1.8-5.61 4.35-5.61s4.34 2 4.34 5.61-1.78 5.69-4.34 5.69-4.35-2.11-4.35-5.69zm6.22 0c0-2.61-.82-3.62-1.87-3.62s-1.85 1-1.85 3.62.81 3.67 1.85 3.67 1.87-1.05 1.87-3.67zm8.47-5.61h2.12l-9.73 18.48h-2.13zm-1.68 12.81c0-3.57 1.83-5.64 4.37-5.64s4.31 2.07 4.31 5.64-1.8 5.67-4.35 5.67-4.38-2.12-4.38-5.67zm6.22 0c0-2.64-.79-3.62-1.85-3.62s-1.87 1-1.87 3.62.82 3.67 1.87 3.67 1.8-1.08 1.8-3.67z"/><path d="m172.15 106.77a19.93 19.93 0 0 1 -3.22 7.9 43.33 43.33 0 0 1 6.38 3.65l-2.18 2.68a41.21 41.21 0 0 0 -6.48-4c-2.62 2-6.17 3.2-11 3.92a9.47 9.47 0 0 0 -1.51-2.86c4-.46 7-1.22 9.31-2.62-1.32-.6-2.61-1.15-3.88-1.65l-.41.89-2.88-1.06c.91-1.87 2-4.3 3-6.87h-5.37v-2.9h6.55c.72-1.87 1.42-3.72 2-5.38l3.15.53c-.58 1.54-1.2 3.19-1.87 4.85h11.96v2.9zm-9.58 0c-.62 1.56-1.27 3.08-1.87 4.49 1.63.58 3.43 1.27 5.23 2.07a15.35 15.35 0 0 0 2.95-6.56z"/><path d="m205.31 117.41v2.71h-14.92v-2.71h6.4v-4.8h-4.63v-2.67h4.63v-3.94h-2.64a16.76 16.76 0 0 1 -1.34 3.31 26.28 26.28 0 0 0 -2.54-1.3c.23-.43.48-.89.72-1.39l-1.37.62a18.31 18.31 0 0 0 -.91-2.76v16.4h-2.86v-17.15a30.59 30.59 0 0 1 -1.08 6.36l-2.11-.77a28.46 28.46 0 0 0 1.17-6.24l2 .29v-4.9h2.86v4.53l1.39-.58a29.15 29.15 0 0 1 1.32 3 29 29 0 0 0 1.27-5.85l2.78.38c-.16 1.13-.36 2.26-.6 3.34h1.92v-4.68h2.86v4.71h4.9v2.68h-4.9v3.93h4.37v2.67h-4.39v4.8z"/><path d="m154.21 151.38 1.64-2.26a5.49 5.49 0 0 0 3.91 1.8 3 3 0 0 0 3.14-3.26c0-2.07-1.2-3.22-3-3.22a4.26 4.26 0 0 0 -2.66.94l-1.61-1.06.48-8.62h9.51v3h-6.46l-.34 3.77a4.57 4.57 0 0 1 2.14-.51c3 0 5.47 1.78 5.47 5.64a6 6 0 0 1 -6.21 6.24 8.13 8.13 0 0 1 -6.01-2.46z"/><path d="m169.79 151.33 1.66-2.23a5.63 5.63 0 0 0 4 1.82c1.8 0 3-.89 3-2.47 0-1.75-1-2.83-4.89-2.83v-2.55c3.26 0 4.32-1.12 4.32-2.71a2.12 2.12 0 0 0 -2.38-2.23 5.06 5.06 0 0 0 -3.36 1.58l-1.8-2.16a7.9 7.9 0 0 1 5.33-2.18c3.43 0 5.76 1.68 5.76 4.73a4.2 4.2 0 0 1 -3 4.05v.12a4.44 4.44 0 0 1 3.55 4.37c0 3.27-2.85 5.16-6.24 5.16a7.55 7.55 0 0 1 -5.95-2.47z"/><path d="m185.92 140.72c0-3.57 1.8-5.61 4.34-5.61s4.35 2 4.35 5.61-1.78 5.69-4.35 5.69-4.34-2.11-4.34-5.69zm6.21 0c0-2.61-.81-3.62-1.87-3.62s-1.85 1-1.85 3.62.82 3.67 1.85 3.67 1.87-1.05 1.87-3.67zm8.43-5.61h2.11l-9.67 18.48h-2.09zm-1.68 12.81c0-3.57 1.82-5.64 4.37-5.64s4.34 2.07 4.34 5.64-1.8 5.67-4.34 5.67-4.37-2.12-4.37-5.67zm6.22 0c0-2.64-.8-3.62-1.85-3.62s-1.87 1-1.87 3.62.81 3.67 1.87 3.67 1.85-1.08 1.85-3.67z"/></g></svg>