<svg enable-background="new 0 0 252 252" viewBox="0 0 252 252" xmlns="http://www.w3.org/2000/svg"><circle cx="126" cy="126" fill="#fff" opacity=".5" r="125"/><circle cx="99.1" cy="60.9" fill="none" r="10.9" stroke="#eb6785" stroke-miterlimit="10" stroke-width="2"/><path d="m127.4 108.4-10.6-28.2c-.2-.6-.6-1.1-1-1.6-.4-.6-1.1-1.1-1.8-1.4-4-1.5-14.8-1.9-14.8-1.9s-10.9.4-14.8 1.9c-.7.3-1.4.8-1.8 1.4-.4.5-.8 1-1 1.6l-10.6 28.2c-.9 2.4.3 5.2 2.8 6.1s5.2-.3 6.1-2.8l6.5-17.2v55.8c-.1 3.1 2.3 5.8 5.4 5.9s5.8-2.3 5.9-5.4c0-.2 0-.3 0-.5v-33.5c.2-.9 1-1.5 2-1.4.7.1 1.3.7 1.4 1.4v33.5c-.1 3.1 2.3 5.8 5.4 5.9s5.8-2.3 5.9-5.4c0-.2 0-.3 0-.5v-55.8l6.5 17.2c.9 2.4 3.6 3.7 6.1 2.8 2.1-1 3.3-3.7 2.4-6.1zm-28.3-8.3-3.8-4.4 2.5-14.6-1.2-3.2h4.8l-1.1 3.2 2.5 14.6z" fill="none" stroke="#eb6785" stroke-miterlimit="10" stroke-width="2"/><g fill="#eb6785"><path d="m136.1 137.1 2.8-3.7c1.7 1.8 4.1 2.9 6.6 3 3 0 5-1.5 5-4.1 0-2.9-1.7-4.7-8.2-4.7v-4.2c5.4 0 7.2-1.9 7.2-4.5 0-2.3-1.4-3.7-4-3.7-2.1.1-4.1 1.1-5.6 2.6l-3-3.6c2.4-2.3 5.6-3.6 8.9-3.6 5.7 0 9.6 2.8 9.6 7.9 0 3.2-1.8 5.5-5 6.8v.2c3.4.9 5.9 3.4 5.9 7.3 0 5.4-4.8 8.6-10.4 8.6-3.7-.1-7.3-1.6-9.8-4.3z"/><path d="m162.1 137.2 2.7-3.8c1.7 1.8 4 2.9 6.5 3 3.1 0 5.2-2 5.2-5.4s-2-5.4-5-5.4c-1.6 0-3.2.5-4.4 1.6l-2.7-1.8.8-14.4h15.8v4.9h-10.8l-.6 6.3c1.1-.6 2.3-.9 3.6-.8 5 0 9.1 3 9.1 9.4.2 5.5-4.1 10.2-9.6 10.4-.3 0-.5 0-.8 0-3.6.1-7.2-1.3-9.8-4z"/><path d="m146.4 91h-6.1l-1.3 4.8h-3.8l6-18.8h4.4l6 18.8h-3.9zm-.8-2.9-.6-2.1c-.6-1.9-1.1-4.1-1.6-6.1h-.1c-.5 2.1-1 4.2-1.6 6.1l-.6 2.1z"/><path d="m154.1 98.3c.1-1.3.8-2.4 2-2.9v-.1c-.8-.5-1.3-1.4-1.3-2.4.1-1.1.7-2.1 1.6-2.7v-.1c-1.2-.9-1.9-2.2-1.9-3.7 0-3.3 2.7-5.2 5.7-5.2.7 0 1.4.1 2.1.4h5.1v2.7h-2.4c.4.6.7 1.4.7 2.2 0 3.2-2.4 4.8-5.5 4.8-.6 0-1.2-.1-1.8-.3-.4.3-.6.7-.6 1.2 0 .8.6 1.2 2.2 1.2h2.4c3.4 0 5.3 1.1 5.3 3.6 0 2.9-3 5-7.7 5-3.3 0-5.9-1.2-5.9-3.7zm10.1-.8c0-1-.8-1.3-2.4-1.3h-1.7c-.7 0-1.3-.1-2-.2-.6.4-.9 1-.9 1.7 0 1.2 1.3 1.9 3.4 1.9s3.6-.9 3.6-2.1zm-1.7-11.1c0-1.7-.9-2.6-2.2-2.6s-2.2.9-2.2 2.6 1 2.6 2.2 2.6 2.2-.9 2.2-2.6z"/><path d="m170.9 88.7c0-4.6 3.2-7.5 6.6-7.5 3.9 0 5.9 2.9 5.9 6.8 0 .6-.1 1.1-.2 1.7h-8.8c.1 2.1 1.8 3.7 3.9 3.6 1.1 0 2.2-.4 3.2-1l1.3 2.3c-1.5 1-3.2 1.6-5 1.6-3.8-.1-6.9-2.8-6.9-7.5zm9.3-1.4c0-1.9-.9-3.2-2.7-3.2-1.5 0-2.8 1.1-3.1 3.2z"/><path d="m100.1 198.9 1.7-2.2c1 1.1 2.5 1.8 4 1.8 1.8 0 3-.9 3-2.5 0-1.8-1-2.8-4.9-2.8v-2.5c3.3 0 4.3-1.1 4.3-2.7.1-1.2-.8-2.2-2-2.2-.1 0-.3 0-.4 0-1.3.1-2.5.6-3.4 1.6l-1.8-2.2c1.4-1.4 3.3-2.2 5.3-2.2 3.4 0 5.8 1.7 5.8 4.7 0 1.9-1.2 3.5-3 4.1v.1c2.1.4 3.6 2.3 3.6 4.4 0 3.3-2.8 5.2-6.2 5.2-2.3 0-4.5-.9-6-2.6z"/><path d="m114.2 199 1.6-2.2c1 1.1 2.4 1.8 3.9 1.8 1.7.1 3.1-1.2 3.2-2.8 0-.1 0-.3 0-.4.2-1.6-.9-3-2.5-3.2-.2 0-.3 0-.5 0-1 0-1.9.3-2.7.9l-1.6-1 .5-8.6h9.5v2.9h-6.5l-.3 3.8c.7-.3 1.4-.5 2.1-.5 3 0 5.5 1.8 5.5 5.6.1 3.3-2.4 6.1-5.8 6.2-.2 0-.3 0-.5 0-2.1 0-4.3-.9-5.9-2.5z"/><path d="m151.2 192.8c-.7 2.1-1.7 4.1-3.1 5.9.6 1.2 1.3 1.9 1.8 1.9s.7-1 .8-3.1c.6.5 1.3.9 2 1.2-.4 3.5-1.2 4.4-3 4.4-1.2 0-2.4-.9-3.3-2.5-1 .9-2 1.7-3.1 2.4-.6-.7-1.2-1.3-1.9-1.9 1.4-.8 2.7-1.7 3.8-2.9-.9-2.2-1.4-4.4-1.8-6.7h-8.8v1.9c0 2.9-.4 7-2.4 9.7-.6-.7-1.3-1.2-2.1-1.7 1.7-2.4 1.9-5.7 1.9-8.1v-4.1h11c-.1-.6-.1-1.1-.1-1.7h-12.2v-2.3h3.6v-3.6h2.7v3.6h3.6v-4.7h2.8v1.4h6.8v2h-6.8v1.3h8.8v2.3h-3.2c.7.5 1.3 1 1.9 1.6l-.1.1h1.2v2.2h-6.1c.2 1.5.6 2.9 1 4.4.7-1.2 1.3-2.4 1.7-3.7zm-13.5 3.4c-.4 1.6-1.1 3.1-2 4.4-.6-.4-1.2-.8-1.8-1.1.8-1.1 1.4-2.4 1.7-3.8zm2.5-1.3v5.6c0 1-.1 1.6-.8 1.9-.8.4-1.6.5-2.5.4-.1-.7-.4-1.5-.7-2.1h1.4s.3-.1.3-.3v-5.4h-2.6v-2.1h7.5v2.1zm1.6 4.9c-.3-1.2-.8-2.3-1.4-3.4l1.8-.6c.6 1 1.1 2.2 1.5 3.3zm3.7-12.1c0 .6.1 1.1.1 1.7h2.2c-.4-.4-.9-.7-1.3-1l.9-.7z"/></g></svg>